<svg xmlns="http://www.w3.org/2000/svg" width="48" height="48"><path d="M28 8a4 4 0 1 1-8 0 4 4 0 0 1 8 0z"/><path d="M42 12a2 2 0 0 0-2-2 1.941 1.941 0 0 0-.96.278l.009-.005-.014-.025c-4.35 2.376-9.53 3.773-15.035 3.773s-10.685-1.397-15.202-3.857l.167.083-.014.025a1.927 1.927 0 0 0-.949-.273H8a2 2 0 0 0-2 2c.007.745.425 1.39 1.039 1.721l.01.005-.014.025c3.169 1.761 6.855 3.071 10.764 3.722L18 17.5v24.498a2 2 0 1 0 4 0v-12h4v12a2 2 0 1 0 4 0V17.5c4.11-.679 7.796-1.989 11.142-3.84l-.177.09-.014-.025A1.978 1.978 0 0 0 42 11.999v-.001z"/></svg>