<svg xmlns="http://www.w3.org/2000/svg" width="48" height="48" viewBox="0 0 48 48">
  <path d="M38.0005,22v0H28.8283l6.4854-6.4851h0l0,0h0a2,2,0,0,0-2.8287-2.8282l-.0028.0033-6.482,6.4818V10h0a2,2,0,0,0-4,0l0,.0048v9.1676L15.5175,12.69l-.0028-.0033a2,2,0,0,0-2.8287,2.8282h0l0,0h0L19.1717,22H10.0005v0L10,22a2,2,0,0,0,0,4l.0018,0h9.17L12.686,32.4852l0,0a2,2,0,0,0,2.8285,2.8283l.0043-.0053,6.4815-6.4811v9.1679L22,38a2,2,0,0,0,4,0v0h0V28.8282l6.4805,6.48.0043.0053a2,2,0,0,0,2.8285-2.8283l0,0L28.8283,26h9.17L38,26a2,2,0,0,0,.0005-4Z"/>
</svg>
