<svg xmlns="http://www.w3.org/2000/svg" width="48" height="48"><path d="M24 0h-.014C10.739 0 0 10.739 0 23.986c0 11.141 7.596 20.508 17.891 23.205l.167.037c1.786.476 3.837.75 5.952.75 13.249 0 23.989-10.74 23.989-23.989S37.259 0 24.01 0h-.011H24zm-5.357 42.672a2288.36 2288.36 0 0 1-.016-4.418l-.647.115a7.886 7.886 0 0 1-1.573.099h.014a11.65 11.65 0 0 1-2.028-.214l.073.012a4.312 4.312 0 0 1-1.893-.871l.008.007a3.668 3.668 0 0 1-1.23-1.747l-.007-.026-.281-.663a7.185 7.185 0 0 0-.898-1.486l.012.016a3.443 3.443 0 0 0-1.205-1.086l-.018-.009-.197-.145a2.043 2.043 0 0 1-.363-.343l-.003-.003a1.598 1.598 0 0 1-.249-.393l-.004-.01q-.085-.202.14-.332a1.753 1.753 0 0 1 .822-.128h-.006l.562.086c.533.149.998.387 1.402.699l-.009-.007c.56.395 1.017.896 1.352 1.476l.012.022c.38.729.907 1.333 1.546 1.792l.015.01a3.23 3.23 0 0 0 1.838.62h.004l.108.001c.529 0 1.045-.053 1.545-.153l-.05.008a5.528 5.528 0 0 0 1.298-.447l-.032.014a4.707 4.707 0 0 1 1.378-2.969 18.914 18.914 0 0 1-3.015-.549l.132.03a11.296 11.296 0 0 1-2.696-1.154l.052.029a7.658 7.658 0 0 1-2.252-1.916l-.012-.016a9.28 9.28 0 0 1-1.46-2.961l-.016-.066a14.405 14.405 0 0 1-.576-4.337v.013a8.496 8.496 0 0 1 2.228-5.947l-.006.007a7.77 7.77 0 0 1-.472-2.694c0-1.153.246-2.248.688-3.236l-.02.05a3.838 3.838 0 0 1 2.44.399l-.021-.01c.917.352 1.691.725 2.428 1.153l-.08-.043q.745.46 1.195.778c1.618-.476 3.477-.749 5.4-.749s3.782.274 5.54.784l-.14-.035 1.069-.692a14.497 14.497 0 0 1 2.485-1.234l.102-.035a3.558 3.558 0 0 1 1.61-.38c.237 0 .468.023.692.066l-.023-.004c.436.946.69 2.052.69 3.218 0 .955-.17 1.87-.482 2.716l.018-.054a8.495 8.495 0 0 1 2.224 5.744l-.002.206v-.01l.002.228c0 1.464-.211 2.879-.605 4.216l.027-.105a9.024 9.024 0 0 1-1.506 3.05l.016-.022a7.968 7.968 0 0 1-2.24 1.897l-.039.02c-.76.453-1.637.836-2.564 1.105l-.08.02c-.819.226-1.798.409-2.802.513l-.081.007a5.188 5.188 0 0 1 1.461 4.114l.001-.02v6.375c-1.608.49-3.457.772-5.371.772-1.909 0-3.753-.281-5.492-.803l.135.035z"/></svg>