<svg xmlns="http://www.w3.org/2000/svg" width="48" height="48"><path d="M41 20a3 3 0 1 0 0-6h-5.086l1.007-4.318-.006-.002a2.994 2.994 0 0 0-5.827-1.381l-.004.02-.006-.001-1.326 5.681h-7.838l1.007-4.318-.006-.002a2.994 2.994 0 0 0-5.827-1.381l-.004.02-.006-.001-1.326 5.681H9a3 3 0 1 0 0 6h5.352l-1.867 8H6.999a3 3 0 1 0 0 6h4.086l-1.007 4.318.006.001a2.994 2.994 0 0 0 5.827 1.381l.004-.02.006.001 1.326-5.681h7.838l-1.007 4.318.006.001a2.994 2.994 0 0 0 5.827 1.381l.004-.02.006.001 1.326-5.681h7.752a3 3 0 1 0 0-6h-6.352l1.867-8zm-14.514 8h-7.838l1.867-8h7.838z"/></svg>