<svg xmlns="http://www.w3.org/2000/svg" width="48" height="48"><path d="M42.212 7.742A12.947 12.947 0 0 0 33.091 4c-3.541 0-6.75 1.417-9.093 3.715L24 7.713A12.942 12.942 0 0 0 14.909 4a12.944 12.944 0 0 0-9.122 3.744l.001-.001A12.623 12.623 0 0 0 2 16.775v.027-.001a12.823 12.823 0 0 0 3.77 9.04c4.2 4.271 16.654 17.404 16.78 17.537h.01c.361.384.872.623 1.439.623s1.079-.239 1.439-.622l.001-.001h.012c.125-.133 12.576-13.262 16.775-17.531A12.83 12.83 0 0 0 46 16.805V16.776c0-3.536-1.449-6.733-3.786-9.031l-.002-.002z"/></svg>