<svg xmlns="http://www.w3.org/2000/svg" width="48" height="48"><path d="M24.004 13.745h-.002c-5.664 0-10.255 4.591-10.255 10.255s4.591 10.255 10.255 10.255c5.664 0 10.255-4.591 10.255-10.255v-.017c0-5.654-4.584-10.238-10.238-10.238h-.016.001zm0 16.922h-.001A6.667 6.667 0 1 1 30.67 24a6.678 6.678 0 0 1-6.665 6.667h-.001zm13.065-17.342a2.391 2.391 0 1 1-2.392-2.393h.005a2.386 2.386 0 0 1 2.386 2.386v.006zm6.791 2.428a11.801 11.801 0 0 0-3.235-8.387l.005.006a11.867 11.867 0 0 0-8.159-3.233l-.233.002h.012c-3.302-.187-13.198-.187-16.5 0-.071-.002-.154-.002-.237-.002-3.154 0-6.02 1.227-8.149 3.23l.006-.006a11.83 11.83 0 0 0-3.229 8.394v-.012c-.187 3.303-.187 13.201 0 16.503a11.801 11.801 0 0 0 3.235 8.387l-.005-.006a11.877 11.877 0 0 0 8.165 3.233l.226-.002h-.011c3.302.187 13.198.187 16.5 0a11.79 11.79 0 0 0 8.385-3.236l-.005.005a11.87 11.87 0 0 0 3.232-8.16l-.002-.233v.012c.187-3.302.187-13.192 0-16.494zm-4.266 20.038a6.788 6.788 0 0 1-3.756 3.786l-.045.016c-2.633 1.044-8.88.803-11.788.803s-9.164.232-11.788-.803a6.788 6.788 0 0 1-3.785-3.757l-.016-.045c-1.044-2.633-.803-8.88-.803-11.791s-.232-9.167.803-11.791a6.788 6.788 0 0 1 3.756-3.786l.045-.016c2.632-1.044 8.88-.803 11.788-.803s9.165-.232 11.788.803a6.788 6.788 0 0 1 3.785 3.757l.016.045c1.044 2.633.803 8.88.803 11.791s.241 9.167-.803 11.791z"/></svg>