<svg xmlns="http://www.w3.org/2000/svg" width="48" height="48"><path d="M24 6C14.059 6 6 14.059 6 24s8.059 18 18 18 18-8.059 18-18S33.941 6 24 6zm1.951 28.01H21.16v-4.707h4.791zm2.577-10.143a11.259 11.259 0 0 0-2.36 1.688l.007-.006a2.75 2.75 0 0 0-.531 1.915l-.001-.011h-4.034a4.733 4.733 0 0 1 1.92-4.668l.014-.01c1.232-1.148 2.829-1.568 2.829-3.277a2.142 2.142 0 0 0-2.39-2.101l.01-.001a2.676 2.676 0 0 0-2.829 2.894l-.001-.01h-4.511c.084-3.949 2.857-6.666 7.536-6.666 4.174 0 6.976 2.326 6.976 5.715a4.931 4.931 0 0 1-2.607 4.524l-.026.013z"/></svg>