<svg xmlns="http://www.w3.org/2000/svg" width="48" height="48"><path d="M23.997 0a23.57 23.57 0 0 1 24 24 23.57 23.57 0 0 1-24 24 23.57 23.57 0 0 1-24-24 23.57 23.57 0 0 1 24-24Zm0 43.733c11.467 0 19.467-8.8 19.467-19.733S35.197 4.267 23.997 4.267c-11.466 0-19.466 8.8-19.466 19.733s8 19.733 19.466 19.733Zm6.934-14.666a8.78 8.78 0 0 1-5.067 1.6c-3.467 0-5.867-2.667-5.867-6.934s2.134-6.933 5.6-6.933a9.361 9.361 0 0 1 4.8 1.6l.534-4a9.58 9.58 0 0 0-5.867-1.6c-5.867 0-10.133 4.267-10.133 10.933 0 6.4 4 10.667 10.133 10.667a11.047 11.047 0 0 0 6.133-1.6Z"/></svg>