<svg xmlns="http://www.w3.org/2000/svg" width="48" height="48"><path d="M43.795 16.885c-5.366 6.46-10.464 13.19-16.635 19.113 5.098-9.153 12.879-16.69 18.245-25.574.805-1.346-2.951-3.23-3.756-2.423l-3.22 3.23c.537-1.346-2.952-2.96-3.756-2.153s-1.879 1.615-2.684 2.422c.537-.807 1.342-1.615 1.879-2.422.805-1.346-2.684-3.23-3.757-2.423-1.61 1.346-2.951 2.692-4.293 4.038C27.696 8 29.575 5.309 31.184 2.617c.805-1.346-2.683-3.23-3.756-2.423-6.976 5.384-12.61 12.383-19.05 18.036 3.22-4.845 7.245-9.96 9.928-14.536.805-1.346-3.22-3.5-4.025-2.154C9.719 8.54 2.743 16.346.06 24.153c-.537 1.616 2.683 2.962 3.756 2.423A49.56 49.56 0 0 0 14.281 18.5a162.26 162.26 0 0 0-9.66 13.999c-.805 1.346 2.415 2.96 3.757 2.422-1.074 1.346-1.879 2.962-2.952 4.308-.805 1.346 2.683 2.96 3.757 2.422.268-.269.536-.269.805-.538-.805 1.346-1.61 2.423-2.415 3.769s2.951 3.23 3.756 2.423c3.488-3.5 6.708-6.73 10.196-9.96a34.162 34.162 0 0 0-1.61 4.845c-.537 1.346 2.683 3.23 3.756 2.423a14.752 14.752 0 0 0 2.415-1.884c-.536.807-1.073 1.884-1.61 2.692-.805 1.346 2.952 3.5 4.025 2.153 5.098-5.922 9.39-12.652 16.099-16.96 1.341-.807-1.61-2.96-3.22-2.692 2.146-2.96 4.293-6.191 6.44-9.152 1.073-.808-2.952-2.962-4.025-1.885Z"/></svg>