<svg xmlns="http://www.w3.org/2000/svg" width="48" height="48"><path d="M44 20h-2.461a17.84 17.84 0 0 0-2.355-5.641l.043.072 1.744-1.744c.362-.362.586-.862.586-1.414s-.224-1.052-.586-1.414L38.143 7.03c-.362-.362-.862-.586-1.414-.586s-1.052.224-1.414.586l-1.744 1.744a17.607 17.607 0 0 0-5.45-2.289L28 6.461V4a2 2 0 0 0-2-2h-4a2 2 0 0 0-2 2v2.461a17.84 17.84 0 0 0-5.641 2.355l.072-.043-1.744-1.744c-.362-.362-.862-.586-1.414-.586s-1.052.224-1.414.586L7.03 9.857c-.362.362-.586.862-.586 1.414s.224 1.052.586 1.414l1.744 1.744a17.607 17.607 0 0 0-2.289 5.45L6.461 20H4a2 2 0 0 0-2 2v4a2 2 0 0 0 2 2h2.461a17.84 17.84 0 0 0 2.355 5.641l-.043-.072-1.744 1.744c-.362.362-.586.862-.586 1.414s.224 1.052.586 1.414l2.828 2.828c.362.362.862.586 1.414.586s1.052-.224 1.414-.586l1.744-1.744a17.585 17.585 0 0 0 5.45 2.29l.121.024V44a2 2 0 0 0 2 2h4a2 2 0 0 0 2-2v-2.461a17.84 17.84 0 0 0 5.641-2.355l-.072.043 1.744 1.744c.362.362.862.586 1.414.586s1.052-.224 1.414-.586l2.828-2.828c.362-.362.586-.862.586-1.414s-.224-1.052-.586-1.414l-1.744-1.744a17.585 17.585 0 0 0 2.29-5.45l.024-.121H44a2 2 0 0 0 2-2v-4a2 2 0 0 0-2-2zM24 32a8 8 0 1 1 8-8 8 8 0 0 1-8 8z"/></svg>