<svg xmlns="http://www.w3.org/2000/svg" width="48" height="48"><path d="M18 4a2 2 0 0 0-2 2v7.171L5.414 2.585a2 2 0 1 0-2.825 2.831L13.172 16H6a2 2 0 1 0 0 4h12a2 2 0 0 0 2-2V6a2 2 0 0 0-2-2zM30 20h12a2 2 0 1 0 0-4h-7.172L45.411 5.417a2 2 0 1 0-2.825-2.831l-.001.001-10.586 10.585V6.001a2 2 0 1 0-4 0v12a2 2 0 0 0 2 2zM18 28H6a2 2 0 1 0 0 4h7.172L2.586 42.586a2 2 0 1 0 2.829 2.827l.001-.001 10.585-10.585V42a2 2 0 1 0 4 0V30a2 2 0 0 0-2-2zM45.414 42.586 34.828 32H42a2 2 0 1 0 0-4H30a2 2 0 0 0-2 2v12a2 2 0 1 0 4 0v-7.173L42.583 45.41a2 2 0 1 0 2.831-2.825l-.001-.001z"/></svg>