<svg xmlns="http://www.w3.org/2000/svg" width="48" height="48"><path d="M46 18a2 2 0 0 0-2-2H29.689L25.917 3.427h-.032C25.646 2.597 24.893 2 24.001 2s-1.645.597-1.881 1.413l-.003.014h-.031L18.314 16H4.002a2 2 0 0 0-2 2c.007.617.296 1.166.746 1.522l.004.003-.01.029 11.664 9.477-4.319 14.396.028.018a1.898 1.898 0 0 0-.112.55V44a2 2 0 0 0 2 2 1.952 1.952 0 0 0 1.239-.468l-.003.002.025.02.02-.016.012-.01 10.707-8.701 10.74 8.726.025-.02c.331.283.762.458 1.234.467h.002a2 2 0 0 0 2-2 1.945 1.945 0 0 0-.116-.568l.004.013.028-.019-4.319-14.396 11.664-9.477-.01-.029c.453-.359.743-.907.749-1.523V18z"/></svg>