<svg xmlns="http://www.w3.org/2000/svg" width="48" height="48"><path d="M40 11.5a3.5 3.5 0 1 1-7 0 3.5 3.5 0 0 1 7 0zM34 24h-5.172l4.585-4.585a1.995 1.995 0 0 0 0-2.83l-10-10c-.362-.362-.862-.586-1.414-.586s-1.052.224-1.414.586l-6 6a2 2 0 1 0 2.827 2.829l4.587-4.586L25.171 14l-6.188 6.188A10.573 10.573 0 0 0 16.966 20c-2.675 0-5.124.963-7.021 2.562l.016-.014 2.865 2.865A6.894 6.894 0 0 1 16.998 24h.001a7.009 7.009 0 0 1 7 7 6.904 6.904 0 0 1-1.425 4.189l.012-.017 2.865 2.865A10.88 10.88 0 0 0 28 31.018a10.95 10.95 0 0 0-.444-3.096l.02.077h4.425v10a2 2 0 1 0 4 0v-12a2 2 0 0 0-2-2zM17 38a7.009 7.009 0 0 1-7-7 6.904 6.904 0 0 1 1.425-4.189l-.012.017-2.865-2.865A10.94 10.94 0 0 0 6 31.002C6 37.076 10.924 42 16.998 42c2.686 0 5.147-.963 7.057-2.562l-.017.014-2.865-2.865A6.885 6.885 0 0 1 17.001 38H17z"/></svg>