<?xml version="1.0" encoding="UTF-8"?><svg id="a" xmlns="http://www.w3.org/2000/svg" width="400" height="400" viewBox="0 0 400 400"><defs><style>.e{stroke-linejoin:round;}.e,.f{fill:none;stroke:#231f20;stroke-linecap:round;}.g{fill:#ea5500;}.h{fill:#231f20;}.f{stroke-miterlimit:10;}.i{fill:#fff;opacity:0;}</style></defs><rect class="i" y="-12" width="96" height="16"/><g><rect class="g" width="400" height="400"/><g><line class="e" x1="320" y1="240" x2="320" y2="194.2857"/><line class="e" x1="320" y1="194.2857" x2="320" y2="148.5714"/><line class="e" x1="148.5714" y1="125.7143" x2="148.5714" y2="80"/><line class="e" x1="251.4286" y1="308.5714" x2="251.4286" y2="262.8571"/><line class="f" x1="262.8576" y1="137.1434" x2="320" y2="194.2857"/><line class="f" x1="80" y1="194.2857" x2="148.5714" y2="125.7143"/><line class="f" x1="148.5714" y1="125.7143" x2="234.2857" y2="125.7143"/><line class="e" x1="148.5714" y1="160" x2="148.5714" y2="125.7143"/><line class="e" x1="148.5714" y1="308.5714" x2="148.5714" y2="262.8571"/><line class="e" x1="80" y1="194.2857" x2="80" y2="148.5714"/><path d="m259.0742,123.4761c0,2.6562-.6641,4.7207-1.9922,6.1938-1.3281,1.4736-3.209,2.21-5.6416,2.21-2.4629,0-4.3545-.731-5.6758-2.1929-1.3203-1.4624-1.9805-3.54-1.9805-6.2334s.6641-4.7617,1.9922-6.2056c1.3281-1.4434,3.2236-2.165,5.6865-2.165,2.4248,0,4.2998.7329,5.625,2.1987,1.3242,1.4658,1.9863,3.5308,1.9863,6.1943Zm-12.4551,0c0,2.0088.4053,3.5322,1.2158,4.5703.8115,1.0376,2.0127,1.5566,3.6055,1.5566,1.585,0,2.7803-.5132,3.5879-1.54s1.2109-2.5557,1.2109-4.5869c0-2.0015-.3994-3.5195-1.1992-4.5537-.8008-1.0342-1.9922-1.5513-3.5771-1.5513-1.5996,0-2.8076.5171-3.6221,1.5513s-1.2217,2.5522-1.2217,4.5537Z"/><path d="m326.4404,137.3711h-2.6787v-7.355h-7.5225v7.355h-2.667v-16.3169h2.667v6.6738h7.5225v-6.6738h2.6787v16.3169Z"/><line class="e" x1="148.5714" y1="262.8571" x2="148.5714" y2="228.5714"/><g><path d="m147.6338,209.1904c0,2.6562-.6641,4.7207-1.9922,6.1938-1.3281,1.4736-3.209,2.21-5.6416,2.21-2.4629,0-4.3545-.731-5.6758-2.1929-1.3203-1.4624-1.9805-3.54-1.9805-6.2334s.6641-4.7617,1.9922-6.2056c1.3281-1.4434,3.2236-2.165,5.6865-2.165,2.4248,0,4.2998.7329,5.625,2.1987,1.3242,1.4658,1.9863,3.5308,1.9863,6.1943Zm-12.4551,0c0,2.0088.4053,3.5322,1.2158,4.5703.8115,1.0376,2.0127,1.5566,3.6055,1.5566,1.585,0,2.7803-.5132,3.5879-1.54s1.2109-2.5557,1.2109-4.5869c0-2.0015-.3994-3.5195-1.1992-4.5537-.8008-1.0342-1.9922-1.5513-3.5771-1.5513-1.5996,0-2.8076.5171-3.6221,1.5513s-1.2217,2.5522-1.2217,4.5537Z"/><path d="m164.0068,217.3711h-2.6787v-7.355h-7.5225v7.355h-2.667v-16.3169h2.667v6.6738h7.5225v-6.6738h2.6787v16.3169Z"/></g><g><path d="m319.0625,260.6187c0,2.6562-.6641,4.7207-1.9922,6.1938-1.3281,1.4736-3.209,2.21-5.6416,2.21-2.4629,0-4.3545-.731-5.6758-2.1929-1.3203-1.4624-1.9805-3.54-1.9805-6.2334s.6641-4.7617,1.9922-6.2056c1.3281-1.4434,3.2236-2.165,5.6865-2.165,2.4248,0,4.2998.7329,5.625,2.1987,1.3242,1.4658,1.9863,3.5308,1.9863,6.1943Zm-12.4551,0c0,2.0088.4053,3.5322,1.2158,4.5703.8115,1.0376,2.0127,1.5566,3.6055,1.5566,1.585,0,2.7803-.5132,3.5879-1.54s1.2109-2.5557,1.2109-4.5869c0-2.0015-.3994-3.5195-1.1992-4.5537-.8008-1.0342-1.9922-1.5513-3.5771-1.5513-1.5996,0-2.8076.5171-3.6221,1.5513s-1.2217,2.5522-1.2217,4.5537Z"/><path d="m335.4355,268.7993h-2.6787v-7.355h-7.5225v7.355h-2.667v-16.3169h2.667v6.6738h7.5225v-6.6738h2.6787v16.3169Z"/></g><line class="e" x1="80" y1="240" x2="80" y2="194.2857"/><g><path d="m79.0625,260.6187c0,2.6562-.6641,4.7207-1.9922,6.1938-1.3281,1.4736-3.209,2.21-5.6416,2.21-2.4629,0-4.3545-.731-5.6758-2.1929-1.3203-1.4624-1.9805-3.54-1.9805-6.2334s.6641-4.7617,1.9922-6.2056c1.3281-1.4434,3.2236-2.165,5.6865-2.165,2.4248,0,4.2998.7329,5.625,2.1987,1.3242,1.4658,1.9863,3.5308,1.9863,6.1943Zm-12.4551,0c0,2.0088.4053,3.5322,1.2158,4.5703.8115,1.0376,2.0127,1.5566,3.6055,1.5566,1.585,0,2.7803-.5132,3.5879-1.54s1.2109-2.5557,1.2109-4.5869c0-2.0015-.3994-3.5195-1.1992-4.5537-.8008-1.0342-1.9922-1.5513-3.5771-1.5513-1.5996,0-2.8076.5171-3.6221,1.5513s-1.2217,2.5522-1.2217,4.5537Z"/><path d="m95.4355,268.7993h-2.6787v-7.355h-7.5225v7.355h-2.667v-16.3169h2.667v6.6738h7.5225v-6.6738h2.6787v16.3169Z"/></g><g><path d="m119.3711,48.8223c-1.5322,0-2.7383.543-3.6162,1.6294s-1.3164,2.5854-1.3164,4.4976c0,2.0015.4219,3.5156,1.2666,4.5425s2.0664,1.54,3.666,1.54c.6924,0,1.3623-.0684,2.0088-.2065.6475-.1372,1.3213-.314,2.0205-.5298v2.2876c-1.2803.4839-2.7305.7256-4.3525.7256-2.3887,0-4.2227-.7236-5.502-2.1709-1.2803-1.4468-1.9199-3.5171-1.9199-6.2109,0-1.6963.3105-3.1807.9316-4.4531.6211-1.272,1.5195-2.2466,2.6953-2.9238s2.5557-1.0156,4.1406-1.0156c1.667,0,3.207.3496,4.6211,1.0488l-.96,2.2212c-.5508-.2603-1.1328-.4893-1.7471-.6865-.6133-.1968-1.2588-.2954-1.9365-.2954Z"/><path d="m139.7842,63.0854h-2.6787v-7.355h-7.5225v7.355h-2.667v-16.3169h2.667v6.6738h7.5225v-6.6738h2.6787v16.3169Z"/><path d="m150.9756,68.7998h-8.2959v-1.4897l3.1562-3.1729c.9316-.9541,1.5498-1.6304,1.8535-2.0298.3047-.3989.5264-.7739.666-1.1255s.209-.7285.209-1.1304c0-.5522-.166-.9878-.498-1.3057s-.791-.4771-1.377-.4771c-.4688,0-.9219.0864-1.3604.2593-.4375.1733-.9443.4858-1.5186.9375l-1.0635-1.2974c.6807-.5747,1.3418-.9819,1.9834-1.2222.6416-.2397,1.3262-.3599,2.0508-.3599,1.1387,0,2.0508.2974,2.7373.8916s1.0303,1.3936,1.0303,2.3979c0,.5527-.0996,1.0771-.2979,1.5737s-.502,1.0088-.9121,1.5361-1.0928,1.2402-2.0469,2.1387l-2.126,2.0591v.0835h5.8096v1.7329Z"/><path d="m168.3525,54.9048c0,2.6562-.6641,4.7207-1.9922,6.1938-1.3281,1.4736-3.209,2.21-5.6416,2.21-2.4629,0-4.3545-.731-5.6758-2.1929-1.3203-1.4624-1.9805-3.54-1.9805-6.2334s.6641-4.7617,1.9922-6.2056c1.3281-1.4434,3.2236-2.165,5.6865-2.165,2.4248,0,4.2998.7329,5.625,2.1987,1.3242,1.4658,1.9863,3.5308,1.9863,6.1943Zm-12.4551,0c0,2.0088.4053,3.5322,1.2158,4.5703.8115,1.0376,2.0127,1.5566,3.6055,1.5566,1.585,0,2.7803-.5132,3.5879-1.54s1.2109-2.5557,1.2109-4.5869c0-2.0015-.3994-3.5195-1.1992-4.5537-.8008-1.0342-1.9922-1.5513-3.5771-1.5513-1.5996,0-2.8076.5171-3.6221,1.5513s-1.2217,2.5522-1.2217,4.5537Z"/><path d="m184.7256,63.0854h-2.6787v-7.355h-7.5225v7.355h-2.667v-16.3169h2.667v6.6738h7.5225v-6.6738h2.6787v16.3169Z"/></g><path d="m155.0117,188.7993h-2.6787v-7.355h-7.5225v7.355h-2.667v-16.3169h2.667v6.6738h7.5225v-6.6738h2.6787v16.3169Z"/><path d="m86.4395,137.3711h-2.6787v-7.355h-7.5225v7.355h-2.667v-16.3169h2.667v6.6738h7.5225v-6.6738h2.6787v16.3169Z"/><path d="m155.0117,337.3711h-2.6787v-7.355h-7.5225v7.355h-2.667v-16.3169h2.667v6.6738h7.5225v-6.6738h2.6787v16.3169Z"/><g><path d="m250.4912,329.1904c0,2.6562-.6641,4.7207-1.9922,6.1943-1.3281,1.4727-3.209,2.21-5.6416,2.21-2.4629,0-4.3545-.7314-5.6758-2.1934-1.3203-1.4619-1.9805-3.54-1.9805-6.2334s.6641-4.7617,1.9922-6.2056c1.3281-1.4434,3.2236-2.165,5.6865-2.165,2.4248,0,4.2998.7329,5.625,2.1987,1.3242,1.4658,1.9863,3.5308,1.9863,6.1943Zm-12.4551,0c0,2.0088.4053,3.5322,1.2158,4.5703.8115,1.0381,2.0127,1.5566,3.6055,1.5566,1.585,0,2.7803-.5137,3.5879-1.54s1.2109-2.5557,1.2109-4.5869c0-2.0015-.3994-3.5195-1.1992-4.5537-.8008-1.0342-1.9922-1.5513-3.5771-1.5513-1.5996,0-2.8076.5171-3.6221,1.5513s-1.2217,2.5522-1.2217,4.5537Z"/><path d="m266.8643,337.3711h-2.6787v-7.355h-7.5225v7.355h-2.667v-16.3169h2.667v6.6738h7.5225v-6.6738h2.6787v16.3169Z"/></g><path class="h" d="m320.3536,194.6393l-67.5107,69.632c-.3765.3883-.8766.5842-1.3779.5858-.0053.015-102.8773-.0108-102.8934,0-.5478.008-1.0596-.2196-1.4144-.5859,0,0-67.5107-69.632-67.5107-69.632-.1923-.1983-.1873-.5149.0109-.7071.6606-1.1414,69.8217,67.5616,70.3285,67.51-.0003.0007-1.4144-.585-1.4144-.585h102.8569l-1.4141.5857,69.632-67.5107c.1983-.1922.5149-.1873.7072.0109.1884.1944.1868.503,0,.6962h0Z"/></g></g></svg>