<!-- Generated by IcoMoon.io -->
<svg version="1.1" xmlns="http://www.w3.org/2000/svg" width="48" height="48" viewBox="0 0 48 48">
<title>Arrow Down</title>
<path d="M6.586 23.414v0l16 16c0.362 0.362 0.862 0.586 1.414 0.586s1.052-0.224 1.414-0.586l16-16c0.372-0.364 0.603-0.871 0.603-1.432 0-1.105-0.895-2-2-2-0.561 0-1.069 0.231-1.432 0.604l-12.585 12.585v-23.172c0-1.105-0.895-2-2-2s-2 0.895-2 2v0 0 0 23.172l-12.585-12.585c-0.364-0.373-0.871-0.604-1.433-0.604-1.105 0-2 0.895-2 2 0 0.561 0.231 1.068 0.603 1.431l0 0z"></path>
</svg>
