<!-- Generated by IcoMoon.io -->
<svg version="1.1" xmlns="http://www.w3.org/2000/svg" width="48" height="48" viewBox="0 0 48 48">
<title>Arrow Left</title>
<path d="M24.586 6.586v0l-16 16c-0.362 0.362-0.586 0.862-0.586 1.414s0.224 1.052 0.586 1.414l16 16c0.364 0.372 0.871 0.603 1.432 0.603 1.105 0 2-0.895 2-2 0-0.561-0.231-1.069-0.604-1.432l-12.585-12.585h23.172c1.105 0 2-0.895 2-2s-0.895-2-2-2v0 0 0h-23.172l12.585-12.585c0.373-0.364 0.604-0.871 0.604-1.433 0-1.105-0.895-2-2-2-0.561 0-1.068 0.231-1.431 0.603l-0 0z"></path>
</svg>
