<!-- Generated by IcoMoon.io -->
<svg version="1.1" xmlns="http://www.w3.org/2000/svg" width="48" height="48" viewBox="0 0 48 48">
<title>Arrow Up</title>
<path d="M41.414 24.586v0l-16-16c-0.362-0.362-0.862-0.586-1.414-0.586s-1.052 0.224-1.414 0.586l-16 16c-0.372 0.364-0.603 0.871-0.603 1.432 0 1.105 0.895 2 2 2 0.561 0 1.069-0.231 1.432-0.604l12.585-12.585v23.172c0 1.105 0.895 2 2 2s2-0.895 2-2v0 0 0-23.172l12.585 12.585c0.364 0.373 0.871 0.604 1.432 0.604 1.105 0 2-0.895 2-2 0-0.561-0.231-1.068-0.603-1.431l-0-0z"></path>
</svg>
