<!-- Generated by IcoMoon.io -->
<svg version="1.1" xmlns="http://www.w3.org/2000/svg" width="48" height="48" viewBox="0 0 48 48">
<title>Checkbox Checked</title>
<path d="M36 8h-24c-2.209 0-4 1.791-4 4v0 24c0 2.209 1.791 4 4 4v0h24c2.209 0 4-1.791 4-4v0-24c0-2.209-1.791-4-4-4v0zM34.413 19.415l-13.413 13.414-7.413-7.414c-0.377-0.364-0.611-0.874-0.611-1.439 0-1.105 0.895-2 2-2 0.565 0 1.074 0.234 1.438 0.61l4.586 4.586 10.585-10.585c0.364-0.377 0.874-0.611 1.439-0.611 1.105 0 2 0.895 2 2 0 0.565-0.234 1.074-0.61 1.438l-0.001 0.001z"></path>
</svg>
