<!-- Generated by IcoMoon.io -->
<svg version="1.1" xmlns="http://www.w3.org/2000/svg" width="48" height="48" viewBox="0 0 48 48">
<title>Chevron Left</title>
<path d="M30.584 6.589l-15.995 15.995c-0.364 0.362-0.589 0.863-0.589 1.416s0.224 1.053 0.587 1.415l15.998 15.998c0.364 0.375 0.873 0.608 1.436 0.608 1.105 0 2-0.895 2-2 0-0.563-0.232-1.071-0.607-1.435l-14.586-14.586 14.586-14.586c0.379-0.365 0.615-0.876 0.615-1.442 0-1.105-0.895-2-2-2-0.568 0-1.080 0.237-1.444 0.616l-0.001 0.001z"></path>
</svg>
