<!-- Generated by IcoMoon.io -->
<svg version="1.1" xmlns="http://www.w3.org/2000/svg" width="48" height="48" viewBox="0 0 48 48">
<title>Chevron Up</title>
<path d="M41.411 30.584l-15.995-15.995c-0.362-0.364-0.863-0.589-1.416-0.589s-1.053 0.224-1.415 0.587l-15.998 15.998c-0.375 0.364-0.608 0.873-0.608 1.436 0 1.105 0.895 2 2 2 0.563 0 1.071-0.232 1.435-0.607l14.586-14.586 14.586 14.586c0.364 0.379 0.876 0.615 1.442 0.615 1.105 0 2-0.895 2-2 0-0.568-0.237-1.080-0.616-1.444l-0.001-0.001z"></path>
</svg>
