<!-- Generated by IcoMoon.io -->
<svg version="1.1" xmlns="http://www.w3.org/2000/svg" width="48" height="48" viewBox="0 0 48 48">
<title>Chevron Right</title>
<path d="M17.416 41.411l15.995-15.995c0.364-0.362 0.589-0.863 0.589-1.416s-0.224-1.053-0.587-1.415l-15.998-15.998c-0.364-0.375-0.873-0.608-1.436-0.608-1.105 0-2 0.895-2 2 0 0.563 0.232 1.071 0.607 1.435l14.586 14.586-14.586 14.586c-0.379 0.364-0.615 0.876-0.615 1.442 0 1.105 0.895 2 2 2 0.568 0 1.080-0.237 1.444-0.616l0.001-0.001z"></path>
</svg>
