<!-- Generated by IcoMoon.io -->
<svg version="1.1" xmlns="http://www.w3.org/2000/svg" width="48" height="48" viewBox="0 0 48 48">
<title>Close</title>
<path d="M43.413 40.585l-16.585-16.585 16.586-16.586c0.379-0.365 0.614-0.876 0.614-1.442 0-1.105-0.895-2-2-2-0.568 0-1.080 0.237-1.444 0.617l-16.585 16.584-16.585-16.585c-0.364-0.375-0.873-0.608-1.436-0.608-1.105 0-2 0.895-2 2 0 0.563 0.232 1.071 0.607 1.435l16.586 16.586-16.583 16.583c-0.381 0.365-0.617 0.877-0.617 1.445 0 1.105 0.895 2 2 2 0.566 0 1.078-0.235 1.442-0.614l0.001-0.001 16.586-16.586 16.585 16.585c0.364 0.374 0.872 0.607 1.435 0.607 1.105 0 2-0.895 2-2 0-0.563-0.233-1.072-0.608-1.436l-0.001-0z"></path>
</svg>
