<!-- Generated by IcoMoon.io -->
<svg version="1.1" xmlns="http://www.w3.org/2000/svg" width="48" height="48" viewBox="0 0 48 48">
<title>disabled</title>
<path d="M24 6c-9.941 0-18 8.059-18 18s8.059 18 18 18c9.941 0 18-8.059 18-18v0c0-9.941-8.059-18-18-18v0zM10 24c0.001-3.158 1.055-6.069 2.829-8.404l-0.025 0.034 19.565 19.566c-2.308 1.75-5.229 2.803-8.395 2.803-7.717 0-13.973-6.256-13.973-13.973 0-0.009 0-0.019 0-0.028v0.001zM35.196 32.369l-19.565-19.566c2.308-1.75 5.228-2.803 8.395-2.803 7.717 0 13.973 6.256 13.973 13.973 0 3.167-1.053 6.087-2.829 8.43l0.025-0.035z"></path>
</svg>
