<!-- Generated by IcoMoon.io -->
<svg version="1.1" xmlns="http://www.w3.org/2000/svg" width="48" height="48" viewBox="0 0 48 48">
<title>double-chevron-down</title>
<path d="M6.586 11.414v0l16 16c0.362 0.362 0.862 0.585 1.414 0.585s1.052-0.224 1.414-0.585l16-16c0.374-0.364 0.607-0.872 0.607-1.435 0-1.105-0.895-2-2-2-0.563 0-1.072 0.233-1.436 0.608l-0 0.001-14.584 14.585-14.585-14.585c-0.364-0.375-0.873-0.608-1.436-0.608-1.105 0-2 0.895-2 2 0 0.563 0.232 1.071 0.606 1.434l0 0z"></path>
<path d="M40 20c-0.001 0-0.002 0-0.002 0-0.552 0-1.052 0.225-1.413 0.588l-14.585 14.585-14.585-14.585c-0.364-0.375-0.873-0.608-1.436-0.608-1.105 0-2 0.895-2 2 0 0.563 0.232 1.071 0.606 1.434l16 16c0.362 0.362 0.862 0.585 1.414 0.585s1.052-0.224 1.414-0.585l16-16c0.362-0.362 0.586-0.862 0.586-1.414 0-1.104-0.895-2-2-2h-0z"></path>
</svg>
