<!-- Generated by IcoMoon.io -->
<svg version="1.1" xmlns="http://www.w3.org/2000/svg" width="48" height="48" viewBox="0 0 48 48">
<title>double-chevron-right</title>
<path d="M11.414 41.414v0l16-16c0.362-0.362 0.585-0.862 0.585-1.414s-0.224-1.052-0.585-1.414l-16-16c-0.364-0.374-0.872-0.607-1.435-0.607-1.105 0-2 0.895-2 2 0 0.563 0.233 1.072 0.608 1.436l0.001 0 14.585 14.584-14.585 14.585c-0.375 0.364-0.608 0.873-0.608 1.436 0 1.105 0.895 2 2 2 0.563 0 1.071-0.232 1.434-0.606l0-0z"></path>
<path d="M20 8c0 0.001 0 0.002 0 0.002 0 0.552 0.225 1.052 0.588 1.413l14.585 14.585-14.585 14.585c-0.375 0.364-0.608 0.873-0.608 1.436 0 1.105 0.895 2 2 2 0.563 0 1.071-0.232 1.434-0.606l16-16c0.362-0.362 0.585-0.862 0.585-1.414s-0.224-1.052-0.585-1.414l-16-16c-0.362-0.362-0.862-0.586-1.414-0.586-1.104 0-2 0.895-2 2v0z"></path>
</svg>
