<!-- Generated by IcoMoon.io -->
<svg version="1.1" xmlns="http://www.w3.org/2000/svg" width="48" height="48" viewBox="0 0 48 48">
<title>github</title>
<path d="M24 0c-0.004 0-0.009 0-0.014 0-13.247 0-23.986 10.739-23.986 23.986 0 11.141 7.596 20.508 17.891 23.205l0.167 0.037c1.786 0.476 3.837 0.75 5.952 0.75 13.249 0 23.989-10.74 23.989-23.989s-10.74-23.989-23.989-23.989c-0.004 0-0.007 0-0.011 0h0.001zM18.643 42.672c-0.008-1.872-0.016-4.019-0.016-4.418l-0.647 0.115c-0.389 0.066-0.837 0.104-1.293 0.104-0.094 0-0.187-0.002-0.28-0.005l0.014 0c-0.7-0.013-1.374-0.086-2.028-0.214l0.073 0.012c-0.724-0.14-1.36-0.444-1.893-0.871l0.008 0.007c-0.572-0.448-1.002-1.051-1.23-1.747l-0.007-0.026-0.281-0.663c-0.255-0.561-0.551-1.044-0.898-1.486l0.012 0.016c-0.315-0.458-0.726-0.828-1.205-1.086l-0.018-0.009-0.197-0.145c-0.138-0.102-0.258-0.216-0.363-0.343l-0.003-0.003c-0.1-0.116-0.185-0.249-0.249-0.393l-0.004-0.010q-0.085-0.202 0.14-0.332c0.201-0.085 0.434-0.134 0.679-0.134 0.048 0 0.096 0.002 0.143 0.006l-0.006-0 0.562 0.086c0.533 0.149 0.998 0.387 1.402 0.699l-0.009-0.007c0.56 0.395 1.017 0.896 1.352 1.476l0.012 0.022c0.38 0.729 0.907 1.333 1.546 1.792l0.015 0.010c0.511 0.374 1.148 0.605 1.838 0.62l0.004 0c0.032 0 0.070 0.001 0.108 0.001 0.529 0 1.045-0.053 1.545-0.153l-0.050 0.008c0.479-0.103 0.902-0.252 1.298-0.447l-0.032 0.014c0.096-1.168 0.605-2.202 1.378-2.969l0-0c-1.084-0.111-2.065-0.294-3.015-0.549l0.132 0.030c-1.006-0.288-1.884-0.672-2.696-1.154l0.052 0.029c-0.893-0.505-1.645-1.15-2.252-1.916l-0.012-0.016c-0.641-0.863-1.147-1.871-1.46-2.961l-0.016-0.066c-0.367-1.224-0.578-2.631-0.578-4.087 0-0.084 0.001-0.167 0.002-0.25l-0 0.013c-0.001-0.059-0.002-0.128-0.002-0.197 0-2.216 0.845-4.234 2.23-5.75l-0.006 0.007c-0.299-0.801-0.472-1.727-0.472-2.694 0-1.153 0.246-2.248 0.688-3.236l-0.020 0.050c0.189-0.033 0.407-0.052 0.629-0.052 0.654 0 1.271 0.163 1.811 0.451l-0.021-0.010c0.917 0.352 1.691 0.725 2.428 1.153l-0.080-0.043q0.745 0.46 1.195 0.778c1.618-0.476 3.477-0.749 5.4-0.749s3.782 0.274 5.54 0.784l-0.14-0.035 1.069-0.692c0.739-0.464 1.591-0.891 2.485-1.234l0.102-0.035c0.469-0.239 1.023-0.38 1.61-0.38 0.237 0 0.468 0.023 0.692 0.066l-0.023-0.004c0.436 0.946 0.69 2.052 0.69 3.218 0 0.955-0.17 1.87-0.482 2.716l0.018-0.054c1.379 1.51 2.224 3.529 2.224 5.744 0 0.069-0.001 0.137-0.002 0.206l0-0.010c0.001 0.068 0.002 0.148 0.002 0.228 0 1.464-0.211 2.879-0.605 4.216l0.027-0.105c-0.325 1.158-0.836 2.167-1.506 3.050l0.016-0.022c-0.629 0.771-1.385 1.411-2.24 1.897l-0.039 0.020c-0.76 0.453-1.637 0.836-2.564 1.105l-0.080 0.020c-0.819 0.226-1.798 0.409-2.802 0.513l-0.081 0.007c0.917 0.938 1.482 2.222 1.482 3.638 0 0.16-0.007 0.319-0.021 0.476l0.001-0.020v6.375c-1.608 0.49-3.457 0.772-5.371 0.772-1.909 0-3.753-0.281-5.492-0.803l0.135 0.035z"></path>
</svg>
