<!-- Generated by IcoMoon.io -->
<svg version="1.1" xmlns="http://www.w3.org/2000/svg" width="48" height="48" viewBox="0 0 48 48">
<title>grid</title>
<path d="M6 4h14c1.105 0 2 0.895 2 2v14c0 1.105-0.895 2-2 2h-14c-1.105 0-2-0.895-2-2v-14c0-1.105 0.895-2 2-2z"></path>
<path d="M28 4h14c1.105 0 2 0.895 2 2v14c0 1.105-0.895 2-2 2h-14c-1.105 0-2-0.895-2-2v-14c0-1.105 0.895-2 2-2z"></path>
<path d="M6 26h14c1.105 0 2 0.895 2 2v14c0 1.105-0.895 2-2 2h-14c-1.105 0-2-0.895-2-2v-14c0-1.105 0.895-2 2-2z"></path>
<path d="M28 26h14c1.105 0 2 0.895 2 2v14c0 1.105-0.895 2-2 2h-14c-1.105 0-2-0.895-2-2v-14c0-1.105 0.895-2 2-2z"></path>
</svg>
