<!-- Generated by IcoMoon.io -->
<svg version="1.1" xmlns="http://www.w3.org/2000/svg" width="48" height="48" viewBox="0 0 48 48">
<title>hashtag</title>
<path d="M41 20c1.657 0 3-1.343 3-3s-1.343-3-3-3v0h-5.086l1.007-4.318-0.006-0.002c0.050-0.204 0.078-0.439 0.078-0.68 0-1.653-1.34-2.994-2.994-2.994-1.412 0-2.596 0.978-2.911 2.293l-0.004 0.020-0.006-0.001-1.326 5.681h-7.838l1.007-4.318-0.006-0.002c0.050-0.204 0.078-0.439 0.078-0.68 0-1.653-1.34-2.994-2.994-2.994-1.412 0-2.596 0.978-2.911 2.293l-0.004 0.020-0.006-0.001-1.326 5.681h-6.752c-1.657 0-3 1.343-3 3s1.343 3 3 3v0h5.352l-1.867 8h-5.486c-1.657 0-3 1.343-3 3s1.343 3 3 3v0h4.086l-1.007 4.318 0.006 0.001c-0.050 0.204-0.078 0.439-0.078 0.68 0 1.653 1.34 2.994 2.994 2.994 1.412 0 2.596-0.978 2.911-2.293l0.004-0.020 0.006 0.001 1.326-5.681h7.838l-1.007 4.318 0.006 0.001c-0.050 0.204-0.078 0.439-0.078 0.68 0 1.653 1.34 2.994 2.994 2.994 1.412 0 2.596-0.978 2.911-2.293l0.004-0.020 0.006 0.001 1.326-5.681h7.752c1.657 0 3-1.343 3-3s-1.343-3-3-3v0h-6.352l1.867-8zM26.486 28h-7.838l1.867-8h7.838z"></path>
</svg>
