<!-- Generated by IcoMoon.io -->
<svg version="1.1" xmlns="http://www.w3.org/2000/svg" width="48" height="48" viewBox="0 0 48 48">
<title>heart</title>
<path d="M42.212 7.742c-2.344-2.313-5.566-3.742-9.121-3.742-3.541 0-6.75 1.417-9.093 3.715l0.002-0.002c-2.341-2.296-5.55-3.713-9.091-3.713-3.555 0-6.777 1.429-9.122 3.744l0.001-0.001c-2.339 2.299-3.788 5.496-3.788 9.032 0 0.009 0 0.018 0 0.027v-0.001c0.016 3.532 1.454 6.725 3.77 9.040l0 0c4.2 4.271 16.654 17.404 16.78 17.537h0.010c0.361 0.384 0.872 0.623 1.439 0.623s1.079-0.239 1.439-0.622l0.001-0.001h0.012c0.125-0.133 12.576-13.262 16.775-17.531 2.318-2.316 3.757-5.511 3.774-9.042v-0.003c0-0.008 0-0.017 0-0.026 0-3.536-1.449-6.733-3.786-9.031l-0.002-0.002z"></path>
</svg>
