<!-- Generated by IcoMoon.io -->
<svg version="1.1" xmlns="http://www.w3.org/2000/svg" width="48" height="48" viewBox="0 0 48 48">
<title>instagram</title>
<path d="M24.004 13.745c-0.001 0-0.001 0-0.002 0-5.664 0-10.255 4.591-10.255 10.255s4.591 10.255 10.255 10.255c5.664 0 10.255-4.591 10.255-10.255v0c0-0.005 0-0.011 0-0.017 0-5.654-4.584-10.238-10.238-10.238-0.005 0-0.011 0-0.016 0h0.001zM24.004 30.667c-0 0-0.001 0-0.001 0-3.682 0-6.667-2.985-6.667-6.667s2.985-6.667 6.667-6.667c3.682 0 6.667 2.985 6.667 6.667v0c-0.006 3.679-2.987 6.66-6.665 6.667h-0.001zM37.069 13.325c-0 1.321-1.071 2.391-2.392 2.391s-2.392-1.071-2.392-2.392 1.071-2.392 2.392-2.392v0c0.002 0 0.004 0 0.005 0 1.318 0 2.386 1.068 2.386 2.386 0 0.002 0 0.004 0 0.006v-0zM43.86 15.753c0.002-0.075 0.003-0.163 0.003-0.251 0-3.151-1.231-6.014-3.238-8.136l0.005 0.006c-2.126-2.002-4.999-3.233-8.159-3.233-0.078 0-0.155 0.001-0.233 0.002l0.012-0c-3.302-0.187-13.198-0.187-16.5 0-0.071-0.002-0.154-0.002-0.237-0.002-3.154 0-6.020 1.227-8.149 3.23l0.006-0.006c-2.002 2.121-3.232 4.989-3.232 8.145 0 0.083 0.001 0.166 0.003 0.249l-0-0.012c-0.187 3.303-0.187 13.201 0 16.503-0.002 0.075-0.003 0.163-0.003 0.251 0 3.151 1.231 6.014 3.238 8.136l-0.005-0.006c2.128 2.003 5.003 3.233 8.165 3.233 0.076 0 0.151-0.001 0.226-0.002l-0.011 0c3.302 0.187 13.198 0.187 16.5 0 0.075 0.002 0.163 0.003 0.251 0.003 3.151 0 6.014-1.231 8.134-3.239l-0.005 0.005c2.002-2.127 3.232-5 3.232-8.16 0-0.078-0.001-0.155-0.002-0.233l0 0.012c0.187-3.302 0.187-13.192 0-16.494zM39.594 35.791c-0.701 1.745-2.057 3.101-3.756 3.786l-0.045 0.016c-2.633 1.044-8.88 0.803-11.788 0.803s-9.164 0.232-11.788-0.803c-1.744-0.701-3.101-2.058-3.785-3.757l-0.016-0.045c-1.044-2.633-0.803-8.88-0.803-11.791s-0.232-9.167 0.803-11.791c0.701-1.745 2.057-3.101 3.756-3.786l0.045-0.016c2.632-1.044 8.88-0.803 11.788-0.803s9.165-0.232 11.788 0.803c1.744 0.701 3.101 2.058 3.785 3.757l0.016 0.045c1.044 2.633 0.803 8.88 0.803 11.791s0.241 9.167-0.803 11.791z"></path>
</svg>
