<svg xmlns="http://www.w3.org/2000/svg" width="48" height="48"><path d="M8.444 12.019.1 35.977h4.926l1.575-5.094h8.645l1.608 5.094h5.06L13.47 12.019zM7.74 27.164l2.144-6.904c.402-1.273 1.006-3.686 1.006-3.686h.066s.57 2.413.972 3.686l2.145 6.904zM46 12H34.828l-5.412-5.412a2 2 0 1 0-2.831 2.825L29.171 12H22a2 2 0 1 0 0 4h2a21.895 21.895 0 0 0 6.487 15.448l.001.001A6.66 6.66 0 0 1 28.01 32H28a2 2 0 1 0 0 4 11.93 11.93 0 0 0 6.048-1.869L34 34.16a11.843 11.843 0 0 0 5.98 1.839L40 36a2 2 0 1 0 0-4 6.769 6.769 0 0 1-2.532-.568l.044.017A21.887 21.887 0 0 0 44 16.007V16h2a2 2 0 1 0 0-4zM34 29.225c-3.657-3.259-5.961-7.969-6-13.218V16h12a17.823 17.823 0 0 1-5.982 13.209l-.018.016z"/></svg>