<!-- Generated by IcoMoon.io -->
<svg version="1.1" xmlns="http://www.w3.org/2000/svg" width="48" height="48" viewBox="0 0 48 48">
<title>linkedin</title>
<path d="M12.953 44h-8.293v-26.706h8.293zM8.802 13.651c-0.007 0-0.014 0-0.022 0-2.665 0-4.825-2.16-4.825-4.825s2.16-4.825 4.825-4.825c2.657 0 4.812 2.147 4.825 4.801v0.001c0 0.002 0 0.004 0 0.006 0 2.661-2.146 4.82-4.801 4.843h-0.002zM43.992 44h-8.275v-13c0-3.098-0.063-7.072-4.312-7.072-4.312 0-4.973 3.366-4.973 6.848v13.223h-8.284v-26.706h7.954v3.643h0.116c1.54-2.601 4.331-4.319 7.524-4.319 0.113 0 0.226 0.002 0.339 0.006l-0.016-0c8.393 0 9.935 5.527 9.935 12.706v14.67z"></path>
</svg>
