<!-- Generated by IcoMoon.io -->
<svg version="1.1" xmlns="http://www.w3.org/2000/svg" width="48" height="48" viewBox="0 0 48 48">
<title>list</title>
<path d="M14 8c0 3.314-2.686 6-6 6s-6-2.686-6-6c0-3.314 2.686-6 6-6s6 2.686 6 6z"></path>
<path d="M14 24c0 3.314-2.686 6-6 6s-6-2.686-6-6c0-3.314 2.686-6 6-6s6 2.686 6 6z"></path>
<path d="M14 40c0 3.314-2.686 6-6 6s-6-2.686-6-6c0-3.314 2.686-6 6-6s6 2.686 6 6z"></path>
<path d="M20 4h24c1.105 0 2 0.895 2 2v4c0 1.105-0.895 2-2 2h-24c-1.105 0-2-0.895-2-2v-4c0-1.105 0.895-2 2-2z"></path>
<path d="M20 20h24c1.105 0 2 0.895 2 2v4c0 1.105-0.895 2-2 2h-24c-1.105 0-2-0.895-2-2v-4c0-1.105 0.895-2 2-2z"></path>
<path d="M20 36h24c1.105 0 2 0.895 2 2v4c0 1.105-0.895 2-2 2h-24c-1.105 0-2-0.895-2-2v-4c0-1.105 0.895-2 2-2z"></path>
</svg>
