<!-- Generated by IcoMoon.io -->
<svg version="1.1" xmlns="http://www.w3.org/2000/svg" width="48" height="48" viewBox="0 0 48 48">
<title>mail</title>
<path d="M44 10h-40c-1.105 0-2 0.895-2 2v0 24c0 1.105 0.895 2 2 2v0h40c1.105 0 2-0.895 2-2v0-24c0-1.105-0.895-2-2-2v0zM42.555 14.833l-18.555 12.369-18.555-12.369c-0.274-0.181-0.453-0.488-0.453-0.837 0-0.552 0.448-1 1-1 0.21 0 0.405 0.065 0.566 0.175l-0.003-0.002 17.445 11.631 17.445-11.631c0.157-0.108 0.352-0.173 0.562-0.173 0.552 0 1 0.448 1 1 0 0.349-0.179 0.656-0.449 0.835l-0.004 0.002z"></path>
</svg>
