<svg xmlns="http://www.w3.org/2000/svg" width="48" height="48" viewBox="0 0 48 48">
  <path d="M44.7785,35.5485l-.3043-15.1751C42.3148,10.9938,30.1153,3.959,22.5167,2L9.4267,9.8213c-7.1016,6.53-7.0718,20.6-4.9941,28.1315q3.1811-.4947,6.3-1.2654c-2.0661.5143-4.15.9658-6.2628,1.2951l13.357,7.3612c9.2016,2.857,21.4308-4.2074,26.9517-9.7581-.618-.7639-1.261-1.5061-1.91-2.2424C43.5133,34.07,44.1623,34.794,44.7785,35.5485Zm-5.1246-5.6094c-.41-.4063-.8307-.8021-1.251-1.1981C38.8234,29.1368,39.2428,29.5329,39.6539,29.9391Zm-2.8381-2.65c-.4468-.3953-.8967-.7872-1.3538-1.171Q36.1468,26.6951,36.8158,27.2893ZM19.9884,9.8768l-.0031.0127Zm-.8913,3.9308c-.0134.0678-.0269.1357-.04.2036Q19.0769,13.9094,19.0971,13.8076Zm-6.6317,22.453c.1015-.0278.2025-.0585.3038-.0869C12.6677,36.2021,12.567,36.2326,12.4654,36.2606Zm3.7574-1.1524c.2055-.0693.4108-.1387.6158-.21Q16.531,35.0044,16.2228,35.1082Zm1.861-.6744a70.8053,70.8053,0,0,1,.7067-18.8183A71.2946,71.2946,0,0,1,34.8745,25.64,71.6543,71.6543,0,0,1,18.0838,34.4338Zm22.9324-3.0954c.4729.4937.9482.984,1.4073,1.4917C41.9662,32.3216,41.4881,31.833,41.0162,31.3384Z"/>
</svg>
