<!-- Generated by IcoMoon.io -->
<svg version="1.1" xmlns="http://www.w3.org/2000/svg" width="31" height="32" viewBox="0 0 31 32">
<title>ngss</title>
<path d="M29.186 23.699l-0.203-10.117c-1.44-6.253-9.573-10.942-14.638-12.249l-8.727 5.214c-4.734 4.353-4.715 13.733-3.329 18.754q2.121-0.33 4.2-0.844c-1.377 0.343-2.767 0.644-4.175 0.863l8.905 4.907c6.134 1.905 14.287-2.805 17.968-6.505-0.412-0.509-0.84-1.004-1.273-1.495 0.43 0.485 0.863 0.967 1.273 1.47zM25.769 19.96c-0.274-0.271-0.554-0.535-0.834-0.799 0.28 0.263 0.56 0.527 0.834 0.799zM23.877 18.194c-0.298-0.264-0.598-0.525-0.903-0.781q0.457 0.384 0.903 0.78zM12.659 6.585l-0.002 0.008zM12.065 9.205l-0.027 0.136zM7.644 24.173c0.068-0.019 0.135-0.039 0.203-0.058-0.068 0.019-0.135 0.040-0.203 0.058zM10.149 23.405q0.205-0.069 0.411-0.14-0.205 0.071-0.411 0.14zM11.389 22.955c-0.138-1.354-0.217-2.927-0.217-4.517 0-2.837 0.25-5.615 0.73-8.313l-0.042 0.285c4.094 1.87 7.622 4.105 10.801 6.746l-0.078-0.063c-3.225 2.306-6.921 4.283-10.864 5.755l-0.33 0.108zM26.677 20.892c0.315 0.329 0.632 0.656 0.938 0.994-0.305-0.339-0.623-0.664-0.938-0.994z"></path>
</svg>
