<svg xmlns="http://www.w3.org/2000/svg" width="48" height="48"><path d="m44.779 35.548-.305-15.175C42.314 10.993 30.115 3.96 22.517 2L9.427 9.821c-7.102 6.53-7.072 20.6-4.994 28.132q3.18-.495 6.3-1.266c-2.067.515-4.15.966-6.263 1.295l13.357 7.362c9.201 2.857 21.43-4.208 26.951-9.758a69.705 69.705 0 0 0-1.91-2.243c.645.727 1.294 1.451 1.91 2.205Zm-5.125-5.609a71.377 71.377 0 0 1 0 0Zm-2.838-2.65a69.192 69.192 0 0 0-1.354-1.17q.685.576 1.354 1.17ZM19.988 9.877l-.003.012Zm-.89 3.93c-.014.068-.028.136-.04.204q.019-.102.04-.203Zm-6.633 22.454c.102-.028.203-.059.304-.087-.101.028-.202.059-.304.087Zm3.758-1.153.616-.21-.616.21Zm1.86-.674a70.805 70.805 0 0 1 .707-18.819A71.295 71.295 0 0 1 34.874 25.64a71.654 71.654 0 0 1-16.79 8.794Zm22.933-3.096c.473.494.948.984 1.407 1.492-.457-.508-.935-.997-1.407-1.492Z"/></svg>