<!-- Generated by IcoMoon.io -->
<svg version="1.1" xmlns="http://www.w3.org/2000/svg" width="48" height="48" viewBox="0 0 48 48">
<title>page-start</title>
<path d="M39.414 38.586l-14.585-14.586 14.586-14.586c0.378-0.364 0.612-0.875 0.612-1.44 0-1.105-0.895-2-2-2-0.566 0-1.078 0.235-1.442 0.614l-0.001 0.001-15.996 15.996c-0.364 0.362-0.588 0.863-0.588 1.416s0.224 1.053 0.587 1.415l15.998 15.998c0.364 0.375 0.873 0.608 1.436 0.608 1.105 0 2-0.895 2-2 0-0.563-0.232-1.071-0.607-1.435l-0-0z"></path>
<path d="M12 8c0-1.105-0.895-2-2-2s-2 0.895-2 2v0 32c0 1.105 0.895 2 2 2s2-0.895 2-2v0 0-32z"></path>
</svg>
