<!-- Generated by IcoMoon.io -->
<svg version="1.1" xmlns="http://www.w3.org/2000/svg" width="48" height="48" viewBox="0 0 48 48">
<title>people</title>
<path d="M22 20c0 3.314-2.686 6-6 6s-6-2.686-6-6c0-3.314 2.686-6 6-6s6 2.686 6 6z"></path>
<path d="M38 14c0 3.314-2.686 6-6 6s-6-2.686-6-6c0-3.314 2.686-6 6-6s6 2.686 6 6z"></path>
<path d="M32 22c-5.523 0-10 2.686-10 6v1.227c-1.727-0.776-3.744-1.228-5.867-1.228-0.047 0-0.094 0-0.141 0.001l0.007-0c-5.523 0-10 2.686-10 6v4c0 1.105 0.895 2 2 2v0h16c1.105 0 2-0.895 2-2v0-4h14c1.105 0 2-0.895 2-2v0-4c0-3.314-4.477-6-10-6z"></path>
</svg>
