<svg xmlns="http://www.w3.org/2000/svg" width="48" height="48" viewBox="0 0 48 48">
  <g>
    <polygon points="2 16 2 34 14 34 26 46 26 2 14 16 2 16"/>
    <path d="M33.437,16.2747a1.8648,1.8648,0,0,0-2.6318,2.6425,8.6035,8.6035,0,0,1,0,12.1682,1.864,1.864,0,0,0,0,2.64,1.8478,1.8478,0,0,0,2.6318,0,12.2992,12.2992,0,0,0,0-17.4506Z"/>
    <path d="M39.7534,9.9771a1.861,1.861,0,1,0-2.6318,2.6318,17.5086,17.5086,0,0,1,0,24.7876,1.864,1.864,0,0,0,0,2.64,1.8805,1.8805,0,0,0,2.6318,0,21.2044,21.2044,0,0,0,0-30.0593Z"/>
  </g>
</svg>
