<!-- Generated by IcoMoon.io -->
<svg version="1.1" xmlns="http://www.w3.org/2000/svg" width="31" height="32" viewBox="0 0 31 32">
<title>pronounciation</title>
<path d="M1.333 10v13.333h8l6.667 6.667v-28l-6.667 8h-8z"></path>
<path d="M20.958 10.85c-0.225-0.226-0.537-0.366-0.881-0.366-0.687 0-1.243 0.557-1.243 1.243 0 0.346 0.141 0.659 0.369 0.884l0 0c1.038 1.038 1.68 2.472 1.68 4.056s-0.642 3.018-1.68 4.056v0c-0.226 0.225-0.365 0.536-0.365 0.88s0.14 0.655 0.365 0.88l0 0c0.224 0.227 0.534 0.367 0.877 0.367s0.654-0.14 0.877-0.367l0-0c1.495-1.486 2.42-3.543 2.42-5.817s-0.925-4.331-2.42-5.816l-0-0z"></path>
<path d="M25.169 6.651c-0.224-0.224-0.535-0.363-0.877-0.363-0.685 0-1.241 0.555-1.241 1.241 0 0.343 0.139 0.653 0.363 0.877v0c2.118 2.113 3.428 5.035 3.428 8.263s-1.31 6.149-3.427 8.262l-0 0c-0.226 0.225-0.365 0.536-0.365 0.88s0.14 0.655 0.365 0.88l0 0c0.226 0.221 0.536 0.358 0.877 0.358s0.651-0.137 0.877-0.358l-0 0c2.573-2.561 4.165-6.104 4.165-10.020s-1.592-7.459-4.164-10.019l-0.001-0.001z"></path>
</svg>
