<!-- Generated by IcoMoon.io -->
<svg version="1.1" xmlns="http://www.w3.org/2000/svg" width="48" height="48" viewBox="0 0 48 48">
<title>question-mark</title>
<path d="M24 6c-9.941 0-18 8.059-18 18s8.059 18 18 18c9.941 0 18-8.059 18-18v0c0-9.941-8.059-18-18-18v0zM25.951 34.010h-4.791v-4.707h4.791zM28.528 23.867c-0.896 0.484-1.669 1.043-2.36 1.688l0.007-0.006c-0.34 0.455-0.544 1.028-0.544 1.648 0 0.090 0.004 0.179 0.013 0.267l-0.001-0.011h-4.034c-0.044-0.243-0.069-0.522-0.069-0.808 0-1.592 0.785-3.001 1.989-3.86l0.014-0.010c1.232-1.148 2.829-1.568 2.829-3.277-0.015-1.171-0.968-2.115-2.142-2.115-0.084 0-0.167 0.005-0.248 0.014l0.010-0.001c-0.048-0.003-0.105-0.005-0.162-0.005-1.478 0-2.676 1.198-2.676 2.676 0 0.075 0.003 0.149 0.009 0.223l-0.001-0.010h-4.511c0.084-3.949 2.857-6.666 7.536-6.666 4.174 0 6.976 2.326 6.976 5.715 0.002 0.051 0.003 0.111 0.003 0.172 0 1.884-1.057 3.522-2.61 4.352l-0.026 0.013z"></path>
</svg>
