<svg xmlns="http://www.w3.org/2000/svg" width="48" height="48" viewBox="0 0 48 48">
  <path d="M23.9973,0a23.5707,23.5707,0,0,1,24,24,23.5707,23.5707,0,0,1-24,24,23.5707,23.5707,0,0,1-24-24A23.5707,23.5707,0,0,1,23.9973,0Zm0,43.7333c11.4666,0,19.4666-8.8,19.4666-19.7333S35.1973,4.2667,23.9973,4.2667c-11.4667,0-19.4667,8.8-19.4667,19.7333S12.5306,43.7333,23.9973,43.7333Zm-1.3334-30.4H15.7306v20.8h6.9333c7.2,0,11.2-4.5333,11.2-10.4C34.1306,17.6,30.1306,13.3333,22.6639,13.3333Zm0,16.8H20.5306V17.0667h2.4c4,0,6.4,2.4,6.4,6.6667C29.0639,28,26.6639,30.1333,22.6639,30.1333Z"/>
</svg>
