<!-- Generated by IcoMoon.io -->
<svg version="1.1" xmlns="http://www.w3.org/2000/svg" width="32" height="32" viewBox="0 0 32 32">
<title>quiz-option-e</title>
<path d="M16 0c0.086-0.002 0.187-0.003 0.289-0.003 8.678 0 15.714 7.035 15.714 15.714 0 0.102-0.001 0.203-0.003 0.304l0-0.015c0.002 0.086 0.003 0.187 0.003 0.289 0 8.678-7.035 15.714-15.714 15.714-0.102 0-0.203-0.001-0.304-0.003l0.015 0c-0.086 0.002-0.187 0.003-0.289 0.003-8.678 0-15.714-7.035-15.714-15.714 0-0.102 0.001-0.203 0.003-0.304l-0 0.015c-0.002-0.086-0.003-0.187-0.003-0.289 0-8.678 7.035-15.714 15.714-15.714 0.102 0 0.203 0.001 0.304 0.003l-0.015-0zM16 29.156c0.067 0.001 0.146 0.002 0.226 0.002 7.046 0 12.758-5.712 12.758-12.758 0-0.14-0.002-0.28-0.007-0.42l0.001 0.020c0.002-0.086 0.003-0.188 0.003-0.291 0-7.105-5.76-12.866-12.866-12.866-0.041 0-0.081 0-0.122 0.001l0.006-0c-0.067-0.001-0.146-0.002-0.226-0.002-7.046 0-12.758 5.712-12.758 12.758 0 0.14 0.002 0.28 0.007 0.42l-0.001-0.020c-0.004 0.119-0.006 0.259-0.006 0.399 0 7.046 5.712 12.758 12.758 12.758 0.079 0 0.159-0.001 0.238-0.002l-0.012 0zM20.444 20.267h-5.689v-3.378h4.622l-0.355-2.489h-4.267v-2.844h5.511v-2.667h-8.711v13.867h8.889z"></path>
</svg>
