<!-- Generated by IcoMoon.io -->
<svg version="1.1" xmlns="http://www.w3.org/2000/svg" width="32" height="32" viewBox="0 0 32 32">
<title>quiz-option-a</title>
<path d="M16 0c0.086-0.002 0.187-0.003 0.289-0.003 8.678 0 15.714 7.035 15.714 15.714 0 0.102-0.001 0.203-0.003 0.304l0-0.015c0.002 0.086 0.003 0.187 0.003 0.289 0 8.678-7.035 15.714-15.714 15.714-0.102 0-0.203-0.001-0.304-0.003l0.015 0c-0.086 0.002-0.187 0.003-0.289 0.003-8.678 0-15.714-7.035-15.714-15.714 0-0.102 0.001-0.203 0.003-0.304l-0 0.015c-0.002-0.086-0.003-0.187-0.003-0.289 0-8.678 7.035-15.714 15.714-15.714 0.102 0 0.203 0.001 0.304 0.003l-0.015-0zM16 29.156c0.075 0.002 0.164 0.002 0.252 0.002 7.128 0 12.906-5.778 12.906-12.906 0-0.089-0.001-0.177-0.003-0.265l0 0.013c0.002-0.075 0.002-0.164 0.002-0.252 0-7.128-5.778-12.906-12.906-12.906-0.089 0-0.177 0.001-0.265 0.003l0.013-0c-0.067-0.001-0.146-0.002-0.226-0.002-7.046 0-12.758 5.712-12.758 12.758 0 0.14 0.002 0.28 0.007 0.42l-0.001-0.020c-0.004 0.119-0.006 0.259-0.006 0.399 0 7.046 5.712 12.758 12.758 12.758 0.079 0 0.159-0.001 0.238-0.002l-0.012 0zM17.956 8.889h-3.733l-5.156 13.867h3.2l1.067-3.2h5.156l1.244 3.378 3.2-0.711zM14.044 17.067l1.778-5.511 1.955 5.511z"></path>
</svg>
