<svg xmlns="http://www.w3.org/2000/svg" width="48" height="48"><path d="M24 0a23.57 23.57 0 0 1 24 24 23.57 23.57 0 0 1-24 24A23.57 23.57 0 0 1 0 24 23.57 23.57 0 0 1 24 0Zm0 43.733A19.358 19.358 0 0 0 43.733 24 19.358 19.358 0 0 0 24 4.267c-11.467 0-19.467 8.8-19.467 19.733s8 19.733 19.467 19.733ZM28.533 23.2a4.44 4.44 0 0 0 2.934-4.533c0-3.467-2.667-5.334-7.2-5.334H16.8v20.8H24c5.067 0 8.267-1.866 8.267-6.133a4.672 4.672 0 0 0-3.734-4.8Zm-5.066-1.333h-2.134V16.8h2.4q3.2 0 3.2 2.4c0 1.6-1.066 2.667-3.466 2.667Zm.266 8.533h-2.666v-5.6h2.4c2.4 0 4 1.067 4 2.933.266 1.867-1.067 2.667-3.734 2.667Z"/></svg>