<!-- Generated by IcoMoon.io -->
<svg version="1.1" xmlns="http://www.w3.org/2000/svg" width="32" height="32" viewBox="0 0 32 32">
<title>quiz-option-d</title>
<path d="M15.996 0c0.086-0.002 0.187-0.003 0.289-0.003 8.678 0 15.714 7.035 15.714 15.714 0 0.102-0.001 0.203-0.003 0.304l0-0.015c0.002 0.086 0.003 0.187 0.003 0.289 0 8.678-7.035 15.714-15.714 15.714-0.102 0-0.203-0.001-0.304-0.003l0.015 0c-0.086 0.002-0.187 0.003-0.289 0.003-8.678 0-15.714-7.035-15.714-15.714 0-0.102 0.001-0.203 0.003-0.304l-0 0.015c-0.002-0.086-0.003-0.187-0.003-0.289 0-8.678 7.035-15.714 15.714-15.714 0.102 0 0.203 0.001 0.304 0.003l-0.015-0zM15.996 29.156c0.067 0.001 0.146 0.002 0.226 0.002 7.046 0 12.758-5.712 12.758-12.758 0-0.14-0.002-0.28-0.007-0.42l0.001 0.020c0.002-0.086 0.003-0.188 0.003-0.291 0-7.105-5.76-12.866-12.866-12.866-0.041 0-0.081 0-0.122 0.001l0.006-0c-0.067-0.001-0.146-0.002-0.226-0.002-7.046 0-12.758 5.712-12.758 12.758 0 0.14 0.002 0.28 0.007 0.42l-0.001-0.020c-0.004 0.119-0.006 0.259-0.006 0.399 0 7.046 5.712 12.758 12.758 12.758 0.079 0 0.159-0.001 0.238-0.002l-0.012 0zM15.107 8.889h-4.622v13.867h4.622c4.8 0 7.467-3.022 7.467-6.933 0.178-4.089-2.489-6.933-7.467-6.933zM15.107 20.089h-1.422v-8.711h1.6c0.095-0.008 0.206-0.013 0.317-0.013 2.197 0 3.978 1.781 3.978 3.978 0 0.169-0.011 0.335-0.031 0.498l0.002-0.019c0.004 0.068 0.006 0.148 0.006 0.228 0 2.241-1.817 4.058-4.058 4.058-0.138 0-0.275-0.007-0.41-0.020l0.017 0.001z"></path>
</svg>
