<svg xmlns="http://www.w3.org/2000/svg" width="32" height="32"><path d="M16 0c.086-.002.187-.003.289-.003 8.678 0 15.714 7.035 15.714 15.714 0 .102-.001.203-.003.304V16c.002.086.003.187.003.289 0 8.678-7.035 15.714-15.714 15.714-.102 0-.203-.001-.304-.003H16c-.086.002-.187.003-.289.003-8.678 0-15.714-7.035-15.714-15.714 0-.102.001-.203.003-.304V16a12.833 12.833 0 0 1-.003-.289c0-8.678 7.035-15.714 15.714-15.714.102 0 .203.001.304.003H16zm0 29.156.226.002c7.046 0 12.758-5.712 12.758-12.758 0-.14-.002-.28-.007-.42l.001.02c.002-.086.003-.188.003-.291 0-7.105-5.76-12.866-12.866-12.866l-.122.001h.006a15.242 15.242 0 0 0-.226-.002C8.727 2.842 3.015 8.554 3.015 15.6c0 .14.002.28.007.42L3.021 16c-.004.119-.006.259-.006.399 0 7.046 5.712 12.758 12.758 12.758l.238-.002h-.012zm4.444-8.889h-5.689v-3.378h4.622l-.355-2.489h-4.267v-2.844h5.511V8.889h-8.711v13.867h8.889z"/></svg>