<svg xmlns="http://www.w3.org/2000/svg" width="48" height="48" viewBox="0 0 48 48">
  <path d="M24,0A23.5707,23.5707,0,0,1,48,24,23.5707,23.5707,0,0,1,24,48,23.5707,23.5707,0,0,1,0,24,23.5707,23.5707,0,0,1,24,0Zm0,43.7333A19.3585,19.3585,0,0,0,43.7333,24,19.3585,19.3585,0,0,0,24,4.2667c-11.4667,0-19.4667,8.8-19.4667,19.7333S12.5333,43.7333,24,43.7333ZM28.5333,23.2a4.4391,4.4391,0,0,0,2.9334-4.5333c0-3.4667-2.6667-5.3334-7.2-5.3334H16.8v20.8H24c5.0667,0,8.2667-1.8666,8.2667-6.1333A4.6719,4.6719,0,0,0,28.5333,23.2Zm-5.0666-1.3333H21.3333V16.8h2.4q3.2,0,3.2,2.4C26.9333,20.8,25.8667,21.8667,23.4667,21.8667ZM23.7333,30.4H21.0667V24.8h2.4c2.4,0,4,1.0666,4,2.9333C27.7333,29.6,26.4,30.4,23.7333,30.4Z"/>
</svg>
