<!-- Generated by IcoMoon.io -->
<svg version="1.1" xmlns="http://www.w3.org/2000/svg" width="32" height="32" viewBox="0 0 32 32">
<title>quiz-option-c</title>
<path d="M15.996 0c0.086-0.002 0.187-0.003 0.289-0.003 8.678 0 15.714 7.035 15.714 15.714 0 0.102-0.001 0.203-0.003 0.304l0-0.015c0.002 0.086 0.003 0.187 0.003 0.289 0 8.678-7.035 15.714-15.714 15.714-0.102 0-0.203-0.001-0.304-0.003l0.015 0c-0.086 0.002-0.187 0.003-0.289 0.003-8.678 0-15.714-7.035-15.714-15.714 0-0.102 0.001-0.203 0.003-0.304l-0 0.015c-0.002-0.086-0.003-0.187-0.003-0.289 0-8.678 7.035-15.714 15.714-15.714 0.102 0 0.203 0.001 0.304 0.003l-0.015-0zM15.996 29.156c0.067 0.001 0.146 0.002 0.226 0.002 7.046 0 12.758-5.712 12.758-12.758 0-0.14-0.002-0.28-0.007-0.42l0.001 0.020c0.002-0.086 0.003-0.188 0.003-0.291 0-7.105-5.76-12.866-12.866-12.866-0.041 0-0.081 0-0.122 0.001l0.006-0c-0.067-0.001-0.146-0.002-0.226-0.002-7.046 0-12.758 5.712-12.758 12.758 0 0.14 0.002 0.28 0.007 0.42l-0.001-0.020c-0.004 0.119-0.006 0.259-0.006 0.399 0 7.046 5.712 12.758 12.758 12.758 0.079 0 0.159-0.001 0.238-0.002l-0.012 0zM20.619 19.378c-0.938 0.667-2.107 1.067-3.369 1.067-0.003 0-0.006 0-0.010 0h0c-2.311 0-3.911-1.778-3.911-4.622s1.422-4.622 3.733-4.622c1.201 0.059 2.3 0.45 3.221 1.080l-0.021-0.014 0.355-2.667c-0.997-0.675-2.226-1.077-3.549-1.077-0.127 0-0.254 0.004-0.379 0.011l0.017-0.001c-3.911 0-6.756 2.844-6.756 7.289 0 4.267 2.667 7.111 6.756 7.111 0.079 0.003 0.171 0.005 0.264 0.005 1.414 0 2.735-0.399 3.857-1.090l-0.032 0.018z"></path>
</svg>
