<svg xmlns="http://www.w3.org/2000/svg" width="48" height="48" viewBox="0 0 48 48">
  <path d="M23.9973,0a23.5707,23.5707,0,0,1,24,24,23.5707,23.5707,0,0,1-24,24,23.5707,23.5707,0,0,1-24-24A23.5707,23.5707,0,0,1,23.9973,0Zm0,43.7333c11.4666,0,19.4666-8.8,19.4666-19.7333S35.1973,4.2667,23.9973,4.2667c-11.4667,0-19.4667,8.8-19.4667,19.7333S12.5306,43.7333,23.9973,43.7333Zm6.9333-14.6666a8.78,8.78,0,0,1-5.0667,1.6c-3.4666,0-5.8666-2.6667-5.8666-6.9334s2.1333-6.9333,5.6-6.9333a9.3612,9.3612,0,0,1,4.8,1.6l.5333-4a9.58,9.58,0,0,0-5.8667-1.6c-5.8666,0-10.1333,4.2667-10.1333,10.9333,0,6.4,4,10.6667,10.1333,10.6667a11.0467,11.0467,0,0,0,6.1334-1.6Z"/>
</svg>
