<!-- Generated by IcoMoon.io -->
<svg version="1.1" xmlns="http://www.w3.org/2000/svg" width="32" height="32" viewBox="0 0 32 32">
<title>quiz-option-b</title>
<path d="M16 0c0.086-0.002 0.187-0.003 0.289-0.003 8.678 0 15.714 7.035 15.714 15.714 0 0.102-0.001 0.203-0.003 0.304l0-0.015c0.002 0.086 0.003 0.187 0.003 0.289 0 8.678-7.035 15.714-15.714 15.714-0.102 0-0.203-0.001-0.304-0.003l0.015 0c-0.086 0.002-0.187 0.003-0.289 0.003-8.678 0-15.714-7.035-15.714-15.714 0-0.102 0.001-0.203 0.003-0.304l-0 0.015c-0.002-0.086-0.003-0.187-0.003-0.289 0-8.678 7.035-15.714 15.714-15.714 0.102 0 0.203 0.001 0.304 0.003l-0.015-0zM16 29.156c0.075 0.002 0.164 0.002 0.252 0.002 7.128 0 12.906-5.778 12.906-12.906 0-0.089-0.001-0.177-0.003-0.265l0 0.013c0.002-0.075 0.002-0.164 0.002-0.252 0-7.128-5.778-12.906-12.906-12.906-0.089 0-0.177 0.001-0.265 0.003l0.013-0c-0.067-0.001-0.146-0.002-0.226-0.002-7.046 0-12.758 5.712-12.758 12.758 0 0.14 0.002 0.28 0.007 0.42l-0.001-0.020c-0.004 0.119-0.006 0.259-0.006 0.399 0 7.046 5.712 12.758 12.758 12.758 0.079 0 0.159-0.001 0.238-0.002l-0.012 0zM19.022 15.467c1.155-0.421 1.965-1.51 1.965-2.788 0-0.083-0.003-0.164-0.010-0.245l0.001 0.011c0-2.311-1.778-3.555-4.8-3.555h-4.978v13.867h4.8c3.378 0 5.511-1.245 5.511-4.089 0.002-0.044 0.004-0.096 0.004-0.148 0-1.5-1.060-2.752-2.472-3.048l-0.020-0.004zM15.644 14.578h-1.422v-3.378h1.6q2.133 0 2.133 1.6c0 1.067-0.711 1.778-2.311 1.778zM15.822 20.267h-1.778v-3.733h1.6c1.6 0 2.667 0.711 2.667 1.956 0.178 1.244-0.711 1.778-2.489 1.778z"></path>
</svg>
