<!-- Generated by IcoMoon.io -->
<svg version="1.1" xmlns="http://www.w3.org/2000/svg" width="32" height="32" viewBox="0 0 32 32">
<title>quiz-option-checked</title>
<path d="M29.197 11.257c-3.641 4.677-7.271 8.831-11.119 12.772l0.029-0.030c3.399-6.102 8.587-11.127 12.164-17.049 0.537-0.897-1.968-2.154-2.504-1.615l-2.147 2.154c0.358-0.897-1.968-1.974-2.504-1.436s-1.252 1.077-1.789 1.615c0.358-0.538 0.894-1.077 1.252-1.615 0.537-0.897-1.789-2.154-2.504-1.615-1.073 0.897-1.968 1.795-2.862 2.692 1.252-1.795 2.504-3.589 3.577-5.384 0.537-0.897-1.789-2.154-2.504-1.615-4.651 3.589-8.407 8.255-12.7 12.024 2.147-3.231 4.83-6.64 6.618-9.691 0.537-0.897-2.147-2.333-2.684-1.436-3.040 4.667-7.691 9.871-9.48 15.076-0.358 1.077 1.789 1.974 2.504 1.615 2.657-1.549 4.948-3.333 6.973-5.381l0.003-0.003c-2.086 2.679-4.209 5.723-6.174 8.875l-0.266 0.457c-0.537 0.897 1.61 1.974 2.504 1.615-0.715 0.897-1.252 1.974-1.968 2.871-0.537 0.897 1.789 1.974 2.504 1.615 0.179-0.179 0.358-0.179 0.537-0.359-0.537 0.897-1.073 1.615-1.61 2.513s1.968 2.154 2.504 1.615c2.325-2.333 4.472-4.487 6.797-6.64-0.385 0.888-0.753 1.964-1.039 3.072l-0.035 0.158c-0.358 0.897 1.789 2.154 2.504 1.615 0.606-0.382 1.133-0.796 1.613-1.259l-0.003 0.003c-0.358 0.538-0.716 1.256-1.073 1.795-0.537 0.897 1.968 2.333 2.683 1.436 3.399-3.948 6.261-8.435 10.733-11.307 0.894-0.538-1.073-1.974-2.147-1.795 1.431-1.974 2.862-4.128 4.293-6.102 0.716-0.538-1.967-1.974-2.683-1.256z"></path>
</svg>
