<svg xmlns="http://www.w3.org/2000/svg" width="48" height="48" viewBox="0 0 48 48">
  <path d="M43.795,16.8849C38.4287,23.3457,33.3308,30.0758,27.16,35.9982c5.0979-9.1528,12.879-16.69,18.2453-25.5741.805-1.346-2.9514-3.23-3.7564-2.4228l-3.22,3.23c.5367-1.346-2.9514-2.9612-3.7563-2.1536s-1.8782,1.6152-2.6832,2.4228c.5366-.8076,1.3416-1.6152,1.8782-2.4228.805-1.346-2.6831-3.23-3.7564-2.4228-1.61,1.346-2.9514,2.692-4.293,4.038,1.8782-2.692,3.7564-5.3841,5.3663-8.0761.8049-1.346-2.6832-3.23-3.7564-2.4228-6.9762,5.3841-12.6108,12.3833-19.05,18.0365,3.22-4.8456,7.2445-9.96,9.9276-14.5369.8049-1.346-3.22-3.5-4.0247-2.1536C9.7192,8.54,2.743,16.3465.06,24.1533c-.5367,1.6153,2.6831,2.9613,3.7563,2.4229A49.5609,49.5609,0,0,0,14.2805,18.5,162.26,162.26,0,0,0,4.6212,32.4986c-.805,1.346,2.4148,2.9612,3.7564,2.4228-1.0733,1.346-1.8782,2.9612-2.9515,4.3072-.8049,1.346,2.6832,2.9612,3.7564,2.4228.2683-.2692.5367-.2692.805-.5384-.805,1.346-1.61,2.4228-2.4149,3.7688s2.9515,3.23,3.7564,2.4229c3.4881-3.5,6.7079-6.73,10.196-9.96a34.1618,34.1618,0,0,0-1.61,4.8456c-.5366,1.346,2.6831,3.23,3.7564,2.4228a14.7517,14.7517,0,0,0,2.4148-1.8844c-.5366.8076-1.0732,1.8844-1.61,2.692-.8049,1.346,2.9515,3.5,4.0247,2.1537,5.098-5.9225,9.391-12.6525,16.0989-16.96,1.3415-.8076-1.61-2.9612-3.22-2.692,2.1465-2.9613,4.293-6.1917,6.4395-9.1529C48.893,17.9617,44.8683,15.8081,43.795,16.8849Z"/>
</svg>
