<!-- Generated by IcoMoon.io -->
<svg version="1.1" xmlns="http://www.w3.org/2000/svg" width="48" height="48" viewBox="0 0 48 48">
<title>search</title>
<path d="M43.413 40.585l-10.785-10.785c2.103-2.687 3.372-6.114 3.372-9.837 0-8.857-7.18-16.037-16.037-16.037s-16.037 7.18-16.037 16.037c0 8.857 7.18 16.037 16.037 16.037 3.724 0 7.151-1.269 9.873-3.398l-0.035 0.027 10.785 10.785c0.364 0.377 0.874 0.611 1.439 0.611 1.105 0 2-0.895 2-2 0-0.565-0.234-1.074-0.61-1.438l-0.001-0.001zM20 32c-6.627 0-12-5.373-12-12s5.373-12 12-12c6.627 0 12 5.373 12 12v0c-0.008 6.624-5.376 11.992-11.999 12h-0.001z"></path>
</svg>
