<!-- Generated by IcoMoon.io -->
<svg version="1.1" xmlns="http://www.w3.org/2000/svg" width="48" height="48" viewBox="0 0 48 48">
<title>settings</title>
<path d="M44 20h-2.461c-0.489-2.109-1.287-3.97-2.355-5.641l0.043 0.072 1.744-1.744c0.362-0.362 0.586-0.862 0.586-1.414s-0.224-1.052-0.586-1.414l-2.828-2.829c-0.362-0.362-0.862-0.586-1.414-0.586s-1.052 0.224-1.414 0.586l-1.744 1.744c-1.6-1.025-3.461-1.823-5.45-2.289l-0.121-0.024v-2.461c0-1.105-0.895-2-2-2v0h-4c-1.105 0-2 0.895-2 2v0 2.461c-2.109 0.489-3.97 1.287-5.641 2.355l0.072-0.043-1.744-1.744c-0.362-0.362-0.862-0.586-1.414-0.586s-1.052 0.224-1.414 0.586l-2.829 2.828c-0.362 0.362-0.586 0.862-0.586 1.414s0.224 1.052 0.586 1.414l1.744 1.744c-1.025 1.6-1.823 3.461-2.289 5.45l-0.024 0.121h-2.461c-1.105 0-2 0.895-2 2v0 4c0 1.105 0.895 2 2 2v0h2.461c0.489 2.109 1.287 3.97 2.355 5.641l-0.043-0.072-1.744 1.744c-0.362 0.362-0.586 0.862-0.586 1.414s0.224 1.052 0.586 1.414l2.828 2.828c0.362 0.362 0.862 0.586 1.414 0.586s1.052-0.224 1.414-0.586l1.744-1.744c1.6 1.026 3.461 1.824 5.45 2.29l0.121 0.024v2.461c0 1.105 0.895 2 2 2v0h4c1.105 0 2-0.895 2-2v0-2.461c2.109-0.489 3.97-1.287 5.641-2.355l-0.072 0.043 1.744 1.744c0.362 0.362 0.862 0.586 1.414 0.586s1.052-0.224 1.414-0.586l2.828-2.828c0.362-0.362 0.586-0.862 0.586-1.414s-0.224-1.052-0.586-1.414l-1.744-1.744c1.026-1.6 1.824-3.461 2.29-5.45l0.024-0.121h2.461c1.105 0 2-0.895 2-2v0-4c0-1.105-0.895-2-2-2v0zM24 32c-4.418 0-8-3.582-8-8s3.582-8 8-8c4.418 0 8 3.582 8 8v0c0 4.418-3.582 8-8 8v0z"></path>
</svg>
