<!-- Generated by IcoMoon.io -->
<svg version="1.1" xmlns="http://www.w3.org/2000/svg" width="48" height="48" viewBox="0 0 48 48">
<title>shopping-cart</title>
<path d="M36 28c0.819-0.001 1.523-0.494 1.831-1.199l0.005-0.013h0.001l0.002-0.004 0.005-0.011 5.994-13.986c0.103-0.233 0.163-0.505 0.163-0.791 0-1.103-0.894-1.997-1.997-1.997-0.001 0-0.002 0-0.004 0h-27.16l-0.879-4.393-0.048-0.040c-0.192-0.896-0.974-1.559-1.912-1.567h-6.001c-1.105 0-2 0.895-2 2s0.895 2 2 2v0h4.36l3.544 17.719-3.693 7.387 0.007 0.011c-0.136 0.26-0.216 0.568-0.216 0.894 0 1.083 0.878 1.962 1.962 1.962 0.007 0 0.013-0 0.020-0h-0.001l0.017 0.028h24c1.105 0 2-0.895 2-2s-0.895-2-2-2v0h-20.764l2-4z"></path>
<path d="M38 41c0 1.657-1.343 3-3 3s-3-1.343-3-3c0-1.657 1.343-3 3-3s3 1.343 3 3z"></path>
<path d="M16 41c0 1.657-1.343 3-3 3s-3-1.343-3-3c0-1.657 1.343-3 3-3s3 1.343 3 3z"></path>
</svg>
