<!-- Generated by IcoMoon.io -->
<svg version="1.1" xmlns="http://www.w3.org/2000/svg" width="48" height="48" viewBox="0 0 48 48">
<title>shrink</title>
<path d="M18 4c-1.105 0-2 0.895-2 2v0 0 0 0 0 7.171l-10.586-10.586c-0.364-0.374-0.872-0.606-1.434-0.606-1.105 0-2 0.895-2 2 0 0.564 0.233 1.073 0.609 1.437l10.583 10.584h-7.172c-1.105 0-2 0.895-2 2s0.895 2 2 2v0h12c1.105 0 2-0.895 2-2v0 0 0-12c0-1.105-0.895-2-2-2v0z"></path>
<path d="M30 20h12c1.105 0 2-0.895 2-2s-0.895-2-2-2v0 0h-7.172l10.583-10.583c0.381-0.365 0.617-0.877 0.617-1.445 0-1.105-0.895-2-2-2-0.566 0-1.078 0.235-1.442 0.614l-0.001 0.001-10.586 10.585v-7.171c0-1.105-0.895-2-2-2s-2 0.895-2 2v0 0 0 0 0 12c0 1.105 0.895 2 2 2v0z"></path>
<path d="M18 28v0h-12c-1.105 0-2 0.895-2 2s0.895 2 2 2v0h7.172l-10.586 10.586c-0.379 0.365-0.615 0.876-0.615 1.443 0 1.105 0.895 2 2 2 0.567 0 1.080-0.236 1.444-0.616l0.001-0.001 10.585-10.585v7.173c0 1.105 0.895 2 2 2s2-0.895 2-2v0 0 0-12c0-1.105-0.895-2-2-2v0z"></path>
<path d="M45.414 42.586v0l-10.586-10.586h7.172c1.105 0 2-0.895 2-2s-0.895-2-2-2v0 0h-12c-1.105 0-2 0.895-2 2v0 0 0 0 0 12c0 1.105 0.895 2 2 2s2-0.895 2-2v0 0 0-7.173l10.583 10.583c0.365 0.381 0.877 0.617 1.445 0.617 1.105 0 2-0.895 2-2 0-0.566-0.235-1.078-0.614-1.442l-0.001-0.001z"></path>
</svg>
