<svg xmlns="http://www.w3.org/2000/svg" width="48" height="48"><path d="M45.251 19.524c.453-.359.742-.907.749-1.523V18a2 2 0 0 0-2-2H29.688L25.916 3.425h-.032A1.978 1.978 0 0 0 24.001 2h-.005c-.228 0-.446.039-.649.112l.014-.004c-.018.006-.032.02-.05.027-.19.071-.354.162-.502.275l.005-.003c-.021.016-.034.04-.054.057a2.07 2.07 0 0 0-.367.388l-.004.006c-.033.049-.048.109-.078.161-.074.117-.14.251-.191.392l-.005.014h-.032L18.312 16H4a2 2 0 0 0-2 2c.015.492.216.935.535 1.262.068.098.139.184.215.264l-.001-.001-.009.027 11.664 9.477-4.32 14.397.028.018a1.873 1.873 0 0 0-.111.552v.005a2 2 0 0 0 2 2c.409-.011.784-.15 1.087-.378l-.005.003c.049-.034.108-.054.155-.092l.024.019.02-.016.012-.01 10.707-8.7 10.74 8.726.023-.018a1.95 1.95 0 0 0 1.235.466h.002a2 2 0 0 0 2-2 1.92 1.92 0 0 0-.117-.569l.004.013.028-.019-4.32-14.397 11.664-9.477zM31.705 26.7l-1.559 1.267 3.962 13.207-10.109-8.213V7.481l3.456 11.52h13.726z"/></svg>