<!-- Generated by IcoMoon.io -->
<svg version="1.1" xmlns="http://www.w3.org/2000/svg" width="48" height="48" viewBox="0 0 48 48">
<title>star-fill-half</title>
<path d="M45.251 19.524c0.453-0.359 0.742-0.907 0.749-1.523v-0.001c0-1.105-0.895-2-2-2v0 0h-14.312l-3.772-12.575h-0.032c-0.245-0.826-0.994-1.419-1.883-1.425h-0.001c-0.001 0-0.003 0-0.004 0-0.228 0-0.446 0.039-0.649 0.112l0.014-0.004c-0.018 0.006-0.032 0.020-0.050 0.027-0.19 0.071-0.354 0.162-0.502 0.275l0.005-0.003c-0.021 0.016-0.034 0.040-0.054 0.057-0.141 0.115-0.263 0.245-0.367 0.388l-0.004 0.006c-0.033 0.049-0.048 0.109-0.078 0.161-0.074 0.117-0.14 0.251-0.191 0.392l-0.005 0.014h-0.032l-3.771 12.575h-14.312c-1.105 0-2 0.895-2 2v0c0.015 0.492 0.216 0.935 0.535 1.262l-0-0c0.068 0.098 0.139 0.184 0.215 0.264l-0.001-0.001-0.009 0.027 11.664 9.477-4.32 14.397 0.028 0.018c-0.061 0.164-0.101 0.354-0.111 0.552l-0 0.005c0 1.105 0.895 2 2 2v0c0.409-0.011 0.784-0.15 1.087-0.378l-0.005 0.003c0.049-0.034 0.108-0.054 0.155-0.092l0.024 0.019 0.020-0.016 0.012-0.010 10.707-8.7 10.74 8.726 0.023-0.018c0.332 0.283 0.763 0.458 1.235 0.466h0.002c1.105 0 2-0.895 2-2v0c-0.011-0.202-0.051-0.392-0.117-0.569l0.004 0.013 0.028-0.019-4.32-14.397 11.664-9.477zM31.705 26.7l-1.559 1.267 3.962 13.207-10.109-8.213v-25.48l3.456 11.52h13.726z"></path>
</svg>
