<!-- Generated by IcoMoon.io -->
<svg version="1.1" xmlns="http://www.w3.org/2000/svg" width="48" height="48" viewBox="0 0 48 48">
<title>star-fill</title>
<path d="M46 18c0-1.105-0.895-2-2-2v0h-14.311l-3.772-12.573h-0.032c-0.239-0.83-0.992-1.427-1.884-1.427s-1.645 0.597-1.881 1.413l-0.003 0.014h-0.031l-3.772 12.573h-14.312c-1.105 0-2 0.895-2 2v0c0.007 0.617 0.296 1.166 0.746 1.522l0.004 0.003-0.010 0.029 11.664 9.477-4.319 14.396 0.028 0.018c-0.061 0.164-0.101 0.353-0.112 0.55l-0 0.005c0 1.105 0.895 2 2 2v0c0.474-0.008 0.905-0.183 1.239-0.468l-0.003 0.002 0.025 0.020 0.020-0.016 0.012-0.010 10.707-8.701 10.74 8.726 0.025-0.020c0.331 0.283 0.762 0.458 1.234 0.467l0.002 0c1.105 0 2-0.895 2-2v0c-0.011-0.202-0.051-0.391-0.116-0.568l0.004 0.013 0.028-0.019-4.319-14.396 11.664-9.477-0.010-0.029c0.453-0.359 0.743-0.907 0.749-1.523v-0.001z"></path>
</svg>
