<svg xmlns="http://www.w3.org/2000/svg" width="48" height="48"><path d="M41.606 14.972c.028.394.028.788.028 1.181l.001.178c0 14.177-11.493 25.67-25.67 25.67L15.778 42h.01-.067c-5.157 0-9.96-1.521-13.983-4.139l.099.061a18.2 18.2 0 0 0 2.058.113l.143-.001h-.007.046a18.12 18.12 0 0 0 11.27-3.91l-.038.029a9.106 9.106 0 0 1-8.475-6.236l-.018-.064c.513.085 1.107.136 1.712.14h.004a9.614 9.614 0 0 0 2.458-.325l-.067.015c-4.185-.869-7.285-4.525-7.285-8.905v-.01.001-.113a9.028 9.028 0 0 0 4.089 1.153l.018.001c-2.456-1.655-4.05-4.426-4.05-7.569 0-1.688.46-3.268 1.26-4.623l-.023.042c4.501 5.509 11.16 9.11 18.668 9.504l.064.003a9.971 9.971 0 0 1-.225-2.078v-.003a9.093 9.093 0 0 1 15.718-6.221l.004.005a17.854 17.854 0 0 0 5.846-2.239l-.08.045a9.111 9.111 0 0 1-3.953 4.983l-.041.023a18.187 18.187 0 0 0 5.347-1.452l-.116.046a19.684 19.684 0 0 1-4.503 4.659l-.053.038z"/></svg>