<!-- Generated by IcoMoon.io -->
<svg version="1.1" xmlns="http://www.w3.org/2000/svg" width="48" height="48" viewBox="0 0 48 48">
<title>twitter</title>
<path d="M41.606 14.972c0.028 0.394 0.028 0.788 0.028 1.181 0 0.053 0.001 0.115 0.001 0.178 0 14.177-11.493 25.67-25.67 25.67-0.062 0-0.125-0-0.187-0.001l0.010 0c-0.020 0-0.043 0-0.067 0-5.157 0-9.96-1.521-13.983-4.139l0.099 0.061c0.618 0.072 1.333 0.113 2.058 0.113 0.048 0 0.095-0 0.143-0.001l-0.007 0c0.014 0 0.030 0 0.046 0 4.256 0 8.171-1.462 11.27-3.91l-0.038 0.029c-3.959-0.074-7.293-2.665-8.475-6.236l-0.018-0.064c0.513 0.085 1.107 0.136 1.712 0.14h0.004c0.851-0.003 1.674-0.115 2.458-0.325l-0.067 0.015c-4.185-0.869-7.285-4.525-7.285-8.905 0-0.003 0-0.007 0-0.010v0.001-0.113c1.184 0.673 2.59 1.093 4.089 1.153l0.018 0.001c-2.456-1.655-4.050-4.426-4.050-7.569 0-1.688 0.46-3.268 1.26-4.623l-0.023 0.042c4.501 5.509 11.16 9.11 18.668 9.504l0.064 0.003c-0.139-0.624-0.221-1.342-0.225-2.078v-0.003c0.004-5.019 4.074-9.086 9.093-9.086 2.612 0 4.967 1.101 6.625 2.865l0.004 0.005c2.174-0.427 4.106-1.189 5.846-2.239l-0.080 0.045c-0.703 2.136-2.116 3.876-3.953 4.983l-0.041 0.023c1.939-0.226 3.707-0.721 5.347-1.452l-0.116 0.046c-1.267 1.83-2.776 3.383-4.503 4.659l-0.053 0.038z"></path>
</svg>
