<!-- Generated by IcoMoon.io -->
<svg version="1.1" xmlns="http://www.w3.org/2000/svg" width="48" height="48" viewBox="0 0 48 48">
<title>upload</title>
<path d="M41.414 28.586l-16-16c-0.362-0.362-0.862-0.586-1.414-0.586s-1.052 0.224-1.414 0.586l-15.999 16c-0.377 0.364-0.611 0.874-0.611 1.439 0 1.105 0.895 2 2 2 0.565 0 1.074-0.234 1.438-0.61l12.586-12.586v23.172c0 1.105 0.895 2 2 2s2-0.895 2-2v0 0 0-23.172l12.583 12.583c0.364 0.379 0.876 0.615 1.442 0.615 1.105 0 2-0.895 2-2 0-0.565-0.234-1.076-0.611-1.439l-0.001-0.001z"></path>
<path d="M8 8h32c1.105 0 2-0.895 2-2s-0.895-2-2-2v0 0h-32c-1.105 0-2 0.895-2 2s0.895 2 2 2v0z"></path>
</svg>
