<!-- Generated by IcoMoon.io -->
<svg version="1.1" xmlns="http://www.w3.org/2000/svg" width="48" height="48" viewBox="0 0 48 48">
<title>warn</title>
<path d="M47.688 40.991l0.020-0.034-22-36h-0.042c-0.34-0.576-0.958-0.957-1.665-0.957s-1.325 0.381-1.66 0.948l-0.005 0.009h-0.043l-22 36 0.020 0.035c-0.188 0.285-0.303 0.632-0.314 1.006l-0 0.003c0 1.105 0.895 2 2 2v0 0h44c1.105 0 2-0.895 2-2v0c-0.010-0.376-0.125-0.724-0.317-1.016l0.005 0.007zM21.48 16.275h5.040v5.070l-1.26 9.36h-2.52l-1.26-9.36zM26.549 37.725h-5.1v-5.041h5.1z"></path>
</svg>
