<!-- Generated by IcoMoon.io -->
<svg version="1.1" xmlns="http://www.w3.org/2000/svg" width="48" height="48" viewBox="0 0 48 48">
<title>wheelchair</title>
<path d="M40 11.5c0 1.933-1.567 3.5-3.5 3.5s-3.5-1.567-3.5-3.5c0-1.933 1.567-3.5 3.5-3.5s3.5 1.567 3.5 3.5z"></path>
<path d="M34 24h-5.172l4.585-4.585c0.362-0.362 0.587-0.862 0.587-1.415s-0.224-1.053-0.587-1.415v0l-10-10c-0.362-0.362-0.862-0.586-1.414-0.586s-1.052 0.224-1.414 0.586v0l-6 6c-0.377 0.364-0.611 0.874-0.611 1.439 0 1.105 0.895 2 2 2 0.565 0 1.074-0.234 1.438-0.61l4.587-4.586 3.172 3.172-6.188 6.188c-0.606-0.12-1.303-0.188-2.017-0.188-2.675 0-5.124 0.963-7.021 2.562l0.016-0.014 2.865 2.865c1.145-0.877 2.597-1.407 4.172-1.413h0.001c3.864 0.005 6.995 3.136 7 7v0c-0.005 1.576-0.536 3.028-1.425 4.189l0.012-0.017 2.865 2.865c1.585-1.885 2.549-4.339 2.549-7.019 0-1.075-0.155-2.114-0.444-3.096l0.020 0.077h4.425v10c0 1.105 0.895 2 2 2s2-0.895 2-2v0-12c0-1.105-0.895-2-2-2v0z"></path>
<path d="M17 38c-3.864-0.005-6.995-3.136-7-7v-0c0.005-1.576 0.536-3.028 1.425-4.189l-0.012 0.017-2.865-2.865c-1.585 1.893-2.548 4.354-2.548 7.039 0 6.074 4.924 10.998 10.998 10.998 2.686 0 5.147-0.963 7.057-2.562l-0.017 0.014-2.865-2.865c-1.145 0.877-2.596 1.408-4.172 1.413h-0.001z"></path>
</svg>
