<!-- Generated by IcoMoon.io -->
<svg version="1.1" xmlns="http://www.w3.org/2000/svg" width="48" height="48" viewBox="0 0 48 48">
<title>youtube</title>
<path d="M46.997 12.406c-0.566-2.083-2.166-3.692-4.201-4.261l-0.042-0.010c-3.743-1.010-18.753-1.010-18.753-1.010s-15.010 0-18.753 1.010c-2.077 0.579-3.678 2.189-4.234 4.229l-0.010 0.042c-0.639 3.376-1.004 7.259-1.004 11.228 0 0.141 0 0.281 0.001 0.422l-0-0.022c-0.001 0.119-0.001 0.259-0.001 0.4 0 3.969 0.365 7.852 1.064 11.618l-0.060-0.39c0.57 2.064 2.172 3.653 4.202 4.194l0.041 0.009c3.743 1.010 18.753 1.010 18.753 1.010s15.010 0 18.753-1.010c2.071-0.55 3.674-2.139 4.234-4.161l0.010-0.042c0.639-3.376 1.004-7.259 1.004-11.228 0-0.141-0-0.281-0.001-0.422l0 0.022c0.001-0.119 0.001-0.26 0.001-0.4 0-3.969-0.365-7.852-1.064-11.619l0.060 0.39zM19.091 31.171v-14.274l12.545 7.137-12.545 7.137z"></path>
</svg>
