<svg xmlns="http://www.w3.org/2000/svg" width="48" height="48"><path d="M46.997 12.406a6.054 6.054 0 0 0-4.201-4.261l-.042-.01c-3.743-1.01-18.753-1.01-18.753-1.01s-15.01 0-18.753 1.01a6.056 6.056 0 0 0-4.234 4.229l-.01.042C.365 15.782 0 19.665 0 23.634l.001.422v-.022l-.001.4c0 3.969.365 7.852 1.064 11.618l-.06-.39a5.965 5.965 0 0 0 4.202 4.194l.041.009C8.99 40.875 24 40.875 24 40.875s15.01 0 18.753-1.01a5.965 5.965 0 0 0 4.234-4.161l.01-.042c.639-3.376 1.004-7.259 1.004-11.228L48 24.012v.022l.001-.4c0-3.969-.365-7.852-1.064-11.619l.06.39zM19.091 31.171V16.897l12.545 7.137-12.545 7.137z"/></svg>