<svg width="448" height="270" viewBox="0 0 448 270" fill="none" xmlns="http://www.w3.org/2000/svg">
<rect width="448" height="270" fill="white"/>
<rect width="192" height="192" transform="translate(24 24)" fill="white"/>
<circle cx="120" cy="120" r="48" stroke="#161326" stroke-width="2"/>
<circle cx="120" cy="120" r="64" stroke="#CE1736" stroke-width="2"/>
<path d="M72 128C67.5817 128 64 124.418 64 120V120C64 115.582 67.5817 112 72 112V112C76.4183 112 80 115.582 80 120V120C80 124.418 76.4183 128 72 128V128Z" fill="url(#paint0_radial_17_642)"/>
<path d="M168 128C163.582 128 160 124.418 160 120V120C160 115.582 163.582 112 168 112V112C172.418 112 176 115.582 176 120V120C176 124.418 172.418 128 168 128V128Z" fill="url(#paint1_radial_17_642)"/>
<rect x="128" y="64" width="16" height="16" rx="8" transform="rotate(-180 128 64)" fill="#CE1736"/>
<path d="M128 56C128 60.4183 124.418 64 120 64V64C115.582 64 112 60.4183 112 56V56C112 51.5817 115.582 48 120 48V48C124.418 48 128 51.5817 128 56V56Z" fill="#CE1736"/>
<path d="M88 120C88 102.327 102.327 88 120 88V88C137.673 88 152 102.327 152 120V120C152 137.673 137.673 152 120 152V152C102.327 152 88 137.673 88 120V120Z" fill="#1A67C9"/>
<path d="M111.703 129V111.867H115.336V126H122.285V129H111.703ZM128.566 115.898V129H124.992V115.898H128.566ZM126.785 110.766C127.316 110.766 127.773 110.891 128.156 111.141C128.539 111.383 128.73 111.84 128.73 112.512C128.73 113.176 128.539 113.637 128.156 113.895C127.773 114.145 127.316 114.27 126.785 114.27C126.246 114.27 125.785 114.145 125.402 113.895C125.027 113.637 124.84 113.176 124.84 112.512C124.84 111.84 125.027 111.383 125.402 111.141C125.785 110.891 126.246 110.766 126.785 110.766Z" fill="white"/>
<path d="M82.7148 239V224.723H85.7422V236.5H91.5332V239H82.7148ZM96.7676 228.082V239H93.7891V228.082H96.7676ZM95.2832 223.805C95.7259 223.805 96.1068 223.909 96.4258 224.117C96.7448 224.319 96.9043 224.7 96.9043 225.26C96.9043 225.813 96.7448 226.197 96.4258 226.412C96.1068 226.62 95.7259 226.725 95.2832 226.725C94.834 226.725 94.4499 226.62 94.1309 226.412C93.8184 226.197 93.6621 225.813 93.6621 225.26C93.6621 224.7 93.8184 224.319 94.1309 224.117C94.4499 223.909 94.834 223.805 95.2832 223.805ZM104.502 236.822C104.827 236.822 105.143 236.79 105.449 236.725C105.762 236.66 106.071 236.578 106.377 236.48V238.697C106.058 238.84 105.661 238.958 105.186 239.049C104.717 239.146 104.202 239.195 103.643 239.195C102.992 239.195 102.406 239.091 101.885 238.883C101.37 238.668 100.964 238.3 100.664 237.779C100.371 237.252 100.225 236.52 100.225 235.582V230.318H98.7988V229.059L100.439 228.062L101.299 225.758H103.203V228.082H106.26V230.318H103.203V235.582C103.203 235.999 103.32 236.311 103.555 236.52C103.796 236.721 104.111 236.822 104.502 236.822ZM111.572 223.805V226.9C111.572 227.441 111.553 227.955 111.514 228.443C111.481 228.932 111.455 229.277 111.436 229.479H111.592C111.826 229.101 112.103 228.795 112.422 228.561C112.747 228.326 113.105 228.154 113.496 228.043C113.887 227.932 114.307 227.877 114.756 227.877C115.544 227.877 116.23 228.017 116.816 228.297C117.402 228.57 117.858 229.003 118.184 229.596C118.509 230.182 118.672 230.943 118.672 231.881V239H115.693V232.623C115.693 231.842 115.55 231.253 115.264 230.855C114.977 230.458 114.535 230.26 113.936 230.26C113.337 230.26 112.865 230.4 112.52 230.68C112.174 230.953 111.93 231.36 111.787 231.9C111.644 232.434 111.572 233.089 111.572 233.863V239H108.594V223.805H111.572ZM124.717 228.082V239H121.738V228.082H124.717ZM123.232 223.805C123.675 223.805 124.056 223.909 124.375 224.117C124.694 224.319 124.854 224.7 124.854 225.26C124.854 225.813 124.694 226.197 124.375 226.412C124.056 226.62 123.675 226.725 123.232 226.725C122.783 226.725 122.399 226.62 122.08 226.412C121.768 226.197 121.611 225.813 121.611 225.26C121.611 224.7 121.768 224.319 122.08 224.117C122.399 223.909 122.783 223.805 123.232 223.805ZM137.871 228.082V239H135.586L135.186 237.604H135.029C134.795 237.975 134.502 238.277 134.15 238.512C133.799 238.746 133.411 238.919 132.988 239.029C132.565 239.14 132.126 239.195 131.67 239.195C130.889 239.195 130.208 239.059 129.629 238.785C129.049 238.505 128.597 238.072 128.271 237.486C127.952 236.9 127.793 236.139 127.793 235.201V228.082H130.771V234.459C130.771 235.24 130.911 235.829 131.191 236.227C131.471 236.624 131.917 236.822 132.529 236.822C133.135 236.822 133.61 236.686 133.955 236.412C134.3 236.132 134.541 235.725 134.678 235.191C134.821 234.651 134.893 233.993 134.893 233.219V228.082H137.871ZM153.818 227.877C155.055 227.877 155.99 228.196 156.621 228.834C157.259 229.465 157.578 230.481 157.578 231.881V239H154.59V232.623C154.59 231.842 154.456 231.253 154.189 230.855C153.923 230.458 153.509 230.26 152.949 230.26C152.161 230.26 151.602 230.543 151.27 231.109C150.938 231.669 150.771 232.473 150.771 233.521V239H147.793V232.623C147.793 232.102 147.734 231.666 147.617 231.314C147.5 230.963 147.321 230.699 147.08 230.523C146.839 230.348 146.53 230.26 146.152 230.26C145.599 230.26 145.163 230.4 144.844 230.68C144.531 230.953 144.307 231.36 144.17 231.9C144.04 232.434 143.975 233.089 143.975 233.863V239H140.996V228.082H143.271L143.672 229.479H143.838C144.059 229.101 144.336 228.795 144.668 228.561C145.007 228.326 145.378 228.154 145.781 228.043C146.185 227.932 146.595 227.877 147.012 227.877C147.812 227.877 148.49 228.007 149.043 228.268C149.603 228.528 150.033 228.932 150.332 229.479H150.596C150.921 228.919 151.38 228.512 151.973 228.258C152.572 228.004 153.187 227.877 153.818 227.877Z" fill="black"/>
<rect width="192" height="192" transform="translate(232 24)" fill="white"/>
<circle cx="328" cy="120" r="80" stroke="#CE1736" stroke-width="2"/>
<circle cx="328" cy="120" r="48" stroke="#161326" stroke-width="2"/>
<circle cx="328" cy="120" r="64" stroke="#161326" stroke-width="2"/>
<path d="M280 128C275.582 128 272 124.418 272 120V120C272 115.582 275.582 112 280 112V112C284.418 112 288 115.582 288 120V120C288 124.418 284.418 128 280 128V128Z" fill="url(#paint2_radial_17_642)"/>
<path d="M376 128C371.582 128 368 124.418 368 120V120C368 115.582 371.582 112 376 112V112C380.418 112 384 115.582 384 120V120C384 124.418 380.418 128 376 128V128Z" fill="url(#paint3_radial_17_642)"/>
<path d="M268.574 94.9281C264.748 92.719 263.437 87.8262 265.646 83.9999V83.9999C267.855 80.1736 272.748 78.8626 276.574 81.0717V81.0717C280.401 83.2808 281.712 88.1736 279.503 91.9999V91.9999C277.293 95.8262 272.401 97.1372 268.574 94.9281V94.9281Z" fill="url(#paint4_radial_17_642)"/>
<path d="M379.426 158.928C375.599 156.719 374.288 151.826 376.497 148V148C378.707 144.174 383.599 142.863 387.426 145.072V145.072C391.252 147.281 392.563 152.174 390.354 156V156C388.145 159.826 383.252 161.137 379.426 158.928V158.928Z" fill="url(#paint5_radial_17_642)"/>
<path d="M345.101 57.8103C346.792 53.7284 351.471 51.79 355.553 53.4808V53.4808C359.635 55.1716 361.574 59.8513 359.883 63.9333V63.9333C358.192 68.0152 353.512 69.9537 349.43 68.2629V68.2629C345.348 66.572 343.41 61.8923 345.101 57.8103V57.8103Z" fill="url(#paint6_radial_17_642)"/>
<path d="M296.117 176.067C297.808 171.985 302.488 170.047 306.57 171.737V171.737C310.652 173.428 312.59 178.108 310.899 182.19V182.19C309.208 186.272 304.529 188.21 300.447 186.519V186.519C296.365 184.829 294.426 180.149 296.117 176.067V176.067Z" fill="url(#paint7_radial_17_642)"/>
<path d="M296.117 63.9333C294.426 59.8513 296.365 55.1716 300.447 53.4808V53.4808C304.529 51.79 309.208 53.7284 310.899 57.8103V57.8103C312.59 61.8923 310.652 66.572 306.57 68.2628V68.2628C302.488 69.9536 297.808 68.0152 296.117 63.9333V63.9333Z" fill="url(#paint8_radial_17_642)"/>
<path d="M345.101 182.19C343.41 178.108 345.348 173.428 349.43 171.737V171.737C353.512 170.047 358.192 171.985 359.883 176.067V176.067C361.574 180.149 359.635 184.829 355.553 186.519V186.519C351.471 188.21 346.792 186.272 345.101 182.19V182.19Z" fill="url(#paint9_radial_17_642)"/>
<path d="M379.426 81.0719C383.252 78.8628 388.145 80.1738 390.354 84.0001V84.0001C392.563 87.8264 391.252 92.7192 387.426 94.9283V94.9283C383.599 97.1374 378.707 95.8264 376.497 92.0001V92.0001C374.288 88.1738 375.599 83.281 379.426 81.0719V81.0719Z" fill="url(#paint10_radial_17_642)"/>
<path d="M268.574 145.072C272.401 142.863 277.293 144.174 279.503 148V148C281.712 151.826 280.401 156.719 276.574 158.928V158.928C272.748 161.137 267.855 159.826 265.646 156V156C263.437 152.174 264.748 147.281 268.574 145.072V145.072Z" fill="url(#paint11_radial_17_642)"/>
<path d="M321 40C321 35.5817 324.582 32 329 32V32C333.418 32 337 35.5817 337 40V40C337 44.4183 333.418 48 329 48V48C324.582 48 321 44.4183 321 40V40Z" fill="#CE1736"/>
<path d="M296 120C296 102.327 310.327 88 328 88V88C345.673 88 360 102.327 360 120V120C360 137.673 345.673 152 328 152V152C310.327 152 296 137.673 296 120V120Z" fill="#1A67C9"/>
<path d="M328.34 129H323.723L316.27 116.039H316.164C316.195 116.578 316.223 117.121 316.246 117.668C316.27 118.215 316.293 118.762 316.316 119.309C316.34 119.848 316.363 120.391 316.387 120.938V129H313.141V111.867H317.723L325.164 124.699H325.246C325.23 124.168 325.211 123.641 325.188 123.117C325.164 122.594 325.141 122.07 325.117 121.547C325.102 121.023 325.086 120.5 325.07 119.977V111.867H328.34V129ZM337.75 115.629C339.508 115.629 340.855 116.012 341.793 116.777C342.73 117.543 343.199 118.707 343.199 120.27V129H340.703L340.012 127.219H339.918C339.543 127.688 339.16 128.07 338.77 128.367C338.379 128.664 337.93 128.883 337.422 129.023C336.914 129.164 336.297 129.234 335.57 129.234C334.797 129.234 334.102 129.086 333.484 128.789C332.875 128.492 332.395 128.039 332.043 127.43C331.691 126.812 331.516 126.031 331.516 125.086C331.516 123.695 332.004 122.672 332.98 122.016C333.957 121.352 335.422 120.984 337.375 120.914L339.648 120.844V120.27C339.648 119.582 339.469 119.078 339.109 118.758C338.75 118.438 338.25 118.277 337.609 118.277C336.977 118.277 336.355 118.367 335.746 118.547C335.137 118.727 334.527 118.953 333.918 119.227L332.734 116.812C333.43 116.445 334.207 116.156 335.066 115.945C335.934 115.734 336.828 115.629 337.75 115.629ZM339.648 122.93L338.266 122.977C337.109 123.008 336.305 123.215 335.852 123.598C335.406 123.98 335.184 124.484 335.184 125.109C335.184 125.656 335.344 126.047 335.664 126.281C335.984 126.508 336.402 126.621 336.918 126.621C337.684 126.621 338.328 126.395 338.852 125.941C339.383 125.488 339.648 124.844 339.648 124.008V122.93Z" fill="white"/>
<path d="M300.744 235.035C300.744 235.882 300.539 236.617 300.129 237.242C299.719 237.867 299.12 238.349 298.332 238.688C297.551 239.026 296.6 239.195 295.48 239.195C294.986 239.195 294.501 239.163 294.025 239.098C293.557 239.033 293.104 238.938 292.668 238.814C292.238 238.684 291.828 238.525 291.438 238.336V235.523C292.115 235.823 292.818 236.093 293.547 236.334C294.276 236.575 294.999 236.695 295.715 236.695C296.21 236.695 296.607 236.63 296.906 236.5C297.212 236.37 297.434 236.191 297.57 235.963C297.707 235.735 297.775 235.475 297.775 235.182C297.775 234.824 297.655 234.518 297.414 234.264C297.173 234.01 296.841 233.772 296.418 233.551C296.001 233.329 295.529 233.092 295.002 232.838C294.67 232.682 294.309 232.493 293.918 232.271C293.527 232.044 293.156 231.767 292.805 231.441C292.453 231.116 292.163 230.722 291.936 230.26C291.714 229.791 291.604 229.231 291.604 228.58C291.604 227.727 291.799 226.998 292.189 226.393C292.58 225.787 293.137 225.325 293.859 225.006C294.589 224.68 295.448 224.518 296.438 224.518C297.18 224.518 297.886 224.605 298.557 224.781C299.234 224.951 299.94 225.198 300.676 225.523L299.699 227.877C299.042 227.61 298.452 227.405 297.932 227.262C297.411 227.112 296.88 227.037 296.34 227.037C295.962 227.037 295.64 227.099 295.373 227.223C295.106 227.34 294.904 227.509 294.768 227.73C294.631 227.945 294.562 228.196 294.562 228.482C294.562 228.821 294.66 229.107 294.855 229.342C295.057 229.57 295.357 229.791 295.754 230.006C296.158 230.221 296.659 230.471 297.258 230.758C297.987 231.103 298.609 231.464 299.123 231.842C299.644 232.213 300.044 232.652 300.324 233.16C300.604 233.661 300.744 234.286 300.744 235.035ZM313.02 233.521C313.02 234.433 312.896 235.24 312.648 235.943C312.408 236.646 312.053 237.242 311.584 237.73C311.122 238.212 310.562 238.577 309.904 238.824C309.253 239.072 308.518 239.195 307.697 239.195C306.929 239.195 306.223 239.072 305.578 238.824C304.94 238.577 304.383 238.212 303.908 237.73C303.439 237.242 303.075 236.646 302.814 235.943C302.561 235.24 302.434 234.433 302.434 233.521C302.434 232.311 302.648 231.285 303.078 230.445C303.508 229.605 304.12 228.967 304.914 228.531C305.708 228.095 306.656 227.877 307.756 227.877C308.778 227.877 309.683 228.095 310.471 228.531C311.265 228.967 311.887 229.605 312.336 230.445C312.792 231.285 313.02 232.311 313.02 233.521ZM305.471 233.521C305.471 234.238 305.549 234.84 305.705 235.328C305.861 235.816 306.105 236.184 306.438 236.432C306.77 236.679 307.202 236.803 307.736 236.803C308.264 236.803 308.69 236.679 309.016 236.432C309.348 236.184 309.589 235.816 309.738 235.328C309.895 234.84 309.973 234.238 309.973 233.521C309.973 232.799 309.895 232.2 309.738 231.725C309.589 231.243 309.348 230.882 309.016 230.641C308.684 230.4 308.251 230.279 307.717 230.279C306.929 230.279 306.356 230.549 305.998 231.09C305.646 231.63 305.471 232.441 305.471 233.521ZM318.938 239.195C317.72 239.195 316.727 238.72 315.959 237.77C315.197 236.812 314.816 235.41 314.816 233.561C314.816 231.692 315.204 230.279 315.979 229.322C316.753 228.359 317.766 227.877 319.016 227.877C319.536 227.877 319.995 227.949 320.393 228.092C320.79 228.235 321.132 228.427 321.418 228.668C321.711 228.909 321.958 229.179 322.16 229.479H322.258C322.219 229.27 322.17 228.964 322.111 228.561C322.059 228.15 322.033 227.73 322.033 227.301V223.805H325.021V239H322.736L322.16 237.584H322.033C321.844 237.883 321.607 238.157 321.32 238.404C321.04 238.645 320.705 238.837 320.314 238.98C319.924 239.124 319.465 239.195 318.938 239.195ZM319.982 236.822C320.796 236.822 321.369 236.581 321.701 236.1C322.04 235.611 322.219 234.879 322.238 233.902V233.58C322.238 232.519 322.076 231.708 321.75 231.148C321.424 230.582 320.819 230.299 319.934 230.299C319.276 230.299 318.762 230.582 318.391 231.148C318.02 231.715 317.834 232.532 317.834 233.6C317.834 234.667 318.02 235.471 318.391 236.012C318.768 236.552 319.299 236.822 319.982 236.822ZM331.115 228.082V239H328.137V228.082H331.115ZM329.631 223.805C330.074 223.805 330.454 223.909 330.773 224.117C331.092 224.319 331.252 224.7 331.252 225.26C331.252 225.813 331.092 226.197 330.773 226.412C330.454 226.62 330.074 226.725 329.631 226.725C329.182 226.725 328.798 226.62 328.479 226.412C328.166 226.197 328.01 225.813 328.01 225.26C328.01 224.7 328.166 224.319 328.479 224.117C328.798 223.909 329.182 223.805 329.631 223.805ZM344.27 228.082V239H341.984L341.584 237.604H341.428C341.193 237.975 340.9 238.277 340.549 238.512C340.197 238.746 339.81 238.919 339.387 239.029C338.964 239.14 338.524 239.195 338.068 239.195C337.287 239.195 336.607 239.059 336.027 238.785C335.448 238.505 334.995 238.072 334.67 237.486C334.351 236.9 334.191 236.139 334.191 235.201V228.082H337.17V234.459C337.17 235.24 337.31 235.829 337.59 236.227C337.87 236.624 338.316 236.822 338.928 236.822C339.533 236.822 340.008 236.686 340.354 236.412C340.699 236.132 340.939 235.725 341.076 235.191C341.219 234.651 341.291 233.993 341.291 233.219V228.082H344.27ZM360.217 227.877C361.454 227.877 362.388 228.196 363.02 228.834C363.658 229.465 363.977 230.481 363.977 231.881V239H360.988V232.623C360.988 231.842 360.855 231.253 360.588 230.855C360.321 230.458 359.908 230.26 359.348 230.26C358.56 230.26 358 230.543 357.668 231.109C357.336 231.669 357.17 232.473 357.17 233.521V239H354.191V232.623C354.191 232.102 354.133 231.666 354.016 231.314C353.898 230.963 353.719 230.699 353.479 230.523C353.238 230.348 352.928 230.26 352.551 230.26C351.997 230.26 351.561 230.4 351.242 230.68C350.93 230.953 350.705 231.36 350.568 231.9C350.438 232.434 350.373 233.089 350.373 233.863V239H347.395V228.082H349.67L350.07 229.479H350.236C350.458 229.101 350.734 228.795 351.066 228.561C351.405 228.326 351.776 228.154 352.18 228.043C352.583 227.932 352.993 227.877 353.41 227.877C354.211 227.877 354.888 228.007 355.441 228.268C356.001 228.528 356.431 228.932 356.73 229.479H356.994C357.32 228.919 357.779 228.512 358.371 228.258C358.97 228.004 359.585 227.877 360.217 227.877Z" fill="black"/>
<defs>
<radialGradient id="paint0_radial_17_642" cx="0" cy="0" r="1" gradientUnits="userSpaceOnUse" gradientTransform="translate(72 120) scale(8)">
<stop stop-opacity="0.25"/>
<stop offset="0.0001" stop-color="#77738C"/>
<stop offset="1" stop-color="#161326"/>
</radialGradient>
<radialGradient id="paint1_radial_17_642" cx="0" cy="0" r="1" gradientUnits="userSpaceOnUse" gradientTransform="translate(168 120) scale(8)">
<stop stop-opacity="0.25"/>
<stop offset="0.0001" stop-color="#77738C"/>
<stop offset="1" stop-color="#161326"/>
</radialGradient>
<radialGradient id="paint2_radial_17_642" cx="0" cy="0" r="1" gradientUnits="userSpaceOnUse" gradientTransform="translate(280 120) scale(8)">
<stop stop-opacity="0.25"/>
<stop offset="0.0001" stop-color="#77738C"/>
<stop offset="1" stop-color="#161326"/>
</radialGradient>
<radialGradient id="paint3_radial_17_642" cx="0" cy="0" r="1" gradientUnits="userSpaceOnUse" gradientTransform="translate(376 120) scale(8)">
<stop stop-opacity="0.25"/>
<stop offset="0.0001" stop-color="#77738C"/>
<stop offset="1" stop-color="#161326"/>
</radialGradient>
<radialGradient id="paint4_radial_17_642" cx="0" cy="0" r="1" gradientUnits="userSpaceOnUse" gradientTransform="translate(272.574 87.9999) rotate(30) scale(8)">
<stop stop-opacity="0.25"/>
<stop offset="0.0001" stop-color="#77738C"/>
<stop offset="1" stop-color="#161326"/>
</radialGradient>
<radialGradient id="paint5_radial_17_642" cx="0" cy="0" r="1" gradientUnits="userSpaceOnUse" gradientTransform="translate(383.426 152) rotate(30) scale(8)">
<stop stop-opacity="0.25"/>
<stop offset="0.0001" stop-color="#77738C"/>
<stop offset="1" stop-color="#161326"/>
</radialGradient>
<radialGradient id="paint6_radial_17_642" cx="0" cy="0" r="1" gradientUnits="userSpaceOnUse" gradientTransform="translate(352.492 60.8718) rotate(112.5) scale(8)">
<stop stop-opacity="0.25"/>
<stop offset="0.0001" stop-color="#77738C"/>
<stop offset="1" stop-color="#161326"/>
</radialGradient>
<radialGradient id="paint7_radial_17_642" cx="0" cy="0" r="1" gradientUnits="userSpaceOnUse" gradientTransform="translate(303.508 179.128) rotate(112.5) scale(8)">
<stop stop-opacity="0.25"/>
<stop offset="0.0001" stop-color="#77738C"/>
<stop offset="1" stop-color="#161326"/>
</radialGradient>
<radialGradient id="paint8_radial_17_642" cx="0" cy="0" r="1" gradientUnits="userSpaceOnUse" gradientTransform="translate(303.508 60.8718) rotate(67.5) scale(8)">
<stop stop-opacity="0.25"/>
<stop offset="0.0001" stop-color="#77738C"/>
<stop offset="1" stop-color="#161326"/>
</radialGradient>
<radialGradient id="paint9_radial_17_642" cx="0" cy="0" r="1" gradientUnits="userSpaceOnUse" gradientTransform="translate(352.492 179.128) rotate(67.5) scale(8)">
<stop stop-opacity="0.25"/>
<stop offset="0.0001" stop-color="#77738C"/>
<stop offset="1" stop-color="#161326"/>
</radialGradient>
<radialGradient id="paint10_radial_17_642" cx="0" cy="0" r="1" gradientUnits="userSpaceOnUse" gradientTransform="translate(383.426 88.0001) rotate(150) scale(8)">
<stop stop-opacity="0.25"/>
<stop offset="0.0001" stop-color="#77738C"/>
<stop offset="1" stop-color="#161326"/>
</radialGradient>
<radialGradient id="paint11_radial_17_642" cx="0" cy="0" r="1" gradientUnits="userSpaceOnUse" gradientTransform="translate(272.574 152) rotate(150) scale(8)">
<stop stop-opacity="0.25"/>
<stop offset="0.0001" stop-color="#77738C"/>
<stop offset="1" stop-color="#161326"/>
</radialGradient>
</defs>
</svg>
