<?xml version="1.0" encoding="UTF-8"?><svg id="a" xmlns="http://www.w3.org/2000/svg" width="400" height="48" viewBox="0 0 400 48"><defs><style>.c{fill:#00aeef;}.d{fill:#231f20;}.e{fill:none;stroke:#231f20;stroke-linecap:round;stroke-miterlimit:10;}</style></defs><g><path class="d" d="m273.293,17.1758c-1.0732,0-1.917.3809-2.5312,1.1406-.6143.7607-.9219,1.8105-.9219,3.1484,0,1.4014.2959,2.4609.8867,3.1797s1.4463,1.0781,2.5664,1.0781c.4844,0,.9531-.0479,1.4062-.1445.4531-.0957.9248-.2197,1.4141-.3711v1.6016c-.8955.3389-1.9111.5078-3.0469.5078-1.6719,0-2.9561-.5059-3.8516-1.5195-.8955-1.0127-1.3438-2.4619-1.3438-4.3477,0-1.1875.2178-2.2266.6523-3.1172s1.0635-1.5723,1.8867-2.0469c.8232-.4736,1.7891-.7109,2.8984-.7109,1.167,0,2.2451.2451,3.2344.7344l-.6719,1.5547c-.3857-.1816-.793-.3418-1.2227-.4805-.4297-.1377-.8818-.207-1.3555-.207Z"/><path class="d" d="m277.6172,27.5098c0-3.3516,1.3652-5.0273,4.0957-5.0273.4297,0,.793.0332,1.0898.0996v1.1484c-.2969-.0859-.6406-.1289-1.0312-.1289-.918,0-1.6074.2461-2.0684.7383s-.7109,1.2812-.75,2.3672h.0703c.1836-.3164.4414-.5615.7734-.7354s.7227-.2607,1.1719-.2607c.7773,0,1.3828.2383,1.8164.7148s.6504,1.123.6504,1.9395c0,.8984-.251,1.6084-.7529,2.1299s-1.1865.7822-2.0537.7822c-.6133,0-1.1465-.1475-1.5996-.4424s-.8018-.7246-1.0459-1.2891-.3662-1.2432-.3662-2.0361Zm2.9883,2.6309c.4727,0,.8369-.1523,1.0928-.457s.3838-.7402.3838-1.3066c0-.4922-.1201-.8789-.3604-1.1602s-.6006-.4219-1.0811-.4219c-.2969,0-.5703.0635-.8203.1904s-.4473.3008-.5918.5215-.2168.4463-.2168.6768c0,.5508.1494,1.0146.4482,1.3916s.6807.5654,1.1455.5654Z"/><path class="d" d="m294.4316,27.1602h-1.875v-5.1484h-5.2656v5.1484h-1.8672v-11.4219h1.8672v4.6719h5.2656v-4.6719h1.875v11.4219Z"/><path class="d" d="m300.502,31.1602h-1.377v-5.5312c0-.6602.0156-1.1836.0469-1.5703-.0898.0938-.2002.1973-.3311.3105s-.5693.4727-1.3154,1.0781l-.6914-.873,2.5195-1.9805h1.1484v8.5664Z"/><path class="d" d="m309.1152,31.1602h-5.8066v-1.043l2.209-2.2207c.6523-.668,1.085-1.1416,1.2979-1.4209s.3682-.542.4658-.7881.1465-.5098.1465-.791c0-.3867-.1162-.6914-.3486-.9141s-.5537-.334-.9639-.334c-.3281,0-.6455.0605-.9521.1816s-.6611.3398-1.0635.6562l-.7441-.9082c.4766-.4023.9395-.6875,1.3887-.8555s.9277-.252,1.4355-.252c.7969,0,1.4355.208,1.916.624s.7207.9756.7207,1.6787c0,.3867-.0693.7539-.208,1.1016s-.3516.7061-.6387,1.0752-.7646.8682-1.4326,1.4971l-1.4883,1.4414v.0586h4.0664v1.2129Z"/><path class="d" d="m321.2793,21.4336c0,1.8594-.4648,3.3047-1.3945,4.3359s-2.2461,1.5469-3.9492,1.5469c-1.7236,0-3.0479-.5117-3.9727-1.5352s-1.3867-2.4775-1.3867-4.3633c0-1.8848.4648-3.333,1.3945-4.3438.9297-1.0098,2.2568-1.5156,3.9805-1.5156,1.6982,0,3.0107.5137,3.9375,1.5391.9268,1.0264,1.3906,2.4717,1.3906,4.3359Zm-8.7188,0c0,1.4062.2842,2.4727.8516,3.1992s1.4092,1.0898,2.5234,1.0898c1.1094,0,1.9463-.3594,2.5117-1.0781s.8477-1.7891.8477-3.2109c0-1.4004-.2803-2.4629-.8398-3.1875-.5596-.7236-1.3945-1.0859-2.5039-1.0859-1.1201,0-1.9648.3623-2.5352,1.0859-.5703.7246-.8555,1.7871-.8555,3.1875Z"/><path class="d" d="m322.7754,27.5098c0-3.3516,1.3652-5.0273,4.0957-5.0273.4297,0,.793.0332,1.0898.0996v1.1484c-.2969-.0859-.6406-.1289-1.0312-.1289-.918,0-1.6074.2461-2.0684.7383s-.7109,1.2812-.75,2.3672h.0703c.1836-.3164.4414-.5615.7734-.7354s.7227-.2607,1.1719-.2607c.7773,0,1.3828.2383,1.8164.7148s.6504,1.123.6504,1.9395c0,.8984-.251,1.6084-.7529,2.1299s-1.1865.7822-2.0537.7822c-.6133,0-1.1465-.1475-1.5996-.4424s-.8018-.7246-1.0459-1.2891-.3662-1.2432-.3662-2.0361Zm2.9883,2.6309c.4727,0,.8369-.1523,1.0928-.457s.3838-.7402.3838-1.3066c0-.4922-.1201-.8789-.3604-1.1602s-.6006-.4219-1.0811-.4219c-.2969,0-.5703.0635-.8203.1904s-.4473.3008-.5918.5215-.2168.4463-.2168.6768c0,.5508.1494,1.0146.4482,1.3916s.6807.5654,1.1455.5654Z"/></g><g><line class="e" x1="248" y1="24" x2="257.1635" y2="24"/><path class="d" d="m260,24c-1.3347.4952-2.9907,1.3402-4.0173,2.2353l.8085-2.2353-.8085-2.2348c1.0265.895,2.6826,1.74,4.0173,2.2348Z"/></g><g><path class="c" d="m352.3682,23.293c0-4.4688,1.8203-6.7031,5.4609-6.7031.5732,0,1.0576.0449,1.4531.1328v1.5312c-.3955-.1143-.8545-.1719-1.375-.1719-1.2236,0-2.1436.3281-2.7578.9844s-.9482,1.709-1,3.1562h.0938c.2451-.4219.5889-.748,1.0312-.9805.4424-.2314.9639-.3477,1.5625-.3477,1.0361,0,1.8438.3184,2.4219.9531.5781.6357.8672,1.498.8672,2.5859,0,1.1982-.335,2.1445-1.0039,2.8398s-1.582,1.043-2.7383,1.043c-.8174,0-1.5283-.1963-2.1328-.5898-.6045-.3926-1.0693-.9658-1.3945-1.7188-.3252-.752-.4883-1.6572-.4883-2.7148Zm3.9844,3.5078c.6299,0,1.1162-.2031,1.457-.6094s.5117-.9863.5117-1.7422c0-.6562-.1602-1.1719-.4805-1.5469s-.8008-.5625-1.4414-.5625c-.3955,0-.7607.085-1.0938.2539-.333.1699-.5967.4014-.7891.6953-.1924.2949-.2891.5957-.2891.9023,0,.7344.1992,1.3535.5977,1.8555.3984.5029.9072.7539,1.5273.7539Z"/><path class="d" d="m376.5713,22.4336c0,1.8594-.4648,3.3047-1.3945,4.3359s-2.2461,1.5469-3.9492,1.5469c-1.7236,0-3.0479-.5117-3.9727-1.5352s-1.3867-2.4775-1.3867-4.3633c0-1.8848.4648-3.333,1.3945-4.3438.9297-1.0098,2.2568-1.5156,3.9805-1.5156,1.6982,0,3.0107.5137,3.9375,1.5391.9268,1.0264,1.3906,2.4717,1.3906,4.3359Zm-8.7188,0c0,1.4062.2842,2.4727.8516,3.1992s1.4092,1.0898,2.5234,1.0898c1.1094,0,1.9463-.3594,2.5117-1.0781s.8477-1.7891.8477-3.2109c0-1.4004-.2803-2.4629-.8398-3.1875-.5596-.7236-1.3945-1.0859-2.5039-1.0859-1.1201,0-1.9648.3623-2.5352,1.0859-.5703.7246-.8555,1.7871-.8555,3.1875Z"/><path class="d" d="m383.8506,32.1602h-5.8066v-1.043l2.209-2.2207c.6523-.668,1.085-1.1416,1.2979-1.4209s.3682-.542.4658-.7881.1465-.5098.1465-.791c0-.3867-.1162-.6914-.3486-.9141s-.5537-.334-.9639-.334c-.3281,0-.6455.0605-.9521.1816s-.6611.3398-1.0635.6562l-.7441-.9082c.4766-.4023.9395-.6875,1.3887-.8555s.9277-.252,1.4355-.252c.7969,0,1.4355.208,1.916.624s.7207.9756.7207,1.6787c0,.3867-.0693.7539-.208,1.1016s-.3516.7061-.6387,1.0752-.7646.8682-1.4326,1.4971l-1.4883,1.4414v.0586h4.0664v1.2129Z"/></g><g><path class="c" d="m92.3604,23.293c0-4.4688,1.8203-6.7031,5.4609-6.7031.5732,0,1.0576.0449,1.4531.1328v1.5312c-.3955-.1143-.8545-.1719-1.375-.1719-1.2236,0-2.1436.3281-2.7578.9844s-.9482,1.709-1,3.1562h.0938c.2451-.4219.5889-.748,1.0312-.9805.4424-.2314.9639-.3477,1.5625-.3477,1.0361,0,1.8438.3184,2.4219.9531.5781.6357.8672,1.498.8672,2.5859,0,1.1982-.335,2.1445-1.0039,2.8398s-1.582,1.043-2.7383,1.043c-.8174,0-1.5283-.1963-2.1328-.5898-.6045-.3926-1.0693-.9658-1.3945-1.7188-.3252-.752-.4883-1.6572-.4883-2.7148Zm3.9844,3.5078c.6299,0,1.1162-.2031,1.457-.6094s.5117-.9863.5117-1.7422c0-.6562-.1602-1.1719-.4805-1.5469s-.8008-.5625-1.4414-.5625c-.3955,0-.7607.085-1.0938.2539-.333.1699-.5967.4014-.7891.6953-.1924.2949-.2891.5957-.2891.9023,0,.7344.1992,1.3535.5977,1.8555.3984.5029.9072.7539,1.5273.7539Z"/><path class="d" d="m115.4307,28.1602h-1.875v-5.1484h-5.2656v5.1484h-1.8672v-11.4219h1.8672v4.6719h5.2656v-4.6719h1.875v11.4219Z"/><path class="d" d="m123.2646,32.1602h-5.8066v-1.043l2.209-2.2207c.6523-.668,1.085-1.1416,1.2979-1.4209s.3682-.542.4658-.7881.1465-.5098.1465-.791c0-.3867-.1162-.6914-.3486-.9141s-.5537-.334-.9639-.334c-.3281,0-.6455.0605-.9521.1816s-.6611.3398-1.0635.6562l-.7441-.9082c.4766-.4023.9395-.6875,1.3887-.8555s.9277-.252,1.4355-.252c.7969,0,1.4355.208,1.916.624s.7207.9756.7207,1.6787c0,.3867-.0693.7539-.208,1.1016s-.3516.7061-.6387,1.0752-.7646.8682-1.4326,1.4971l-1.4883,1.4414v.0586h4.0664v1.2129Z"/><path class="d" d="m135.4287,22.4336c0,1.8594-.4648,3.3047-1.3945,4.3359s-2.2461,1.5469-3.9492,1.5469c-1.7236,0-3.0479-.5117-3.9727-1.5352s-1.3867-2.4775-1.3867-4.3633c0-1.8848.4648-3.333,1.3945-4.3438.9297-1.0098,2.2568-1.5156,3.9805-1.5156,1.6982,0,3.0107.5137,3.9375,1.5391.9268,1.0264,1.3906,2.4717,1.3906,4.3359Zm-8.7188,0c0,1.4062.2842,2.4727.8516,3.1992s1.4092,1.0898,2.5234,1.0898c1.1094,0,1.9463-.3594,2.5117-1.0781s.8477-1.7891.8477-3.2109c0-1.4004-.2803-2.4629-.8398-3.1875-.5596-.7236-1.3945-1.0859-2.5039-1.0859-1.1201,0-1.9648.3623-2.5352,1.0859-.5703.7246-.8555,1.7871-.8555,3.1875Z"/></g><g><path class="d" d="m179.5273,20.3164c-1.0264,0-1.8271-.2891-2.4023-.8672s-.8633-1.3848-.8633-2.4219c0-1.0312.2021-1.9902.6055-2.8789.4033-.8877.9502-1.5742,1.6406-2.0586s1.4619-.7266,2.3164-.7266c.8389,0,1.4912.1895,1.957.5664.4658.3779.6992.9131.6992,1.6055,0,.9482-.4336,1.6895-1.3008,2.2227-.8672.5342-2.1025.8008-3.707.8008h-.3359l-.0156.2422v.2266c0,.5781.1475,1.0312.4414,1.3594s.7334.4922,1.3164.4922c.375,0,.7471-.0488,1.1172-.1484.3701-.0986.8076-.2676,1.3125-.5078v1.4609c-.5.2295-.96.3926-1.3789.4883s-.8867.1445-1.4023.1445Zm1.1875-7.5469c-.5,0-.9697.2246-1.4102.6719-.4404.4482-.7568,1.0391-.9492,1.7734h.2266c.9795,0,1.7451-.1387,2.2969-.418.5518-.2783.8281-.6729.8281-1.1836,0-.2656-.083-.4727-.25-.6211s-.4141-.2227-.7422-.2227Z"/><path class="d" d="m189.4102,20.1602l1.1094-5.25c.0938-.4688.1406-.8096.1406-1.0234,0-.6816-.3359-1.0234-1.0078-1.0234-.375,0-.7451.1484-1.1094.4453s-.6924.7256-.9844,1.2852c-.292.5605-.5107,1.1943-.6562,1.9023l-.7656,3.6641h-1.8438l1.8438-8.6406h1.4375l-.1641,1.6016h.0703c.4326-.6143.8779-1.0605,1.3359-1.3398.458-.2783.9561-.418,1.4922-.418.6982,0,1.2383.1982,1.6211.5938.3828.3965.5742.959.5742,1.6875,0,.3594-.0596.8311-.1797,1.4141l-1.0703,5.1016h-1.8438Z"/><path class="d" d="m197.3633,20.3164c-1.0264,0-1.8271-.2891-2.4023-.8672s-.8633-1.3848-.8633-2.4219c0-1.0312.2021-1.9902.6055-2.8789.4033-.8877.9502-1.5742,1.6406-2.0586s1.4619-.7266,2.3164-.7266c.8389,0,1.4912.1895,1.957.5664.4658.3779.6992.9131.6992,1.6055,0,.9482-.4336,1.6895-1.3008,2.2227-.8672.5342-2.1025.8008-3.707.8008h-.3359l-.0156.2422v.2266c0,.5781.1475,1.0312.4414,1.3594s.7334.4922,1.3164.4922c.375,0,.7471-.0488,1.1172-.1484.3701-.0986.8076-.2676,1.3125-.5078v1.4609c-.5.2295-.96.3926-1.3789.4883s-.8867.1445-1.4023.1445Zm1.1875-7.5469c-.5,0-.9697.2246-1.4102.6719-.4404.4482-.7568,1.0391-.9492,1.7734h.2266c.9795,0,1.7451-.1387,2.2969-.418.5518-.2783.8281-.6729.8281-1.1836,0-.2656-.083-.4727-.25-.6211s-.4141-.2227-.7422-.2227Z"/><path class="d" d="m207.9883,11.3633c.3232,0,.6045.0312.8438.0938l-.3984,1.7109c-.2812-.0723-.5469-.1094-.7969-.1094-.6562,0-1.2422.2949-1.7578.8828-.5156.5889-.875,1.3594-1.0781,2.3125l-.8281,3.9062h-1.8438l1.8438-8.6406h1.4375l-.1641,1.6016h.0703c.4326-.625.8643-1.0742,1.2969-1.3477s.8906-.4102,1.375-.4102Z"/><path class="d" d="m217.2227,11.5195l-.2422,1.0703-1.5.2578c.1455.3027.2188.6592.2188,1.0703,0,1.0059-.3096,1.8037-.9297,2.3945-.6201.5918-1.4502.8867-2.4922.8867-.2705,0-.5107-.0205-.7188-.0625-.5781.209-.8672.4795-.8672.8125,0,.1982.082.334.2461.4062.1641.0732.4023.1309.7148.1719l.9922.125c.917.1152,1.5732.3428,1.9688.6836.3955.3418.5938.8291.5938,1.4648,0,1.0205-.3936,1.8096-1.1797,2.3672-.7861.5566-1.9033.8359-3.3516.8359-1.0576,0-1.876-.1953-2.457-.5859s-.8711-.9277-.8711-1.6094c0-.5371.1807-1,.543-1.3906s.9443-.7207,1.7461-.9922c-.3955-.2344-.5938-.5645-.5938-.9922,0-.3594.1211-.6699.3633-.9336.2422-.2627.624-.5166,1.1445-.7617-.7031-.4219-1.0547-1.0781-1.0547-1.9688,0-1.0205.3193-1.8438.957-2.4688s1.4805-.9375,2.5273-.9375c.417,0,.833.0527,1.25.1562h2.9922Zm-6.3984,8.5c-.583.0938-1.0312.2783-1.3438.5547-.3125.2754-.4688.6172-.4688,1.0234,0,.3379.1445.6074.4336.8086.2891.2002.7305.3008,1.3242.3008.8486,0,1.5127-.1406,1.9922-.4219s.7188-.6855.7188-1.2109c0-.2656-.1172-.4746-.3516-.625-.2344-.1514-.6455-.2578-1.2344-.3203l-1.0703-.1094Zm2.1094-7.4297c-.3389,0-.6357.1006-.8906.3008-.2549.2012-.4531.4746-.5938.8203-.1406.3467-.2109.7256-.2109,1.1367,0,.3701.0928.6553.2773.8555.1846.2012.4492.3008.793.3008.3389,0,.6318-.1016.8789-.3047s.4404-.4814.5781-.8359c.1377-.3535.207-.7422.207-1.1641,0-.7393-.3467-1.1094-1.0391-1.1094Z"/><path class="d" d="m217.4102,11.5195h1.8125l.4922,4.1484c.0469.3232.0889.7773.125,1.3633s.0547,1.0586.0547,1.418h.0469c.4482-1.1191.7998-1.9346,1.0547-2.4453l2.2891-4.4844h1.9844l-5.375,10c-.4688.8594-.9795,1.4883-1.5312,1.8867s-1.2002.5977-1.9453.5977c-.3955,0-.7686-.0498-1.1172-.1484v-1.4688c.3906.083.7158.125.9766.125.3857,0,.7344-.1133,1.0469-.3398s.6357-.6318.9688-1.2148l.3984-.7188-1.2812-8.7188Z"/><path class="d" d="m162.4209,36.459c-.1797-.3242-.334-.6719-.4629-1.041s-.2266-.7578-.293-1.166-.0996-.8301-.0996-1.2676c0-.7148.0664-1.3926.1992-2.0332s.3262-1.248.5801-1.8223.5635-1.1211.9287-1.6406.7803-1.0176,1.2451-1.4941h.9082c-.4297.4688-.8232.9668-1.1807,1.4941s-.667,1.082-.9287,1.6641-.4639,1.1914-.6064,1.8281-.2139,1.3008-.2139,1.9922c0,.457.0264.8887.0791,1.2969s.1309.793.2344,1.1543.2295.707.3779,1.0352h-.7676Z"/><path class="d" d="m163.9092,37.4434c-.1523,0-.293-.0117-.4219-.0352s-.2422-.0527-.3398-.0879v-.8262c.1055.0391.2129.0703.3223.0957s.2266.0391.3516.0391c.2891,0,.5137-.1152.6738-.3457s.2891-.5645.3867-1.002l1.3477-6.3984h-1.1191l.082-.416,1.1895-.3574.1406-.6211c.0898-.3984.1982-.7344.3252-1.0059s.2764-.4883.4482-.6504.3721-.2773.6006-.3477.4912-.1055.7881-.1055c.1953,0,.3955.0215.6006.0664s.3721.0977.501.1562l-.252.7441c-.1172-.043-.2422-.082-.375-.1152s-.2773-.0488-.4336-.0488c-.332,0-.5928.0918-.7822.2773s-.3389.5312-.4482,1.0352l-.1465.6445h1.3828l-.1406.7441h-1.3887l-1.3711,6.5098c-.0938.4297-.2207.7969-.3809,1.1035s-.3652.541-.6152.7031-.5586.2441-.9258.2441Z"/><path class="d" d="m168.5967,34.5605l1.3652-6.4219h.7969l-.1523,1.2422h.0586c.1641-.2227.3398-.4395.5273-.6484s.4014-.3789.6416-.5117.5166-.1992.8291-.1992c.1172,0,.2363.0059.3574.0195s.2344.0371.3398.0684l-.2109.873c-.1055-.0234-.208-.041-.3076-.0527s-.2021-.0176-.3076-.0176c-.2969,0-.5723.0762-.8262.2305s-.4814.3613-.6826.6191-.3711.5449-.5098.8613-.2432.6387-.3135.9668l-.627,2.9707h-.9785Z"/><path class="d" d="m175.9561,34.6543c-.4922,0-.916-.1016-1.2715-.3027s-.6279-.4863-.8174-.8555-.2842-.8047-.2842-1.3086c0-.4062.0449-.8086.1348-1.2051s.2227-.7715.3984-1.125.3936-.666.6533-.9375.5596-.4844.8994-.6387.7188-.2305,1.1367-.2305c.5,0,.9268.0996,1.2803.3008s.625.4883.8145.8594.2842.8105.2842,1.3184c0,.3984-.0439.7949-.1318,1.1895s-.2188.7676-.3926,1.1211-.3906.666-.6504.9375-.5605.4863-.9023.6426-.7256.2344-1.1514.2344Zm.0586-.8086c.2422,0,.4727-.0508.6914-.1523s.418-.25.5977-.4434.335-.4297.4658-.709.2324-.5957.3047-.9512.1084-.7461.1084-1.1719c0-.2539-.0449-.5-.1348-.7383s-.2344-.4355-.4336-.5898-.4648-.2305-.7969-.2305c-.2734,0-.5264.0566-.7588.1699s-.4404.2734-.624.4805-.3389.4512-.4658.7324-.2246.5898-.293.9258-.1025.6895-.1025,1.0605c0,.5117.125.9082.375,1.1914s.6055.4258,1.0664.4258Z"/><path class="d" d="m180.0928,34.5605l1.3652-6.4219h.7969l-.1523,1.2422h.0586c.1406-.2031.3105-.4102.5098-.6191s.4307-.3848.6943-.5273.5635-.2129.8994-.2129c.4531,0,.7969.1309,1.0312.3926s.3711.6191.4102,1.0723h.041c.1562-.2383.3438-.4707.5625-.6953s.4678-.4082.7471-.5527.5869-.2168.9229-.2168c.4961,0,.8789.1348,1.1484.4043s.4043.6602.4043,1.1719c0,.1836-.0107.3574-.0322.5215s-.0537.332-.0967.5039l-.832,3.9375h-.9844l.8672-4.043c.0352-.1758.0615-.3281.0791-.457s.0264-.252.0264-.3691c0-.2617-.0703-.4688-.2109-.6211s-.3574-.2285-.6504-.2285c-.207,0-.4219.0566-.6445.1699s-.4385.2832-.6475.5117-.3975.5176-.5654.8652-.3027.7559-.4043,1.2246l-.627,2.9473h-.9727l.8555-4.0254c.0352-.1797.0615-.3359.0791-.4668s.0264-.2422.0264-.3359c0-.2773-.0645-.4961-.1934-.6543s-.3398-.2363-.6328-.2363c-.207,0-.4229.0547-.6475.1641s-.4424.2812-.6533.5156-.4043.5332-.5801.8965-.3164.8008-.4219,1.3125l-.5977,2.8301h-.9785Z"/><path class="d" d="m195.1982,34.6777c-.3906,0-.7334-.0391-1.0283-.1172s-.5518-.1758-.7705-.293v-.9023c.207.125.4697.2422.7881.3516s.6455.1641.9814.1641c.332,0,.6084-.0449.8291-.1348s.3867-.2148.498-.373.167-.3418.167-.5527c0-.168-.0361-.3145-.1084-.4375s-.1895-.2422-.3516-.3594-.3779-.252-.6475-.4043c-.3008-.168-.5547-.3379-.7617-.5098s-.3643-.3613-.4717-.5664-.1611-.4434-.1611-.7168c0-.3672.0898-.6855.2695-.9551s.4326-.4785.7588-.627.708-.2227,1.1455-.2227c.3867,0,.7441.043,1.0723.1309s.6113.1895.8496.3027l-.3164.7793c-.2031-.0977-.4355-.1875-.6973-.2695s-.5645-.123-.9082-.123c-.3672,0-.6592.084-.876.252s-.3252.3945-.3252.6797c0,.1484.0322.2812.0967.3984s.1768.2324.3369.3477.3789.25.6562.4023c.2695.1562.5127.3145.7295.4766s.3887.3477.5156.5566.1904.4668.1904.7715c0,.418-.0996.7715-.2988,1.0625s-.4834.5117-.8525.6621-.8057.2266-1.3096.2266Z"/><path class="d" d="m200.7705,34.6777c-.3242,0-.6074-.0605-.8496-.1816s-.4287-.3008-.5596-.5371-.1963-.5254-.1963-.8691c0-.1719.0127-.3398.0381-.502s.0537-.3301.085-.5059l.8496-3.9434h.9844l-.873,4.0547c-.0312.168-.0557.3164-.0732.4473s-.0264.248-.0264.3496c0,.2773.0713.4922.2139.6465s.3701.2324.6826.2324c.293,0,.6006-.0996.9229-.2988s.6211-.5137.8965-.9414.4854-.9824.6299-1.666l.5977-2.8242h.9609l-1.3594,6.4219h-.8027l.1582-1.2422h-.0527c-.1484.2031-.3281.4082-.5391.6172s-.4551.3848-.7324.5273-.5957.2148-.9551.2148Z"/><path class="d" d="m205.7158,34.5605l1.377-6.4512h.8613l-.1523,1.2363h.0117c.1484-.2031.3271-.4102.5361-.6191s.4531-.3848.7324-.5273.5967-.2129.9521-.2129c.3438,0,.6387.0625.8848.1895s.4355.3105.5684.5508.1992.5312.1992.8711c0,.1797-.0137.3613-.041.5449s-.0566.3477-.0879.4922l-.8555,3.9258h-1.0371l.8672-4.0547c.0352-.1758.0635-.3262.085-.4512s.0322-.2422.0322-.3516c0-.2734-.0742-.4805-.2227-.6211s-.3672-.2109-.6562-.2109c-.2852,0-.5859.0977-.9023.293s-.6094.502-.8789.9219-.4785.9688-.627,1.6445l-.6035,2.8301h-1.043Z"/><path class="d" d="m212.6592,34.5605l1.9453-9.1172h.9727l-1.9395,9.1172h-.9785Z"/><path class="d" d="m215.7002,34.5605l1.3652-6.4219h.9785l-1.3652,6.4219h-.9785Zm2.1855-7.5469c-.1562,0-.2861-.0469-.3896-.1387s-.1553-.2207-.1553-.3887c0-.1289.0264-.25.0791-.3633s.1289-.2051.2285-.2734.2217-.1016.3662-.1016c.1719,0,.3008.0449.3867.1348s.1289.2148.1289.375c0,.2305-.0664.4141-.1992.5508s-.2812.2051-.4453.2051Z"/><path class="d" d="m220.2471,37.4434c-.7539,0-1.3438-.1445-1.7695-.4316s-.6387-.6895-.6387-1.209c0-.418.1416-.7812.4248-1.0879s.7373-.5625,1.3623-.7695c-.1484-.0781-.2607-.1777-.3369-.2969s-.1143-.2559-.1143-.4121c0-.2656.0977-.4961.293-.6895s.4688-.3711.8203-.5352c-.25-.1289-.4512-.3184-.6035-.5684s-.2285-.5371-.2285-.8613c.0039-.3867.0703-.7402.1992-1.0605s.3105-.5938.5449-.8203c.2188-.2109.4756-.375.7705-.4922s.6162-.1758.9639-.1758c.1484,0,.2969.0098.4453.0293s.2949.0488.4395.0879h2.168l-.1406.5918-1.2715.1289c.0898.1211.1572.2637.2021.4277s.0654.3457.0615.5449c0,.3828-.0645.7285-.1934,1.0371s-.3125.5703-.5508.7852c-.2148.1914-.4697.3379-.7646.4414s-.624.1582-.9873.1621c-.1055,0-.1992-.0039-.2812-.0117s-.1523-.0195-.2109-.0352c-.2852.1016-.4961.2207-.6328.3574s-.2051.2812-.2051.4336c0,.1094.0332.1973.0996.2637.0625.0586.1494.1016.2607.1309s.249.0547.4131.0742l.6914.0762c.4688.0547.8516.1465,1.1484.2773s.5156.3086.6562.5312.2109.498.2109.8262c0,.4141-.0957.7715-.2871,1.0742s-.4668.5508-.8262.7422c-.2734.1406-.5889.248-.9463.3223s-.7529.1113-1.1865.1113Zm.041-.709c.3555,0,.6729-.0312.9521-.0938s.5166-.1523.7119-.2695c.2109-.1289.3721-.2852.4834-.4688s.167-.3945.167-.6328c0-.1055-.0166-.2012-.0498-.2871s-.085-.1621-.1553-.2285c-.1094-.1055-.2656-.1914-.4688-.2578s-.4609-.1133-.7734-.1406l-.9375-.0938c-.3281.0703-.6025.1738-.8232.3125s-.3877.3047-.501.4961-.1699.4062-.1699.6445c0,.3203.1328.5703.3984.75s.6543.2695,1.166.2695Zm1.0957-5.1094c.3359,0,.6201-.0859.8525-.2559s.4111-.3965.5361-.6797.1875-.5918.1875-.9277c0-.168-.0225-.3184-.0674-.4492s-.1123-.2383-.2021-.3242c-.0859-.0898-.1943-.1582-.3252-.2051s-.2803-.0703-.4482-.0703c-.2461,0-.4668.0469-.6621.1426s-.3604.2285-.4951.3965-.2383.3633-.3105.5859-.1084.4609-.1084.7148c0,.1641.0215.3105.0645.4395s.1055.2383.1875.3281c.1797.2031.4434.3047.791.3047Z"/><path class="d" d="m224.958,34.5605l1.9336-9.1172h.9727l-.5156,2.3672c-.0312.168-.0693.3398-.1143.5176s-.0908.3555-.1377.5332-.0938.3535-.1406.5254h.0586c.1523-.207.333-.4141.542-.6211s.4531-.3809.7324-.5215.5947-.2109.9463-.2109c.3359,0,.624.0605.8643.1816s.4258.3008.5566.541.1963.543.1963.9062c0,.1523-.0117.3066-.0352.4648s-.0527.3242-.0879.4961l-.8438,3.9375h-.9785l.8555-4.043c.0391-.1758.0664-.3262.082-.4512s.0234-.2344.0234-.3281c0-.2852-.0713-.5059-.2139-.6621s-.3701-.2344-.6826-.2344c-.293,0-.6006.0977-.9229.2949s-.6191.5078-.8906.9316-.4795.9785-.624,1.6621l-.5977,2.8301h-.9785Z"/><path class="d" d="m233.7002,34.6777c-.4258,0-.7803-.1035-1.0635-.3086s-.4248-.5566-.4248-1.0566c0-.1211.0078-.2539.0234-.3965s.041-.2891.0762-.4414l.7559-3.5918h-.9902l.0938-.4512,1.0664-.4102.7031-1.3594h.5801l-.3223,1.4766h1.6523l-.1523.7441h-1.6465l-.7617,3.6035c-.0273.1094-.0518.2266-.0732.3516s-.0322.2441-.0322.3574c0,.1953.0508.3574.1523.4883s.2715.1973.5098.1973c.1484,0,.29-.0137.4248-.041s.2783-.0664.4307-.1172v.75c-.0977.0469-.2451.0918-.4424.1367s-.3838.0684-.5596.0684Z"/><path class="d" d="m234.5791,36.459c.4336-.4688.8291-.9668,1.1865-1.4941s.666-1.084.9258-1.668.46-1.1934.6006-1.8301.2109-1.3008.2109-1.9922c0-.457-.0254-.8887-.0762-1.293s-.127-.7891-.2285-1.1543-.2266-.709-.375-1.0332h.7676c.1797.3242.332.6699.457,1.0391s.2207.7578.2871,1.1641.0996.832.0996,1.2773c0,.7148-.0654,1.3926-.1963,2.0332s-.3232,1.2461-.5771,1.8184-.5635,1.1191-.9287,1.6387-.7822,1.0176-1.251,1.4941h-.9023Z"/></g><g><line class="e" x1="76" y1="24" x2="84" y2="24"/><line class="e" x1="80" y1="20" x2="80" y2="28"/></g><line class="e" x1="144" y1="24" x2="152" y2="24"/><line class="e" x1="148" y1="20" x2="148" y2="28"/><line class="e" x1="336" y1="24" x2="344" y2="24"/><line class="e" x1="340" y1="20" x2="340" y2="28"/><g><path class="c" d="m17.2979,23.293c0-4.4688,1.8203-6.7031,5.4609-6.7031.5732,0,1.0576.0449,1.4531.1328v1.5312c-.3955-.1143-.8545-.1719-1.375-.1719-1.2236,0-2.1436.3281-2.7578.9844s-.9482,1.709-1,3.1562h.0938c.2451-.4219.5889-.748,1.0312-.9805.4424-.2314.9639-.3477,1.5625-.3477,1.0361,0,1.8438.3184,2.4219.9531.5781.6357.8672,1.498.8672,2.5859,0,1.1982-.335,2.1445-1.0039,2.8398s-1.582,1.043-2.7383,1.043c-.8174,0-1.5283-.1963-2.1328-.5898-.6045-.3926-1.0693-.9658-1.3945-1.7188-.3252-.752-.4883-1.6572-.4883-2.7148Zm3.9844,3.5078c.6299,0,1.1162-.2031,1.457-.6094s.5117-.9863.5117-1.7422c0-.6562-.1602-1.1719-.4805-1.5469s-.8008-.5625-1.4414-.5625c-.3955,0-.7607.085-1.0938.2539-.333.1699-.5967.4014-.7891.6953-.1924.2949-.2891.5957-.2891.9023,0,.7344.1992,1.3535.5977,1.8555.3984.5029.9072.7539,1.5273.7539Z"/><path class="d" d="m36.2197,18.1758c-1.0732,0-1.917.3809-2.5312,1.1406-.6143.7607-.9219,1.8105-.9219,3.1484,0,1.4014.2959,2.4609.8867,3.1797s1.4463,1.0781,2.5664,1.0781c.4844,0,.9531-.0479,1.4062-.1445.4531-.0957.9248-.2197,1.4141-.3711v1.6016c-.8955.3389-1.9111.5078-3.0469.5078-1.6719,0-2.9561-.5059-3.8516-1.5195-.8955-1.0127-1.3438-2.4619-1.3438-4.3477,0-1.1875.2178-2.2266.6523-3.1172s1.0635-1.5723,1.8867-2.0469c.8232-.4736,1.7891-.7109,2.8984-.7109,1.167,0,2.2451.2451,3.2344.7344l-.6719,1.5547c-.3857-.1816-.793-.3418-1.2227-.4805-.4297-.1377-.8818-.207-1.3555-.207Z"/><path class="d" d="m51.6416,22.4336c0,1.8594-.4648,3.3047-1.3945,4.3359s-2.2461,1.5469-3.9492,1.5469c-1.7236,0-3.0479-.5117-3.9727-1.5352s-1.3867-2.4775-1.3867-4.3633c0-1.8848.4648-3.333,1.3945-4.3438.9297-1.0098,2.2568-1.5156,3.9805-1.5156,1.6982,0,3.0107.5137,3.9375,1.5391.9268,1.0264,1.3906,2.4717,1.3906,4.3359Zm-8.7188,0c0,1.4062.2842,2.4727.8516,3.1992s1.4092,1.0898,2.5234,1.0898c1.1094,0,1.9463-.3594,2.5117-1.0781s.8477-1.7891.8477-3.2109c0-1.4004-.2803-2.4629-.8398-3.1875-.5596-.7236-1.3945-1.0859-2.5039-1.0859-1.1201,0-1.9648.3623-2.5352,1.0859-.5703.7246-.8555,1.7871-.8555,3.1875Z"/><path class="d" d="m58.9209,32.1602h-5.8066v-1.043l2.209-2.2207c.6523-.668,1.085-1.1416,1.2979-1.4209s.3682-.542.4658-.7881.1465-.5098.1465-.791c0-.3867-.1162-.6914-.3486-.9141s-.5537-.334-.9639-.334c-.3281,0-.6455.0605-.9521.1816s-.6611.3398-1.0635.6562l-.7441-.9082c.4766-.4023.9395-.6875,1.3887-.8555s.9277-.252,1.4355-.252c.7969,0,1.4355.208,1.916.624s.7207.9756.7207,1.6787c0,.3867-.0693.7539-.208,1.1016s-.3516.7061-.6387,1.0752-.7646.8682-1.4326,1.4971l-1.4883,1.4414v.0586h4.0664v1.2129Z"/></g></svg>