<svg xmlns="http://www.w3.org/2000/svg" width="170" height="50" viewBox="0 0 170 50">
    <path d="M163.9821,1.5A4.5148,4.5148,0,0,1,168.5,5.89V44.11a4.5148,4.5148,0,0,1-4.5179,4.39H5.8925A4.3961,4.3961,0,0,1,1.5,44.11V5.89A4.3961,4.3961,0,0,1,5.8925,1.5h158.09m0-1.5H5.8925A5.8843,5.8843,0,0,0,0,5.89V44.11A5.8843,5.8843,0,0,0,5.8925,50h158.09A5.9925,5.9925,0,0,0,170,44.11V5.89A5.9925,5.9925,0,0,0,163.9821,0Z"/>
    <g>
      <path d="M37.7373,24.6867a7.3534,7.3534,0,0,1,3.5105-6.14,7.3645,7.3645,0,0,0-5.8926-3.1329c-2.5074-.2506-4.89,1.5038-6.1433,1.5038s-3.26-1.5038-5.2656-1.3785a7.7745,7.7745,0,0,0-6.5194,4.01c-2.8836,4.8872-.7523,12.1554,2.0059,16.1654,1.3792,2.005,3.009,4.1353,5.015,4.01s2.7582-1.2531,5.2656-1.2531c2.3821,0,3.1344,1.2531,5.2657,1.2531s3.5105-2.005,4.89-3.8847a14.3608,14.3608,0,0,0,2.2567-4.5113C42,31.0777,37.8627,29.4486,37.7373,24.6867Z"/>
      <path d="M33.7254,12.782a6.88,6.88,0,0,0,1.63-5.1379,8.25,8.25,0,0,0-4.7641,2.3809,6.6318,6.6318,0,0,0-1.63,4.8873A5.3965,5.3965,0,0,0,33.7254,12.782Z"/>
    </g>
    <g>
      <path d="M67.2,39.3484H64.3164l-1.5045-4.8872h-5.391l-1.5045,4.8872H53.1582l5.3911-16.6667h3.26Zm-4.7642-6.8923L61.0567,28.07c-.1253-.5013-.3761-1.5038-.8776-3.1329h0c-.1254.7519-.3761,1.7544-.7522,3.1329l-1.3791,4.3859Z"/>
      <path d="M81.1164,33.208a6.991,6.991,0,0,1-1.63,4.8872,5.151,5.151,0,0,1-3.6359,1.6291,3.5716,3.5716,0,0,1-3.385-1.7544h0v6.391H69.8328V31.4536c0-1.2531,0-2.6315-.1253-4.01H72.09l.1253,1.88h0a4.526,4.526,0,0,1,4.012-2.13,4.2763,4.2763,0,0,1,3.51,1.6291A6.5574,6.5574,0,0,1,81.1164,33.208Zm-2.7582.1253a5.1892,5.1892,0,0,0-.7522-2.8822,2.9123,2.9123,0,0,0-2.3821-1.1278,2.996,2.996,0,0,0-1.7552.6266,3.1025,3.1025,0,0,0-1.003,1.7544,2.203,2.203,0,0,0-.1254.7518v2.0051a3.4977,3.4977,0,0,0,.7522,2.2556,2.5833,2.5833,0,0,0,2.1314.8772,2.9126,2.9126,0,0,0,2.3821-1.1278A6.1019,6.1019,0,0,0,78.3582,33.3333Z"/>
      <path d="M94.9075,33.208a6.9906,6.9906,0,0,1-1.63,4.8872,5.1508,5.1508,0,0,1-3.6358,1.6291A3.5718,3.5718,0,0,1,86.2567,37.97h0v6.391H83.6239V31.4536c0-1.2531,0-2.6315-.1254-4.01h2.3821l.1254,1.88h0a4.5259,4.5259,0,0,1,4.0119-2.13,4.2763,4.2763,0,0,1,3.51,1.6291A6.5569,6.5569,0,0,1,94.9075,33.208Zm-2.7582.1253a5.1893,5.1893,0,0,0-.7523-2.8822,2.9123,2.9123,0,0,0-2.3821-1.1278A2.9962,2.9962,0,0,0,87.26,29.95a3.103,3.103,0,0,0-1.003,1.7544,2.203,2.203,0,0,0-.1254.7518v2.0051a3.4977,3.4977,0,0,0,.7523,2.2556,2.5831,2.5831,0,0,0,2.1313.8772,2.9126,2.9126,0,0,0,2.3821-1.1278A6.102,6.102,0,0,0,92.1493,33.3333Z"/>
      <path d="M110.3284,34.7118a4.55,4.55,0,0,1-1.5045,3.5088,6.5456,6.5456,0,0,1-4.5135,1.5037,8.2379,8.2379,0,0,1-4.2626-1.0025l.6268-2.2556a7.0422,7.0422,0,0,0,3.8866,1.1278,4.4618,4.4618,0,0,0,2.3821-.6266,2.4487,2.4487,0,0,0,.8776-1.88,2.4735,2.4735,0,0,0-.7522-1.7544,6.2843,6.2843,0,0,0-2.2568-1.2531c-2.8836-1.1278-4.388-2.6316-4.388-4.7619a4.29,4.29,0,0,1,1.5044-3.3835,6.0525,6.0525,0,0,1,4.1374-1.2531,8.3765,8.3765,0,0,1,3.7612.7519l-.6269,2.13a6.8,6.8,0,0,0-3.1343-.7519,3.2727,3.2727,0,0,0-2.2568.7519,1.6865,1.6865,0,0,0-.6268,1.5038,2.02,2.02,0,0,0,.7522,1.629,8.1349,8.1349,0,0,0,2.3821,1.2532,9.0108,9.0108,0,0,1,3.1343,2.005A3.8445,3.8445,0,0,1,110.3284,34.7118Z"/>
      <path d="M119.23,29.3233h-3.009v5.89q0,2.2557,1.5045,2.2557a2.7818,2.7818,0,0,0,1.1283-.1254l.1254,2.0051a5.2233,5.2233,0,0,1-2.1313.2506,3.5019,3.5019,0,0,1-2.5075-1.0025,4.6118,4.6118,0,0,1-.8776-3.2582v-6.015h-1.7552v-2.005h1.7552V25.0626l2.6329-.7519v3.0075h3.0089v2.0051Z"/>
      <path d="M132.5194,33.208a6.0577,6.0577,0,0,1-1.63,4.5113,5.6921,5.6921,0,0,1-4.388,1.88,5.7643,5.7643,0,0,1-4.2627-1.7544,6.5082,6.5082,0,0,1-1.63-4.3859,6.56,6.56,0,0,1,1.63-4.6366,5.8509,5.8509,0,0,1,4.3881-1.7544,5.7639,5.7639,0,0,1,4.2626,1.7544A5.9533,5.9533,0,0,1,132.5194,33.208Zm-2.7582.1253a5.49,5.49,0,0,0-.7523-2.8822,2.4656,2.4656,0,0,0-2.382-1.3784,2.8908,2.8908,0,0,0-2.5075,1.3784,5.1892,5.1892,0,0,0-.7522,2.8822,5.49,5.49,0,0,0,.7522,2.8822,2.6908,2.6908,0,0,0,4.7642-.1253A4.0485,4.0485,0,0,0,129.7612,33.3333Z"/>
      <path d="M141.17,29.6992c-.2508,0-.5015-.1253-.8777-.1253a2.3229,2.3229,0,0,0-2.1313,1.1278,3.5719,3.5719,0,0,0-.6269,2.381v6.2657h-2.6328V31.0777a35.2182,35.2182,0,0,0-.1254-3.7594h2.3821l.1254,2.2556h.1254a4.0967,4.0967,0,0,1,1.3791-1.88,3.7321,3.7321,0,0,1,1.8806-.6266h.6268v2.6316Z"/>
      <path d="M153.206,32.8321a3.86,3.86,0,0,1-.1254,1.2531h-8.0239a3.4982,3.4982,0,0,0,1.1284,2.7569,4.1394,4.1394,0,0,0,2.6328.8772,9.42,9.42,0,0,0,3.26-.6266l.3761,1.88a9.9617,9.9617,0,0,1-4.0119.7519,5.5912,5.5912,0,0,1-4.3881-1.6291,6.5087,6.5087,0,0,1-1.63-4.3859,6.7606,6.7606,0,0,1,1.5045-4.5113,5.0923,5.0923,0,0,1,4.2626-1.88,4.3906,4.3906,0,0,1,3.8866,1.88A5.2584,5.2584,0,0,1,153.206,32.8321Zm-2.6329-.7519a3.4149,3.4149,0,0,0-.5014-2.005,2.3228,2.3228,0,0,0-2.1314-1.1278,2.4634,2.4634,0,0,0-2.1313,1.1278,3.1609,3.1609,0,0,0-.7523,2.13l5.5164-.1253Z"/>
    </g>
    <g>
      <path d="M61.5582,12.406A4.2434,4.2434,0,0,1,60.1791,15.79a5.8384,5.8384,0,0,1-3.51,1.0025,8.3064,8.3064,0,0,1-1.8806-.1253v-8.02a13.6335,13.6335,0,0,1,2.2567-.1253,5.045,5.045,0,0,1,3.26.8772A4.15,4.15,0,0,1,61.5582,12.406Zm-1.5045,0a3.2689,3.2689,0,0,0-.7522-2.2556,3.0657,3.0657,0,0,0-2.2567-.7519,2.4454,2.4454,0,0,0-1.003.1253v6.14h.8776a3.1222,3.1222,0,0,0,2.3821-.8771A3.19,3.19,0,0,0,60.0537,12.406Z"/>
      <path d="M68.83,13.6591a3.4978,3.4978,0,0,1-.7523,2.2557,2.5831,2.5831,0,0,1-2.1313.8772,2.75,2.75,0,0,1-2.1314-.8772,3.161,3.161,0,0,1-.7522-2.13,3.4977,3.4977,0,0,1,.7522-2.2557,2.5836,2.5836,0,0,1,2.1314-.8772,2.75,2.75,0,0,1,2.1313.8772A3.1612,3.1612,0,0,1,68.83,13.6591Zm-1.3791.1254a2.525,2.525,0,0,0-.3762-1.3785,1.2048,1.2048,0,0,0-1.1283-.7519,1.5263,1.5263,0,0,0-1.2538.7519,2.7141,2.7141,0,0,0,0,2.7569,1.2227,1.2227,0,0,0,2.2568,0A1.884,1.884,0,0,0,67.4508,13.7845Z"/>
      <path d="M78.7343,10.7769l-1.8806,5.89H75.6L74.8478,14.16a10.4253,10.4253,0,0,1-.5015-1.88h0a10.4418,10.4418,0,0,1-.5015,1.88l-.7523,2.5063H71.8388l-1.7552-5.89h1.3791l.6269,2.7569.3761,1.88h0c.1253-.5012.2507-1.1278.5015-1.88l.8776-2.7569h1.1283l.7523,2.7569a11.7372,11.7372,0,0,1,.5015,2.005h0c.1253-.6265.2507-1.2531.3761-2.005l.7522-2.7569Z"/>
      <path d="M85.5045,16.6667H84.2507V13.2832q0-1.5038-1.1283-1.5038a1.2941,1.2941,0,0,0-1.3791,1.3785v3.5088H80.49v-5.89h1.1283l.1254.8771h0a3.324,3.324,0,0,1,.6268-.7518,2.1186,2.1186,0,0,1,1.2538-.376,1.8857,1.8857,0,0,1,1.3791.5013,2.43,2.43,0,0,1,.6269,2.005v3.6341Z"/>
      <path d="M89.14,16.6667H87.8866V8.02H89.14Z"/>
      <path d="M96.9134,13.6591a3.4977,3.4977,0,0,1-.7522,2.2557,2.5831,2.5831,0,0,1-2.1313.8772,2.75,2.75,0,0,1-2.1314-.8772,3.161,3.161,0,0,1-.7522-2.13,3.4977,3.4977,0,0,1,.7522-2.2557,2.5835,2.5835,0,0,1,2.1314-.8772,2.7506,2.7506,0,0,1,2.1313.8772A3.1611,3.1611,0,0,1,96.9134,13.6591Zm-1.3791.1254a2.5258,2.5258,0,0,0-.3761-1.3785,1.2049,1.2049,0,0,0-1.1283-.7519,1.5262,1.5262,0,0,0-1.2538.7519,2.7141,2.7141,0,0,0,0,2.7569,1.2588,1.2588,0,0,0,1.2538.7519,1.2047,1.2047,0,0,0,1.1283-.7519A2.5246,2.5246,0,0,0,95.5343,13.7845Z"/>
      <path d="M103.1821,16.6667h-1.1284l-.1253-.6266h0a2.1046,2.1046,0,0,1-1.7553.7519,1.886,1.886,0,0,1-1.3791-.5013,2.2261,2.2261,0,0,1-.5014-1.2531,1.7,1.7,0,0,1,.8776-1.6291,3.9389,3.9389,0,0,1,2.5074-.5012V12.782c0-.7519-.3761-1.1279-1.2537-1.1279a2.6748,2.6748,0,0,0-1.5045.376l-.2507-.8772a3.4194,3.4194,0,0,1,2.006-.5013,2.1215,2.1215,0,0,1,2.382,2.381v2.13A8.5431,8.5431,0,0,1,103.1821,16.6667Zm-1.3791-2.005v-.8772c-1.5045,0-2.1314.3759-2.1314,1.1278a1.7808,1.7808,0,0,0,.2508.7519c.1253.2506.3761.2506.6269.2506a1.783,1.783,0,0,0,.7522-.2506,1.1513,1.1513,0,0,0,.5015-.7519Z"/>
      <path d="M110.7045,16.6667h-1.1284V15.6641h0a1.9445,1.9445,0,0,1-1.8806,1.1279,2.0338,2.0338,0,0,1-1.7552-.8772,3.1612,3.1612,0,0,1-.7522-2.13,3.6118,3.6118,0,0,1,.7522-2.3809,2.6673,2.6673,0,0,1,1.8806-.8772,1.7246,1.7246,0,0,1,1.63.7519h0V7.8947h1.2537v7.0176A8.1118,8.1118,0,0,0,110.7045,16.6667ZM109.3254,14.16V12.7819a1.1513,1.1513,0,0,0-.5015-.7519,1.1386,1.1386,0,0,0-.8776-.3759,1.3168,1.3168,0,0,0-1.1284.6266,2.6717,2.6717,0,0,0-.3761,1.5037,2.2508,2.2508,0,0,0,.3761,1.3785,1.3169,1.3169,0,0,0,1.1284.6265,1.1406,1.1406,0,0,0,1.003-.5012A1.5313,1.5313,0,0,0,109.3254,14.16Z"/>
      <path d="M121.8627,13.6591a3.4978,3.4978,0,0,1-.7523,2.2557,2.583,2.583,0,0,1-2.1313.8772,2.75,2.75,0,0,1-2.1313-.8772,3.161,3.161,0,0,1-.7523-2.13,3.4978,3.4978,0,0,1,.7523-2.2557,2.5834,2.5834,0,0,1,2.1313-.8772,2.75,2.75,0,0,1,2.1313.8772A3.1612,3.1612,0,0,1,121.8627,13.6591Zm-1.2537.1254a2.525,2.525,0,0,0-.3762-1.3785,1.2048,1.2048,0,0,0-1.1283-.7519,1.5263,1.5263,0,0,0-1.2538.7519,2.7141,2.7141,0,0,0,0,2.7569,1.2588,1.2588,0,0,0,1.2538.7519,1.2047,1.2047,0,0,0,1.1283-.7519A2.5247,2.5247,0,0,0,120.609,13.7845Z"/>
      <path d="M129.0089,16.6667h-1.2537V13.2832c0-1.0025-.3761-1.5038-1.2537-1.5038a1.2941,1.2941,0,0,0-1.3791,1.3785v3.5088h-1.2538v-5.89h1.1284v.8771h0a3.322,3.322,0,0,1,.6269-.7518,2.1181,2.1181,0,0,1,1.2537-.376,1.8857,1.8857,0,0,1,1.3791.5013,2.43,2.43,0,0,1,.6269,2.005l.1253,3.6341Z"/>
      <path d="M137.7851,11.7794h-1.5045v2.8823q0,1.1277.7522,1.1278h.6269V16.792a2.4454,2.4454,0,0,1-1.003.1253,1.61,1.61,0,0,1-1.2537-.5012,2.1259,2.1259,0,0,1-.5015-1.6291V11.78h-.8776V10.777h.8776V9.6491l1.2537-.3759V10.777H137.66l.1254,1.0024Z"/>
      <path d="M144.806,16.6667h-1.2538V13.2832c0-1.0025-.3761-1.6291-1.1283-1.6291a1.2066,1.2066,0,0,0-1.2537.8772v4.01h-1.2538V7.8947H141.17v3.5088h0a2.0008,2.0008,0,0,1,1.7552-1.0025,1.886,1.886,0,0,1,1.3791.5012,2.588,2.588,0,0,1,.6269,2.0051l-.1254,3.7594Z"/>
      <path d="M151.9522,13.5338V14.16H147.94a1.7945,1.7945,0,0,0,.6269,1.3784,2.1181,2.1181,0,0,0,1.2537.376,6.3564,6.3564,0,0,0,1.63-.2506l.2507.8772a4.7764,4.7764,0,0,1-2.006.3759,2.95,2.95,0,0,1-2.1313-.7519,2.9467,2.9467,0,0,1-.7523-2.13,3.4978,3.4978,0,0,1,.7523-2.2557,2.6179,2.6179,0,0,1,2.006-1.0025,2.0629,2.0629,0,0,1,1.8806,1.0025A2.4494,2.4494,0,0,1,151.9522,13.5338Zm-1.2537-.3759a2.361,2.361,0,0,0-.2507-1.0025,1.2541,1.2541,0,0,0-2.006,0,1.4223,1.4223,0,0,0-.3761,1.0025Z"/>
    </g>
</svg>
