<svg xmlns="http://www.w3.org/2000/svg" width="168" height="40" viewBox="0 0 168 40">
  <g>
    <path d="M0,39.8815V30.7261H1.5055v9.1554Z"/>
    <path d="M5.518,32.6231v1.1462a2.4793,2.4793,0,0,1,2.3234-1.2655,2.7136,2.7136,0,0,1,2.0258.8172A3.1214,3.1214,0,0,1,10.6664,35.6v4.2814H9.1742V35.8239a2.1025,2.1025,0,0,0-.4883-1.4947,1.74,1.74,0,0,0-1.3328-.5209,1.7609,1.7609,0,0,0-1.34.5209,2.0836,2.0836,0,0,0-.4953,1.4947v4.0576H4.0133V32.6231Z"/>
    <path d="M13.5961,38.9723a4.2216,4.2216,0,0,1,.007-5.4408A3.4194,3.4194,0,0,1,16.17,32.5038a3.6315,3.6315,0,0,1,2.1844.6262,3.0788,3.0788,0,0,1,1.168,1.7847H17.8992A1.6558,1.6558,0,0,0,16.17,33.7693a1.8215,1.8215,0,0,0-1.4719.6519,3.3237,3.3237,0,0,0,0,3.6553,1.8133,1.8133,0,0,0,1.4719.6588,1.67,1.67,0,0,0,1.7289-1.1462h1.6235a3.2438,3.2438,0,0,1-1.1875,1.7591A3.51,3.51,0,0,1,16.17,40,3.413,3.413,0,0,1,13.5961,38.9723Z"/>
    <path d="M21.5555,39.8815V30.1327h1.5054v9.7488Z"/>
    <path d="M30.6508,32.6231h1.5047v7.2584H30.6508V38.7353a2.4666,2.4666,0,0,1-2.3235,1.2514,2.7226,2.7226,0,0,1-2.0257-.81,3.0954,3.0954,0,0,1-.7993-2.2721V32.6231h1.4922v4.0577a2.1026,2.1026,0,0,0,.4883,1.4947,1.7384,1.7384,0,0,0,1.3328.5208,1.7615,1.7615,0,0,0,1.34-.5208,2.0842,2.0842,0,0,0,.4953-1.4947Z"/>
    <path d="M34.3336,34.7042a1.9507,1.9507,0,0,1,.7781-1.561,3.1263,3.1263,0,0,1,2.0461-.6394,3.033,3.033,0,0,1,2.0133.6262,2.2645,2.2645,0,0,1,.7984,1.706H38.425a1.1986,1.1986,0,0,0-.3758-.8429,1.3614,1.3614,0,0,0-.9437-.3033,1.5044,1.5044,0,0,0-.9508.27.8621.8621,0,0,0-.343.7118.7687.7687,0,0,0,.4352.6917,3.3845,3.3845,0,0,0,1.0633.3688q.6257.118,1.2539.29a2.2729,2.2729,0,0,1,1.0625.6253,1.6876,1.6876,0,0,1,.4351,1.2187,1.8344,1.8344,0,0,1-.7984,1.5415A3.3518,3.3518,0,0,1,37.2109,40a3.2163,3.2163,0,0,1-2.0328-.6058,2.2733,2.2733,0,0,1-.8578-1.7255h1.557a1.166,1.166,0,0,0,.3961.8428,1.45,1.45,0,0,0,.97.3033,1.5992,1.5992,0,0,0,.9765-.27.8494.8494,0,0,0,.3633-.7181.7728.7728,0,0,0-.4359-.6979,3.5212,3.5212,0,0,0-1.0625-.3758q-.627-.1239-1.2539-.2893a2.3014,2.3014,0,0,1-1.0626-.6A1.5639,1.5639,0,0,1,34.3336,34.7042Z"/>
    <path d="M43.9563,30.7a.9464.9464,0,1,1-.2774-.6854A.9266.9266,0,0,1,43.9563,30.7ZM42.24,39.8815V32.6231h1.5055v7.2584Z"/>
    <path d="M45.3953,32.6231h1.61l2.0593,5.9149,2.0594-5.9149h1.6235l-2.7719,7.2584H48.1539Z"/>
    <path d="M57.4461,40a3.411,3.411,0,0,1-2.5734-1.0277,3.7625,3.7625,0,0,1-.9907-2.7266,3.7134,3.7134,0,0,1,1.0032-2.72A3.56,3.56,0,0,1,61.05,36.0484a4.5151,4.5151,0,0,1-.0531.7111h-5.57a2.0709,2.0709,0,0,0,.614,1.4425,1.96,1.96,0,0,0,1.4055.5333,1.7722,1.7722,0,0,0,1.73-1.0144h1.6234a3.2572,3.2572,0,0,1-1.2015,1.6405A3.5394,3.5394,0,0,1,57.4461,40Zm1.4391-5.6974a2.0134,2.0134,0,0,0-1.4125-.5333,1.9406,1.9406,0,0,0-1.3922.5333,2.1568,2.1568,0,0,0-.6407,1.4293h4.0391A1.8845,1.8845,0,0,0,58.8852,34.3026Z"/>
    <path d="M67.5438,39.8815V30.7261H72.943V31.898H69.0492v2.78h3.036v1.1594h-3.036v4.0444Z"/>
    <path d="M76.375,32.6231v1.2647a2.2965,2.2965,0,0,1,2.1773-1.384v1.5548H78.17a1.8332,1.8332,0,0,0-1.339.4483,2.1366,2.1366,0,0,0-.4555,1.554v3.8206H74.87V32.6231Z"/>
    <path d="M80.9555,38.94a3.8172,3.8172,0,0,1-.9907-2.7134,3.7405,3.7405,0,0,1,.9836-2.6877,3.242,3.242,0,0,1,2.4485-1.0347,2.905,2.905,0,0,1,1.5117.3891,2.74,2.74,0,0,1,1.0094,1.0207V32.6231h1.5187v7.2584H85.918V38.5248a2.8734,2.8734,0,0,1-1.0157,1.0736A2.7929,2.7929,0,0,1,83.3969,40,3.2052,3.2052,0,0,1,80.9555,38.94Zm4.3093-.9092a2.7562,2.7562,0,0,0,0-3.5632,2.17,2.17,0,0,0-3.1015-.0133,2.3684,2.3684,0,0,0-.6539,1.7653,2.48,2.48,0,0,0,.6539,1.798,2.078,2.078,0,0,0,1.5508.6791A2.0991,2.0991,0,0,0,85.2648,38.03Z"/>
    <path d="M91.4492,32.6231v1.1462a2.4794,2.4794,0,0,1,2.3235-1.2655,2.87,2.87,0,0,1,1.5046.3954,2.5142,2.5142,0,0,1,1.0032,1.1461,2.8485,2.8485,0,0,1,1.0625-1.1329,2.9291,2.9291,0,0,1,1.5383-.4086,2.7772,2.7772,0,0,1,2.0585.811,3.101,3.101,0,0,1,.8055,2.2853v4.2814h-1.5047V35.8239a2.1061,2.1061,0,0,0-.4883-1.4947,1.9666,1.9666,0,0,0-2.6664,0,2.1029,2.1029,0,0,0-.4882,1.4947v4.0576H95.1055V35.8239a2.1025,2.1025,0,0,0-.4883-1.4947,1.74,1.74,0,0,0-1.3328-.5209,1.7612,1.7612,0,0,0-1.34.5209,2.084,2.084,0,0,0-.4953,1.4947v4.0576H89.9445V32.6231Z"/>
    <path d="M107.2492,40a3.4112,3.4112,0,0,1-2.5734-1.0277,3.7625,3.7625,0,0,1-.9906-2.7266,3.7134,3.7134,0,0,1,1.0031-2.72,3.56,3.56,0,0,1,6.1648,2.5231,4.5032,4.5032,0,0,1-.0531.7111h-5.57a2.0705,2.0705,0,0,0,.6141,1.4425,1.9593,1.9593,0,0,0,1.4054.5333,1.772,1.772,0,0,0,1.73-1.0144h1.6234a3.2572,3.2572,0,0,1-1.2015,1.6405A3.5394,3.5394,0,0,1,107.2492,40Zm1.4391-5.6974a2.0132,2.0132,0,0,0-1.4125-.5333,1.9406,1.9406,0,0,0-1.3922.5333,2.1567,2.1567,0,0,0-.6406,1.4293h4.039A1.8845,1.8845,0,0,0,108.6883,34.3026Z"/>
    <path d="M121.1492,32.6231h1.4781L120.37,39.8815h-1.5836L117.32,34.52l-1.4648,5.3613h-1.5844l-2.27-7.2584h1.5312l1.518,5.8354,1.5445-5.8354h1.5711l1.4781,5.81Z"/>
    <path d="M127.4383,40a3.5412,3.5412,0,0,1-2.62-1.0339,3.677,3.677,0,0,1-1.03-2.7142,3.71,3.71,0,1,1,6.33,2.708A3.7347,3.7347,0,0,1,127.4383,40Zm1.564-1.9235a2.8932,2.8932,0,0,0,.02-3.6553,2.0911,2.0911,0,0,0-1.5508-.6519,2.0281,2.0281,0,0,0-1.5313.6519,2.5509,2.5509,0,0,0-.62,1.8307,2.5861,2.5861,0,0,0,.6071,1.8316,1.9793,1.9793,0,0,0,1.5117.6518A2.1377,2.1377,0,0,0,129.0023,38.0765Z"/>
    <path d="M134.7305,32.6231v1.2647a2.2983,2.2983,0,0,1,2.1781-1.384v1.5548h-.3828a1.8353,1.8353,0,0,0-1.34.4483,2.14,2.14,0,0,0-.4554,1.554v3.8206h-1.5047V32.6231Z"/>
    <path d="M140.3273,39.8815h-1.5046V30.1327h1.5046v5.6647l2.6407-3.1743h2.0851l-3.3523,3.6358,3.3523,3.6226H143.02l-2.693-3.122Z"/>
  </g>
  <g>
    <path d="M118.1135,6.6019a10.9784,10.9784,0,1,0,0,17.5355V26.348h4.4018V4.3913h-4.4018Zm-6.6026,15.3548a6.587,6.587,0,1,1,6.6026-6.587A6.6023,6.6023,0,0,1,111.5109,21.9567Z"/>
    <polygon points="124.716 4.391 129.118 4.391 129.118 26.348 133.52 26.348 133.52 0 124.716 0 124.716 4.391"/>
    <polygon points="135.721 4.391 140.122 4.391 140.122 26.348 144.524 26.348 144.524 0 135.721 0 135.721 4.391"/>
    <polygon points="168 4.391 163.598 4.391 157.704 20.856 150.393 4.391 145.991 4.391 155.739 26.345 152.594 35.131 156.996 35.131 160.14 26.348 160.142 26.348 160.141 26.345 168 4.391"/>
  </g>
  <g>
    <polygon points="17.607 19.029 4.402 0 0 0 0 26.348 4.402 26.348 4.402 7.319 17.607 26.348 22.009 26.348 22.009 0 17.607 0 17.607 19.029"/>
    <path d="M41.8166,6.6019a10.9784,10.9784,0,1,0,0,17.5355V26.348h4.4017V4.3913H41.8166ZM35.214,21.9567a6.587,6.587,0,1,1,6.6026-6.587A6.6023,6.6023,0,0,1,35.214,21.9567Z"/>
    <path d="M57.2227,0H52.821V4.3913H48.4192V8.7827H52.821V19.761a6.6025,6.6025,0,0,0,6.6026,6.587h2.2009V21.9567H59.4236a2.2007,2.2007,0,0,1-2.2009-2.1957V8.7827h4.4018V4.3913H57.2227Z"/>
    <path d="M81.4323,15.37a6.6026,6.6026,0,0,1-13.2052,0V4.3913H63.8253V15.37a10.9887,10.9887,0,0,0,17.607,8.7617V26.348h4.4018V4.3913H81.4323Z"/>
    <path d="M100.5066,4.3913a10.95,10.95,0,0,0-6.6027,2.2166V4.3913H89.5022V26.348h4.4017V15.37a6.6025,6.6025,0,0,1,6.6027-6.587Z"/>
  </g>
</svg>
