<svg width="896" height="504" viewBox="0 0 896 504" fill="none" xmlns="http://www.w3.org/2000/svg">
<rect width="896" height="504" fill="white"/>
<rect x="16" y="256" width="48" height="48" fill="#1A67C9" fill-opacity="0.12"/>
<rect x="16" y="256" width="48" height="48" stroke="white" stroke-width="2"/>
<rect x="16" y="304" width="48" height="48" fill="#1A67C9" fill-opacity="0.12"/>
<rect x="16" y="304" width="48" height="48" stroke="white" stroke-width="2"/>
<rect x="16" y="64" width="48" height="48" fill="#1A67C9" fill-opacity="0.12"/>
<rect x="16" y="64" width="48" height="48" stroke="white" stroke-width="2"/>
<rect x="832" y="208" width="48" height="48" fill="#8E0B37" fill-opacity="0.12"/>
<rect x="832" y="208" width="48" height="48" stroke="white" stroke-width="2"/>
<rect x="832" y="304" width="48" height="48" fill="#8E0B37" fill-opacity="0.12"/>
<rect x="832" y="304" width="48" height="48" stroke="white" stroke-width="2"/>
<rect x="832" y="112" width="48" height="48" fill="#8E0B37" fill-opacity="0.12"/>
<rect x="832" y="112" width="48" height="48" stroke="white" stroke-width="2"/>
<rect x="832" y="160" width="48" height="48" fill="#8E0B37" fill-opacity="0.12"/>
<rect x="832" y="160" width="48" height="48" stroke="white" stroke-width="2"/>
<rect x="832" y="256" width="48" height="48" fill="#8E0B37" fill-opacity="0.12"/>
<rect x="832" y="256" width="48" height="48" stroke="white" stroke-width="2"/>
<rect x="832" y="64" width="48" height="48" fill="#8E0B37" fill-opacity="0.12"/>
<rect x="832" y="64" width="48" height="48" stroke="white" stroke-width="2"/>
<rect x="64" y="64" width="48" height="48" fill="#942E27" fill-opacity="0.12"/>
<rect x="64" y="64" width="48" height="48" stroke="white" stroke-width="2"/>
<rect x="64" y="112" width="48" height="48" fill="#942E27" fill-opacity="0.12"/>
<rect x="64" y="112" width="48" height="48" stroke="white" stroke-width="2"/>
<rect x="64" y="160" width="48" height="48" fill="#942E27" fill-opacity="0.12"/>
<rect x="64" y="160" width="48" height="48" stroke="white" stroke-width="2"/>
<rect x="64" y="208" width="48" height="48" fill="#942E27" fill-opacity="0.12"/>
<rect x="64" y="208" width="48" height="48" stroke="white" stroke-width="2"/>
<rect x="64" y="256" width="48" height="48" fill="#942E27" fill-opacity="0.12"/>
<rect x="64" y="256" width="48" height="48" stroke="white" stroke-width="2"/>
<rect x="64" y="304" width="48" height="48" fill="#942E27" fill-opacity="0.12"/>
<rect x="64" y="304" width="48" height="48" stroke="white" stroke-width="2"/>
<rect x="592" y="64" width="48" height="48" fill="#8E6310" fill-opacity="0.12"/>
<rect x="592" y="64" width="48" height="48" stroke="white" stroke-width="2"/>
<rect x="592" y="112" width="48" height="48" fill="#17804B" fill-opacity="0.12"/>
<rect x="592" y="112" width="48" height="48" stroke="white" stroke-width="2"/>
<rect x="592" y="160" width="48" height="48" fill="#17804B" fill-opacity="0.12"/>
<rect x="592" y="160" width="48" height="48" stroke="white" stroke-width="2"/>
<rect x="592" y="208" width="48" height="48" fill="#17804B" fill-opacity="0.12"/>
<rect x="592" y="208" width="48" height="48" stroke="white" stroke-width="2"/>
<rect x="592" y="256" width="48" height="48" fill="#17804B" fill-opacity="0.12"/>
<rect x="592" y="256" width="48" height="48" stroke="white" stroke-width="2"/>
<rect x="592" y="304" width="48" height="48" fill="#17804B" fill-opacity="0.12"/>
<rect x="592" y="304" width="48" height="48" stroke="white" stroke-width="2"/>
<rect x="640" y="64" width="48" height="48" fill="#00998C" fill-opacity="0.12"/>
<rect x="640" y="64" width="48" height="48" stroke="white" stroke-width="2"/>
<rect x="640" y="112" width="48" height="48" fill="#8E6310" fill-opacity="0.12"/>
<rect x="640" y="112" width="48" height="48" stroke="white" stroke-width="2"/>
<rect x="640" y="160" width="48" height="48" fill="#8E6310" fill-opacity="0.12"/>
<rect x="640" y="160" width="48" height="48" stroke="white" stroke-width="2"/>
<rect x="640" y="208" width="48" height="48" fill="#17804B" fill-opacity="0.12"/>
<rect x="640" y="208" width="48" height="48" stroke="white" stroke-width="2"/>
<rect x="640" y="256" width="48" height="48" fill="#17804B" fill-opacity="0.12"/>
<rect x="640" y="256" width="48" height="48" stroke="white" stroke-width="2"/>
<rect x="640" y="304" width="48" height="48" fill="#17804B" fill-opacity="0.12"/>
<rect x="640" y="304" width="48" height="48" stroke="white" stroke-width="2"/>
<rect x="688" y="64" width="48" height="48" fill="#00998C" fill-opacity="0.12"/>
<rect x="688" y="64" width="48" height="48" stroke="white" stroke-width="2"/>
<rect x="688" y="112" width="48" height="48" fill="#00998C" fill-opacity="0.12"/>
<rect x="688" y="112" width="48" height="48" stroke="white" stroke-width="2"/>
<rect x="688" y="160" width="48" height="48" fill="#8E6310" fill-opacity="0.12"/>
<rect x="688" y="160" width="48" height="48" stroke="white" stroke-width="2"/>
<rect x="688" y="208" width="48" height="48" fill="#8E6310" fill-opacity="0.12"/>
<rect x="688" y="208" width="48" height="48" stroke="white" stroke-width="2"/>
<rect x="688" y="256" width="48" height="48" fill="#17804B" fill-opacity="0.12"/>
<rect x="688" y="256" width="48" height="48" stroke="white" stroke-width="2"/>
<rect x="688" y="304" width="48" height="48" fill="#17804B" fill-opacity="0.12"/>
<rect x="688" y="304" width="48" height="48" stroke="white" stroke-width="2"/>
<rect x="736" y="64" width="48" height="48" fill="#00998C" fill-opacity="0.12"/>
<rect x="736" y="64" width="48" height="48" stroke="white" stroke-width="2"/>
<rect x="736" y="112" width="48" height="48" fill="#00998C" fill-opacity="0.12"/>
<rect x="736" y="112" width="48" height="48" stroke="white" stroke-width="2"/>
<rect x="736" y="160" width="48" height="48" fill="#00998C" fill-opacity="0.12"/>
<rect x="736" y="160" width="48" height="48" stroke="white" stroke-width="2"/>
<rect x="736" y="208" width="48" height="48" fill="#8E6310" fill-opacity="0.12"/>
<rect x="736" y="208" width="48" height="48" stroke="white" stroke-width="2"/>
<rect x="736" y="256" width="48" height="48" fill="#8E6310" fill-opacity="0.12"/>
<rect x="736" y="256" width="48" height="48" stroke="white" stroke-width="2"/>
<rect x="736" y="304" width="48" height="48" fill="#17804B" fill-opacity="0.12"/>
<rect x="736" y="304" width="48" height="48" stroke="white" stroke-width="2"/>
<rect x="112" y="160" width="48" height="48" fill="#641B98" fill-opacity="0.12"/>
<rect x="112" y="160" width="48" height="48" stroke="white" stroke-width="2"/>
<rect x="112" y="208" width="48" height="48" fill="#641B98" fill-opacity="0.12"/>
<rect x="112" y="208" width="48" height="48" stroke="white" stroke-width="2"/>
<rect x="112" y="384" width="48" height="48" fill="#175E82" fill-opacity="0.12"/>
<rect x="112" y="384" width="48" height="48" stroke="white" stroke-width="2"/>
<rect x="160" y="384" width="48" height="48" fill="#175E82" fill-opacity="0.12"/>
<rect x="160" y="384" width="48" height="48" stroke="white" stroke-width="2"/>
<rect x="208" y="384" width="48" height="48" fill="#175E82" fill-opacity="0.12"/>
<rect x="208" y="384" width="48" height="48" stroke="white" stroke-width="2"/>
<rect x="256" y="384" width="48" height="48" fill="#175E82" fill-opacity="0.12"/>
<rect x="256" y="384" width="48" height="48" stroke="white" stroke-width="2"/>
<rect x="304" y="384" width="48" height="48" fill="#175E82" fill-opacity="0.12"/>
<rect x="304" y="384" width="48" height="48" stroke="white" stroke-width="2"/>
<rect x="352" y="384" width="48" height="48" fill="#175E82" fill-opacity="0.12"/>
<rect x="352" y="384" width="48" height="48" stroke="white" stroke-width="2"/>
<rect x="400" y="384" width="48" height="48" fill="#175E82" fill-opacity="0.12"/>
<rect x="400" y="384" width="48" height="48" stroke="white" stroke-width="2"/>
<rect x="448" y="384" width="48" height="48" fill="#175E82" fill-opacity="0.12"/>
<rect x="448" y="384" width="48" height="48" stroke="white" stroke-width="2"/>
<rect x="496" y="384" width="48" height="48" fill="#175E82" fill-opacity="0.12"/>
<rect x="496" y="384" width="48" height="48" stroke="white" stroke-width="2"/>
<rect x="544" y="384" width="48" height="48" fill="#175E82" fill-opacity="0.12"/>
<rect x="544" y="384" width="48" height="48" stroke="white" stroke-width="2"/>
<rect x="592" y="384" width="48" height="48" fill="#175E82" fill-opacity="0.12"/>
<rect x="592" y="384" width="48" height="48" stroke="white" stroke-width="2"/>
<rect x="640" y="384" width="48" height="48" fill="#175E82" fill-opacity="0.12"/>
<rect x="640" y="384" width="48" height="48" stroke="white" stroke-width="2"/>
<rect x="688" y="384" width="48" height="48" fill="#175E82" fill-opacity="0.12"/>
<rect x="688" y="384" width="48" height="48" stroke="white" stroke-width="2"/>
<rect x="736" y="384" width="48" height="48" fill="#175E82" fill-opacity="0.12"/>
<rect x="736" y="384" width="48" height="48" stroke="white" stroke-width="2"/>
<rect x="784" y="384" width="48" height="48" fill="#175E82" fill-opacity="0.12"/>
<rect x="784" y="384" width="48" height="48" stroke="white" stroke-width="2"/>
<rect x="208" y="432" width="48" height="48" fill="#81314C" fill-opacity="0.12"/>
<rect x="208" y="432" width="48" height="48" stroke="white" stroke-width="2"/>
<rect x="256" y="432" width="48" height="48" fill="#81314C" fill-opacity="0.12"/>
<rect x="256" y="432" width="48" height="48" stroke="white" stroke-width="2"/>
<rect x="304" y="432" width="48" height="48" fill="#81314C" fill-opacity="0.12"/>
<rect x="304" y="432" width="48" height="48" stroke="white" stroke-width="2"/>
<rect x="352" y="432" width="48" height="48" fill="#81314C" fill-opacity="0.12"/>
<rect x="352" y="432" width="48" height="48" stroke="white" stroke-width="2"/>
<rect x="400" y="432" width="48" height="48" fill="#81314C" fill-opacity="0.12"/>
<rect x="400" y="432" width="48" height="48" stroke="white" stroke-width="2"/>
<rect x="448" y="432" width="48" height="48" fill="#81314C" fill-opacity="0.12"/>
<rect x="448" y="432" width="48" height="48" stroke="white" stroke-width="2"/>
<rect x="496" y="432" width="48" height="48" fill="#81314C" fill-opacity="0.12"/>
<rect x="496" y="432" width="48" height="48" stroke="white" stroke-width="2"/>
<rect x="544" y="432" width="48" height="48" fill="#81314C" fill-opacity="0.12"/>
<rect x="544" y="432" width="48" height="48" stroke="white" stroke-width="2"/>
<rect x="592" y="432" width="48" height="48" fill="#81314C" fill-opacity="0.12"/>
<rect x="592" y="432" width="48" height="48" stroke="white" stroke-width="2"/>
<rect x="640" y="432" width="48" height="48" fill="#81314C" fill-opacity="0.12"/>
<rect x="640" y="432" width="48" height="48" stroke="white" stroke-width="2"/>
<rect x="688" y="432" width="48" height="48" fill="#81314C" fill-opacity="0.12"/>
<rect x="688" y="432" width="48" height="48" stroke="white" stroke-width="2"/>
<rect x="736" y="432" width="48" height="48" fill="#81314C" fill-opacity="0.12"/>
<rect x="736" y="432" width="48" height="48" stroke="white" stroke-width="2"/>
<rect x="784" y="432" width="48" height="48" fill="#81314C" fill-opacity="0.12"/>
<rect x="784" y="432" width="48" height="48" stroke="white" stroke-width="2"/>
<rect x="112" y="432" width="48" height="48" fill="#81314C" fill-opacity="0.12"/>
<rect x="112" y="432" width="48" height="48" stroke="white" stroke-width="2"/>
<rect x="160" y="160" width="48" height="48" fill="#641B98" fill-opacity="0.12"/>
<rect x="160" y="160" width="48" height="48" stroke="white" stroke-width="2"/>
<rect x="160" y="208" width="48" height="48" fill="#641B98" fill-opacity="0.12"/>
<rect x="160" y="208" width="48" height="48" stroke="white" stroke-width="2"/>
<rect x="160" y="256" width="48" height="48" fill="#641B98" fill-opacity="0.12"/>
<rect x="160" y="256" width="48" height="48" stroke="white" stroke-width="2"/>
<rect x="160" y="304" width="48" height="48" fill="#641B98" fill-opacity="0.12"/>
<rect x="160" y="304" width="48" height="48" stroke="white" stroke-width="2"/>
<rect x="208" y="160" width="48" height="48" fill="#641B98" fill-opacity="0.12"/>
<rect x="208" y="160" width="48" height="48" stroke="white" stroke-width="2"/>
<rect x="208" y="208" width="48" height="48" fill="#641B98" fill-opacity="0.12"/>
<rect x="208" y="208" width="48" height="48" stroke="white" stroke-width="2"/>
<rect x="208" y="256" width="48" height="48" fill="#641B98" fill-opacity="0.12"/>
<rect x="208" y="256" width="48" height="48" stroke="white" stroke-width="2"/>
<rect x="208" y="304" width="48" height="48" fill="#641B98" fill-opacity="0.12"/>
<rect x="208" y="304" width="48" height="48" stroke="white" stroke-width="2"/>
<rect x="256" y="160" width="48" height="48" fill="#641B98" fill-opacity="0.12"/>
<rect x="256" y="160" width="48" height="48" stroke="white" stroke-width="2"/>
<rect x="256" y="208" width="48" height="48" fill="#641B98" fill-opacity="0.12"/>
<rect x="256" y="208" width="48" height="48" stroke="white" stroke-width="2"/>
<rect x="256" y="256" width="48" height="48" fill="#641B98" fill-opacity="0.12"/>
<rect x="256" y="256" width="48" height="48" stroke="white" stroke-width="2"/>
<rect x="256" y="304" width="48" height="48" fill="#641B98" fill-opacity="0.12"/>
<rect x="256" y="304" width="48" height="48" stroke="white" stroke-width="2"/>
<rect x="304" y="160" width="48" height="48" fill="#641B98" fill-opacity="0.12"/>
<rect x="304" y="160" width="48" height="48" stroke="white" stroke-width="2"/>
<rect x="304" y="208" width="48" height="48" fill="#641B98" fill-opacity="0.12"/>
<rect x="304" y="208" width="48" height="48" stroke="white" stroke-width="2"/>
<rect x="304" y="256" width="48" height="48" fill="#641B98" fill-opacity="0.12"/>
<rect x="304" y="256" width="48" height="48" stroke="white" stroke-width="2"/>
<rect x="304" y="304" width="48" height="48" fill="#641B98" fill-opacity="0.12"/>
<rect x="304" y="304" width="48" height="48" stroke="white" stroke-width="2"/>
<rect x="352" y="160" width="48" height="48" fill="#641B98" fill-opacity="0.12"/>
<rect x="352" y="160" width="48" height="48" stroke="white" stroke-width="2"/>
<rect x="352" y="208" width="48" height="48" fill="#641B98" fill-opacity="0.12"/>
<rect x="352" y="208" width="48" height="48" stroke="white" stroke-width="2"/>
<rect x="352" y="256" width="48" height="48" fill="#641B98" fill-opacity="0.12"/>
<rect x="352" y="256" width="48" height="48" stroke="white" stroke-width="2"/>
<rect x="400" y="160" width="48" height="48" fill="#641B98" fill-opacity="0.12"/>
<rect x="400" y="160" width="48" height="48" stroke="white" stroke-width="2"/>
<rect x="400" y="208" width="48" height="48" fill="#641B98" fill-opacity="0.12"/>
<rect x="400" y="208" width="48" height="48" stroke="white" stroke-width="2"/>
<rect x="400" y="256" width="48" height="48" fill="#641B98" fill-opacity="0.12"/>
<rect x="400" y="256" width="48" height="48" stroke="white" stroke-width="2"/>
<rect x="448" y="160" width="48" height="48" fill="#641B98" fill-opacity="0.12"/>
<rect x="448" y="160" width="48" height="48" stroke="white" stroke-width="2"/>
<rect x="448" y="208" width="48" height="48" fill="#641B98" fill-opacity="0.12"/>
<rect x="448" y="208" width="48" height="48" stroke="white" stroke-width="2"/>
<rect x="448" y="256" width="48" height="48" fill="#641B98" fill-opacity="0.12"/>
<rect x="448" y="256" width="48" height="48" stroke="white" stroke-width="2"/>
<rect x="496" y="160" width="48" height="48" fill="#641B98" fill-opacity="0.12"/>
<rect x="496" y="160" width="48" height="48" stroke="white" stroke-width="2"/>
<rect x="496" y="208" width="48" height="48" fill="#641B98" fill-opacity="0.12"/>
<rect x="496" y="208" width="48" height="48" stroke="white" stroke-width="2"/>
<rect x="496" y="256" width="48" height="48" fill="#641B98" fill-opacity="0.12"/>
<rect x="496" y="256" width="48" height="48" stroke="white" stroke-width="2"/>
<rect x="544" y="160" width="48" height="48" fill="#641B98" fill-opacity="0.12"/>
<rect x="544" y="160" width="48" height="48" stroke="white" stroke-width="2"/>
<rect x="544" y="208" width="48" height="48" fill="#641B98" fill-opacity="0.12"/>
<rect x="544" y="208" width="48" height="48" stroke="white" stroke-width="2"/>
<rect x="544" y="256" width="48" height="48" fill="#641B98" fill-opacity="0.12"/>
<rect x="544" y="256" width="48" height="48" stroke="white" stroke-width="2"/>
<rect x="400" y="304" width="48" height="48" fill="#641B98" fill-opacity="0.12"/>
<rect x="400" y="304" width="48" height="48" stroke="white" stroke-width="2"/>
<rect x="448" y="304" width="48" height="48" fill="#641B98" fill-opacity="0.12"/>
<rect x="448" y="304" width="48" height="48" stroke="white" stroke-width="2"/>
<rect x="496" y="304" width="48" height="48" fill="#641B98" fill-opacity="0.12"/>
<rect x="496" y="304" width="48" height="48" stroke="white" stroke-width="2"/>
<rect x="544" y="304" width="48" height="48" fill="#641B98" fill-opacity="0.12"/>
<rect x="544" y="304" width="48" height="48" stroke="white" stroke-width="2"/>
<rect x="352" y="304" width="48" height="48" fill="#641B98" fill-opacity="0.12"/>
<rect x="352" y="304" width="48" height="48" stroke="white" stroke-width="2"/>
<rect x="160" y="432" width="48" height="48" fill="#81314C" fill-opacity="0.12"/>
<rect x="160" y="432" width="48" height="48" stroke="white" stroke-width="2"/>
<rect x="784" y="112" width="48" height="48" fill="#131B6C" fill-opacity="0.12"/>
<rect x="784" y="112" width="48" height="48" stroke="white" stroke-width="2"/>
<rect x="784" y="160" width="48" height="48" fill="#131B6C" fill-opacity="0.12"/>
<rect x="784" y="160" width="48" height="48" stroke="white" stroke-width="2"/>
<rect x="784" y="208" width="48" height="48" fill="#131B6C" fill-opacity="0.12"/>
<rect x="784" y="208" width="48" height="48" stroke="white" stroke-width="2"/>
<rect x="784" y="256" width="48" height="48" fill="#131B6C" fill-opacity="0.12"/>
<rect x="784" y="256" width="48" height="48" stroke="white" stroke-width="2"/>
<rect x="784" y="304" width="48" height="48" fill="#131B6C" fill-opacity="0.12"/>
<rect x="784" y="304" width="48" height="48" stroke="white" stroke-width="2"/>
<rect x="112.5" y="256.5" width="47" height="47" fill="#175E82" fill-opacity="0.12"/>
<rect x="112.5" y="256.5" width="47" height="47" stroke="white"/>
<rect x="112.5" y="304.5" width="47" height="47" fill="#81314C" fill-opacity="0.12"/>
<rect x="112.5" y="304.5" width="47" height="47" stroke="white"/>
<rect x="16" y="16" width="48" height="48" fill="#00998C" fill-opacity="0.12"/>
<rect x="16" y="16" width="48" height="48" stroke="white" stroke-width="2"/>
<rect x="832" y="16" width="48" height="48" fill="#8E0B37" fill-opacity="0.12"/>
<rect x="832" y="16" width="48" height="48" stroke="white" stroke-width="2"/>
<rect x="784" y="64" width="48" height="48" fill="#131B6C" fill-opacity="0.12"/>
<rect x="784" y="64" width="48" height="48" stroke="white" stroke-width="2"/>
<rect x="14.5" y="110.5" width="51" height="147" stroke="#1A67C9" stroke-width="3"/>
<rect x="16" y="208" width="48" height="48" fill="#1A67C9" fill-opacity="0.12"/>
<rect x="16" y="208" width="48" height="48" stroke="white" stroke-width="2"/>
<path d="M39.3584 215.043C39.3584 215.333 39.2998 215.585 39.1826 215.799C39.0654 216.013 38.9043 216.188 38.6992 216.326C38.4971 216.461 38.2627 216.558 37.9961 216.616V216.647C38.5088 216.711 38.8955 216.873 39.1562 217.13C39.4199 217.388 39.5518 217.729 39.5518 218.154C39.5518 218.526 39.4624 218.859 39.2837 219.152C39.105 219.442 38.8311 219.67 38.4619 219.837C38.0928 220.004 37.6182 220.088 37.0381 220.088C36.6895 220.088 36.3657 220.06 36.0669 220.004C35.771 219.949 35.4897 219.859 35.2231 219.736V218.818C35.4956 218.953 35.7856 219.057 36.0933 219.13C36.4009 219.203 36.6924 219.24 36.9678 219.24C37.5039 219.24 37.8862 219.14 38.1147 218.941C38.3433 218.739 38.4575 218.46 38.4575 218.106C38.4575 217.877 38.3975 217.69 38.2773 217.543C38.1602 217.397 37.9771 217.287 37.728 217.214C37.4819 217.141 37.1641 217.104 36.7744 217.104H36.2075V216.273H36.7788C37.1509 216.273 37.4497 216.229 37.6753 216.142C37.9009 216.051 38.0635 215.926 38.1631 215.768C38.2656 215.61 38.3169 215.425 38.3169 215.214C38.3169 214.939 38.2275 214.725 38.0488 214.573C37.8701 214.417 37.605 214.34 37.2534 214.34C37.0366 214.34 36.8389 214.365 36.6602 214.415C36.4844 214.464 36.3218 214.527 36.1724 214.604C36.0229 214.68 35.8809 214.762 35.7461 214.85L35.2495 214.133C35.4927 213.952 35.7827 213.798 36.1196 213.672C36.4565 213.546 36.8491 213.483 37.2974 213.483C37.9565 213.483 38.4648 213.625 38.8223 213.909C39.1797 214.19 39.3584 214.568 39.3584 215.043ZM41.1382 220L43.6606 214.48H40.3252V213.575H44.7725V214.283L42.25 220H41.1382Z" fill="#1A67C9"/>
<path d="M33.7246 227.65C34.8906 227.65 35.8516 227.791 36.6074 228.072C37.3691 228.354 37.9346 228.778 38.3037 229.347C38.6729 229.915 38.8574 230.633 38.8574 231.5C38.8574 232.086 38.7461 232.599 38.5234 233.038C38.3008 233.478 38.0078 233.85 37.6445 234.154C37.2812 234.459 36.8887 234.708 36.4668 234.901L40.2461 240.5H37.2227L34.1553 235.569H32.7051V240.5H29.9805V227.65H33.7246ZM33.5312 229.883H32.7051V233.354H33.584C34.4863 233.354 35.1309 233.205 35.5176 232.906C35.9102 232.602 36.1064 232.156 36.1064 231.57C36.1064 230.961 35.8955 230.527 35.4736 230.27C35.0576 230.012 34.4102 229.883 33.5312 229.883ZM44.333 226.824V230.006C44.333 230.375 44.3213 230.741 44.2979 231.104C44.2803 231.468 44.2568 231.749 44.2275 231.948H44.333C44.5908 231.544 44.9424 231.201 45.3877 230.92C45.833 230.633 46.4102 230.489 47.1191 230.489C48.2207 230.489 49.1143 230.92 49.7998 231.781C50.4854 232.643 50.8281 233.905 50.8281 235.569C50.8281 236.688 50.6699 237.629 50.3535 238.391C50.0371 239.146 49.5947 239.718 49.0264 240.104C48.458 240.485 47.7988 240.676 47.0488 240.676C46.3281 240.676 45.7598 240.547 45.3438 240.289C44.9277 240.031 44.5908 239.741 44.333 239.419H44.1484L43.7002 240.5H41.6523V226.824H44.333ZM46.2578 232.634C45.7891 232.634 45.417 232.73 45.1416 232.924C44.8662 233.117 44.6641 233.407 44.5352 233.794C44.4121 234.181 44.3447 234.67 44.333 235.262V235.552C44.333 236.507 44.4736 237.239 44.7549 237.749C45.0361 238.253 45.5488 238.505 46.293 238.505C46.8438 238.505 47.2803 238.25 47.6025 237.74C47.9307 237.23 48.0947 236.495 48.0947 235.534C48.0947 234.573 47.9307 233.85 47.6025 233.363C47.2744 232.877 46.8262 232.634 46.2578 232.634Z" fill="#1A67C9"/>
<path d="M34.0234 246.658C34.2715 246.658 34.4951 246.697 34.6943 246.775C34.8936 246.852 35.0518 246.966 35.1689 247.118C35.2861 247.271 35.3447 247.459 35.3447 247.684C35.3447 247.857 35.3086 248.009 35.2363 248.138C35.166 248.267 35.0703 248.38 34.9492 248.478C34.8281 248.573 34.6924 248.658 34.542 248.732C34.71 248.814 34.8643 248.909 35.0049 249.017C35.1475 249.122 35.2617 249.246 35.3477 249.389C35.4355 249.531 35.4795 249.698 35.4795 249.89C35.4795 250.13 35.418 250.338 35.2949 250.514C35.1738 250.688 35.0049 250.822 34.7881 250.918C34.5713 251.012 34.3184 251.059 34.0293 251.059C33.7188 251.059 33.4541 251.013 33.2354 250.921C33.0166 250.829 32.8506 250.698 32.7373 250.528C32.624 250.356 32.5674 250.151 32.5674 249.913C32.5674 249.716 32.6064 249.545 32.6846 249.4C32.7627 249.256 32.8672 249.131 32.998 249.025C33.1309 248.92 33.2764 248.831 33.4346 248.759C33.2998 248.679 33.1768 248.589 33.0654 248.489C32.9541 248.388 32.8652 248.271 32.7988 248.141C32.7344 248.008 32.7021 247.854 32.7021 247.681C32.7021 247.458 32.7617 247.271 32.8809 247.121C33 246.969 33.1592 246.854 33.3584 246.775C33.5596 246.697 33.7812 246.658 34.0234 246.658ZM33.2236 249.887C33.2236 250.074 33.29 250.229 33.4229 250.35C33.5557 250.471 33.7539 250.531 34.0176 250.531C34.2793 250.531 34.4785 250.472 34.6152 250.353C34.752 250.233 34.8203 250.076 34.8203 249.881C34.8203 249.756 34.7852 249.646 34.7148 249.55C34.6465 249.454 34.5537 249.369 34.4365 249.295C34.3213 249.219 34.1934 249.148 34.0527 249.084L33.959 249.046C33.8066 249.11 33.6758 249.184 33.5664 249.266C33.457 249.346 33.3721 249.437 33.3115 249.538C33.2529 249.64 33.2236 249.756 33.2236 249.887ZM34.0176 247.188C33.8281 247.188 33.6719 247.235 33.5488 247.329C33.4277 247.421 33.3672 247.554 33.3672 247.728C33.3672 247.851 33.3965 247.956 33.4551 248.044C33.5156 248.132 33.5967 248.208 33.6982 248.272C33.7998 248.335 33.9121 248.394 34.0352 248.448C34.1543 248.396 34.2617 248.338 34.3574 248.275C34.4551 248.211 34.5322 248.135 34.5889 248.047C34.6475 247.957 34.6768 247.85 34.6768 247.725C34.6768 247.553 34.6152 247.421 34.4922 247.329C34.3711 247.235 34.2129 247.188 34.0176 247.188ZM37.4688 248.322C37.7441 248.322 37.9863 248.372 38.1953 248.472C38.4062 248.569 38.5703 248.714 38.6875 248.905C38.8047 249.095 38.8633 249.327 38.8633 249.603C38.8633 249.903 38.7998 250.163 38.6729 250.382C38.5459 250.599 38.3594 250.766 38.1133 250.883C37.8672 251 37.5674 251.059 37.2139 251.059C36.9893 251.059 36.7793 251.039 36.584 251C36.3906 250.961 36.2236 250.902 36.083 250.824V250.203C36.2295 250.285 36.4053 250.353 36.6104 250.405C36.8154 250.456 37.0117 250.481 37.1992 250.481C37.3984 250.481 37.5693 250.452 37.7119 250.394C37.8545 250.335 37.9639 250.245 38.04 250.124C38.1182 250.003 38.1572 249.85 38.1572 249.664C38.1572 249.418 38.0781 249.229 37.9199 249.096C37.7637 248.961 37.5186 248.894 37.1846 248.894C37.0674 248.894 36.9424 248.904 36.8096 248.926C36.6787 248.945 36.5693 248.967 36.4814 248.99L36.1797 248.812L36.3408 246.717H38.5674V247.323H36.9473L36.8535 248.39C36.9238 248.374 37.0078 248.359 37.1055 248.346C37.2031 248.33 37.3242 248.322 37.4688 248.322ZM39.5693 250.637C39.5693 250.477 39.6104 250.364 39.6924 250.3C39.7764 250.233 39.8779 250.2 39.9971 250.2C40.1162 250.2 40.2178 250.233 40.3018 250.3C40.3877 250.364 40.4307 250.477 40.4307 250.637C40.4307 250.793 40.3877 250.906 40.3018 250.977C40.2178 251.045 40.1162 251.079 39.9971 251.079C39.8779 251.079 39.7764 251.045 39.6924 250.977C39.6104 250.906 39.5693 250.793 39.5693 250.637ZM44.1484 250.06H43.5684V251H42.8887V250.06H40.9404V249.538L42.8975 246.705H43.5684V249.488H44.1484V250.06ZM42.8887 249.488V248.425C42.8887 248.337 42.8896 248.248 42.8916 248.158C42.8955 248.066 42.8994 247.979 42.9033 247.895C42.9072 247.811 42.9111 247.733 42.915 247.663C42.9189 247.591 42.9219 247.531 42.9238 247.484H42.9004C42.8633 247.562 42.8223 247.643 42.7773 247.725C42.7324 247.805 42.6846 247.883 42.6338 247.959L41.5791 249.488H42.8887ZM45.0156 251L46.6973 247.32H44.4736V246.717H47.4385V247.188L45.7568 251H45.0156Z" fill="#1A67C9"/>
<rect x="16" y="112" width="48" height="48" fill="#1A67C9" fill-opacity="0.12"/>
<rect x="16" y="112" width="48" height="48" stroke="white" stroke-width="2"/>
<path d="M38.2905 124H37.2534V119.865C37.2534 119.727 37.2549 119.589 37.2578 119.452C37.2607 119.314 37.2637 119.179 37.2666 119.047C37.2725 118.916 37.2798 118.79 37.2886 118.669C37.2271 118.737 37.1509 118.81 37.0601 118.889C36.9722 118.968 36.8784 119.05 36.7788 119.135L36.0405 119.724L35.522 119.069L37.4292 117.575H38.2905V124ZM43.4409 124H42.4038V119.865C42.4038 119.727 42.4053 119.589 42.4082 119.452C42.4111 119.314 42.4141 119.179 42.417 119.047C42.4229 118.916 42.4302 118.79 42.439 118.669C42.3774 118.737 42.3013 118.81 42.2104 118.889C42.1226 118.968 42.0288 119.05 41.9292 119.135L41.1909 119.724L40.6724 119.069L42.5796 117.575H43.4409V124Z" fill="#1A67C9"/>
<path d="M40.2549 144.5H36.792L31.2021 134.779H31.123C31.1465 135.184 31.167 135.591 31.1846 136.001C31.2021 136.411 31.2197 136.821 31.2373 137.231C31.2549 137.636 31.2725 138.043 31.29 138.453V144.5H28.8555V131.65H32.292L37.873 141.274H37.9346C37.9229 140.876 37.9082 140.48 37.8906 140.088C37.873 139.695 37.8555 139.303 37.8379 138.91C37.8262 138.518 37.8145 138.125 37.8027 137.732V131.65H40.2549V144.5ZM47.3125 134.472C48.6309 134.472 49.6416 134.759 50.3447 135.333C51.0479 135.907 51.3994 136.78 51.3994 137.952V144.5H49.5273L49.0088 143.164H48.9385C48.6572 143.516 48.3701 143.803 48.0771 144.025C47.7842 144.248 47.4473 144.412 47.0664 144.518C46.6855 144.623 46.2227 144.676 45.6777 144.676C45.0977 144.676 44.5762 144.564 44.1133 144.342C43.6562 144.119 43.2959 143.779 43.0322 143.322C42.7686 142.859 42.6367 142.273 42.6367 141.564C42.6367 140.521 43.0029 139.754 43.7354 139.262C44.4678 138.764 45.5664 138.488 47.0312 138.436L48.7363 138.383V137.952C48.7363 137.437 48.6016 137.059 48.332 136.818C48.0625 136.578 47.6875 136.458 47.207 136.458C46.7324 136.458 46.2666 136.525 45.8096 136.66C45.3525 136.795 44.8955 136.965 44.4385 137.17L43.5508 135.359C44.0723 135.084 44.6553 134.867 45.2998 134.709C45.9502 134.551 46.6211 134.472 47.3125 134.472ZM48.7363 139.947L47.6992 139.982C46.832 140.006 46.2285 140.161 45.8887 140.448C45.5547 140.735 45.3877 141.113 45.3877 141.582C45.3877 141.992 45.5078 142.285 45.748 142.461C45.9883 142.631 46.3018 142.716 46.6885 142.716C47.2627 142.716 47.7461 142.546 48.1387 142.206C48.5371 141.866 48.7363 141.383 48.7363 140.756V139.947Z" fill="#1A67C9"/>
<path d="M35.4795 155H32.5791V154.481L33.6895 153.356C33.9043 153.138 34.0811 152.949 34.2197 152.791C34.3584 152.631 34.4609 152.479 34.5273 152.337C34.5957 152.194 34.6299 152.039 34.6299 151.871C34.6299 151.664 34.5703 151.508 34.4512 151.402C34.332 151.295 34.1748 151.241 33.9795 151.241C33.7939 151.241 33.6221 151.278 33.4639 151.353C33.3076 151.425 33.1455 151.528 32.9775 151.663L32.5996 151.209C32.7188 151.107 32.8457 151.015 32.9805 150.931C33.1172 150.847 33.2695 150.78 33.4375 150.731C33.6055 150.681 33.7969 150.655 34.0117 150.655C34.2832 150.655 34.5176 150.704 34.7148 150.802C34.9121 150.897 35.0635 151.031 35.1689 151.203C35.2764 151.375 35.3301 151.575 35.3301 151.804C35.3301 152.034 35.2842 152.247 35.1924 152.442C35.1006 152.638 34.9697 152.831 34.7998 153.022C34.6299 153.212 34.4277 153.418 34.1934 153.641L33.4521 154.364V154.396H35.4795V155ZM38.9131 155H36.0127V154.481L37.123 153.356C37.3379 153.138 37.5146 152.949 37.6533 152.791C37.792 152.631 37.8945 152.479 37.9609 152.337C38.0293 152.194 38.0635 152.039 38.0635 151.871C38.0635 151.664 38.0039 151.508 37.8848 151.402C37.7656 151.295 37.6084 151.241 37.4131 151.241C37.2275 151.241 37.0557 151.278 36.8975 151.353C36.7412 151.425 36.5791 151.528 36.4111 151.663L36.0332 151.209C36.1523 151.107 36.2793 151.015 36.4141 150.931C36.5508 150.847 36.7031 150.78 36.8711 150.731C37.0391 150.681 37.2305 150.655 37.4453 150.655C37.7168 150.655 37.9512 150.704 38.1484 150.802C38.3457 150.897 38.4971 151.031 38.6025 151.203C38.71 151.375 38.7637 151.575 38.7637 151.804C38.7637 152.034 38.7178 152.247 38.626 152.442C38.5342 152.638 38.4033 152.831 38.2334 153.022C38.0635 153.212 37.8613 153.418 37.627 153.641L36.8857 154.364V154.396H38.9131V155ZM39.5693 154.637C39.5693 154.477 39.6104 154.364 39.6924 154.3C39.7764 154.233 39.8779 154.2 39.9971 154.2C40.1162 154.2 40.2178 154.233 40.3018 154.3C40.3877 154.364 40.4307 154.477 40.4307 154.637C40.4307 154.793 40.3877 154.906 40.3018 154.977C40.2178 155.045 40.1162 155.079 39.9971 155.079C39.8779 155.079 39.7764 155.045 39.6924 154.977C39.6104 154.906 39.5693 154.793 39.5693 154.637ZM43.9873 152.542C43.9873 152.796 43.9688 153.045 43.9316 153.289C43.8965 153.533 43.834 153.762 43.7441 153.975C43.6562 154.188 43.5342 154.376 43.3779 154.54C43.2236 154.702 43.0283 154.829 42.792 154.921C42.5557 155.013 42.2705 155.059 41.9365 155.059C41.8525 155.059 41.7549 155.054 41.6436 155.044C41.5342 155.036 41.4443 155.024 41.374 155.009V154.435C41.4482 154.456 41.5312 154.474 41.623 154.487C41.7168 154.499 41.8096 154.505 41.9014 154.505C42.2627 154.505 42.5439 154.438 42.7451 154.303C42.9482 154.168 43.0918 153.982 43.1758 153.746C43.2617 153.51 43.3105 153.241 43.3223 152.94H43.2871C43.2305 153.034 43.1592 153.12 43.0732 153.198C42.9873 153.274 42.8809 153.336 42.7539 153.383C42.627 153.428 42.4727 153.45 42.291 153.45C42.0449 153.45 41.8301 153.398 41.6465 153.295C41.4648 153.191 41.3232 153.041 41.2217 152.844C41.1221 152.645 41.0723 152.405 41.0723 152.126C41.0723 151.823 41.1299 151.562 41.2451 151.344C41.3604 151.125 41.5234 150.957 41.7344 150.84C41.9453 150.721 42.1934 150.661 42.4785 150.661C42.6934 150.661 42.8916 150.7 43.0732 150.778C43.2568 150.854 43.417 150.972 43.5537 151.13C43.6904 151.286 43.7969 151.482 43.873 151.719C43.9492 151.953 43.9873 152.228 43.9873 152.542ZM42.4873 151.229C42.2705 151.229 42.0938 151.303 41.957 151.449C41.8203 151.594 41.752 151.816 41.752 152.117C41.752 152.361 41.8105 152.555 41.9277 152.697C42.0449 152.84 42.2246 152.911 42.4668 152.911C42.6348 152.911 42.7793 152.877 42.9004 152.809C43.0234 152.738 43.1182 152.649 43.1846 152.542C43.2529 152.435 43.2871 152.325 43.2871 152.214C43.2871 152.099 43.2705 151.983 43.2373 151.868C43.2061 151.753 43.1572 151.647 43.0908 151.552C43.0244 151.456 42.9404 151.379 42.8389 151.32C42.7393 151.26 42.6221 151.229 42.4873 151.229ZM47.4209 152.542C47.4209 152.796 47.4023 153.045 47.3652 153.289C47.3301 153.533 47.2676 153.762 47.1777 153.975C47.0898 154.188 46.9678 154.376 46.8115 154.54C46.6572 154.702 46.4619 154.829 46.2256 154.921C45.9893 155.013 45.7041 155.059 45.3701 155.059C45.2861 155.059 45.1885 155.054 45.0771 155.044C44.9678 155.036 44.8779 155.024 44.8076 155.009V154.435C44.8818 154.456 44.9648 154.474 45.0566 154.487C45.1504 154.499 45.2432 154.505 45.335 154.505C45.6963 154.505 45.9775 154.438 46.1787 154.303C46.3818 154.168 46.5254 153.982 46.6094 153.746C46.6953 153.51 46.7441 153.241 46.7559 152.94H46.7207C46.6641 153.034 46.5928 153.12 46.5068 153.198C46.4209 153.274 46.3145 153.336 46.1875 153.383C46.0605 153.428 45.9062 153.45 45.7246 153.45C45.4785 153.45 45.2637 153.398 45.0801 153.295C44.8984 153.191 44.7568 153.041 44.6553 152.844C44.5557 152.645 44.5059 152.405 44.5059 152.126C44.5059 151.823 44.5635 151.562 44.6787 151.344C44.7939 151.125 44.957 150.957 45.168 150.84C45.3789 150.721 45.627 150.661 45.9121 150.661C46.127 150.661 46.3252 150.7 46.5068 150.778C46.6904 150.854 46.8506 150.972 46.9873 151.13C47.124 151.286 47.2305 151.482 47.3066 151.719C47.3828 151.953 47.4209 152.228 47.4209 152.542ZM45.9209 151.229C45.7041 151.229 45.5273 151.303 45.3906 151.449C45.2539 151.594 45.1855 151.816 45.1855 152.117C45.1855 152.361 45.2441 152.555 45.3613 152.697C45.4785 152.84 45.6582 152.911 45.9004 152.911C46.0684 152.911 46.2129 152.877 46.334 152.809C46.457 152.738 46.5518 152.649 46.6182 152.542C46.6865 152.435 46.7207 152.325 46.7207 152.214C46.7207 152.099 46.7041 151.983 46.6709 151.868C46.6396 151.753 46.5908 151.647 46.5244 151.552C46.458 151.456 46.374 151.379 46.2725 151.32C46.1729 151.26 46.0557 151.229 45.9209 151.229Z" fill="#1A67C9"/>
<rect x="16" y="160" width="48" height="48" fill="#1A67C9" fill-opacity="0.12"/>
<rect x="16" y="160" width="48" height="48" stroke="white" stroke-width="2"/>
<path d="M38.2905 172H37.2534V167.865C37.2534 167.727 37.2549 167.589 37.2578 167.452C37.2607 167.314 37.2637 167.179 37.2666 167.047C37.2725 166.916 37.2798 166.79 37.2886 166.669C37.2271 166.737 37.1509 166.81 37.0601 166.889C36.9722 166.968 36.8784 167.05 36.7788 167.135L36.0405 167.724L35.522 167.069L37.4292 165.575H38.2905V172ZM44.7461 168.313C44.7461 168.694 44.7183 169.067 44.6626 169.434C44.6099 169.8 44.5161 170.143 44.3813 170.462C44.2495 170.781 44.0664 171.064 43.832 171.31C43.6006 171.553 43.3076 171.744 42.9531 171.881C42.5986 172.019 42.1709 172.088 41.6699 172.088C41.5439 172.088 41.3975 172.081 41.2305 172.066C41.0664 172.054 40.9316 172.037 40.8262 172.013V171.152C40.9375 171.184 41.062 171.21 41.1997 171.231C41.3403 171.249 41.4795 171.257 41.6172 171.257C42.1592 171.257 42.5811 171.156 42.8828 170.954C43.1875 170.752 43.4028 170.474 43.5288 170.119C43.6577 169.765 43.731 169.362 43.7485 168.911H43.6958C43.6108 169.051 43.5039 169.18 43.375 169.297C43.2461 169.412 43.0864 169.504 42.896 169.574C42.7056 169.642 42.4741 169.675 42.2017 169.675C41.8325 169.675 41.5103 169.598 41.2349 169.442C40.9624 169.287 40.75 169.062 40.5977 168.766C40.4482 168.467 40.3735 168.108 40.3735 167.689C40.3735 167.235 40.46 166.844 40.6328 166.516C40.8057 166.188 41.0503 165.936 41.3667 165.76C41.6831 165.581 42.0552 165.492 42.4829 165.492C42.8052 165.492 43.1025 165.55 43.375 165.667C43.6504 165.782 43.8906 165.958 44.0957 166.195C44.3008 166.429 44.4604 166.724 44.5747 167.078C44.689 167.43 44.7461 167.841 44.7461 168.313ZM42.4961 166.344C42.1709 166.344 41.9058 166.454 41.7007 166.674C41.4956 166.891 41.3931 167.225 41.3931 167.676C41.3931 168.042 41.481 168.332 41.6567 168.546C41.8325 168.76 42.1021 168.867 42.4653 168.867C42.7173 168.867 42.9341 168.815 43.1157 168.713C43.3003 168.607 43.4424 168.474 43.542 168.313C43.6445 168.152 43.6958 167.988 43.6958 167.821C43.6958 167.648 43.6709 167.475 43.6211 167.302C43.5742 167.129 43.501 166.971 43.4014 166.828C43.3018 166.684 43.1758 166.568 43.0234 166.48C42.874 166.39 42.6982 166.344 42.4961 166.344Z" fill="#1A67C9"/>
<path d="M45.9766 192.5H42.8828L39.5166 187.086L38.3652 187.912V192.5H35.6406V179.65H38.3652V185.53C38.5469 185.278 38.7256 185.026 38.9014 184.774C39.0771 184.522 39.2559 184.271 39.4375 184.019L42.918 179.65H45.9414L41.459 185.337L45.9766 192.5Z" fill="#1A67C9"/>
<path d="M35.3154 199.695C35.3154 199.889 35.2764 200.057 35.1982 200.199C35.1201 200.342 35.0127 200.459 34.876 200.551C34.7412 200.641 34.585 200.705 34.4072 200.744V200.765C34.749 200.808 35.0068 200.915 35.1807 201.087C35.3564 201.259 35.4443 201.486 35.4443 201.77C35.4443 202.018 35.3848 202.239 35.2656 202.435C35.1465 202.628 34.9639 202.78 34.7178 202.892C34.4717 203.003 34.1553 203.059 33.7686 203.059C33.5361 203.059 33.3203 203.04 33.1211 203.003C32.9238 202.966 32.7363 202.906 32.5586 202.824V202.212C32.7402 202.302 32.9336 202.371 33.1387 202.42C33.3438 202.469 33.5381 202.493 33.7217 202.493C34.0791 202.493 34.334 202.427 34.4863 202.294C34.6387 202.159 34.7148 201.974 34.7148 201.737C34.7148 201.585 34.6748 201.46 34.5947 201.362C34.5166 201.265 34.3945 201.191 34.2285 201.143C34.0645 201.094 33.8525 201.069 33.5928 201.069H33.2148V200.516H33.5957C33.8438 200.516 34.043 200.486 34.1934 200.428C34.3438 200.367 34.4521 200.284 34.5186 200.179C34.5869 200.073 34.6211 199.95 34.6211 199.81C34.6211 199.626 34.5615 199.483 34.4424 199.382C34.3232 199.278 34.1465 199.227 33.9121 199.227C33.7676 199.227 33.6357 199.243 33.5166 199.276C33.3994 199.31 33.291 199.352 33.1914 199.402C33.0918 199.453 32.9971 199.508 32.9072 199.566L32.5762 199.089C32.7383 198.968 32.9316 198.865 33.1562 198.781C33.3809 198.697 33.6426 198.655 33.9414 198.655C34.3809 198.655 34.7197 198.75 34.958 198.939C35.1963 199.127 35.3154 199.379 35.3154 199.695ZM38.9072 200.542C38.9072 200.796 38.8887 201.045 38.8516 201.289C38.8164 201.533 38.7539 201.762 38.6641 201.975C38.5762 202.188 38.4541 202.376 38.2979 202.54C38.1436 202.702 37.9482 202.829 37.7119 202.921C37.4756 203.013 37.1904 203.059 36.8564 203.059C36.7725 203.059 36.6748 203.054 36.5635 203.044C36.4541 203.036 36.3643 203.024 36.2939 203.009V202.435C36.3682 202.456 36.4512 202.474 36.543 202.487C36.6367 202.499 36.7295 202.505 36.8213 202.505C37.1826 202.505 37.4639 202.438 37.665 202.303C37.8682 202.168 38.0117 201.982 38.0957 201.746C38.1816 201.51 38.2305 201.241 38.2422 200.94H38.207C38.1504 201.034 38.0791 201.12 37.9932 201.198C37.9072 201.274 37.8008 201.336 37.6738 201.383C37.5469 201.428 37.3926 201.45 37.2109 201.45C36.9648 201.45 36.75 201.398 36.5664 201.295C36.3848 201.191 36.2432 201.041 36.1416 200.844C36.042 200.645 35.9922 200.405 35.9922 200.126C35.9922 199.823 36.0498 199.562 36.165 199.344C36.2803 199.125 36.4434 198.957 36.6543 198.84C36.8652 198.721 37.1133 198.661 37.3984 198.661C37.6133 198.661 37.8115 198.7 37.9932 198.778C38.1768 198.854 38.3369 198.972 38.4736 199.13C38.6104 199.286 38.7168 199.482 38.793 199.719C38.8691 199.953 38.9072 200.228 38.9072 200.542ZM37.4072 199.229C37.1904 199.229 37.0137 199.303 36.877 199.449C36.7402 199.594 36.6719 199.816 36.6719 200.117C36.6719 200.361 36.7305 200.555 36.8477 200.697C36.9648 200.84 37.1445 200.911 37.3867 200.911C37.5547 200.911 37.6992 200.877 37.8203 200.809C37.9434 200.738 38.0381 200.649 38.1045 200.542C38.1729 200.435 38.207 200.325 38.207 200.214C38.207 200.099 38.1904 199.983 38.1572 199.868C38.126 199.753 38.0771 199.647 38.0107 199.552C37.9443 199.456 37.8604 199.379 37.7588 199.32C37.6592 199.26 37.542 199.229 37.4072 199.229ZM39.5693 202.637C39.5693 202.477 39.6104 202.364 39.6924 202.3C39.7764 202.233 39.8779 202.2 39.9971 202.2C40.1162 202.2 40.2178 202.233 40.3018 202.3C40.3877 202.364 40.4307 202.477 40.4307 202.637C40.4307 202.793 40.3877 202.906 40.3018 202.977C40.2178 203.045 40.1162 203.079 39.9971 203.079C39.8779 203.079 39.7764 203.045 39.6924 202.977C39.6104 202.906 39.5693 202.793 39.5693 202.637ZM43.1172 203H42.4258V200.243C42.4258 200.151 42.4268 200.06 42.4287 199.968C42.4307 199.876 42.4326 199.786 42.4346 199.698C42.4385 199.61 42.4434 199.526 42.4492 199.446C42.4082 199.491 42.3574 199.54 42.2969 199.593C42.2383 199.646 42.1758 199.7 42.1094 199.757L41.6172 200.149L41.2715 199.713L42.543 198.717H43.1172V203ZM47.4268 200.855C47.4268 201.201 47.3994 201.511 47.3447 201.784C47.292 202.056 47.208 202.286 47.0928 202.476C46.9775 202.665 46.8271 202.81 46.6416 202.909C46.4561 203.009 46.2314 203.059 45.9678 203.059C45.6377 203.059 45.3652 202.972 45.1504 202.798C44.9355 202.622 44.7764 202.37 44.6729 202.042C44.5693 201.712 44.5176 201.316 44.5176 200.855C44.5176 200.395 44.5645 200 44.6582 199.672C44.7539 199.342 44.9082 199.089 45.1211 198.913C45.334 198.737 45.6162 198.649 45.9678 198.649C46.2998 198.649 46.5732 198.737 46.7881 198.913C47.0049 199.087 47.165 199.339 47.2686 199.669C47.374 199.997 47.4268 200.393 47.4268 200.855ZM45.2119 200.855C45.2119 201.217 45.2354 201.519 45.2822 201.761C45.3311 202.003 45.4111 202.185 45.5225 202.306C45.6338 202.425 45.7822 202.484 45.9678 202.484C46.1533 202.484 46.3018 202.425 46.4131 202.306C46.5244 202.187 46.6045 202.006 46.6533 201.764C46.7041 201.521 46.7295 201.219 46.7295 200.855C46.7295 200.496 46.7051 200.195 46.6562 199.953C46.6074 199.711 46.5273 199.529 46.416 199.408C46.3047 199.285 46.1553 199.224 45.9678 199.224C45.7803 199.224 45.6309 199.285 45.5195 199.408C45.4102 199.529 45.3311 199.711 45.2822 199.953C45.2354 200.195 45.2119 200.496 45.2119 200.855Z" fill="#1A67C9"/>
</svg>
