<svg width="256" height="305" viewBox="0 0 256 305" fill="none" xmlns="http://www.w3.org/2000/svg">
<g clip-path="url(#clip0_203_921)">
<rect width="256" height="304" transform="translate(0 0.125854)" fill="white"/>
<circle cx="128" cy="128.126" r="96" stroke="#161326" stroke-width="4"/>
<path d="M66 128.126C66 93.8842 93.7583 66.1259 128 66.1259C162.242 66.1259 190 93.8842 190 128.126C190 162.368 162.242 190.126 128 190.126C93.7583 190.126 66 162.368 66 128.126Z" fill="#17804B" fill-opacity="0.12"/>
<path d="M66 128.126C66 93.8842 93.7583 66.1259 128 66.1259C162.242 66.1259 190 93.8842 190 128.126C190 162.368 162.242 190.126 128 190.126C93.7583 190.126 66 162.368 66 128.126Z" stroke="#17804B" stroke-width="4"/>
<path d="M142.016 147.126H134.773V132.337H121.203V147.126H113.938V112.86H121.203V126.29H134.773V112.86H142.016V147.126Z" fill="#17804B"/>
<circle cx="128" cy="32.1259" r="10" fill="#7BCDE9" stroke="#161326" stroke-width="4"/>
<circle cx="192" cy="280.126" r="10" fill="#7BCDE9" stroke="#161326" stroke-width="4"/>
<path d="M222.84 285.423C222.84 286.274 222.633 286.993 222.219 287.579C221.805 288.165 221.199 288.61 220.402 288.915C219.613 289.212 218.645 289.36 217.496 289.36C216.59 289.36 215.809 289.294 215.152 289.161C214.504 289.036 213.891 288.841 213.312 288.575V286.196C213.93 286.485 214.621 286.735 215.387 286.946C216.16 287.157 216.891 287.263 217.578 287.263C218.484 287.263 219.137 287.122 219.535 286.841C219.934 286.552 220.133 286.169 220.133 285.692C220.133 285.411 220.051 285.161 219.887 284.942C219.73 284.716 219.434 284.485 218.996 284.251C218.566 284.009 217.934 283.72 217.098 283.384C216.277 283.056 215.586 282.727 215.023 282.399C214.461 282.071 214.035 281.677 213.746 281.216C213.457 280.747 213.312 280.149 213.312 279.423C213.312 278.274 213.766 277.403 214.672 276.809C215.586 276.208 216.793 275.907 218.293 275.907C219.09 275.907 219.84 275.989 220.543 276.153C221.254 276.309 221.949 276.54 222.629 276.845L221.762 278.919C221.176 278.661 220.586 278.45 219.992 278.286C219.406 278.114 218.809 278.028 218.199 278.028C217.488 278.028 216.945 278.138 216.57 278.356C216.203 278.575 216.02 278.888 216.02 279.294C216.02 279.599 216.109 279.856 216.289 280.067C216.469 280.278 216.777 280.489 217.215 280.7C217.66 280.911 218.277 281.173 219.066 281.485C219.84 281.782 220.508 282.095 221.07 282.423C221.641 282.743 222.078 283.138 222.383 283.606C222.688 284.075 222.84 284.681 222.84 285.423Z" fill="#161326"/>
<g clip-path="url(#clip1_203_921)">
<path d="M179.96 195.96C179.96 187.124 187.124 179.96 195.96 179.96C204.797 179.96 211.96 187.124 211.96 195.96C211.96 204.797 204.797 211.96 195.96 211.96C187.124 211.96 179.96 204.797 179.96 195.96Z" fill="white"/>
<path d="M198.269 204.96H195.503V193.933C195.503 193.566 195.507 193.199 195.515 192.832C195.523 192.464 195.531 192.105 195.539 191.753C195.554 191.402 195.574 191.066 195.597 190.746C195.433 190.925 195.23 191.121 194.988 191.332C194.753 191.542 194.503 191.761 194.238 191.988L192.269 193.558L190.886 191.812L195.972 187.828H198.269V204.96Z" fill="#161326"/>
</g>
</g>
<defs>
<clipPath id="clip0_203_921">
<rect width="256" height="304" fill="white" transform="translate(0 0.125854)"/>
</clipPath>
<clipPath id="clip1_203_921">
<rect width="384" height="32" fill="white" transform="translate(3.62744 -19) rotate(45)"/>
</clipPath>
</defs>
</svg>
