<svg width="232" height="120" viewBox="0 0 232 120" fill="none" xmlns="http://www.w3.org/2000/svg">
<rect width="232" height="120" fill="white"/>
<rect width="88" height="88" transform="translate(16 16)" fill="#131B6C" fill-opacity="0.12"/>
<path d="M56.9609 38H55.1172V30.6484C55.1172 30.4036 55.1198 30.1589 55.125 29.9141C55.1302 29.6693 55.1354 29.4297 55.1406 29.1953C55.151 28.9609 55.1641 28.737 55.1797 28.5234C55.0703 28.6432 54.9349 28.7734 54.7734 28.9141C54.6172 29.0547 54.4505 29.2005 54.2734 29.3516L52.9609 30.3984L52.0391 29.2344L55.4297 26.5781H56.9609V38ZM62.0234 38L66.5078 28.1875H60.5781V26.5781H68.4844V27.8359L64 38H62.0234Z" fill="#131B6C"/>
<path d="M57.4844 52.8594C56.5573 52.8594 55.7344 53.0417 55.0156 53.4062C54.3073 53.7604 53.7083 54.276 53.2188 54.9531C52.7396 55.6302 52.375 56.4479 52.125 57.4062C51.875 58.3646 51.75 59.4427 51.75 60.6406C51.75 62.2552 51.9479 63.6354 52.3438 64.7812C52.75 65.9167 53.375 66.7865 54.2188 67.3906C55.0625 67.9844 56.151 68.2812 57.4844 68.2812C58.4115 68.2812 59.3385 68.1771 60.2656 67.9688C61.2031 67.7604 62.2188 67.4635 63.3125 67.0781V71.1406C62.3021 71.5573 61.3073 71.8542 60.3281 72.0312C59.349 72.2188 58.25 72.3125 57.0312 72.3125C54.6771 72.3125 52.7396 71.8281 51.2188 70.8594C49.7083 69.8802 48.5885 68.5156 47.8594 66.7656C47.1302 65.0052 46.7656 62.9531 46.7656 60.6094C46.7656 58.8802 47 57.2969 47.4688 55.8594C47.9375 54.4219 48.625 53.1771 49.5312 52.125C50.4375 51.0729 51.5573 50.2604 52.8906 49.6875C54.224 49.1146 55.7552 48.8281 57.4844 48.8281C58.6198 48.8281 59.7552 48.974 60.8906 49.2656C62.0365 49.5469 63.1302 49.9375 64.1719 50.4375L62.6094 54.375C61.7552 53.9688 60.8958 53.6146 60.0312 53.3125C59.1667 53.0104 58.3177 52.8594 57.4844 52.8594ZM72.5781 72H67.8125V47.6875H72.5781V72Z" fill="#131B6C"/>
<path d="M52.9731 86.043C52.9731 86.333 52.9146 86.585 52.7974 86.7988C52.6802 87.0127 52.519 87.1885 52.314 87.3262C52.1118 87.4609 51.8774 87.5576 51.6108 87.6162V87.647C52.1235 87.7114 52.5103 87.8726 52.771 88.1304C53.0347 88.3882 53.1665 88.7295 53.1665 89.1543C53.1665 89.5264 53.0771 89.8589 52.8984 90.1519C52.7197 90.4419 52.4458 90.6704 52.0767 90.8374C51.7075 91.0044 51.2329 91.0879 50.6528 91.0879C50.3042 91.0879 49.9805 91.0601 49.6816 91.0044C49.3857 90.9487 49.1045 90.8594 48.8379 90.7363V89.8179C49.1104 89.9526 49.4004 90.0566 49.708 90.1299C50.0156 90.2031 50.3071 90.2397 50.5825 90.2397C51.1187 90.2397 51.501 90.1401 51.7295 89.9409C51.958 89.7388 52.0723 89.4604 52.0723 89.106C52.0723 88.8774 52.0122 88.6899 51.8921 88.5435C51.7749 88.397 51.5918 88.2871 51.3428 88.2139C51.0967 88.1406 50.7788 88.104 50.3892 88.104H49.8223V87.2734H50.3936C50.7656 87.2734 51.0645 87.2295 51.29 87.1416C51.5156 87.0508 51.6782 86.9263 51.7778 86.7681C51.8804 86.6099 51.9316 86.4253 51.9316 86.2144C51.9316 85.939 51.8423 85.7251 51.6636 85.5728C51.4849 85.4175 51.2197 85.3398 50.8682 85.3398C50.6514 85.3398 50.4536 85.3647 50.2749 85.4146C50.0991 85.4644 49.9365 85.5273 49.7871 85.6035C49.6377 85.6797 49.4956 85.7617 49.3608 85.8496L48.8643 85.1333C49.1074 84.9517 49.3975 84.7979 49.7344 84.6719C50.0713 84.5459 50.4639 84.4829 50.9121 84.4829C51.5713 84.4829 52.0796 84.625 52.437 84.9092C52.7944 85.1904 52.9731 85.5684 52.9731 86.043ZM56.2031 86.9834C56.6162 86.9834 56.9795 87.0581 57.293 87.2075C57.6094 87.354 57.8555 87.5708 58.0312 87.8579C58.207 88.1421 58.2949 88.4907 58.2949 88.9038C58.2949 89.355 58.1997 89.7446 58.0093 90.0728C57.8188 90.3979 57.5391 90.6484 57.1699 90.8242C56.8008 91 56.3511 91.0879 55.8208 91.0879C55.4839 91.0879 55.1689 91.0586 54.876 91C54.5859 90.9414 54.3354 90.8535 54.1245 90.7363V89.8047C54.3442 89.9277 54.6079 90.0288 54.9155 90.1079C55.2231 90.1841 55.5176 90.2222 55.7988 90.2222C56.0977 90.2222 56.354 90.1782 56.5679 90.0903C56.7817 90.0024 56.9458 89.8677 57.0601 89.686C57.1772 89.5044 57.2358 89.2744 57.2358 88.9961C57.2358 88.627 57.1172 88.3428 56.8799 88.1436C56.6455 87.9414 56.2778 87.8403 55.7769 87.8403C55.6011 87.8403 55.4136 87.8564 55.2144 87.8887C55.0181 87.918 54.854 87.9502 54.7222 87.9854L54.2695 87.7173L54.5112 84.5752H57.8511V85.4849H55.4209L55.2803 87.0845C55.3857 87.061 55.5117 87.0391 55.6582 87.0186C55.8047 86.9951 55.9863 86.9834 56.2031 86.9834ZM59.354 90.4551C59.354 90.2148 59.4155 90.0464 59.5386 89.9497C59.6646 89.8501 59.8169 89.8003 59.9956 89.8003C60.1743 89.8003 60.3267 89.8501 60.4526 89.9497C60.5815 90.0464 60.646 90.2148 60.646 90.4551C60.646 90.6895 60.5815 90.8594 60.4526 90.9648C60.3267 91.0674 60.1743 91.1187 59.9956 91.1187C59.8169 91.1187 59.6646 91.0674 59.5386 90.9648C59.4155 90.8594 59.354 90.6895 59.354 90.4551ZM66.2227 89.5894H65.3525V91H64.333V89.5894H61.4106V88.8071L64.3462 84.5576H65.3525V88.7324H66.2227V89.5894ZM64.333 88.7324V87.1372C64.333 87.0054 64.3345 86.8721 64.3374 86.7373C64.3433 86.5996 64.3491 86.4678 64.355 86.3418C64.3608 86.2158 64.3667 86.1001 64.3726 85.9946C64.3784 85.8862 64.3828 85.7969 64.3857 85.7266H64.3506C64.2949 85.8438 64.2334 85.9639 64.166 86.0869C64.0986 86.207 64.0269 86.3242 63.9507 86.4385L62.3687 88.7324H64.333ZM68.9736 86.9834C69.3867 86.9834 69.75 87.0581 70.0635 87.2075C70.3799 87.354 70.626 87.5708 70.8018 87.8579C70.9775 88.1421 71.0654 88.4907 71.0654 88.9038C71.0654 89.355 70.9702 89.7446 70.7798 90.0728C70.5894 90.3979 70.3096 90.6484 69.9404 90.8242C69.5713 91 69.1216 91.0879 68.5913 91.0879C68.2544 91.0879 67.9395 91.0586 67.6465 91C67.3564 90.9414 67.106 90.8535 66.895 90.7363V89.8047C67.1147 89.9277 67.3784 90.0288 67.686 90.1079C67.9937 90.1841 68.2881 90.2222 68.5693 90.2222C68.8682 90.2222 69.1245 90.1782 69.3384 90.0903C69.5522 90.0024 69.7163 89.8677 69.8306 89.686C69.9478 89.5044 70.0063 89.2744 70.0063 88.9961C70.0063 88.627 69.8877 88.3428 69.6504 88.1436C69.416 87.9414 69.0483 87.8403 68.5474 87.8403C68.3716 87.8403 68.1841 87.8564 67.9849 87.8887C67.7886 87.918 67.6245 87.9502 67.4927 87.9854L67.04 87.7173L67.2817 84.5752H70.6216V85.4849H68.1914L68.0508 87.0845C68.1562 87.061 68.2822 87.0391 68.4287 87.0186C68.5752 86.9951 68.7568 86.9834 68.9736 86.9834Z" fill="#131B6C"/>
<path d="M126.434 35L125.596 32.6211H122.32L121.482 35H120L123.188 26.3984H124.746L127.928 35H126.434ZM125.232 31.4141L124.418 29.0703C124.387 28.9688 124.342 28.8262 124.283 28.6426C124.225 28.4551 124.166 28.2656 124.107 28.0742C124.049 27.8789 124 27.7148 123.961 27.582C123.922 27.7422 123.873 27.9219 123.814 28.1211C123.76 28.3164 123.705 28.5 123.65 28.6719C123.6 28.8438 123.561 28.9766 123.533 29.0703L122.713 31.4141H125.232ZM131.332 34.0039C131.512 34.0039 131.689 33.9883 131.865 33.957C132.041 33.9219 132.201 33.8809 132.346 33.834V34.877C132.193 34.9434 131.996 35 131.754 35.0469C131.512 35.0938 131.26 35.1172 130.998 35.1172C130.631 35.1172 130.301 35.0566 130.008 34.9355C129.715 34.8105 129.482 34.5977 129.311 34.2969C129.139 33.9961 129.053 33.5801 129.053 33.0488V29.5625H128.168V28.9473L129.117 28.4609L129.568 27.0723H130.436V28.5137H132.293V29.5625H130.436V33.0312C130.436 33.3594 130.518 33.6035 130.682 33.7637C130.846 33.9238 131.062 34.0039 131.332 34.0039ZM139.406 31.7422C139.406 32.2812 139.336 32.7598 139.195 33.1777C139.055 33.5957 138.85 33.9492 138.58 34.2383C138.311 34.5234 137.986 34.7422 137.607 34.8945C137.229 35.043 136.801 35.1172 136.324 35.1172C135.879 35.1172 135.471 35.043 135.1 34.8945C134.729 34.7422 134.406 34.5234 134.133 34.2383C133.863 33.9492 133.654 33.5957 133.506 33.1777C133.357 32.7598 133.283 32.2812 133.283 31.7422C133.283 31.0273 133.406 30.4219 133.652 29.9258C133.902 29.4258 134.258 29.0449 134.719 28.7832C135.18 28.5215 135.729 28.3906 136.365 28.3906C136.963 28.3906 137.49 28.5215 137.947 28.7832C138.404 29.0449 138.762 29.4258 139.02 29.9258C139.277 30.4258 139.406 31.0312 139.406 31.7422ZM134.701 31.7422C134.701 32.2148 134.758 32.6191 134.871 32.9551C134.988 33.291 135.168 33.5488 135.41 33.7285C135.652 33.9043 135.965 33.9922 136.348 33.9922C136.73 33.9922 137.043 33.9043 137.285 33.7285C137.527 33.5488 137.705 33.291 137.818 32.9551C137.932 32.6191 137.988 32.2148 137.988 31.7422C137.988 31.2695 137.932 30.8691 137.818 30.541C137.705 30.209 137.527 29.957 137.285 29.7852C137.043 29.6094 136.729 29.5215 136.342 29.5215C135.771 29.5215 135.355 29.7129 135.094 30.0957C134.832 30.4785 134.701 31.0273 134.701 31.7422ZM148.318 28.3906C149.045 28.3906 149.592 28.5781 149.959 28.9531C150.33 29.3281 150.516 29.9297 150.516 30.7578V35H149.139V31.0039C149.139 30.5117 149.043 30.1406 148.852 29.8906C148.66 29.6406 148.369 29.5156 147.979 29.5156C147.432 29.5156 147.037 29.6914 146.795 30.043C146.557 30.3906 146.438 30.8965 146.438 31.5605V35H145.061V31.0039C145.061 30.6758 145.018 30.4023 144.932 30.1836C144.85 29.9609 144.723 29.7949 144.551 29.6855C144.379 29.5723 144.162 29.5156 143.9 29.5156C143.521 29.5156 143.219 29.6016 142.992 29.7734C142.77 29.9453 142.609 30.1992 142.512 30.5352C142.414 30.8672 142.365 31.2754 142.365 31.7598V35H140.988V28.5137H142.061L142.254 29.3867H142.33C142.463 29.1602 142.627 28.9746 142.822 28.8301C143.021 28.6816 143.242 28.5723 143.484 28.502C143.727 28.4277 143.979 28.3906 144.24 28.3906C144.725 28.3906 145.133 28.4766 145.465 28.6484C145.797 28.8164 146.045 29.0742 146.209 29.4219H146.314C146.518 29.0703 146.801 28.8105 147.164 28.6426C147.527 28.4746 147.912 28.3906 148.318 28.3906ZM153.814 28.5137V35H152.438V28.5137H153.814ZM153.135 26.0293C153.346 26.0293 153.527 26.0859 153.68 26.1992C153.836 26.3125 153.914 26.5078 153.914 26.7852C153.914 27.0586 153.836 27.2539 153.68 27.3711C153.527 27.4844 153.346 27.541 153.135 27.541C152.916 27.541 152.73 27.4844 152.578 27.3711C152.43 27.2539 152.355 27.0586 152.355 26.7852C152.355 26.5078 152.43 26.3125 152.578 26.1992C152.73 26.0859 152.916 26.0293 153.135 26.0293ZM158.402 35.1172C157.789 35.1172 157.258 34.998 156.809 34.7598C156.359 34.5215 156.014 34.1562 155.771 33.6641C155.529 33.1719 155.408 32.5469 155.408 31.7891C155.408 31 155.541 30.3555 155.807 29.8555C156.072 29.3555 156.439 28.9863 156.908 28.748C157.381 28.5098 157.922 28.3906 158.531 28.3906C158.918 28.3906 159.268 28.4297 159.58 28.5078C159.896 28.582 160.164 28.6738 160.383 28.7832L159.973 29.8848C159.734 29.7871 159.49 29.7051 159.24 29.6387C158.99 29.5723 158.75 29.5391 158.52 29.5391C158.141 29.5391 157.824 29.623 157.57 29.791C157.32 29.959 157.133 30.209 157.008 30.541C156.887 30.873 156.826 31.2852 156.826 31.7773C156.826 32.2539 156.889 32.6562 157.014 32.9844C157.139 33.3086 157.324 33.5547 157.57 33.7227C157.816 33.8867 158.119 33.9688 158.479 33.9688C158.834 33.9688 159.152 33.9258 159.434 33.8398C159.715 33.7539 159.98 33.6426 160.23 33.5059V34.7012C159.984 34.8418 159.721 34.9453 159.439 35.0117C159.158 35.082 158.812 35.1172 158.402 35.1172ZM172.16 35H170.432L166.236 28.1621H166.184C166.199 28.3926 166.213 28.6367 166.225 28.8945C166.24 29.1523 166.252 29.418 166.26 29.6914C166.271 29.9648 166.281 30.2422 166.289 30.5234V35H165.012V26.4336H166.729L170.918 33.2246H170.959C170.951 33.0254 170.941 32.7969 170.93 32.5391C170.918 32.2812 170.906 32.0156 170.895 31.7422C170.887 31.4648 170.881 31.1973 170.877 30.9395V26.4336H172.16V35ZM179.924 28.5137V35H178.84L178.652 34.127H178.576C178.439 34.3496 178.266 34.5352 178.055 34.6836C177.844 34.8281 177.609 34.9355 177.352 35.0059C177.094 35.0801 176.822 35.1172 176.537 35.1172C176.049 35.1172 175.631 35.0352 175.283 34.8711C174.939 34.7031 174.676 34.4453 174.492 34.0977C174.309 33.75 174.217 33.3008 174.217 32.75V28.5137H175.6V32.4922C175.6 32.9961 175.701 33.373 175.904 33.623C176.111 33.873 176.432 33.998 176.865 33.998C177.283 33.998 177.615 33.9121 177.861 33.7402C178.107 33.5684 178.281 33.3145 178.383 32.9785C178.488 32.6426 178.541 32.2305 178.541 31.7422V28.5137H179.924ZM189.229 28.3906C189.955 28.3906 190.502 28.5781 190.869 28.9531C191.24 29.3281 191.426 29.9297 191.426 30.7578V35H190.049V31.0039C190.049 30.5117 189.953 30.1406 189.762 29.8906C189.57 29.6406 189.279 29.5156 188.889 29.5156C188.342 29.5156 187.947 29.6914 187.705 30.043C187.467 30.3906 187.348 30.8965 187.348 31.5605V35H185.971V31.0039C185.971 30.6758 185.928 30.4023 185.842 30.1836C185.76 29.9609 185.633 29.7949 185.461 29.6855C185.289 29.5723 185.072 29.5156 184.811 29.5156C184.432 29.5156 184.129 29.6016 183.902 29.7734C183.68 29.9453 183.52 30.1992 183.422 30.5352C183.324 30.8672 183.275 31.2754 183.275 31.7598V35H181.898V28.5137H182.971L183.164 29.3867H183.24C183.373 29.1602 183.537 28.9746 183.732 28.8301C183.932 28.6816 184.152 28.5723 184.395 28.502C184.637 28.4277 184.889 28.3906 185.15 28.3906C185.635 28.3906 186.043 28.4766 186.375 28.6484C186.707 28.8164 186.955 29.0742 187.119 29.4219H187.225C187.428 29.0703 187.711 28.8105 188.074 28.6426C188.438 28.4746 188.822 28.3906 189.229 28.3906ZM194.725 25.8828V28.0801C194.725 28.334 194.717 28.584 194.701 28.8301C194.689 29.0723 194.678 29.2617 194.666 29.3984H194.725C194.9 29.1172 195.145 28.8809 195.457 28.6895C195.773 28.4941 196.178 28.3965 196.67 28.3965C197.439 28.3965 198.059 28.6797 198.527 29.2461C198.996 29.8086 199.23 30.6426 199.23 31.748C199.23 32.4824 199.123 33.0996 198.908 33.5996C198.693 34.0996 198.391 34.4785 198 34.7363C197.613 34.9902 197.158 35.1172 196.635 35.1172C196.143 35.1172 195.744 35.0273 195.439 34.8477C195.139 34.6641 194.902 34.4512 194.73 34.209H194.631L194.379 35H193.348V25.8828H194.725ZM196.307 29.5156C195.916 29.5156 195.605 29.5938 195.375 29.75C195.148 29.9062 194.984 30.1406 194.883 30.4531C194.781 30.7617 194.729 31.1543 194.725 31.6309V31.7539C194.725 32.4766 194.838 33.0293 195.064 33.4121C195.295 33.7949 195.713 33.9863 196.318 33.9863C196.799 33.9863 197.168 33.793 197.426 33.4062C197.684 33.0156 197.812 32.457 197.812 31.7305C197.812 30.9961 197.684 30.4434 197.426 30.0723C197.172 29.7012 196.799 29.5156 196.307 29.5156ZM203.408 28.3906C203.986 28.3906 204.482 28.5098 204.896 28.748C205.311 28.9863 205.629 29.3242 205.852 29.7617C206.074 30.1992 206.186 30.7227 206.186 31.332V32.0703H201.855C201.871 32.6992 202.039 33.1836 202.359 33.5234C202.684 33.8633 203.137 34.0332 203.719 34.0332C204.133 34.0332 204.504 33.9941 204.832 33.916C205.164 33.834 205.506 33.7148 205.857 33.5586V34.6777C205.533 34.8301 205.203 34.9414 204.867 35.0117C204.531 35.082 204.129 35.1172 203.66 35.1172C203.023 35.1172 202.463 34.9941 201.979 34.748C201.498 34.498 201.121 34.127 200.848 33.6348C200.578 33.1426 200.443 32.5312 200.443 31.8008C200.443 31.0742 200.566 30.457 200.812 29.9492C201.059 29.4414 201.404 29.0547 201.85 28.7891C202.295 28.5234 202.814 28.3906 203.408 28.3906ZM203.408 29.4277C202.975 29.4277 202.623 29.5684 202.354 29.8496C202.088 30.1309 201.932 30.543 201.885 31.0859H204.838C204.834 30.7617 204.779 30.4746 204.674 30.2246C204.572 29.9746 204.416 29.7793 204.205 29.6387C203.998 29.498 203.732 29.4277 203.408 29.4277ZM211.025 28.3906C211.135 28.3906 211.254 28.3965 211.383 28.4082C211.512 28.4199 211.623 28.4355 211.717 28.4551L211.588 29.7441C211.506 29.7207 211.404 29.7031 211.283 29.6914C211.166 29.6797 211.061 29.6738 210.967 29.6738C210.721 29.6738 210.486 29.7148 210.264 29.7969C210.041 29.875 209.844 29.9961 209.672 30.1602C209.5 30.3203 209.365 30.5215 209.268 30.7637C209.17 31.0059 209.121 31.2871 209.121 31.6074V35H207.738V28.5137H208.816L209.004 29.6562H209.068C209.197 29.4258 209.357 29.2148 209.549 29.0234C209.74 28.832 209.959 28.6797 210.205 28.5664C210.455 28.4492 210.729 28.3906 211.025 28.3906Z" fill="#161326"/>
<path d="M88 32L93 34.8868L93 29.1132L88 32ZM92.5 32.5L112 32.5L112 31.5L92.5 31.5L92.5 32.5Z" fill="#161326"/>
<path d="M126.07 60.668C126.07 61.1758 125.945 61.6133 125.695 61.9805C125.449 62.3477 125.094 62.6289 124.629 62.8242C124.168 63.0195 123.617 63.1172 122.977 63.1172C122.664 63.1172 122.365 63.0996 122.08 63.0645C121.795 63.0293 121.525 62.9785 121.271 62.9121C121.021 62.8418 120.793 62.7578 120.586 62.6602V61.3359C120.934 61.4883 121.322 61.627 121.752 61.752C122.182 61.873 122.619 61.9336 123.064 61.9336C123.428 61.9336 123.729 61.8867 123.967 61.793C124.209 61.6953 124.389 61.5586 124.506 61.3828C124.623 61.2031 124.682 60.9941 124.682 60.7559C124.682 60.502 124.613 60.2871 124.477 60.1113C124.34 59.9355 124.133 59.7754 123.855 59.6309C123.582 59.4824 123.238 59.3242 122.824 59.1562C122.543 59.043 122.273 58.9141 122.016 58.7695C121.762 58.625 121.535 58.4551 121.336 58.2598C121.137 58.0645 120.979 57.834 120.861 57.5684C120.748 57.2988 120.691 56.9824 120.691 56.6191C120.691 56.1348 120.807 55.7207 121.037 55.377C121.271 55.0332 121.6 54.7695 122.021 54.5859C122.447 54.4023 122.943 54.3105 123.51 54.3105C123.959 54.3105 124.381 54.3574 124.775 54.4512C125.174 54.5449 125.564 54.6777 125.947 54.8496L125.502 55.9805C125.15 55.8359 124.809 55.7207 124.477 55.6348C124.148 55.5488 123.812 55.5059 123.469 55.5059C123.172 55.5059 122.92 55.5508 122.713 55.6406C122.506 55.7305 122.348 55.8574 122.238 56.0215C122.133 56.1816 122.08 56.373 122.08 56.5957C122.08 56.8457 122.141 57.0566 122.262 57.2285C122.387 57.3965 122.578 57.5508 122.836 57.6914C123.098 57.832 123.434 57.9883 123.844 58.1602C124.316 58.3555 124.717 58.5605 125.045 58.7754C125.377 58.9902 125.631 59.248 125.807 59.5488C125.982 59.8457 126.07 60.2188 126.07 60.668ZM126.604 56.5137H128.104L129.434 60.2168C129.492 60.3848 129.545 60.5508 129.592 60.7148C129.643 60.875 129.686 61.0332 129.721 61.1895C129.76 61.3457 129.791 61.502 129.814 61.6582H129.85C129.889 61.4551 129.943 61.2285 130.014 60.9785C130.088 60.7246 130.17 60.4707 130.26 60.2168L131.537 56.5137H133.02L130.236 63.8906C130.076 64.3125 129.879 64.6719 129.645 64.9688C129.414 65.2695 129.141 65.4961 128.824 65.6484C128.508 65.8047 128.146 65.8828 127.74 65.8828C127.545 65.8828 127.375 65.8711 127.23 65.8477C127.086 65.8281 126.963 65.8066 126.861 65.7832V64.6816C126.943 64.7012 127.047 64.7188 127.172 64.7344C127.297 64.75 127.426 64.7578 127.559 64.7578C127.805 64.7578 128.018 64.709 128.197 64.6113C128.377 64.5137 128.529 64.375 128.654 64.1953C128.779 64.0195 128.883 63.8184 128.965 63.5918L129.193 62.9824L126.604 56.5137ZM141.334 56.3906C142.061 56.3906 142.607 56.5781 142.975 56.9531C143.346 57.3281 143.531 57.9297 143.531 58.7578V63H142.154V59.0039C142.154 58.5117 142.059 58.1406 141.867 57.8906C141.676 57.6406 141.385 57.5156 140.994 57.5156C140.447 57.5156 140.053 57.6914 139.811 58.043C139.572 58.3906 139.453 58.8965 139.453 59.5605V63H138.076V59.0039C138.076 58.6758 138.033 58.4023 137.947 58.1836C137.865 57.9609 137.738 57.7949 137.566 57.6855C137.395 57.5723 137.178 57.5156 136.916 57.5156C136.537 57.5156 136.234 57.6016 136.008 57.7734C135.785 57.9453 135.625 58.1992 135.527 58.5352C135.43 58.8672 135.381 59.2754 135.381 59.7598V63H134.004V56.5137H135.076L135.27 57.3867H135.346C135.479 57.1602 135.643 56.9746 135.838 56.8301C136.037 56.6816 136.258 56.5723 136.5 56.502C136.742 56.4277 136.994 56.3906 137.256 56.3906C137.74 56.3906 138.148 56.4766 138.48 56.6484C138.812 56.8164 139.061 57.0742 139.225 57.4219H139.33C139.533 57.0703 139.816 56.8105 140.18 56.6426C140.543 56.4746 140.928 56.3906 141.334 56.3906ZM146.83 53.8828V56.0801C146.83 56.334 146.822 56.584 146.807 56.8301C146.795 57.0723 146.783 57.2617 146.771 57.3984H146.83C147.006 57.1172 147.25 56.8809 147.562 56.6895C147.879 56.4941 148.283 56.3965 148.775 56.3965C149.545 56.3965 150.164 56.6797 150.633 57.2461C151.102 57.8086 151.336 58.6426 151.336 59.748C151.336 60.4824 151.229 61.0996 151.014 61.5996C150.799 62.0996 150.496 62.4785 150.105 62.7363C149.719 62.9902 149.264 63.1172 148.74 63.1172C148.248 63.1172 147.85 63.0273 147.545 62.8477C147.244 62.6641 147.008 62.4512 146.836 62.209H146.736L146.484 63H145.453V53.8828H146.83ZM148.412 57.5156C148.021 57.5156 147.711 57.5938 147.48 57.75C147.254 57.9062 147.09 58.1406 146.988 58.4531C146.887 58.7617 146.834 59.1543 146.83 59.6309V59.7539C146.83 60.4766 146.943 61.0293 147.17 61.4121C147.4 61.7949 147.818 61.9863 148.424 61.9863C148.904 61.9863 149.273 61.793 149.531 61.4062C149.789 61.0156 149.918 60.457 149.918 59.7305C149.918 58.9961 149.789 58.4434 149.531 58.0723C149.277 57.7012 148.904 57.5156 148.412 57.5156ZM158.672 59.7422C158.672 60.2812 158.602 60.7598 158.461 61.1777C158.32 61.5957 158.115 61.9492 157.846 62.2383C157.576 62.5234 157.252 62.7422 156.873 62.8945C156.494 63.043 156.066 63.1172 155.59 63.1172C155.145 63.1172 154.736 63.043 154.365 62.8945C153.994 62.7422 153.672 62.5234 153.398 62.2383C153.129 61.9492 152.92 61.5957 152.771 61.1777C152.623 60.7598 152.549 60.2812 152.549 59.7422C152.549 59.0273 152.672 58.4219 152.918 57.9258C153.168 57.4258 153.523 57.0449 153.984 56.7832C154.445 56.5215 154.994 56.3906 155.631 56.3906C156.229 56.3906 156.756 56.5215 157.213 56.7832C157.67 57.0449 158.027 57.4258 158.285 57.9258C158.543 58.4258 158.672 59.0312 158.672 59.7422ZM153.967 59.7422C153.967 60.2148 154.023 60.6191 154.137 60.9551C154.254 61.291 154.434 61.5488 154.676 61.7285C154.918 61.9043 155.23 61.9922 155.613 61.9922C155.996 61.9922 156.309 61.9043 156.551 61.7285C156.793 61.5488 156.971 61.291 157.084 60.9551C157.197 60.6191 157.254 60.2148 157.254 59.7422C157.254 59.2695 157.197 58.8691 157.084 58.541C156.971 58.209 156.793 57.957 156.551 57.7852C156.309 57.6094 155.994 57.5215 155.607 57.5215C155.037 57.5215 154.621 57.7129 154.359 58.0957C154.098 58.4785 153.967 59.0273 153.967 59.7422ZM161.637 63H160.254V53.8828H161.637V63Z" fill="#161326"/>
<path d="M88 60L93 62.8868L93 57.1132L88 60ZM92.5 60.5L112 60.5L112 59.5L92.5 59.5L92.5 60.5Z" fill="#161326"/>
<path d="M126.434 91L125.596 88.6211H122.32L121.482 91H120L123.188 82.3984H124.746L127.928 91H126.434ZM125.232 87.4141L124.418 85.0703C124.387 84.9688 124.342 84.8262 124.283 84.6426C124.225 84.4551 124.166 84.2656 124.107 84.0742C124.049 83.8789 124 83.7148 123.961 83.582C123.922 83.7422 123.873 83.9219 123.814 84.1211C123.76 84.3164 123.705 84.5 123.65 84.6719C123.6 84.8438 123.561 84.9766 123.533 85.0703L122.713 87.4141H125.232ZM131.332 90.0039C131.512 90.0039 131.689 89.9883 131.865 89.957C132.041 89.9219 132.201 89.8809 132.346 89.834V90.877C132.193 90.9434 131.996 91 131.754 91.0469C131.512 91.0938 131.26 91.1172 130.998 91.1172C130.631 91.1172 130.301 91.0566 130.008 90.9355C129.715 90.8105 129.482 90.5977 129.311 90.2969C129.139 89.9961 129.053 89.5801 129.053 89.0488V85.5625H128.168V84.9473L129.117 84.4609L129.568 83.0723H130.436V84.5137H132.293V85.5625H130.436V89.0312C130.436 89.3594 130.518 89.6035 130.682 89.7637C130.846 89.9238 131.062 90.0039 131.332 90.0039ZM139.406 87.7422C139.406 88.2812 139.336 88.7598 139.195 89.1777C139.055 89.5957 138.85 89.9492 138.58 90.2383C138.311 90.5234 137.986 90.7422 137.607 90.8945C137.229 91.043 136.801 91.1172 136.324 91.1172C135.879 91.1172 135.471 91.043 135.1 90.8945C134.729 90.7422 134.406 90.5234 134.133 90.2383C133.863 89.9492 133.654 89.5957 133.506 89.1777C133.357 88.7598 133.283 88.2812 133.283 87.7422C133.283 87.0273 133.406 86.4219 133.652 85.9258C133.902 85.4258 134.258 85.0449 134.719 84.7832C135.18 84.5215 135.729 84.3906 136.365 84.3906C136.963 84.3906 137.49 84.5215 137.947 84.7832C138.404 85.0449 138.762 85.4258 139.02 85.9258C139.277 86.4258 139.406 87.0312 139.406 87.7422ZM134.701 87.7422C134.701 88.2148 134.758 88.6191 134.871 88.9551C134.988 89.291 135.168 89.5488 135.41 89.7285C135.652 89.9043 135.965 89.9922 136.348 89.9922C136.73 89.9922 137.043 89.9043 137.285 89.7285C137.527 89.5488 137.705 89.291 137.818 88.9551C137.932 88.6191 137.988 88.2148 137.988 87.7422C137.988 87.2695 137.932 86.8691 137.818 86.541C137.705 86.209 137.527 85.957 137.285 85.7852C137.043 85.6094 136.729 85.5215 136.342 85.5215C135.771 85.5215 135.355 85.7129 135.094 86.0957C134.832 86.4785 134.701 87.0273 134.701 87.7422ZM148.318 84.3906C149.045 84.3906 149.592 84.5781 149.959 84.9531C150.33 85.3281 150.516 85.9297 150.516 86.7578V91H149.139V87.0039C149.139 86.5117 149.043 86.1406 148.852 85.8906C148.66 85.6406 148.369 85.5156 147.979 85.5156C147.432 85.5156 147.037 85.6914 146.795 86.043C146.557 86.3906 146.438 86.8965 146.438 87.5605V91H145.061V87.0039C145.061 86.6758 145.018 86.4023 144.932 86.1836C144.85 85.9609 144.723 85.7949 144.551 85.6855C144.379 85.5723 144.162 85.5156 143.9 85.5156C143.521 85.5156 143.219 85.6016 142.992 85.7734C142.77 85.9453 142.609 86.1992 142.512 86.5352C142.414 86.8672 142.365 87.2754 142.365 87.7598V91H140.988V84.5137H142.061L142.254 85.3867H142.33C142.463 85.1602 142.627 84.9746 142.822 84.8301C143.021 84.6816 143.242 84.5723 143.484 84.502C143.727 84.4277 143.979 84.3906 144.24 84.3906C144.725 84.3906 145.133 84.4766 145.465 84.6484C145.797 84.8164 146.045 85.0742 146.209 85.4219H146.314C146.518 85.0703 146.801 84.8105 147.164 84.6426C147.527 84.4746 147.912 84.3906 148.318 84.3906ZM153.814 84.5137V91H152.438V84.5137H153.814ZM153.135 82.0293C153.346 82.0293 153.527 82.0859 153.68 82.1992C153.836 82.3125 153.914 82.5078 153.914 82.7852C153.914 83.0586 153.836 83.2539 153.68 83.3711C153.527 83.4844 153.346 83.541 153.135 83.541C152.916 83.541 152.73 83.4844 152.578 83.3711C152.43 83.2539 152.355 83.0586 152.355 82.7852C152.355 82.5078 152.43 82.3125 152.578 82.1992C152.73 82.0859 152.916 82.0293 153.135 82.0293ZM158.402 91.1172C157.789 91.1172 157.258 90.998 156.809 90.7598C156.359 90.5215 156.014 90.1562 155.771 89.6641C155.529 89.1719 155.408 88.5469 155.408 87.7891C155.408 87 155.541 86.3555 155.807 85.8555C156.072 85.3555 156.439 84.9863 156.908 84.748C157.381 84.5098 157.922 84.3906 158.531 84.3906C158.918 84.3906 159.268 84.4297 159.58 84.5078C159.896 84.582 160.164 84.6738 160.383 84.7832L159.973 85.8848C159.734 85.7871 159.49 85.7051 159.24 85.6387C158.99 85.5723 158.75 85.5391 158.52 85.5391C158.141 85.5391 157.824 85.623 157.57 85.791C157.32 85.959 157.133 86.209 157.008 86.541C156.887 86.873 156.826 87.2852 156.826 87.7773C156.826 88.2539 156.889 88.6562 157.014 88.9844C157.139 89.3086 157.324 89.5547 157.57 89.7227C157.816 89.8867 158.119 89.9688 158.479 89.9688C158.834 89.9688 159.152 89.9258 159.434 89.8398C159.715 89.7539 159.98 89.6426 160.23 89.5059V90.7012C159.984 90.8418 159.721 90.9453 159.439 91.0117C159.158 91.082 158.812 91.1172 158.402 91.1172ZM168.709 91L166.242 83.8457H166.189C166.201 84.0059 166.215 84.2246 166.23 84.502C166.246 84.7793 166.26 85.0762 166.271 85.3926C166.283 85.709 166.289 86.0117 166.289 86.3008V91H165.012V82.4336H166.986L169.359 89.2715H169.395L171.85 82.4336H173.818V91H172.477V86.2305C172.477 85.9688 172.48 85.6855 172.488 85.3809C172.5 85.0762 172.512 84.7871 172.523 84.5137C172.539 84.2402 172.551 84.0215 172.559 83.8574H172.512L169.951 91H168.709ZM178.477 84.3906C179.297 84.3906 179.916 84.5723 180.334 84.9355C180.756 85.2988 180.967 85.8652 180.967 86.6348V91H179.988L179.725 90.0801H179.678C179.494 90.3145 179.305 90.5078 179.109 90.6602C178.914 90.8125 178.688 90.9258 178.43 91C178.176 91.0781 177.865 91.1172 177.498 91.1172C177.111 91.1172 176.766 91.0469 176.461 90.9062C176.156 90.7617 175.916 90.543 175.74 90.25C175.564 89.957 175.477 89.5859 175.477 89.1367C175.477 88.4688 175.725 87.9668 176.221 87.6309C176.721 87.2949 177.475 87.1094 178.482 87.0742L179.607 87.0332V86.6934C179.607 86.2441 179.502 85.9238 179.291 85.7324C179.084 85.541 178.791 85.4453 178.412 85.4453C178.088 85.4453 177.773 85.4922 177.469 85.5859C177.164 85.6797 176.867 85.7949 176.578 85.9316L176.133 84.959C176.449 84.791 176.809 84.6543 177.211 84.5488C177.617 84.4434 178.039 84.3906 178.477 84.3906ZM179.602 87.9004L178.764 87.9297C178.076 87.9531 177.594 88.0703 177.316 88.2812C177.039 88.4922 176.9 88.7812 176.9 89.1484C176.9 89.4688 176.996 89.7031 177.188 89.8516C177.379 89.9961 177.631 90.0684 177.943 90.0684C178.42 90.0684 178.814 89.9336 179.127 89.6641C179.443 89.3906 179.602 88.9902 179.602 88.4629V87.9004ZM187.254 89.1484C187.254 89.5742 187.15 89.9336 186.943 90.2266C186.736 90.5195 186.434 90.7422 186.035 90.8945C185.641 91.043 185.156 91.1172 184.582 91.1172C184.129 91.1172 183.738 91.084 183.41 91.0176C183.086 90.9551 182.779 90.8574 182.49 90.7246V89.5352C182.799 89.6797 183.145 89.8047 183.527 89.9102C183.914 90.0156 184.279 90.0684 184.623 90.0684C185.076 90.0684 185.402 89.998 185.602 89.8574C185.801 89.7129 185.9 89.5215 185.9 89.2832C185.9 89.1426 185.859 89.0176 185.777 88.9082C185.699 88.7949 185.551 88.6797 185.332 88.5625C185.117 88.4414 184.801 88.2969 184.383 88.1289C183.973 87.9648 183.627 87.8008 183.346 87.6367C183.064 87.4727 182.852 87.2754 182.707 87.0449C182.562 86.8105 182.49 86.5117 182.49 86.1484C182.49 85.5742 182.717 85.1387 183.17 84.8418C183.627 84.541 184.23 84.3906 184.98 84.3906C185.379 84.3906 185.754 84.4316 186.105 84.5137C186.461 84.5918 186.809 84.707 187.148 84.8594L186.715 85.8965C186.422 85.7676 186.127 85.6621 185.83 85.5801C185.537 85.4941 185.238 85.4512 184.934 85.4512C184.578 85.4512 184.307 85.5059 184.119 85.6152C183.936 85.7246 183.844 85.8809 183.844 86.084C183.844 86.2363 183.889 86.3652 183.979 86.4707C184.068 86.5762 184.223 86.6816 184.441 86.7871C184.664 86.8926 184.973 87.0234 185.367 87.1797C185.754 87.3281 186.088 87.4844 186.369 87.6484C186.654 87.8086 186.873 88.0059 187.025 88.2402C187.178 88.4746 187.254 88.7773 187.254 89.1484ZM193.102 89.1484C193.102 89.5742 192.998 89.9336 192.791 90.2266C192.584 90.5195 192.281 90.7422 191.883 90.8945C191.488 91.043 191.004 91.1172 190.43 91.1172C189.977 91.1172 189.586 91.084 189.258 91.0176C188.934 90.9551 188.627 90.8574 188.338 90.7246V89.5352C188.646 89.6797 188.992 89.8047 189.375 89.9102C189.762 90.0156 190.127 90.0684 190.471 90.0684C190.924 90.0684 191.25 89.998 191.449 89.8574C191.648 89.7129 191.748 89.5215 191.748 89.2832C191.748 89.1426 191.707 89.0176 191.625 88.9082C191.547 88.7949 191.398 88.6797 191.18 88.5625C190.965 88.4414 190.648 88.2969 190.23 88.1289C189.82 87.9648 189.475 87.8008 189.193 87.6367C188.912 87.4727 188.699 87.2754 188.555 87.0449C188.41 86.8105 188.338 86.5117 188.338 86.1484C188.338 85.5742 188.564 85.1387 189.018 84.8418C189.475 84.541 190.078 84.3906 190.828 84.3906C191.227 84.3906 191.602 84.4316 191.953 84.5137C192.309 84.5918 192.656 84.707 192.996 84.8594L192.562 85.8965C192.27 85.7676 191.975 85.6621 191.678 85.5801C191.385 85.4941 191.086 85.4512 190.781 85.4512C190.426 85.4512 190.154 85.5059 189.967 85.6152C189.783 85.7246 189.691 85.8809 189.691 86.084C189.691 86.2363 189.736 86.3652 189.826 86.4707C189.916 86.5762 190.07 86.6816 190.289 86.7871C190.512 86.8926 190.82 87.0234 191.215 87.1797C191.602 87.3281 191.936 87.4844 192.217 87.6484C192.502 87.8086 192.721 88.0059 192.873 88.2402C193.025 88.4746 193.102 88.7773 193.102 89.1484Z" fill="#161326"/>
<path d="M88 88L93 90.8868L93 85.1132L88 88ZM92.5 88.5L112 88.5L112 87.5L92.5 87.5L92.5 88.5Z" fill="#161326"/>
</svg>
