<svg width="384" height="433" viewBox="0 0 384 433" fill="none" xmlns="http://www.w3.org/2000/svg">
<rect width="384" height="432" transform="translate(0 0.125732)" fill="white"/>
<circle cx="192" cy="192.126" r="160" stroke="#161326" stroke-width="4"/>
<circle cx="192" cy="192.126" r="96" stroke="#161326" stroke-width="4"/>
<circle cx="192" cy="192.126" r="128" stroke="#161326" stroke-width="4"/>
<path d="M130 192.126C130 157.884 157.758 130.126 192 130.126C226.242 130.126 254 157.884 254 192.126C254 226.367 226.242 254.126 192 254.126C157.758 254.126 130 226.367 130 192.126Z" fill="#1A67C9" fill-opacity="0.12"/>
<path d="M130 192.126C130 157.884 157.758 130.126 192 130.126C226.242 130.126 254 157.884 254 192.126C254 226.367 226.242 254.126 192 254.126C157.758 254.126 130 226.367 130 192.126Z" stroke="#1A67C9" stroke-width="4"/>
<path d="M192.68 211.126H183.445L168.539 185.204H168.328C168.391 186.282 168.445 187.368 168.492 188.462C168.539 189.555 168.586 190.649 168.633 191.743C168.68 192.821 168.727 193.907 168.773 195.001V211.126H162.281V176.86H171.445L186.328 202.524H186.492C186.461 201.462 186.422 200.407 186.375 199.36C186.328 198.313 186.281 197.266 186.234 196.219C186.203 195.173 186.172 194.126 186.141 193.079V176.86H192.68V211.126ZM211.5 184.384C215.016 184.384 217.711 185.149 219.586 186.68C221.461 188.212 222.398 190.54 222.398 193.665V211.126H217.406L216.023 207.563H215.836C215.086 208.501 214.32 209.266 213.539 209.86C212.758 210.454 211.859 210.891 210.844 211.173C209.828 211.454 208.594 211.594 207.141 211.594C205.594 211.594 204.203 211.298 202.969 210.704C201.75 210.11 200.789 209.204 200.086 207.985C199.383 206.751 199.031 205.188 199.031 203.298C199.031 200.516 200.008 198.469 201.961 197.157C203.914 195.829 206.844 195.094 210.75 194.954L215.297 194.813V193.665C215.297 192.29 214.938 191.282 214.219 190.641C213.5 190.001 212.5 189.68 211.219 189.68C209.953 189.68 208.711 189.86 207.492 190.219C206.273 190.579 205.055 191.032 203.836 191.579L201.469 186.751C202.859 186.016 204.414 185.438 206.133 185.016C207.867 184.594 209.656 184.384 211.5 184.384ZM215.297 198.985L212.531 199.079C210.219 199.141 208.609 199.555 207.703 200.321C206.812 201.087 206.367 202.094 206.367 203.344C206.367 204.438 206.688 205.219 207.328 205.688C207.969 206.141 208.805 206.368 209.836 206.368C211.367 206.368 212.656 205.915 213.703 205.009C214.766 204.102 215.297 202.813 215.297 201.141V198.985Z" fill="#1A67C9"/>
<circle cx="244" cy="408.126" r="10" fill="#7BCDE9" stroke="#161326" stroke-width="4"/>
<path d="M274.84 413.423C274.84 414.274 274.633 414.993 274.219 415.579C273.805 416.165 273.199 416.61 272.402 416.915C271.613 417.212 270.645 417.36 269.496 417.36C268.59 417.36 267.809 417.294 267.152 417.161C266.504 417.036 265.891 416.841 265.312 416.575V414.196C265.93 414.485 266.621 414.735 267.387 414.946C268.16 415.157 268.891 415.262 269.578 415.262C270.484 415.262 271.137 415.122 271.535 414.841C271.934 414.552 272.133 414.169 272.133 413.692C272.133 413.411 272.051 413.161 271.887 412.942C271.73 412.716 271.434 412.485 270.996 412.251C270.566 412.009 269.934 411.719 269.098 411.384C268.277 411.055 267.586 410.727 267.023 410.399C266.461 410.071 266.035 409.677 265.746 409.216C265.457 408.747 265.312 408.149 265.312 407.423C265.312 406.274 265.766 405.403 266.672 404.809C267.586 404.208 268.793 403.907 270.293 403.907C271.09 403.907 271.84 403.989 272.543 404.153C273.254 404.309 273.949 404.54 274.629 404.844L273.762 406.919C273.176 406.661 272.586 406.45 271.992 406.286C271.406 406.114 270.809 406.028 270.199 406.028C269.488 406.028 268.945 406.137 268.57 406.356C268.203 406.575 268.02 406.887 268.02 407.294C268.02 407.598 268.109 407.856 268.289 408.067C268.469 408.278 268.777 408.489 269.215 408.7C269.66 408.911 270.277 409.173 271.066 409.485C271.84 409.782 272.508 410.094 273.07 410.423C273.641 410.743 274.078 411.137 274.383 411.606C274.688 412.075 274.84 412.68 274.84 413.423Z" fill="#161326"/>
<circle cx="320" cy="408.126" r="10" fill="#3FB872" stroke="#161326" stroke-width="4"/>
<path d="M347.148 403.907C348.688 403.907 349.922 404.469 350.852 405.594C351.789 406.719 352.258 408.391 352.258 410.61C352.258 412.079 352.039 413.317 351.602 414.325C351.172 415.325 350.566 416.083 349.785 416.598C349.012 417.106 348.109 417.36 347.078 417.36C346.422 417.36 345.852 417.274 345.367 417.102C344.883 416.93 344.469 416.708 344.125 416.434C343.781 416.153 343.492 415.848 343.258 415.52H343.094C343.133 415.833 343.168 416.18 343.199 416.563C343.238 416.938 343.258 417.282 343.258 417.594V422.88H340.492V404.153H342.742L343.129 405.946H343.258C343.5 405.579 343.793 405.239 344.137 404.927C344.488 404.614 344.91 404.368 345.402 404.188C345.902 404.001 346.484 403.907 347.148 403.907ZM346.41 406.157C345.652 406.157 345.043 406.309 344.582 406.614C344.129 406.911 343.797 407.36 343.586 407.962C343.383 408.563 343.273 409.317 343.258 410.223V410.61C343.258 411.571 343.355 412.387 343.551 413.059C343.754 413.723 344.086 414.231 344.547 414.583C345.016 414.927 345.648 415.098 346.445 415.098C347.117 415.098 347.672 414.915 348.109 414.548C348.555 414.18 348.887 413.657 349.105 412.977C349.324 412.298 349.434 411.497 349.434 410.575C349.434 409.177 349.184 408.091 348.684 407.317C348.191 406.544 347.434 406.157 346.41 406.157Z" fill="#161326"/>
<circle cx="176" cy="32.1257" r="10" fill="#7BCDE9" stroke="#161326" stroke-width="4"/>
<circle cx="176" cy="64.1257" r="10" fill="#7BCDE9" stroke="#161326" stroke-width="4"/>
<circle cx="208" cy="64.1257" r="10" fill="#7BCDE9" stroke="#161326" stroke-width="4"/>
<circle cx="176" cy="96.1257" r="10" fill="#7BCDE9" stroke="#161326" stroke-width="4"/>
<circle cx="208" cy="96.1257" r="10" fill="#7BCDE9" stroke="#161326" stroke-width="4"/>
<circle cx="176" cy="320.126" r="10" fill="#3FB872" stroke="#161326" stroke-width="4"/>
<circle cx="208" cy="320.126" r="10" fill="#3FB872" stroke="#161326" stroke-width="4"/>
<circle cx="63.9998" cy="208.126" r="10" transform="rotate(-90 63.9998 208.126)" fill="#3FB872" stroke="#161326" stroke-width="4"/>
<circle cx="63.9998" cy="176.126" r="10" transform="rotate(-90 63.9998 176.126)" fill="#3FB872" stroke="#161326" stroke-width="4"/>
<circle cx="320" cy="208.126" r="10" transform="rotate(-90 320 208.126)" fill="#3FB872" stroke="#161326" stroke-width="4"/>
<circle cx="320" cy="176.126" r="10" transform="rotate(-90 320 176.126)" fill="#3FB872" stroke="#161326" stroke-width="4"/>
<g clip-path="url(#clip0_177_1926)">
<path d="M240.333 263.086C240.333 254.25 247.496 247.086 256.333 247.086C265.17 247.086 272.333 254.25 272.333 263.086C272.333 271.923 265.17 279.086 256.333 279.086C247.496 279.086 240.333 271.923 240.333 263.086Z" fill="white"/>
<path d="M258.642 272.086H255.876V261.059C255.876 260.692 255.88 260.324 255.888 259.957C255.896 259.59 255.903 259.231 255.911 258.879C255.927 258.528 255.946 258.192 255.97 257.871C255.806 258.051 255.603 258.246 255.36 258.457C255.126 258.668 254.876 258.887 254.61 259.114L252.642 260.684L251.259 258.938L256.345 254.953H258.642V272.086Z" fill="#161326"/>
<path d="M262.961 285.713C262.961 276.877 270.124 269.713 278.961 269.713C287.797 269.713 294.961 276.877 294.961 285.713C294.961 294.55 287.797 301.713 278.961 301.713C270.124 301.713 262.961 294.55 262.961 285.713Z" fill="white"/>
<path d="M284.773 294.713H273.172V292.639L277.613 288.139C278.472 287.264 279.179 286.51 279.734 285.877C280.289 285.237 280.699 284.631 280.965 284.061C281.238 283.491 281.375 282.87 281.375 282.198C281.375 281.37 281.136 280.745 280.66 280.323C280.183 279.893 279.554 279.678 278.773 279.678C278.031 279.678 277.343 279.827 276.711 280.124C276.086 280.413 275.437 280.827 274.765 281.366L273.254 279.549C273.73 279.143 274.238 278.772 274.777 278.436C275.324 278.1 275.933 277.834 276.605 277.639C277.277 277.436 278.043 277.334 278.902 277.334C279.988 277.334 280.925 277.53 281.715 277.92C282.504 278.303 283.109 278.838 283.531 279.526C283.961 280.213 284.175 281.014 284.175 281.928C284.175 282.85 283.992 283.702 283.625 284.483C283.258 285.264 282.734 286.038 282.054 286.803C281.375 287.561 280.566 288.385 279.629 289.276L276.664 292.17V292.299H284.773V294.713Z" fill="#161326"/>
<path d="M285.588 308.341C285.588 299.505 292.751 292.341 301.588 292.341C310.424 292.341 317.588 299.505 317.588 308.341C317.588 317.178 310.424 324.341 301.588 324.341C292.751 324.341 285.588 317.178 285.588 308.341Z" fill="white"/>
<path d="M306.744 304.122C306.744 304.896 306.588 305.568 306.275 306.138C305.963 306.708 305.533 307.177 304.986 307.544C304.447 307.904 303.822 308.161 303.111 308.318V308.4C304.478 308.572 305.51 309.001 306.205 309.689C306.908 310.376 307.26 311.286 307.26 312.419C307.26 313.411 307.021 314.298 306.545 315.079C306.068 315.853 305.338 316.462 304.353 316.907C303.369 317.353 302.103 317.575 300.557 317.575C299.627 317.575 298.764 317.501 297.967 317.353C297.178 317.204 296.428 316.966 295.717 316.638V314.189C296.443 314.548 297.217 314.825 298.037 315.021C298.857 315.216 299.635 315.314 300.369 315.314C301.799 315.314 302.818 315.048 303.428 314.517C304.037 313.978 304.342 313.236 304.342 312.29C304.342 311.681 304.182 311.181 303.861 310.79C303.549 310.4 303.06 310.107 302.396 309.911C301.74 309.716 300.893 309.618 299.853 309.618H298.342V307.404H299.865C300.857 307.404 301.654 307.286 302.256 307.052C302.857 306.81 303.291 306.478 303.557 306.056C303.83 305.634 303.967 305.142 303.967 304.579C303.967 303.845 303.728 303.275 303.252 302.868C302.775 302.454 302.068 302.247 301.131 302.247C300.553 302.247 300.025 302.314 299.549 302.447C299.08 302.579 298.646 302.747 298.248 302.95C297.85 303.154 297.471 303.372 297.111 303.607L295.787 301.697C296.435 301.212 297.209 300.802 298.107 300.466C299.006 300.13 300.053 299.962 301.248 299.962C303.006 299.962 304.361 300.341 305.314 301.099C306.268 301.849 306.744 302.857 306.744 304.122Z" fill="#161326"/>
</g>
<defs>
<clipPath id="clip0_177_1926">
<rect width="384" height="32" fill="white" transform="translate(64 48.1257) rotate(45)"/>
</clipPath>
</defs>
</svg>
