<svg width="800" height="601" viewBox="0 0 800 601" fill="none" xmlns="http://www.w3.org/2000/svg">
<rect width="800" height="600" transform="translate(0 0.923584)" fill="white"/>
<g clip-path="url(#clip0_146_1199)">
<line x1="644" y1="49.9236" x2="444" y2="49.9236" stroke="#161326" stroke-width="2"/>
<circle cx="244" cy="48.9236" r="19" fill="#008000" stroke="#161326" stroke-width="2"/>
<circle cx="289" cy="48.9236" r="19" fill="#008000" stroke="#161326" stroke-width="2"/>
<circle cx="334" cy="48.9236" r="19" fill="#008000" stroke="#161326" stroke-width="2"/>
<circle cx="379" cy="48.9236" r="19" fill="#008000" stroke="#161326" stroke-width="2"/>
<circle cx="424" cy="48.9236" r="19" fill="#008000" stroke="#161326" stroke-width="2"/>
</g>
<path d="M684.957 54.1619H682.637V57.9236H679.918V54.1619H672.125V52.0759L679.953 40.7439H682.637V51.8767H684.957V54.1619ZM679.918 51.8767V47.6228C679.918 47.2712 679.922 46.9158 679.93 46.5564C679.945 46.1892 679.961 45.8376 679.977 45.5017C679.992 45.1658 680.008 44.8572 680.023 44.5759C680.039 44.2869 680.051 44.0486 680.059 43.8611H679.965C679.816 44.1736 679.652 44.4939 679.473 44.822C679.293 45.1423 679.102 45.4548 678.898 45.7595L674.68 51.8767H679.918ZM691.719 58.158C690.172 58.158 688.93 57.5955 687.992 56.4705C687.062 55.3376 686.598 53.6697 686.598 51.4666C686.598 49.24 687.07 47.5564 688.016 46.4158C688.969 45.2751 690.223 44.7048 691.777 44.7048C692.434 44.7048 693.008 44.7947 693.5 44.9744C693.992 45.1462 694.414 45.3806 694.766 45.6775C695.125 45.9744 695.43 46.3064 695.68 46.6736H695.809C695.77 46.4314 695.723 46.0837 695.668 45.6306C695.621 45.1697 695.598 44.7439 695.598 44.3533V39.6892H698.363V57.9236H696.207L695.715 56.1541H695.598C695.363 56.5291 695.066 56.8689 694.707 57.1736C694.355 57.4705 693.934 57.7087 693.441 57.8884C692.957 58.0681 692.383 58.158 691.719 58.158ZM692.492 55.9197C693.672 55.9197 694.504 55.5798 694.988 54.9001C695.473 54.2205 695.723 53.2009 695.738 51.8416V51.4783C695.738 50.0251 695.504 48.9119 695.035 48.1384C694.566 47.3572 693.711 46.9666 692.469 46.9666C691.477 46.9666 690.719 47.3689 690.195 48.1736C689.68 48.9705 689.422 50.0837 689.422 51.5134C689.422 52.9431 689.68 54.0369 690.195 54.7947C690.719 55.5447 691.484 55.9197 692.492 55.9197Z" fill="black"/>
<g clip-path="url(#clip1_146_1199)">
<line x1="644" y1="105.924" x2="64" y2="105.924" stroke="#161326" stroke-width="2"/>
<circle cx="44" cy="104.924" r="19" fill="#0000FF" stroke="#161326" stroke-width="2"/>
</g>
<path d="M680.188 103.213C681.289 103.213 682.258 103.412 683.094 103.81C683.938 104.201 684.594 104.779 685.062 105.545C685.531 106.302 685.766 107.232 685.766 108.334C685.766 109.537 685.512 110.576 685.004 111.451C684.496 112.318 683.75 112.986 682.766 113.455C681.781 113.924 680.582 114.158 679.168 114.158C678.27 114.158 677.43 114.08 676.648 113.924C675.875 113.767 675.207 113.533 674.645 113.22V110.736C675.23 111.064 675.934 111.334 676.754 111.545C677.574 111.748 678.359 111.849 679.109 111.849C679.906 111.849 680.59 111.732 681.16 111.498C681.73 111.263 682.168 110.904 682.473 110.42C682.785 109.935 682.941 109.322 682.941 108.58C682.941 107.595 682.625 106.838 681.992 106.306C681.367 105.767 680.387 105.498 679.051 105.498C678.582 105.498 678.082 105.541 677.551 105.627C677.027 105.705 676.59 105.791 676.238 105.885L675.031 105.17L675.676 96.7908H684.582V99.2166H678.102L677.727 103.482C678.008 103.42 678.344 103.361 678.734 103.306C679.125 103.244 679.609 103.213 680.188 103.213ZM697.707 110.22C697.707 111.072 697.5 111.791 697.086 112.377C696.672 112.963 696.066 113.408 695.27 113.713C694.48 114.01 693.512 114.158 692.363 114.158C691.457 114.158 690.676 114.092 690.02 113.959C689.371 113.834 688.758 113.638 688.18 113.373V110.994C688.797 111.283 689.488 111.533 690.254 111.744C691.027 111.955 691.758 112.06 692.445 112.06C693.352 112.06 694.004 111.92 694.402 111.638C694.801 111.349 695 110.967 695 110.49C695 110.209 694.918 109.959 694.754 109.74C694.598 109.513 694.301 109.283 693.863 109.049C693.434 108.806 692.801 108.517 691.965 108.181C691.145 107.853 690.453 107.525 689.891 107.197C689.328 106.869 688.902 106.474 688.613 106.013C688.324 105.545 688.18 104.947 688.18 104.22C688.18 103.072 688.633 102.201 689.539 101.607C690.453 101.006 691.66 100.705 693.16 100.705C693.957 100.705 694.707 100.787 695.41 100.951C696.121 101.107 696.816 101.338 697.496 101.642L696.629 103.717C696.043 103.459 695.453 103.248 694.859 103.084C694.273 102.912 693.676 102.826 693.066 102.826C692.355 102.826 691.812 102.935 691.438 103.154C691.07 103.373 690.887 103.685 690.887 104.092C690.887 104.396 690.977 104.654 691.156 104.865C691.336 105.076 691.645 105.287 692.082 105.498C692.527 105.709 693.145 105.97 693.934 106.283C694.707 106.58 695.375 106.892 695.938 107.22C696.508 107.541 696.945 107.935 697.25 108.404C697.555 108.873 697.707 109.478 697.707 110.22Z" fill="black"/>
<g clip-path="url(#clip2_146_1199)">
<line x1="644" y1="161.924" x2="196" y2="161.924" stroke="#161326" stroke-width="2"/>
<circle cx="87" cy="160.924" r="19" fill="#008000" stroke="#161326" stroke-width="2"/>
<circle cx="132" cy="160.924" r="19" fill="#008000" stroke="#161326" stroke-width="2"/>
<circle cx="177" cy="160.924" r="19" fill="#008000" stroke="#161326" stroke-width="2"/>
</g>
<path d="M684.957 166.162H682.637V169.924H679.918V166.162H672.125V164.076L679.953 152.744H682.637V163.877H684.957V166.162ZM679.918 163.877V159.623C679.918 159.271 679.922 158.916 679.93 158.556C679.945 158.189 679.961 157.838 679.977 157.502C679.992 157.166 680.008 156.857 680.023 156.576C680.039 156.287 680.051 156.049 680.059 155.861H679.965C679.816 156.174 679.652 156.494 679.473 156.822C679.293 157.142 679.102 157.455 678.898 157.76L674.68 163.877H679.918ZM694.016 156.705C695.555 156.705 696.789 157.267 697.719 158.392C698.656 159.517 699.125 161.189 699.125 163.408C699.125 164.877 698.906 166.115 698.469 167.123C698.039 168.123 697.434 168.881 696.652 169.396C695.879 169.904 694.977 170.158 693.945 170.158C693.289 170.158 692.719 170.072 692.234 169.9C691.75 169.728 691.336 169.506 690.992 169.232C690.648 168.951 690.359 168.646 690.125 168.318H689.961C690 168.631 690.035 168.978 690.066 169.361C690.105 169.736 690.125 170.08 690.125 170.392V175.677H687.359V156.951H689.609L689.996 158.744H690.125C690.367 158.377 690.66 158.037 691.004 157.724C691.355 157.412 691.777 157.166 692.27 156.986C692.77 156.799 693.352 156.705 694.016 156.705ZM693.277 158.955C692.52 158.955 691.91 159.107 691.449 159.412C690.996 159.709 690.664 160.158 690.453 160.76C690.25 161.361 690.141 162.115 690.125 163.021V163.408C690.125 164.369 690.223 165.185 690.418 165.857C690.621 166.521 690.953 167.029 691.414 167.381C691.883 167.724 692.516 167.896 693.312 167.896C693.984 167.896 694.539 167.713 694.977 167.345C695.422 166.978 695.754 166.455 695.973 165.775C696.191 165.095 696.301 164.295 696.301 163.373C696.301 161.974 696.051 160.888 695.551 160.115C695.059 159.342 694.301 158.955 693.277 158.955Z" fill="black"/>
<g clip-path="url(#clip3_146_1199)">
<line x1="644" y1="217.924" x2="444" y2="217.924" stroke="#161326" stroke-width="2"/>
<circle cx="244" cy="216.924" r="19" fill="#FFFF00" stroke="#161326" stroke-width="2"/>
<circle cx="289" cy="216.924" r="19" fill="#FFFF00" stroke="#161326" stroke-width="2"/>
<circle cx="334" cy="216.924" r="19" fill="#FFFF00" stroke="#161326" stroke-width="2"/>
<circle cx="379" cy="216.924" r="19" fill="#FFFF00" stroke="#161326" stroke-width="2"/>
<circle cx="424" cy="216.924" r="19" fill="#FFFF00" stroke="#161326" stroke-width="2"/>
</g>
<path d="M683.68 212.705C683.68 213.478 683.523 214.15 683.211 214.72C682.898 215.291 682.469 215.76 681.922 216.127C681.383 216.486 680.758 216.744 680.047 216.9V216.982C681.414 217.154 682.445 217.584 683.141 218.271C683.844 218.959 684.195 219.869 684.195 221.002C684.195 221.994 683.957 222.881 683.48 223.662C683.004 224.435 682.273 225.045 681.289 225.49C680.305 225.935 679.039 226.158 677.492 226.158C676.562 226.158 675.699 226.084 674.902 225.935C674.113 225.787 673.363 225.549 672.652 225.22V222.771C673.379 223.131 674.152 223.408 674.973 223.603C675.793 223.799 676.57 223.896 677.305 223.896C678.734 223.896 679.754 223.631 680.363 223.099C680.973 222.56 681.277 221.818 681.277 220.873C681.277 220.263 681.117 219.763 680.797 219.373C680.484 218.982 679.996 218.689 679.332 218.494C678.676 218.299 677.828 218.201 676.789 218.201H675.277V215.986H676.801C677.793 215.986 678.59 215.869 679.191 215.635C679.793 215.392 680.227 215.06 680.492 214.638C680.766 214.217 680.902 213.724 680.902 213.162C680.902 212.427 680.664 211.857 680.188 211.451C679.711 211.037 679.004 210.83 678.066 210.83C677.488 210.83 676.961 210.896 676.484 211.029C676.016 211.162 675.582 211.33 675.184 211.533C674.785 211.736 674.406 211.955 674.047 212.189L672.723 210.279C673.371 209.795 674.145 209.385 675.043 209.049C675.941 208.713 676.988 208.545 678.184 208.545C679.941 208.545 681.297 208.924 682.25 209.681C683.203 210.431 683.68 211.439 683.68 212.705ZM691.719 226.158C690.172 226.158 688.93 225.595 687.992 224.47C687.062 223.338 686.598 221.67 686.598 219.467C686.598 217.24 687.07 215.556 688.016 214.416C688.969 213.275 690.223 212.705 691.777 212.705C692.434 212.705 693.008 212.795 693.5 212.974C693.992 213.146 694.414 213.381 694.766 213.677C695.125 213.974 695.43 214.306 695.68 214.674H695.809C695.77 214.431 695.723 214.084 695.668 213.631C695.621 213.17 695.598 212.744 695.598 212.353V207.689H698.363V225.924H696.207L695.715 224.154H695.598C695.363 224.529 695.066 224.869 694.707 225.174C694.355 225.47 693.934 225.709 693.441 225.888C692.957 226.068 692.383 226.158 691.719 226.158ZM692.492 223.92C693.672 223.92 694.504 223.58 694.988 222.9C695.473 222.22 695.723 221.201 695.738 219.842V219.478C695.738 218.025 695.504 216.912 695.035 216.138C694.566 215.357 693.711 214.967 692.469 214.967C691.477 214.967 690.719 215.369 690.195 216.174C689.68 216.97 689.422 218.084 689.422 219.513C689.422 220.943 689.68 222.037 690.195 222.795C690.719 223.545 691.484 223.92 692.492 223.92Z" fill="black"/>
<g clip-path="url(#clip4_146_1199)">
<line x1="644" y1="273.924" x2="64" y2="273.924" stroke="#161326" stroke-width="2"/>
<circle cx="44" cy="272.924" r="19" fill="#008000" stroke="#161326" stroke-width="2"/>
</g>
<path d="M686.586 278.162H684.266V281.924H681.547V278.162H673.754V276.076L681.582 264.744H684.266V275.877H686.586V278.162ZM681.547 275.877V271.623C681.547 271.271 681.551 270.916 681.559 270.556C681.574 270.189 681.59 269.838 681.605 269.502C681.621 269.166 681.637 268.857 681.652 268.576C681.668 268.287 681.68 268.049 681.688 267.861H681.594C681.445 268.174 681.281 268.494 681.102 268.822C680.922 269.142 680.73 269.455 680.527 269.76L676.309 275.877H681.547ZM697.707 278.22C697.707 279.072 697.5 279.791 697.086 280.377C696.672 280.963 696.066 281.408 695.27 281.713C694.48 282.01 693.512 282.158 692.363 282.158C691.457 282.158 690.676 282.092 690.02 281.959C689.371 281.834 688.758 281.638 688.18 281.373V278.994C688.797 279.283 689.488 279.533 690.254 279.744C691.027 279.955 691.758 280.06 692.445 280.06C693.352 280.06 694.004 279.92 694.402 279.638C694.801 279.349 695 278.967 695 278.49C695 278.209 694.918 277.959 694.754 277.74C694.598 277.513 694.301 277.283 693.863 277.049C693.434 276.806 692.801 276.517 691.965 276.181C691.145 275.853 690.453 275.525 689.891 275.197C689.328 274.869 688.902 274.474 688.613 274.013C688.324 273.545 688.18 272.947 688.18 272.22C688.18 271.072 688.633 270.201 689.539 269.607C690.453 269.006 691.66 268.705 693.16 268.705C693.957 268.705 694.707 268.787 695.41 268.951C696.121 269.107 696.816 269.338 697.496 269.642L696.629 271.717C696.043 271.459 695.453 271.248 694.859 271.084C694.273 270.912 693.676 270.826 693.066 270.826C692.355 270.826 691.812 270.935 691.438 271.154C691.07 271.373 690.887 271.685 690.887 272.092C690.887 272.396 690.977 272.654 691.156 272.865C691.336 273.076 691.645 273.287 692.082 273.498C692.527 273.709 693.145 273.97 693.934 274.283C694.707 274.58 695.375 274.892 695.938 275.22C696.508 275.541 696.945 275.935 697.25 276.404C697.555 276.873 697.707 277.478 697.707 278.22Z" fill="black"/>
<g clip-path="url(#clip5_146_1199)">
<line x1="644" y1="329.924" x2="196" y2="329.924" stroke="#161326" stroke-width="2"/>
<circle cx="87" cy="328.924" r="19" fill="#FFFF00" stroke="#161326" stroke-width="2"/>
<circle cx="132" cy="328.924" r="19" fill="#FFFF00" stroke="#161326" stroke-width="2"/>
<circle cx="177" cy="328.924" r="19" fill="#FFFF00" stroke="#161326" stroke-width="2"/>
</g>
<path d="M683.68 324.705C683.68 325.478 683.523 326.15 683.211 326.72C682.898 327.291 682.469 327.76 681.922 328.127C681.383 328.486 680.758 328.744 680.047 328.9V328.982C681.414 329.154 682.445 329.584 683.141 330.271C683.844 330.959 684.195 331.869 684.195 333.002C684.195 333.994 683.957 334.881 683.48 335.662C683.004 336.435 682.273 337.045 681.289 337.49C680.305 337.935 679.039 338.158 677.492 338.158C676.562 338.158 675.699 338.084 674.902 337.935C674.113 337.787 673.363 337.549 672.652 337.22V334.771C673.379 335.131 674.152 335.408 674.973 335.603C675.793 335.799 676.57 335.896 677.305 335.896C678.734 335.896 679.754 335.631 680.363 335.099C680.973 334.56 681.277 333.818 681.277 332.873C681.277 332.263 681.117 331.763 680.797 331.373C680.484 330.982 679.996 330.689 679.332 330.494C678.676 330.299 677.828 330.201 676.789 330.201H675.277V327.986H676.801C677.793 327.986 678.59 327.869 679.191 327.635C679.793 327.392 680.227 327.06 680.492 326.638C680.766 326.217 680.902 325.724 680.902 325.162C680.902 324.427 680.664 323.857 680.188 323.451C679.711 323.037 679.004 322.83 678.066 322.83C677.488 322.83 676.961 322.896 676.484 323.029C676.016 323.162 675.582 323.33 675.184 323.533C674.785 323.736 674.406 323.955 674.047 324.189L672.723 322.279C673.371 321.795 674.145 321.385 675.043 321.049C675.941 320.713 676.988 320.545 678.184 320.545C679.941 320.545 681.297 320.924 682.25 321.681C683.203 322.431 683.68 323.439 683.68 324.705ZM694.016 324.705C695.555 324.705 696.789 325.267 697.719 326.392C698.656 327.517 699.125 329.189 699.125 331.408C699.125 332.877 698.906 334.115 698.469 335.123C698.039 336.123 697.434 336.881 696.652 337.396C695.879 337.904 694.977 338.158 693.945 338.158C693.289 338.158 692.719 338.072 692.234 337.9C691.75 337.728 691.336 337.506 690.992 337.232C690.648 336.951 690.359 336.646 690.125 336.318H689.961C690 336.631 690.035 336.978 690.066 337.361C690.105 337.736 690.125 338.08 690.125 338.392V343.677H687.359V324.951H689.609L689.996 326.744H690.125C690.367 326.377 690.66 326.037 691.004 325.724C691.355 325.412 691.777 325.166 692.27 324.986C692.77 324.799 693.352 324.705 694.016 324.705ZM693.277 326.955C692.52 326.955 691.91 327.107 691.449 327.412C690.996 327.709 690.664 328.158 690.453 328.76C690.25 329.361 690.141 330.115 690.125 331.021V331.408C690.125 332.369 690.223 333.185 690.418 333.857C690.621 334.521 690.953 335.029 691.414 335.381C691.883 335.724 692.516 335.896 693.312 335.896C693.984 335.896 694.539 335.713 694.977 335.345C695.422 334.978 695.754 334.455 695.973 333.775C696.191 333.095 696.301 332.295 696.301 331.373C696.301 329.974 696.051 328.888 695.551 328.115C695.059 327.342 694.301 326.955 693.277 326.955Z" fill="black"/>
<g clip-path="url(#clip6_146_1199)">
<line x1="644" y1="385.924" x2="64" y2="385.924" stroke="#161326" stroke-width="2"/>
<circle cx="44" cy="384.924" r="19" fill="#FFFF00" stroke="#161326" stroke-width="2"/>
</g>
<path d="M685.309 380.705C685.309 381.478 685.152 382.15 684.84 382.72C684.527 383.291 684.098 383.76 683.551 384.127C683.012 384.486 682.387 384.744 681.676 384.9V384.982C683.043 385.154 684.074 385.584 684.77 386.271C685.473 386.959 685.824 387.869 685.824 389.002C685.824 389.994 685.586 390.881 685.109 391.662C684.633 392.435 683.902 393.045 682.918 393.49C681.934 393.935 680.668 394.158 679.121 394.158C678.191 394.158 677.328 394.084 676.531 393.935C675.742 393.787 674.992 393.549 674.281 393.22V390.771C675.008 391.131 675.781 391.408 676.602 391.603C677.422 391.799 678.199 391.896 678.934 391.896C680.363 391.896 681.383 391.631 681.992 391.099C682.602 390.56 682.906 389.818 682.906 388.873C682.906 388.263 682.746 387.763 682.426 387.373C682.113 386.982 681.625 386.689 680.961 386.494C680.305 386.299 679.457 386.201 678.418 386.201H676.906V383.986H678.43C679.422 383.986 680.219 383.869 680.82 383.635C681.422 383.392 681.855 383.06 682.121 382.638C682.395 382.217 682.531 381.724 682.531 381.162C682.531 380.427 682.293 379.857 681.816 379.451C681.34 379.037 680.633 378.83 679.695 378.83C679.117 378.83 678.59 378.896 678.113 379.029C677.645 379.162 677.211 379.33 676.812 379.533C676.414 379.736 676.035 379.955 675.676 380.189L674.352 378.279C675 377.795 675.773 377.385 676.672 377.049C677.57 376.713 678.617 376.545 679.812 376.545C681.57 376.545 682.926 376.924 683.879 377.681C684.832 378.431 685.309 379.439 685.309 380.705ZM697.707 390.22C697.707 391.072 697.5 391.791 697.086 392.377C696.672 392.963 696.066 393.408 695.27 393.713C694.48 394.01 693.512 394.158 692.363 394.158C691.457 394.158 690.676 394.092 690.02 393.959C689.371 393.834 688.758 393.638 688.18 393.373V390.994C688.797 391.283 689.488 391.533 690.254 391.744C691.027 391.955 691.758 392.06 692.445 392.06C693.352 392.06 694.004 391.92 694.402 391.638C694.801 391.349 695 390.967 695 390.49C695 390.209 694.918 389.959 694.754 389.74C694.598 389.513 694.301 389.283 693.863 389.049C693.434 388.806 692.801 388.517 691.965 388.181C691.145 387.853 690.453 387.525 689.891 387.197C689.328 386.869 688.902 386.474 688.613 386.013C688.324 385.545 688.18 384.947 688.18 384.22C688.18 383.072 688.633 382.201 689.539 381.607C690.453 381.006 691.66 380.705 693.16 380.705C693.957 380.705 694.707 380.787 695.41 380.951C696.121 381.107 696.816 381.338 697.496 381.642L696.629 383.717C696.043 383.459 695.453 383.248 694.859 383.084C694.273 382.912 693.676 382.826 693.066 382.826C692.355 382.826 691.812 382.935 691.438 383.154C691.07 383.373 690.887 383.685 690.887 384.092C690.887 384.396 690.977 384.654 691.156 384.865C691.336 385.076 691.645 385.287 692.082 385.498C692.527 385.709 693.145 385.97 693.934 386.283C694.707 386.58 695.375 386.892 695.938 387.22C696.508 387.541 696.945 387.935 697.25 388.404C697.555 388.873 697.707 389.478 697.707 390.22Z" fill="black"/>
<g clip-path="url(#clip7_146_1199)">
<line x1="644" y1="441.924" x2="196" y2="441.924" stroke="#161326" stroke-width="2"/>
<circle cx="87" cy="440.924" r="19" fill="#FF6600" stroke="#161326" stroke-width="2"/>
<circle cx="132" cy="440.924" r="19" fill="#FF6600" stroke="#161326" stroke-width="2"/>
<circle cx="177" cy="440.924" r="19" fill="#FF6600" stroke="#161326" stroke-width="2"/>
</g>
<path d="M684.336 449.924H672.734V447.849L677.176 443.349C678.035 442.474 678.742 441.72 679.297 441.088C679.852 440.447 680.262 439.842 680.527 439.271C680.801 438.701 680.938 438.08 680.938 437.408C680.938 436.58 680.699 435.955 680.223 435.533C679.746 435.103 679.117 434.888 678.336 434.888C677.594 434.888 676.906 435.037 676.273 435.334C675.648 435.623 675 436.037 674.328 436.576L672.816 434.76C673.293 434.353 673.801 433.982 674.34 433.646C674.887 433.31 675.496 433.045 676.168 432.849C676.84 432.646 677.605 432.545 678.465 432.545C679.551 432.545 680.488 432.74 681.277 433.131C682.066 433.513 682.672 434.049 683.094 434.736C683.523 435.424 683.738 436.224 683.738 437.138C683.738 438.06 683.555 438.912 683.188 439.693C682.82 440.474 682.297 441.248 681.617 442.013C680.938 442.771 680.129 443.595 679.191 444.486L676.227 447.381V447.51H684.336V449.924ZM694.016 436.705C695.555 436.705 696.789 437.267 697.719 438.392C698.656 439.517 699.125 441.189 699.125 443.408C699.125 444.877 698.906 446.115 698.469 447.123C698.039 448.123 697.434 448.881 696.652 449.396C695.879 449.904 694.977 450.158 693.945 450.158C693.289 450.158 692.719 450.072 692.234 449.9C691.75 449.728 691.336 449.506 690.992 449.232C690.648 448.951 690.359 448.646 690.125 448.318H689.961C690 448.631 690.035 448.978 690.066 449.361C690.105 449.736 690.125 450.08 690.125 450.392V455.677H687.359V436.951H689.609L689.996 438.744H690.125C690.367 438.377 690.66 438.037 691.004 437.724C691.355 437.412 691.777 437.166 692.27 436.986C692.77 436.799 693.352 436.705 694.016 436.705ZM693.277 438.955C692.52 438.955 691.91 439.107 691.449 439.412C690.996 439.709 690.664 440.158 690.453 440.76C690.25 441.361 690.141 442.115 690.125 443.021V443.408C690.125 444.369 690.223 445.185 690.418 445.857C690.621 446.521 690.953 447.029 691.414 447.381C691.883 447.724 692.516 447.896 693.312 447.896C693.984 447.896 694.539 447.713 694.977 447.345C695.422 446.978 695.754 446.455 695.973 445.775C696.191 445.095 696.301 444.295 696.301 443.373C696.301 441.974 696.051 440.888 695.551 440.115C695.059 439.342 694.301 438.955 693.277 438.955Z" fill="black"/>
<g clip-path="url(#clip8_146_1199)">
<line x1="644" y1="497.924" x2="64" y2="497.924" stroke="#161326" stroke-width="2"/>
<circle cx="44" cy="496.924" r="19" fill="#FF6600" stroke="#161326" stroke-width="2"/>
</g>
<path d="M685.965 505.924H674.363V503.849L678.805 499.349C679.664 498.474 680.371 497.72 680.926 497.088C681.48 496.447 681.891 495.842 682.156 495.271C682.43 494.701 682.566 494.08 682.566 493.408C682.566 492.58 682.328 491.955 681.852 491.533C681.375 491.103 680.746 490.888 679.965 490.888C679.223 490.888 678.535 491.037 677.902 491.334C677.277 491.623 676.629 492.037 675.957 492.576L674.445 490.76C674.922 490.353 675.43 489.982 675.969 489.646C676.516 489.31 677.125 489.045 677.797 488.849C678.469 488.646 679.234 488.545 680.094 488.545C681.18 488.545 682.117 488.74 682.906 489.131C683.695 489.513 684.301 490.049 684.723 490.736C685.152 491.424 685.367 492.224 685.367 493.138C685.367 494.06 685.184 494.912 684.816 495.693C684.449 496.474 683.926 497.248 683.246 498.013C682.566 498.771 681.758 499.595 680.82 500.486L677.855 503.381V503.51H685.965V505.924ZM697.707 502.22C697.707 503.072 697.5 503.791 697.086 504.377C696.672 504.963 696.066 505.408 695.27 505.713C694.48 506.01 693.512 506.158 692.363 506.158C691.457 506.158 690.676 506.092 690.02 505.959C689.371 505.834 688.758 505.638 688.18 505.373V502.994C688.797 503.283 689.488 503.533 690.254 503.744C691.027 503.955 691.758 504.06 692.445 504.06C693.352 504.06 694.004 503.92 694.402 503.638C694.801 503.349 695 502.967 695 502.49C695 502.209 694.918 501.959 694.754 501.74C694.598 501.513 694.301 501.283 693.863 501.049C693.434 500.806 692.801 500.517 691.965 500.181C691.145 499.853 690.453 499.525 689.891 499.197C689.328 498.869 688.902 498.474 688.613 498.013C688.324 497.545 688.18 496.947 688.18 496.22C688.18 495.072 688.633 494.201 689.539 493.607C690.453 493.006 691.66 492.705 693.16 492.705C693.957 492.705 694.707 492.787 695.41 492.951C696.121 493.107 696.816 493.338 697.496 493.642L696.629 495.717C696.043 495.459 695.453 495.248 694.859 495.084C694.273 494.912 693.676 494.826 693.066 494.826C692.355 494.826 691.812 494.935 691.438 495.154C691.07 495.373 690.887 495.685 690.887 496.092C690.887 496.396 690.977 496.654 691.156 496.865C691.336 497.076 691.645 497.287 692.082 497.498C692.527 497.709 693.145 497.97 693.934 498.283C694.707 498.58 695.375 498.892 695.938 499.22C696.508 499.541 696.945 499.935 697.25 500.404C697.555 500.873 697.707 501.478 697.707 502.22Z" fill="black"/>
<g clip-path="url(#clip9_146_1199)">
<line x1="644" y1="553.924" x2="64" y2="553.924" stroke="#161326" stroke-width="2"/>
<circle cx="44" cy="552.924" r="19" fill="#FF0000" stroke="#161326" stroke-width="2"/>
</g>
<path d="M682.461 561.924H679.695V550.896C679.695 550.529 679.699 550.162 679.707 549.795C679.715 549.427 679.723 549.068 679.73 548.717C679.746 548.365 679.766 548.029 679.789 547.709C679.625 547.888 679.422 548.084 679.18 548.295C678.945 548.506 678.695 548.724 678.43 548.951L676.461 550.521L675.078 548.775L680.164 544.791H682.461V561.924ZM697.707 558.22C697.707 559.072 697.5 559.791 697.086 560.377C696.672 560.963 696.066 561.408 695.27 561.713C694.48 562.01 693.512 562.158 692.363 562.158C691.457 562.158 690.676 562.092 690.02 561.959C689.371 561.834 688.758 561.638 688.18 561.373V558.994C688.797 559.283 689.488 559.533 690.254 559.744C691.027 559.955 691.758 560.06 692.445 560.06C693.352 560.06 694.004 559.92 694.402 559.638C694.801 559.349 695 558.967 695 558.49C695 558.209 694.918 557.959 694.754 557.74C694.598 557.513 694.301 557.283 693.863 557.049C693.434 556.806 692.801 556.517 691.965 556.181C691.145 555.853 690.453 555.525 689.891 555.197C689.328 554.869 688.902 554.474 688.613 554.013C688.324 553.545 688.18 552.947 688.18 552.22C688.18 551.072 688.633 550.201 689.539 549.607C690.453 549.006 691.66 548.705 693.16 548.705C693.957 548.705 694.707 548.787 695.41 548.951C696.121 549.107 696.816 549.338 697.496 549.642L696.629 551.717C696.043 551.459 695.453 551.248 694.859 551.084C694.273 550.912 693.676 550.826 693.066 550.826C692.355 550.826 691.812 550.935 691.438 551.154C691.07 551.373 690.887 551.685 690.887 552.092C690.887 552.396 690.977 552.654 691.156 552.865C691.336 553.076 691.645 553.287 692.082 553.498C692.527 553.709 693.145 553.97 693.934 554.283C694.707 554.58 695.375 554.892 695.938 555.22C696.508 555.541 696.945 555.935 697.25 556.404C697.555 556.873 697.707 557.478 697.707 558.22Z" fill="black"/>
<path d="M756 27.9236L750.226 37.9236H761.774L756 27.9236ZM755 567.924C755 568.476 755.448 568.924 756 568.924C756.552 568.924 757 568.476 757 567.924H755ZM755 36.9236V567.924H757V36.9236H755Z" fill="#1A67C9"/>
<g clip-path="url(#clip10_146_1199)">
<rect width="245" height="40" transform="matrix(0 -1 1 0 736 423.424)" fill="white"/>
<path d="M765 404.787H747.867V401.154H765V404.787ZM765 385.029V388.603H757.348C756.402 388.603 755.695 388.771 755.227 389.107C754.75 389.443 754.512 389.978 754.512 390.713C754.512 391.713 754.848 392.435 755.52 392.881C756.184 393.326 757.289 393.549 758.836 393.549H765V397.123H751.898V394.392L753.574 393.912V393.713C752.941 393.314 752.465 392.767 752.145 392.072C751.816 391.369 751.652 390.572 751.652 389.681C751.652 388.158 752.066 387.002 752.895 386.213C753.715 385.424 754.902 385.029 756.457 385.029H765ZM765.234 376.029C765.234 380.107 762.996 382.146 758.52 382.146C756.293 382.146 754.594 381.592 753.422 380.482C752.242 379.373 751.652 377.783 751.652 375.713C751.652 374.197 751.949 372.838 752.543 371.635L755.309 372.689C755.082 373.252 754.898 373.775 754.758 374.26C754.609 374.744 754.535 375.228 754.535 375.713C754.535 377.572 755.855 378.502 758.496 378.502C761.059 378.502 762.34 377.572 762.34 375.713C762.34 375.025 762.25 374.388 762.07 373.802C761.883 373.217 761.594 372.631 761.203 372.045H764.262C764.629 372.623 764.883 373.209 765.023 373.802C765.164 374.388 765.234 375.131 765.234 376.029ZM751.652 361.685C751.652 361.201 751.688 360.799 751.758 360.478L755.109 360.748C755.031 361.037 754.992 361.388 754.992 361.802C754.992 362.943 755.285 363.834 755.871 364.474C756.457 365.107 757.277 365.424 758.332 365.424H765V368.998H751.898V366.291L754.102 365.763V365.588C753.367 365.181 752.777 364.635 752.332 363.947C751.879 363.252 751.652 362.498 751.652 361.685ZM754.195 352.674C754.195 353.431 754.438 354.025 754.922 354.455C755.398 354.885 756.078 355.131 756.961 355.193V350.177C756.078 350.193 755.398 350.424 754.922 350.869C754.438 351.314 754.195 351.916 754.195 352.674ZM765.234 352.17C765.234 354.279 764.652 355.927 763.488 357.115C762.324 358.302 760.676 358.896 758.543 358.896C756.348 358.896 754.652 358.349 753.457 357.256C752.254 356.154 751.652 354.635 751.652 352.697C751.652 350.845 752.18 349.404 753.234 348.373C754.289 347.342 755.746 346.826 757.605 346.826H759.34V355.275C760.355 355.236 761.148 354.935 761.719 354.373C762.289 353.81 762.574 353.021 762.574 352.006C762.574 351.217 762.492 350.47 762.328 349.767C762.164 349.064 761.902 348.33 761.543 347.564H764.309C764.621 348.189 764.852 348.857 765 349.568C765.156 350.279 765.234 351.146 765.234 352.17ZM765 335.599L763.219 336.291V336.385C763.977 336.986 764.504 337.607 764.801 338.248C765.09 338.881 765.234 339.709 765.234 340.732C765.234 341.99 764.875 342.982 764.156 343.709C763.438 344.427 762.414 344.787 761.086 344.787C759.695 344.787 758.672 344.302 758.016 343.334C757.352 342.357 756.984 340.888 756.914 338.927L756.844 336.654H756.27C754.941 336.654 754.277 337.334 754.277 338.693C754.277 339.74 754.594 340.97 755.227 342.385L752.812 343.568C752.023 342.06 751.629 340.388 751.629 338.552C751.629 336.795 752.012 335.447 752.777 334.51C753.543 333.572 754.707 333.103 756.27 333.103H765V335.599ZM758.93 336.654L758.977 338.037C759.008 339.076 759.195 339.849 759.539 340.357C759.883 340.865 760.406 341.119 761.109 341.119C762.117 341.119 762.621 340.541 762.621 339.385C762.621 338.556 762.383 337.896 761.906 337.404C761.43 336.904 760.797 336.654 760.008 336.654H758.93ZM761.109 320.271C762.453 320.271 763.477 320.74 764.18 321.677C764.883 322.607 765.234 324.002 765.234 325.861C765.234 326.814 765.168 327.627 765.035 328.299C764.91 328.97 764.723 329.599 764.473 330.185H761.52C761.832 329.521 762.094 328.775 762.305 327.947C762.516 327.111 762.621 326.377 762.621 325.744C762.621 324.447 762.246 323.799 761.496 323.799C761.215 323.799 760.988 323.885 760.816 324.056C760.637 324.228 760.438 324.525 760.219 324.947C759.992 325.369 759.73 325.931 759.434 326.635C759.012 327.642 758.621 328.385 758.262 328.861C757.902 329.33 757.492 329.674 757.031 329.892C756.562 330.103 755.988 330.209 755.309 330.209C754.145 330.209 753.246 329.76 752.613 328.861C751.973 327.955 751.652 326.674 751.652 325.017C751.652 323.439 751.996 321.904 752.684 320.412L755.262 321.49C754.98 322.146 754.75 322.76 754.57 323.33C754.391 323.9 754.301 324.482 754.301 325.076C754.301 326.131 754.586 326.658 755.156 326.658C755.477 326.658 755.754 326.49 755.988 326.154C756.223 325.81 756.57 325.064 757.031 323.916C757.445 322.892 757.832 322.142 758.191 321.666C758.551 321.189 758.965 320.838 759.434 320.611C759.902 320.385 760.461 320.271 761.109 320.271ZM748.512 317.635C747.348 317.635 746.766 316.986 746.766 315.689C746.766 314.392 747.348 313.744 748.512 313.744C749.066 313.744 749.5 313.908 749.812 314.236C750.117 314.556 750.27 315.041 750.27 315.689C750.27 316.986 749.684 317.635 748.512 317.635ZM765 313.908V317.482H751.898V313.908H765ZM765 298.052V301.627H757.348C756.402 301.627 755.695 301.795 755.227 302.131C754.75 302.467 754.512 303.002 754.512 303.736C754.512 304.736 754.848 305.459 755.52 305.904C756.184 306.349 757.289 306.572 758.836 306.572H765V310.146H751.898V307.416L753.574 306.935V306.736C752.941 306.338 752.465 305.791 752.145 305.095C751.816 304.392 751.652 303.595 751.652 302.705C751.652 301.181 752.066 300.025 752.895 299.236C753.715 298.447 754.902 298.052 756.457 298.052H765ZM751.898 282.97H753.715L754.242 285.021C754.828 284.646 755.484 284.459 756.211 284.459C757.617 284.459 758.715 284.951 759.504 285.935C760.285 286.912 760.676 288.271 760.676 290.013L760.641 290.658L760.582 291.185C760.863 291.552 761.176 291.736 761.52 291.736C762.035 291.736 762.293 291.08 762.293 289.767V287.541C762.293 286.103 762.602 285.01 763.219 284.26C763.836 283.502 764.742 283.123 765.938 283.123C767.469 283.123 768.656 283.763 769.5 285.045C770.344 286.318 770.766 288.15 770.766 290.541C770.766 292.369 770.445 293.767 769.805 294.736C769.172 295.697 768.281 296.177 767.133 296.177C766.344 296.177 765.684 295.931 765.152 295.439C764.621 294.947 764.242 294.224 764.016 293.271C763.859 293.638 763.605 293.959 763.254 294.232C762.895 294.506 762.516 294.642 762.117 294.642C761.617 294.642 761.203 294.498 760.875 294.209C760.539 293.92 760.211 293.502 759.891 292.955C759.594 293.642 759.117 294.189 758.461 294.595C757.805 294.994 757.031 295.193 756.141 295.193C754.711 295.193 753.605 294.728 752.824 293.799C752.043 292.869 751.652 291.541 751.652 289.814C751.652 289.447 751.688 289.013 751.758 288.513C751.82 288.006 751.867 287.681 751.898 287.541V282.97ZM766.852 293.084C767.344 293.084 767.73 292.849 768.012 292.381C768.293 291.904 768.434 291.24 768.434 290.388C768.434 289.107 768.258 288.103 767.906 287.377C767.555 286.65 767.074 286.287 766.465 286.287C765.973 286.287 765.633 286.502 765.445 286.931C765.258 287.361 765.164 288.025 765.164 288.924V290.775C765.164 291.431 765.316 291.982 765.621 292.427C765.934 292.865 766.344 293.084 766.852 293.084ZM756.188 291.783C756.898 291.783 757.461 291.623 757.875 291.302C758.289 290.974 758.496 290.478 758.496 289.814C758.496 289.142 758.289 288.65 757.875 288.338C757.461 288.025 756.898 287.869 756.188 287.869C754.609 287.869 753.82 288.517 753.82 289.814C753.82 291.127 754.609 291.783 756.188 291.783ZM765 264.42V274.287H747.867V264.42H750.844V270.654H754.605V264.853H757.582V270.654H762V264.42H765ZM765 249.021V252.595H757.348C756.402 252.595 755.695 252.763 755.227 253.099C754.75 253.435 754.512 253.97 754.512 254.705C754.512 255.705 754.848 256.427 755.52 256.873C756.184 257.318 757.289 257.541 758.836 257.541H765V261.115H751.898V258.385L753.574 257.904V257.705C752.941 257.306 752.465 256.76 752.145 256.064C751.816 255.361 751.652 254.564 751.652 253.674C751.652 252.15 752.066 250.994 752.895 250.205C753.715 249.416 754.902 249.021 756.457 249.021H765ZM754.195 239.916C754.195 240.674 754.438 241.267 754.922 241.697C755.398 242.127 756.078 242.373 756.961 242.435V237.42C756.078 237.435 755.398 237.666 754.922 238.111C754.438 238.556 754.195 239.158 754.195 239.916ZM765.234 239.412C765.234 241.521 764.652 243.17 763.488 244.357C762.324 245.545 760.676 246.138 758.543 246.138C756.348 246.138 754.652 245.592 753.457 244.498C752.254 243.396 751.652 241.877 751.652 239.939C751.652 238.088 752.18 236.646 753.234 235.615C754.289 234.584 755.746 234.068 757.605 234.068H759.34V242.517C760.355 242.478 761.148 242.177 761.719 241.615C762.289 241.052 762.574 240.263 762.574 239.248C762.574 238.459 762.492 237.713 762.328 237.01C762.164 236.306 761.902 235.572 761.543 234.806H764.309C764.621 235.431 764.852 236.099 765 236.81C765.156 237.521 765.234 238.388 765.234 239.412ZM751.652 223.849C751.652 223.365 751.688 222.963 751.758 222.642L755.109 222.912C755.031 223.201 754.992 223.552 754.992 223.967C754.992 225.107 755.285 225.998 755.871 226.638C756.457 227.271 757.277 227.588 758.332 227.588H765V231.162H751.898V228.455L754.102 227.927V227.752C753.367 227.345 752.777 226.799 752.332 226.111C751.879 225.416 751.652 224.662 751.652 223.849ZM751.898 208.861H753.715L754.242 210.912C754.828 210.537 755.484 210.349 756.211 210.349C757.617 210.349 758.715 210.842 759.504 211.826C760.285 212.802 760.676 214.162 760.676 215.904L760.641 216.549L760.582 217.076C760.863 217.443 761.176 217.627 761.52 217.627C762.035 217.627 762.293 216.97 762.293 215.658V213.431C762.293 211.994 762.602 210.9 763.219 210.15C763.836 209.392 764.742 209.013 765.938 209.013C767.469 209.013 768.656 209.654 769.5 210.935C770.344 212.209 770.766 214.041 770.766 216.431C770.766 218.26 770.445 219.658 769.805 220.627C769.172 221.588 768.281 222.068 767.133 222.068C766.344 222.068 765.684 221.822 765.152 221.33C764.621 220.838 764.242 220.115 764.016 219.162C763.859 219.529 763.605 219.849 763.254 220.123C762.895 220.396 762.516 220.533 762.117 220.533C761.617 220.533 761.203 220.388 760.875 220.099C760.539 219.81 760.211 219.392 759.891 218.845C759.594 219.533 759.117 220.08 758.461 220.486C757.805 220.885 757.031 221.084 756.141 221.084C754.711 221.084 753.605 220.619 752.824 219.689C752.043 218.76 751.652 217.431 751.652 215.705C751.652 215.338 751.688 214.904 751.758 214.404C751.82 213.896 751.867 213.572 751.898 213.431V208.861ZM766.852 218.974C767.344 218.974 767.73 218.74 768.012 218.271C768.293 217.795 768.434 217.131 768.434 216.279C768.434 214.998 768.258 213.994 767.906 213.267C767.555 212.541 767.074 212.177 766.465 212.177C765.973 212.177 765.633 212.392 765.445 212.822C765.258 213.252 765.164 213.916 765.164 214.814V216.666C765.164 217.322 765.316 217.873 765.621 218.318C765.934 218.756 766.344 218.974 766.852 218.974ZM756.188 217.674C756.898 217.674 757.461 217.513 757.875 217.193C758.289 216.865 758.496 216.369 758.496 215.705C758.496 215.033 758.289 214.541 757.875 214.228C757.461 213.916 756.898 213.76 756.188 213.76C754.609 213.76 753.82 214.408 753.82 215.705C753.82 217.017 754.609 217.674 756.188 217.674ZM751.898 208.568V204.654L759.27 202.181C759.91 201.97 760.668 201.826 761.543 201.748V201.677C760.738 201.592 759.98 201.424 759.27 201.174L751.898 198.748V194.916L766.676 200.459C768.043 200.967 769.066 201.693 769.746 202.638C770.426 203.576 770.766 204.674 770.766 205.931C770.766 206.549 770.699 207.154 770.566 207.748H767.73C767.832 207.318 767.883 206.849 767.883 206.342C767.883 205.709 767.688 205.158 767.297 204.689C766.914 204.213 766.332 203.842 765.551 203.576L764.906 203.365L751.898 208.568Z" fill="#1A67C9"/>
</g>
<defs>
<clipPath id="clip0_146_1199">
<rect width="620" height="40" fill="white" transform="translate(24 28.9236)"/>
</clipPath>
<clipPath id="clip1_146_1199">
<rect width="620" height="40" fill="white" transform="translate(24 84.9236)"/>
</clipPath>
<clipPath id="clip2_146_1199">
<rect width="620" height="40" fill="white" transform="translate(24 140.924)"/>
</clipPath>
<clipPath id="clip3_146_1199">
<rect width="620" height="40" fill="white" transform="translate(24 196.924)"/>
</clipPath>
<clipPath id="clip4_146_1199">
<rect width="620" height="40" fill="white" transform="translate(24 252.924)"/>
</clipPath>
<clipPath id="clip5_146_1199">
<rect width="620" height="40" fill="white" transform="translate(24 308.924)"/>
</clipPath>
<clipPath id="clip6_146_1199">
<rect width="620" height="40" fill="white" transform="translate(24 364.924)"/>
</clipPath>
<clipPath id="clip7_146_1199">
<rect width="620" height="40" fill="white" transform="translate(24 420.924)"/>
</clipPath>
<clipPath id="clip8_146_1199">
<rect width="620" height="40" fill="white" transform="translate(24 476.924)"/>
</clipPath>
<clipPath id="clip9_146_1199">
<rect width="620" height="40" fill="white" transform="translate(24 532.924)"/>
</clipPath>
<clipPath id="clip10_146_1199">
<rect width="245" height="40" fill="white" transform="matrix(0 -1 1 0 736 423.424)"/>
</clipPath>
</defs>
</svg>
