<svg width="896" height="504" viewBox="0 0 896 504" fill="none" xmlns="http://www.w3.org/2000/svg">
<rect width="896" height="504" fill="white"/>
<rect x="16" y="208" width="48" height="48" fill="#1A67C9" fill-opacity="0.12"/>
<rect x="16" y="208" width="48" height="48" stroke="white" stroke-width="2"/>
<rect x="16" y="304" width="48" height="48" fill="#1A67C9" fill-opacity="0.12"/>
<rect x="16" y="304" width="48" height="48" stroke="white" stroke-width="2"/>
<rect x="16" y="112" width="48" height="48" fill="#1A67C9" fill-opacity="0.12"/>
<rect x="16" y="112" width="48" height="48" stroke="white" stroke-width="2"/>
<rect x="16" y="160" width="48" height="48" fill="#1A67C9" fill-opacity="0.12"/>
<rect x="16" y="160" width="48" height="48" stroke="white" stroke-width="2"/>
<rect x="16" y="256" width="48" height="48" fill="#1A67C9" fill-opacity="0.12"/>
<rect x="16" y="256" width="48" height="48" stroke="white" stroke-width="2"/>
<rect x="16" y="64" width="48" height="48" fill="#1A67C9" fill-opacity="0.12"/>
<rect x="16" y="64" width="48" height="48" stroke="white" stroke-width="2"/>
<rect x="832" y="208" width="48" height="48" fill="#8E0B37" fill-opacity="0.12"/>
<rect x="832" y="208" width="48" height="48" stroke="white" stroke-width="2"/>
<rect x="832" y="304" width="48" height="48" fill="#8E0B37" fill-opacity="0.12"/>
<rect x="832" y="304" width="48" height="48" stroke="white" stroke-width="2"/>
<rect x="832" y="112" width="48" height="48" fill="#8E0B37" fill-opacity="0.12"/>
<rect x="832" y="112" width="48" height="48" stroke="white" stroke-width="2"/>
<rect x="832" y="160" width="48" height="48" fill="#8E0B37" fill-opacity="0.12"/>
<rect x="832" y="160" width="48" height="48" stroke="white" stroke-width="2"/>
<rect x="832" y="256" width="48" height="48" fill="#8E0B37" fill-opacity="0.12"/>
<rect x="832" y="256" width="48" height="48" stroke="white" stroke-width="2"/>
<rect x="832" y="64" width="48" height="48" fill="#8E0B37" fill-opacity="0.12"/>
<rect x="832" y="64" width="48" height="48" stroke="white" stroke-width="2"/>
<rect x="64" y="64" width="48" height="48" fill="#942E27" fill-opacity="0.12"/>
<rect x="64" y="64" width="48" height="48" stroke="white" stroke-width="2"/>
<rect x="64" y="112" width="48" height="48" fill="#942E27" fill-opacity="0.12"/>
<rect x="64" y="112" width="48" height="48" stroke="white" stroke-width="2"/>
<rect x="64" y="160" width="48" height="48" fill="#942E27" fill-opacity="0.12"/>
<rect x="64" y="160" width="48" height="48" stroke="white" stroke-width="2"/>
<rect x="64" y="208" width="48" height="48" fill="#942E27" fill-opacity="0.12"/>
<rect x="64" y="208" width="48" height="48" stroke="white" stroke-width="2"/>
<rect x="64" y="256" width="48" height="48" fill="#942E27" fill-opacity="0.12"/>
<rect x="64" y="256" width="48" height="48" stroke="white" stroke-width="2"/>
<rect x="64" y="304" width="48" height="48" fill="#942E27" fill-opacity="0.12"/>
<rect x="64" y="304" width="48" height="48" stroke="white" stroke-width="2"/>
<rect x="592" y="64" width="48" height="48" fill="#8E6310" fill-opacity="0.12"/>
<rect x="592" y="64" width="48" height="48" stroke="white" stroke-width="2"/>
<rect x="592" y="112" width="48" height="48" fill="#17804B" fill-opacity="0.12"/>
<rect x="592" y="112" width="48" height="48" stroke="white" stroke-width="2"/>
<rect x="592" y="160" width="48" height="48" fill="#17804B" fill-opacity="0.12"/>
<rect x="592" y="160" width="48" height="48" stroke="white" stroke-width="2"/>
<rect x="592" y="208" width="48" height="48" fill="#17804B" fill-opacity="0.12"/>
<rect x="592" y="208" width="48" height="48" stroke="white" stroke-width="2"/>
<rect x="592" y="256" width="48" height="48" fill="#17804B" fill-opacity="0.12"/>
<rect x="592" y="256" width="48" height="48" stroke="white" stroke-width="2"/>
<rect x="592" y="304" width="48" height="48" fill="#17804B" fill-opacity="0.12"/>
<rect x="592" y="304" width="48" height="48" stroke="white" stroke-width="2"/>
<rect x="640" y="64" width="48" height="48" fill="#00998C" fill-opacity="0.12"/>
<rect x="640" y="64" width="48" height="48" stroke="white" stroke-width="2"/>
<rect x="640" y="112" width="48" height="48" fill="#8E6310" fill-opacity="0.12"/>
<rect x="640" y="112" width="48" height="48" stroke="white" stroke-width="2"/>
<rect x="640" y="160" width="48" height="48" fill="#8E6310" fill-opacity="0.12"/>
<rect x="640" y="160" width="48" height="48" stroke="white" stroke-width="2"/>
<rect x="640" y="208" width="48" height="48" fill="#17804B" fill-opacity="0.12"/>
<rect x="640" y="208" width="48" height="48" stroke="white" stroke-width="2"/>
<rect x="640" y="256" width="48" height="48" fill="#17804B" fill-opacity="0.12"/>
<rect x="640" y="256" width="48" height="48" stroke="white" stroke-width="2"/>
<rect x="640" y="304" width="48" height="48" fill="#17804B" fill-opacity="0.12"/>
<rect x="640" y="304" width="48" height="48" stroke="white" stroke-width="2"/>
<rect x="688" y="64" width="48" height="48" fill="#00998C" fill-opacity="0.12"/>
<rect x="688" y="64" width="48" height="48" stroke="white" stroke-width="2"/>
<rect x="688" y="112" width="48" height="48" fill="#00998C" fill-opacity="0.12"/>
<rect x="688" y="112" width="48" height="48" stroke="white" stroke-width="2"/>
<rect x="688" y="160" width="48" height="48" fill="#8E6310" fill-opacity="0.12"/>
<rect x="688" y="160" width="48" height="48" stroke="white" stroke-width="2"/>
<rect x="688" y="208" width="48" height="48" fill="#8E6310" fill-opacity="0.12"/>
<rect x="688" y="208" width="48" height="48" stroke="white" stroke-width="2"/>
<rect x="688" y="256" width="48" height="48" fill="#17804B" fill-opacity="0.12"/>
<rect x="688" y="256" width="48" height="48" stroke="white" stroke-width="2"/>
<rect x="688" y="304" width="48" height="48" fill="#17804B" fill-opacity="0.12"/>
<rect x="688" y="304" width="48" height="48" stroke="white" stroke-width="2"/>
<rect x="736" y="64" width="48" height="48" fill="#00998C" fill-opacity="0.12"/>
<rect x="736" y="64" width="48" height="48" stroke="white" stroke-width="2"/>
<rect x="736" y="112" width="48" height="48" fill="#00998C" fill-opacity="0.12"/>
<rect x="736" y="112" width="48" height="48" stroke="white" stroke-width="2"/>
<rect x="736" y="160" width="48" height="48" fill="#00998C" fill-opacity="0.12"/>
<rect x="736" y="160" width="48" height="48" stroke="white" stroke-width="2"/>
<rect x="736" y="208" width="48" height="48" fill="#8E6310" fill-opacity="0.12"/>
<rect x="736" y="208" width="48" height="48" stroke="white" stroke-width="2"/>
<rect x="736" y="256" width="48" height="48" fill="#8E6310" fill-opacity="0.12"/>
<rect x="736" y="256" width="48" height="48" stroke="white" stroke-width="2"/>
<rect x="736" y="304" width="48" height="48" fill="#17804B" fill-opacity="0.12"/>
<rect x="736" y="304" width="48" height="48" stroke="white" stroke-width="2"/>
<rect x="112" y="160" width="48" height="48" fill="#641B98" fill-opacity="0.12"/>
<rect x="112" y="160" width="48" height="48" stroke="white" stroke-width="2"/>
<rect x="112" y="208" width="48" height="48" fill="#641B98" fill-opacity="0.12"/>
<rect x="112" y="208" width="48" height="48" stroke="white" stroke-width="2"/>
<rect x="112" y="384" width="48" height="48" fill="#175E82" fill-opacity="0.12"/>
<rect x="112" y="384" width="48" height="48" stroke="white" stroke-width="2"/>
<rect x="160" y="384" width="48" height="48" fill="#175E82" fill-opacity="0.12"/>
<rect x="160" y="384" width="48" height="48" stroke="white" stroke-width="2"/>
<rect x="208" y="384" width="48" height="48" fill="#175E82" fill-opacity="0.12"/>
<rect x="208" y="384" width="48" height="48" stroke="white" stroke-width="2"/>
<rect x="256" y="384" width="48" height="48" fill="#175E82" fill-opacity="0.12"/>
<rect x="256" y="384" width="48" height="48" stroke="white" stroke-width="2"/>
<rect x="304" y="384" width="48" height="48" fill="#175E82" fill-opacity="0.12"/>
<rect x="304" y="384" width="48" height="48" stroke="white" stroke-width="2"/>
<rect x="352" y="384" width="48" height="48" fill="#175E82" fill-opacity="0.12"/>
<rect x="352" y="384" width="48" height="48" stroke="white" stroke-width="2"/>
<rect x="400" y="384" width="48" height="48" fill="#175E82" fill-opacity="0.12"/>
<rect x="400" y="384" width="48" height="48" stroke="white" stroke-width="2"/>
<rect x="448" y="384" width="48" height="48" fill="#175E82" fill-opacity="0.12"/>
<rect x="448" y="384" width="48" height="48" stroke="white" stroke-width="2"/>
<rect x="496" y="384" width="48" height="48" fill="#175E82" fill-opacity="0.12"/>
<rect x="496" y="384" width="48" height="48" stroke="white" stroke-width="2"/>
<rect x="544" y="384" width="48" height="48" fill="#175E82" fill-opacity="0.12"/>
<rect x="544" y="384" width="48" height="48" stroke="white" stroke-width="2"/>
<rect x="592" y="384" width="48" height="48" fill="#175E82" fill-opacity="0.12"/>
<rect x="592" y="384" width="48" height="48" stroke="white" stroke-width="2"/>
<rect x="640" y="384" width="48" height="48" fill="#175E82" fill-opacity="0.12"/>
<rect x="640" y="384" width="48" height="48" stroke="white" stroke-width="2"/>
<rect x="688" y="384" width="48" height="48" fill="#175E82" fill-opacity="0.12"/>
<rect x="688" y="384" width="48" height="48" stroke="white" stroke-width="2"/>
<rect x="736" y="384" width="48" height="48" fill="#175E82" fill-opacity="0.12"/>
<rect x="736" y="384" width="48" height="48" stroke="white" stroke-width="2"/>
<rect x="784" y="384" width="48" height="48" fill="#175E82" fill-opacity="0.12"/>
<rect x="784" y="384" width="48" height="48" stroke="white" stroke-width="2"/>
<rect x="208" y="432" width="48" height="48" fill="#81314C" fill-opacity="0.12"/>
<rect x="208" y="432" width="48" height="48" stroke="white" stroke-width="2"/>
<rect x="256" y="432" width="48" height="48" fill="#81314C" fill-opacity="0.12"/>
<rect x="256" y="432" width="48" height="48" stroke="white" stroke-width="2"/>
<rect x="304" y="432" width="48" height="48" fill="#81314C" fill-opacity="0.12"/>
<rect x="304" y="432" width="48" height="48" stroke="white" stroke-width="2"/>
<rect x="352" y="432" width="48" height="48" fill="#81314C" fill-opacity="0.12"/>
<rect x="352" y="432" width="48" height="48" stroke="white" stroke-width="2"/>
<rect x="400" y="432" width="48" height="48" fill="#81314C" fill-opacity="0.12"/>
<rect x="400" y="432" width="48" height="48" stroke="white" stroke-width="2"/>
<rect x="448" y="432" width="48" height="48" fill="#81314C" fill-opacity="0.12"/>
<rect x="448" y="432" width="48" height="48" stroke="white" stroke-width="2"/>
<rect x="496" y="432" width="48" height="48" fill="#81314C" fill-opacity="0.12"/>
<rect x="496" y="432" width="48" height="48" stroke="white" stroke-width="2"/>
<rect x="544" y="432" width="48" height="48" fill="#81314C" fill-opacity="0.12"/>
<rect x="544" y="432" width="48" height="48" stroke="white" stroke-width="2"/>
<rect x="592" y="432" width="48" height="48" fill="#81314C" fill-opacity="0.12"/>
<rect x="592" y="432" width="48" height="48" stroke="white" stroke-width="2"/>
<rect x="640" y="432" width="48" height="48" fill="#81314C" fill-opacity="0.12"/>
<rect x="640" y="432" width="48" height="48" stroke="white" stroke-width="2"/>
<rect x="688" y="432" width="48" height="48" fill="#81314C" fill-opacity="0.12"/>
<rect x="688" y="432" width="48" height="48" stroke="white" stroke-width="2"/>
<rect x="736" y="432" width="48" height="48" fill="#81314C" fill-opacity="0.12"/>
<rect x="736" y="432" width="48" height="48" stroke="white" stroke-width="2"/>
<rect x="784" y="432" width="48" height="48" fill="#81314C" fill-opacity="0.12"/>
<rect x="784" y="432" width="48" height="48" stroke="white" stroke-width="2"/>
<rect x="112" y="432" width="48" height="48" fill="#81314C" fill-opacity="0.12"/>
<rect x="112" y="432" width="48" height="48" stroke="white" stroke-width="2"/>
<rect x="160" y="160" width="48" height="48" fill="#641B98" fill-opacity="0.12"/>
<rect x="160" y="160" width="48" height="48" stroke="white" stroke-width="2"/>
<rect x="160" y="208" width="48" height="48" fill="#641B98" fill-opacity="0.12"/>
<rect x="160" y="208" width="48" height="48" stroke="white" stroke-width="2"/>
<rect x="160" y="256" width="48" height="48" fill="#641B98" fill-opacity="0.12"/>
<rect x="160" y="256" width="48" height="48" stroke="white" stroke-width="2"/>
<rect x="160" y="304" width="48" height="48" fill="#641B98" fill-opacity="0.12"/>
<rect x="160" y="304" width="48" height="48" stroke="white" stroke-width="2"/>
<rect x="208" y="160" width="48" height="48" fill="#641B98" fill-opacity="0.12"/>
<rect x="208" y="160" width="48" height="48" stroke="white" stroke-width="2"/>
<rect x="208" y="208" width="48" height="48" fill="#641B98" fill-opacity="0.12"/>
<rect x="208" y="208" width="48" height="48" stroke="white" stroke-width="2"/>
<rect x="208" y="256" width="48" height="48" fill="#641B98" fill-opacity="0.12"/>
<rect x="208" y="256" width="48" height="48" stroke="white" stroke-width="2"/>
<rect x="208" y="304" width="48" height="48" fill="#641B98" fill-opacity="0.12"/>
<rect x="208" y="304" width="48" height="48" stroke="white" stroke-width="2"/>
<rect x="256" y="160" width="48" height="48" fill="#641B98" fill-opacity="0.12"/>
<rect x="256" y="160" width="48" height="48" stroke="white" stroke-width="2"/>
<rect x="256" y="208" width="48" height="48" fill="#641B98" fill-opacity="0.12"/>
<rect x="256" y="208" width="48" height="48" stroke="white" stroke-width="2"/>
<rect x="256" y="256" width="48" height="48" fill="#641B98" fill-opacity="0.12"/>
<rect x="256" y="256" width="48" height="48" stroke="white" stroke-width="2"/>
<rect x="256" y="304" width="48" height="48" fill="#641B98" fill-opacity="0.12"/>
<rect x="256" y="304" width="48" height="48" stroke="white" stroke-width="2"/>
<rect x="304" y="160" width="48" height="48" fill="#641B98" fill-opacity="0.12"/>
<rect x="304" y="160" width="48" height="48" stroke="white" stroke-width="2"/>
<rect x="304" y="208" width="48" height="48" fill="#641B98" fill-opacity="0.12"/>
<rect x="304" y="208" width="48" height="48" stroke="white" stroke-width="2"/>
<rect x="304" y="256" width="48" height="48" fill="#641B98" fill-opacity="0.12"/>
<rect x="304" y="256" width="48" height="48" stroke="white" stroke-width="2"/>
<rect x="304" y="304" width="48" height="48" fill="#641B98" fill-opacity="0.12"/>
<rect x="304" y="304" width="48" height="48" stroke="white" stroke-width="2"/>
<rect x="352" y="160" width="48" height="48" fill="#641B98" fill-opacity="0.12"/>
<rect x="352" y="160" width="48" height="48" stroke="white" stroke-width="2"/>
<rect x="352" y="208" width="48" height="48" fill="#641B98" fill-opacity="0.12"/>
<rect x="352" y="208" width="48" height="48" stroke="white" stroke-width="2"/>
<rect x="352" y="256" width="48" height="48" fill="#641B98" fill-opacity="0.12"/>
<rect x="352" y="256" width="48" height="48" stroke="white" stroke-width="2"/>
<rect x="400" y="160" width="48" height="48" fill="#641B98" fill-opacity="0.12"/>
<rect x="400" y="160" width="48" height="48" stroke="white" stroke-width="2"/>
<rect x="400" y="208" width="48" height="48" fill="#641B98" fill-opacity="0.12"/>
<rect x="400" y="208" width="48" height="48" stroke="white" stroke-width="2"/>
<rect x="400" y="256" width="48" height="48" fill="#641B98" fill-opacity="0.12"/>
<rect x="400" y="256" width="48" height="48" stroke="white" stroke-width="2"/>
<rect x="448" y="160" width="48" height="48" fill="#641B98" fill-opacity="0.12"/>
<rect x="448" y="160" width="48" height="48" stroke="white" stroke-width="2"/>
<rect x="448" y="208" width="48" height="48" fill="#641B98" fill-opacity="0.12"/>
<rect x="448" y="208" width="48" height="48" stroke="white" stroke-width="2"/>
<rect x="448" y="256" width="48" height="48" fill="#641B98" fill-opacity="0.12"/>
<rect x="448" y="256" width="48" height="48" stroke="white" stroke-width="2"/>
<rect x="496" y="160" width="48" height="48" fill="#641B98" fill-opacity="0.12"/>
<rect x="496" y="160" width="48" height="48" stroke="white" stroke-width="2"/>
<rect x="496" y="208" width="48" height="48" fill="#641B98" fill-opacity="0.12"/>
<rect x="496" y="208" width="48" height="48" stroke="white" stroke-width="2"/>
<rect x="496" y="256" width="48" height="48" fill="#641B98" fill-opacity="0.12"/>
<rect x="496" y="256" width="48" height="48" stroke="white" stroke-width="2"/>
<rect x="544" y="160" width="48" height="48" fill="#641B98" fill-opacity="0.12"/>
<rect x="544" y="160" width="48" height="48" stroke="white" stroke-width="2"/>
<rect x="544" y="208" width="48" height="48" fill="#641B98" fill-opacity="0.12"/>
<rect x="544" y="208" width="48" height="48" stroke="white" stroke-width="2"/>
<rect x="544" y="256" width="48" height="48" fill="#641B98" fill-opacity="0.12"/>
<rect x="544" y="256" width="48" height="48" stroke="white" stroke-width="2"/>
<rect x="400" y="304" width="48" height="48" fill="#641B98" fill-opacity="0.12"/>
<rect x="400" y="304" width="48" height="48" stroke="white" stroke-width="2"/>
<rect x="448" y="304" width="48" height="48" fill="#641B98" fill-opacity="0.12"/>
<rect x="448" y="304" width="48" height="48" stroke="white" stroke-width="2"/>
<rect x="496" y="304" width="48" height="48" fill="#641B98" fill-opacity="0.12"/>
<rect x="496" y="304" width="48" height="48" stroke="white" stroke-width="2"/>
<rect x="544" y="304" width="48" height="48" fill="#641B98" fill-opacity="0.12"/>
<rect x="544" y="304" width="48" height="48" stroke="white" stroke-width="2"/>
<rect x="352" y="304" width="48" height="48" fill="#641B98" fill-opacity="0.12"/>
<rect x="352" y="304" width="48" height="48" stroke="white" stroke-width="2"/>
<rect x="160" y="432" width="48" height="48" fill="#81314C" fill-opacity="0.12"/>
<rect x="160" y="432" width="48" height="48" stroke="white" stroke-width="2"/>
<rect x="784" y="64" width="48" height="48" fill="#131B6C" fill-opacity="0.12"/>
<rect x="784" y="64" width="48" height="48" stroke="white" stroke-width="2"/>
<rect x="784" y="112" width="48" height="48" fill="#131B6C" fill-opacity="0.12"/>
<rect x="784" y="112" width="48" height="48" stroke="white" stroke-width="2"/>
<rect x="784" y="160" width="48" height="48" fill="#131B6C" fill-opacity="0.12"/>
<rect x="784" y="160" width="48" height="48" stroke="white" stroke-width="2"/>
<rect x="784" y="208" width="48" height="48" fill="#131B6C" fill-opacity="0.12"/>
<rect x="784" y="208" width="48" height="48" stroke="white" stroke-width="2"/>
<rect x="784" y="256" width="48" height="48" fill="#131B6C" fill-opacity="0.12"/>
<rect x="784" y="256" width="48" height="48" stroke="white" stroke-width="2"/>
<rect x="784" y="304" width="48" height="48" fill="#131B6C" fill-opacity="0.12"/>
<rect x="784" y="304" width="48" height="48" stroke="white" stroke-width="2"/>
<rect x="112.5" y="256.5" width="47" height="47" fill="#175E82" fill-opacity="0.12"/>
<rect x="112.5" y="256.5" width="47" height="47" stroke="white"/>
<rect x="112.5" y="304.5" width="47" height="47" fill="#81314C" fill-opacity="0.12"/>
<rect x="112.5" y="304.5" width="47" height="47" stroke="white"/>
<path d="M808 40L798 45.7735V34.2265L808 40ZM88 40L98 34.2265V45.7735L88 40ZM799 41L97 41V39L799 39V41Z" fill="#1A67C9"/>
<rect x="830" y="14" width="52" height="52" stroke="#8E0B37" stroke-width="4"/>
<rect x="832" y="16" width="48" height="48" fill="#8E0B37" fill-opacity="0.12"/>
<rect x="832" y="16" width="48" height="48" stroke="white" stroke-width="2"/>
<path d="M858.18 28H853.829V27.2222L855.495 25.5347C855.817 25.2065 856.082 24.9238 856.29 24.6865C856.498 24.4463 856.652 24.2192 856.751 24.0054C856.854 23.7915 856.905 23.5586 856.905 23.3066C856.905 22.9961 856.816 22.7617 856.637 22.6035C856.458 22.4424 856.223 22.3618 855.93 22.3618C855.651 22.3618 855.394 22.4175 855.156 22.5288C854.922 22.6372 854.679 22.7925 854.427 22.9946L853.86 22.3135C854.039 22.1611 854.229 22.022 854.431 21.896C854.636 21.77 854.865 21.6704 855.117 21.5972C855.369 21.521 855.656 21.4829 855.978 21.4829C856.385 21.4829 856.737 21.5562 857.033 21.7026C857.329 21.8462 857.556 22.0469 857.714 22.3047C857.875 22.5625 857.956 22.8628 857.956 23.2056C857.956 23.5513 857.887 23.8706 857.749 24.1636C857.611 24.4565 857.415 24.7466 857.16 25.0337C856.905 25.3179 856.602 25.627 856.25 25.9609L855.139 27.0464V27.0947H858.18V28Z" fill="#8E0B37"/>
<path d="M855.938 48.5H853.223V42.9541H848.134V48.5H845.409V35.6504H848.134V40.6865H853.223V35.6504H855.938V48.5ZM863.031 38.4893C863.939 38.4893 864.722 38.665 865.378 39.0166C866.034 39.3623 866.541 39.8662 866.898 40.5283C867.256 41.1904 867.435 41.999 867.435 42.9541V44.2549H861.098C861.127 45.0107 861.353 45.6055 861.774 46.0391C862.202 46.4668 862.794 46.6807 863.55 46.6807C864.177 46.6807 864.751 46.6162 865.272 46.4873C865.794 46.3584 866.33 46.165 866.881 45.9072V47.9814C866.395 48.2217 865.885 48.3975 865.352 48.5088C864.824 48.6201 864.183 48.6758 863.427 48.6758C862.442 48.6758 861.569 48.4941 860.808 48.1309C860.052 47.7676 859.457 47.2139 859.023 46.4697C858.596 45.7256 858.382 44.7881 858.382 43.6572C858.382 42.5088 858.575 41.5537 858.962 40.792C859.354 40.0244 859.899 39.4502 860.597 39.0693C861.294 38.6826 862.105 38.4893 863.031 38.4893ZM863.049 40.3965C862.527 40.3965 862.094 40.5635 861.748 40.8975C861.408 41.2314 861.212 41.7559 861.159 42.4707H864.921C864.915 42.0723 864.842 41.7178 864.701 41.4072C864.566 41.0967 864.361 40.8506 864.086 40.6689C863.816 40.4873 863.471 40.3965 863.049 40.3965Z" fill="#8E0B37"/>
<path d="M853.352 58.0596H852.771V59H852.092V58.0596H850.144V57.5381L852.101 54.7051H852.771V57.4883H853.352V58.0596ZM852.092 57.4883V56.4248C852.092 56.3369 852.093 56.248 852.095 56.1582C852.099 56.0664 852.103 55.9785 852.106 55.8945C852.11 55.8105 852.114 55.7334 852.118 55.6631C852.122 55.5908 852.125 55.5312 852.127 55.4844H852.104C852.066 55.5625 852.025 55.6426 851.98 55.7246C851.936 55.8047 851.888 55.8828 851.837 55.959L850.782 57.4883H852.092ZM853.853 58.6367C853.853 58.4766 853.894 58.3643 853.976 58.2998C854.06 58.2334 854.161 58.2002 854.28 58.2002C854.399 58.2002 854.501 58.2334 854.585 58.2998C854.671 58.3643 854.714 58.4766 854.714 58.6367C854.714 58.793 854.671 58.9062 854.585 58.9766C854.501 59.0449 854.399 59.0791 854.28 59.0791C854.161 59.0791 854.06 59.0449 853.976 58.9766C853.894 58.9062 853.853 58.793 853.853 58.6367ZM858.276 56.8555C858.276 57.2012 858.249 57.5107 858.194 57.7842C858.142 58.0557 858.058 58.2861 857.942 58.4756C857.827 58.665 857.677 58.8096 857.491 58.9092C857.306 59.0088 857.081 59.0586 856.817 59.0586C856.487 59.0586 856.215 58.9717 856 58.7979C855.785 58.6221 855.626 58.3701 855.522 58.042C855.419 57.7119 855.367 57.3164 855.367 56.8555C855.367 56.3945 855.414 56 855.508 55.6719C855.604 55.3418 855.758 55.0889 855.971 54.9131C856.184 54.7373 856.466 54.6494 856.817 54.6494C857.149 54.6494 857.423 54.7373 857.638 54.9131C857.854 55.0869 858.015 55.3389 858.118 55.6689C858.224 55.9971 858.276 56.3926 858.276 56.8555ZM856.062 56.8555C856.062 57.2168 856.085 57.5186 856.132 57.7607C856.181 58.0029 856.261 58.1846 856.372 58.3057C856.483 58.4248 856.632 58.4844 856.817 58.4844C857.003 58.4844 857.151 58.4248 857.263 58.3057C857.374 58.1865 857.454 58.0059 857.503 57.7637C857.554 57.5215 857.579 57.2188 857.579 56.8555C857.579 56.4961 857.555 56.1953 857.506 55.9531C857.457 55.7109 857.377 55.5293 857.266 55.4082C857.154 55.2852 857.005 55.2236 856.817 55.2236C856.63 55.2236 856.48 55.2852 856.369 55.4082C856.26 55.5293 856.181 55.7109 856.132 55.9531C856.085 56.1953 856.062 56.4961 856.062 56.8555ZM861.71 56.8555C861.71 57.2012 861.683 57.5107 861.628 57.7842C861.575 58.0557 861.491 58.2861 861.376 58.4756C861.261 58.665 861.11 58.8096 860.925 58.9092C860.739 59.0088 860.515 59.0586 860.251 59.0586C859.921 59.0586 859.648 58.9717 859.434 58.7979C859.219 58.6221 859.06 58.3701 858.956 58.042C858.853 57.7119 858.801 57.3164 858.801 56.8555C858.801 56.3945 858.848 56 858.941 55.6719C859.037 55.3418 859.191 55.0889 859.404 54.9131C859.617 54.7373 859.899 54.6494 860.251 54.6494C860.583 54.6494 860.856 54.7373 861.071 54.9131C861.288 55.0869 861.448 55.3389 861.552 55.6689C861.657 55.9971 861.71 56.3926 861.71 56.8555ZM859.495 56.8555C859.495 57.2168 859.519 57.5186 859.565 57.7607C859.614 58.0029 859.694 58.1846 859.806 58.3057C859.917 58.4248 860.065 58.4844 860.251 58.4844C860.437 58.4844 860.585 58.4248 860.696 58.3057C860.808 58.1865 860.888 58.0059 860.937 57.7637C860.987 57.5215 861.013 57.2188 861.013 56.8555C861.013 56.4961 860.988 56.1953 860.939 55.9531C860.891 55.7109 860.811 55.5293 860.699 55.4082C860.588 55.2852 860.438 55.2236 860.251 55.2236C860.063 55.2236 859.914 55.2852 859.803 55.4082C859.693 55.5293 859.614 55.7109 859.565 55.9531C859.519 56.1953 859.495 56.4961 859.495 56.8555Z" fill="#8E0B37"/>
<rect x="14" y="14" width="52" height="52" stroke="#006666" stroke-width="4"/>
<rect x="16" y="16" width="48" height="48" fill="#00998C" fill-opacity="0.12"/>
<rect x="16" y="16" width="48" height="48" stroke="white" stroke-width="2"/>
<path d="M40.8657 28H39.8286V23.8647C39.8286 23.7271 39.8301 23.5894 39.833 23.4517C39.8359 23.314 39.8389 23.1792 39.8418 23.0474C39.8477 22.9155 39.855 22.7896 39.8638 22.6694C39.8022 22.7368 39.7261 22.8101 39.6353 22.8892C39.5474 22.9683 39.4536 23.0503 39.354 23.1353L38.6157 23.7241L38.0972 23.0693L40.0044 21.5752H40.8657V28Z" fill="#006666"/>
<path d="M45.2559 48.5H42.54V42.9541H37.4512V48.5H34.7266V35.6504H37.4512V40.6865H42.54V35.6504H45.2559V48.5Z" fill="#006666"/>
<path d="M36.3203 59H35.6289V56.2432C35.6289 56.1514 35.6299 56.0596 35.6318 55.9678C35.6338 55.876 35.6357 55.7861 35.6377 55.6982C35.6416 55.6104 35.6465 55.5264 35.6523 55.4463C35.6113 55.4912 35.5605 55.54 35.5 55.5928C35.4414 55.6455 35.3789 55.7002 35.3125 55.7568L34.8203 56.1494L34.4746 55.7129L35.7461 54.7168H36.3203V59ZM37.8525 58.6367C37.8525 58.4766 37.8936 58.3643 37.9756 58.2998C38.0596 58.2334 38.1611 58.2002 38.2803 58.2002C38.3994 58.2002 38.501 58.2334 38.585 58.2998C38.6709 58.3643 38.7139 58.4766 38.7139 58.6367C38.7139 58.793 38.6709 58.9062 38.585 58.9766C38.501 59.0449 38.3994 59.0791 38.2803 59.0791C38.1611 59.0791 38.0596 59.0449 37.9756 58.9766C37.8936 58.9062 37.8525 58.793 37.8525 58.6367ZM42.2764 56.8555C42.2764 57.2012 42.249 57.5107 42.1943 57.7842C42.1416 58.0557 42.0576 58.2861 41.9424 58.4756C41.8271 58.665 41.6768 58.8096 41.4912 58.9092C41.3057 59.0088 41.0811 59.0586 40.8174 59.0586C40.4873 59.0586 40.2148 58.9717 40 58.7979C39.7852 58.6221 39.626 58.3701 39.5225 58.042C39.4189 57.7119 39.3672 57.3164 39.3672 56.8555C39.3672 56.3945 39.4141 56 39.5078 55.6719C39.6035 55.3418 39.7578 55.0889 39.9707 54.9131C40.1836 54.7373 40.4658 54.6494 40.8174 54.6494C41.1494 54.6494 41.4229 54.7373 41.6377 54.9131C41.8545 55.0869 42.0146 55.3389 42.1182 55.6689C42.2236 55.9971 42.2764 56.3926 42.2764 56.8555ZM40.0615 56.8555C40.0615 57.2168 40.085 57.5186 40.1318 57.7607C40.1807 58.0029 40.2607 58.1846 40.3721 58.3057C40.4834 58.4248 40.6318 58.4844 40.8174 58.4844C41.0029 58.4844 41.1514 58.4248 41.2627 58.3057C41.374 58.1865 41.4541 58.0059 41.5029 57.7637C41.5537 57.5215 41.5791 57.2188 41.5791 56.8555C41.5791 56.4961 41.5547 56.1953 41.5059 55.9531C41.457 55.7109 41.377 55.5293 41.2656 55.4082C41.1543 55.2852 41.0049 55.2236 40.8174 55.2236C40.6299 55.2236 40.4805 55.2852 40.3691 55.4082C40.2598 55.5293 40.1807 55.7109 40.1318 55.9531C40.085 56.1953 40.0615 56.4961 40.0615 56.8555ZM44.834 59H44.1426V56.2432C44.1426 56.1514 44.1436 56.0596 44.1455 55.9678C44.1475 55.876 44.1494 55.7861 44.1514 55.6982C44.1553 55.6104 44.1602 55.5264 44.166 55.4463C44.125 55.4912 44.0742 55.54 44.0137 55.5928C43.9551 55.6455 43.8926 55.7002 43.8262 55.7568L43.334 56.1494L42.9883 55.7129L44.2598 54.7168H44.834V59Z" fill="#006666"/>
</svg>
