<svg width="320" height="369" viewBox="0 0 320 369" fill="none" xmlns="http://www.w3.org/2000/svg">
<rect width="320" height="368" transform="translate(0 0.125732)" fill="white"/>
<circle cx="160" cy="160.126" r="96" stroke="#161326" stroke-width="4"/>
<circle cx="160" cy="160.126" r="128" stroke="#161326" stroke-width="4"/>
<path d="M98 160.126C98 125.884 125.758 98.1257 160 98.1257C194.242 98.1257 222 125.884 222 160.126C222 194.367 194.242 222.126 160 222.126C125.758 222.126 98 194.367 98 160.126Z" fill="#1A67C9" fill-opacity="0.12"/>
<path d="M98 160.126C98 125.884 125.758 98.1257 160 98.1257C194.242 98.1257 222 125.884 222 160.126C222 194.367 194.242 222.126 160 222.126C125.758 222.126 98 194.367 98 160.126Z" stroke="#1A67C9" stroke-width="4"/>
<path d="M143.406 179.126V144.86H150.672V173.126H164.57V179.126H143.406ZM177.133 152.923V179.126H169.984V152.923H177.133ZM173.57 142.657C174.633 142.657 175.547 142.907 176.312 143.407C177.078 143.891 177.461 144.805 177.461 146.149C177.461 147.477 177.078 148.399 176.312 148.915C175.547 149.415 174.633 149.665 173.57 149.665C172.492 149.665 171.57 149.415 170.805 148.915C170.055 148.399 169.68 147.477 169.68 146.149C169.68 144.805 170.055 143.891 170.805 143.407C171.57 142.907 172.492 142.657 173.57 142.657Z" fill="#1A67C9"/>
<circle cx="256" cy="344.126" r="10" fill="#7BCDE9" stroke="#161326" stroke-width="4"/>
<path d="M286.84 349.423C286.84 350.274 286.633 350.993 286.219 351.579C285.805 352.165 285.199 352.61 284.402 352.915C283.613 353.212 282.645 353.36 281.496 353.36C280.59 353.36 279.809 353.294 279.152 353.161C278.504 353.036 277.891 352.841 277.312 352.575V350.196C277.93 350.485 278.621 350.735 279.387 350.946C280.16 351.157 280.891 351.262 281.578 351.262C282.484 351.262 283.137 351.122 283.535 350.841C283.934 350.552 284.133 350.169 284.133 349.692C284.133 349.411 284.051 349.161 283.887 348.942C283.73 348.716 283.434 348.485 282.996 348.251C282.566 348.009 281.934 347.719 281.098 347.384C280.277 347.055 279.586 346.727 279.023 346.399C278.461 346.071 278.035 345.677 277.746 345.216C277.457 344.747 277.312 344.149 277.312 343.423C277.312 342.274 277.766 341.403 278.672 340.809C279.586 340.208 280.793 339.907 282.293 339.907C283.09 339.907 283.84 339.989 284.543 340.153C285.254 340.309 285.949 340.54 286.629 340.844L285.762 342.919C285.176 342.661 284.586 342.45 283.992 342.286C283.406 342.114 282.809 342.028 282.199 342.028C281.488 342.028 280.945 342.137 280.57 342.356C280.203 342.575 280.02 342.887 280.02 343.294C280.02 343.598 280.109 343.856 280.289 344.067C280.469 344.278 280.777 344.489 281.215 344.7C281.66 344.911 282.277 345.173 283.066 345.485C283.84 345.782 284.508 346.094 285.07 346.423C285.641 346.743 286.078 347.137 286.383 347.606C286.688 348.075 286.84 348.68 286.84 349.423Z" fill="#161326"/>
<circle cx="144" cy="32.1257" r="10" fill="#7BCDE9" stroke="#161326" stroke-width="4"/>
<circle cx="144" cy="64.1257" r="10" fill="#7BCDE9" stroke="#161326" stroke-width="4"/>
<circle cx="176" cy="64.1257" r="10" fill="#7BCDE9" stroke="#161326" stroke-width="4"/>
<g clip-path="url(#clip0_203_936)">
<path d="M211.96 228.086C211.96 219.25 219.124 212.086 227.96 212.086C236.797 212.086 243.96 219.25 243.96 228.086C243.96 236.923 236.797 244.086 227.96 244.086C219.124 244.086 211.96 236.923 211.96 228.086Z" fill="white"/>
<path d="M230.269 237.086H227.503V226.059C227.503 225.692 227.507 225.324 227.515 224.957C227.523 224.59 227.531 224.231 227.539 223.879C227.554 223.528 227.574 223.192 227.597 222.871C227.433 223.051 227.23 223.246 226.988 223.457C226.753 223.668 226.503 223.887 226.238 224.114L224.269 225.684L222.886 223.938L227.972 219.953H230.269V237.086Z" fill="#161326"/>
<path d="M234.588 250.713C234.588 241.877 241.752 234.713 250.588 234.713C259.425 234.713 266.588 241.877 266.588 250.713C266.588 259.55 259.425 266.713 250.588 266.713C241.752 266.713 234.588 259.55 234.588 250.713Z" fill="white"/>
<path d="M256.401 259.713H244.799V257.639L249.24 253.139C250.1 252.264 250.807 251.51 251.362 250.877C251.916 250.237 252.326 249.631 252.592 249.061C252.865 248.491 253.002 247.87 253.002 247.198C253.002 246.37 252.764 245.745 252.287 245.323C251.811 244.893 251.182 244.678 250.401 244.678C249.658 244.678 248.971 244.827 248.338 245.124C247.713 245.413 247.065 245.827 246.393 246.366L244.881 244.549C245.358 244.143 245.865 243.772 246.404 243.436C246.951 243.1 247.561 242.834 248.233 242.639C248.904 242.436 249.67 242.334 250.529 242.334C251.615 242.334 252.553 242.53 253.342 242.92C254.131 243.303 254.737 243.838 255.158 244.526C255.588 245.213 255.803 246.014 255.803 246.928C255.803 247.85 255.619 248.702 255.252 249.483C254.885 250.264 254.362 251.038 253.682 251.803C253.002 252.561 252.194 253.385 251.256 254.276L248.291 257.17V257.299H256.401V259.713Z" fill="#161326"/>
</g>
<defs>
<clipPath id="clip0_203_936">
<rect width="384" height="32" fill="white" transform="translate(35.6274 13.1257) rotate(45)"/>
</clipPath>
</defs>
</svg>
