<svg width="320" height="368" viewBox="0 0 320 368" fill="none" xmlns="http://www.w3.org/2000/svg">
<rect width="320" height="368" fill="white"/>
<circle cx="160" cy="160" r="96" stroke="#161326" stroke-width="4"/>
<circle cx="160" cy="160" r="128" stroke="#161326" stroke-width="4"/>
<path d="M160 222C125.758 222 98 194.242 98 160C98 125.758 125.758 98 160 98C194.242 98 222 125.758 222 160C222 194.242 194.242 222 160 222Z" fill="#F8C863"/>
<path d="M160 222C125.758 222 98 194.242 98 160C98 125.758 125.758 98 160 98C194.242 98 222 125.758 222 160C222 194.242 194.242 222 160 222Z" stroke="black" stroke-width="4"/>
<path d="M143.406 179V144.734H150.672V173H164.57V179H143.406ZM177.133 152.797V179H169.984V152.797H177.133ZM173.57 142.531C174.633 142.531 175.547 142.781 176.312 143.281C177.078 143.766 177.461 144.68 177.461 146.023C177.461 147.352 177.078 148.273 176.312 148.789C175.547 149.289 174.633 149.539 173.57 149.539C172.492 149.539 171.57 149.289 170.805 148.789C170.055 148.273 169.68 147.352 169.68 146.023C169.68 144.68 170.055 143.766 170.805 143.281C171.57 142.781 172.492 142.531 173.57 142.531Z" fill="#161326"/>
<circle cx="256" cy="344" r="10" fill="#7BCDE9" stroke="black" stroke-width="4"/>
<path d="M286.84 349.297C286.84 350.148 286.633 350.867 286.219 351.453C285.805 352.039 285.199 352.484 284.402 352.789C283.613 353.086 282.645 353.234 281.496 353.234C280.59 353.234 279.809 353.168 279.152 353.035C278.504 352.91 277.891 352.715 277.312 352.449V350.07C277.93 350.359 278.621 350.609 279.387 350.82C280.16 351.031 280.891 351.137 281.578 351.137C282.484 351.137 283.137 350.996 283.535 350.715C283.934 350.426 284.133 350.043 284.133 349.566C284.133 349.285 284.051 349.035 283.887 348.816C283.73 348.59 283.434 348.359 282.996 348.125C282.566 347.883 281.934 347.594 281.098 347.258C280.277 346.93 279.586 346.602 279.023 346.273C278.461 345.945 278.035 345.551 277.746 345.09C277.457 344.621 277.312 344.023 277.312 343.297C277.312 342.148 277.766 341.277 278.672 340.684C279.586 340.082 280.793 339.781 282.293 339.781C283.09 339.781 283.84 339.863 284.543 340.027C285.254 340.184 285.949 340.414 286.629 340.719L285.762 342.793C285.176 342.535 284.586 342.324 283.992 342.16C283.406 341.988 282.809 341.902 282.199 341.902C281.488 341.902 280.945 342.012 280.57 342.23C280.203 342.449 280.02 342.762 280.02 343.168C280.02 343.473 280.109 343.73 280.289 343.941C280.469 344.152 280.777 344.363 281.215 344.574C281.66 344.785 282.277 345.047 283.066 345.359C283.84 345.656 284.508 345.969 285.07 346.297C285.641 346.617 286.078 347.012 286.383 347.48C286.688 347.949 286.84 348.555 286.84 349.297Z" fill="#161326"/>
<circle cx="144" cy="32" r="10" fill="#7BCDE9" stroke="black" stroke-width="4"/>
<circle cx="144" cy="64" r="10" fill="#7BCDE9" stroke="black" stroke-width="4"/>
<circle cx="176" cy="64" r="10" fill="#7BCDE9" stroke="black" stroke-width="4"/>
<g clip-path="url(#clip0_203_936)">
<path d="M211.96 227.96C211.96 219.124 219.124 211.96 227.96 211.96V211.96C236.797 211.96 243.96 219.124 243.96 227.96V227.96C243.96 236.797 236.797 243.96 227.96 243.96V243.96C219.124 243.96 211.96 236.797 211.96 227.96V227.96Z" fill="white"/>
<path d="M230.269 236.96H227.503V225.933C227.503 225.566 227.507 225.199 227.515 224.832C227.523 224.464 227.531 224.105 227.539 223.753C227.554 223.402 227.574 223.066 227.597 222.746C227.433 222.925 227.23 223.121 226.988 223.332C226.753 223.542 226.503 223.761 226.238 223.988L224.269 225.558L222.886 223.812L227.972 219.828H230.269V236.96Z" fill="#161326"/>
<path d="M234.588 250.588C234.588 241.751 241.752 234.588 250.588 234.588V234.588C259.425 234.588 266.588 241.751 266.588 250.588V250.588C266.588 259.424 259.425 266.588 250.588 266.588V266.588C241.752 266.588 234.588 259.424 234.588 250.588V250.588Z" fill="white"/>
<path d="M256.401 259.588H244.799V257.514L249.24 253.014C250.1 252.139 250.807 251.385 251.362 250.752C251.916 250.111 252.326 249.506 252.592 248.935C252.865 248.365 253.002 247.744 253.002 247.072C253.002 246.244 252.764 245.619 252.287 245.197C251.811 244.767 251.182 244.553 250.401 244.553C249.658 244.553 248.971 244.701 248.338 244.998C247.713 245.287 247.065 245.701 246.393 246.24L244.881 244.424C245.358 244.017 245.865 243.646 246.404 243.31C246.951 242.974 247.561 242.709 248.233 242.514C248.904 242.31 249.67 242.209 250.529 242.209C251.615 242.209 252.553 242.404 253.342 242.795C254.131 243.178 254.737 243.713 255.158 244.4C255.588 245.088 255.803 245.889 255.803 246.803C255.803 247.724 255.619 248.576 255.252 249.357C254.885 250.139 254.362 250.912 253.682 251.678C253.002 252.435 252.194 253.26 251.256 254.15L248.291 257.045V257.174H256.401V259.588Z" fill="#161326"/>
</g>
<defs>
<clipPath id="clip0_203_936">
<rect width="384" height="32" fill="white" transform="translate(35.6274 13) rotate(45)"/>
</clipPath>
</defs>
</svg>
