<svg width="400" height="155" viewBox="0 0 400 155" fill="none" xmlns="http://www.w3.org/2000/svg">
<rect width="400" height="155" fill="white"/>
<path d="M183.052 127H149.836V124.312C158.86 124.312 162.22 122.68 162.22 117.88V77.272C162.22 73.912 161.452 72.568 159.052 72.568C157.132 72.568 152.236 73.144 149.26 74.104V70.936L167.884 65.656H170.668V117.88C170.668 122.584 174.22 124.312 183.052 124.312V127ZM205.432 128.056C202.424 128.056 199.992 127.704 198.136 127C196.344 126.232 195.096 125.72 194.392 125.464H194.104L191.8 128.056H189.688L192.184 112.024H194.584C195.096 116.184 196.056 119.352 197.464 121.528C198.936 123.704 201.304 124.792 204.568 124.792C206.808 124.792 208.6 124.248 209.944 123.16C211.352 122.072 212.056 120.28 212.056 117.784C212.056 115.16 211.32 112.952 209.848 111.16C208.44 109.304 206.808 107.512 204.952 105.784C203.672 104.504 202.36 103.256 201.016 102.04C199.736 100.824 198.648 99.48 197.752 98.008C196.92 96.472 196.504 94.712 196.504 92.728C196.504 89.464 197.592 86.712 199.768 84.472C201.944 82.168 205.208 81.016 209.56 81.016C212.12 81.016 214.232 81.368 215.896 82.072C217.624 82.776 218.776 83.288 219.352 83.608H219.64L222.136 81.016H223.96L221.752 95.992H219.448C219.32 92.28 218.456 89.336 216.856 87.16C215.32 84.984 213.144 83.896 210.328 83.896C207.832 83.896 206.04 84.568 204.952 85.912C203.864 87.256 203.32 88.632 203.32 90.04C203.32 91.384 203.768 92.696 204.664 93.976C205.624 95.192 206.808 96.472 208.216 97.816C209.624 99.096 211.032 100.504 212.44 102.04C214.488 104.216 216.248 106.36 217.72 108.472C219.256 110.52 220.024 113.08 220.024 116.152C220.024 118.008 219.544 119.864 218.584 121.72C217.688 123.512 216.184 125.016 214.072 126.232C211.96 127.448 209.08 128.056 205.432 128.056ZM253.834 102.808H229.642V100.216C236.362 100.216 238.186 99.064 238.186 95.512V65.464C238.186 62.968 237.514 61.816 235.498 61.816C233.962 61.816 230.794 62.392 229.066 62.776V59.896L242.026 56.44H245.194V95.512C245.194 99.064 247.306 100.216 253.834 100.216V102.808Z" fill="black"/>
<path d="M301.801 81.8906L301.473 83.5664H303.055V84.5449H301.285L300.811 87H299.768L300.248 84.5449H298.783L298.32 87H297.301L297.752 84.5449H296.287V83.5664H297.939L298.273 81.8906H296.721V80.9121H298.449L298.918 78.4395H299.961L299.492 80.9121H300.969L301.443 78.4395H302.457L301.988 80.9121H303.465V81.8906H301.801ZM298.971 83.5664H300.436L300.77 81.8906H299.299L298.971 83.5664ZM313.602 83.7422C313.602 84.2812 313.531 84.7598 313.391 85.1777C313.25 85.5957 313.045 85.9492 312.775 86.2383C312.506 86.5234 312.182 86.7422 311.803 86.8945C311.424 87.043 310.996 87.1172 310.52 87.1172C310.074 87.1172 309.666 87.043 309.295 86.8945C308.924 86.7422 308.602 86.5234 308.328 86.2383C308.059 85.9492 307.85 85.5957 307.701 85.1777C307.553 84.7598 307.479 84.2812 307.479 83.7422C307.479 83.0273 307.602 82.4219 307.848 81.9258C308.098 81.4258 308.453 81.0449 308.914 80.7832C309.375 80.5215 309.924 80.3906 310.561 80.3906C311.158 80.3906 311.686 80.5215 312.143 80.7832C312.6 81.0449 312.957 81.4258 313.215 81.9258C313.473 82.4258 313.602 83.0312 313.602 83.7422ZM308.896 83.7422C308.896 84.2148 308.953 84.6191 309.066 84.9551C309.184 85.291 309.363 85.5488 309.605 85.7285C309.848 85.9043 310.16 85.9922 310.543 85.9922C310.926 85.9922 311.238 85.9043 311.48 85.7285C311.723 85.5488 311.9 85.291 312.014 84.9551C312.127 84.6191 312.184 84.2148 312.184 83.7422C312.184 83.2695 312.127 82.8691 312.014 82.541C311.9 82.209 311.723 81.957 311.48 81.7852C311.238 81.6094 310.924 81.5215 310.537 81.5215C309.967 81.5215 309.551 81.7129 309.289 82.0957C309.027 82.4785 308.896 83.0273 308.896 83.7422ZM318.424 81.5625H316.848V87H315.471V81.5625H314.41V80.9004L315.471 80.4961V80.0449C315.471 79.4941 315.557 79.0566 315.729 78.7324C315.904 78.4082 316.154 78.1758 316.479 78.0352C316.807 77.8906 317.197 77.8184 317.65 77.8184C317.947 77.8184 318.219 77.8438 318.465 77.8945C318.711 77.9414 318.918 77.9961 319.086 78.0586L318.729 79.1016C318.596 79.0586 318.447 79.0195 318.283 78.9844C318.119 78.9453 317.943 78.9258 317.756 78.9258C317.443 78.9258 317.213 79.0234 317.064 79.2188C316.92 79.4141 316.848 79.6992 316.848 80.0742V80.5137H318.424V81.5625ZM325.232 80.3906C325.811 80.3906 326.307 80.5098 326.721 80.748C327.135 80.9863 327.453 81.3242 327.676 81.7617C327.898 82.1992 328.01 82.7227 328.01 83.332V84.0703H323.68C323.695 84.6992 323.863 85.1836 324.184 85.5234C324.508 85.8633 324.961 86.0332 325.543 86.0332C325.957 86.0332 326.328 85.9941 326.656 85.916C326.988 85.834 327.33 85.7148 327.682 85.5586V86.6777C327.357 86.8301 327.027 86.9414 326.691 87.0117C326.355 87.082 325.953 87.1172 325.484 87.1172C324.848 87.1172 324.287 86.9941 323.803 86.748C323.322 86.498 322.945 86.127 322.672 85.6348C322.402 85.1426 322.268 84.5312 322.268 83.8008C322.268 83.0742 322.391 82.457 322.637 81.9492C322.883 81.4414 323.229 81.0547 323.674 80.7891C324.119 80.5234 324.639 80.3906 325.232 80.3906ZM325.232 81.4277C324.799 81.4277 324.447 81.5684 324.178 81.8496C323.912 82.1309 323.756 82.543 323.709 83.0859H326.662C326.658 82.7617 326.604 82.4746 326.498 82.2246C326.396 81.9746 326.24 81.7793 326.029 81.6387C325.822 81.498 325.557 81.4277 325.232 81.4277ZM330.945 87H329.562V77.8828H330.945V87ZM335.498 80.3906C336.076 80.3906 336.572 80.5098 336.986 80.748C337.4 80.9863 337.719 81.3242 337.941 81.7617C338.164 82.1992 338.275 82.7227 338.275 83.332V84.0703H333.945C333.961 84.6992 334.129 85.1836 334.449 85.5234C334.773 85.8633 335.227 86.0332 335.809 86.0332C336.223 86.0332 336.594 85.9941 336.922 85.916C337.254 85.834 337.596 85.7148 337.947 85.5586V86.6777C337.623 86.8301 337.293 86.9414 336.957 87.0117C336.621 87.082 336.219 87.1172 335.75 87.1172C335.113 87.1172 334.553 86.9941 334.068 86.748C333.588 86.498 333.211 86.127 332.938 85.6348C332.668 85.1426 332.533 84.5312 332.533 83.8008C332.533 83.0742 332.656 82.457 332.902 81.9492C333.148 81.4414 333.494 81.0547 333.939 80.7891C334.385 80.5234 334.904 80.3906 335.498 80.3906ZM335.498 81.4277C335.064 81.4277 334.713 81.5684 334.443 81.8496C334.178 82.1309 334.021 82.543 333.975 83.0859H336.928C336.924 82.7617 336.869 82.4746 336.764 82.2246C336.662 81.9746 336.506 81.7793 336.295 81.6387C336.088 81.498 335.822 81.4277 335.498 81.4277ZM342.441 87.1172C341.828 87.1172 341.297 86.998 340.848 86.7598C340.398 86.5215 340.053 86.1562 339.811 85.6641C339.568 85.1719 339.447 84.5469 339.447 83.7891C339.447 83 339.58 82.3555 339.846 81.8555C340.111 81.3555 340.479 80.9863 340.947 80.748C341.42 80.5098 341.961 80.3906 342.57 80.3906C342.957 80.3906 343.307 80.4297 343.619 80.5078C343.936 80.582 344.203 80.6738 344.422 80.7832L344.012 81.8848C343.773 81.7871 343.529 81.7051 343.279 81.6387C343.029 81.5723 342.789 81.5391 342.559 81.5391C342.18 81.5391 341.863 81.623 341.609 81.791C341.359 81.959 341.172 82.209 341.047 82.541C340.926 82.873 340.865 83.2852 340.865 83.7773C340.865 84.2539 340.928 84.6562 341.053 84.9844C341.178 85.3086 341.363 85.5547 341.609 85.7227C341.855 85.8867 342.158 85.9688 342.518 85.9688C342.873 85.9688 343.191 85.9258 343.473 85.8398C343.754 85.7539 344.02 85.6426 344.27 85.5059V86.7012C344.023 86.8418 343.76 86.9453 343.479 87.0117C343.197 87.082 342.852 87.1172 342.441 87.1172ZM348.207 86.0039C348.387 86.0039 348.564 85.9883 348.74 85.957C348.916 85.9219 349.076 85.8809 349.221 85.834V86.877C349.068 86.9434 348.871 87 348.629 87.0469C348.387 87.0938 348.135 87.1172 347.873 87.1172C347.506 87.1172 347.176 87.0566 346.883 86.9355C346.59 86.8105 346.357 86.5977 346.186 86.2969C346.014 85.9961 345.928 85.5801 345.928 85.0488V81.5625H345.043V80.9473L345.992 80.4609L346.443 79.0723H347.311V80.5137H349.168V81.5625H347.311V85.0312C347.311 85.3594 347.393 85.6035 347.557 85.7637C347.721 85.9238 347.938 86.0039 348.207 86.0039ZM353.826 80.3906C353.936 80.3906 354.055 80.3965 354.184 80.4082C354.312 80.4199 354.424 80.4355 354.518 80.4551L354.389 81.7441C354.307 81.7207 354.205 81.7031 354.084 81.6914C353.967 81.6797 353.861 81.6738 353.768 81.6738C353.521 81.6738 353.287 81.7148 353.064 81.7969C352.842 81.875 352.645 81.9961 352.473 82.1602C352.301 82.3203 352.166 82.5215 352.068 82.7637C351.971 83.0059 351.922 83.2871 351.922 83.6074V87H350.539V80.5137H351.617L351.805 81.6562H351.869C351.998 81.4258 352.158 81.2148 352.35 81.0234C352.541 80.832 352.76 80.6797 353.006 80.5664C353.256 80.4492 353.529 80.3906 353.826 80.3906ZM361.461 83.7422C361.461 84.2812 361.391 84.7598 361.25 85.1777C361.109 85.5957 360.904 85.9492 360.635 86.2383C360.365 86.5234 360.041 86.7422 359.662 86.8945C359.283 87.043 358.855 87.1172 358.379 87.1172C357.934 87.1172 357.525 87.043 357.154 86.8945C356.783 86.7422 356.461 86.5234 356.188 86.2383C355.918 85.9492 355.709 85.5957 355.561 85.1777C355.412 84.7598 355.338 84.2812 355.338 83.7422C355.338 83.0273 355.461 82.4219 355.707 81.9258C355.957 81.4258 356.312 81.0449 356.773 80.7832C357.234 80.5215 357.783 80.3906 358.42 80.3906C359.018 80.3906 359.545 80.5215 360.002 80.7832C360.459 81.0449 360.816 81.4258 361.074 81.9258C361.332 82.4258 361.461 83.0312 361.461 83.7422ZM356.756 83.7422C356.756 84.2148 356.812 84.6191 356.926 84.9551C357.043 85.291 357.223 85.5488 357.465 85.7285C357.707 85.9043 358.02 85.9922 358.402 85.9922C358.785 85.9922 359.098 85.9043 359.34 85.7285C359.582 85.5488 359.76 85.291 359.873 84.9551C359.986 84.6191 360.043 84.2148 360.043 83.7422C360.043 83.2695 359.986 82.8691 359.873 82.541C359.76 82.209 359.582 81.957 359.34 81.7852C359.098 81.6094 358.783 81.5215 358.396 81.5215C357.826 81.5215 357.41 81.7129 357.148 82.0957C356.887 82.4785 356.756 83.0273 356.756 83.7422ZM366.424 80.3906C367.154 80.3906 367.723 80.5801 368.129 80.959C368.539 81.334 368.744 81.9375 368.744 82.7695V87H367.367V83.0273C367.367 82.5234 367.264 82.1465 367.057 81.8965C366.85 81.6426 366.529 81.5156 366.096 81.5156C365.467 81.5156 365.029 81.709 364.783 82.0957C364.541 82.4824 364.42 83.043 364.42 83.7773V87H363.043V80.5137H364.115L364.309 81.3926H364.385C364.525 81.166 364.699 80.9805 364.906 80.8359C365.117 80.6875 365.352 80.5762 365.609 80.502C365.871 80.4277 366.143 80.3906 366.424 80.3906ZM375.031 85.1484C375.031 85.5742 374.928 85.9336 374.721 86.2266C374.514 86.5195 374.211 86.7422 373.812 86.8945C373.418 87.043 372.934 87.1172 372.359 87.1172C371.906 87.1172 371.516 87.084 371.188 87.0176C370.863 86.9551 370.557 86.8574 370.268 86.7246V85.5352C370.576 85.6797 370.922 85.8047 371.305 85.9102C371.691 86.0156 372.057 86.0684 372.4 86.0684C372.854 86.0684 373.18 85.998 373.379 85.8574C373.578 85.7129 373.678 85.5215 373.678 85.2832C373.678 85.1426 373.637 85.0176 373.555 84.9082C373.477 84.7949 373.328 84.6797 373.109 84.5625C372.895 84.4414 372.578 84.2969 372.16 84.1289C371.75 83.9648 371.404 83.8008 371.123 83.6367C370.842 83.4727 370.629 83.2754 370.484 83.0449C370.34 82.8105 370.268 82.5117 370.268 82.1484C370.268 81.5742 370.494 81.1387 370.947 80.8418C371.404 80.541 372.008 80.3906 372.758 80.3906C373.156 80.3906 373.531 80.4316 373.883 80.5137C374.238 80.5918 374.586 80.707 374.926 80.8594L374.492 81.8965C374.199 81.7676 373.904 81.6621 373.607 81.5801C373.314 81.4941 373.016 81.4512 372.711 81.4512C372.355 81.4512 372.084 81.5059 371.896 81.6152C371.713 81.7246 371.621 81.8809 371.621 82.084C371.621 82.2363 371.666 82.3652 371.756 82.4707C371.846 82.5762 372 82.6816 372.219 82.7871C372.441 82.8926 372.75 83.0234 373.145 83.1797C373.531 83.3281 373.865 83.4844 374.146 83.6484C374.432 83.8086 374.65 84.0059 374.803 84.2402C374.955 84.4746 375.031 84.7773 375.031 85.1484ZM298.361 92.5137V99H296.984V92.5137H298.361ZM297.682 90.0293C297.893 90.0293 298.074 90.0859 298.227 90.1992C298.383 90.3125 298.461 90.5078 298.461 90.7852C298.461 91.0586 298.383 91.2539 298.227 91.3711C298.074 91.4844 297.893 91.541 297.682 91.541C297.463 91.541 297.277 91.4844 297.125 91.3711C296.977 91.2539 296.902 91.0586 296.902 90.7852C296.902 90.5078 296.977 90.3125 297.125 90.1992C297.277 90.0859 297.463 90.0293 297.682 90.0293ZM303.717 92.3906C304.447 92.3906 305.016 92.5801 305.422 92.959C305.832 93.334 306.037 93.9375 306.037 94.7695V99H304.66V95.0273C304.66 94.5234 304.557 94.1465 304.35 93.8965C304.143 93.6426 303.822 93.5156 303.389 93.5156C302.76 93.5156 302.322 93.709 302.076 94.0957C301.834 94.4824 301.713 95.043 301.713 95.7773V99H300.336V92.5137H301.408L301.602 93.3926H301.678C301.818 93.166 301.992 92.9805 302.199 92.8359C302.41 92.6875 302.645 92.5762 302.902 92.502C303.164 92.4277 303.436 92.3906 303.717 92.3906ZM315.441 97.1484C315.441 97.5742 315.338 97.9336 315.131 98.2266C314.924 98.5195 314.621 98.7422 314.223 98.8945C313.828 99.043 313.344 99.1172 312.77 99.1172C312.316 99.1172 311.926 99.084 311.598 99.0176C311.273 98.9551 310.967 98.8574 310.678 98.7246V97.5352C310.986 97.6797 311.332 97.8047 311.715 97.9102C312.102 98.0156 312.467 98.0684 312.811 98.0684C313.264 98.0684 313.59 97.998 313.789 97.8574C313.988 97.7129 314.088 97.5215 314.088 97.2832C314.088 97.1426 314.047 97.0176 313.965 96.9082C313.887 96.7949 313.738 96.6797 313.52 96.5625C313.305 96.4414 312.988 96.2969 312.57 96.1289C312.16 95.9648 311.814 95.8008 311.533 95.6367C311.252 95.4727 311.039 95.2754 310.895 95.0449C310.75 94.8105 310.678 94.5117 310.678 94.1484C310.678 93.5742 310.904 93.1387 311.357 92.8418C311.814 92.541 312.418 92.3906 313.168 92.3906C313.566 92.3906 313.941 92.4316 314.293 92.5137C314.648 92.5918 314.996 92.707 315.336 92.8594L314.902 93.8965C314.609 93.7676 314.314 93.6621 314.018 93.5801C313.725 93.4941 313.426 93.4512 313.121 93.4512C312.766 93.4512 312.494 93.5059 312.307 93.6152C312.123 93.7246 312.031 93.8809 312.031 94.084C312.031 94.2363 312.076 94.3652 312.166 94.4707C312.256 94.5762 312.41 94.6816 312.629 94.7871C312.852 94.8926 313.16 95.0234 313.555 95.1797C313.941 95.3281 314.275 95.4844 314.557 95.6484C314.842 95.8086 315.061 96.0059 315.213 96.2402C315.365 96.4746 315.441 96.7773 315.441 97.1484ZM322.584 92.5137V99H321.5L321.312 98.127H321.236C321.1 98.3496 320.926 98.5352 320.715 98.6836C320.504 98.8281 320.27 98.9355 320.012 99.0059C319.754 99.0801 319.482 99.1172 319.197 99.1172C318.709 99.1172 318.291 99.0352 317.943 98.8711C317.6 98.7031 317.336 98.4453 317.152 98.0977C316.969 97.75 316.877 97.3008 316.877 96.75V92.5137H318.26V96.4922C318.26 96.9961 318.361 97.373 318.564 97.623C318.771 97.873 319.092 97.998 319.525 97.998C319.943 97.998 320.275 97.9121 320.521 97.7402C320.768 97.5684 320.941 97.3145 321.043 96.9785C321.148 96.6426 321.201 96.2305 321.201 95.7422V92.5137H322.584ZM325.936 89.8828V92.0801C325.936 92.334 325.928 92.584 325.912 92.8301C325.9 93.0723 325.889 93.2617 325.877 93.3984H325.936C326.111 93.1172 326.355 92.8809 326.668 92.6895C326.984 92.4941 327.389 92.3965 327.881 92.3965C328.65 92.3965 329.27 92.6797 329.738 93.2461C330.207 93.8086 330.441 94.6426 330.441 95.748C330.441 96.4824 330.334 97.0996 330.119 97.5996C329.904 98.0996 329.602 98.4785 329.211 98.7363C328.824 98.9902 328.369 99.1172 327.846 99.1172C327.354 99.1172 326.955 99.0273 326.65 98.8477C326.35 98.6641 326.113 98.4512 325.941 98.209H325.842L325.59 99H324.559V89.8828H325.936ZM327.518 93.5156C327.127 93.5156 326.816 93.5938 326.586 93.75C326.359 93.9062 326.195 94.1406 326.094 94.4531C325.992 94.7617 325.939 95.1543 325.936 95.6309V95.7539C325.936 96.4766 326.049 97.0293 326.275 97.4121C326.506 97.7949 326.924 97.9863 327.529 97.9863C328.01 97.9863 328.379 97.793 328.637 97.4062C328.895 97.0156 329.023 96.457 329.023 95.7305C329.023 94.9961 328.895 94.4434 328.637 94.0723C328.383 93.7012 328.01 93.5156 327.518 93.5156ZM336.395 97.1484C336.395 97.5742 336.291 97.9336 336.084 98.2266C335.877 98.5195 335.574 98.7422 335.176 98.8945C334.781 99.043 334.297 99.1172 333.723 99.1172C333.27 99.1172 332.879 99.084 332.551 99.0176C332.227 98.9551 331.92 98.8574 331.631 98.7246V97.5352C331.939 97.6797 332.285 97.8047 332.668 97.9102C333.055 98.0156 333.42 98.0684 333.764 98.0684C334.217 98.0684 334.543 97.998 334.742 97.8574C334.941 97.7129 335.041 97.5215 335.041 97.2832C335.041 97.1426 335 97.0176 334.918 96.9082C334.84 96.7949 334.691 96.6797 334.473 96.5625C334.258 96.4414 333.941 96.2969 333.523 96.1289C333.113 95.9648 332.768 95.8008 332.486 95.6367C332.205 95.4727 331.992 95.2754 331.848 95.0449C331.703 94.8105 331.631 94.5117 331.631 94.1484C331.631 93.5742 331.857 93.1387 332.311 92.8418C332.768 92.541 333.371 92.3906 334.121 92.3906C334.52 92.3906 334.895 92.4316 335.246 92.5137C335.602 92.5918 335.949 92.707 336.289 92.8594L335.855 93.8965C335.562 93.7676 335.268 93.6621 334.971 93.5801C334.678 93.4941 334.379 93.4512 334.074 93.4512C333.719 93.4512 333.447 93.5059 333.26 93.6152C333.076 93.7246 332.984 93.8809 332.984 94.084C332.984 94.2363 333.029 94.3652 333.119 94.4707C333.209 94.5762 333.363 94.6816 333.582 94.7871C333.805 94.8926 334.113 95.0234 334.508 95.1797C334.895 95.3281 335.229 95.4844 335.51 95.6484C335.795 95.8086 336.014 96.0059 336.166 96.2402C336.318 96.4746 336.395 96.7773 336.395 97.1484ZM339.26 89.8828V92.1738C339.26 92.4121 339.252 92.6445 339.236 92.8711C339.225 93.0977 339.211 93.2734 339.195 93.3984H339.271C339.408 93.1719 339.576 92.9863 339.775 92.8418C339.975 92.6934 340.197 92.582 340.443 92.5078C340.693 92.4336 340.959 92.3965 341.24 92.3965C341.736 92.3965 342.158 92.4805 342.506 92.6484C342.854 92.8125 343.119 93.0684 343.303 93.416C343.49 93.7637 343.584 94.2148 343.584 94.7695V99H342.207V95.0273C342.207 94.5234 342.104 94.1465 341.896 93.8965C341.689 93.6426 341.369 93.5156 340.936 93.5156C340.518 93.5156 340.186 93.6035 339.939 93.7793C339.697 93.9512 339.523 94.207 339.418 94.5469C339.312 94.8828 339.26 95.293 339.26 95.7773V99H337.883V89.8828H339.26ZM348.096 92.3906C348.674 92.3906 349.17 92.5098 349.584 92.748C349.998 92.9863 350.316 93.3242 350.539 93.7617C350.762 94.1992 350.873 94.7227 350.873 95.332V96.0703H346.543C346.559 96.6992 346.727 97.1836 347.047 97.5234C347.371 97.8633 347.824 98.0332 348.406 98.0332C348.82 98.0332 349.191 97.9941 349.52 97.916C349.852 97.834 350.193 97.7148 350.545 97.5586V98.6777C350.221 98.8301 349.891 98.9414 349.555 99.0117C349.219 99.082 348.816 99.1172 348.348 99.1172C347.711 99.1172 347.15 98.9941 346.666 98.748C346.186 98.498 345.809 98.127 345.535 97.6348C345.266 97.1426 345.131 96.5312 345.131 95.8008C345.131 95.0742 345.254 94.457 345.5 93.9492C345.746 93.4414 346.092 93.0547 346.537 92.7891C346.982 92.5234 347.502 92.3906 348.096 92.3906ZM348.096 93.4277C347.662 93.4277 347.311 93.5684 347.041 93.8496C346.775 94.1309 346.619 94.543 346.572 95.0859H349.525C349.521 94.7617 349.467 94.4746 349.361 94.2246C349.26 93.9746 349.104 93.7793 348.893 93.6387C348.686 93.498 348.42 93.4277 348.096 93.4277ZM353.809 99H352.426V89.8828H353.809V99ZM357.16 99H355.777V89.8828H357.16V99Z" fill="#1A67C9"/>
<path d="M190.672 24.668C190.672 25.1758 190.547 25.6133 190.297 25.9805C190.051 26.3477 189.695 26.6289 189.23 26.8242C188.77 27.0195 188.219 27.1172 187.578 27.1172C187.266 27.1172 186.967 27.0996 186.682 27.0645C186.396 27.0293 186.127 26.9785 185.873 26.9121C185.623 26.8418 185.395 26.7578 185.188 26.6602V25.3359C185.535 25.4883 185.924 25.627 186.354 25.752C186.783 25.873 187.221 25.9336 187.666 25.9336C188.029 25.9336 188.33 25.8867 188.568 25.793C188.811 25.6953 188.99 25.5586 189.107 25.3828C189.225 25.2031 189.283 24.9941 189.283 24.7559C189.283 24.502 189.215 24.2871 189.078 24.1113C188.941 23.9355 188.734 23.7754 188.457 23.6309C188.184 23.4824 187.84 23.3242 187.426 23.1562C187.145 23.043 186.875 22.9141 186.617 22.7695C186.363 22.625 186.137 22.4551 185.938 22.2598C185.738 22.0645 185.58 21.834 185.463 21.5684C185.35 21.2988 185.293 20.9824 185.293 20.6191C185.293 20.1348 185.408 19.7207 185.639 19.377C185.873 19.0332 186.201 18.7695 186.623 18.5859C187.049 18.4023 187.545 18.3105 188.111 18.3105C188.561 18.3105 188.982 18.3574 189.377 18.4512C189.775 18.5449 190.166 18.6777 190.549 18.8496L190.104 19.9805C189.752 19.8359 189.41 19.7207 189.078 19.6348C188.75 19.5488 188.414 19.5059 188.07 19.5059C187.773 19.5059 187.521 19.5508 187.314 19.6406C187.107 19.7305 186.949 19.8574 186.84 20.0215C186.734 20.1816 186.682 20.373 186.682 20.5957C186.682 20.8457 186.742 21.0566 186.863 21.2285C186.988 21.3965 187.18 21.5508 187.438 21.6914C187.699 21.832 188.035 21.9883 188.445 22.1602C188.918 22.3555 189.318 22.5605 189.646 22.7754C189.979 22.9902 190.232 23.248 190.408 23.5488C190.584 23.8457 190.672 24.2188 190.672 24.668ZM197.838 20.5137V27H196.754L196.566 26.127H196.49C196.354 26.3496 196.18 26.5352 195.969 26.6836C195.758 26.8281 195.523 26.9355 195.266 27.0059C195.008 27.0801 194.736 27.1172 194.451 27.1172C193.963 27.1172 193.545 27.0352 193.197 26.8711C192.854 26.7031 192.59 26.4453 192.406 26.0977C192.223 25.75 192.131 25.3008 192.131 24.75V20.5137H193.514V24.4922C193.514 24.9961 193.615 25.373 193.818 25.623C194.025 25.873 194.346 25.998 194.779 25.998C195.197 25.998 195.529 25.9121 195.775 25.7402C196.021 25.5684 196.195 25.3145 196.297 24.9785C196.402 24.6426 196.455 24.2305 196.455 23.7422V20.5137H197.838ZM201.189 17.8828V20.0801C201.189 20.334 201.182 20.584 201.166 20.8301C201.154 21.0723 201.143 21.2617 201.131 21.3984H201.189C201.365 21.1172 201.609 20.8809 201.922 20.6895C202.238 20.4941 202.643 20.3965 203.135 20.3965C203.904 20.3965 204.523 20.6797 204.992 21.2461C205.461 21.8086 205.695 22.6426 205.695 23.748C205.695 24.4824 205.588 25.0996 205.373 25.5996C205.158 26.0996 204.855 26.4785 204.465 26.7363C204.078 26.9902 203.623 27.1172 203.1 27.1172C202.607 27.1172 202.209 27.0273 201.904 26.8477C201.604 26.6641 201.367 26.4512 201.195 26.209H201.096L200.844 27H199.812V17.8828H201.189ZM202.771 21.5156C202.381 21.5156 202.07 21.5938 201.84 21.75C201.613 21.9062 201.449 22.1406 201.348 22.4531C201.246 22.7617 201.193 23.1543 201.189 23.6309V23.7539C201.189 24.4766 201.303 25.0293 201.529 25.4121C201.76 25.7949 202.178 25.9863 202.783 25.9863C203.264 25.9863 203.633 25.793 203.891 25.4062C204.148 25.0156 204.277 24.457 204.277 23.7305C204.277 22.9961 204.148 22.4434 203.891 22.0723C203.637 21.7012 203.264 21.5156 202.771 21.5156ZM211.648 25.1484C211.648 25.5742 211.545 25.9336 211.338 26.2266C211.131 26.5195 210.828 26.7422 210.43 26.8945C210.035 27.043 209.551 27.1172 208.977 27.1172C208.523 27.1172 208.133 27.084 207.805 27.0176C207.48 26.9551 207.174 26.8574 206.885 26.7246V25.5352C207.193 25.6797 207.539 25.8047 207.922 25.9102C208.309 26.0156 208.674 26.0684 209.018 26.0684C209.471 26.0684 209.797 25.998 209.996 25.8574C210.195 25.7129 210.295 25.5215 210.295 25.2832C210.295 25.1426 210.254 25.0176 210.172 24.9082C210.094 24.7949 209.945 24.6797 209.727 24.5625C209.512 24.4414 209.195 24.2969 208.777 24.1289C208.367 23.9648 208.021 23.8008 207.74 23.6367C207.459 23.4727 207.246 23.2754 207.102 23.0449C206.957 22.8105 206.885 22.5117 206.885 22.1484C206.885 21.5742 207.111 21.1387 207.564 20.8418C208.021 20.541 208.625 20.3906 209.375 20.3906C209.773 20.3906 210.148 20.4316 210.5 20.5137C210.855 20.5918 211.203 20.707 211.543 20.8594L211.109 21.8965C210.816 21.7676 210.521 21.6621 210.225 21.5801C209.932 21.4941 209.633 21.4512 209.328 21.4512C208.973 21.4512 208.701 21.5059 208.514 21.6152C208.33 21.7246 208.238 21.8809 208.238 22.084C208.238 22.2363 208.283 22.3652 208.373 22.4707C208.463 22.5762 208.617 22.6816 208.836 22.7871C209.059 22.8926 209.367 23.0234 209.762 23.1797C210.148 23.3281 210.482 23.4844 210.764 23.6484C211.049 23.8086 211.268 24.0059 211.42 24.2402C211.572 24.4746 211.648 24.7773 211.648 25.1484ZM214.514 17.8828V20.1738C214.514 20.4121 214.506 20.6445 214.49 20.8711C214.479 21.0977 214.465 21.2734 214.449 21.3984H214.525C214.662 21.1719 214.83 20.9863 215.029 20.8418C215.229 20.6934 215.451 20.582 215.697 20.5078C215.947 20.4336 216.213 20.3965 216.494 20.3965C216.99 20.3965 217.412 20.4805 217.76 20.6484C218.107 20.8125 218.373 21.0684 218.557 21.416C218.744 21.7637 218.838 22.2148 218.838 22.7695V27H217.461V23.0273C217.461 22.5234 217.357 22.1465 217.15 21.8965C216.943 21.6426 216.623 21.5156 216.189 21.5156C215.771 21.5156 215.439 21.6035 215.193 21.7793C214.951 21.9512 214.777 22.207 214.672 22.5469C214.566 22.8828 214.514 23.293 214.514 23.7773V27H213.137V17.8828H214.514ZM223.35 20.3906C223.928 20.3906 224.424 20.5098 224.838 20.748C225.252 20.9863 225.57 21.3242 225.793 21.7617C226.016 22.1992 226.127 22.7227 226.127 23.332V24.0703H221.797C221.812 24.6992 221.98 25.1836 222.301 25.5234C222.625 25.8633 223.078 26.0332 223.66 26.0332C224.074 26.0332 224.445 25.9941 224.773 25.916C225.105 25.834 225.447 25.7148 225.799 25.5586V26.6777C225.475 26.8301 225.145 26.9414 224.809 27.0117C224.473 27.082 224.07 27.1172 223.602 27.1172C222.965 27.1172 222.404 26.9941 221.92 26.748C221.439 26.498 221.062 26.127 220.789 25.6348C220.52 25.1426 220.385 24.5312 220.385 23.8008C220.385 23.0742 220.508 22.457 220.754 21.9492C221 21.4414 221.346 21.0547 221.791 20.7891C222.236 20.5234 222.756 20.3906 223.35 20.3906ZM223.35 21.4277C222.916 21.4277 222.564 21.5684 222.295 21.8496C222.029 22.1309 221.873 22.543 221.826 23.0859H224.779C224.775 22.7617 224.721 22.4746 224.615 22.2246C224.514 21.9746 224.357 21.7793 224.146 21.6387C223.939 21.498 223.674 21.4277 223.35 21.4277ZM229.062 27H227.68V17.8828H229.062V27ZM232.414 27H231.031V17.8828H232.414V27ZM199.619 38.0039C199.799 38.0039 199.977 37.9883 200.152 37.957C200.328 37.9219 200.488 37.8809 200.633 37.834V38.877C200.48 38.9434 200.283 39 200.041 39.0469C199.799 39.0938 199.547 39.1172 199.285 39.1172C198.918 39.1172 198.588 39.0566 198.295 38.9355C198.002 38.8105 197.77 38.5977 197.598 38.2969C197.426 37.9961 197.34 37.5801 197.34 37.0488V33.5625H196.455V32.9473L197.404 32.4609L197.855 31.0723H198.723V32.5137H200.58V33.5625H198.723V37.0312C198.723 37.3594 198.805 37.6035 198.969 37.7637C199.133 37.9238 199.35 38.0039 199.619 38.0039ZM200.973 32.5137H202.473L203.803 36.2168C203.861 36.3848 203.914 36.5508 203.961 36.7148C204.012 36.875 204.055 37.0332 204.09 37.1895C204.129 37.3457 204.16 37.502 204.184 37.6582H204.219C204.258 37.4551 204.312 37.2285 204.383 36.9785C204.457 36.7246 204.539 36.4707 204.629 36.2168L205.906 32.5137H207.389L204.605 39.8906C204.445 40.3125 204.248 40.6719 204.014 40.9688C203.783 41.2695 203.51 41.4961 203.193 41.6484C202.877 41.8047 202.516 41.8828 202.109 41.8828C201.914 41.8828 201.744 41.8711 201.6 41.8477C201.455 41.8281 201.332 41.8066 201.23 41.7832V40.6816C201.312 40.7012 201.416 40.7188 201.541 40.7344C201.666 40.75 201.795 40.7578 201.928 40.7578C202.174 40.7578 202.387 40.709 202.566 40.6113C202.746 40.5137 202.898 40.375 203.023 40.1953C203.148 40.0195 203.252 39.8184 203.334 39.5918L203.562 38.9824L200.973 32.5137ZM211.701 32.3906C212.471 32.3906 213.088 32.6719 213.553 33.2344C214.021 33.7969 214.256 34.6328 214.256 35.7422C214.256 36.4766 214.146 37.0957 213.928 37.5996C213.713 38.0996 213.41 38.4785 213.02 38.7363C212.633 38.9902 212.182 39.1172 211.666 39.1172C211.338 39.1172 211.053 39.0742 210.811 38.9883C210.568 38.9023 210.361 38.791 210.189 38.6543C210.018 38.5137 209.873 38.3613 209.756 38.1973H209.674C209.693 38.3535 209.711 38.5273 209.727 38.7188C209.746 38.9062 209.756 39.0781 209.756 39.2344V41.877H208.373V32.5137H209.498L209.691 33.4102H209.756C209.877 33.2266 210.023 33.0566 210.195 32.9004C210.371 32.7441 210.582 32.6211 210.828 32.5312C211.078 32.4375 211.369 32.3906 211.701 32.3906ZM211.332 33.5156C210.953 33.5156 210.648 33.5918 210.418 33.7441C210.191 33.8926 210.025 34.1172 209.92 34.418C209.818 34.7188 209.764 35.0957 209.756 35.5488V35.7422C209.756 36.2227 209.805 36.6309 209.902 36.9668C210.004 37.2988 210.17 37.5527 210.4 37.7285C210.635 37.9004 210.951 37.9863 211.35 37.9863C211.686 37.9863 211.963 37.8945 212.182 37.7109C212.404 37.5273 212.57 37.2656 212.68 36.9258C212.789 36.5859 212.844 36.1855 212.844 35.7246C212.844 35.0254 212.719 34.4824 212.469 34.0957C212.223 33.709 211.844 33.5156 211.332 33.5156ZM218.434 32.3906C219.012 32.3906 219.508 32.5098 219.922 32.748C220.336 32.9863 220.654 33.3242 220.877 33.7617C221.1 34.1992 221.211 34.7227 221.211 35.332V36.0703H216.881C216.896 36.6992 217.064 37.1836 217.385 37.5234C217.709 37.8633 218.162 38.0332 218.744 38.0332C219.158 38.0332 219.529 37.9941 219.857 37.916C220.189 37.834 220.531 37.7148 220.883 37.5586V38.6777C220.559 38.8301 220.229 38.9414 219.893 39.0117C219.557 39.082 219.154 39.1172 218.686 39.1172C218.049 39.1172 217.488 38.9941 217.004 38.748C216.523 38.498 216.146 38.127 215.873 37.6348C215.604 37.1426 215.469 36.5312 215.469 35.8008C215.469 35.0742 215.592 34.457 215.838 33.9492C216.084 33.4414 216.43 33.0547 216.875 32.7891C217.32 32.5234 217.84 32.3906 218.434 32.3906ZM218.434 33.4277C218 33.4277 217.648 33.5684 217.379 33.8496C217.113 34.1309 216.957 34.543 216.91 35.0859H219.863C219.859 34.7617 219.805 34.4746 219.699 34.2246C219.598 33.9746 219.441 33.7793 219.23 33.6387C219.023 33.498 218.758 33.4277 218.434 33.4277Z" fill="#1A67C9"/>
<path d="M264 88L269 90.8868L269 85.1132L264 88ZM268.5 88.5L288 88.5L288 87.5L268.5 87.5L268.5 88.5Z" fill="#1A67C9"/>
<path d="M31.9531 112H27.1016V103.434H31.9531V104.617H28.5078V106.943H31.7363V108.121H28.5078V110.811H31.9531V112ZM35.0469 112H33.6641V102.883H35.0469V112ZM39.5996 105.391C40.1777 105.391 40.6738 105.51 41.0879 105.748C41.502 105.986 41.8203 106.324 42.043 106.762C42.2656 107.199 42.377 107.723 42.377 108.332V109.07H38.0469C38.0625 109.699 38.2305 110.184 38.5508 110.523C38.875 110.863 39.3281 111.033 39.9102 111.033C40.3242 111.033 40.6953 110.994 41.0234 110.916C41.3555 110.834 41.6973 110.715 42.0488 110.559V111.678C41.7246 111.83 41.3945 111.941 41.0586 112.012C40.7227 112.082 40.3203 112.117 39.8516 112.117C39.2148 112.117 38.6543 111.994 38.1699 111.748C37.6895 111.498 37.3125 111.127 37.0391 110.635C36.7695 110.143 36.6348 109.531 36.6348 108.801C36.6348 108.074 36.7578 107.457 37.0039 106.949C37.25 106.441 37.5957 106.055 38.041 105.789C38.4863 105.523 39.0059 105.391 39.5996 105.391ZM39.5996 106.428C39.166 106.428 38.8145 106.568 38.5449 106.85C38.2793 107.131 38.123 107.543 38.0762 108.086H41.0293C41.0254 107.762 40.9707 107.475 40.8652 107.225C40.7637 106.975 40.6074 106.779 40.3965 106.639C40.1895 106.498 39.9238 106.428 39.5996 106.428ZM46.543 112.117C45.9297 112.117 45.3984 111.998 44.9492 111.76C44.5 111.521 44.1543 111.156 43.9121 110.664C43.6699 110.172 43.5488 109.547 43.5488 108.789C43.5488 108 43.6816 107.355 43.9473 106.855C44.2129 106.355 44.5801 105.986 45.0488 105.748C45.5215 105.51 46.0625 105.391 46.6719 105.391C47.0586 105.391 47.4082 105.43 47.7207 105.508C48.0371 105.582 48.3047 105.674 48.5234 105.783L48.1133 106.885C47.875 106.787 47.6309 106.705 47.3809 106.639C47.1309 106.572 46.8906 106.539 46.6602 106.539C46.2812 106.539 45.9648 106.623 45.7109 106.791C45.4609 106.959 45.2734 107.209 45.1484 107.541C45.0273 107.873 44.9668 108.285 44.9668 108.777C44.9668 109.254 45.0293 109.656 45.1543 109.984C45.2793 110.309 45.4648 110.555 45.7109 110.723C45.957 110.887 46.2598 110.969 46.6191 110.969C46.9746 110.969 47.293 110.926 47.5742 110.84C47.8555 110.754 48.1211 110.643 48.3711 110.506V111.701C48.125 111.842 47.8613 111.945 47.5801 112.012C47.2988 112.082 46.9531 112.117 46.543 112.117ZM52.3086 111.004C52.4883 111.004 52.666 110.988 52.8418 110.957C53.0176 110.922 53.1777 110.881 53.3223 110.834V111.877C53.1699 111.943 52.9727 112 52.7305 112.047C52.4883 112.094 52.2363 112.117 51.9746 112.117C51.6074 112.117 51.2773 112.057 50.9844 111.936C50.6914 111.811 50.459 111.598 50.2871 111.297C50.1152 110.996 50.0293 110.58 50.0293 110.049V106.562H49.1445V105.947L50.0938 105.461L50.5449 104.072H51.4121V105.514H53.2695V106.562H51.4121V110.031C51.4121 110.359 51.4941 110.604 51.6582 110.764C51.8223 110.924 52.0391 111.004 52.3086 111.004ZM57.9277 105.391C58.0371 105.391 58.1562 105.396 58.2852 105.408C58.4141 105.42 58.5254 105.436 58.6191 105.455L58.4902 106.744C58.4082 106.721 58.3066 106.703 58.1855 106.691C58.0684 106.68 57.9629 106.674 57.8691 106.674C57.623 106.674 57.3887 106.715 57.166 106.797C56.9434 106.875 56.7461 106.996 56.5742 107.16C56.4023 107.32 56.2676 107.521 56.1699 107.764C56.0723 108.006 56.0234 108.287 56.0234 108.607V112H54.6406V105.514H55.7188L55.9062 106.656H55.9707C56.0996 106.426 56.2598 106.215 56.4512 106.023C56.6426 105.832 56.8613 105.68 57.1074 105.566C57.3574 105.449 57.6309 105.391 57.9277 105.391ZM65.5625 108.742C65.5625 109.281 65.4922 109.76 65.3516 110.178C65.2109 110.596 65.0059 110.949 64.7363 111.238C64.4668 111.523 64.1426 111.742 63.7637 111.895C63.3848 112.043 62.957 112.117 62.4805 112.117C62.0352 112.117 61.627 112.043 61.2559 111.895C60.8848 111.742 60.5625 111.523 60.2891 111.238C60.0195 110.949 59.8105 110.596 59.6621 110.178C59.5137 109.76 59.4395 109.281 59.4395 108.742C59.4395 108.027 59.5625 107.422 59.8086 106.926C60.0586 106.426 60.4141 106.045 60.875 105.783C61.3359 105.521 61.8848 105.391 62.5215 105.391C63.1191 105.391 63.6465 105.521 64.1035 105.783C64.5605 106.045 64.918 106.426 65.1758 106.926C65.4336 107.426 65.5625 108.031 65.5625 108.742ZM60.8574 108.742C60.8574 109.215 60.9141 109.619 61.0273 109.955C61.1445 110.291 61.3242 110.549 61.5664 110.729C61.8086 110.904 62.1211 110.992 62.5039 110.992C62.8867 110.992 63.1992 110.904 63.4414 110.729C63.6836 110.549 63.8613 110.291 63.9746 109.955C64.0879 109.619 64.1445 109.215 64.1445 108.742C64.1445 108.27 64.0879 107.869 63.9746 107.541C63.8613 107.209 63.6836 106.957 63.4414 106.785C63.1992 106.609 62.8848 106.521 62.498 106.521C61.9277 106.521 61.5117 106.713 61.25 107.096C60.9883 107.479 60.8574 108.027 60.8574 108.742ZM70.5254 105.391C71.2559 105.391 71.8242 105.58 72.2305 105.959C72.6406 106.334 72.8457 106.938 72.8457 107.77V112H71.4688V108.027C71.4688 107.523 71.3652 107.146 71.1582 106.896C70.9512 106.643 70.6309 106.516 70.1973 106.516C69.5684 106.516 69.1309 106.709 68.8848 107.096C68.6426 107.482 68.5215 108.043 68.5215 108.777V112H67.1445V105.514H68.2168L68.4102 106.393H68.4863C68.627 106.166 68.8008 105.98 69.0078 105.836C69.2188 105.688 69.4531 105.576 69.7109 105.502C69.9727 105.428 70.2441 105.391 70.5254 105.391ZM82.25 110.148C82.25 110.574 82.1465 110.934 81.9395 111.227C81.7324 111.52 81.4297 111.742 81.0312 111.895C80.6367 112.043 80.1523 112.117 79.5781 112.117C79.125 112.117 78.7344 112.084 78.4062 112.018C78.082 111.955 77.7754 111.857 77.4863 111.725V110.535C77.7949 110.68 78.1406 110.805 78.5234 110.91C78.9102 111.016 79.2754 111.068 79.6191 111.068C80.0723 111.068 80.3984 110.998 80.5977 110.857C80.7969 110.713 80.8965 110.521 80.8965 110.283C80.8965 110.143 80.8555 110.018 80.7734 109.908C80.6953 109.795 80.5469 109.68 80.3281 109.562C80.1133 109.441 79.7969 109.297 79.3789 109.129C78.9688 108.965 78.623 108.801 78.3418 108.637C78.0605 108.473 77.8477 108.275 77.7031 108.045C77.5586 107.811 77.4863 107.512 77.4863 107.148C77.4863 106.574 77.7129 106.139 78.166 105.842C78.623 105.541 79.2266 105.391 79.9766 105.391C80.375 105.391 80.75 105.432 81.1016 105.514C81.457 105.592 81.8047 105.707 82.1445 105.859L81.7109 106.896C81.418 106.768 81.123 106.662 80.8262 106.58C80.5332 106.494 80.2344 106.451 79.9297 106.451C79.5742 106.451 79.3027 106.506 79.1152 106.615C78.9316 106.725 78.8398 106.881 78.8398 107.084C78.8398 107.236 78.8848 107.365 78.9746 107.471C79.0645 107.576 79.2188 107.682 79.4375 107.787C79.6602 107.893 79.9688 108.023 80.3633 108.18C80.75 108.328 81.084 108.484 81.3652 108.648C81.6504 108.809 81.8691 109.006 82.0215 109.24C82.1738 109.475 82.25 109.777 82.25 110.148ZM85.1152 102.883V105.174C85.1152 105.412 85.1074 105.645 85.0918 105.871C85.0801 106.098 85.0664 106.273 85.0508 106.398H85.127C85.2637 106.172 85.4316 105.986 85.6309 105.842C85.8301 105.693 86.0527 105.582 86.2988 105.508C86.5488 105.434 86.8145 105.396 87.0957 105.396C87.5918 105.396 88.0137 105.48 88.3613 105.648C88.709 105.812 88.9746 106.068 89.1582 106.416C89.3457 106.764 89.4395 107.215 89.4395 107.77V112H88.0625V108.027C88.0625 107.523 87.959 107.146 87.752 106.896C87.5449 106.643 87.2246 106.516 86.791 106.516C86.373 106.516 86.041 106.604 85.7949 106.779C85.5527 106.951 85.3789 107.207 85.2734 107.547C85.168 107.883 85.1152 108.293 85.1152 108.777V112H83.7383V102.883H85.1152ZM93.9512 105.391C94.5293 105.391 95.0254 105.51 95.4395 105.748C95.8535 105.986 96.1719 106.324 96.3945 106.762C96.6172 107.199 96.7285 107.723 96.7285 108.332V109.07H92.3984C92.4141 109.699 92.582 110.184 92.9023 110.523C93.2266 110.863 93.6797 111.033 94.2617 111.033C94.6758 111.033 95.0469 110.994 95.375 110.916C95.707 110.834 96.0488 110.715 96.4004 110.559V111.678C96.0762 111.83 95.7461 111.941 95.4102 112.012C95.0742 112.082 94.6719 112.117 94.2031 112.117C93.5664 112.117 93.0059 111.994 92.5215 111.748C92.041 111.498 91.6641 111.127 91.3906 110.635C91.1211 110.143 90.9863 109.531 90.9863 108.801C90.9863 108.074 91.1094 107.457 91.3555 106.949C91.6016 106.441 91.9473 106.055 92.3926 105.789C92.8379 105.523 93.3574 105.391 93.9512 105.391ZM93.9512 106.428C93.5176 106.428 93.166 106.568 92.8965 106.85C92.6309 107.131 92.4746 107.543 92.4277 108.086H95.3809C95.377 107.762 95.3223 107.475 95.2168 107.225C95.1152 106.975 94.959 106.779 94.748 106.639C94.541 106.498 94.2754 106.428 93.9512 106.428ZM99.6641 112H98.2812V102.883H99.6641V112ZM103.016 112H101.633V102.883H103.016V112Z" fill="#1A67C9"/>
<path d="M136 107L131 104.113V109.887L136 107ZM131.5 106.5L112 106.5V107.5L131.5 107.5V106.5Z" fill="#1A67C9"/>
<path d="M209 76L211.887 71H206.113L209 76ZM209.5 71.5V52H208.5V71.5H209.5Z" fill="#1A67C9"/>
</svg>
