<svg width="295" height="323" viewBox="0 0 295 323" fill="none" xmlns="http://www.w3.org/2000/svg">
<rect width="256" height="304" transform="translate(23 19)" fill="white"/>
<circle cx="151" cy="147" r="96" stroke="#161326" stroke-width="4"/>
<path d="M89 147C89 112.758 116.758 85 151 85C185.242 85 213 112.758 213 147C213 181.242 185.242 209 151 209C116.758 209 89 181.242 89 147Z" fill="#F8C863"/>
<path d="M89 147C89 112.758 116.758 85 151 85C185.242 85 213 112.758 213 147C213 181.242 185.242 209 151 209C116.758 209 89 181.242 89 147Z" stroke="black" stroke-width="4"/>
<path d="M150.836 166H143.594V151.211H130.023V166H122.758V131.734H130.023V145.164H143.594V131.734H150.836V166ZM169.75 139.305C172.172 139.305 174.258 139.773 176.008 140.711C177.758 141.633 179.109 142.977 180.062 144.742C181.016 146.508 181.492 148.664 181.492 151.211V154.68H164.594C164.672 156.695 165.273 158.281 166.398 159.438C167.539 160.578 169.117 161.148 171.133 161.148C172.805 161.148 174.336 160.977 175.727 160.633C177.117 160.289 178.547 159.773 180.016 159.086V164.617C178.719 165.258 177.359 165.727 175.938 166.023C174.531 166.32 172.82 166.469 170.805 166.469C168.18 166.469 165.852 165.984 163.82 165.016C161.805 164.047 160.219 162.57 159.062 160.586C157.922 158.602 157.352 156.102 157.352 153.086C157.352 150.023 157.867 147.477 158.898 145.445C159.945 143.398 161.398 141.867 163.258 140.852C165.117 139.82 167.281 139.305 169.75 139.305ZM169.797 144.391C168.406 144.391 167.25 144.836 166.328 145.727C165.422 146.617 164.898 148.016 164.758 149.922H174.789C174.773 148.859 174.578 147.914 174.203 147.086C173.844 146.258 173.297 145.602 172.562 145.117C171.844 144.633 170.922 144.391 169.797 144.391Z" fill="#161326"/>
<circle cx="135" cy="51" r="10" fill="#7BCDE9" stroke="black" stroke-width="4"/>
<circle cx="167" cy="51" r="10" fill="#7BCDE9" stroke="black" stroke-width="4"/>
<circle cx="215" cy="299" r="10" fill="#7BCDE9" stroke="black" stroke-width="4"/>
<path d="M245.84 304.297C245.84 305.148 245.633 305.867 245.219 306.453C244.805 307.039 244.199 307.484 243.402 307.789C242.613 308.086 241.645 308.234 240.496 308.234C239.59 308.234 238.809 308.168 238.152 308.035C237.504 307.91 236.891 307.715 236.312 307.449V305.07C236.93 305.359 237.621 305.609 238.387 305.82C239.16 306.031 239.891 306.137 240.578 306.137C241.484 306.137 242.137 305.996 242.535 305.715C242.934 305.426 243.133 305.043 243.133 304.566C243.133 304.285 243.051 304.035 242.887 303.816C242.73 303.59 242.434 303.359 241.996 303.125C241.566 302.883 240.934 302.594 240.098 302.258C239.277 301.93 238.586 301.602 238.023 301.273C237.461 300.945 237.035 300.551 236.746 300.09C236.457 299.621 236.312 299.023 236.312 298.297C236.312 297.148 236.766 296.277 237.672 295.684C238.586 295.082 239.793 294.781 241.293 294.781C242.09 294.781 242.84 294.863 243.543 295.027C244.254 295.184 244.949 295.414 245.629 295.719L244.762 297.793C244.176 297.535 243.586 297.324 242.992 297.16C242.406 296.988 241.809 296.902 241.199 296.902C240.488 296.902 239.945 297.012 239.57 297.23C239.203 297.449 239.02 297.762 239.02 298.168C239.02 298.473 239.109 298.73 239.289 298.941C239.469 299.152 239.777 299.363 240.215 299.574C240.66 299.785 241.277 300.047 242.066 300.359C242.84 300.656 243.508 300.969 244.07 301.297C244.641 301.617 245.078 302.012 245.383 302.48C245.688 302.949 245.84 303.555 245.84 304.297Z" fill="#161326"/>
<g clip-path="url(#clip0_179_1759)">
<path d="M198.96 214.96C198.96 206.124 206.124 198.96 214.96 198.96C223.797 198.96 230.96 206.124 230.96 214.96C230.96 223.797 223.797 230.96 214.96 230.96C206.124 230.96 198.96 223.797 198.96 214.96Z" fill="white"/>
<path d="M217.269 223.96H214.503V212.933C214.503 212.566 214.507 212.199 214.515 211.832C214.523 211.464 214.531 211.105 214.539 210.753C214.554 210.402 214.574 210.066 214.597 209.746C214.433 209.925 214.23 210.121 213.988 210.332C213.753 210.542 213.503 210.761 213.238 210.988L211.269 212.558L209.886 210.812L214.972 206.828H217.269V223.96Z" fill="#161326"/>
</g>
<defs>
<clipPath id="clip0_179_1759">
<rect width="384" height="32" fill="white" transform="translate(22.6274) rotate(45)"/>
</clipPath>
</defs>
</svg>
