<svg width="1072" height="270" viewBox="0 0 1072 270" fill="none" xmlns="http://www.w3.org/2000/svg">
<rect width="1072" height="270" fill="white"/>
<circle cx="120" cy="120" r="48" stroke="#161326" stroke-width="2"/>
<circle cx="120" cy="120" r="64" stroke="#161326" stroke-width="2"/>
<path d="M64 120C64 115.582 67.5817 112 72 112C76.4183 112 80 115.582 80 120C80 124.418 76.4183 128 72 128C67.5817 128 64 124.418 64 120Z" fill="#161326"/>
<path d="M160 120C160 115.582 163.582 112 168 112C172.418 112 176 115.582 176 120C176 124.418 172.418 128 168 128C163.582 128 160 124.418 160 120Z" fill="#161326"/>
<path d="M120 64C115.582 64 112 60.4183 112 56C112 51.5817 115.582 48 120 48C124.418 48 128 51.5817 128 56C128 60.4183 124.418 64 120 64Z" fill="#161326"/>
<path d="M88 120C88 102.327 102.327 88 120 88C137.673 88 152 102.327 152 120C152 137.673 137.673 152 120 152C102.327 152 88 137.673 88 120Z" fill="#1A67C9"/>
<path d="M111.703 129V111.867H115.336V126H122.285V129H111.703ZM128.566 115.898V129H124.992V115.898H128.566ZM126.785 110.766C127.316 110.766 127.773 110.891 128.156 111.141C128.539 111.383 128.73 111.84 128.73 112.512C128.73 113.176 128.539 113.637 128.156 113.895C127.773 114.145 127.316 114.27 126.785 114.27C126.246 114.27 125.785 114.145 125.402 113.895C125.027 113.637 124.84 113.176 124.84 112.512C124.84 111.84 125.027 111.383 125.402 111.141C125.785 110.891 126.246 110.766 126.785 110.766Z" fill="white"/>
<path d="M82.7148 239V224.723H85.7422V236.5H91.5332V239H82.7148ZM96.7676 228.082V239H93.7891V228.082H96.7676ZM95.2832 223.805C95.7259 223.805 96.1068 223.909 96.4258 224.117C96.7448 224.319 96.9043 224.7 96.9043 225.26C96.9043 225.813 96.7448 226.197 96.4258 226.412C96.1068 226.62 95.7259 226.725 95.2832 226.725C94.834 226.725 94.4499 226.62 94.1309 226.412C93.8184 226.197 93.6621 225.813 93.6621 225.26C93.6621 224.7 93.8184 224.319 94.1309 224.117C94.4499 223.909 94.834 223.805 95.2832 223.805ZM104.502 236.822C104.827 236.822 105.143 236.79 105.449 236.725C105.762 236.66 106.071 236.578 106.377 236.48V238.697C106.058 238.84 105.661 238.958 105.186 239.049C104.717 239.146 104.202 239.195 103.643 239.195C102.992 239.195 102.406 239.091 101.885 238.883C101.37 238.668 100.964 238.3 100.664 237.779C100.371 237.252 100.225 236.52 100.225 235.582V230.318H98.7988V229.059L100.439 228.062L101.299 225.758H103.203V228.082H106.26V230.318H103.203V235.582C103.203 235.999 103.32 236.311 103.555 236.52C103.796 236.721 104.111 236.822 104.502 236.822ZM111.572 223.805V226.9C111.572 227.441 111.553 227.955 111.514 228.443C111.481 228.932 111.455 229.277 111.436 229.479H111.592C111.826 229.101 112.103 228.795 112.422 228.561C112.747 228.326 113.105 228.154 113.496 228.043C113.887 227.932 114.307 227.877 114.756 227.877C115.544 227.877 116.23 228.017 116.816 228.297C117.402 228.57 117.858 229.003 118.184 229.596C118.509 230.182 118.672 230.943 118.672 231.881V239H115.693V232.623C115.693 231.842 115.55 231.253 115.264 230.855C114.977 230.458 114.535 230.26 113.936 230.26C113.337 230.26 112.865 230.4 112.52 230.68C112.174 230.953 111.93 231.36 111.787 231.9C111.644 232.434 111.572 233.089 111.572 233.863V239H108.594V223.805H111.572ZM124.717 228.082V239H121.738V228.082H124.717ZM123.232 223.805C123.675 223.805 124.056 223.909 124.375 224.117C124.694 224.319 124.854 224.7 124.854 225.26C124.854 225.813 124.694 226.197 124.375 226.412C124.056 226.62 123.675 226.725 123.232 226.725C122.783 226.725 122.399 226.62 122.08 226.412C121.768 226.197 121.611 225.813 121.611 225.26C121.611 224.7 121.768 224.319 122.08 224.117C122.399 223.909 122.783 223.805 123.232 223.805ZM137.871 228.082V239H135.586L135.186 237.604H135.029C134.795 237.975 134.502 238.277 134.15 238.512C133.799 238.746 133.411 238.919 132.988 239.029C132.565 239.14 132.126 239.195 131.67 239.195C130.889 239.195 130.208 239.059 129.629 238.785C129.049 238.505 128.597 238.072 128.271 237.486C127.952 236.9 127.793 236.139 127.793 235.201V228.082H130.771V234.459C130.771 235.24 130.911 235.829 131.191 236.227C131.471 236.624 131.917 236.822 132.529 236.822C133.135 236.822 133.61 236.686 133.955 236.412C134.3 236.132 134.541 235.725 134.678 235.191C134.821 234.651 134.893 233.993 134.893 233.219V228.082H137.871ZM153.818 227.877C155.055 227.877 155.99 228.196 156.621 228.834C157.259 229.465 157.578 230.481 157.578 231.881V239H154.59V232.623C154.59 231.842 154.456 231.253 154.189 230.855C153.923 230.458 153.509 230.26 152.949 230.26C152.161 230.26 151.602 230.543 151.27 231.109C150.938 231.669 150.771 232.473 150.771 233.521V239H147.793V232.623C147.793 232.102 147.734 231.666 147.617 231.314C147.5 230.963 147.321 230.699 147.08 230.523C146.839 230.348 146.53 230.26 146.152 230.26C145.599 230.26 145.163 230.4 144.844 230.68C144.531 230.953 144.307 231.36 144.17 231.9C144.04 232.434 143.975 233.089 143.975 233.863V239H140.996V228.082H143.271L143.672 229.479H143.838C144.059 229.101 144.336 228.795 144.668 228.561C145.007 228.326 145.378 228.154 145.781 228.043C146.185 227.932 146.595 227.877 147.012 227.877C147.812 227.877 148.49 228.007 149.043 228.268C149.603 228.528 150.033 228.932 150.332 229.479H150.596C150.921 228.919 151.38 228.512 151.973 228.258C152.572 228.004 153.187 227.877 153.818 227.877Z" fill="black"/>
<circle cx="328" cy="120" r="48" stroke="#161326" stroke-width="2"/>
<circle cx="328" cy="120" r="64" stroke="#161326" stroke-width="2"/>
<path d="M272 120C272 115.582 275.582 112 280 112C284.418 112 288 115.582 288 120C288 124.418 284.418 128 280 128C275.582 128 272 124.418 272 120Z" fill="#161326"/>
<path d="M368 120C368 115.582 371.582 112 376 112C380.418 112 384 115.582 384 120C384 124.418 380.418 128 376 128C371.582 128 368 124.418 368 120Z" fill="#161326"/>
<path d="M328 192C323.582 192 320 188.418 320 184C320 179.582 323.582 176 328 176C332.418 176 336 179.582 336 184C336 188.418 332.418 192 328 192Z" fill="#161326"/>
<path d="M328 64C323.582 64 320 60.4183 320 56C320 51.5817 323.582 48 328 48C332.418 48 336 51.5817 336 56C336 60.4183 332.418 64 328 64Z" fill="#161326"/>
<path d="M277.088 170.912C273.964 167.788 273.964 162.722 277.088 159.598C280.213 156.474 285.278 156.474 288.402 159.598C291.526 162.722 291.526 167.788 288.402 170.912C285.278 174.036 280.213 174.036 277.088 170.912Z" fill="#161326"/>
<path d="M367.598 80.4021C364.474 77.2779 364.474 72.2126 367.598 69.0884C370.722 65.9642 375.787 65.9642 378.912 69.0884C382.036 72.2126 382.036 77.2779 378.912 80.4021C375.787 83.5263 370.722 83.5263 367.598 80.4021Z" fill="#161326"/>
<path d="M378.912 170.912C375.787 174.036 370.722 174.036 367.598 170.912C364.474 167.788 364.474 162.722 367.598 159.598C370.722 156.474 375.787 156.474 378.912 159.598C382.036 162.722 382.036 167.788 378.912 170.912Z" fill="#161326"/>
<path d="M288.402 80.4021C285.278 83.5263 280.212 83.5263 277.088 80.4021C273.964 77.2779 273.964 72.2126 277.088 69.0884C280.212 65.9642 285.278 65.9642 288.402 69.0884C291.526 72.2126 291.526 77.2779 288.402 80.4021Z" fill="#161326"/>
<path d="M296 120C296 102.327 310.327 88 328 88C345.673 88 360 102.327 360 120C360 137.673 345.673 152 328 152C310.327 152 296 137.673 296 120Z" fill="#006666"/>
<path d="M336.156 120.41C336.156 121.73 335.992 122.934 335.664 124.02C335.336 125.098 334.836 126.027 334.164 126.809C333.5 127.59 332.656 128.191 331.633 128.613C330.609 129.027 329.398 129.234 328 129.234C326.602 129.234 325.391 129.027 324.367 128.613C323.344 128.191 322.496 127.59 321.824 126.809C321.16 126.027 320.664 125.094 320.336 124.008C320.008 122.922 319.844 121.715 319.844 120.387C319.844 118.613 320.133 117.07 320.711 115.758C321.297 114.438 322.195 113.414 323.406 112.688C324.617 111.961 326.156 111.598 328.023 111.598C329.883 111.598 331.41 111.961 332.605 112.688C333.809 113.414 334.699 114.438 335.277 115.758C335.863 117.078 336.156 118.629 336.156 120.41ZM323.652 120.41C323.652 121.605 323.801 122.637 324.098 123.504C324.402 124.363 324.875 125.027 325.516 125.496C326.156 125.957 326.984 126.188 328 126.188C329.031 126.188 329.867 125.957 330.508 125.496C331.148 125.027 331.613 124.363 331.902 123.504C332.199 122.637 332.348 121.605 332.348 120.41C332.348 118.613 332.012 117.199 331.34 116.168C330.668 115.137 329.562 114.621 328.023 114.621C327 114.621 326.164 114.855 325.516 115.324C324.875 115.785 324.402 116.449 324.098 117.316C323.801 118.176 323.652 119.207 323.652 120.41Z" fill="white"/>
<path d="M305.188 231.842C305.188 232.942 305.051 233.945 304.777 234.85C304.504 235.748 304.087 236.523 303.527 237.174C302.974 237.825 302.271 238.326 301.418 238.678C300.565 239.023 299.556 239.195 298.391 239.195C297.225 239.195 296.216 239.023 295.363 238.678C294.51 238.326 293.804 237.825 293.244 237.174C292.691 236.523 292.277 235.745 292.004 234.84C291.73 233.935 291.594 232.929 291.594 231.822C291.594 230.344 291.835 229.059 292.316 227.965C292.805 226.865 293.553 226.012 294.562 225.406C295.572 224.801 296.854 224.498 298.41 224.498C299.96 224.498 301.232 224.801 302.229 225.406C303.231 226.012 303.973 226.865 304.455 227.965C304.943 229.065 305.188 230.357 305.188 231.842ZM294.768 231.842C294.768 232.838 294.891 233.697 295.139 234.42C295.393 235.136 295.786 235.689 296.32 236.08C296.854 236.464 297.544 236.656 298.391 236.656C299.25 236.656 299.947 236.464 300.48 236.08C301.014 235.689 301.402 235.136 301.643 234.42C301.89 233.697 302.014 232.838 302.014 231.842C302.014 230.344 301.734 229.166 301.174 228.307C300.614 227.447 299.693 227.018 298.41 227.018C297.557 227.018 296.861 227.213 296.32 227.604C295.786 227.988 295.393 228.541 295.139 229.264C294.891 229.98 294.768 230.839 294.768 231.842ZM310.148 233.424L306.633 228.082H310.012L312.131 231.559L314.27 228.082H317.648L314.094 233.424L317.814 239H314.426L312.131 235.26L309.826 239H306.447L310.148 233.424ZM317.912 228.082H321.174L323.234 234.225C323.299 234.42 323.355 234.618 323.4 234.82C323.446 235.022 323.485 235.23 323.518 235.445C323.55 235.66 323.576 235.885 323.596 236.119H323.654C323.693 235.768 323.745 235.439 323.811 235.133C323.882 234.827 323.97 234.524 324.074 234.225L326.096 228.082H329.289L324.67 240.396C324.39 241.152 324.025 241.78 323.576 242.281C323.127 242.789 322.609 243.17 322.023 243.424C321.444 243.678 320.806 243.805 320.109 243.805C319.771 243.805 319.478 243.785 319.23 243.746C318.983 243.714 318.771 243.678 318.596 243.639V241.275C318.732 241.308 318.905 241.337 319.113 241.363C319.322 241.389 319.54 241.402 319.768 241.402C320.184 241.402 320.542 241.314 320.842 241.139C321.141 240.963 321.392 240.725 321.594 240.426C321.796 240.133 321.955 239.811 322.072 239.459L322.248 238.922L317.912 228.082ZM334.055 243.805C332.531 243.805 331.366 243.538 330.559 243.004C329.758 242.477 329.357 241.734 329.357 240.777C329.357 240.12 329.562 239.57 329.973 239.127C330.383 238.684 330.985 238.368 331.779 238.18C331.473 238.049 331.206 237.838 330.979 237.545C330.751 237.245 330.637 236.93 330.637 236.598C330.637 236.181 330.757 235.836 330.998 235.562C331.239 235.283 331.587 235.009 332.043 234.742C331.47 234.495 331.014 234.098 330.676 233.551C330.344 233.004 330.178 232.359 330.178 231.617C330.178 230.823 330.35 230.149 330.695 229.596C331.047 229.036 331.555 228.609 332.219 228.316C332.889 228.023 333.703 227.877 334.66 227.877C334.862 227.877 335.096 227.89 335.363 227.916C335.63 227.942 335.874 227.971 336.096 228.004C336.324 228.036 336.477 228.062 336.555 228.082H340.363V229.596L338.654 230.035C338.811 230.276 338.928 230.533 339.006 230.807C339.084 231.08 339.123 231.37 339.123 231.676C339.123 232.848 338.713 233.762 337.893 234.42C337.079 235.071 335.946 235.396 334.494 235.396C334.149 235.377 333.824 235.351 333.518 235.318C333.368 235.436 333.254 235.559 333.176 235.689C333.098 235.82 333.059 235.956 333.059 236.1C333.059 236.243 333.117 236.363 333.234 236.461C333.358 236.552 333.54 236.624 333.781 236.676C334.029 236.721 334.335 236.744 334.699 236.744H336.555C337.753 236.744 338.664 237.001 339.289 237.516C339.921 238.03 340.236 238.785 340.236 239.781C340.236 241.057 339.702 242.047 338.635 242.75C337.574 243.453 336.047 243.805 334.055 243.805ZM334.182 241.861C334.891 241.861 335.5 241.793 336.008 241.656C336.522 241.526 336.916 241.337 337.189 241.09C337.463 240.849 337.6 240.559 337.6 240.221C337.6 239.947 337.518 239.729 337.355 239.566C337.199 239.41 336.958 239.299 336.633 239.234C336.314 239.169 335.904 239.137 335.402 239.137H333.859C333.495 239.137 333.166 239.195 332.873 239.312C332.587 239.43 332.359 239.592 332.189 239.801C332.02 240.016 331.936 240.263 331.936 240.543C331.936 240.953 332.131 241.275 332.521 241.51C332.919 241.744 333.472 241.861 334.182 241.861ZM334.66 233.58C335.22 233.58 335.63 233.408 335.891 233.062C336.151 232.717 336.281 232.249 336.281 231.656C336.281 230.999 336.145 230.507 335.871 230.182C335.604 229.85 335.201 229.684 334.66 229.684C334.113 229.684 333.703 229.85 333.43 230.182C333.156 230.507 333.02 230.999 333.02 231.656C333.02 232.249 333.153 232.717 333.42 233.062C333.693 233.408 334.107 233.58 334.66 233.58ZM346.672 227.877C347.681 227.877 348.55 228.072 349.279 228.463C350.008 228.847 350.572 229.407 350.969 230.143C351.366 230.878 351.564 231.777 351.564 232.838V234.283H344.523C344.556 235.123 344.807 235.784 345.275 236.266C345.751 236.741 346.408 236.979 347.248 236.979C347.945 236.979 348.583 236.907 349.162 236.764C349.742 236.62 350.337 236.406 350.949 236.119V238.424C350.409 238.691 349.842 238.886 349.25 239.01C348.664 239.133 347.951 239.195 347.111 239.195C346.018 239.195 345.048 238.993 344.201 238.59C343.361 238.186 342.701 237.571 342.219 236.744C341.743 235.917 341.506 234.876 341.506 233.619C341.506 232.343 341.721 231.282 342.15 230.436C342.587 229.583 343.192 228.945 343.967 228.521C344.742 228.092 345.643 227.877 346.672 227.877ZM346.691 229.996C346.112 229.996 345.63 230.182 345.246 230.553C344.868 230.924 344.65 231.507 344.592 232.301H348.771C348.765 231.858 348.684 231.464 348.527 231.119C348.378 230.774 348.15 230.501 347.844 230.299C347.544 230.097 347.16 229.996 346.691 229.996ZM360.188 227.877C361.353 227.877 362.29 228.196 363 228.834C363.71 229.465 364.064 230.481 364.064 231.881V239H361.086V232.623C361.086 231.842 360.943 231.253 360.656 230.855C360.376 230.458 359.934 230.26 359.328 230.26C358.417 230.26 357.795 230.569 357.463 231.188C357.131 231.806 356.965 232.698 356.965 233.863V239H353.986V228.082H356.262L356.662 229.479H356.828C357.062 229.101 357.352 228.795 357.697 228.561C358.049 228.326 358.436 228.154 358.859 228.043C359.289 227.932 359.732 227.877 360.188 227.877Z" fill="black"/>
<circle cx="536" cy="120" r="48" stroke="#161326" stroke-width="2"/>
<circle cx="536" cy="120" r="64" stroke="#161326" stroke-width="2"/>
<path d="M480 120C480 115.582 483.582 112 488 112C492.418 112 496 115.582 496 120C496 124.418 492.418 128 488 128C483.582 128 480 124.418 480 120Z" fill="#161326"/>
<path d="M576 120C576 115.582 579.582 112 584 112C588.418 112 592 115.582 592 120C592 124.418 588.418 128 584 128C579.582 128 576 124.418 576 120Z" fill="#161326"/>
<path d="M536 64C531.582 64 528 60.4183 528 56C528 51.5817 531.582 48 536 48C540.418 48 544 51.5817 544 56C544 60.4183 540.418 64 536 64Z" fill="#161326"/>
<path d="M508 168.497C511.826 170.707 513.137 175.599 510.928 179.426C508.719 183.252 503.826 184.563 500 182.354C496.174 180.145 494.863 175.252 497.072 171.426C499.281 167.599 504.174 166.288 508 168.497Z" fill="#161326"/>
<path d="M564 168.497C567.826 166.288 572.719 167.599 574.928 171.426C577.137 175.252 575.826 180.145 572 182.354C568.174 184.563 563.281 183.252 561.072 179.426C558.863 175.599 560.174 170.707 564 168.497Z" fill="#161326"/>
<path d="M598.354 156C596.145 159.826 591.252 161.137 587.426 158.928C583.599 156.719 582.288 151.826 584.497 148C586.707 144.174 591.599 142.863 595.426 145.072C599.252 147.281 600.563 152.174 598.354 156Z" fill="#161326"/>
<path d="M487.503 92C485.293 95.8264 480.401 97.1374 476.574 94.9282C472.748 92.7191 471.437 87.8264 473.646 84C475.855 80.1737 480.748 78.8627 484.574 81.0718C488.401 83.281 489.712 88.1737 487.503 92Z" fill="#161326"/>
<path d="M598.354 84C600.563 87.8264 599.252 92.7191 595.426 94.9282C591.599 97.1374 586.707 95.8264 584.498 92C582.288 88.1737 583.599 83.281 587.426 81.0718C591.252 78.8627 596.145 80.1737 598.354 84Z" fill="#161326"/>
<path d="M487.503 148C489.712 151.826 488.401 156.719 484.574 158.928C480.748 161.137 475.855 159.826 473.646 156C471.437 152.174 472.748 147.281 476.574 145.072C480.401 142.863 485.294 144.174 487.503 148Z" fill="#161326"/>
<path d="M504 120C504 102.327 518.327 88 536 88C553.673 88 568 102.327 568 120C568 137.673 553.673 152 536 152C518.327 152 504 137.673 504 120Z" fill="#006666"/>
<path d="M535.145 129H531.57V111.867H541.391V114.844H535.145V119.262H540.957V122.227H535.145V129Z" fill="white"/>
<path d="M499.389 239H496.41V224.723H504.594V227.203H499.389V230.885H504.232V233.355H499.389V239ZM510.131 239H507.152V223.805H510.131V239ZM523.188 233.521C523.188 234.433 523.064 235.24 522.816 235.943C522.576 236.646 522.221 237.242 521.752 237.73C521.29 238.212 520.73 238.577 520.072 238.824C519.421 239.072 518.686 239.195 517.865 239.195C517.097 239.195 516.391 239.072 515.746 238.824C515.108 238.577 514.551 238.212 514.076 237.73C513.607 237.242 513.243 236.646 512.982 235.943C512.729 235.24 512.602 234.433 512.602 233.521C512.602 232.311 512.816 231.285 513.246 230.445C513.676 229.605 514.288 228.967 515.082 228.531C515.876 228.095 516.824 227.877 517.924 227.877C518.946 227.877 519.851 228.095 520.639 228.531C521.433 228.967 522.055 229.605 522.504 230.445C522.96 231.285 523.188 232.311 523.188 233.521ZM515.639 233.521C515.639 234.238 515.717 234.84 515.873 235.328C516.029 235.816 516.273 236.184 516.605 236.432C516.938 236.679 517.37 236.803 517.904 236.803C518.432 236.803 518.858 236.679 519.184 236.432C519.516 236.184 519.757 235.816 519.906 235.328C520.062 234.84 520.141 234.238 520.141 233.521C520.141 232.799 520.062 232.2 519.906 231.725C519.757 231.243 519.516 230.882 519.184 230.641C518.852 230.4 518.419 230.279 517.885 230.279C517.097 230.279 516.524 230.549 516.166 231.09C515.814 231.63 515.639 232.441 515.639 233.521ZM535.668 228.082V239H533.383L532.982 237.604H532.826C532.592 237.975 532.299 238.277 531.947 238.512C531.596 238.746 531.208 238.919 530.785 239.029C530.362 239.14 529.923 239.195 529.467 239.195C528.686 239.195 528.005 239.059 527.426 238.785C526.846 238.505 526.394 238.072 526.068 237.486C525.749 236.9 525.59 236.139 525.59 235.201V228.082H528.568V234.459C528.568 235.24 528.708 235.829 528.988 236.227C529.268 236.624 529.714 236.822 530.326 236.822C530.932 236.822 531.407 236.686 531.752 236.412C532.097 236.132 532.338 235.725 532.475 235.191C532.618 234.651 532.689 233.993 532.689 233.219V228.082H535.668ZM544.887 227.877C545.036 227.877 545.209 227.887 545.404 227.906C545.606 227.919 545.769 227.939 545.893 227.965L545.668 230.758C545.57 230.725 545.43 230.702 545.248 230.689C545.072 230.67 544.919 230.66 544.789 230.66C544.405 230.66 544.031 230.709 543.666 230.807C543.308 230.904 542.986 231.064 542.699 231.285C542.413 231.5 542.185 231.786 542.016 232.145C541.853 232.496 541.771 232.929 541.771 233.443V239H538.793V228.082H541.049L541.488 229.918H541.635C541.85 229.547 542.117 229.208 542.436 228.902C542.761 228.59 543.129 228.342 543.539 228.16C543.956 227.971 544.405 227.877 544.887 227.877ZM550.854 228.082V239H547.875V228.082H550.854ZM549.369 223.805C549.812 223.805 550.193 223.909 550.512 224.117C550.831 224.319 550.99 224.7 550.99 225.26C550.99 225.813 550.831 226.197 550.512 226.412C550.193 226.62 549.812 226.725 549.369 226.725C548.92 226.725 548.536 226.62 548.217 226.412C547.904 226.197 547.748 225.813 547.748 225.26C547.748 224.7 547.904 224.319 548.217 224.117C548.536 223.909 548.92 223.805 549.369 223.805ZM560.189 227.877C561.355 227.877 562.292 228.196 563.002 228.834C563.712 229.465 564.066 230.481 564.066 231.881V239H561.088V232.623C561.088 231.842 560.945 231.253 560.658 230.855C560.378 230.458 559.936 230.26 559.33 230.26C558.419 230.26 557.797 230.569 557.465 231.188C557.133 231.806 556.967 232.698 556.967 233.863V239H553.988V228.082H556.264L556.664 229.479H556.83C557.064 229.101 557.354 228.795 557.699 228.561C558.051 228.326 558.438 228.154 558.861 228.043C559.291 227.932 559.734 227.877 560.189 227.877ZM571.635 227.877C572.644 227.877 573.513 228.072 574.242 228.463C574.971 228.847 575.535 229.407 575.932 230.143C576.329 230.878 576.527 231.777 576.527 232.838V234.283H569.486C569.519 235.123 569.77 235.784 570.238 236.266C570.714 236.741 571.371 236.979 572.211 236.979C572.908 236.979 573.546 236.907 574.125 236.764C574.704 236.62 575.3 236.406 575.912 236.119V238.424C575.372 238.691 574.805 238.886 574.213 239.01C573.627 239.133 572.914 239.195 572.074 239.195C570.98 239.195 570.01 238.993 569.164 238.59C568.324 238.186 567.663 237.571 567.182 236.744C566.706 235.917 566.469 234.876 566.469 233.619C566.469 232.343 566.684 231.282 567.113 230.436C567.549 229.583 568.155 228.945 568.93 228.521C569.704 228.092 570.606 227.877 571.635 227.877ZM571.654 229.996C571.075 229.996 570.593 230.182 570.209 230.553C569.831 230.924 569.613 231.507 569.555 232.301H573.734C573.728 231.858 573.646 231.464 573.49 231.119C573.34 230.774 573.113 230.501 572.807 230.299C572.507 230.097 572.123 229.996 571.654 229.996Z" fill="black"/>
<circle cx="744" cy="120" r="48" stroke="#161326" stroke-width="2"/>
<circle cx="744" cy="120" r="64" stroke="#161326" stroke-width="2"/>
<path d="M688 120C688 115.582 691.582 112 696 112C700.418 112 704 115.582 704 120C704 124.418 700.418 128 696 128C691.582 128 688 124.418 688 120Z" fill="#161326"/>
<path d="M784 120C784 115.582 787.582 112 792 112C796.418 112 800 115.582 800 120C800 124.418 796.418 128 792 128C787.582 128 784 124.418 784 120Z" fill="#161326"/>
<path d="M713.572 185.254C709.567 183.387 707.835 178.627 709.702 174.623C711.569 170.618 716.329 168.886 720.333 170.753C724.338 172.62 726.07 177.38 724.203 181.385C722.336 185.389 717.576 187.121 713.572 185.254Z" fill="#161326"/>
<path d="M767.667 69.2467C763.662 67.3795 761.93 62.6196 763.797 58.6153C765.664 54.611 770.424 52.8786 774.429 54.7458C778.433 56.613 780.165 61.3729 778.298 65.3772C776.431 69.3815 771.671 71.114 767.667 69.2467Z" fill="#161326"/>
<path d="M681.646 156C679.437 152.174 680.748 147.281 684.574 145.072C688.401 142.863 693.293 144.174 695.503 148C697.712 151.826 696.401 156.719 692.574 158.928C688.748 161.137 683.855 159.826 681.646 156Z" fill="#161326"/>
<path d="M792.497 92C790.288 88.1736 791.599 83.2809 795.426 81.0718C799.252 78.8626 804.145 80.1736 806.354 84C808.563 87.8263 807.252 92.719 803.426 94.9282C799.599 97.1373 794.707 95.8263 792.497 92Z" fill="#161326"/>
<path d="M681.646 84C683.855 80.1736 688.748 78.8626 692.574 81.0718C696.401 83.2809 697.712 88.1736 695.503 92C693.293 95.8263 688.401 97.1373 684.574 94.9282C680.748 92.719 679.437 87.8263 681.646 84Z" fill="#161326"/>
<path d="M792.497 148C794.707 144.174 799.599 142.863 803.426 145.072C807.252 147.281 808.563 152.174 806.354 156C804.145 159.826 799.252 161.137 795.426 158.928C791.599 156.719 790.288 151.826 792.497 148Z" fill="#161326"/>
<path d="M774.428 185.254C770.424 187.121 765.664 185.389 763.797 181.385C761.93 177.38 763.662 172.62 767.667 170.753C771.671 168.886 776.431 170.618 778.298 174.623C780.165 178.627 778.433 183.387 774.428 185.254Z" fill="#161326"/>
<path d="M720.333 69.2467C716.329 71.1139 711.569 69.3815 709.702 65.3772C707.835 61.3728 709.567 56.613 713.571 54.7458C717.576 52.8785 722.336 54.611 724.203 58.6153C726.07 62.6196 724.338 67.3794 720.333 69.2467Z" fill="#161326"/>
<path d="M712 120C712 102.327 726.327 88 744 88C761.673 88 776 102.327 776 120C776 137.673 761.673 152 744 152C726.327 152 712 137.673 712 120Z" fill="#8E0B37"/>
<path d="M744.504 129H739.887L732.434 116.039H732.328C732.359 116.578 732.387 117.121 732.41 117.668C732.434 118.215 732.457 118.762 732.48 119.309C732.504 119.848 732.527 120.391 732.551 120.938V129H729.305V111.867H733.887L741.328 124.699H741.41C741.395 124.168 741.375 123.641 741.352 123.117C741.328 122.594 741.305 122.07 741.281 121.547C741.266 121.023 741.25 120.5 741.234 119.977V111.867H744.504V129ZM753.949 115.652C755.16 115.652 756.203 115.887 757.078 116.355C757.953 116.816 758.629 117.488 759.105 118.371C759.582 119.254 759.82 120.332 759.82 121.605V123.34H751.371C751.41 124.348 751.711 125.141 752.273 125.719C752.844 126.289 753.633 126.574 754.641 126.574C755.477 126.574 756.242 126.488 756.938 126.316C757.633 126.145 758.348 125.887 759.082 125.543V128.309C758.434 128.629 757.754 128.863 757.043 129.012C756.34 129.16 755.484 129.234 754.477 129.234C753.164 129.234 752 128.992 750.984 128.508C749.977 128.023 749.184 127.285 748.605 126.293C748.035 125.301 747.75 124.051 747.75 122.543C747.75 121.012 748.008 119.738 748.523 118.723C749.047 117.699 749.773 116.934 750.703 116.426C751.633 115.91 752.715 115.652 753.949 115.652ZM753.973 118.195C753.277 118.195 752.699 118.418 752.238 118.863C751.785 119.309 751.523 120.008 751.453 120.961H756.469C756.461 120.43 756.363 119.957 756.176 119.543C755.996 119.129 755.723 118.801 755.355 118.559C754.996 118.316 754.535 118.195 753.973 118.195Z" fill="white"/>
<path d="M731.656 239H727.809L721.598 228.199H721.51C721.536 228.648 721.559 229.101 721.578 229.557C721.598 230.012 721.617 230.468 721.637 230.924C721.656 231.373 721.676 231.826 721.695 232.281V239H718.99V224.723H722.809L729.01 235.416H729.078C729.065 234.973 729.049 234.534 729.029 234.098C729.01 233.661 728.99 233.225 728.971 232.789C728.958 232.353 728.945 231.917 728.932 231.48V224.723H731.656V239ZM739.527 227.877C740.536 227.877 741.406 228.072 742.135 228.463C742.864 228.847 743.427 229.407 743.824 230.143C744.221 230.878 744.42 231.777 744.42 232.838V234.283H737.379C737.411 235.123 737.662 235.784 738.131 236.266C738.606 236.741 739.264 236.979 740.104 236.979C740.8 236.979 741.438 236.907 742.018 236.764C742.597 236.62 743.193 236.406 743.805 236.119V238.424C743.264 238.691 742.698 238.886 742.105 239.01C741.52 239.133 740.807 239.195 739.967 239.195C738.873 239.195 737.903 238.993 737.057 238.59C736.217 238.186 735.556 237.571 735.074 236.744C734.599 235.917 734.361 234.876 734.361 233.619C734.361 232.343 734.576 231.282 735.006 230.436C735.442 229.583 736.048 228.945 736.822 228.521C737.597 228.092 738.499 227.877 739.527 227.877ZM739.547 229.996C738.967 229.996 738.486 230.182 738.102 230.553C737.724 230.924 737.506 231.507 737.447 232.301H741.627C741.62 231.858 741.539 231.464 741.383 231.119C741.233 230.774 741.005 230.501 740.699 230.299C740.4 230.097 740.016 229.996 739.547 229.996ZM756.764 233.521C756.764 234.433 756.64 235.24 756.393 235.943C756.152 236.646 755.797 237.242 755.328 237.73C754.866 238.212 754.306 238.577 753.648 238.824C752.997 239.072 752.262 239.195 751.441 239.195C750.673 239.195 749.967 239.072 749.322 238.824C748.684 238.577 748.128 238.212 747.652 237.73C747.184 237.242 746.819 236.646 746.559 235.943C746.305 235.24 746.178 234.433 746.178 233.521C746.178 232.311 746.393 231.285 746.822 230.445C747.252 229.605 747.864 228.967 748.658 228.531C749.452 228.095 750.4 227.877 751.5 227.877C752.522 227.877 753.427 228.095 754.215 228.531C755.009 228.967 755.631 229.605 756.08 230.445C756.536 231.285 756.764 232.311 756.764 233.521ZM749.215 233.521C749.215 234.238 749.293 234.84 749.449 235.328C749.605 235.816 749.85 236.184 750.182 236.432C750.514 236.679 750.947 236.803 751.48 236.803C752.008 236.803 752.434 236.679 752.76 236.432C753.092 236.184 753.333 235.816 753.482 235.328C753.639 234.84 753.717 234.238 753.717 233.521C753.717 232.799 753.639 232.2 753.482 231.725C753.333 231.243 753.092 230.882 752.76 230.641C752.428 230.4 751.995 230.279 751.461 230.279C750.673 230.279 750.1 230.549 749.742 231.09C749.391 231.63 749.215 232.441 749.215 233.521ZM765.426 227.877C766.591 227.877 767.529 228.196 768.238 228.834C768.948 229.465 769.303 230.481 769.303 231.881V239H766.324V232.623C766.324 231.842 766.181 231.253 765.895 230.855C765.615 230.458 765.172 230.26 764.566 230.26C763.655 230.26 763.033 230.569 762.701 231.188C762.369 231.806 762.203 232.698 762.203 233.863V239H759.225V228.082H761.5L761.9 229.479H762.066C762.301 229.101 762.59 228.795 762.936 228.561C763.287 228.326 763.674 228.154 764.098 228.043C764.527 227.932 764.97 227.877 765.426 227.877Z" fill="black"/>
<circle cx="952" cy="120" r="80" stroke="#161326" stroke-width="2"/>
<circle cx="952" cy="120" r="48" stroke="#161326" stroke-width="2"/>
<circle cx="952" cy="120" r="64" stroke="#161326" stroke-width="2"/>
<path d="M952 48C947.582 48 944 44.4183 944 40C944 35.5817 947.582 32 952 32C956.418 32 960 35.5817 960 40C960 44.4183 956.418 48 952 48Z" fill="#161326"/>
<path d="M896 120C896 115.582 899.582 112 904 112C908.418 112 912 115.582 912 120C912 124.418 908.418 128 904 128C899.582 128 896 124.418 896 120Z" fill="#161326"/>
<path d="M992 120C992 115.582 995.582 112 1000 112C1004.42 112 1008 115.582 1008 120C1008 124.418 1004.42 128 1000 128C995.582 128 992 124.418 992 120Z" fill="#161326"/>
<path d="M921.572 185.254C917.567 183.387 915.835 178.627 917.702 174.623C919.569 170.618 924.329 168.886 928.333 170.753C932.338 172.62 934.07 177.38 932.203 181.385C930.336 185.389 925.576 187.121 921.572 185.254Z" fill="#161326"/>
<path d="M975.667 69.2467C971.662 67.3795 969.93 62.6196 971.797 58.6153C973.664 54.611 978.424 52.8786 982.429 54.7458C986.433 56.613 988.165 61.3729 986.298 65.3772C984.431 69.3815 979.671 71.114 975.667 69.2467Z" fill="#161326"/>
<path d="M889.646 156C887.437 152.174 888.748 147.281 892.574 145.072C896.401 142.863 901.293 144.174 903.503 148C905.712 151.826 904.401 156.719 900.574 158.928C896.748 161.137 891.855 159.826 889.646 156Z" fill="#161326"/>
<path d="M1000.5 92C998.288 88.1736 999.599 83.2809 1003.43 81.0718C1007.25 78.8626 1012.14 80.1736 1014.35 84C1016.56 87.8263 1015.25 92.719 1011.43 94.9282C1007.6 97.1373 1002.71 95.8263 1000.5 92Z" fill="#161326"/>
<path d="M889.646 84C891.855 80.1736 896.748 78.8626 900.574 81.0718C904.401 83.2809 905.712 88.1736 903.503 92C901.293 95.8263 896.401 97.1373 892.574 94.9282C888.748 92.719 887.437 87.8263 889.646 84Z" fill="#161326"/>
<path d="M1000.5 148C1002.71 144.174 1007.6 142.863 1011.43 145.072C1015.25 147.281 1016.56 152.174 1014.35 156C1012.14 159.826 1007.25 161.137 1003.43 158.928C999.599 156.719 998.288 151.826 1000.5 148Z" fill="#161326"/>
<path d="M982.428 185.254C978.424 187.121 973.664 185.389 971.797 181.385C969.93 177.38 971.662 172.62 975.667 170.753C979.671 168.886 984.431 170.618 986.298 174.623C988.165 178.627 986.433 183.387 982.428 185.254Z" fill="#161326"/>
<path d="M928.333 69.2467C924.329 71.1139 919.569 69.3815 917.702 65.3772C915.835 61.3728 917.567 56.613 921.571 54.7458C925.576 52.8785 930.336 54.611 932.203 58.6153C934.07 62.6196 932.338 67.3794 928.333 69.2467Z" fill="#161326"/>
<path d="M920 120C920 102.327 934.327 88 952 88C969.673 88 984 102.327 984 120C984 137.673 969.673 152 952 152C934.327 152 920 137.673 920 120Z" fill="#1A67C9"/>
<path d="M952.34 129H947.723L940.27 116.039H940.164C940.195 116.578 940.223 117.121 940.246 117.668C940.27 118.215 940.293 118.762 940.316 119.309C940.34 119.848 940.363 120.391 940.387 120.938V129H937.141V111.867H941.723L949.164 124.699H949.246C949.23 124.168 949.211 123.641 949.188 123.117C949.164 122.594 949.141 122.07 949.117 121.547C949.102 121.023 949.086 120.5 949.07 119.977V111.867H952.34V129ZM961.75 115.629C963.508 115.629 964.855 116.012 965.793 116.777C966.73 117.543 967.199 118.707 967.199 120.27V129H964.703L964.012 127.219H963.918C963.543 127.688 963.16 128.07 962.77 128.367C962.379 128.664 961.93 128.883 961.422 129.023C960.914 129.164 960.297 129.234 959.57 129.234C958.797 129.234 958.102 129.086 957.484 128.789C956.875 128.492 956.395 128.039 956.043 127.43C955.691 126.812 955.516 126.031 955.516 125.086C955.516 123.695 956.004 122.672 956.98 122.016C957.957 121.352 959.422 120.984 961.375 120.914L963.648 120.844V120.27C963.648 119.582 963.469 119.078 963.109 118.758C962.75 118.438 962.25 118.277 961.609 118.277C960.977 118.277 960.355 118.367 959.746 118.547C959.137 118.727 958.527 118.953 957.918 119.227L956.734 116.812C957.43 116.445 958.207 116.156 959.066 115.945C959.934 115.734 960.828 115.629 961.75 115.629ZM963.648 122.93L962.266 122.977C961.109 123.008 960.305 123.215 959.852 123.598C959.406 123.98 959.184 124.484 959.184 125.109C959.184 125.656 959.344 126.047 959.664 126.281C959.984 126.508 960.402 126.621 960.918 126.621C961.684 126.621 962.328 126.395 962.852 125.941C963.383 125.488 963.648 124.844 963.648 124.008V122.93Z" fill="white"/>
<path d="M924.744 235.035C924.744 235.882 924.539 236.617 924.129 237.242C923.719 237.867 923.12 238.349 922.332 238.688C921.551 239.026 920.6 239.195 919.48 239.195C918.986 239.195 918.501 239.163 918.025 239.098C917.557 239.033 917.104 238.938 916.668 238.814C916.238 238.684 915.828 238.525 915.438 238.336V235.523C916.115 235.823 916.818 236.093 917.547 236.334C918.276 236.575 918.999 236.695 919.715 236.695C920.21 236.695 920.607 236.63 920.906 236.5C921.212 236.37 921.434 236.191 921.57 235.963C921.707 235.735 921.775 235.475 921.775 235.182C921.775 234.824 921.655 234.518 921.414 234.264C921.173 234.01 920.841 233.772 920.418 233.551C920.001 233.329 919.529 233.092 919.002 232.838C918.67 232.682 918.309 232.493 917.918 232.271C917.527 232.044 917.156 231.767 916.805 231.441C916.453 231.116 916.163 230.722 915.936 230.26C915.714 229.791 915.604 229.231 915.604 228.58C915.604 227.727 915.799 226.998 916.189 226.393C916.58 225.787 917.137 225.325 917.859 225.006C918.589 224.68 919.448 224.518 920.438 224.518C921.18 224.518 921.886 224.605 922.557 224.781C923.234 224.951 923.94 225.198 924.676 225.523L923.699 227.877C923.042 227.61 922.452 227.405 921.932 227.262C921.411 227.112 920.88 227.037 920.34 227.037C919.962 227.037 919.64 227.099 919.373 227.223C919.106 227.34 918.904 227.509 918.768 227.73C918.631 227.945 918.562 228.196 918.562 228.482C918.562 228.821 918.66 229.107 918.855 229.342C919.057 229.57 919.357 229.791 919.754 230.006C920.158 230.221 920.659 230.471 921.258 230.758C921.987 231.103 922.609 231.464 923.123 231.842C923.644 232.213 924.044 232.652 924.324 233.16C924.604 233.661 924.744 234.286 924.744 235.035ZM937.02 233.521C937.02 234.433 936.896 235.24 936.648 235.943C936.408 236.646 936.053 237.242 935.584 237.73C935.122 238.212 934.562 238.577 933.904 238.824C933.253 239.072 932.518 239.195 931.697 239.195C930.929 239.195 930.223 239.072 929.578 238.824C928.94 238.577 928.383 238.212 927.908 237.73C927.439 237.242 927.075 236.646 926.814 235.943C926.561 235.24 926.434 234.433 926.434 233.521C926.434 232.311 926.648 231.285 927.078 230.445C927.508 229.605 928.12 228.967 928.914 228.531C929.708 228.095 930.656 227.877 931.756 227.877C932.778 227.877 933.683 228.095 934.471 228.531C935.265 228.967 935.887 229.605 936.336 230.445C936.792 231.285 937.02 232.311 937.02 233.521ZM929.471 233.521C929.471 234.238 929.549 234.84 929.705 235.328C929.861 235.816 930.105 236.184 930.438 236.432C930.77 236.679 931.202 236.803 931.736 236.803C932.264 236.803 932.69 236.679 933.016 236.432C933.348 236.184 933.589 235.816 933.738 235.328C933.895 234.84 933.973 234.238 933.973 233.521C933.973 232.799 933.895 232.2 933.738 231.725C933.589 231.243 933.348 230.882 933.016 230.641C932.684 230.4 932.251 230.279 931.717 230.279C930.929 230.279 930.356 230.549 929.998 231.09C929.646 231.63 929.471 232.441 929.471 233.521ZM942.938 239.195C941.72 239.195 940.727 238.72 939.959 237.77C939.197 236.812 938.816 235.41 938.816 233.561C938.816 231.692 939.204 230.279 939.979 229.322C940.753 228.359 941.766 227.877 943.016 227.877C943.536 227.877 943.995 227.949 944.393 228.092C944.79 228.235 945.132 228.427 945.418 228.668C945.711 228.909 945.958 229.179 946.16 229.479H946.258C946.219 229.27 946.17 228.964 946.111 228.561C946.059 228.15 946.033 227.73 946.033 227.301V223.805H949.021V239H946.736L946.16 237.584H946.033C945.844 237.883 945.607 238.157 945.32 238.404C945.04 238.645 944.705 238.837 944.314 238.98C943.924 239.124 943.465 239.195 942.938 239.195ZM943.982 236.822C944.796 236.822 945.369 236.581 945.701 236.1C946.04 235.611 946.219 234.879 946.238 233.902V233.58C946.238 232.519 946.076 231.708 945.75 231.148C945.424 230.582 944.819 230.299 943.934 230.299C943.276 230.299 942.762 230.582 942.391 231.148C942.02 231.715 941.834 232.532 941.834 233.6C941.834 234.667 942.02 235.471 942.391 236.012C942.768 236.552 943.299 236.822 943.982 236.822ZM955.115 228.082V239H952.137V228.082H955.115ZM953.631 223.805C954.074 223.805 954.454 223.909 954.773 224.117C955.092 224.319 955.252 224.7 955.252 225.26C955.252 225.813 955.092 226.197 954.773 226.412C954.454 226.62 954.074 226.725 953.631 226.725C953.182 226.725 952.798 226.62 952.479 226.412C952.166 226.197 952.01 225.813 952.01 225.26C952.01 224.7 952.166 224.319 952.479 224.117C952.798 223.909 953.182 223.805 953.631 223.805ZM968.27 228.082V239H965.984L965.584 237.604H965.428C965.193 237.975 964.9 238.277 964.549 238.512C964.197 238.746 963.81 238.919 963.387 239.029C962.964 239.14 962.524 239.195 962.068 239.195C961.287 239.195 960.607 239.059 960.027 238.785C959.448 238.505 958.995 238.072 958.67 237.486C958.351 236.9 958.191 236.139 958.191 235.201V228.082H961.17V234.459C961.17 235.24 961.31 235.829 961.59 236.227C961.87 236.624 962.316 236.822 962.928 236.822C963.533 236.822 964.008 236.686 964.354 236.412C964.699 236.132 964.939 235.725 965.076 235.191C965.219 234.651 965.291 233.993 965.291 233.219V228.082H968.27ZM984.217 227.877C985.454 227.877 986.388 228.196 987.02 228.834C987.658 229.465 987.977 230.481 987.977 231.881V239H984.988V232.623C984.988 231.842 984.855 231.253 984.588 230.855C984.321 230.458 983.908 230.26 983.348 230.26C982.56 230.26 982 230.543 981.668 231.109C981.336 231.669 981.17 232.473 981.17 233.521V239H978.191V232.623C978.191 232.102 978.133 231.666 978.016 231.314C977.898 230.963 977.719 230.699 977.479 230.523C977.238 230.348 976.928 230.26 976.551 230.26C975.997 230.26 975.561 230.4 975.242 230.68C974.93 230.953 974.705 231.36 974.568 231.9C974.438 232.434 974.373 233.089 974.373 233.863V239H971.395V228.082H973.67L974.07 229.479H974.236C974.458 229.101 974.734 228.795 975.066 228.561C975.405 228.326 975.776 228.154 976.18 228.043C976.583 227.932 976.993 227.877 977.41 227.877C978.211 227.877 978.888 228.007 979.441 228.268C980.001 228.528 980.431 228.932 980.73 229.479H980.994C981.32 228.919 981.779 228.512 982.371 228.258C982.97 228.004 983.585 227.877 984.217 227.877Z" fill="black"/>
</svg>
