<svg width="800" height="624" viewBox="0 0 800 624" fill="none" xmlns="http://www.w3.org/2000/svg">
<rect width="800" height="624" fill="white"/>
<line x1="644" y1="45" x2="444" y2="45" stroke="#161326" stroke-width="2"/>
<circle cx="244" cy="44" r="19" fill="#008000" stroke="#161326" stroke-width="2"/>
<circle cx="289" cy="44" r="19" fill="#008000" stroke="#161326" stroke-width="2"/>
<circle cx="334" cy="44" r="19" fill="#008000" stroke="#161326" stroke-width="2"/>
<circle cx="379" cy="44" r="19" fill="#008000" stroke="#161326" stroke-width="2"/>
<circle cx="424" cy="44" r="19" fill="#008000" stroke="#161326" stroke-width="2"/>
<path d="M684.957 49.2383H682.637V53H679.918V49.2383H672.125V47.1523L679.953 35.8203H682.637V46.9531H684.957V49.2383ZM679.918 46.9531V42.6992C679.918 42.3477 679.922 41.9922 679.93 41.6328C679.945 41.2656 679.961 40.9141 679.977 40.5781C679.992 40.2422 680.008 39.9336 680.023 39.6523C680.039 39.3633 680.051 39.125 680.059 38.9375H679.965C679.816 39.25 679.652 39.5703 679.473 39.8984C679.293 40.2188 679.102 40.5312 678.898 40.8359L674.68 46.9531H679.918ZM691.719 53.2344C690.172 53.2344 688.93 52.6719 687.992 51.5469C687.062 50.4141 686.598 48.7461 686.598 46.543C686.598 44.3164 687.07 42.6328 688.016 41.4922C688.969 40.3516 690.223 39.7812 691.777 39.7812C692.434 39.7812 693.008 39.8711 693.5 40.0508C693.992 40.2227 694.414 40.457 694.766 40.7539C695.125 41.0508 695.43 41.3828 695.68 41.75H695.809C695.77 41.5078 695.723 41.1602 695.668 40.707C695.621 40.2461 695.598 39.8203 695.598 39.4297V34.7656H698.363V53H696.207L695.715 51.2305H695.598C695.363 51.6055 695.066 51.9453 694.707 52.25C694.355 52.5469 693.934 52.7852 693.441 52.9648C692.957 53.1445 692.383 53.2344 691.719 53.2344ZM692.492 50.9961C693.672 50.9961 694.504 50.6562 694.988 49.9766C695.473 49.2969 695.723 48.2773 695.738 46.918V46.5547C695.738 45.1016 695.504 43.9883 695.035 43.2148C694.566 42.4336 693.711 42.043 692.469 42.043C691.477 42.043 690.719 42.4453 690.195 43.25C689.68 44.0469 689.422 45.1602 689.422 46.5898C689.422 48.0195 689.68 49.1133 690.195 49.8711C690.719 50.6211 691.484 50.9961 692.492 50.9961Z" fill="black"/>
<g clip-path="url(#clip0_258_1763)">
<line x1="644" y1="93" x2="64" y2="93.0001" stroke="#161326" stroke-width="2"/>
<circle cx="44" cy="92" r="19" fill="#0000FF" stroke="#161326" stroke-width="2"/>
</g>
<path d="M680.188 90.2891C681.289 90.2891 682.258 90.4883 683.094 90.8867C683.938 91.2773 684.594 91.8555 685.062 92.6211C685.531 93.3789 685.766 94.3086 685.766 95.4102C685.766 96.6133 685.512 97.6523 685.004 98.5273C684.496 99.3945 683.75 100.062 682.766 100.531C681.781 101 680.582 101.234 679.168 101.234C678.27 101.234 677.43 101.156 676.648 101C675.875 100.844 675.207 100.609 674.645 100.297V97.8125C675.23 98.1406 675.934 98.4102 676.754 98.6211C677.574 98.8242 678.359 98.9258 679.109 98.9258C679.906 98.9258 680.59 98.8086 681.16 98.5742C681.73 98.3398 682.168 97.9805 682.473 97.4961C682.785 97.0117 682.941 96.3984 682.941 95.6562C682.941 94.6719 682.625 93.9141 681.992 93.3828C681.367 92.8438 680.387 92.5742 679.051 92.5742C678.582 92.5742 678.082 92.6172 677.551 92.7031C677.027 92.7812 676.59 92.8672 676.238 92.9609L675.031 92.2461L675.676 83.8672H684.582V86.293H678.102L677.727 90.5586C678.008 90.4961 678.344 90.4375 678.734 90.3828C679.125 90.3203 679.609 90.2891 680.188 90.2891ZM697.707 97.2969C697.707 98.1484 697.5 98.8672 697.086 99.4531C696.672 100.039 696.066 100.484 695.27 100.789C694.48 101.086 693.512 101.234 692.363 101.234C691.457 101.234 690.676 101.168 690.02 101.035C689.371 100.91 688.758 100.715 688.18 100.449V98.0703C688.797 98.3594 689.488 98.6094 690.254 98.8203C691.027 99.0312 691.758 99.1367 692.445 99.1367C693.352 99.1367 694.004 98.9961 694.402 98.7148C694.801 98.4258 695 98.043 695 97.5664C695 97.2852 694.918 97.0352 694.754 96.8164C694.598 96.5898 694.301 96.3594 693.863 96.125C693.434 95.8828 692.801 95.5938 691.965 95.2578C691.145 94.9297 690.453 94.6016 689.891 94.2734C689.328 93.9453 688.902 93.5508 688.613 93.0898C688.324 92.6211 688.18 92.0234 688.18 91.2969C688.18 90.1484 688.633 89.2773 689.539 88.6836C690.453 88.082 691.66 87.7812 693.16 87.7812C693.957 87.7812 694.707 87.8633 695.41 88.0273C696.121 88.1836 696.816 88.4141 697.496 88.7188L696.629 90.793C696.043 90.5352 695.453 90.3242 694.859 90.1602C694.273 89.9883 693.676 89.9023 693.066 89.9023C692.355 89.9023 691.812 90.0117 691.438 90.2305C691.07 90.4492 690.887 90.7617 690.887 91.168C690.887 91.4727 690.977 91.7305 691.156 91.9414C691.336 92.1523 691.645 92.3633 692.082 92.5742C692.527 92.7852 693.145 93.0469 693.934 93.3594C694.707 93.6562 695.375 93.9688 695.938 94.2969C696.508 94.6172 696.945 95.0117 697.25 95.4805C697.555 95.9492 697.707 96.5547 697.707 97.2969Z" fill="black"/>
<line x1="644" y1="165" x2="196" y2="165" stroke="#161326" stroke-width="2"/>
<circle cx="87" cy="164" r="19" fill="#008000" stroke="#161326" stroke-width="2"/>
<circle cx="132" cy="164" r="19" fill="#008000" stroke="#161326" stroke-width="2"/>
<circle cx="177" cy="164" r="19" fill="#008000" stroke="#161326" stroke-width="2"/>
<path d="M684.957 169.238H682.637V173H679.918V169.238H672.125V167.152L679.953 155.82H682.637V166.953H684.957V169.238ZM679.918 166.953V162.699C679.918 162.348 679.922 161.992 679.93 161.633C679.945 161.266 679.961 160.914 679.977 160.578C679.992 160.242 680.008 159.934 680.023 159.652C680.039 159.363 680.051 159.125 680.059 158.938H679.965C679.816 159.25 679.652 159.57 679.473 159.898C679.293 160.219 679.102 160.531 678.898 160.836L674.68 166.953H679.918ZM694.016 159.781C695.555 159.781 696.789 160.344 697.719 161.469C698.656 162.594 699.125 164.266 699.125 166.484C699.125 167.953 698.906 169.191 698.469 170.199C698.039 171.199 697.434 171.957 696.652 172.473C695.879 172.98 694.977 173.234 693.945 173.234C693.289 173.234 692.719 173.148 692.234 172.977C691.75 172.805 691.336 172.582 690.992 172.309C690.648 172.027 690.359 171.723 690.125 171.395H689.961C690 171.707 690.035 172.055 690.066 172.438C690.105 172.812 690.125 173.156 690.125 173.469V178.754H687.359V160.027H689.609L689.996 161.82H690.125C690.367 161.453 690.66 161.113 691.004 160.801C691.355 160.488 691.777 160.242 692.27 160.062C692.77 159.875 693.352 159.781 694.016 159.781ZM693.277 162.031C692.52 162.031 691.91 162.184 691.449 162.488C690.996 162.785 690.664 163.234 690.453 163.836C690.25 164.438 690.141 165.191 690.125 166.098V166.484C690.125 167.445 690.223 168.262 690.418 168.934C690.621 169.598 690.953 170.105 691.414 170.457C691.883 170.801 692.516 170.973 693.312 170.973C693.984 170.973 694.539 170.789 694.977 170.422C695.422 170.055 695.754 169.531 695.973 168.852C696.191 168.172 696.301 167.371 696.301 166.449C696.301 165.051 696.051 163.965 695.551 163.191C695.059 162.418 694.301 162.031 693.277 162.031Z" fill="black"/>
<line x1="644" y1="213" x2="444" y2="213" stroke="#161326" stroke-width="2"/>
<circle cx="244" cy="212" r="19" fill="#FFFF00" stroke="#161326" stroke-width="2"/>
<circle cx="289" cy="212" r="19" fill="#FFFF00" stroke="#161326" stroke-width="2"/>
<circle cx="334" cy="212" r="19" fill="#FFFF00" stroke="#161326" stroke-width="2"/>
<circle cx="379" cy="212" r="19" fill="#FFFF00" stroke="#161326" stroke-width="2"/>
<circle cx="424" cy="212" r="19" fill="#FFFF00" stroke="#161326" stroke-width="2"/>
<path d="M683.68 207.781C683.68 208.555 683.523 209.227 683.211 209.797C682.898 210.367 682.469 210.836 681.922 211.203C681.383 211.562 680.758 211.82 680.047 211.977V212.059C681.414 212.23 682.445 212.66 683.141 213.348C683.844 214.035 684.195 214.945 684.195 216.078C684.195 217.07 683.957 217.957 683.48 218.738C683.004 219.512 682.273 220.121 681.289 220.566C680.305 221.012 679.039 221.234 677.492 221.234C676.562 221.234 675.699 221.16 674.902 221.012C674.113 220.863 673.363 220.625 672.652 220.297V217.848C673.379 218.207 674.152 218.484 674.973 218.68C675.793 218.875 676.57 218.973 677.305 218.973C678.734 218.973 679.754 218.707 680.363 218.176C680.973 217.637 681.277 216.895 681.277 215.949C681.277 215.34 681.117 214.84 680.797 214.449C680.484 214.059 679.996 213.766 679.332 213.57C678.676 213.375 677.828 213.277 676.789 213.277H675.277V211.062H676.801C677.793 211.062 678.59 210.945 679.191 210.711C679.793 210.469 680.227 210.137 680.492 209.715C680.766 209.293 680.902 208.801 680.902 208.238C680.902 207.504 680.664 206.934 680.188 206.527C679.711 206.113 679.004 205.906 678.066 205.906C677.488 205.906 676.961 205.973 676.484 206.105C676.016 206.238 675.582 206.406 675.184 206.609C674.785 206.812 674.406 207.031 674.047 207.266L672.723 205.355C673.371 204.871 674.145 204.461 675.043 204.125C675.941 203.789 676.988 203.621 678.184 203.621C679.941 203.621 681.297 204 682.25 204.758C683.203 205.508 683.68 206.516 683.68 207.781ZM691.719 221.234C690.172 221.234 688.93 220.672 687.992 219.547C687.062 218.414 686.598 216.746 686.598 214.543C686.598 212.316 687.07 210.633 688.016 209.492C688.969 208.352 690.223 207.781 691.777 207.781C692.434 207.781 693.008 207.871 693.5 208.051C693.992 208.223 694.414 208.457 694.766 208.754C695.125 209.051 695.43 209.383 695.68 209.75H695.809C695.77 209.508 695.723 209.16 695.668 208.707C695.621 208.246 695.598 207.82 695.598 207.43V202.766H698.363V221H696.207L695.715 219.23H695.598C695.363 219.605 695.066 219.945 694.707 220.25C694.355 220.547 693.934 220.785 693.441 220.965C692.957 221.145 692.383 221.234 691.719 221.234ZM692.492 218.996C693.672 218.996 694.504 218.656 694.988 217.977C695.473 217.297 695.723 216.277 695.738 214.918V214.555C695.738 213.102 695.504 211.988 695.035 211.215C694.566 210.434 693.711 210.043 692.469 210.043C691.477 210.043 690.719 210.445 690.195 211.25C689.68 212.047 689.422 213.16 689.422 214.59C689.422 216.02 689.68 217.113 690.195 217.871C690.719 218.621 691.484 218.996 692.492 218.996Z" fill="black"/>
<g clip-path="url(#clip1_258_1763)">
<line x1="644" y1="261" x2="64" y2="261" stroke="#161326" stroke-width="2"/>
<circle cx="44" cy="260" r="19" fill="#008000" stroke="#161326" stroke-width="2"/>
</g>
<path d="M686.586 265.238H684.266V269H681.547V265.238H673.754V263.152L681.582 251.82H684.266V262.953H686.586V265.238ZM681.547 262.953V258.699C681.547 258.348 681.551 257.992 681.559 257.633C681.574 257.266 681.59 256.914 681.605 256.578C681.621 256.242 681.637 255.934 681.652 255.652C681.668 255.363 681.68 255.125 681.688 254.938H681.594C681.445 255.25 681.281 255.57 681.102 255.898C680.922 256.219 680.73 256.531 680.527 256.836L676.309 262.953H681.547ZM697.707 265.297C697.707 266.148 697.5 266.867 697.086 267.453C696.672 268.039 696.066 268.484 695.27 268.789C694.48 269.086 693.512 269.234 692.363 269.234C691.457 269.234 690.676 269.168 690.02 269.035C689.371 268.91 688.758 268.715 688.18 268.449V266.07C688.797 266.359 689.488 266.609 690.254 266.82C691.027 267.031 691.758 267.137 692.445 267.137C693.352 267.137 694.004 266.996 694.402 266.715C694.801 266.426 695 266.043 695 265.566C695 265.285 694.918 265.035 694.754 264.816C694.598 264.59 694.301 264.359 693.863 264.125C693.434 263.883 692.801 263.594 691.965 263.258C691.145 262.93 690.453 262.602 689.891 262.273C689.328 261.945 688.902 261.551 688.613 261.09C688.324 260.621 688.18 260.023 688.18 259.297C688.18 258.148 688.633 257.277 689.539 256.684C690.453 256.082 691.66 255.781 693.16 255.781C693.957 255.781 694.707 255.863 695.41 256.027C696.121 256.184 696.816 256.414 697.496 256.719L696.629 258.793C696.043 258.535 695.453 258.324 694.859 258.16C694.273 257.988 693.676 257.902 693.066 257.902C692.355 257.902 691.812 258.012 691.438 258.23C691.07 258.449 690.887 258.762 690.887 259.168C690.887 259.473 690.977 259.73 691.156 259.941C691.336 260.152 691.645 260.363 692.082 260.574C692.527 260.785 693.145 261.047 693.934 261.359C694.707 261.656 695.375 261.969 695.938 262.297C696.508 262.617 696.945 263.012 697.25 263.48C697.555 263.949 697.707 264.555 697.707 265.297Z" fill="black"/>
<line x1="644" y1="341" x2="196" y2="341" stroke="#161326" stroke-width="2"/>
<circle cx="87" cy="340" r="19" fill="#FFFF00" stroke="#161326" stroke-width="2"/>
<circle cx="132" cy="340" r="19" fill="#FFFF00" stroke="#161326" stroke-width="2"/>
<circle cx="177" cy="340" r="19" fill="#FFFF00" stroke="#161326" stroke-width="2"/>
<path d="M683.68 335.781C683.68 336.555 683.523 337.227 683.211 337.797C682.898 338.367 682.469 338.836 681.922 339.203C681.383 339.562 680.758 339.82 680.047 339.977V340.059C681.414 340.23 682.445 340.66 683.141 341.348C683.844 342.035 684.195 342.945 684.195 344.078C684.195 345.07 683.957 345.957 683.48 346.738C683.004 347.512 682.273 348.121 681.289 348.566C680.305 349.012 679.039 349.234 677.492 349.234C676.562 349.234 675.699 349.16 674.902 349.012C674.113 348.863 673.363 348.625 672.652 348.297V345.848C673.379 346.207 674.152 346.484 674.973 346.68C675.793 346.875 676.57 346.973 677.305 346.973C678.734 346.973 679.754 346.707 680.363 346.176C680.973 345.637 681.277 344.895 681.277 343.949C681.277 343.34 681.117 342.84 680.797 342.449C680.484 342.059 679.996 341.766 679.332 341.57C678.676 341.375 677.828 341.277 676.789 341.277H675.277V339.062H676.801C677.793 339.062 678.59 338.945 679.191 338.711C679.793 338.469 680.227 338.137 680.492 337.715C680.766 337.293 680.902 336.801 680.902 336.238C680.902 335.504 680.664 334.934 680.188 334.527C679.711 334.113 679.004 333.906 678.066 333.906C677.488 333.906 676.961 333.973 676.484 334.105C676.016 334.238 675.582 334.406 675.184 334.609C674.785 334.812 674.406 335.031 674.047 335.266L672.723 333.355C673.371 332.871 674.145 332.461 675.043 332.125C675.941 331.789 676.988 331.621 678.184 331.621C679.941 331.621 681.297 332 682.25 332.758C683.203 333.508 683.68 334.516 683.68 335.781ZM694.016 335.781C695.555 335.781 696.789 336.344 697.719 337.469C698.656 338.594 699.125 340.266 699.125 342.484C699.125 343.953 698.906 345.191 698.469 346.199C698.039 347.199 697.434 347.957 696.652 348.473C695.879 348.98 694.977 349.234 693.945 349.234C693.289 349.234 692.719 349.148 692.234 348.977C691.75 348.805 691.336 348.582 690.992 348.309C690.648 348.027 690.359 347.723 690.125 347.395H689.961C690 347.707 690.035 348.055 690.066 348.438C690.105 348.812 690.125 349.156 690.125 349.469V354.754H687.359V336.027H689.609L689.996 337.82H690.125C690.367 337.453 690.66 337.113 691.004 336.801C691.355 336.488 691.777 336.242 692.27 336.062C692.77 335.875 693.352 335.781 694.016 335.781ZM693.277 338.031C692.52 338.031 691.91 338.184 691.449 338.488C690.996 338.785 690.664 339.234 690.453 339.836C690.25 340.438 690.141 341.191 690.125 342.098V342.484C690.125 343.445 690.223 344.262 690.418 344.934C690.621 345.598 690.953 346.105 691.414 346.457C691.883 346.801 692.516 346.973 693.312 346.973C693.984 346.973 694.539 346.789 694.977 346.422C695.422 346.055 695.754 345.531 695.973 344.852C696.191 344.172 696.301 343.371 696.301 342.449C696.301 341.051 696.051 339.965 695.551 339.191C695.059 338.418 694.301 338.031 693.277 338.031Z" fill="black"/>
<g clip-path="url(#clip2_258_1763)">
<line x1="644" y1="389" x2="64" y2="389" stroke="#161326" stroke-width="2"/>
<circle cx="44" cy="388" r="19" fill="#FFFF00" stroke="#161326" stroke-width="2"/>
</g>
<path d="M685.309 383.781C685.309 384.555 685.152 385.227 684.84 385.797C684.527 386.367 684.098 386.836 683.551 387.203C683.012 387.562 682.387 387.82 681.676 387.977V388.059C683.043 388.23 684.074 388.66 684.77 389.348C685.473 390.035 685.824 390.945 685.824 392.078C685.824 393.07 685.586 393.957 685.109 394.738C684.633 395.512 683.902 396.121 682.918 396.566C681.934 397.012 680.668 397.234 679.121 397.234C678.191 397.234 677.328 397.16 676.531 397.012C675.742 396.863 674.992 396.625 674.281 396.297V393.848C675.008 394.207 675.781 394.484 676.602 394.68C677.422 394.875 678.199 394.973 678.934 394.973C680.363 394.973 681.383 394.707 681.992 394.176C682.602 393.637 682.906 392.895 682.906 391.949C682.906 391.34 682.746 390.84 682.426 390.449C682.113 390.059 681.625 389.766 680.961 389.57C680.305 389.375 679.457 389.277 678.418 389.277H676.906V387.062H678.43C679.422 387.062 680.219 386.945 680.82 386.711C681.422 386.469 681.855 386.137 682.121 385.715C682.395 385.293 682.531 384.801 682.531 384.238C682.531 383.504 682.293 382.934 681.816 382.527C681.34 382.113 680.633 381.906 679.695 381.906C679.117 381.906 678.59 381.973 678.113 382.105C677.645 382.238 677.211 382.406 676.812 382.609C676.414 382.812 676.035 383.031 675.676 383.266L674.352 381.355C675 380.871 675.773 380.461 676.672 380.125C677.57 379.789 678.617 379.621 679.812 379.621C681.57 379.621 682.926 380 683.879 380.758C684.832 381.508 685.309 382.516 685.309 383.781ZM697.707 393.297C697.707 394.148 697.5 394.867 697.086 395.453C696.672 396.039 696.066 396.484 695.27 396.789C694.48 397.086 693.512 397.234 692.363 397.234C691.457 397.234 690.676 397.168 690.02 397.035C689.371 396.91 688.758 396.715 688.18 396.449V394.07C688.797 394.359 689.488 394.609 690.254 394.82C691.027 395.031 691.758 395.137 692.445 395.137C693.352 395.137 694.004 394.996 694.402 394.715C694.801 394.426 695 394.043 695 393.566C695 393.285 694.918 393.035 694.754 392.816C694.598 392.59 694.301 392.359 693.863 392.125C693.434 391.883 692.801 391.594 691.965 391.258C691.145 390.93 690.453 390.602 689.891 390.273C689.328 389.945 688.902 389.551 688.613 389.09C688.324 388.621 688.18 388.023 688.18 387.297C688.18 386.148 688.633 385.277 689.539 384.684C690.453 384.082 691.66 383.781 693.16 383.781C693.957 383.781 694.707 383.863 695.41 384.027C696.121 384.184 696.816 384.414 697.496 384.719L696.629 386.793C696.043 386.535 695.453 386.324 694.859 386.16C694.273 385.988 693.676 385.902 693.066 385.902C692.355 385.902 691.812 386.012 691.438 386.23C691.07 386.449 690.887 386.762 690.887 387.168C690.887 387.473 690.977 387.73 691.156 387.941C691.336 388.152 691.645 388.363 692.082 388.574C692.527 388.785 693.145 389.047 693.934 389.359C694.707 389.656 695.375 389.969 695.938 390.297C696.508 390.617 696.945 391.012 697.25 391.48C697.555 391.949 697.707 392.555 697.707 393.297Z" fill="black"/>
<line x1="644" y1="461" x2="196" y2="461" stroke="#161326" stroke-width="2"/>
<circle cx="87" cy="460" r="19" fill="#FF6600" stroke="#161326" stroke-width="2"/>
<circle cx="132" cy="460" r="19" fill="#FF6600" stroke="#161326" stroke-width="2"/>
<circle cx="177" cy="460" r="19" fill="#FF6600" stroke="#161326" stroke-width="2"/>
<path d="M684.336 469H672.734V466.926L677.176 462.426C678.035 461.551 678.742 460.797 679.297 460.164C679.852 459.523 680.262 458.918 680.527 458.348C680.801 457.777 680.938 457.156 680.938 456.484C680.938 455.656 680.699 455.031 680.223 454.609C679.746 454.18 679.117 453.965 678.336 453.965C677.594 453.965 676.906 454.113 676.273 454.41C675.648 454.699 675 455.113 674.328 455.652L672.816 453.836C673.293 453.43 673.801 453.059 674.34 452.723C674.887 452.387 675.496 452.121 676.168 451.926C676.84 451.723 677.605 451.621 678.465 451.621C679.551 451.621 680.488 451.816 681.277 452.207C682.066 452.59 682.672 453.125 683.094 453.812C683.523 454.5 683.738 455.301 683.738 456.215C683.738 457.137 683.555 457.988 683.188 458.77C682.82 459.551 682.297 460.324 681.617 461.09C680.938 461.848 680.129 462.672 679.191 463.562L676.227 466.457V466.586H684.336V469ZM694.016 455.781C695.555 455.781 696.789 456.344 697.719 457.469C698.656 458.594 699.125 460.266 699.125 462.484C699.125 463.953 698.906 465.191 698.469 466.199C698.039 467.199 697.434 467.957 696.652 468.473C695.879 468.98 694.977 469.234 693.945 469.234C693.289 469.234 692.719 469.148 692.234 468.977C691.75 468.805 691.336 468.582 690.992 468.309C690.648 468.027 690.359 467.723 690.125 467.395H689.961C690 467.707 690.035 468.055 690.066 468.438C690.105 468.812 690.125 469.156 690.125 469.469V474.754H687.359V456.027H689.609L689.996 457.82H690.125C690.367 457.453 690.66 457.113 691.004 456.801C691.355 456.488 691.777 456.242 692.27 456.062C692.77 455.875 693.352 455.781 694.016 455.781ZM693.277 458.031C692.52 458.031 691.91 458.184 691.449 458.488C690.996 458.785 690.664 459.234 690.453 459.836C690.25 460.438 690.141 461.191 690.125 462.098V462.484C690.125 463.445 690.223 464.262 690.418 464.934C690.621 465.598 690.953 466.105 691.414 466.457C691.883 466.801 692.516 466.973 693.312 466.973C693.984 466.973 694.539 466.789 694.977 466.422C695.422 466.055 695.754 465.531 695.973 464.852C696.191 464.172 696.301 463.371 696.301 462.449C696.301 461.051 696.051 459.965 695.551 459.191C695.059 458.418 694.301 458.031 693.277 458.031Z" fill="black"/>
<g clip-path="url(#clip3_258_1763)">
<line x1="644" y1="509" x2="64" y2="509" stroke="#161326" stroke-width="2"/>
<circle cx="44" cy="508" r="19" fill="#FF6600" stroke="#161326" stroke-width="2"/>
</g>
<path d="M685.965 517H674.363V514.926L678.805 510.426C679.664 509.551 680.371 508.797 680.926 508.164C681.48 507.523 681.891 506.918 682.156 506.348C682.43 505.777 682.566 505.156 682.566 504.484C682.566 503.656 682.328 503.031 681.852 502.609C681.375 502.18 680.746 501.965 679.965 501.965C679.223 501.965 678.535 502.113 677.902 502.41C677.277 502.699 676.629 503.113 675.957 503.652L674.445 501.836C674.922 501.43 675.43 501.059 675.969 500.723C676.516 500.387 677.125 500.121 677.797 499.926C678.469 499.723 679.234 499.621 680.094 499.621C681.18 499.621 682.117 499.816 682.906 500.207C683.695 500.59 684.301 501.125 684.723 501.812C685.152 502.5 685.367 503.301 685.367 504.215C685.367 505.137 685.184 505.988 684.816 506.77C684.449 507.551 683.926 508.324 683.246 509.09C682.566 509.848 681.758 510.672 680.82 511.562L677.855 514.457V514.586H685.965V517ZM697.707 513.297C697.707 514.148 697.5 514.867 697.086 515.453C696.672 516.039 696.066 516.484 695.27 516.789C694.48 517.086 693.512 517.234 692.363 517.234C691.457 517.234 690.676 517.168 690.02 517.035C689.371 516.91 688.758 516.715 688.18 516.449V514.07C688.797 514.359 689.488 514.609 690.254 514.82C691.027 515.031 691.758 515.137 692.445 515.137C693.352 515.137 694.004 514.996 694.402 514.715C694.801 514.426 695 514.043 695 513.566C695 513.285 694.918 513.035 694.754 512.816C694.598 512.59 694.301 512.359 693.863 512.125C693.434 511.883 692.801 511.594 691.965 511.258C691.145 510.93 690.453 510.602 689.891 510.273C689.328 509.945 688.902 509.551 688.613 509.09C688.324 508.621 688.18 508.023 688.18 507.297C688.18 506.148 688.633 505.277 689.539 504.684C690.453 504.082 691.66 503.781 693.16 503.781C693.957 503.781 694.707 503.863 695.41 504.027C696.121 504.184 696.816 504.414 697.496 504.719L696.629 506.793C696.043 506.535 695.453 506.324 694.859 506.16C694.273 505.988 693.676 505.902 693.066 505.902C692.355 505.902 691.812 506.012 691.438 506.23C691.07 506.449 690.887 506.762 690.887 507.168C690.887 507.473 690.977 507.73 691.156 507.941C691.336 508.152 691.645 508.363 692.082 508.574C692.527 508.785 693.145 509.047 693.934 509.359C694.707 509.656 695.375 509.969 695.938 510.297C696.508 510.617 696.945 511.012 697.25 511.48C697.555 511.949 697.707 512.555 697.707 513.297Z" fill="black"/>
<g clip-path="url(#clip4_258_1763)">
<line x1="644" y1="581" x2="64" y2="581" stroke="#161326" stroke-width="2"/>
<circle cx="44" cy="580" r="19" fill="#FF0000" stroke="#161326" stroke-width="2"/>
</g>
<path d="M682.461 589H679.695V577.973C679.695 577.605 679.699 577.238 679.707 576.871C679.715 576.504 679.723 576.145 679.73 575.793C679.746 575.441 679.766 575.105 679.789 574.785C679.625 574.965 679.422 575.16 679.18 575.371C678.945 575.582 678.695 575.801 678.43 576.027L676.461 577.598L675.078 575.852L680.164 571.867H682.461V589ZM697.707 585.297C697.707 586.148 697.5 586.867 697.086 587.453C696.672 588.039 696.066 588.484 695.27 588.789C694.48 589.086 693.512 589.234 692.363 589.234C691.457 589.234 690.676 589.168 690.02 589.035C689.371 588.91 688.758 588.715 688.18 588.449V586.07C688.797 586.359 689.488 586.609 690.254 586.82C691.027 587.031 691.758 587.137 692.445 587.137C693.352 587.137 694.004 586.996 694.402 586.715C694.801 586.426 695 586.043 695 585.566C695 585.285 694.918 585.035 694.754 584.816C694.598 584.59 694.301 584.359 693.863 584.125C693.434 583.883 692.801 583.594 691.965 583.258C691.145 582.93 690.453 582.602 689.891 582.273C689.328 581.945 688.902 581.551 688.613 581.09C688.324 580.621 688.18 580.023 688.18 579.297C688.18 578.148 688.633 577.277 689.539 576.684C690.453 576.082 691.66 575.781 693.16 575.781C693.957 575.781 694.707 575.863 695.41 576.027C696.121 576.184 696.816 576.414 697.496 576.719L696.629 578.793C696.043 578.535 695.453 578.324 694.859 578.16C694.273 577.988 693.676 577.902 693.066 577.902C692.355 577.902 691.812 578.012 691.438 578.23C691.07 578.449 690.887 578.762 690.887 579.168C690.887 579.473 690.977 579.73 691.156 579.941C691.336 580.152 691.645 580.363 692.082 580.574C692.527 580.785 693.145 581.047 693.934 581.359C694.707 581.656 695.375 581.969 695.938 582.297C696.508 582.617 696.945 583.012 697.25 583.48C697.555 583.949 697.707 584.555 697.707 585.297Z" fill="black"/>
<path d="M744 40L760 24L776 40H767L767 600H752L752 40H744Z" fill="url(#paint0_linear_258_1763)"/>
<g clip-path="url(#clip5_258_1763)">
<rect x="744" y="398.5" width="174" height="32" rx="4" transform="rotate(-90 744 398.5)" fill="white"/>
<path d="M766 380.742H754.578V378.32H766V380.742ZM757.102 370.672C757.102 369.74 757.357 368.99 757.867 368.422C758.372 367.854 759.185 367.57 760.305 367.57H766V369.953H760.898C760.273 369.953 759.802 370.068 759.484 370.297C759.167 370.521 759.008 370.875 759.008 371.359C759.008 372.089 759.255 372.586 759.75 372.852C760.245 373.117 760.958 373.25 761.891 373.25H766V375.633H757.266V373.812L758.383 373.492V373.359C758.081 373.172 757.836 372.94 757.648 372.664C757.461 372.383 757.323 372.073 757.234 371.734C757.146 371.391 757.102 371.036 757.102 370.672ZM766.156 361.57C766.156 362.435 766 363.172 765.688 363.781C765.37 364.391 764.88 364.854 764.219 365.172C763.557 365.49 762.711 365.648 761.68 365.648C760.612 365.648 759.742 365.469 759.07 365.109C758.393 364.745 757.896 364.242 757.578 363.602C757.26 362.956 757.102 362.208 757.102 361.359C757.102 360.755 757.161 360.234 757.281 359.797C757.396 359.354 757.534 358.969 757.695 358.641L759.539 359.344C759.388 359.719 759.266 360.068 759.172 360.391C759.073 360.714 759.023 361.036 759.023 361.359C759.023 361.776 759.122 362.122 759.32 362.398C759.513 362.674 759.805 362.88 760.195 363.016C760.586 363.151 761.076 363.219 761.664 363.219C762.242 363.219 762.721 363.146 763.102 363C763.482 362.854 763.766 362.643 763.953 362.367C764.135 362.091 764.227 361.755 764.227 361.359C764.227 360.865 764.161 360.424 764.031 360.039C763.896 359.654 763.708 359.279 763.469 358.914H765.508C765.737 359.279 765.901 359.661 766 360.062C766.104 360.458 766.156 360.961 766.156 361.57ZM757.102 352.008C757.102 351.888 757.109 351.75 757.125 351.594C757.135 351.432 757.151 351.302 757.172 351.203L759.406 351.383C759.38 351.461 759.362 351.573 759.352 351.719C759.336 351.859 759.328 351.982 759.328 352.086C759.328 352.393 759.367 352.693 759.445 352.984C759.523 353.271 759.651 353.529 759.828 353.758C760 353.987 760.229 354.169 760.516 354.305C760.797 354.435 761.143 354.5 761.555 354.5H766V356.883H757.266V355.078L758.734 354.727V354.609C758.438 354.438 758.167 354.224 757.922 353.969C757.672 353.708 757.474 353.414 757.328 353.086C757.177 352.753 757.102 352.393 757.102 352.008ZM757.102 346.016C757.102 345.208 757.258 344.513 757.57 343.93C757.878 343.346 758.326 342.896 758.914 342.578C759.503 342.26 760.221 342.102 761.07 342.102H762.227V347.734C762.898 347.708 763.427 347.508 763.812 347.133C764.193 346.753 764.383 346.227 764.383 345.555C764.383 344.997 764.326 344.487 764.211 344.023C764.096 343.56 763.924 343.083 763.695 342.594H765.539C765.753 343.026 765.909 343.479 766.008 343.953C766.107 344.422 766.156 344.992 766.156 345.664C766.156 346.539 765.995 347.315 765.672 347.992C765.349 348.664 764.857 349.193 764.195 349.578C763.534 349.958 762.701 350.148 761.695 350.148C760.674 350.148 759.826 349.977 759.148 349.633C758.466 349.284 757.956 348.799 757.617 348.18C757.273 347.56 757.102 346.839 757.102 346.016ZM758.797 346C758.797 346.464 758.945 346.849 759.242 347.156C759.539 347.458 760.005 347.633 760.641 347.68V344.336C760.286 344.341 759.971 344.406 759.695 344.531C759.419 344.651 759.201 344.833 759.039 345.078C758.878 345.318 758.797 345.625 758.797 346ZM757.086 336.586C757.086 335.414 757.341 334.516 757.852 333.891C758.362 333.266 759.138 332.953 760.18 332.953H766V334.617L764.812 335.078V335.141C765.125 335.391 765.38 335.646 765.578 335.906C765.776 336.167 765.922 336.466 766.016 336.805C766.109 337.143 766.156 337.555 766.156 338.039C766.156 338.555 766.057 339.018 765.859 339.43C765.661 339.836 765.359 340.156 764.953 340.391C764.542 340.625 764.021 340.742 763.391 340.742C762.464 340.742 761.781 340.417 761.344 339.766C760.901 339.115 760.656 338.138 760.609 336.836L760.562 335.32H760.18C759.721 335.32 759.385 335.44 759.172 335.68C758.958 335.919 758.852 336.253 758.852 336.68C758.852 337.102 758.911 337.516 759.031 337.922C759.151 338.328 759.302 338.734 759.484 339.141L757.875 339.93C757.63 339.466 757.438 338.948 757.297 338.375C757.156 337.797 757.086 337.201 757.086 336.586ZM761.953 335.32L761.984 336.242C762.005 337.013 762.143 337.549 762.398 337.852C762.654 338.148 762.99 338.297 763.406 338.297C763.771 338.297 764.031 338.19 764.188 337.977C764.339 337.763 764.414 337.484 764.414 337.141C764.414 336.63 764.263 336.201 763.961 335.852C763.659 335.497 763.229 335.32 762.672 335.32H761.953ZM763.406 324.398C764 324.398 764.503 324.539 764.914 324.82C765.32 325.096 765.63 325.51 765.844 326.062C766.052 326.615 766.156 327.302 766.156 328.125C766.156 328.734 766.117 329.258 766.039 329.695C765.961 330.128 765.831 330.565 765.648 331.008H763.68C763.893 330.534 764.07 330.026 764.211 329.484C764.346 328.938 764.414 328.458 764.414 328.047C764.414 327.583 764.346 327.253 764.211 327.055C764.07 326.852 763.888 326.75 763.664 326.75C763.518 326.75 763.388 326.792 763.273 326.875C763.154 326.953 763.021 327.125 762.875 327.391C762.724 327.656 762.529 328.073 762.289 328.641C762.06 329.188 761.828 329.638 761.594 329.992C761.359 330.341 761.083 330.602 760.766 330.773C760.443 330.94 760.034 331.023 759.539 331.023C758.732 331.023 758.125 330.711 757.719 330.086C757.307 329.456 757.102 328.615 757.102 327.562C757.102 327.021 757.156 326.505 757.266 326.016C757.375 325.521 757.549 325.013 757.789 324.492L759.508 325.211C759.32 325.643 759.167 326.052 759.047 326.438C758.927 326.818 758.867 327.206 758.867 327.602C758.867 327.951 758.914 328.214 759.008 328.391C759.102 328.568 759.245 328.656 759.438 328.656C759.578 328.656 759.703 328.612 759.812 328.523C759.922 328.43 760.044 328.253 760.18 327.992C760.31 327.727 760.479 327.339 760.688 326.828C760.891 326.333 761.104 325.904 761.328 325.539C761.547 325.174 761.82 324.893 762.148 324.695C762.471 324.497 762.891 324.398 763.406 324.398ZM757.266 320.156H766V322.539H757.266V320.156ZM753.844 321.344C753.844 320.99 753.927 320.685 754.094 320.43C754.255 320.174 754.56 320.047 755.008 320.047C755.451 320.047 755.758 320.174 755.93 320.43C756.096 320.685 756.18 320.99 756.18 321.344C756.18 321.703 756.096 322.01 755.93 322.266C755.758 322.516 755.451 322.641 755.008 322.641C754.56 322.641 754.255 322.516 754.094 322.266C753.927 322.01 753.844 321.703 753.844 321.344ZM757.102 312.688C757.102 311.755 757.357 311.005 757.867 310.438C758.372 309.87 759.185 309.586 760.305 309.586H766V311.969H760.898C760.273 311.969 759.802 312.083 759.484 312.312C759.167 312.536 759.008 312.891 759.008 313.375C759.008 314.104 759.255 314.602 759.75 314.867C760.245 315.133 760.958 315.266 761.891 315.266H766V317.648H757.266V315.828L758.383 315.508V315.375C758.081 315.188 757.836 314.956 757.648 314.68C757.461 314.398 757.323 314.089 757.234 313.75C757.146 313.406 757.102 313.052 757.102 312.688ZM769.844 304.578C769.844 305.797 769.63 306.729 769.203 307.375C768.781 308.016 768.188 308.336 767.422 308.336C766.896 308.336 766.456 308.172 766.102 307.844C765.747 307.516 765.495 307.034 765.344 306.398C765.24 306.643 765.07 306.857 764.836 307.039C764.596 307.221 764.344 307.312 764.078 307.312C763.745 307.312 763.469 307.216 763.25 307.023C763.026 306.831 762.807 306.552 762.594 306.188C762.396 306.646 762.078 307.01 761.641 307.281C761.203 307.547 760.688 307.68 760.094 307.68C759.458 307.68 758.919 307.542 758.477 307.266C758.029 306.984 757.688 306.578 757.453 306.047C757.219 305.51 757.102 304.859 757.102 304.094C757.102 303.932 757.112 303.745 757.133 303.531C757.154 303.318 757.177 303.122 757.203 302.945C757.229 302.763 757.25 302.641 757.266 302.578V299.531H758.477L758.828 300.898C759.021 300.773 759.227 300.68 759.445 300.617C759.664 300.555 759.896 300.523 760.141 300.523C761.078 300.523 761.81 300.852 762.336 301.508C762.857 302.159 763.117 303.065 763.117 304.227C763.102 304.503 763.081 304.763 763.055 305.008C763.148 305.128 763.247 305.219 763.352 305.281C763.456 305.344 763.565 305.375 763.68 305.375C763.794 305.375 763.891 305.328 763.969 305.234C764.042 305.135 764.099 304.99 764.141 304.797C764.177 304.599 764.195 304.354 764.195 304.062V302.578C764.195 301.62 764.401 300.891 764.812 300.391C765.224 299.885 765.828 299.633 766.625 299.633C767.646 299.633 768.438 300.06 769 300.914C769.562 301.763 769.844 302.984 769.844 304.578ZM768.289 304.477C768.289 303.909 768.234 303.422 768.125 303.016C768.021 302.604 767.87 302.289 767.672 302.07C767.479 301.852 767.247 301.742 766.977 301.742C766.758 301.742 766.583 301.807 766.453 301.938C766.328 302.062 766.24 302.255 766.188 302.516C766.135 302.771 766.109 303.099 766.109 303.5V304.734C766.109 305.026 766.156 305.289 766.25 305.523C766.344 305.753 766.474 305.935 766.641 306.07C766.812 306.206 767.01 306.273 767.234 306.273C767.562 306.273 767.82 306.117 768.008 305.805C768.195 305.487 768.289 305.044 768.289 304.477ZM761.664 304.094C761.664 303.646 761.526 303.318 761.25 303.109C760.974 302.901 760.599 302.797 760.125 302.797C759.599 302.797 759.206 302.906 758.945 303.125C758.68 303.339 758.547 303.661 758.547 304.094C758.547 304.531 758.68 304.859 758.945 305.078C759.206 305.297 759.599 305.406 760.125 305.406C760.599 305.406 760.974 305.299 761.25 305.086C761.526 304.867 761.664 304.536 761.664 304.094ZM766 287.164V293.742H754.578V287.164H756.562V291.32H759.07V287.453H761.055V291.32H764V287.164H766ZM757.102 280C757.102 279.068 757.357 278.318 757.867 277.75C758.372 277.182 759.185 276.898 760.305 276.898H766V279.281H760.898C760.273 279.281 759.802 279.396 759.484 279.625C759.167 279.849 759.008 280.203 759.008 280.688C759.008 281.417 759.255 281.914 759.75 282.18C760.245 282.445 760.958 282.578 761.891 282.578H766V284.961H757.266V283.141L758.383 282.82V282.688C758.081 282.5 757.836 282.268 757.648 281.992C757.461 281.711 757.323 281.401 757.234 281.062C757.146 280.719 757.102 280.365 757.102 280ZM757.102 270.844C757.102 270.036 757.258 269.341 757.57 268.758C757.878 268.174 758.326 267.724 758.914 267.406C759.503 267.089 760.221 266.93 761.07 266.93H762.227V272.562C762.898 272.536 763.427 272.336 763.812 271.961C764.193 271.581 764.383 271.055 764.383 270.383C764.383 269.826 764.326 269.315 764.211 268.852C764.096 268.388 763.924 267.911 763.695 267.422H765.539C765.753 267.854 765.909 268.307 766.008 268.781C766.107 269.25 766.156 269.82 766.156 270.492C766.156 271.367 765.995 272.143 765.672 272.82C765.349 273.492 764.857 274.021 764.195 274.406C763.534 274.786 762.701 274.977 761.695 274.977C760.674 274.977 759.826 274.805 759.148 274.461C758.466 274.112 757.956 273.628 757.617 273.008C757.273 272.388 757.102 271.667 757.102 270.844ZM758.797 270.828C758.797 271.292 758.945 271.677 759.242 271.984C759.539 272.286 760.005 272.461 760.641 272.508V269.164C760.286 269.169 759.971 269.234 759.695 269.359C759.419 269.479 759.201 269.661 759.039 269.906C758.878 270.146 758.797 270.453 758.797 270.828ZM757.102 260.117C757.102 259.997 757.109 259.859 757.125 259.703C757.135 259.542 757.151 259.411 757.172 259.312L759.406 259.492C759.38 259.57 759.362 259.682 759.352 259.828C759.336 259.969 759.328 260.091 759.328 260.195C759.328 260.503 759.367 260.802 759.445 261.094C759.523 261.38 759.651 261.638 759.828 261.867C760 262.096 760.229 262.279 760.516 262.414C760.797 262.544 761.143 262.609 761.555 262.609H766V264.992H757.266V263.188L758.734 262.836V262.719C758.438 262.547 758.167 262.333 757.922 262.078C757.672 261.818 757.474 261.523 757.328 261.195C757.177 260.862 757.102 260.503 757.102 260.117ZM769.844 255.172C769.844 256.391 769.63 257.323 769.203 257.969C768.781 258.609 768.188 258.93 767.422 258.93C766.896 258.93 766.456 258.766 766.102 258.438C765.747 258.109 765.495 257.628 765.344 256.992C765.24 257.237 765.07 257.451 764.836 257.633C764.596 257.815 764.344 257.906 764.078 257.906C763.745 257.906 763.469 257.81 763.25 257.617C763.026 257.424 762.807 257.146 762.594 256.781C762.396 257.24 762.078 257.604 761.641 257.875C761.203 258.141 760.688 258.273 760.094 258.273C759.458 258.273 758.919 258.135 758.477 257.859C758.029 257.578 757.688 257.172 757.453 256.641C757.219 256.104 757.102 255.453 757.102 254.688C757.102 254.526 757.112 254.339 757.133 254.125C757.154 253.911 757.177 253.716 757.203 253.539C757.229 253.357 757.25 253.234 757.266 253.172V250.125H758.477L758.828 251.492C759.021 251.367 759.227 251.273 759.445 251.211C759.664 251.148 759.896 251.117 760.141 251.117C761.078 251.117 761.81 251.445 762.336 252.102C762.857 252.753 763.117 253.659 763.117 254.82C763.102 255.096 763.081 255.357 763.055 255.602C763.148 255.721 763.247 255.812 763.352 255.875C763.456 255.938 763.565 255.969 763.68 255.969C763.794 255.969 763.891 255.922 763.969 255.828C764.042 255.729 764.099 255.583 764.141 255.391C764.177 255.193 764.195 254.948 764.195 254.656V253.172C764.195 252.214 764.401 251.484 764.812 250.984C765.224 250.479 765.828 250.227 766.625 250.227C767.646 250.227 768.438 250.654 769 251.508C769.562 252.357 769.844 253.578 769.844 255.172ZM768.289 255.07C768.289 254.503 768.234 254.016 768.125 253.609C768.021 253.198 767.87 252.883 767.672 252.664C767.479 252.445 767.247 252.336 766.977 252.336C766.758 252.336 766.583 252.401 766.453 252.531C766.328 252.656 766.24 252.849 766.188 253.109C766.135 253.365 766.109 253.693 766.109 254.094V255.328C766.109 255.62 766.156 255.883 766.25 256.117C766.344 256.346 766.474 256.529 766.641 256.664C766.812 256.799 767.01 256.867 767.234 256.867C767.562 256.867 767.82 256.711 768.008 256.398C768.195 256.081 768.289 255.638 768.289 255.07ZM761.664 254.688C761.664 254.24 761.526 253.911 761.25 253.703C760.974 253.495 760.599 253.391 760.125 253.391C759.599 253.391 759.206 253.5 758.945 253.719C758.68 253.932 758.547 254.255 758.547 254.688C758.547 255.125 758.68 255.453 758.945 255.672C759.206 255.891 759.599 256 760.125 256C760.599 256 760.974 255.893 761.25 255.68C761.526 255.461 761.664 255.13 761.664 254.688ZM757.266 249.93V247.32L762.18 245.672C762.336 245.62 762.495 245.576 762.656 245.539C762.818 245.503 762.984 245.471 763.156 245.445C763.328 245.419 763.508 245.398 763.695 245.383V245.336C763.414 245.305 763.151 245.263 762.906 245.211C762.661 245.154 762.419 245.083 762.18 245L757.266 243.383V240.828L767.117 244.523C767.721 244.747 768.224 245.039 768.625 245.398C769.031 245.758 769.336 246.172 769.539 246.641C769.742 247.104 769.844 247.615 769.844 248.172C769.844 248.443 769.828 248.677 769.797 248.875C769.771 249.073 769.742 249.242 769.711 249.383H767.82C767.846 249.273 767.87 249.135 767.891 248.969C767.911 248.802 767.922 248.628 767.922 248.445C767.922 248.112 767.852 247.826 767.711 247.586C767.57 247.346 767.38 247.146 767.141 246.984C766.906 246.823 766.648 246.695 766.367 246.602L765.938 246.461L757.266 249.93Z" fill="#1A67C9"/>
</g>
<rect x="743" y="399.5" width="176" height="34" rx="5" transform="rotate(-90 743 399.5)" stroke="url(#paint1_linear_258_1763)" stroke-width="2"/>
<defs>
<linearGradient id="paint0_linear_258_1763" x1="760" y1="16" x2="760" y2="711" gradientUnits="userSpaceOnUse">
<stop stop-color="#E96372"/>
<stop offset="0.246043" stop-color="#F5C68E"/>
<stop offset="0.5" stop-color="#A1E2DA"/>
<stop offset="1" stop-color="#7474CB"/>
</linearGradient>
<linearGradient id="paint1_linear_258_1763" x1="744" y1="414.5" x2="918" y2="414.5" gradientUnits="userSpaceOnUse">
<stop stop-color="#B3DDCB"/>
<stop offset="1" stop-color="#97C9D7"/>
</linearGradient>
<clipPath id="clip0_258_1763">
<rect width="620" height="40" fill="white" transform="translate(24 72)"/>
</clipPath>
<clipPath id="clip1_258_1763">
<rect width="620" height="40" fill="white" transform="translate(24 240)"/>
</clipPath>
<clipPath id="clip2_258_1763">
<rect width="620" height="40" fill="white" transform="translate(24 368)"/>
</clipPath>
<clipPath id="clip3_258_1763">
<rect width="620" height="40" fill="white" transform="translate(24 488)"/>
</clipPath>
<clipPath id="clip4_258_1763">
<rect width="620" height="40" fill="white" transform="translate(24 560)"/>
</clipPath>
<clipPath id="clip5_258_1763">
<rect x="744" y="398.5" width="174" height="32" rx="4" transform="rotate(-90 744 398.5)" fill="white"/>
</clipPath>
</defs>
</svg>
