<svg width="400" height="156" viewBox="0 0 400 156" fill="none" xmlns="http://www.w3.org/2000/svg">
<rect width="400" height="155" transform="translate(0 0.125854)" fill="white"/>
<path d="M183.052 127.126H149.836V124.438C158.86 124.438 162.22 122.806 162.22 118.006V77.3979C162.22 74.0379 161.452 72.6939 159.052 72.6939C157.132 72.6939 152.236 73.2698 149.26 74.2299V71.0618L167.884 65.7818H170.668V118.006C170.668 122.71 174.22 124.438 183.052 124.438V127.126ZM205.432 128.182C202.424 128.182 199.992 127.83 198.136 127.126C196.344 126.358 195.096 125.846 194.392 125.59H194.104L191.8 128.182H189.688L192.184 112.15H194.584C195.096 116.31 196.056 119.478 197.464 121.654C198.936 123.83 201.304 124.918 204.568 124.918C206.808 124.918 208.6 124.374 209.944 123.286C211.352 122.198 212.056 120.406 212.056 117.91C212.056 115.286 211.32 113.078 209.848 111.286C208.44 109.43 206.808 107.638 204.952 105.91C203.672 104.63 202.36 103.382 201.016 102.166C199.736 100.95 198.648 99.6059 197.752 98.1339C196.92 96.5979 196.504 94.8379 196.504 92.8539C196.504 89.5899 197.592 86.8379 199.768 84.5979C201.944 82.2939 205.208 81.1419 209.56 81.1419C212.12 81.1419 214.232 81.4939 215.896 82.1979C217.624 82.9019 218.776 83.4139 219.352 83.7339H219.64L222.136 81.1419H223.96L221.752 96.1179H219.448C219.32 92.4059 218.456 89.4619 216.856 87.2859C215.32 85.1099 213.144 84.0219 210.328 84.0219C207.832 84.0219 206.04 84.6939 204.952 86.0379C203.864 87.3819 203.32 88.7579 203.32 90.1659C203.32 91.5099 203.768 92.8219 204.664 94.1019C205.624 95.3179 206.808 96.5979 208.216 97.9419C209.624 99.2219 211.032 100.63 212.44 102.166C214.488 104.342 216.248 106.486 217.72 108.598C219.256 110.646 220.024 113.206 220.024 116.278C220.024 118.134 219.544 119.99 218.584 121.846C217.688 123.638 216.184 125.142 214.072 126.358C211.96 127.574 209.08 128.182 205.432 128.182ZM253.834 102.934H229.642V100.342C236.362 100.342 238.186 99.1899 238.186 95.6379V65.5899C238.186 63.0938 237.514 61.9419 235.498 61.9419C233.962 61.9419 230.794 62.5179 229.066 62.9019V60.0218L242.026 56.5659H245.194V95.6379C245.194 99.1899 247.306 100.342 253.834 100.342V102.934Z" fill="black"/>
<path d="M301.801 82.0165L301.473 83.6923H303.055V84.6708H301.285L300.811 87.1259H299.768L300.248 84.6708H298.783L298.32 87.1259H297.301L297.752 84.6708H296.287V83.6923H297.939L298.273 82.0165H296.721V81.038H298.449L298.918 78.5653H299.961L299.492 81.038H300.969L301.443 78.5653H302.457L301.988 81.038H303.465V82.0165H301.801ZM298.971 83.6923H300.436L300.77 82.0165H299.299L298.971 83.6923ZM313.602 83.868C313.602 84.4071 313.531 84.8856 313.391 85.3036C313.25 85.7216 313.045 86.0751 312.775 86.3641C312.506 86.6493 312.182 86.868 311.803 87.0204C311.424 87.1688 310.996 87.243 310.52 87.243C310.074 87.243 309.666 87.1688 309.295 87.0204C308.924 86.868 308.602 86.6493 308.328 86.3641C308.059 86.0751 307.85 85.7216 307.701 85.3036C307.553 84.8856 307.479 84.4071 307.479 83.868C307.479 83.1532 307.602 82.5477 307.848 82.0516C308.098 81.5516 308.453 81.1708 308.914 80.9091C309.375 80.6473 309.924 80.5165 310.561 80.5165C311.158 80.5165 311.686 80.6473 312.143 80.9091C312.6 81.1708 312.957 81.5516 313.215 82.0516C313.473 82.5516 313.602 83.1571 313.602 83.868ZM308.896 83.868C308.896 84.3407 308.953 84.745 309.066 85.0809C309.184 85.4169 309.363 85.6747 309.605 85.8544C309.848 86.0302 310.16 86.118 310.543 86.118C310.926 86.118 311.238 86.0302 311.48 85.8544C311.723 85.6747 311.9 85.4169 312.014 85.0809C312.127 84.745 312.184 84.3407 312.184 83.868C312.184 83.3954 312.127 82.995 312.014 82.6669C311.9 82.3348 311.723 82.0829 311.48 81.911C311.238 81.7352 310.924 81.6473 310.537 81.6473C309.967 81.6473 309.551 81.8387 309.289 82.2216C309.027 82.6044 308.896 83.1532 308.896 83.868ZM318.424 81.6884H316.848V87.1259H315.471V81.6884H314.41V81.0262L315.471 80.6219V80.1708C315.471 79.62 315.557 79.1825 315.729 78.8583C315.904 78.5341 316.154 78.3016 316.479 78.161C316.807 78.0165 317.197 77.9442 317.65 77.9442C317.947 77.9442 318.219 77.9696 318.465 78.0204C318.711 78.0673 318.918 78.1219 319.086 78.1844L318.729 79.2274C318.596 79.1844 318.447 79.1454 318.283 79.1102C318.119 79.0712 317.943 79.0516 317.756 79.0516C317.443 79.0516 317.213 79.1493 317.064 79.3446C316.92 79.5399 316.848 79.8251 316.848 80.2001V80.6395H318.424V81.6884ZM325.232 80.5165C325.811 80.5165 326.307 80.6356 326.721 80.8739C327.135 81.1122 327.453 81.4501 327.676 81.8876C327.898 82.3251 328.01 82.8485 328.01 83.4579V84.1962H323.68C323.695 84.8251 323.863 85.3094 324.184 85.6493C324.508 85.9891 324.961 86.1591 325.543 86.1591C325.957 86.1591 326.328 86.12 326.656 86.0419C326.988 85.9598 327.33 85.8407 327.682 85.6844V86.8036C327.357 86.9559 327.027 87.0673 326.691 87.1376C326.355 87.2079 325.953 87.243 325.484 87.243C324.848 87.243 324.287 87.12 323.803 86.8739C323.322 86.6239 322.945 86.2528 322.672 85.7606C322.402 85.2684 322.268 84.6571 322.268 83.9266C322.268 83.2001 322.391 82.5829 322.637 82.0751C322.883 81.5673 323.229 81.1805 323.674 80.9149C324.119 80.6493 324.639 80.5165 325.232 80.5165ZM325.232 81.5536C324.799 81.5536 324.447 81.6942 324.178 81.9755C323.912 82.2567 323.756 82.6688 323.709 83.2118H326.662C326.658 82.8876 326.604 82.6005 326.498 82.3505C326.396 82.1005 326.24 81.9052 326.029 81.7645C325.822 81.6239 325.557 81.5536 325.232 81.5536ZM330.945 87.1259H329.562V78.0087H330.945V87.1259ZM335.498 80.5165C336.076 80.5165 336.572 80.6356 336.986 80.8739C337.4 81.1122 337.719 81.4501 337.941 81.8876C338.164 82.3251 338.275 82.8485 338.275 83.4579V84.1962H333.945C333.961 84.8251 334.129 85.3094 334.449 85.6493C334.773 85.9891 335.227 86.1591 335.809 86.1591C336.223 86.1591 336.594 86.12 336.922 86.0419C337.254 85.9598 337.596 85.8407 337.947 85.6844V86.8036C337.623 86.9559 337.293 87.0673 336.957 87.1376C336.621 87.2079 336.219 87.243 335.75 87.243C335.113 87.243 334.553 87.12 334.068 86.8739C333.588 86.6239 333.211 86.2528 332.938 85.7606C332.668 85.2684 332.533 84.6571 332.533 83.9266C332.533 83.2001 332.656 82.5829 332.902 82.0751C333.148 81.5673 333.494 81.1805 333.939 80.9149C334.385 80.6493 334.904 80.5165 335.498 80.5165ZM335.498 81.5536C335.064 81.5536 334.713 81.6942 334.443 81.9755C334.178 82.2567 334.021 82.6688 333.975 83.2118H336.928C336.924 82.8876 336.869 82.6005 336.764 82.3505C336.662 82.1005 336.506 81.9052 336.295 81.7645C336.088 81.6239 335.822 81.5536 335.498 81.5536ZM342.441 87.243C341.828 87.243 341.297 87.1239 340.848 86.8856C340.398 86.6473 340.053 86.2821 339.811 85.7899C339.568 85.2977 339.447 84.6727 339.447 83.9149C339.447 83.1259 339.58 82.4813 339.846 81.9813C340.111 81.4813 340.479 81.1122 340.947 80.8739C341.42 80.6356 341.961 80.5165 342.57 80.5165C342.957 80.5165 343.307 80.5555 343.619 80.6337C343.936 80.7079 344.203 80.7997 344.422 80.9091L344.012 82.0106C343.773 81.913 343.529 81.8309 343.279 81.7645C343.029 81.6981 342.789 81.6649 342.559 81.6649C342.18 81.6649 341.863 81.7489 341.609 81.9169C341.359 82.0848 341.172 82.3348 341.047 82.6669C340.926 82.9989 340.865 83.411 340.865 83.9032C340.865 84.3798 340.928 84.7821 341.053 85.1102C341.178 85.4344 341.363 85.6805 341.609 85.8485C341.855 86.0126 342.158 86.0946 342.518 86.0946C342.873 86.0946 343.191 86.0516 343.473 85.9657C343.754 85.8798 344.02 85.7684 344.27 85.6317V86.827C344.023 86.9677 343.76 87.0712 343.479 87.1376C343.197 87.2079 342.852 87.243 342.441 87.243ZM348.207 86.1298C348.387 86.1298 348.564 86.1141 348.74 86.0829C348.916 86.0477 349.076 86.0067 349.221 85.9598V87.0028C349.068 87.0692 348.871 87.1259 348.629 87.1727C348.387 87.2196 348.135 87.243 347.873 87.243C347.506 87.243 347.176 87.1825 346.883 87.0614C346.59 86.9364 346.357 86.7235 346.186 86.4227C346.014 86.1219 345.928 85.7059 345.928 85.1747V81.6884H345.043V81.0731L345.992 80.5868L346.443 79.1981H347.311V80.6395H349.168V81.6884H347.311V85.1571C347.311 85.4852 347.393 85.7294 347.557 85.8895C347.721 86.0497 347.938 86.1298 348.207 86.1298ZM353.826 80.5165C353.936 80.5165 354.055 80.5223 354.184 80.5341C354.312 80.5458 354.424 80.5614 354.518 80.5809L354.389 81.87C354.307 81.8466 354.205 81.829 354.084 81.8173C353.967 81.8055 353.861 81.7997 353.768 81.7997C353.521 81.7997 353.287 81.8407 353.064 81.9227C352.842 82.0009 352.645 82.1219 352.473 82.286C352.301 82.4462 352.166 82.6473 352.068 82.8895C351.971 83.1317 351.922 83.413 351.922 83.7333V87.1259H350.539V80.6395H351.617L351.805 81.7821H351.869C351.998 81.5516 352.158 81.3407 352.35 81.1493C352.541 80.9579 352.76 80.8055 353.006 80.6923C353.256 80.5751 353.529 80.5165 353.826 80.5165ZM361.461 83.868C361.461 84.4071 361.391 84.8856 361.25 85.3036C361.109 85.7216 360.904 86.0751 360.635 86.3641C360.365 86.6493 360.041 86.868 359.662 87.0204C359.283 87.1688 358.855 87.243 358.379 87.243C357.934 87.243 357.525 87.1688 357.154 87.0204C356.783 86.868 356.461 86.6493 356.188 86.3641C355.918 86.0751 355.709 85.7216 355.561 85.3036C355.412 84.8856 355.338 84.4071 355.338 83.868C355.338 83.1532 355.461 82.5477 355.707 82.0516C355.957 81.5516 356.312 81.1708 356.773 80.9091C357.234 80.6473 357.783 80.5165 358.42 80.5165C359.018 80.5165 359.545 80.6473 360.002 80.9091C360.459 81.1708 360.816 81.5516 361.074 82.0516C361.332 82.5516 361.461 83.1571 361.461 83.868ZM356.756 83.868C356.756 84.3407 356.812 84.745 356.926 85.0809C357.043 85.4169 357.223 85.6747 357.465 85.8544C357.707 86.0302 358.02 86.118 358.402 86.118C358.785 86.118 359.098 86.0302 359.34 85.8544C359.582 85.6747 359.76 85.4169 359.873 85.0809C359.986 84.745 360.043 84.3407 360.043 83.868C360.043 83.3954 359.986 82.995 359.873 82.6669C359.76 82.3348 359.582 82.0829 359.34 81.911C359.098 81.7352 358.783 81.6473 358.396 81.6473C357.826 81.6473 357.41 81.8387 357.148 82.2216C356.887 82.6044 356.756 83.1532 356.756 83.868ZM366.424 80.5165C367.154 80.5165 367.723 80.7059 368.129 81.0848C368.539 81.4598 368.744 82.0634 368.744 82.8954V87.1259H367.367V83.1532C367.367 82.6493 367.264 82.2723 367.057 82.0223C366.85 81.7684 366.529 81.6415 366.096 81.6415C365.467 81.6415 365.029 81.8348 364.783 82.2216C364.541 82.6083 364.42 83.1688 364.42 83.9032V87.1259H363.043V80.6395H364.115L364.309 81.5184H364.385C364.525 81.2919 364.699 81.1063 364.906 80.9618C365.117 80.8134 365.352 80.702 365.609 80.6278C365.871 80.5536 366.143 80.5165 366.424 80.5165ZM375.031 85.2743C375.031 85.7001 374.928 86.0594 374.721 86.3524C374.514 86.6454 374.211 86.868 373.812 87.0204C373.418 87.1688 372.934 87.243 372.359 87.243C371.906 87.243 371.516 87.2098 371.188 87.1434C370.863 87.0809 370.557 86.9833 370.268 86.8505V85.661C370.576 85.8055 370.922 85.9305 371.305 86.036C371.691 86.1415 372.057 86.1942 372.4 86.1942C372.854 86.1942 373.18 86.1239 373.379 85.9833C373.578 85.8387 373.678 85.6473 373.678 85.4091C373.678 85.2684 373.637 85.1434 373.555 85.0341C373.477 84.9208 373.328 84.8055 373.109 84.6884C372.895 84.5673 372.578 84.4227 372.16 84.2548C371.75 84.0907 371.404 83.9266 371.123 83.7626C370.842 83.5985 370.629 83.4012 370.484 83.1708C370.34 82.9364 370.268 82.6376 370.268 82.2743C370.268 81.7001 370.494 81.2645 370.947 80.9677C371.404 80.6669 372.008 80.5165 372.758 80.5165C373.156 80.5165 373.531 80.5575 373.883 80.6395C374.238 80.7177 374.586 80.8329 374.926 80.9852L374.492 82.0223C374.199 81.8934 373.904 81.788 373.607 81.7059C373.314 81.62 373.016 81.577 372.711 81.577C372.355 81.577 372.084 81.6317 371.896 81.7411C371.713 81.8505 371.621 82.0067 371.621 82.2098C371.621 82.3622 371.666 82.4911 371.756 82.5966C371.846 82.702 372 82.8075 372.219 82.913C372.441 83.0184 372.75 83.1493 373.145 83.3055C373.531 83.454 373.865 83.6102 374.146 83.7743C374.432 83.9344 374.65 84.1317 374.803 84.3661C374.955 84.6005 375.031 84.9032 375.031 85.2743ZM298.361 92.6395V99.1259H296.984V92.6395H298.361ZM297.682 90.1552C297.893 90.1552 298.074 90.2118 298.227 90.3251C298.383 90.4384 298.461 90.6337 298.461 90.911C298.461 91.1844 298.383 91.3798 298.227 91.4969C298.074 91.6102 297.893 91.6669 297.682 91.6669C297.463 91.6669 297.277 91.6102 297.125 91.4969C296.977 91.3798 296.902 91.1844 296.902 90.911C296.902 90.6337 296.977 90.4384 297.125 90.3251C297.277 90.2118 297.463 90.1552 297.682 90.1552ZM303.717 92.5165C304.447 92.5165 305.016 92.7059 305.422 93.0848C305.832 93.4598 306.037 94.0634 306.037 94.8954V99.1259H304.66V95.1532C304.66 94.6493 304.557 94.2723 304.35 94.0223C304.143 93.7684 303.822 93.6415 303.389 93.6415C302.76 93.6415 302.322 93.8348 302.076 94.2216C301.834 94.6083 301.713 95.1688 301.713 95.9032V99.1259H300.336V92.6395H301.408L301.602 93.5184H301.678C301.818 93.2919 301.992 93.1063 302.199 92.9618C302.41 92.8134 302.645 92.702 302.902 92.6278C303.164 92.5536 303.436 92.5165 303.717 92.5165ZM315.441 97.2743C315.441 97.7001 315.338 98.0594 315.131 98.3524C314.924 98.6454 314.621 98.868 314.223 99.0204C313.828 99.1688 313.344 99.243 312.77 99.243C312.316 99.243 311.926 99.2098 311.598 99.1434C311.273 99.0809 310.967 98.9833 310.678 98.8505V97.661C310.986 97.8055 311.332 97.9305 311.715 98.036C312.102 98.1415 312.467 98.1942 312.811 98.1942C313.264 98.1942 313.59 98.1239 313.789 97.9833C313.988 97.8387 314.088 97.6473 314.088 97.4091C314.088 97.2684 314.047 97.1434 313.965 97.0341C313.887 96.9208 313.738 96.8055 313.52 96.6884C313.305 96.5673 312.988 96.4227 312.57 96.2548C312.16 96.0907 311.814 95.9266 311.533 95.7626C311.252 95.5985 311.039 95.4012 310.895 95.1708C310.75 94.9364 310.678 94.6376 310.678 94.2743C310.678 93.7001 310.904 93.2645 311.357 92.9677C311.814 92.6669 312.418 92.5165 313.168 92.5165C313.566 92.5165 313.941 92.5575 314.293 92.6395C314.648 92.7177 314.996 92.8329 315.336 92.9852L314.902 94.0223C314.609 93.8934 314.314 93.788 314.018 93.7059C313.725 93.62 313.426 93.577 313.121 93.577C312.766 93.577 312.494 93.6317 312.307 93.7411C312.123 93.8505 312.031 94.0067 312.031 94.2098C312.031 94.3622 312.076 94.4911 312.166 94.5966C312.256 94.702 312.41 94.8075 312.629 94.913C312.852 95.0184 313.16 95.1493 313.555 95.3055C313.941 95.454 314.275 95.6102 314.557 95.7743C314.842 95.9344 315.061 96.1317 315.213 96.3661C315.365 96.6005 315.441 96.9032 315.441 97.2743ZM322.584 92.6395V99.1259H321.5L321.312 98.2528H321.236C321.1 98.4755 320.926 98.661 320.715 98.8094C320.504 98.954 320.27 99.0614 320.012 99.1317C319.754 99.2059 319.482 99.243 319.197 99.243C318.709 99.243 318.291 99.161 317.943 98.9969C317.6 98.829 317.336 98.5712 317.152 98.2235C316.969 97.8759 316.877 97.4266 316.877 96.8759V92.6395H318.26V96.618C318.26 97.1219 318.361 97.4989 318.564 97.7489C318.771 97.9989 319.092 98.1239 319.525 98.1239C319.943 98.1239 320.275 98.038 320.521 97.8661C320.768 97.6942 320.941 97.4403 321.043 97.1044C321.148 96.7684 321.201 96.3563 321.201 95.868V92.6395H322.584ZM325.936 90.0087V92.2059C325.936 92.4598 325.928 92.7098 325.912 92.9559C325.9 93.1981 325.889 93.3876 325.877 93.5243H325.936C326.111 93.243 326.355 93.0067 326.668 92.8153C326.984 92.62 327.389 92.5223 327.881 92.5223C328.65 92.5223 329.27 92.8055 329.738 93.3719C330.207 93.9344 330.441 94.7684 330.441 95.8739C330.441 96.6083 330.334 97.2255 330.119 97.7255C329.904 98.2255 329.602 98.6044 329.211 98.8622C328.824 99.1161 328.369 99.243 327.846 99.243C327.354 99.243 326.955 99.1532 326.65 98.9735C326.35 98.7899 326.113 98.577 325.941 98.3348H325.842L325.59 99.1259H324.559V90.0087H325.936ZM327.518 93.6415C327.127 93.6415 326.816 93.7196 326.586 93.8759C326.359 94.0321 326.195 94.2665 326.094 94.579C325.992 94.8876 325.939 95.2802 325.936 95.7567V95.8798C325.936 96.6024 326.049 97.1552 326.275 97.538C326.506 97.9208 326.924 98.1122 327.529 98.1122C328.01 98.1122 328.379 97.9188 328.637 97.5321C328.895 97.1415 329.023 96.5829 329.023 95.8563C329.023 95.1219 328.895 94.5692 328.637 94.1981C328.383 93.827 328.01 93.6415 327.518 93.6415ZM336.395 97.2743C336.395 97.7001 336.291 98.0594 336.084 98.3524C335.877 98.6454 335.574 98.868 335.176 99.0204C334.781 99.1688 334.297 99.243 333.723 99.243C333.27 99.243 332.879 99.2098 332.551 99.1434C332.227 99.0809 331.92 98.9833 331.631 98.8505V97.661C331.939 97.8055 332.285 97.9305 332.668 98.036C333.055 98.1415 333.42 98.1942 333.764 98.1942C334.217 98.1942 334.543 98.1239 334.742 97.9833C334.941 97.8387 335.041 97.6473 335.041 97.4091C335.041 97.2684 335 97.1434 334.918 97.0341C334.84 96.9208 334.691 96.8055 334.473 96.6884C334.258 96.5673 333.941 96.4227 333.523 96.2548C333.113 96.0907 332.768 95.9266 332.486 95.7626C332.205 95.5985 331.992 95.4012 331.848 95.1708C331.703 94.9364 331.631 94.6376 331.631 94.2743C331.631 93.7001 331.857 93.2645 332.311 92.9677C332.768 92.6669 333.371 92.5165 334.121 92.5165C334.52 92.5165 334.895 92.5575 335.246 92.6395C335.602 92.7177 335.949 92.8329 336.289 92.9852L335.855 94.0223C335.562 93.8934 335.268 93.788 334.971 93.7059C334.678 93.62 334.379 93.577 334.074 93.577C333.719 93.577 333.447 93.6317 333.26 93.7411C333.076 93.8505 332.984 94.0067 332.984 94.2098C332.984 94.3622 333.029 94.4911 333.119 94.5966C333.209 94.702 333.363 94.8075 333.582 94.913C333.805 95.0184 334.113 95.1493 334.508 95.3055C334.895 95.454 335.229 95.6102 335.51 95.7743C335.795 95.9344 336.014 96.1317 336.166 96.3661C336.318 96.6005 336.395 96.9032 336.395 97.2743ZM339.26 90.0087V92.2997C339.26 92.538 339.252 92.7704 339.236 92.9969C339.225 93.2235 339.211 93.3993 339.195 93.5243H339.271C339.408 93.2977 339.576 93.1122 339.775 92.9677C339.975 92.8192 340.197 92.7079 340.443 92.6337C340.693 92.5594 340.959 92.5223 341.24 92.5223C341.736 92.5223 342.158 92.6063 342.506 92.7743C342.854 92.9384 343.119 93.1942 343.303 93.5419C343.49 93.8895 343.584 94.3407 343.584 94.8954V99.1259H342.207V95.1532C342.207 94.6493 342.104 94.2723 341.896 94.0223C341.689 93.7684 341.369 93.6415 340.936 93.6415C340.518 93.6415 340.186 93.7294 339.939 93.9052C339.697 94.077 339.523 94.3329 339.418 94.6727C339.312 95.0087 339.26 95.4188 339.26 95.9032V99.1259H337.883V90.0087H339.26ZM348.096 92.5165C348.674 92.5165 349.17 92.6356 349.584 92.8739C349.998 93.1122 350.316 93.4501 350.539 93.8876C350.762 94.3251 350.873 94.8485 350.873 95.4579V96.1962H346.543C346.559 96.8251 346.727 97.3094 347.047 97.6493C347.371 97.9891 347.824 98.1591 348.406 98.1591C348.82 98.1591 349.191 98.12 349.52 98.0419C349.852 97.9598 350.193 97.8407 350.545 97.6844V98.8036C350.221 98.9559 349.891 99.0673 349.555 99.1376C349.219 99.2079 348.816 99.243 348.348 99.243C347.711 99.243 347.15 99.12 346.666 98.8739C346.186 98.6239 345.809 98.2528 345.535 97.7606C345.266 97.2684 345.131 96.6571 345.131 95.9266C345.131 95.2001 345.254 94.5829 345.5 94.0751C345.746 93.5673 346.092 93.1805 346.537 92.9149C346.982 92.6493 347.502 92.5165 348.096 92.5165ZM348.096 93.5536C347.662 93.5536 347.311 93.6942 347.041 93.9755C346.775 94.2567 346.619 94.6688 346.572 95.2118H349.525C349.521 94.8876 349.467 94.6005 349.361 94.3505C349.26 94.1005 349.104 93.9052 348.893 93.7645C348.686 93.6239 348.42 93.5536 348.096 93.5536ZM353.809 99.1259H352.426V90.0087H353.809V99.1259ZM357.16 99.1259H355.777V90.0087H357.16V99.1259Z" fill="#1A67C9"/>
<path d="M190.672 24.7938C190.672 25.3016 190.547 25.7391 190.297 26.1063C190.051 26.4735 189.695 26.7548 189.23 26.9501C188.77 27.1454 188.219 27.243 187.578 27.243C187.266 27.243 186.967 27.2255 186.682 27.1903C186.396 27.1552 186.127 27.1044 185.873 27.038C185.623 26.9677 185.395 26.8837 185.188 26.786V25.4618C185.535 25.6141 185.924 25.7528 186.354 25.8778C186.783 25.9989 187.221 26.0594 187.666 26.0594C188.029 26.0594 188.33 26.0126 188.568 25.9188C188.811 25.8212 188.99 25.6844 189.107 25.5087C189.225 25.329 189.283 25.12 189.283 24.8817C189.283 24.6278 189.215 24.413 189.078 24.2372C188.941 24.0614 188.734 23.9012 188.457 23.7567C188.184 23.6083 187.84 23.4501 187.426 23.2821C187.145 23.1688 186.875 23.0399 186.617 22.8954C186.363 22.7509 186.137 22.5809 185.938 22.3856C185.738 22.1903 185.58 21.9598 185.463 21.6942C185.35 21.4247 185.293 21.1083 185.293 20.745C185.293 20.2606 185.408 19.8466 185.639 19.5028C185.873 19.1591 186.201 18.8954 186.623 18.7118C187.049 18.5282 187.545 18.4364 188.111 18.4364C188.561 18.4364 188.982 18.4833 189.377 18.577C189.775 18.6708 190.166 18.8036 190.549 18.9755L190.104 20.1063C189.752 19.9618 189.41 19.8466 189.078 19.7606C188.75 19.6747 188.414 19.6317 188.07 19.6317C187.773 19.6317 187.521 19.6766 187.314 19.7665C187.107 19.8563 186.949 19.9833 186.84 20.1473C186.734 20.3075 186.682 20.4989 186.682 20.7216C186.682 20.9716 186.742 21.1825 186.863 21.3544C186.988 21.5223 187.18 21.6766 187.438 21.8173C187.699 21.9579 188.035 22.1141 188.445 22.286C188.918 22.4813 189.318 22.6864 189.646 22.9012C189.979 23.1161 190.232 23.3739 190.408 23.6747C190.584 23.9716 190.672 24.3446 190.672 24.7938ZM197.838 20.6395V27.1259H196.754L196.566 26.2528H196.49C196.354 26.4755 196.18 26.661 195.969 26.8094C195.758 26.954 195.523 27.0614 195.266 27.1317C195.008 27.2059 194.736 27.243 194.451 27.243C193.963 27.243 193.545 27.161 193.197 26.9969C192.854 26.829 192.59 26.5712 192.406 26.2235C192.223 25.8759 192.131 25.4266 192.131 24.8759V20.6395H193.514V24.618C193.514 25.1219 193.615 25.4989 193.818 25.7489C194.025 25.9989 194.346 26.1239 194.779 26.1239C195.197 26.1239 195.529 26.038 195.775 25.8661C196.021 25.6942 196.195 25.4403 196.297 25.1044C196.402 24.7684 196.455 24.3563 196.455 23.868V20.6395H197.838ZM201.189 18.0087V20.2059C201.189 20.4598 201.182 20.7098 201.166 20.9559C201.154 21.1981 201.143 21.3876 201.131 21.5243H201.189C201.365 21.243 201.609 21.0067 201.922 20.8153C202.238 20.62 202.643 20.5223 203.135 20.5223C203.904 20.5223 204.523 20.8055 204.992 21.3719C205.461 21.9344 205.695 22.7684 205.695 23.8739C205.695 24.6083 205.588 25.2255 205.373 25.7255C205.158 26.2255 204.855 26.6044 204.465 26.8622C204.078 27.1161 203.623 27.243 203.1 27.243C202.607 27.243 202.209 27.1532 201.904 26.9735C201.604 26.7899 201.367 26.577 201.195 26.3348H201.096L200.844 27.1259H199.812V18.0087H201.189ZM202.771 21.6415C202.381 21.6415 202.07 21.7196 201.84 21.8759C201.613 22.0321 201.449 22.2665 201.348 22.579C201.246 22.8876 201.193 23.2802 201.189 23.7567V23.8798C201.189 24.6024 201.303 25.1552 201.529 25.538C201.76 25.9208 202.178 26.1122 202.783 26.1122C203.264 26.1122 203.633 25.9188 203.891 25.5321C204.148 25.1415 204.277 24.5829 204.277 23.8563C204.277 23.1219 204.148 22.5692 203.891 22.1981C203.637 21.827 203.264 21.6415 202.771 21.6415ZM211.648 25.2743C211.648 25.7001 211.545 26.0594 211.338 26.3524C211.131 26.6454 210.828 26.868 210.43 27.0204C210.035 27.1688 209.551 27.243 208.977 27.243C208.523 27.243 208.133 27.2098 207.805 27.1434C207.48 27.0809 207.174 26.9833 206.885 26.8505V25.661C207.193 25.8055 207.539 25.9305 207.922 26.036C208.309 26.1415 208.674 26.1942 209.018 26.1942C209.471 26.1942 209.797 26.1239 209.996 25.9833C210.195 25.8387 210.295 25.6473 210.295 25.4091C210.295 25.2684 210.254 25.1434 210.172 25.0341C210.094 24.9208 209.945 24.8055 209.727 24.6884C209.512 24.5673 209.195 24.4227 208.777 24.2548C208.367 24.0907 208.021 23.9266 207.74 23.7626C207.459 23.5985 207.246 23.4012 207.102 23.1708C206.957 22.9364 206.885 22.6376 206.885 22.2743C206.885 21.7001 207.111 21.2645 207.564 20.9677C208.021 20.6669 208.625 20.5165 209.375 20.5165C209.773 20.5165 210.148 20.5575 210.5 20.6395C210.855 20.7177 211.203 20.8329 211.543 20.9852L211.109 22.0223C210.816 21.8934 210.521 21.788 210.225 21.7059C209.932 21.62 209.633 21.577 209.328 21.577C208.973 21.577 208.701 21.6317 208.514 21.7411C208.33 21.8505 208.238 22.0067 208.238 22.2098C208.238 22.3622 208.283 22.4911 208.373 22.5966C208.463 22.702 208.617 22.8075 208.836 22.913C209.059 23.0184 209.367 23.1493 209.762 23.3055C210.148 23.454 210.482 23.6102 210.764 23.7743C211.049 23.9344 211.268 24.1317 211.42 24.3661C211.572 24.6005 211.648 24.9032 211.648 25.2743ZM214.514 18.0087V20.2997C214.514 20.538 214.506 20.7704 214.49 20.9969C214.479 21.2235 214.465 21.3993 214.449 21.5243H214.525C214.662 21.2977 214.83 21.1122 215.029 20.9677C215.229 20.8192 215.451 20.7079 215.697 20.6337C215.947 20.5594 216.213 20.5223 216.494 20.5223C216.99 20.5223 217.412 20.6063 217.76 20.7743C218.107 20.9384 218.373 21.1942 218.557 21.5419C218.744 21.8895 218.838 22.3407 218.838 22.8954V27.1259H217.461V23.1532C217.461 22.6493 217.357 22.2723 217.15 22.0223C216.943 21.7684 216.623 21.6415 216.189 21.6415C215.771 21.6415 215.439 21.7294 215.193 21.9052C214.951 22.077 214.777 22.3329 214.672 22.6727C214.566 23.0087 214.514 23.4188 214.514 23.9032V27.1259H213.137V18.0087H214.514ZM223.35 20.5165C223.928 20.5165 224.424 20.6356 224.838 20.8739C225.252 21.1122 225.57 21.4501 225.793 21.8876C226.016 22.3251 226.127 22.8485 226.127 23.4579V24.1962H221.797C221.812 24.8251 221.98 25.3094 222.301 25.6493C222.625 25.9891 223.078 26.1591 223.66 26.1591C224.074 26.1591 224.445 26.12 224.773 26.0419C225.105 25.9598 225.447 25.8407 225.799 25.6844V26.8036C225.475 26.9559 225.145 27.0673 224.809 27.1376C224.473 27.2079 224.07 27.243 223.602 27.243C222.965 27.243 222.404 27.12 221.92 26.8739C221.439 26.6239 221.062 26.2528 220.789 25.7606C220.52 25.2684 220.385 24.6571 220.385 23.9266C220.385 23.2001 220.508 22.5829 220.754 22.0751C221 21.5673 221.346 21.1805 221.791 20.9149C222.236 20.6493 222.756 20.5165 223.35 20.5165ZM223.35 21.5536C222.916 21.5536 222.564 21.6942 222.295 21.9755C222.029 22.2567 221.873 22.6688 221.826 23.2118H224.779C224.775 22.8876 224.721 22.6005 224.615 22.3505C224.514 22.1005 224.357 21.9052 224.146 21.7645C223.939 21.6239 223.674 21.5536 223.35 21.5536ZM229.062 27.1259H227.68V18.0087H229.062V27.1259ZM232.414 27.1259H231.031V18.0087H232.414V27.1259ZM199.619 38.1298C199.799 38.1298 199.977 38.1141 200.152 38.0829C200.328 38.0477 200.488 38.0067 200.633 37.9598V39.0028C200.48 39.0692 200.283 39.1259 200.041 39.1727C199.799 39.2196 199.547 39.243 199.285 39.243C198.918 39.243 198.588 39.1825 198.295 39.0614C198.002 38.9364 197.77 38.7235 197.598 38.4227C197.426 38.1219 197.34 37.7059 197.34 37.1747V33.6884H196.455V33.0731L197.404 32.5868L197.855 31.1981H198.723V32.6395H200.58V33.6884H198.723V37.1571C198.723 37.4852 198.805 37.7294 198.969 37.8895C199.133 38.0497 199.35 38.1298 199.619 38.1298ZM200.973 32.6395H202.473L203.803 36.3427C203.861 36.5106 203.914 36.6766 203.961 36.8407C204.012 37.0009 204.055 37.1591 204.09 37.3153C204.129 37.4716 204.16 37.6278 204.184 37.7841H204.219C204.258 37.5809 204.312 37.3544 204.383 37.1044C204.457 36.8505 204.539 36.5966 204.629 36.3427L205.906 32.6395H207.389L204.605 40.0165C204.445 40.4384 204.248 40.7977 204.014 41.0946C203.783 41.3954 203.51 41.6219 203.193 41.7743C202.877 41.9305 202.516 42.0087 202.109 42.0087C201.914 42.0087 201.744 41.9969 201.6 41.9735C201.455 41.954 201.332 41.9325 201.23 41.9091V40.8075C201.312 40.827 201.416 40.8446 201.541 40.8602C201.666 40.8759 201.795 40.8837 201.928 40.8837C202.174 40.8837 202.387 40.8348 202.566 40.7372C202.746 40.6395 202.898 40.5009 203.023 40.3212C203.148 40.1454 203.252 39.9442 203.334 39.7177L203.562 39.1083L200.973 32.6395ZM211.701 32.5165C212.471 32.5165 213.088 32.7977 213.553 33.3602C214.021 33.9227 214.256 34.7587 214.256 35.868C214.256 36.6024 214.146 37.2216 213.928 37.7255C213.713 38.2255 213.41 38.6044 213.02 38.8622C212.633 39.1161 212.182 39.243 211.666 39.243C211.338 39.243 211.053 39.2001 210.811 39.1141C210.568 39.0282 210.361 38.9169 210.189 38.7802C210.018 38.6395 209.873 38.4872 209.756 38.3231H209.674C209.693 38.4794 209.711 38.6532 209.727 38.8446C209.746 39.0321 209.756 39.204 209.756 39.3602V42.0028H208.373V32.6395H209.498L209.691 33.536H209.756C209.877 33.3524 210.023 33.1825 210.195 33.0262C210.371 32.87 210.582 32.7469 210.828 32.6571C211.078 32.5634 211.369 32.5165 211.701 32.5165ZM211.332 33.6415C210.953 33.6415 210.648 33.7177 210.418 33.87C210.191 34.0184 210.025 34.243 209.92 34.5438C209.818 34.8446 209.764 35.2216 209.756 35.6747V35.868C209.756 36.3485 209.805 36.7567 209.902 37.0927C210.004 37.4247 210.17 37.6786 210.4 37.8544C210.635 38.0262 210.951 38.1122 211.35 38.1122C211.686 38.1122 211.963 38.0204 212.182 37.8368C212.404 37.6532 212.57 37.3915 212.68 37.0516C212.789 36.7118 212.844 36.3114 212.844 35.8505C212.844 35.1512 212.719 34.6083 212.469 34.2216C212.223 33.8348 211.844 33.6415 211.332 33.6415ZM218.434 32.5165C219.012 32.5165 219.508 32.6356 219.922 32.8739C220.336 33.1122 220.654 33.4501 220.877 33.8876C221.1 34.3251 221.211 34.8485 221.211 35.4579V36.1962H216.881C216.896 36.8251 217.064 37.3094 217.385 37.6493C217.709 37.9891 218.162 38.1591 218.744 38.1591C219.158 38.1591 219.529 38.12 219.857 38.0419C220.189 37.9598 220.531 37.8407 220.883 37.6844V38.8036C220.559 38.9559 220.229 39.0673 219.893 39.1376C219.557 39.2079 219.154 39.243 218.686 39.243C218.049 39.243 217.488 39.12 217.004 38.8739C216.523 38.6239 216.146 38.2528 215.873 37.7606C215.604 37.2684 215.469 36.6571 215.469 35.9266C215.469 35.2001 215.592 34.5829 215.838 34.0751C216.084 33.5673 216.43 33.1805 216.875 32.9149C217.32 32.6493 217.84 32.5165 218.434 32.5165ZM218.434 33.5536C218 33.5536 217.648 33.6942 217.379 33.9755C217.113 34.2567 216.957 34.6688 216.91 35.2118H219.863C219.859 34.8876 219.805 34.6005 219.699 34.3505C219.598 34.1005 219.441 33.9052 219.23 33.7645C219.023 33.6239 218.758 33.5536 218.434 33.5536Z" fill="#1A67C9"/>
<path d="M264 88.1259L269 91.0126L269 85.2391L264 88.1259ZM268.5 88.6259L288 88.6259L288 87.6259L268.5 87.6259L268.5 88.6259Z" fill="#1A67C9"/>
<path d="M31.9531 112.126H27.1016V103.559H31.9531V104.743H28.5078V107.069H31.7363V108.247H28.5078V110.936H31.9531V112.126ZM35.0469 112.126H33.6641V103.009H35.0469V112.126ZM39.5996 105.516C40.1777 105.516 40.6738 105.636 41.0879 105.874C41.502 106.112 41.8203 106.45 42.043 106.888C42.2656 107.325 42.377 107.849 42.377 108.458V109.196H38.0469C38.0625 109.825 38.2305 110.309 38.5508 110.649C38.875 110.989 39.3281 111.159 39.9102 111.159C40.3242 111.159 40.6953 111.12 41.0234 111.042C41.3555 110.96 41.6973 110.841 42.0488 110.684V111.804C41.7246 111.956 41.3945 112.067 41.0586 112.138C40.7227 112.208 40.3203 112.243 39.8516 112.243C39.2148 112.243 38.6543 112.12 38.1699 111.874C37.6895 111.624 37.3125 111.253 37.0391 110.761C36.7695 110.268 36.6348 109.657 36.6348 108.927C36.6348 108.2 36.7578 107.583 37.0039 107.075C37.25 106.567 37.5957 106.181 38.041 105.915C38.4863 105.649 39.0059 105.516 39.5996 105.516ZM39.5996 106.554C39.166 106.554 38.8145 106.694 38.5449 106.975C38.2793 107.257 38.123 107.669 38.0762 108.212H41.0293C41.0254 107.888 40.9707 107.6 40.8652 107.35C40.7637 107.1 40.6074 106.905 40.3965 106.765C40.1895 106.624 39.9238 106.554 39.5996 106.554ZM46.543 112.243C45.9297 112.243 45.3984 112.124 44.9492 111.886C44.5 111.647 44.1543 111.282 43.9121 110.79C43.6699 110.298 43.5488 109.673 43.5488 108.915C43.5488 108.126 43.6816 107.481 43.9473 106.981C44.2129 106.481 44.5801 106.112 45.0488 105.874C45.5215 105.636 46.0625 105.516 46.6719 105.516C47.0586 105.516 47.4082 105.556 47.7207 105.634C48.0371 105.708 48.3047 105.8 48.5234 105.909L48.1133 107.011C47.875 106.913 47.6309 106.831 47.3809 106.765C47.1309 106.698 46.8906 106.665 46.6602 106.665C46.2812 106.665 45.9648 106.749 45.7109 106.917C45.4609 107.085 45.2734 107.335 45.1484 107.667C45.0273 107.999 44.9668 108.411 44.9668 108.903C44.9668 109.38 45.0293 109.782 45.1543 110.11C45.2793 110.434 45.4648 110.681 45.7109 110.849C45.957 111.013 46.2598 111.095 46.6191 111.095C46.9746 111.095 47.293 111.052 47.5742 110.966C47.8555 110.88 48.1211 110.768 48.3711 110.632V111.827C48.125 111.968 47.8613 112.071 47.5801 112.138C47.2988 112.208 46.9531 112.243 46.543 112.243ZM52.3086 111.13C52.4883 111.13 52.666 111.114 52.8418 111.083C53.0176 111.048 53.1777 111.007 53.3223 110.96V112.003C53.1699 112.069 52.9727 112.126 52.7305 112.173C52.4883 112.22 52.2363 112.243 51.9746 112.243C51.6074 112.243 51.2773 112.182 50.9844 112.061C50.6914 111.936 50.459 111.724 50.2871 111.423C50.1152 111.122 50.0293 110.706 50.0293 110.175V106.688H49.1445V106.073L50.0938 105.587L50.5449 104.198H51.4121V105.64H53.2695V106.688H51.4121V110.157C51.4121 110.485 51.4941 110.729 51.6582 110.89C51.8223 111.05 52.0391 111.13 52.3086 111.13ZM57.9277 105.516C58.0371 105.516 58.1562 105.522 58.2852 105.534C58.4141 105.546 58.5254 105.561 58.6191 105.581L58.4902 106.87C58.4082 106.847 58.3066 106.829 58.1855 106.817C58.0684 106.806 57.9629 106.8 57.8691 106.8C57.623 106.8 57.3887 106.841 57.166 106.923C56.9434 107.001 56.7461 107.122 56.5742 107.286C56.4023 107.446 56.2676 107.647 56.1699 107.89C56.0723 108.132 56.0234 108.413 56.0234 108.733V112.126H54.6406V105.64H55.7188L55.9062 106.782H55.9707C56.0996 106.552 56.2598 106.341 56.4512 106.149C56.6426 105.958 56.8613 105.806 57.1074 105.692C57.3574 105.575 57.6309 105.516 57.9277 105.516ZM65.5625 108.868C65.5625 109.407 65.4922 109.886 65.3516 110.304C65.2109 110.722 65.0059 111.075 64.7363 111.364C64.4668 111.649 64.1426 111.868 63.7637 112.02C63.3848 112.169 62.957 112.243 62.4805 112.243C62.0352 112.243 61.627 112.169 61.2559 112.02C60.8848 111.868 60.5625 111.649 60.2891 111.364C60.0195 111.075 59.8105 110.722 59.6621 110.304C59.5137 109.886 59.4395 109.407 59.4395 108.868C59.4395 108.153 59.5625 107.548 59.8086 107.052C60.0586 106.552 60.4141 106.171 60.875 105.909C61.3359 105.647 61.8848 105.516 62.5215 105.516C63.1191 105.516 63.6465 105.647 64.1035 105.909C64.5605 106.171 64.918 106.552 65.1758 107.052C65.4336 107.552 65.5625 108.157 65.5625 108.868ZM60.8574 108.868C60.8574 109.341 60.9141 109.745 61.0273 110.081C61.1445 110.417 61.3242 110.675 61.5664 110.854C61.8086 111.03 62.1211 111.118 62.5039 111.118C62.8867 111.118 63.1992 111.03 63.4414 110.854C63.6836 110.675 63.8613 110.417 63.9746 110.081C64.0879 109.745 64.1445 109.341 64.1445 108.868C64.1445 108.395 64.0879 107.995 63.9746 107.667C63.8613 107.335 63.6836 107.083 63.4414 106.911C63.1992 106.735 62.8848 106.647 62.498 106.647C61.9277 106.647 61.5117 106.839 61.25 107.222C60.9883 107.604 60.8574 108.153 60.8574 108.868ZM70.5254 105.516C71.2559 105.516 71.8242 105.706 72.2305 106.085C72.6406 106.46 72.8457 107.063 72.8457 107.895V112.126H71.4688V108.153C71.4688 107.649 71.3652 107.272 71.1582 107.022C70.9512 106.768 70.6309 106.641 70.1973 106.641C69.5684 106.641 69.1309 106.835 68.8848 107.222C68.6426 107.608 68.5215 108.169 68.5215 108.903V112.126H67.1445V105.64H68.2168L68.4102 106.518H68.4863C68.627 106.292 68.8008 106.106 69.0078 105.962C69.2188 105.813 69.4531 105.702 69.7109 105.628C69.9727 105.554 70.2441 105.516 70.5254 105.516ZM82.25 110.274C82.25 110.7 82.1465 111.059 81.9395 111.352C81.7324 111.645 81.4297 111.868 81.0312 112.02C80.6367 112.169 80.1523 112.243 79.5781 112.243C79.125 112.243 78.7344 112.21 78.4062 112.143C78.082 112.081 77.7754 111.983 77.4863 111.85V110.661C77.7949 110.806 78.1406 110.931 78.5234 111.036C78.9102 111.141 79.2754 111.194 79.6191 111.194C80.0723 111.194 80.3984 111.124 80.5977 110.983C80.7969 110.839 80.8965 110.647 80.8965 110.409C80.8965 110.268 80.8555 110.143 80.7734 110.034C80.6953 109.921 80.5469 109.806 80.3281 109.688C80.1133 109.567 79.7969 109.423 79.3789 109.255C78.9688 109.091 78.623 108.927 78.3418 108.763C78.0605 108.599 77.8477 108.401 77.7031 108.171C77.5586 107.936 77.4863 107.638 77.4863 107.274C77.4863 106.7 77.7129 106.265 78.166 105.968C78.623 105.667 79.2266 105.516 79.9766 105.516C80.375 105.516 80.75 105.557 81.1016 105.64C81.457 105.718 81.8047 105.833 82.1445 105.985L81.7109 107.022C81.418 106.893 81.123 106.788 80.8262 106.706C80.5332 106.62 80.2344 106.577 79.9297 106.577C79.5742 106.577 79.3027 106.632 79.1152 106.741C78.9316 106.85 78.8398 107.007 78.8398 107.21C78.8398 107.362 78.8848 107.491 78.9746 107.597C79.0645 107.702 79.2188 107.807 79.4375 107.913C79.6602 108.018 79.9688 108.149 80.3633 108.306C80.75 108.454 81.084 108.61 81.3652 108.774C81.6504 108.934 81.8691 109.132 82.0215 109.366C82.1738 109.6 82.25 109.903 82.25 110.274ZM85.1152 103.009V105.3C85.1152 105.538 85.1074 105.77 85.0918 105.997C85.0801 106.224 85.0664 106.399 85.0508 106.524H85.127C85.2637 106.298 85.4316 106.112 85.6309 105.968C85.8301 105.819 86.0527 105.708 86.2988 105.634C86.5488 105.559 86.8145 105.522 87.0957 105.522C87.5918 105.522 88.0137 105.606 88.3613 105.774C88.709 105.938 88.9746 106.194 89.1582 106.542C89.3457 106.89 89.4395 107.341 89.4395 107.895V112.126H88.0625V108.153C88.0625 107.649 87.959 107.272 87.752 107.022C87.5449 106.768 87.2246 106.641 86.791 106.641C86.373 106.641 86.041 106.729 85.7949 106.905C85.5527 107.077 85.3789 107.333 85.2734 107.673C85.168 108.009 85.1152 108.419 85.1152 108.903V112.126H83.7383V103.009H85.1152ZM93.9512 105.516C94.5293 105.516 95.0254 105.636 95.4395 105.874C95.8535 106.112 96.1719 106.45 96.3945 106.888C96.6172 107.325 96.7285 107.849 96.7285 108.458V109.196H92.3984C92.4141 109.825 92.582 110.309 92.9023 110.649C93.2266 110.989 93.6797 111.159 94.2617 111.159C94.6758 111.159 95.0469 111.12 95.375 111.042C95.707 110.96 96.0488 110.841 96.4004 110.684V111.804C96.0762 111.956 95.7461 112.067 95.4102 112.138C95.0742 112.208 94.6719 112.243 94.2031 112.243C93.5664 112.243 93.0059 112.12 92.5215 111.874C92.041 111.624 91.6641 111.253 91.3906 110.761C91.1211 110.268 90.9863 109.657 90.9863 108.927C90.9863 108.2 91.1094 107.583 91.3555 107.075C91.6016 106.567 91.9473 106.181 92.3926 105.915C92.8379 105.649 93.3574 105.516 93.9512 105.516ZM93.9512 106.554C93.5176 106.554 93.166 106.694 92.8965 106.975C92.6309 107.257 92.4746 107.669 92.4277 108.212H95.3809C95.377 107.888 95.3223 107.6 95.2168 107.35C95.1152 107.1 94.959 106.905 94.748 106.765C94.541 106.624 94.2754 106.554 93.9512 106.554ZM99.6641 112.126H98.2812V103.009H99.6641V112.126ZM103.016 112.126H101.633V103.009H103.016V112.126Z" fill="#1A67C9"/>
<path d="M136 107.126L131 104.239V110.013L136 107.126ZM131.5 106.626L112 106.626V107.626L131.5 107.626V106.626Z" fill="#1A67C9"/>
<path d="M209 76.1259L211.887 71.1259H206.113L209 76.1259ZM209.5 71.6259V52.1259H208.5V71.6259H209.5Z" fill="#1A67C9"/>
</svg>
