<svg width="384" height="433" viewBox="0 0 384 433" fill="none" xmlns="http://www.w3.org/2000/svg">
<rect width="384" height="432" transform="translate(0 0.125824)" fill="white"/>
<circle cx="192" cy="192.126" r="160" stroke="#161326" stroke-width="4"/>
<circle cx="192" cy="192.126" r="96" stroke="#161326" stroke-width="4"/>
<circle cx="192" cy="192.126" r="128" stroke="#161326" stroke-width="4"/>
<path d="M130 192.126C130 157.884 157.758 130.126 192 130.126C226.242 130.126 254 157.884 254 192.126C254 226.367 226.242 254.126 192 254.126C157.758 254.126 130 226.367 130 192.126Z" fill="#131B6C" fill-opacity="0.12"/>
<path d="M130 192.126C130 157.884 157.758 130.126 192 130.126C226.242 130.126 254 157.884 254 192.126C254 226.367 226.242 254.126 192 254.126C157.758 254.126 130 226.367 130 192.126Z" stroke="#131B6C" stroke-width="4"/>
<path d="M188.227 182.415C186.836 182.415 185.602 182.688 184.523 183.235C183.461 183.766 182.562 184.54 181.828 185.556C181.109 186.571 180.562 187.798 180.188 189.235C179.812 190.673 179.625 192.29 179.625 194.087C179.625 196.509 179.922 198.579 180.516 200.298C181.125 202.001 182.062 203.306 183.328 204.212C184.594 205.102 186.227 205.548 188.227 205.548C189.617 205.548 191.008 205.391 192.398 205.079C193.805 204.766 195.328 204.321 196.969 203.743V209.837C195.453 210.462 193.961 210.907 192.492 211.173C191.023 211.454 189.375 211.595 187.547 211.595C184.016 211.595 181.109 210.868 178.828 209.415C176.562 207.946 174.883 205.899 173.789 203.274C172.695 200.634 172.148 197.556 172.148 194.04C172.148 191.446 172.5 189.071 173.203 186.915C173.906 184.759 174.938 182.891 176.297 181.313C177.656 179.735 179.336 178.516 181.336 177.657C183.336 176.798 185.633 176.368 188.227 176.368C189.93 176.368 191.633 176.587 193.336 177.024C195.055 177.446 196.695 178.032 198.258 178.782L195.914 184.688C194.633 184.079 193.344 183.548 192.047 183.095C190.75 182.641 189.477 182.415 188.227 182.415ZM210.867 211.126H203.719V174.657H210.867V211.126Z" fill="#131B6C"/>
<circle cx="244" cy="408.126" r="10" fill="#7BCDE9" stroke="black" stroke-width="4"/>
<path d="M274.84 413.423C274.84 414.274 274.633 414.993 274.219 415.579C273.805 416.165 273.199 416.61 272.402 416.915C271.613 417.212 270.645 417.36 269.496 417.36C268.59 417.36 267.809 417.294 267.152 417.161C266.504 417.036 265.891 416.841 265.312 416.575V414.196C265.93 414.485 266.621 414.735 267.387 414.946C268.16 415.157 268.891 415.263 269.578 415.263C270.484 415.263 271.137 415.122 271.535 414.841C271.934 414.552 272.133 414.169 272.133 413.692C272.133 413.411 272.051 413.161 271.887 412.942C271.73 412.716 271.434 412.485 270.996 412.251C270.566 412.009 269.934 411.72 269.098 411.384C268.277 411.056 267.586 410.727 267.023 410.399C266.461 410.071 266.035 409.677 265.746 409.216C265.457 408.747 265.312 408.149 265.312 407.423C265.312 406.274 265.766 405.403 266.672 404.809C267.586 404.208 268.793 403.907 270.293 403.907C271.09 403.907 271.84 403.989 272.543 404.153C273.254 404.309 273.949 404.54 274.629 404.845L273.762 406.919C273.176 406.661 272.586 406.45 271.992 406.286C271.406 406.114 270.809 406.028 270.199 406.028C269.488 406.028 268.945 406.138 268.57 406.356C268.203 406.575 268.02 406.888 268.02 407.294C268.02 407.599 268.109 407.856 268.289 408.067C268.469 408.278 268.777 408.489 269.215 408.7C269.66 408.911 270.277 409.173 271.066 409.485C271.84 409.782 272.508 410.095 273.07 410.423C273.641 410.743 274.078 411.138 274.383 411.606C274.688 412.075 274.84 412.681 274.84 413.423Z" fill="#161326"/>
<circle cx="320" cy="408.126" r="10" fill="#3FB872" stroke="black" stroke-width="4"/>
<path d="M347.148 403.907C348.688 403.907 349.922 404.47 350.852 405.595C351.789 406.72 352.258 408.391 352.258 410.61C352.258 412.079 352.039 413.317 351.602 414.325C351.172 415.325 350.566 416.083 349.785 416.599C349.012 417.106 348.109 417.36 347.078 417.36C346.422 417.36 345.852 417.274 345.367 417.102C344.883 416.931 344.469 416.708 344.125 416.434C343.781 416.153 343.492 415.849 343.258 415.52H343.094C343.133 415.833 343.168 416.181 343.199 416.563C343.238 416.938 343.258 417.282 343.258 417.595V422.88H340.492V404.153H342.742L343.129 405.946H343.258C343.5 405.579 343.793 405.239 344.137 404.927C344.488 404.614 344.91 404.368 345.402 404.188C345.902 404.001 346.484 403.907 347.148 403.907ZM346.41 406.157C345.652 406.157 345.043 406.309 344.582 406.614C344.129 406.911 343.797 407.36 343.586 407.962C343.383 408.563 343.273 409.317 343.258 410.224V410.61C343.258 411.571 343.355 412.388 343.551 413.059C343.754 413.724 344.086 414.231 344.547 414.583C345.016 414.927 345.648 415.099 346.445 415.099C347.117 415.099 347.672 414.915 348.109 414.548C348.555 414.181 348.887 413.657 349.105 412.977C349.324 412.298 349.434 411.497 349.434 410.575C349.434 409.177 349.184 408.091 348.684 407.317C348.191 406.544 347.434 406.157 346.41 406.157Z" fill="#161326"/>
<circle cx="176" cy="32.1258" r="10" fill="#7BCDE9" stroke="black" stroke-width="4"/>
<circle cx="208" cy="32.1258" r="10" fill="#7BCDE9" stroke="black" stroke-width="4"/>
<circle cx="176" cy="64.1258" r="10" fill="#7BCDE9" stroke="black" stroke-width="4"/>
<circle cx="208" cy="64.1258" r="10" fill="#7BCDE9" stroke="black" stroke-width="4"/>
<circle cx="176" cy="96.1258" r="10" fill="#7BCDE9" stroke="black" stroke-width="4"/>
<circle cx="208" cy="96.1258" r="10" fill="#7BCDE9" stroke="black" stroke-width="4"/>
<circle cx="176" cy="320.126" r="10" fill="#3FB872" stroke="black" stroke-width="4"/>
<circle cx="208" cy="320.126" r="10" fill="#3FB872" stroke="black" stroke-width="4"/>
<circle cx="176" cy="352.126" r="10" fill="#3FB872" stroke="black" stroke-width="4"/>
<circle cx="208" cy="352.126" r="10" fill="#3FB872" stroke="black" stroke-width="4"/>
<circle cx="32" cy="208.126" r="10" transform="rotate(-90 32 208.126)" fill="#3FB872" stroke="black" stroke-width="4"/>
<circle cx="63.9998" cy="208.126" r="10" transform="rotate(-90 63.9998 208.126)" fill="#3FB872" stroke="black" stroke-width="4"/>
<circle cx="63.9998" cy="176.126" r="10" transform="rotate(-90 63.9998 176.126)" fill="#3FB872" stroke="black" stroke-width="4"/>
<circle cx="320" cy="208.126" r="10" transform="rotate(-90 320 208.126)" fill="#3FB872" stroke="black" stroke-width="4"/>
<circle cx="320" cy="176.126" r="10" transform="rotate(-90 320 176.126)" fill="#3FB872" stroke="black" stroke-width="4"/>
<circle cx="352" cy="208.126" r="10" transform="rotate(-90 352 208.126)" fill="#3FB872" stroke="black" stroke-width="4"/>
<circle cx="352" cy="176.126" r="10" transform="rotate(-90 352 176.126)" fill="#3FB872" stroke="black" stroke-width="4"/>
<g clip-path="url(#clip0_177_1806)">
<path d="M243.882 260.008C243.882 251.172 251.046 244.008 259.882 244.008C268.719 244.008 275.882 251.172 275.882 260.008C275.882 268.845 268.719 276.008 259.882 276.008C251.046 276.008 243.882 268.845 243.882 260.008Z" fill="white"/>
<path d="M262.191 269.008H259.425V257.981C259.425 257.614 259.429 257.246 259.437 256.879C259.445 256.512 259.453 256.153 259.46 255.801C259.476 255.45 259.496 255.114 259.519 254.793C259.355 254.973 259.152 255.168 258.91 255.379C258.675 255.59 258.425 255.809 258.16 256.035L256.191 257.606L254.808 255.86L259.894 251.875H262.191V269.008Z" fill="#161326"/>
<path d="M266.51 282.635C266.51 273.799 273.673 266.635 282.51 266.635C291.346 266.635 298.51 273.799 298.51 282.635C298.51 291.472 291.346 298.635 282.51 298.635C273.673 298.635 266.51 291.472 266.51 282.635Z" fill="white"/>
<path d="M288.322 291.635H276.721V289.561L281.162 285.061C282.022 284.186 282.729 283.432 283.283 282.8C283.838 282.159 284.248 281.553 284.514 280.983C284.787 280.413 284.924 279.792 284.924 279.12C284.924 278.292 284.686 277.667 284.209 277.245C283.733 276.815 283.104 276.6 282.322 276.6C281.58 276.6 280.893 276.749 280.26 277.046C279.635 277.335 278.987 277.749 278.315 278.288L276.803 276.471C277.279 276.065 277.787 275.694 278.326 275.358C278.873 275.022 279.483 274.757 280.154 274.561C280.826 274.358 281.592 274.257 282.451 274.257C283.537 274.257 284.475 274.452 285.264 274.842C286.053 275.225 286.658 275.76 287.08 276.448C287.51 277.135 287.725 277.936 287.725 278.85C287.725 279.772 287.541 280.624 287.174 281.405C286.807 282.186 286.283 282.96 285.604 283.725C284.924 284.483 284.115 285.307 283.178 286.198L280.213 289.092V289.221H288.322V291.635Z" fill="#161326"/>
<path d="M289.137 305.263C289.137 296.426 296.301 289.263 305.137 289.263C313.974 289.263 321.137 296.426 321.137 305.263C321.137 314.1 313.974 321.263 305.137 321.263C296.301 321.263 289.137 314.1 289.137 305.263Z" fill="white"/>
<path d="M310.293 301.044C310.293 301.818 310.137 302.49 309.825 303.06C309.512 303.63 309.082 304.099 308.536 304.466C307.997 304.825 307.372 305.083 306.661 305.24V305.322C308.028 305.493 309.059 305.923 309.754 306.611C310.457 307.298 310.809 308.208 310.809 309.341C310.809 310.333 310.571 311.22 310.094 312.001C309.618 312.775 308.887 313.384 307.903 313.829C306.918 314.275 305.653 314.497 304.106 314.497C303.176 314.497 302.313 314.423 301.516 314.275C300.727 314.126 299.977 313.888 299.266 313.56V311.111C299.993 311.47 300.766 311.747 301.586 311.943C302.407 312.138 303.184 312.236 303.918 312.236C305.348 312.236 306.368 311.97 306.977 311.439C307.586 310.9 307.891 310.157 307.891 309.212C307.891 308.603 307.731 308.103 307.411 307.712C307.098 307.322 306.61 307.029 305.946 306.833C305.289 306.638 304.442 306.54 303.403 306.54H301.891V304.325H303.414C304.407 304.325 305.204 304.208 305.805 303.974C306.407 303.732 306.84 303.4 307.106 302.978C307.379 302.556 307.516 302.064 307.516 301.501C307.516 300.767 307.278 300.197 306.801 299.79C306.325 299.376 305.618 299.169 304.68 299.169C304.102 299.169 303.575 299.236 303.098 299.368C302.629 299.501 302.196 299.669 301.797 299.872C301.399 300.075 301.02 300.294 300.661 300.529L299.336 298.618C299.985 298.134 300.758 297.724 301.657 297.388C302.555 297.052 303.602 296.884 304.797 296.884C306.555 296.884 307.911 297.263 308.864 298.021C309.817 298.771 310.293 299.779 310.293 301.044Z" fill="#161326"/>
</g>
<defs>
<clipPath id="clip0_177_1806">
<rect width="384" height="32" fill="white" transform="translate(67.5493 45.0477) rotate(45)"/>
</clipPath>
</defs>
</svg>
