<svg width="320" height="369" viewBox="0 0 320 369" fill="none" xmlns="http://www.w3.org/2000/svg">
<rect width="320" height="368" transform="translate(0 0.125854)" fill="white"/>
<circle cx="160" cy="160.126" r="96" stroke="#161326" stroke-width="4"/>
<circle cx="160" cy="160.126" r="128" stroke="#161326" stroke-width="4"/>
<path d="M160 222.126C125.758 222.126 98 194.368 98 160.126C98 125.884 125.758 98.1259 160 98.1259C194.242 98.1259 222 125.884 222 160.126C222 194.368 194.242 222.126 160 222.126Z" fill="#F8C863"/>
<path d="M160 222.126C125.758 222.126 98 194.368 98 160.126C98 125.884 125.758 98.1259 160 98.1259C194.242 98.1259 222 125.884 222 160.126C222 194.368 194.242 222.126 160 222.126Z" stroke="black" stroke-width="4"/>
<path d="M163.562 150.415C162.172 150.415 160.938 150.688 159.859 151.235C158.797 151.766 157.898 152.54 157.164 153.556C156.445 154.571 155.898 155.798 155.523 157.235C155.148 158.673 154.961 160.29 154.961 162.087C154.961 164.509 155.258 166.579 155.852 168.298C156.461 170.001 157.398 171.306 158.664 172.212C159.93 173.102 161.562 173.548 163.562 173.548C164.953 173.548 166.344 173.391 167.734 173.079C169.141 172.766 170.664 172.321 172.305 171.743V177.837C170.789 178.462 169.297 178.907 167.828 179.173C166.359 179.454 164.711 179.595 162.883 179.595C159.352 179.595 156.445 178.868 154.164 177.415C151.898 175.946 150.219 173.899 149.125 171.274C148.031 168.634 147.484 165.556 147.484 162.04C147.484 159.446 147.836 157.071 148.539 154.915C149.242 152.759 150.273 150.891 151.633 149.313C152.992 147.735 154.672 146.516 156.672 145.657C158.672 144.798 160.969 144.368 163.562 144.368C165.266 144.368 166.969 144.587 168.672 145.024C170.391 145.446 172.031 146.032 173.594 146.782L171.25 152.688C169.969 152.079 168.68 151.548 167.383 151.095C166.086 150.641 164.812 150.415 163.562 150.415Z" fill="#161326"/>
<circle cx="176" cy="288.126" r="10" fill="#3FB872" stroke="black" stroke-width="4"/>
<circle cx="288" cy="144.126" r="10" transform="rotate(-90 288 144.126)" fill="#3FB872" stroke="black" stroke-width="4"/>
<circle cx="180" cy="344.126" r="10" fill="#7BCDE9" stroke="black" stroke-width="4"/>
<path d="M210.84 349.423C210.84 350.274 210.633 350.993 210.219 351.579C209.805 352.165 209.199 352.61 208.402 352.915C207.613 353.212 206.645 353.36 205.496 353.36C204.59 353.36 203.809 353.294 203.152 353.161C202.504 353.036 201.891 352.841 201.312 352.575V350.196C201.93 350.485 202.621 350.735 203.387 350.946C204.16 351.157 204.891 351.263 205.578 351.263C206.484 351.263 207.137 351.122 207.535 350.841C207.934 350.552 208.133 350.169 208.133 349.692C208.133 349.411 208.051 349.161 207.887 348.942C207.73 348.716 207.434 348.485 206.996 348.251C206.566 348.009 205.934 347.72 205.098 347.384C204.277 347.056 203.586 346.727 203.023 346.399C202.461 346.071 202.035 345.677 201.746 345.216C201.457 344.747 201.312 344.149 201.312 343.423C201.312 342.274 201.766 341.403 202.672 340.809C203.586 340.208 204.793 339.907 206.293 339.907C207.09 339.907 207.84 339.989 208.543 340.153C209.254 340.309 209.949 340.54 210.629 340.845L209.762 342.919C209.176 342.661 208.586 342.45 207.992 342.286C207.406 342.114 206.809 342.028 206.199 342.028C205.488 342.028 204.945 342.138 204.57 342.356C204.203 342.575 204.02 342.888 204.02 343.294C204.02 343.599 204.109 343.856 204.289 344.067C204.469 344.278 204.777 344.489 205.215 344.7C205.66 344.911 206.277 345.173 207.066 345.485C207.84 345.782 208.508 346.095 209.07 346.423C209.641 346.743 210.078 347.138 210.383 347.606C210.688 348.075 210.84 348.681 210.84 349.423Z" fill="#161326"/>
<circle cx="256" cy="344.126" r="10" fill="#3FB872" stroke="black" stroke-width="4"/>
<path d="M283.148 339.907C284.688 339.907 285.922 340.47 286.852 341.595C287.789 342.72 288.258 344.391 288.258 346.61C288.258 348.079 288.039 349.317 287.602 350.325C287.172 351.325 286.566 352.083 285.785 352.599C285.012 353.106 284.109 353.36 283.078 353.36C282.422 353.36 281.852 353.274 281.367 353.102C280.883 352.931 280.469 352.708 280.125 352.434C279.781 352.153 279.492 351.849 279.258 351.52H279.094C279.133 351.833 279.168 352.181 279.199 352.563C279.238 352.938 279.258 353.282 279.258 353.595V358.88H276.492V340.153H278.742L279.129 341.946H279.258C279.5 341.579 279.793 341.239 280.137 340.927C280.488 340.614 280.91 340.368 281.402 340.188C281.902 340.001 282.484 339.907 283.148 339.907ZM282.41 342.157C281.652 342.157 281.043 342.309 280.582 342.614C280.129 342.911 279.797 343.36 279.586 343.962C279.383 344.563 279.273 345.317 279.258 346.224V346.61C279.258 347.571 279.355 348.388 279.551 349.059C279.754 349.724 280.086 350.231 280.547 350.583C281.016 350.927 281.648 351.099 282.445 351.099C283.117 351.099 283.672 350.915 284.109 350.548C284.555 350.181 284.887 349.657 285.105 348.977C285.324 348.298 285.434 347.497 285.434 346.575C285.434 345.177 285.184 344.091 284.684 343.317C284.191 342.544 283.434 342.157 282.41 342.157Z" fill="#161326"/>
<circle cx="144" cy="32.1259" r="10" fill="#7BCDE9" stroke="black" stroke-width="4"/>
<circle cx="176" cy="32.1259" r="10" fill="#7BCDE9" stroke="black" stroke-width="4"/>
<circle cx="144" cy="64.1259" r="10" fill="#7BCDE9" stroke="black" stroke-width="4"/>
<circle cx="176" cy="64.1259" r="10" fill="#7BCDE9" stroke="black" stroke-width="4"/>
<g clip-path="url(#clip0_203_974)">
<path d="M211.96 228.086C211.96 219.25 219.124 212.086 227.96 212.086V212.086C236.797 212.086 243.96 219.25 243.96 228.086V228.086C243.96 236.923 236.797 244.086 227.96 244.086V244.086C219.124 244.086 211.96 236.923 211.96 228.086V228.086Z" fill="white"/>
<path d="M230.269 237.086H227.503V226.059C227.503 225.692 227.507 225.325 227.515 224.957C227.523 224.59 227.531 224.231 227.539 223.879C227.554 223.528 227.574 223.192 227.597 222.871C227.433 223.051 227.23 223.246 226.988 223.457C226.753 223.668 226.503 223.887 226.238 224.114L224.269 225.684L222.886 223.938L227.972 219.953H230.269V237.086Z" fill="#161326"/>
<path d="M234.588 250.714C234.588 241.877 241.752 234.714 250.588 234.714V234.714C259.425 234.714 266.588 241.877 266.588 250.714V250.714C266.588 259.55 259.425 266.714 250.588 266.714V266.714C241.752 266.714 234.588 259.55 234.588 250.714V250.714Z" fill="white"/>
<path d="M256.401 259.714H244.799V257.639L249.24 253.139C250.1 252.264 250.807 251.51 251.362 250.878C251.916 250.237 252.326 249.632 252.592 249.061C252.865 248.491 253.002 247.87 253.002 247.198C253.002 246.37 252.764 245.745 252.287 245.323C251.811 244.893 251.182 244.678 250.401 244.678C249.658 244.678 248.971 244.827 248.338 245.124C247.713 245.413 247.065 245.827 246.393 246.366L244.881 244.55C245.358 244.143 245.865 243.772 246.404 243.436C246.951 243.1 247.561 242.835 248.233 242.639C248.904 242.436 249.67 242.335 250.529 242.335C251.615 242.335 252.553 242.53 253.342 242.921C254.131 243.303 254.737 243.839 255.158 244.526C255.588 245.214 255.803 246.014 255.803 246.928C255.803 247.85 255.619 248.702 255.252 249.483C254.885 250.264 254.362 251.038 253.682 251.803C253.002 252.561 252.194 253.385 251.256 254.276L248.291 257.171V257.3H256.401V259.714Z" fill="#161326"/>
</g>
<defs>
<clipPath id="clip0_203_974">
<rect width="384" height="32" fill="white" transform="translate(35.6274 13.1259) rotate(45)"/>
</clipPath>
</defs>
</svg>
