<svg width="256" height="305" viewBox="0 0 256 305" fill="none" xmlns="http://www.w3.org/2000/svg">
<g clip-path="url(#clip0_179_1759)">
<rect width="256" height="304" transform="translate(0 0.125732)" fill="white"/>
<circle cx="128" cy="128.126" r="96" stroke="#161326" stroke-width="4"/>
<path d="M66 128.126C66 93.8841 93.7583 66.1257 128 66.1257C162.242 66.1257 190 93.8841 190 128.126C190 162.367 162.242 190.126 128 190.126C93.7583 190.126 66 162.367 66 128.126Z" fill="#8E0B37" fill-opacity="0.12"/>
<path d="M66 128.126C66 93.8841 93.7583 66.1257 128 66.1257C162.242 66.1257 190 93.8841 190 128.126C190 162.367 162.242 190.126 128 190.126C93.7583 190.126 66 162.367 66 128.126Z" stroke="#8E0B37" stroke-width="4"/>
<path d="M127.836 147.126H120.594V132.337H107.023V147.126H99.7578V112.86H107.023V126.29H120.594V112.86H127.836V147.126ZM146.75 120.43C149.172 120.43 151.258 120.899 153.008 121.837C154.758 122.759 156.109 124.102 157.062 125.868C158.016 127.634 158.492 129.79 158.492 132.337V135.805H141.594C141.672 137.821 142.273 139.407 143.398 140.563C144.539 141.704 146.117 142.274 148.133 142.274C149.805 142.274 151.336 142.102 152.727 141.759C154.117 141.415 155.547 140.899 157.016 140.212V145.743C155.719 146.384 154.359 146.852 152.938 147.149C151.531 147.446 149.82 147.594 147.805 147.594C145.18 147.594 142.852 147.11 140.82 146.141C138.805 145.173 137.219 143.696 136.062 141.712C134.922 139.727 134.352 137.227 134.352 134.212C134.352 131.149 134.867 128.602 135.898 126.571C136.945 124.524 138.398 122.993 140.258 121.977C142.117 120.946 144.281 120.43 146.75 120.43ZM146.797 125.516C145.406 125.516 144.25 125.962 143.328 126.852C142.422 127.743 141.898 129.141 141.758 131.048H151.789C151.773 129.985 151.578 129.04 151.203 128.212C150.844 127.384 150.297 126.727 149.562 126.243C148.844 125.759 147.922 125.516 146.797 125.516Z" fill="#8E0B37"/>
<circle cx="112" cy="32.1257" r="10" fill="#7BCDE9" stroke="#161326" stroke-width="4"/>
<circle cx="144" cy="32.1257" r="10" fill="#7BCDE9" stroke="#161326" stroke-width="4"/>
<circle cx="192" cy="280.126" r="10" fill="#7BCDE9" stroke="#161326" stroke-width="4"/>
<path d="M222.84 285.423C222.84 286.274 222.633 286.993 222.219 287.579C221.805 288.165 221.199 288.61 220.402 288.915C219.613 289.212 218.645 289.36 217.496 289.36C216.59 289.36 215.809 289.294 215.152 289.161C214.504 289.036 213.891 288.841 213.312 288.575V286.196C213.93 286.485 214.621 286.735 215.387 286.946C216.16 287.157 216.891 287.262 217.578 287.262C218.484 287.262 219.137 287.122 219.535 286.841C219.934 286.552 220.133 286.169 220.133 285.692C220.133 285.411 220.051 285.161 219.887 284.942C219.73 284.716 219.434 284.485 218.996 284.251C218.566 284.009 217.934 283.719 217.098 283.384C216.277 283.055 215.586 282.727 215.023 282.399C214.461 282.071 214.035 281.677 213.746 281.216C213.457 280.747 213.312 280.149 213.312 279.423C213.312 278.274 213.766 277.403 214.672 276.809C215.586 276.208 216.793 275.907 218.293 275.907C219.09 275.907 219.84 275.989 220.543 276.153C221.254 276.309 221.949 276.54 222.629 276.844L221.762 278.919C221.176 278.661 220.586 278.45 219.992 278.286C219.406 278.114 218.809 278.028 218.199 278.028C217.488 278.028 216.945 278.137 216.57 278.356C216.203 278.575 216.02 278.887 216.02 279.294C216.02 279.598 216.109 279.856 216.289 280.067C216.469 280.278 216.777 280.489 217.215 280.7C217.66 280.911 218.277 281.173 219.066 281.485C219.84 281.782 220.508 282.094 221.07 282.423C221.641 282.743 222.078 283.137 222.383 283.606C222.688 284.075 222.84 284.68 222.84 285.423Z" fill="#161326"/>
<g clip-path="url(#clip1_179_1759)">
<path d="M179.96 195.96C179.96 187.124 187.124 179.96 195.96 179.96C204.797 179.96 211.96 187.124 211.96 195.96C211.96 204.797 204.797 211.96 195.96 211.96C187.124 211.96 179.96 204.797 179.96 195.96Z" fill="white"/>
<path d="M198.269 204.96H195.503V193.933C195.503 193.566 195.507 193.199 195.515 192.832C195.523 192.464 195.531 192.105 195.539 191.753C195.554 191.402 195.574 191.066 195.597 190.746C195.433 190.925 195.23 191.121 194.988 191.332C194.753 191.542 194.503 191.761 194.238 191.988L192.269 193.558L190.886 191.812L195.972 187.828H198.269V204.96Z" fill="#161326"/>
</g>
</g>
<defs>
<clipPath id="clip0_179_1759">
<rect width="256" height="304" fill="white" transform="translate(0 0.125732)"/>
</clipPath>
<clipPath id="clip1_179_1759">
<rect width="384" height="32" fill="white" transform="translate(3.62744 -19) rotate(45)"/>
</clipPath>
</defs>
</svg>
