<svg width="896" height="504" viewBox="0 0 896 504" fill="none" xmlns="http://www.w3.org/2000/svg">
<rect width="896" height="504" fill="white"/>
<rect x="16" y="256" width="48" height="48" fill="#1A67C9" fill-opacity="0.12"/>
<rect x="16" y="256" width="48" height="48" stroke="white" stroke-width="2"/>
<rect x="16" y="304" width="48" height="48" fill="#1A67C9" fill-opacity="0.12"/>
<rect x="16" y="304" width="48" height="48" stroke="white" stroke-width="2"/>
<rect x="16" y="160" width="48" height="48" fill="#1A67C9" fill-opacity="0.12"/>
<rect x="16" y="160" width="48" height="48" stroke="white" stroke-width="2"/>
<rect x="16" y="112" width="48" height="48" fill="#1A67C9" fill-opacity="0.12"/>
<rect x="16" y="112" width="48" height="48" stroke="white" stroke-width="2"/>
<rect x="832" y="208" width="48" height="48" fill="#8E0B37" fill-opacity="0.12"/>
<rect x="832" y="208" width="48" height="48" stroke="white" stroke-width="2"/>
<rect x="832" y="304" width="48" height="48" fill="#8E0B37" fill-opacity="0.12"/>
<rect x="832" y="304" width="48" height="48" stroke="white" stroke-width="2"/>
<rect x="832" y="112" width="48" height="48" fill="#8E0B37" fill-opacity="0.12"/>
<rect x="832" y="112" width="48" height="48" stroke="white" stroke-width="2"/>
<rect x="832" y="160" width="48" height="48" fill="#8E0B37" fill-opacity="0.12"/>
<rect x="832" y="160" width="48" height="48" stroke="white" stroke-width="2"/>
<rect x="832" y="256" width="48" height="48" fill="#8E0B37" fill-opacity="0.12"/>
<rect x="832" y="256" width="48" height="48" stroke="white" stroke-width="2"/>
<rect x="832" y="64" width="48" height="48" fill="#8E0B37" fill-opacity="0.12"/>
<rect x="832" y="64" width="48" height="48" stroke="white" stroke-width="2"/>
<rect x="64" y="64" width="48" height="48" fill="#942E27" fill-opacity="0.12"/>
<rect x="64" y="64" width="48" height="48" stroke="white" stroke-width="2"/>
<rect x="64" y="112" width="48" height="48" fill="#942E27" fill-opacity="0.12"/>
<rect x="64" y="112" width="48" height="48" stroke="white" stroke-width="2"/>
<rect x="64" y="160" width="48" height="48" fill="#942E27" fill-opacity="0.12"/>
<rect x="64" y="160" width="48" height="48" stroke="white" stroke-width="2"/>
<rect x="64" y="208" width="48" height="48" fill="#942E27" fill-opacity="0.12"/>
<rect x="64" y="208" width="48" height="48" stroke="white" stroke-width="2"/>
<rect x="64" y="256" width="48" height="48" fill="#942E27" fill-opacity="0.12"/>
<rect x="64" y="256" width="48" height="48" stroke="white" stroke-width="2"/>
<rect x="64" y="304" width="48" height="48" fill="#942E27" fill-opacity="0.12"/>
<rect x="64" y="304" width="48" height="48" stroke="white" stroke-width="2"/>
<rect x="592" y="64" width="48" height="48" fill="#8E6310" fill-opacity="0.12"/>
<rect x="592" y="64" width="48" height="48" stroke="white" stroke-width="2"/>
<rect x="592" y="112" width="48" height="48" fill="#17804B" fill-opacity="0.12"/>
<rect x="592" y="112" width="48" height="48" stroke="white" stroke-width="2"/>
<rect x="592" y="160" width="48" height="48" fill="#17804B" fill-opacity="0.12"/>
<rect x="592" y="160" width="48" height="48" stroke="white" stroke-width="2"/>
<rect x="592" y="208" width="48" height="48" fill="#17804B" fill-opacity="0.12"/>
<rect x="592" y="208" width="48" height="48" stroke="white" stroke-width="2"/>
<rect x="592" y="256" width="48" height="48" fill="#17804B" fill-opacity="0.12"/>
<rect x="592" y="256" width="48" height="48" stroke="white" stroke-width="2"/>
<rect x="592" y="304" width="48" height="48" fill="#17804B" fill-opacity="0.12"/>
<rect x="592" y="304" width="48" height="48" stroke="white" stroke-width="2"/>
<rect x="640" y="64" width="48" height="48" fill="#00998C" fill-opacity="0.12"/>
<rect x="640" y="64" width="48" height="48" stroke="white" stroke-width="2"/>
<rect x="640" y="112" width="48" height="48" fill="#8E6310" fill-opacity="0.12"/>
<rect x="640" y="112" width="48" height="48" stroke="white" stroke-width="2"/>
<rect x="640" y="160" width="48" height="48" fill="#8E6310" fill-opacity="0.12"/>
<rect x="640" y="160" width="48" height="48" stroke="white" stroke-width="2"/>
<rect x="640" y="208" width="48" height="48" fill="#17804B" fill-opacity="0.12"/>
<rect x="640" y="208" width="48" height="48" stroke="white" stroke-width="2"/>
<rect x="640" y="256" width="48" height="48" fill="#17804B" fill-opacity="0.12"/>
<rect x="640" y="256" width="48" height="48" stroke="white" stroke-width="2"/>
<rect x="640" y="304" width="48" height="48" fill="#17804B" fill-opacity="0.12"/>
<rect x="640" y="304" width="48" height="48" stroke="white" stroke-width="2"/>
<rect x="688" y="64" width="48" height="48" fill="#00998C" fill-opacity="0.12"/>
<rect x="688" y="64" width="48" height="48" stroke="white" stroke-width="2"/>
<rect x="688" y="112" width="48" height="48" fill="#00998C" fill-opacity="0.12"/>
<rect x="688" y="112" width="48" height="48" stroke="white" stroke-width="2"/>
<rect x="688" y="160" width="48" height="48" fill="#8E6310" fill-opacity="0.12"/>
<rect x="688" y="160" width="48" height="48" stroke="white" stroke-width="2"/>
<rect x="688" y="208" width="48" height="48" fill="#8E6310" fill-opacity="0.12"/>
<rect x="688" y="208" width="48" height="48" stroke="white" stroke-width="2"/>
<rect x="688" y="256" width="48" height="48" fill="#17804B" fill-opacity="0.12"/>
<rect x="688" y="256" width="48" height="48" stroke="white" stroke-width="2"/>
<rect x="688" y="304" width="48" height="48" fill="#17804B" fill-opacity="0.12"/>
<rect x="688" y="304" width="48" height="48" stroke="white" stroke-width="2"/>
<rect x="736" y="64" width="48" height="48" fill="#00998C" fill-opacity="0.12"/>
<rect x="736" y="64" width="48" height="48" stroke="white" stroke-width="2"/>
<rect x="736" y="112" width="48" height="48" fill="#00998C" fill-opacity="0.12"/>
<rect x="736" y="112" width="48" height="48" stroke="white" stroke-width="2"/>
<rect x="736" y="160" width="48" height="48" fill="#00998C" fill-opacity="0.12"/>
<rect x="736" y="160" width="48" height="48" stroke="white" stroke-width="2"/>
<rect x="736" y="208" width="48" height="48" fill="#8E6310" fill-opacity="0.12"/>
<rect x="736" y="208" width="48" height="48" stroke="white" stroke-width="2"/>
<rect x="736" y="256" width="48" height="48" fill="#8E6310" fill-opacity="0.12"/>
<rect x="736" y="256" width="48" height="48" stroke="white" stroke-width="2"/>
<rect x="736" y="304" width="48" height="48" fill="#17804B" fill-opacity="0.12"/>
<rect x="736" y="304" width="48" height="48" stroke="white" stroke-width="2"/>
<rect x="112" y="160" width="48" height="48" fill="#641B98" fill-opacity="0.12"/>
<rect x="112" y="160" width="48" height="48" stroke="white" stroke-width="2"/>
<rect x="112" y="208" width="48" height="48" fill="#641B98" fill-opacity="0.12"/>
<rect x="112" y="208" width="48" height="48" stroke="white" stroke-width="2"/>
<rect x="112" y="384" width="48" height="48" fill="#175E82" fill-opacity="0.12"/>
<rect x="112" y="384" width="48" height="48" stroke="white" stroke-width="2"/>
<rect x="160" y="384" width="48" height="48" fill="#175E82" fill-opacity="0.12"/>
<rect x="160" y="384" width="48" height="48" stroke="white" stroke-width="2"/>
<rect x="208" y="384" width="48" height="48" fill="#175E82" fill-opacity="0.12"/>
<rect x="208" y="384" width="48" height="48" stroke="white" stroke-width="2"/>
<rect x="256" y="384" width="48" height="48" fill="#175E82" fill-opacity="0.12"/>
<rect x="256" y="384" width="48" height="48" stroke="white" stroke-width="2"/>
<rect x="304" y="384" width="48" height="48" fill="#175E82" fill-opacity="0.12"/>
<rect x="304" y="384" width="48" height="48" stroke="white" stroke-width="2"/>
<rect x="352" y="384" width="48" height="48" fill="#175E82" fill-opacity="0.12"/>
<rect x="352" y="384" width="48" height="48" stroke="white" stroke-width="2"/>
<rect x="400" y="384" width="48" height="48" fill="#175E82" fill-opacity="0.12"/>
<rect x="400" y="384" width="48" height="48" stroke="white" stroke-width="2"/>
<rect x="448" y="384" width="48" height="48" fill="#175E82" fill-opacity="0.12"/>
<rect x="448" y="384" width="48" height="48" stroke="white" stroke-width="2"/>
<rect x="496" y="384" width="48" height="48" fill="#175E82" fill-opacity="0.12"/>
<rect x="496" y="384" width="48" height="48" stroke="white" stroke-width="2"/>
<rect x="544" y="384" width="48" height="48" fill="#175E82" fill-opacity="0.12"/>
<rect x="544" y="384" width="48" height="48" stroke="white" stroke-width="2"/>
<rect x="592" y="384" width="48" height="48" fill="#175E82" fill-opacity="0.12"/>
<rect x="592" y="384" width="48" height="48" stroke="white" stroke-width="2"/>
<rect x="640" y="384" width="48" height="48" fill="#175E82" fill-opacity="0.12"/>
<rect x="640" y="384" width="48" height="48" stroke="white" stroke-width="2"/>
<rect x="688" y="384" width="48" height="48" fill="#175E82" fill-opacity="0.12"/>
<rect x="688" y="384" width="48" height="48" stroke="white" stroke-width="2"/>
<rect x="736" y="384" width="48" height="48" fill="#175E82" fill-opacity="0.12"/>
<rect x="736" y="384" width="48" height="48" stroke="white" stroke-width="2"/>
<rect x="784" y="384" width="48" height="48" fill="#175E82" fill-opacity="0.12"/>
<rect x="784" y="384" width="48" height="48" stroke="white" stroke-width="2"/>
<rect x="208" y="432" width="48" height="48" fill="#81314C" fill-opacity="0.12"/>
<rect x="208" y="432" width="48" height="48" stroke="white" stroke-width="2"/>
<rect x="256" y="432" width="48" height="48" fill="#81314C" fill-opacity="0.12"/>
<rect x="256" y="432" width="48" height="48" stroke="white" stroke-width="2"/>
<rect x="304" y="432" width="48" height="48" fill="#81314C" fill-opacity="0.12"/>
<rect x="304" y="432" width="48" height="48" stroke="white" stroke-width="2"/>
<rect x="352" y="432" width="48" height="48" fill="#81314C" fill-opacity="0.12"/>
<rect x="352" y="432" width="48" height="48" stroke="white" stroke-width="2"/>
<rect x="400" y="432" width="48" height="48" fill="#81314C" fill-opacity="0.12"/>
<rect x="400" y="432" width="48" height="48" stroke="white" stroke-width="2"/>
<rect x="448" y="432" width="48" height="48" fill="#81314C" fill-opacity="0.12"/>
<rect x="448" y="432" width="48" height="48" stroke="white" stroke-width="2"/>
<rect x="496" y="432" width="48" height="48" fill="#81314C" fill-opacity="0.12"/>
<rect x="496" y="432" width="48" height="48" stroke="white" stroke-width="2"/>
<rect x="544" y="432" width="48" height="48" fill="#81314C" fill-opacity="0.12"/>
<rect x="544" y="432" width="48" height="48" stroke="white" stroke-width="2"/>
<rect x="592" y="432" width="48" height="48" fill="#81314C" fill-opacity="0.12"/>
<rect x="592" y="432" width="48" height="48" stroke="white" stroke-width="2"/>
<rect x="640" y="432" width="48" height="48" fill="#81314C" fill-opacity="0.12"/>
<rect x="640" y="432" width="48" height="48" stroke="white" stroke-width="2"/>
<rect x="688" y="432" width="48" height="48" fill="#81314C" fill-opacity="0.12"/>
<rect x="688" y="432" width="48" height="48" stroke="white" stroke-width="2"/>
<rect x="736" y="432" width="48" height="48" fill="#81314C" fill-opacity="0.12"/>
<rect x="736" y="432" width="48" height="48" stroke="white" stroke-width="2"/>
<rect x="784" y="432" width="48" height="48" fill="#81314C" fill-opacity="0.12"/>
<rect x="784" y="432" width="48" height="48" stroke="white" stroke-width="2"/>
<rect x="112" y="432" width="48" height="48" fill="#81314C" fill-opacity="0.12"/>
<rect x="112" y="432" width="48" height="48" stroke="white" stroke-width="2"/>
<rect x="160" y="160" width="48" height="48" fill="#641B98" fill-opacity="0.12"/>
<rect x="160" y="160" width="48" height="48" stroke="white" stroke-width="2"/>
<rect x="160" y="208" width="48" height="48" fill="#641B98" fill-opacity="0.12"/>
<rect x="160" y="208" width="48" height="48" stroke="white" stroke-width="2"/>
<rect x="160" y="256" width="48" height="48" fill="#641B98" fill-opacity="0.12"/>
<rect x="160" y="256" width="48" height="48" stroke="white" stroke-width="2"/>
<rect x="160" y="304" width="48" height="48" fill="#641B98" fill-opacity="0.12"/>
<rect x="160" y="304" width="48" height="48" stroke="white" stroke-width="2"/>
<rect x="208" y="160" width="48" height="48" fill="#641B98" fill-opacity="0.12"/>
<rect x="208" y="160" width="48" height="48" stroke="white" stroke-width="2"/>
<rect x="208" y="208" width="48" height="48" fill="#641B98" fill-opacity="0.12"/>
<rect x="208" y="208" width="48" height="48" stroke="white" stroke-width="2"/>
<rect x="208" y="256" width="48" height="48" fill="#641B98" fill-opacity="0.12"/>
<rect x="208" y="256" width="48" height="48" stroke="white" stroke-width="2"/>
<rect x="208" y="304" width="48" height="48" fill="#641B98" fill-opacity="0.12"/>
<rect x="208" y="304" width="48" height="48" stroke="white" stroke-width="2"/>
<rect x="256" y="160" width="48" height="48" fill="#641B98" fill-opacity="0.12"/>
<rect x="256" y="160" width="48" height="48" stroke="white" stroke-width="2"/>
<rect x="256" y="208" width="48" height="48" fill="#641B98" fill-opacity="0.12"/>
<rect x="256" y="208" width="48" height="48" stroke="white" stroke-width="2"/>
<rect x="256" y="256" width="48" height="48" fill="#641B98" fill-opacity="0.12"/>
<rect x="256" y="256" width="48" height="48" stroke="white" stroke-width="2"/>
<rect x="256" y="304" width="48" height="48" fill="#641B98" fill-opacity="0.12"/>
<rect x="256" y="304" width="48" height="48" stroke="white" stroke-width="2"/>
<rect x="304" y="160" width="48" height="48" fill="#641B98" fill-opacity="0.12"/>
<rect x="304" y="160" width="48" height="48" stroke="white" stroke-width="2"/>
<rect x="304" y="208" width="48" height="48" fill="#641B98" fill-opacity="0.12"/>
<rect x="304" y="208" width="48" height="48" stroke="white" stroke-width="2"/>
<rect x="304" y="256" width="48" height="48" fill="#641B98" fill-opacity="0.12"/>
<rect x="304" y="256" width="48" height="48" stroke="white" stroke-width="2"/>
<rect x="304" y="304" width="48" height="48" fill="#641B98" fill-opacity="0.12"/>
<rect x="304" y="304" width="48" height="48" stroke="white" stroke-width="2"/>
<rect x="352" y="160" width="48" height="48" fill="#641B98" fill-opacity="0.12"/>
<rect x="352" y="160" width="48" height="48" stroke="white" stroke-width="2"/>
<rect x="352" y="208" width="48" height="48" fill="#641B98" fill-opacity="0.12"/>
<rect x="352" y="208" width="48" height="48" stroke="white" stroke-width="2"/>
<rect x="352" y="256" width="48" height="48" fill="#641B98" fill-opacity="0.12"/>
<rect x="352" y="256" width="48" height="48" stroke="white" stroke-width="2"/>
<rect x="400" y="160" width="48" height="48" fill="#641B98" fill-opacity="0.12"/>
<rect x="400" y="160" width="48" height="48" stroke="white" stroke-width="2"/>
<rect x="400" y="208" width="48" height="48" fill="#641B98" fill-opacity="0.12"/>
<rect x="400" y="208" width="48" height="48" stroke="white" stroke-width="2"/>
<rect x="400" y="256" width="48" height="48" fill="#641B98" fill-opacity="0.12"/>
<rect x="400" y="256" width="48" height="48" stroke="white" stroke-width="2"/>
<rect x="448" y="160" width="48" height="48" fill="#641B98" fill-opacity="0.12"/>
<rect x="448" y="160" width="48" height="48" stroke="white" stroke-width="2"/>
<rect x="448" y="208" width="48" height="48" fill="#641B98" fill-opacity="0.12"/>
<rect x="448" y="208" width="48" height="48" stroke="white" stroke-width="2"/>
<rect x="448" y="256" width="48" height="48" fill="#641B98" fill-opacity="0.12"/>
<rect x="448" y="256" width="48" height="48" stroke="white" stroke-width="2"/>
<rect x="496" y="160" width="48" height="48" fill="#641B98" fill-opacity="0.12"/>
<rect x="496" y="160" width="48" height="48" stroke="white" stroke-width="2"/>
<rect x="496" y="208" width="48" height="48" fill="#641B98" fill-opacity="0.12"/>
<rect x="496" y="208" width="48" height="48" stroke="white" stroke-width="2"/>
<rect x="496" y="256" width="48" height="48" fill="#641B98" fill-opacity="0.12"/>
<rect x="496" y="256" width="48" height="48" stroke="white" stroke-width="2"/>
<rect x="544" y="160" width="48" height="48" fill="#641B98" fill-opacity="0.12"/>
<rect x="544" y="160" width="48" height="48" stroke="white" stroke-width="2"/>
<rect x="544" y="208" width="48" height="48" fill="#641B98" fill-opacity="0.12"/>
<rect x="544" y="208" width="48" height="48" stroke="white" stroke-width="2"/>
<rect x="544" y="256" width="48" height="48" fill="#641B98" fill-opacity="0.12"/>
<rect x="544" y="256" width="48" height="48" stroke="white" stroke-width="2"/>
<rect x="400" y="304" width="48" height="48" fill="#641B98" fill-opacity="0.12"/>
<rect x="400" y="304" width="48" height="48" stroke="white" stroke-width="2"/>
<rect x="448" y="304" width="48" height="48" fill="#641B98" fill-opacity="0.12"/>
<rect x="448" y="304" width="48" height="48" stroke="white" stroke-width="2"/>
<rect x="496" y="304" width="48" height="48" fill="#641B98" fill-opacity="0.12"/>
<rect x="496" y="304" width="48" height="48" stroke="white" stroke-width="2"/>
<rect x="544" y="304" width="48" height="48" fill="#641B98" fill-opacity="0.12"/>
<rect x="544" y="304" width="48" height="48" stroke="white" stroke-width="2"/>
<rect x="352" y="304" width="48" height="48" fill="#641B98" fill-opacity="0.12"/>
<rect x="352" y="304" width="48" height="48" stroke="white" stroke-width="2"/>
<rect x="160" y="432" width="48" height="48" fill="#81314C" fill-opacity="0.12"/>
<rect x="160" y="432" width="48" height="48" stroke="white" stroke-width="2"/>
<rect x="16" y="208" width="48" height="48" fill="#1A67C9" fill-opacity="0.12"/>
<rect x="16" y="208" width="48" height="48" stroke="white" stroke-width="2"/>
<rect x="784" y="112" width="48" height="48" fill="#131B6C" fill-opacity="0.12"/>
<rect x="784" y="112" width="48" height="48" stroke="white" stroke-width="2"/>
<rect x="784" y="160" width="48" height="48" fill="#131B6C" fill-opacity="0.12"/>
<rect x="784" y="160" width="48" height="48" stroke="white" stroke-width="2"/>
<rect x="784" y="208" width="48" height="48" fill="#131B6C" fill-opacity="0.12"/>
<rect x="784" y="208" width="48" height="48" stroke="white" stroke-width="2"/>
<rect x="784" y="256" width="48" height="48" fill="#131B6C" fill-opacity="0.12"/>
<rect x="784" y="256" width="48" height="48" stroke="white" stroke-width="2"/>
<rect x="784" y="304" width="48" height="48" fill="#131B6C" fill-opacity="0.12"/>
<rect x="784" y="304" width="48" height="48" stroke="white" stroke-width="2"/>
<rect x="112.5" y="256.5" width="47" height="47" fill="#175E82" fill-opacity="0.12"/>
<rect x="112.5" y="256.5" width="47" height="47" stroke="white"/>
<rect x="112.5" y="304.5" width="47" height="47" fill="#81314C" fill-opacity="0.12"/>
<rect x="112.5" y="304.5" width="47" height="47" stroke="white"/>
<rect x="16" y="16" width="48" height="48" fill="#00998C" fill-opacity="0.12"/>
<rect x="16" y="16" width="48" height="48" stroke="white" stroke-width="2"/>
<rect x="832" y="16" width="48" height="48" fill="#8E0B37" fill-opacity="0.12"/>
<rect x="832" y="16" width="48" height="48" stroke="white" stroke-width="2"/>
<rect x="14.5" y="62.5" width="51" height="51" stroke="#1A67C9" stroke-width="3"/>
<rect x="16" y="64" width="48" height="48" fill="#1A67C9" fill-opacity="0.12"/>
<rect x="16" y="64" width="48" height="48" stroke="white" stroke-width="2"/>
<path d="M41.9336 71.043C41.9336 71.333 41.875 71.585 41.7578 71.7988C41.6406 72.0127 41.4795 72.1885 41.2744 72.3262C41.0723 72.4609 40.8379 72.5576 40.5713 72.6162V72.647C41.084 72.7114 41.4707 72.8726 41.7314 73.1304C41.9951 73.3882 42.127 73.7295 42.127 74.1543C42.127 74.5264 42.0376 74.8589 41.8589 75.1519C41.6802 75.4419 41.4062 75.6704 41.0371 75.8374C40.668 76.0044 40.1934 76.0879 39.6133 76.0879C39.2646 76.0879 38.9409 76.0601 38.6421 76.0044C38.3462 75.9487 38.0649 75.8594 37.7983 75.7363V74.8179C38.0708 74.9526 38.3608 75.0566 38.6685 75.1299C38.9761 75.2031 39.2676 75.2397 39.543 75.2397C40.0791 75.2397 40.4614 75.1401 40.6899 74.9409C40.9185 74.7388 41.0327 74.4604 41.0327 74.106C41.0327 73.8774 40.9727 73.6899 40.8525 73.5435C40.7354 73.397 40.5522 73.2871 40.3032 73.2139C40.0571 73.1406 39.7393 73.104 39.3496 73.104H38.7827V72.2734H39.354C39.7261 72.2734 40.0249 72.2295 40.2505 72.1416C40.4761 72.0508 40.6387 71.9263 40.7383 71.7681C40.8408 71.6099 40.8921 71.4253 40.8921 71.2144C40.8921 70.939 40.8027 70.7251 40.624 70.5728C40.4453 70.4175 40.1802 70.3398 39.8286 70.3398C39.6118 70.3398 39.4141 70.3647 39.2354 70.4146C39.0596 70.4644 38.897 70.5273 38.7476 70.6035C38.5981 70.6797 38.4561 70.7617 38.3213 70.8496L37.8247 70.1333C38.0679 69.9517 38.3579 69.7979 38.6948 69.6719C39.0317 69.5459 39.4243 69.4829 39.8726 69.4829C40.5317 69.4829 41.04 69.625 41.3975 69.9092C41.7549 70.1904 41.9336 70.5684 41.9336 71.043Z" fill="#1A67C9"/>
<path d="M33.7773 96.5V83.6504H36.502V94.25H41.7139V96.5H33.7773ZM46.4248 86.6738V96.5H43.7441V86.6738H46.4248ZM45.0889 82.8242C45.4873 82.8242 45.8301 82.918 46.1172 83.1055C46.4043 83.2871 46.5479 83.6299 46.5479 84.1338C46.5479 84.6318 46.4043 84.9775 46.1172 85.1709C45.8301 85.3584 45.4873 85.4521 45.0889 85.4521C44.6846 85.4521 44.3389 85.3584 44.0518 85.1709C43.7705 84.9775 43.6299 84.6318 43.6299 84.1338C43.6299 83.6299 43.7705 83.2871 44.0518 83.1055C44.3389 82.918 44.6846 82.8242 45.0889 82.8242Z" fill="#1A67C9"/>
<path d="M34.7852 107L36.4668 103.32H34.2432V102.717H37.208V103.188L35.5264 107H34.7852ZM37.8525 106.637C37.8525 106.477 37.8936 106.364 37.9756 106.3C38.0596 106.233 38.1611 106.2 38.2803 106.2C38.3994 106.2 38.501 106.233 38.585 106.3C38.6709 106.364 38.7139 106.477 38.7139 106.637C38.7139 106.793 38.6709 106.906 38.585 106.977C38.501 107.045 38.3994 107.079 38.2803 107.079C38.1611 107.079 38.0596 107.045 37.9756 106.977C37.8936 106.906 37.8525 106.793 37.8525 106.637ZM42.2764 104.855C42.2764 105.201 42.249 105.511 42.1943 105.784C42.1416 106.056 42.0576 106.286 41.9424 106.476C41.8271 106.665 41.6768 106.81 41.4912 106.909C41.3057 107.009 41.0811 107.059 40.8174 107.059C40.4873 107.059 40.2148 106.972 40 106.798C39.7852 106.622 39.626 106.37 39.5225 106.042C39.4189 105.712 39.3672 105.316 39.3672 104.855C39.3672 104.395 39.4141 104 39.5078 103.672C39.6035 103.342 39.7578 103.089 39.9707 102.913C40.1836 102.737 40.4658 102.649 40.8174 102.649C41.1494 102.649 41.4229 102.737 41.6377 102.913C41.8545 103.087 42.0146 103.339 42.1182 103.669C42.2236 103.997 42.2764 104.393 42.2764 104.855ZM40.0615 104.855C40.0615 105.217 40.085 105.519 40.1318 105.761C40.1807 106.003 40.2607 106.185 40.3721 106.306C40.4834 106.425 40.6318 106.484 40.8174 106.484C41.0029 106.484 41.1514 106.425 41.2627 106.306C41.374 106.187 41.4541 106.006 41.5029 105.764C41.5537 105.521 41.5791 105.219 41.5791 104.855C41.5791 104.496 41.5547 104.195 41.5059 103.953C41.457 103.711 41.377 103.529 41.2656 103.408C41.1543 103.285 41.0049 103.224 40.8174 103.224C40.6299 103.224 40.4805 103.285 40.3691 103.408C40.2598 103.529 40.1807 103.711 40.1318 103.953C40.085 104.195 40.0615 104.496 40.0615 104.855ZM45.71 104.855C45.71 105.201 45.6826 105.511 45.6279 105.784C45.5752 106.056 45.4912 106.286 45.376 106.476C45.2607 106.665 45.1104 106.81 44.9248 106.909C44.7393 107.009 44.5146 107.059 44.251 107.059C43.9209 107.059 43.6484 106.972 43.4336 106.798C43.2188 106.622 43.0596 106.37 42.9561 106.042C42.8525 105.712 42.8008 105.316 42.8008 104.855C42.8008 104.395 42.8477 104 42.9414 103.672C43.0371 103.342 43.1914 103.089 43.4043 102.913C43.6172 102.737 43.8994 102.649 44.251 102.649C44.583 102.649 44.8564 102.737 45.0713 102.913C45.2881 103.087 45.4482 103.339 45.5518 103.669C45.6572 103.997 45.71 104.393 45.71 104.855ZM43.4951 104.855C43.4951 105.217 43.5186 105.519 43.5654 105.761C43.6143 106.003 43.6943 106.185 43.8057 106.306C43.917 106.425 44.0654 106.484 44.251 106.484C44.4365 106.484 44.585 106.425 44.6963 106.306C44.8076 106.187 44.8877 106.006 44.9365 105.764C44.9873 105.521 45.0127 105.219 45.0127 104.855C45.0127 104.496 44.9883 104.195 44.9395 103.953C44.8906 103.711 44.8105 103.529 44.6992 103.408C44.5879 103.285 44.4385 103.224 44.251 103.224C44.0635 103.224 43.9141 103.285 43.8027 103.408C43.6934 103.529 43.6143 103.711 43.5654 103.953C43.5186 104.195 43.4951 104.496 43.4951 104.855Z" fill="#1A67C9"/>
<rect x="782.5" y="62.5" width="51" height="51" stroke="#131B6C" stroke-width="3"/>
<rect x="784" y="64" width="48" height="48" fill="#131B6C" fill-opacity="0.12"/>
<rect x="784" y="64" width="48" height="48" stroke="white" stroke-width="2"/>
<path d="M810.171 72.313C810.171 72.6938 810.143 73.0674 810.087 73.4336C810.035 73.7998 809.941 74.1426 809.806 74.4619C809.674 74.7812 809.491 75.064 809.257 75.3101C809.025 75.5532 808.732 75.7437 808.378 75.8813C808.023 76.019 807.596 76.0879 807.095 76.0879C806.969 76.0879 806.822 76.0806 806.655 76.0659C806.491 76.0542 806.356 76.0366 806.251 76.0132V75.1519C806.362 75.1841 806.487 75.2104 806.625 75.231C806.765 75.2485 806.904 75.2573 807.042 75.2573C807.584 75.2573 808.006 75.1562 808.308 74.9541C808.612 74.752 808.828 74.4736 808.954 74.1191C809.083 73.7646 809.156 73.3618 809.173 72.9106H809.121C809.036 73.0513 808.929 73.1802 808.8 73.2974C808.671 73.4116 808.511 73.5039 808.321 73.5742C808.13 73.6416 807.899 73.6753 807.626 73.6753C807.257 73.6753 806.935 73.5977 806.66 73.4424C806.387 73.2871 806.175 73.0615 806.022 72.7656C805.873 72.4668 805.798 72.1079 805.798 71.689C805.798 71.2349 805.885 70.8438 806.058 70.5156C806.23 70.1875 806.475 69.9355 806.792 69.7598C807.108 69.5811 807.48 69.4917 807.908 69.4917C808.23 69.4917 808.527 69.5503 808.8 69.6675C809.075 69.7817 809.315 69.9575 809.521 70.1948C809.726 70.4292 809.885 70.7236 810 71.0781C810.114 71.4297 810.171 71.8413 810.171 72.313ZM807.921 70.3442C807.596 70.3442 807.331 70.4541 807.125 70.6738C806.92 70.8906 806.818 71.2246 806.818 71.6758C806.818 72.042 806.906 72.332 807.082 72.5459C807.257 72.7598 807.527 72.8667 807.89 72.8667C808.142 72.8667 808.359 72.8154 808.541 72.7129C808.725 72.6074 808.867 72.4741 808.967 72.313C809.069 72.1519 809.121 71.9878 809.121 71.8208C809.121 71.6479 809.096 71.4751 809.046 71.3022C808.999 71.1294 808.926 70.9712 808.826 70.8276C808.727 70.6841 808.601 70.5684 808.448 70.4805C808.299 70.3896 808.123 70.3442 807.921 70.3442Z" fill="#131B6C"/>
<path d="M807.358 96.5H804.678V83.6504H812.043V85.8828H807.358V89.1963H811.718V91.4199H807.358V96.5Z" fill="#131B6C"/>
<path d="M802.604 107H801.912V104.243C801.912 104.151 801.913 104.06 801.915 103.968C801.917 103.876 801.919 103.786 801.921 103.698C801.925 103.61 801.93 103.526 801.936 103.446C801.895 103.491 801.844 103.54 801.783 103.593C801.725 103.646 801.662 103.7 801.596 103.757L801.104 104.149L800.758 103.713L802.029 102.717H802.604V107ZM805.457 102.658C805.705 102.658 805.929 102.697 806.128 102.775C806.327 102.852 806.485 102.966 806.603 103.118C806.72 103.271 806.778 103.459 806.778 103.684C806.778 103.857 806.742 104.009 806.67 104.138C806.6 104.267 806.504 104.38 806.383 104.478C806.262 104.573 806.126 104.658 805.976 104.732C806.144 104.814 806.298 104.909 806.438 105.017C806.581 105.122 806.695 105.246 806.781 105.389C806.869 105.531 806.913 105.698 806.913 105.89C806.913 106.13 806.852 106.338 806.729 106.514C806.607 106.688 806.438 106.822 806.222 106.918C806.005 107.012 805.752 107.059 805.463 107.059C805.152 107.059 804.888 107.013 804.669 106.921C804.45 106.829 804.284 106.698 804.171 106.528C804.058 106.356 804.001 106.151 804.001 105.913C804.001 105.716 804.04 105.545 804.118 105.4C804.196 105.256 804.301 105.131 804.432 105.025C804.564 104.92 804.71 104.831 804.868 104.759C804.733 104.679 804.61 104.589 804.499 104.489C804.388 104.388 804.299 104.271 804.232 104.141C804.168 104.008 804.136 103.854 804.136 103.681C804.136 103.458 804.195 103.271 804.314 103.121C804.434 102.969 804.593 102.854 804.792 102.775C804.993 102.697 805.215 102.658 805.457 102.658ZM804.657 105.887C804.657 106.074 804.724 106.229 804.856 106.35C804.989 106.471 805.188 106.531 805.451 106.531C805.713 106.531 805.912 106.472 806.049 106.353C806.186 106.233 806.254 106.076 806.254 105.881C806.254 105.756 806.219 105.646 806.148 105.55C806.08 105.454 805.987 105.369 805.87 105.295C805.755 105.219 805.627 105.148 805.486 105.084L805.393 105.046C805.24 105.11 805.109 105.184 805 105.266C804.891 105.346 804.806 105.437 804.745 105.538C804.687 105.64 804.657 105.756 804.657 105.887ZM805.451 103.188C805.262 103.188 805.105 103.235 804.982 103.329C804.861 103.421 804.801 103.554 804.801 103.728C804.801 103.851 804.83 103.956 804.889 104.044C804.949 104.132 805.03 104.208 805.132 104.272C805.233 104.335 805.346 104.394 805.469 104.448C805.588 104.396 805.695 104.338 805.791 104.275C805.889 104.211 805.966 104.135 806.022 104.047C806.081 103.957 806.11 103.85 806.11 103.725C806.11 103.553 806.049 103.421 805.926 103.329C805.805 103.235 805.646 103.188 805.451 103.188ZM807.569 106.637C807.569 106.477 807.61 106.364 807.692 106.3C807.776 106.233 807.878 106.2 807.997 106.2C808.116 106.2 808.218 106.233 808.302 106.3C808.388 106.364 808.431 106.477 808.431 106.637C808.431 106.793 808.388 106.906 808.302 106.977C808.218 107.045 808.116 107.079 807.997 107.079C807.878 107.079 807.776 107.045 807.692 106.977C807.61 106.906 807.569 106.793 807.569 106.637ZM811.987 104.542C811.987 104.796 811.969 105.045 811.932 105.289C811.896 105.533 811.834 105.762 811.744 105.975C811.656 106.188 811.534 106.376 811.378 106.54C811.224 106.702 811.028 106.829 810.792 106.921C810.556 107.013 810.271 107.059 809.937 107.059C809.853 107.059 809.755 107.054 809.644 107.044C809.534 107.036 809.444 107.024 809.374 107.009V106.435C809.448 106.456 809.531 106.474 809.623 106.487C809.717 106.499 809.81 106.505 809.901 106.505C810.263 106.505 810.544 106.438 810.745 106.303C810.948 106.168 811.092 105.982 811.176 105.746C811.262 105.51 811.311 105.241 811.322 104.94H811.287C811.23 105.034 811.159 105.12 811.073 105.198C810.987 105.274 810.881 105.336 810.754 105.383C810.627 105.428 810.473 105.45 810.291 105.45C810.045 105.45 809.83 105.398 809.646 105.295C809.465 105.191 809.323 105.041 809.222 104.844C809.122 104.645 809.072 104.405 809.072 104.126C809.072 103.823 809.13 103.562 809.245 103.344C809.36 103.125 809.523 102.957 809.734 102.84C809.945 102.721 810.193 102.661 810.479 102.661C810.693 102.661 810.892 102.7 811.073 102.778C811.257 102.854 811.417 102.972 811.554 103.13C811.69 103.286 811.797 103.482 811.873 103.719C811.949 103.953 811.987 104.228 811.987 104.542ZM810.487 103.229C810.271 103.229 810.094 103.303 809.957 103.449C809.82 103.594 809.752 103.816 809.752 104.117C809.752 104.361 809.811 104.555 809.928 104.697C810.045 104.84 810.225 104.911 810.467 104.911C810.635 104.911 810.779 104.877 810.9 104.809C811.023 104.738 811.118 104.649 811.185 104.542C811.253 104.435 811.287 104.325 811.287 104.214C811.287 104.099 811.271 103.983 811.237 103.868C811.206 103.753 811.157 103.647 811.091 103.552C811.024 103.456 810.94 103.379 810.839 103.32C810.739 103.26 810.622 103.229 810.487 103.229ZM815.421 104.542C815.421 104.796 815.402 105.045 815.365 105.289C815.33 105.533 815.268 105.762 815.178 105.975C815.09 106.188 814.968 106.376 814.812 106.54C814.657 106.702 814.462 106.829 814.226 106.921C813.989 107.013 813.704 107.059 813.37 107.059C813.286 107.059 813.188 107.054 813.077 107.044C812.968 107.036 812.878 107.024 812.808 107.009V106.435C812.882 106.456 812.965 106.474 813.057 106.487C813.15 106.499 813.243 106.505 813.335 106.505C813.696 106.505 813.978 106.438 814.179 106.303C814.382 106.168 814.525 105.982 814.609 105.746C814.695 105.51 814.744 105.241 814.756 104.94H814.721C814.664 105.034 814.593 105.12 814.507 105.198C814.421 105.274 814.314 105.336 814.188 105.383C814.061 105.428 813.906 105.45 813.725 105.45C813.479 105.45 813.264 105.398 813.08 105.295C812.898 105.191 812.757 105.041 812.655 104.844C812.556 104.645 812.506 104.405 812.506 104.126C812.506 103.823 812.563 103.562 812.679 103.344C812.794 103.125 812.957 102.957 813.168 102.84C813.379 102.721 813.627 102.661 813.912 102.661C814.127 102.661 814.325 102.7 814.507 102.778C814.69 102.854 814.851 102.972 814.987 103.13C815.124 103.286 815.23 103.482 815.307 103.719C815.383 103.953 815.421 104.228 815.421 104.542ZM813.921 103.229C813.704 103.229 813.527 103.303 813.391 103.449C813.254 103.594 813.186 103.816 813.186 104.117C813.186 104.361 813.244 104.555 813.361 104.697C813.479 104.84 813.658 104.911 813.9 104.911C814.068 104.911 814.213 104.877 814.334 104.809C814.457 104.738 814.552 104.649 814.618 104.542C814.687 104.435 814.721 104.325 814.721 104.214C814.721 104.099 814.704 103.983 814.671 103.868C814.64 103.753 814.591 103.647 814.524 103.552C814.458 103.456 814.374 103.379 814.272 103.32C814.173 103.26 814.056 103.229 813.921 103.229Z" fill="#131B6C"/>
</svg>
