<svg width="384" height="432" viewBox="0 0 384 432" fill="none" xmlns="http://www.w3.org/2000/svg">
<rect width="384" height="432" fill="white"/>
<circle cx="192" cy="192" r="160" stroke="#161326" stroke-width="4"/>
<circle cx="192" cy="192" r="96" stroke="#161326" stroke-width="4"/>
<circle cx="192" cy="192" r="128" stroke="#161326" stroke-width="4"/>
<path d="M130 192C130 157.758 157.758 130 192 130C226.242 130 254 157.758 254 192C254 226.242 226.242 254 192 254C157.758 254 130 226.242 130 192Z" fill="#F8C863"/>
<path d="M130 192C130 157.758 157.758 130 192 130C226.242 130 254 157.758 254 192C254 226.242 226.242 254 192 254C157.758 254 130 226.242 130 192Z" stroke="black" stroke-width="4"/>
<path d="M188.227 182.289C186.836 182.289 185.602 182.562 184.523 183.109C183.461 183.641 182.562 184.414 181.828 185.43C181.109 186.445 180.562 187.672 180.188 189.109C179.812 190.547 179.625 192.164 179.625 193.961C179.625 196.383 179.922 198.453 180.516 200.172C181.125 201.875 182.062 203.18 183.328 204.086C184.594 204.977 186.227 205.422 188.227 205.422C189.617 205.422 191.008 205.266 192.398 204.953C193.805 204.641 195.328 204.195 196.969 203.617V209.711C195.453 210.336 193.961 210.781 192.492 211.047C191.023 211.328 189.375 211.469 187.547 211.469C184.016 211.469 181.109 210.742 178.828 209.289C176.562 207.82 174.883 205.773 173.789 203.148C172.695 200.508 172.148 197.43 172.148 193.914C172.148 191.32 172.5 188.945 173.203 186.789C173.906 184.633 174.938 182.766 176.297 181.188C177.656 179.609 179.336 178.391 181.336 177.531C183.336 176.672 185.633 176.242 188.227 176.242C189.93 176.242 191.633 176.461 193.336 176.898C195.055 177.32 196.695 177.906 198.258 178.656L195.914 184.562C194.633 183.953 193.344 183.422 192.047 182.969C190.75 182.516 189.477 182.289 188.227 182.289ZM210.867 211H203.719V174.531H210.867V211Z" fill="#161326"/>
<circle cx="244" cy="408" r="10" fill="#7BCDE9" stroke="black" stroke-width="4"/>
<path d="M274.84 413.297C274.84 414.148 274.633 414.867 274.219 415.453C273.805 416.039 273.199 416.484 272.402 416.789C271.613 417.086 270.645 417.234 269.496 417.234C268.59 417.234 267.809 417.168 267.152 417.035C266.504 416.91 265.891 416.715 265.312 416.449V414.07C265.93 414.359 266.621 414.609 267.387 414.82C268.16 415.031 268.891 415.137 269.578 415.137C270.484 415.137 271.137 414.996 271.535 414.715C271.934 414.426 272.133 414.043 272.133 413.566C272.133 413.285 272.051 413.035 271.887 412.816C271.73 412.59 271.434 412.359 270.996 412.125C270.566 411.883 269.934 411.594 269.098 411.258C268.277 410.93 267.586 410.602 267.023 410.273C266.461 409.945 266.035 409.551 265.746 409.09C265.457 408.621 265.312 408.023 265.312 407.297C265.312 406.148 265.766 405.277 266.672 404.684C267.586 404.082 268.793 403.781 270.293 403.781C271.09 403.781 271.84 403.863 272.543 404.027C273.254 404.184 273.949 404.414 274.629 404.719L273.762 406.793C273.176 406.535 272.586 406.324 271.992 406.16C271.406 405.988 270.809 405.902 270.199 405.902C269.488 405.902 268.945 406.012 268.57 406.23C268.203 406.449 268.02 406.762 268.02 407.168C268.02 407.473 268.109 407.73 268.289 407.941C268.469 408.152 268.777 408.363 269.215 408.574C269.66 408.785 270.277 409.047 271.066 409.359C271.84 409.656 272.508 409.969 273.07 410.297C273.641 410.617 274.078 411.012 274.383 411.48C274.688 411.949 274.84 412.555 274.84 413.297Z" fill="#161326"/>
<circle cx="320" cy="408" r="10" fill="#3FB872" stroke="black" stroke-width="4"/>
<path d="M347.148 403.781C348.688 403.781 349.922 404.344 350.852 405.469C351.789 406.594 352.258 408.266 352.258 410.484C352.258 411.953 352.039 413.191 351.602 414.199C351.172 415.199 350.566 415.957 349.785 416.473C349.012 416.98 348.109 417.234 347.078 417.234C346.422 417.234 345.852 417.148 345.367 416.977C344.883 416.805 344.469 416.582 344.125 416.309C343.781 416.027 343.492 415.723 343.258 415.395H343.094C343.133 415.707 343.168 416.055 343.199 416.438C343.238 416.812 343.258 417.156 343.258 417.469V422.754H340.492V404.027H342.742L343.129 405.82H343.258C343.5 405.453 343.793 405.113 344.137 404.801C344.488 404.488 344.91 404.242 345.402 404.062C345.902 403.875 346.484 403.781 347.148 403.781ZM346.41 406.031C345.652 406.031 345.043 406.184 344.582 406.488C344.129 406.785 343.797 407.234 343.586 407.836C343.383 408.438 343.273 409.191 343.258 410.098V410.484C343.258 411.445 343.355 412.262 343.551 412.934C343.754 413.598 344.086 414.105 344.547 414.457C345.016 414.801 345.648 414.973 346.445 414.973C347.117 414.973 347.672 414.789 348.109 414.422C348.555 414.055 348.887 413.531 349.105 412.852C349.324 412.172 349.434 411.371 349.434 410.449C349.434 409.051 349.184 407.965 348.684 407.191C348.191 406.418 347.434 406.031 346.41 406.031Z" fill="#161326"/>
<circle cx="176" cy="32" r="10" fill="#7BCDE9" stroke="black" stroke-width="4"/>
<circle cx="208" cy="32" r="10" fill="#7BCDE9" stroke="black" stroke-width="4"/>
<circle cx="176" cy="64" r="10" fill="#7BCDE9" stroke="black" stroke-width="4"/>
<circle cx="208" cy="64" r="10" fill="#7BCDE9" stroke="black" stroke-width="4"/>
<circle cx="176" cy="96" r="10" fill="#7BCDE9" stroke="black" stroke-width="4"/>
<circle cx="208" cy="96" r="10" fill="#7BCDE9" stroke="black" stroke-width="4"/>
<circle cx="176" cy="320" r="10" fill="#3FB872" stroke="black" stroke-width="4"/>
<circle cx="208" cy="320" r="10" fill="#3FB872" stroke="black" stroke-width="4"/>
<circle cx="176" cy="352" r="10" fill="#3FB872" stroke="black" stroke-width="4"/>
<circle cx="208" cy="352" r="10" fill="#3FB872" stroke="black" stroke-width="4"/>
<circle cx="32" cy="208" r="10" transform="rotate(-90 32 208)" fill="#3FB872" stroke="black" stroke-width="4"/>
<circle cx="63.9998" cy="208" r="10" transform="rotate(-90 63.9998 208)" fill="#3FB872" stroke="black" stroke-width="4"/>
<circle cx="63.9998" cy="176" r="10" transform="rotate(-90 63.9998 176)" fill="#3FB872" stroke="black" stroke-width="4"/>
<circle cx="320" cy="208" r="10" transform="rotate(-90 320 208)" fill="#3FB872" stroke="black" stroke-width="4"/>
<circle cx="320" cy="176" r="10" transform="rotate(-90 320 176)" fill="#3FB872" stroke="black" stroke-width="4"/>
<circle cx="352" cy="208" r="10" transform="rotate(-90 352 208)" fill="#3FB872" stroke="black" stroke-width="4"/>
<circle cx="352" cy="176" r="10" transform="rotate(-90 352 176)" fill="#3FB872" stroke="black" stroke-width="4"/>
<g clip-path="url(#clip0_177_1806)">
<path d="M243.882 259.882C243.882 251.046 251.046 243.882 259.882 243.882C268.719 243.882 275.882 251.046 275.882 259.882C275.882 268.719 268.719 275.882 259.882 275.882C251.046 275.882 243.882 268.719 243.882 259.882Z" fill="white"/>
<path d="M262.191 268.882H259.425V257.855C259.425 257.488 259.429 257.121 259.437 256.753C259.445 256.386 259.453 256.027 259.46 255.675C259.476 255.324 259.496 254.988 259.519 254.667C259.355 254.847 259.152 255.042 258.91 255.253C258.675 255.464 258.425 255.683 258.16 255.91L256.191 257.48L254.808 255.734L259.894 251.75H262.191V268.882Z" fill="#161326"/>
<path d="M266.51 282.51C266.51 273.673 273.673 266.51 282.51 266.51C291.346 266.51 298.51 273.673 298.51 282.51C298.51 291.346 291.346 298.51 282.51 298.51C273.673 298.51 266.51 291.346 266.51 282.51Z" fill="white"/>
<path d="M288.322 291.51H276.721V289.435L281.162 284.935C282.022 284.06 282.729 283.307 283.283 282.674C283.838 282.033 284.248 281.428 284.514 280.857C284.787 280.287 284.924 279.666 284.924 278.994C284.924 278.166 284.686 277.541 284.209 277.119C283.733 276.689 283.104 276.474 282.322 276.474C281.58 276.474 280.893 276.623 280.26 276.92C279.635 277.209 278.987 277.623 278.315 278.162L276.803 276.346C277.279 275.939 277.787 275.568 278.326 275.232C278.873 274.896 279.483 274.631 280.154 274.435C280.826 274.232 281.592 274.131 282.451 274.131C283.537 274.131 284.475 274.326 285.264 274.717C286.053 275.099 286.658 275.635 287.08 276.322C287.51 277.01 287.725 277.81 287.725 278.724C287.725 279.646 287.541 280.498 287.174 281.279C286.807 282.06 286.283 282.834 285.604 283.599C284.924 284.357 284.115 285.182 283.178 286.072L280.213 288.967V289.096H288.322V291.51Z" fill="#161326"/>
<path d="M289.137 305.137C289.137 296.301 296.301 289.137 305.137 289.137C313.974 289.137 321.137 296.301 321.137 305.137C321.137 313.974 313.974 321.137 305.137 321.137C296.301 321.137 289.137 313.974 289.137 305.137Z" fill="white"/>
<path d="M310.293 300.918C310.293 301.692 310.137 302.364 309.825 302.934C309.512 303.504 309.082 303.973 308.536 304.34C307.997 304.7 307.372 304.957 306.661 305.114V305.196C308.028 305.368 309.059 305.797 309.754 306.485C310.457 307.172 310.809 308.082 310.809 309.215C310.809 310.207 310.571 311.094 310.094 311.875C309.618 312.649 308.887 313.258 307.903 313.704C306.918 314.149 305.653 314.372 304.106 314.372C303.176 314.372 302.313 314.297 301.516 314.149C300.727 314 299.977 313.762 299.266 313.434V310.985C299.993 311.344 300.766 311.622 301.586 311.817C302.407 312.012 303.184 312.11 303.918 312.11C305.348 312.11 306.368 311.844 306.977 311.313C307.586 310.774 307.891 310.032 307.891 309.086C307.891 308.477 307.731 307.977 307.411 307.586C307.098 307.196 306.61 306.903 305.946 306.707C305.289 306.512 304.442 306.414 303.403 306.414H301.891V304.2H303.414C304.407 304.2 305.204 304.082 305.805 303.848C306.407 303.606 306.84 303.274 307.106 302.852C307.379 302.43 307.516 301.938 307.516 301.375C307.516 300.641 307.278 300.071 306.801 299.664C306.325 299.25 305.618 299.043 304.68 299.043C304.102 299.043 303.575 299.11 303.098 299.243C302.629 299.375 302.196 299.543 301.797 299.747C301.399 299.95 301.02 300.168 300.661 300.403L299.336 298.493C299.985 298.008 300.758 297.598 301.657 297.262C302.555 296.926 303.602 296.758 304.797 296.758C306.555 296.758 307.911 297.137 308.864 297.895C309.817 298.645 310.293 299.653 310.293 300.918Z" fill="#161326"/>
</g>
<defs>
<clipPath id="clip0_177_1806">
<rect width="384" height="32" fill="white" transform="translate(67.5493 44.9219) rotate(45)"/>
</clipPath>
</defs>
</svg>
