<svg width="896" height="504" viewBox="0 0 896 504" fill="none" xmlns="http://www.w3.org/2000/svg">
<rect width="896" height="504" fill="white"/>
<rect x="16" y="208" width="48" height="48" fill="#1A67C9" fill-opacity="0.12"/>
<rect x="16" y="208" width="48" height="48" stroke="white" stroke-width="2"/>
<rect x="16" y="304" width="48" height="48" fill="#1A67C9" fill-opacity="0.12"/>
<rect x="16" y="304" width="48" height="48" stroke="white" stroke-width="2"/>
<rect x="16" y="160" width="48" height="48" fill="#1A67C9" fill-opacity="0.12"/>
<rect x="16" y="160" width="48" height="48" stroke="white" stroke-width="2"/>
<rect x="16" y="64" width="48" height="48" fill="#1A67C9" fill-opacity="0.12"/>
<rect x="16" y="64" width="48" height="48" stroke="white" stroke-width="2"/>
<rect x="832" y="208" width="48" height="48" fill="#8E0B37" fill-opacity="0.12"/>
<rect x="832" y="208" width="48" height="48" stroke="white" stroke-width="2"/>
<rect x="832" y="304" width="48" height="48" fill="#8E0B37" fill-opacity="0.12"/>
<rect x="832" y="304" width="48" height="48" stroke="white" stroke-width="2"/>
<rect x="832" y="112" width="48" height="48" fill="#8E0B37" fill-opacity="0.12"/>
<rect x="832" y="112" width="48" height="48" stroke="white" stroke-width="2"/>
<rect x="832" y="160" width="48" height="48" fill="#8E0B37" fill-opacity="0.12"/>
<rect x="832" y="160" width="48" height="48" stroke="white" stroke-width="2"/>
<rect x="832" y="256" width="48" height="48" fill="#8E0B37" fill-opacity="0.12"/>
<rect x="832" y="256" width="48" height="48" stroke="white" stroke-width="2"/>
<rect x="832" y="64" width="48" height="48" fill="#8E0B37" fill-opacity="0.12"/>
<rect x="832" y="64" width="48" height="48" stroke="white" stroke-width="2"/>
<rect x="64" y="64" width="48" height="48" fill="#942E27" fill-opacity="0.12"/>
<rect x="64" y="64" width="48" height="48" stroke="white" stroke-width="2"/>
<rect x="64" y="112" width="48" height="48" fill="#942E27" fill-opacity="0.12"/>
<rect x="64" y="112" width="48" height="48" stroke="white" stroke-width="2"/>
<rect x="64" y="160" width="48" height="48" fill="#942E27" fill-opacity="0.12"/>
<rect x="64" y="160" width="48" height="48" stroke="white" stroke-width="2"/>
<rect x="64" y="208" width="48" height="48" fill="#942E27" fill-opacity="0.12"/>
<rect x="64" y="208" width="48" height="48" stroke="white" stroke-width="2"/>
<rect x="64" y="256" width="48" height="48" fill="#942E27" fill-opacity="0.12"/>
<rect x="64" y="256" width="48" height="48" stroke="white" stroke-width="2"/>
<rect x="64" y="304" width="48" height="48" fill="#942E27" fill-opacity="0.12"/>
<rect x="64" y="304" width="48" height="48" stroke="white" stroke-width="2"/>
<rect x="592" y="64" width="48" height="48" fill="#8E6310" fill-opacity="0.12"/>
<rect x="592" y="64" width="48" height="48" stroke="white" stroke-width="2"/>
<rect x="592" y="112" width="48" height="48" fill="#17804B" fill-opacity="0.12"/>
<rect x="592" y="112" width="48" height="48" stroke="white" stroke-width="2"/>
<rect x="592" y="160" width="48" height="48" fill="#17804B" fill-opacity="0.12"/>
<rect x="592" y="160" width="48" height="48" stroke="white" stroke-width="2"/>
<rect x="592" y="208" width="48" height="48" fill="#17804B" fill-opacity="0.12"/>
<rect x="592" y="208" width="48" height="48" stroke="white" stroke-width="2"/>
<rect x="592" y="256" width="48" height="48" fill="#17804B" fill-opacity="0.12"/>
<rect x="592" y="256" width="48" height="48" stroke="white" stroke-width="2"/>
<rect x="592" y="304" width="48" height="48" fill="#17804B" fill-opacity="0.12"/>
<rect x="592" y="304" width="48" height="48" stroke="white" stroke-width="2"/>
<rect x="640" y="64" width="48" height="48" fill="#00998C" fill-opacity="0.12"/>
<rect x="640" y="64" width="48" height="48" stroke="white" stroke-width="2"/>
<rect x="640" y="112" width="48" height="48" fill="#8E6310" fill-opacity="0.12"/>
<rect x="640" y="112" width="48" height="48" stroke="white" stroke-width="2"/>
<rect x="640" y="160" width="48" height="48" fill="#8E6310" fill-opacity="0.12"/>
<rect x="640" y="160" width="48" height="48" stroke="white" stroke-width="2"/>
<rect x="640" y="208" width="48" height="48" fill="#17804B" fill-opacity="0.12"/>
<rect x="640" y="208" width="48" height="48" stroke="white" stroke-width="2"/>
<rect x="640" y="256" width="48" height="48" fill="#17804B" fill-opacity="0.12"/>
<rect x="640" y="256" width="48" height="48" stroke="white" stroke-width="2"/>
<rect x="640" y="304" width="48" height="48" fill="#17804B" fill-opacity="0.12"/>
<rect x="640" y="304" width="48" height="48" stroke="white" stroke-width="2"/>
<rect x="688" y="64" width="48" height="48" fill="#00998C" fill-opacity="0.12"/>
<rect x="688" y="64" width="48" height="48" stroke="white" stroke-width="2"/>
<rect x="688" y="112" width="48" height="48" fill="#00998C" fill-opacity="0.12"/>
<rect x="688" y="112" width="48" height="48" stroke="white" stroke-width="2"/>
<rect x="688" y="160" width="48" height="48" fill="#8E6310" fill-opacity="0.12"/>
<rect x="688" y="160" width="48" height="48" stroke="white" stroke-width="2"/>
<rect x="688" y="208" width="48" height="48" fill="#8E6310" fill-opacity="0.12"/>
<rect x="688" y="208" width="48" height="48" stroke="white" stroke-width="2"/>
<rect x="688" y="256" width="48" height="48" fill="#17804B" fill-opacity="0.12"/>
<rect x="688" y="256" width="48" height="48" stroke="white" stroke-width="2"/>
<rect x="688" y="304" width="48" height="48" fill="#17804B" fill-opacity="0.12"/>
<rect x="688" y="304" width="48" height="48" stroke="white" stroke-width="2"/>
<rect x="736" y="64" width="48" height="48" fill="#00998C" fill-opacity="0.12"/>
<rect x="736" y="64" width="48" height="48" stroke="white" stroke-width="2"/>
<rect x="736" y="112" width="48" height="48" fill="#00998C" fill-opacity="0.12"/>
<rect x="736" y="112" width="48" height="48" stroke="white" stroke-width="2"/>
<rect x="736" y="160" width="48" height="48" fill="#00998C" fill-opacity="0.12"/>
<rect x="736" y="160" width="48" height="48" stroke="white" stroke-width="2"/>
<rect x="736" y="208" width="48" height="48" fill="#8E6310" fill-opacity="0.12"/>
<rect x="736" y="208" width="48" height="48" stroke="white" stroke-width="2"/>
<rect x="736" y="256" width="48" height="48" fill="#8E6310" fill-opacity="0.12"/>
<rect x="736" y="256" width="48" height="48" stroke="white" stroke-width="2"/>
<rect x="736" y="304" width="48" height="48" fill="#17804B" fill-opacity="0.12"/>
<rect x="736" y="304" width="48" height="48" stroke="white" stroke-width="2"/>
<rect x="112" y="160" width="48" height="48" fill="#641B98" fill-opacity="0.12"/>
<rect x="112" y="160" width="48" height="48" stroke="white" stroke-width="2"/>
<rect x="112" y="208" width="48" height="48" fill="#641B98" fill-opacity="0.12"/>
<rect x="112" y="208" width="48" height="48" stroke="white" stroke-width="2"/>
<rect x="112" y="384" width="48" height="48" fill="#175E82" fill-opacity="0.12"/>
<rect x="112" y="384" width="48" height="48" stroke="white" stroke-width="2"/>
<rect x="160" y="384" width="48" height="48" fill="#175E82" fill-opacity="0.12"/>
<rect x="160" y="384" width="48" height="48" stroke="white" stroke-width="2"/>
<rect x="208" y="384" width="48" height="48" fill="#175E82" fill-opacity="0.12"/>
<rect x="208" y="384" width="48" height="48" stroke="white" stroke-width="2"/>
<rect x="256" y="384" width="48" height="48" fill="#175E82" fill-opacity="0.12"/>
<rect x="256" y="384" width="48" height="48" stroke="white" stroke-width="2"/>
<rect x="304" y="384" width="48" height="48" fill="#175E82" fill-opacity="0.12"/>
<rect x="304" y="384" width="48" height="48" stroke="white" stroke-width="2"/>
<rect x="352" y="384" width="48" height="48" fill="#175E82" fill-opacity="0.12"/>
<rect x="352" y="384" width="48" height="48" stroke="white" stroke-width="2"/>
<rect x="400" y="384" width="48" height="48" fill="#175E82" fill-opacity="0.12"/>
<rect x="400" y="384" width="48" height="48" stroke="white" stroke-width="2"/>
<rect x="448" y="384" width="48" height="48" fill="#175E82" fill-opacity="0.12"/>
<rect x="448" y="384" width="48" height="48" stroke="white" stroke-width="2"/>
<rect x="496" y="384" width="48" height="48" fill="#175E82" fill-opacity="0.12"/>
<rect x="496" y="384" width="48" height="48" stroke="white" stroke-width="2"/>
<rect x="544" y="384" width="48" height="48" fill="#175E82" fill-opacity="0.12"/>
<rect x="544" y="384" width="48" height="48" stroke="white" stroke-width="2"/>
<rect x="592" y="384" width="48" height="48" fill="#175E82" fill-opacity="0.12"/>
<rect x="592" y="384" width="48" height="48" stroke="white" stroke-width="2"/>
<rect x="640" y="384" width="48" height="48" fill="#175E82" fill-opacity="0.12"/>
<rect x="640" y="384" width="48" height="48" stroke="white" stroke-width="2"/>
<rect x="688" y="384" width="48" height="48" fill="#175E82" fill-opacity="0.12"/>
<rect x="688" y="384" width="48" height="48" stroke="white" stroke-width="2"/>
<rect x="736" y="384" width="48" height="48" fill="#175E82" fill-opacity="0.12"/>
<rect x="736" y="384" width="48" height="48" stroke="white" stroke-width="2"/>
<rect x="784" y="384" width="48" height="48" fill="#175E82" fill-opacity="0.12"/>
<rect x="784" y="384" width="48" height="48" stroke="white" stroke-width="2"/>
<rect x="208" y="432" width="48" height="48" fill="#81314C" fill-opacity="0.12"/>
<rect x="208" y="432" width="48" height="48" stroke="white" stroke-width="2"/>
<rect x="256" y="432" width="48" height="48" fill="#81314C" fill-opacity="0.12"/>
<rect x="256" y="432" width="48" height="48" stroke="white" stroke-width="2"/>
<rect x="304" y="432" width="48" height="48" fill="#81314C" fill-opacity="0.12"/>
<rect x="304" y="432" width="48" height="48" stroke="white" stroke-width="2"/>
<rect x="352" y="432" width="48" height="48" fill="#81314C" fill-opacity="0.12"/>
<rect x="352" y="432" width="48" height="48" stroke="white" stroke-width="2"/>
<rect x="400" y="432" width="48" height="48" fill="#81314C" fill-opacity="0.12"/>
<rect x="400" y="432" width="48" height="48" stroke="white" stroke-width="2"/>
<rect x="448" y="432" width="48" height="48" fill="#81314C" fill-opacity="0.12"/>
<rect x="448" y="432" width="48" height="48" stroke="white" stroke-width="2"/>
<rect x="496" y="432" width="48" height="48" fill="#81314C" fill-opacity="0.12"/>
<rect x="496" y="432" width="48" height="48" stroke="white" stroke-width="2"/>
<rect x="544" y="432" width="48" height="48" fill="#81314C" fill-opacity="0.12"/>
<rect x="544" y="432" width="48" height="48" stroke="white" stroke-width="2"/>
<rect x="592" y="432" width="48" height="48" fill="#81314C" fill-opacity="0.12"/>
<rect x="592" y="432" width="48" height="48" stroke="white" stroke-width="2"/>
<rect x="640" y="432" width="48" height="48" fill="#81314C" fill-opacity="0.12"/>
<rect x="640" y="432" width="48" height="48" stroke="white" stroke-width="2"/>
<rect x="688" y="432" width="48" height="48" fill="#81314C" fill-opacity="0.12"/>
<rect x="688" y="432" width="48" height="48" stroke="white" stroke-width="2"/>
<rect x="736" y="432" width="48" height="48" fill="#81314C" fill-opacity="0.12"/>
<rect x="736" y="432" width="48" height="48" stroke="white" stroke-width="2"/>
<rect x="784" y="432" width="48" height="48" fill="#81314C" fill-opacity="0.12"/>
<rect x="784" y="432" width="48" height="48" stroke="white" stroke-width="2"/>
<rect x="112" y="432" width="48" height="48" fill="#81314C" fill-opacity="0.12"/>
<rect x="112" y="432" width="48" height="48" stroke="white" stroke-width="2"/>
<rect x="160" y="160" width="48" height="48" fill="#641B98" fill-opacity="0.12"/>
<rect x="160" y="160" width="48" height="48" stroke="white" stroke-width="2"/>
<rect x="160" y="208" width="48" height="48" fill="#641B98" fill-opacity="0.12"/>
<rect x="160" y="208" width="48" height="48" stroke="white" stroke-width="2"/>
<rect x="160" y="256" width="48" height="48" fill="#641B98" fill-opacity="0.12"/>
<rect x="160" y="256" width="48" height="48" stroke="white" stroke-width="2"/>
<rect x="160" y="304" width="48" height="48" fill="#641B98" fill-opacity="0.12"/>
<rect x="160" y="304" width="48" height="48" stroke="white" stroke-width="2"/>
<rect x="208" y="160" width="48" height="48" fill="#641B98" fill-opacity="0.12"/>
<rect x="208" y="160" width="48" height="48" stroke="white" stroke-width="2"/>
<rect x="208" y="208" width="48" height="48" fill="#641B98" fill-opacity="0.12"/>
<rect x="208" y="208" width="48" height="48" stroke="white" stroke-width="2"/>
<rect x="208" y="256" width="48" height="48" fill="#641B98" fill-opacity="0.12"/>
<rect x="208" y="256" width="48" height="48" stroke="white" stroke-width="2"/>
<rect x="208" y="304" width="48" height="48" fill="#641B98" fill-opacity="0.12"/>
<rect x="208" y="304" width="48" height="48" stroke="white" stroke-width="2"/>
<rect x="256" y="160" width="48" height="48" fill="#641B98" fill-opacity="0.12"/>
<rect x="256" y="160" width="48" height="48" stroke="white" stroke-width="2"/>
<rect x="256" y="208" width="48" height="48" fill="#641B98" fill-opacity="0.12"/>
<rect x="256" y="208" width="48" height="48" stroke="white" stroke-width="2"/>
<rect x="256" y="256" width="48" height="48" fill="#641B98" fill-opacity="0.12"/>
<rect x="256" y="256" width="48" height="48" stroke="white" stroke-width="2"/>
<rect x="256" y="304" width="48" height="48" fill="#641B98" fill-opacity="0.12"/>
<rect x="256" y="304" width="48" height="48" stroke="white" stroke-width="2"/>
<rect x="304" y="160" width="48" height="48" fill="#641B98" fill-opacity="0.12"/>
<rect x="304" y="160" width="48" height="48" stroke="white" stroke-width="2"/>
<rect x="304" y="208" width="48" height="48" fill="#641B98" fill-opacity="0.12"/>
<rect x="304" y="208" width="48" height="48" stroke="white" stroke-width="2"/>
<rect x="304" y="256" width="48" height="48" fill="#641B98" fill-opacity="0.12"/>
<rect x="304" y="256" width="48" height="48" stroke="white" stroke-width="2"/>
<rect x="304" y="304" width="48" height="48" fill="#641B98" fill-opacity="0.12"/>
<rect x="304" y="304" width="48" height="48" stroke="white" stroke-width="2"/>
<rect x="352" y="160" width="48" height="48" fill="#641B98" fill-opacity="0.12"/>
<rect x="352" y="160" width="48" height="48" stroke="white" stroke-width="2"/>
<rect x="352" y="208" width="48" height="48" fill="#641B98" fill-opacity="0.12"/>
<rect x="352" y="208" width="48" height="48" stroke="white" stroke-width="2"/>
<rect x="352" y="256" width="48" height="48" fill="#641B98" fill-opacity="0.12"/>
<rect x="352" y="256" width="48" height="48" stroke="white" stroke-width="2"/>
<rect x="400" y="160" width="48" height="48" fill="#641B98" fill-opacity="0.12"/>
<rect x="400" y="160" width="48" height="48" stroke="white" stroke-width="2"/>
<rect x="400" y="208" width="48" height="48" fill="#641B98" fill-opacity="0.12"/>
<rect x="400" y="208" width="48" height="48" stroke="white" stroke-width="2"/>
<rect x="400" y="256" width="48" height="48" fill="#641B98" fill-opacity="0.12"/>
<rect x="400" y="256" width="48" height="48" stroke="white" stroke-width="2"/>
<rect x="448" y="160" width="48" height="48" fill="#641B98" fill-opacity="0.12"/>
<rect x="448" y="160" width="48" height="48" stroke="white" stroke-width="2"/>
<rect x="448" y="208" width="48" height="48" fill="#641B98" fill-opacity="0.12"/>
<rect x="448" y="208" width="48" height="48" stroke="white" stroke-width="2"/>
<rect x="448" y="256" width="48" height="48" fill="#641B98" fill-opacity="0.12"/>
<rect x="448" y="256" width="48" height="48" stroke="white" stroke-width="2"/>
<rect x="496" y="160" width="48" height="48" fill="#641B98" fill-opacity="0.12"/>
<rect x="496" y="160" width="48" height="48" stroke="white" stroke-width="2"/>
<rect x="496" y="208" width="48" height="48" fill="#641B98" fill-opacity="0.12"/>
<rect x="496" y="208" width="48" height="48" stroke="white" stroke-width="2"/>
<rect x="496" y="256" width="48" height="48" fill="#641B98" fill-opacity="0.12"/>
<rect x="496" y="256" width="48" height="48" stroke="white" stroke-width="2"/>
<rect x="544" y="160" width="48" height="48" fill="#641B98" fill-opacity="0.12"/>
<rect x="544" y="160" width="48" height="48" stroke="white" stroke-width="2"/>
<rect x="544" y="208" width="48" height="48" fill="#641B98" fill-opacity="0.12"/>
<rect x="544" y="208" width="48" height="48" stroke="white" stroke-width="2"/>
<rect x="544" y="256" width="48" height="48" fill="#641B98" fill-opacity="0.12"/>
<rect x="544" y="256" width="48" height="48" stroke="white" stroke-width="2"/>
<rect x="400" y="304" width="48" height="48" fill="#641B98" fill-opacity="0.12"/>
<rect x="400" y="304" width="48" height="48" stroke="white" stroke-width="2"/>
<rect x="448" y="304" width="48" height="48" fill="#641B98" fill-opacity="0.12"/>
<rect x="448" y="304" width="48" height="48" stroke="white" stroke-width="2"/>
<rect x="496" y="304" width="48" height="48" fill="#641B98" fill-opacity="0.12"/>
<rect x="496" y="304" width="48" height="48" stroke="white" stroke-width="2"/>
<rect x="544" y="304" width="48" height="48" fill="#641B98" fill-opacity="0.12"/>
<rect x="544" y="304" width="48" height="48" stroke="white" stroke-width="2"/>
<rect x="352" y="304" width="48" height="48" fill="#641B98" fill-opacity="0.12"/>
<rect x="352" y="304" width="48" height="48" stroke="white" stroke-width="2"/>
<rect x="160" y="432" width="48" height="48" fill="#81314C" fill-opacity="0.12"/>
<rect x="160" y="432" width="48" height="48" stroke="white" stroke-width="2"/>
<rect x="784" y="160" width="48" height="48" fill="#131B6C" fill-opacity="0.12"/>
<rect x="784" y="160" width="48" height="48" stroke="white" stroke-width="2"/>
<rect x="784" y="208" width="48" height="48" fill="#131B6C" fill-opacity="0.12"/>
<rect x="784" y="208" width="48" height="48" stroke="white" stroke-width="2"/>
<rect x="784" y="256" width="48" height="48" fill="#131B6C" fill-opacity="0.12"/>
<rect x="784" y="256" width="48" height="48" stroke="white" stroke-width="2"/>
<rect x="784" y="304" width="48" height="48" fill="#131B6C" fill-opacity="0.12"/>
<rect x="784" y="304" width="48" height="48" stroke="white" stroke-width="2"/>
<rect x="112.5" y="256.5" width="47" height="47" fill="#175E82" fill-opacity="0.12"/>
<rect x="112.5" y="256.5" width="47" height="47" stroke="white"/>
<rect x="112.5" y="304.5" width="47" height="47" fill="#81314C" fill-opacity="0.12"/>
<rect x="112.5" y="304.5" width="47" height="47" stroke="white"/>
<rect x="16" y="16" width="48" height="48" fill="#00998C" fill-opacity="0.12"/>
<rect x="16" y="16" width="48" height="48" stroke="white" stroke-width="2"/>
<rect x="832" y="16" width="48" height="48" fill="#8E0B37" fill-opacity="0.12"/>
<rect x="832" y="16" width="48" height="48" stroke="white" stroke-width="2"/>
<rect x="782.5" y="62.5" width="51" height="99" stroke="#131B6C" stroke-width="3"/>
<rect x="784" y="64" width="48" height="48" fill="#131B6C" fill-opacity="0.12"/>
<rect x="784" y="64" width="48" height="48" stroke="white" stroke-width="2"/>
<path d="M810.171 74.813C810.171 75.1938 810.143 75.5674 810.087 75.9336C810.035 76.2998 809.941 76.6426 809.806 76.9619C809.674 77.2812 809.491 77.564 809.257 77.8101C809.025 78.0532 808.732 78.2437 808.378 78.3813C808.023 78.519 807.596 78.5879 807.095 78.5879C806.969 78.5879 806.822 78.5806 806.655 78.5659C806.491 78.5542 806.356 78.5366 806.251 78.5132V77.6519C806.362 77.6841 806.487 77.7104 806.625 77.731C806.765 77.7485 806.904 77.7573 807.042 77.7573C807.584 77.7573 808.006 77.6562 808.308 77.4541C808.612 77.252 808.828 76.9736 808.954 76.6191C809.083 76.2646 809.156 75.8618 809.173 75.4106H809.121C809.036 75.5513 808.929 75.6802 808.8 75.7974C808.671 75.9116 808.511 76.0039 808.321 76.0742C808.13 76.1416 807.899 76.1753 807.626 76.1753C807.257 76.1753 806.935 76.0977 806.66 75.9424C806.387 75.7871 806.175 75.5615 806.022 75.2656C805.873 74.9668 805.798 74.6079 805.798 74.189C805.798 73.7349 805.885 73.3438 806.058 73.0156C806.23 72.6875 806.475 72.4355 806.792 72.2598C807.108 72.0811 807.48 71.9917 807.908 71.9917C808.23 71.9917 808.527 72.0503 808.8 72.1675C809.075 72.2817 809.315 72.4575 809.521 72.6948C809.726 72.9292 809.885 73.2236 810 73.5781C810.114 73.9297 810.171 74.3413 810.171 74.813ZM807.921 72.8442C807.596 72.8442 807.331 72.9541 807.125 73.1738C806.92 73.3906 806.818 73.7246 806.818 74.1758C806.818 74.542 806.906 74.832 807.082 75.0459C807.257 75.2598 807.527 75.3667 807.89 75.3667C808.142 75.3667 808.359 75.3154 808.541 75.2129C808.725 75.1074 808.867 74.9741 808.967 74.813C809.069 74.6519 809.121 74.4878 809.121 74.3208C809.121 74.1479 809.096 73.9751 809.046 73.8022C808.999 73.6294 808.926 73.4712 808.826 73.3276C808.727 73.1841 808.601 73.0684 808.448 72.9805C808.299 72.8896 808.123 72.8442 807.921 72.8442Z" fill="#131B6C"/>
<path d="M807.358 103.5H804.678V90.6504H812.043V92.8828H807.358V96.1963H811.718V98.4199H807.358V103.5Z" fill="#131B6C"/>
<rect x="784" y="112" width="48" height="48" fill="#131B6C" fill-opacity="0.12"/>
<rect x="784" y="112" width="48" height="48" stroke="white" stroke-width="2"/>
<path d="M806.291 126.5H805.253V122.365C805.253 122.227 805.255 122.089 805.258 121.952C805.261 121.814 805.264 121.679 805.267 121.547C805.272 121.416 805.28 121.29 805.289 121.169C805.227 121.237 805.151 121.31 805.06 121.389C804.972 121.468 804.878 121.55 804.779 121.635L804.041 122.224L803.522 121.569L805.429 120.075H806.291V126.5ZM809.138 126.5L811.661 120.98H808.325V120.075H812.772V120.783L810.25 126.5H809.138Z" fill="#131B6C"/>
<path d="M806.585 140.733C806.063 140.733 805.601 140.836 805.196 141.041C804.798 141.24 804.461 141.53 804.186 141.911C803.916 142.292 803.711 142.752 803.57 143.291C803.43 143.83 803.359 144.437 803.359 145.11C803.359 146.019 803.471 146.795 803.693 147.439C803.922 148.078 804.273 148.567 804.748 148.907C805.223 149.241 805.835 149.408 806.585 149.408C807.106 149.408 807.628 149.35 808.149 149.232C808.677 149.115 809.248 148.948 809.863 148.731V151.017C809.295 151.251 808.735 151.418 808.185 151.518C807.634 151.623 807.016 151.676 806.33 151.676C805.006 151.676 803.916 151.403 803.061 150.858C802.211 150.308 801.581 149.54 801.171 148.556C800.761 147.565 800.556 146.411 800.556 145.093C800.556 144.12 800.688 143.229 800.951 142.421C801.215 141.612 801.602 140.912 802.111 140.32C802.621 139.729 803.251 139.271 804.001 138.949C804.751 138.627 805.612 138.466 806.585 138.466C807.224 138.466 807.862 138.548 808.501 138.712C809.146 138.87 809.761 139.09 810.347 139.371L809.468 141.586C808.987 141.357 808.504 141.158 808.018 140.988C807.531 140.818 807.054 140.733 806.585 140.733ZM815.075 151.5H812.395V137.824H815.075V151.5Z" fill="#131B6C"/>
<rect x="16" y="112" width="48" height="48" fill="#1A67C9" fill-opacity="0.12"/>
<rect x="16" y="112" width="48" height="48" stroke="white" stroke-width="2"/>
<rect x="16" y="256" width="48" height="48" fill="#1A67C9" fill-opacity="0.12"/>
<rect x="16" y="256" width="48" height="48" stroke="white" stroke-width="2"/>
</svg>
