<svg width="896" height="504" viewBox="0 0 896 504" fill="none" xmlns="http://www.w3.org/2000/svg">
<rect width="896" height="504" fill="white"/>
<rect x="16" y="208" width="48" height="48" fill="#1A67C9" fill-opacity="0.12"/>
<rect x="16" y="208" width="48" height="48" stroke="white" stroke-width="2"/>
<rect x="16" y="304" width="48" height="48" fill="#1A67C9" fill-opacity="0.12"/>
<rect x="16" y="304" width="48" height="48" stroke="white" stroke-width="2"/>
<rect x="16" y="160" width="48" height="48" fill="#1A67C9" fill-opacity="0.12"/>
<rect x="16" y="160" width="48" height="48" stroke="white" stroke-width="2"/>
<rect x="16" y="64" width="48" height="48" fill="#1A67C9" fill-opacity="0.12"/>
<rect x="16" y="64" width="48" height="48" stroke="white" stroke-width="2"/>
<rect x="832" y="208" width="48" height="48" fill="#8E0B37" fill-opacity="0.12"/>
<rect x="832" y="208" width="48" height="48" stroke="white" stroke-width="2"/>
<rect x="832" y="304" width="48" height="48" fill="#8E0B37" fill-opacity="0.12"/>
<rect x="832" y="304" width="48" height="48" stroke="white" stroke-width="2"/>
<rect x="832" y="112" width="48" height="48" fill="#8E0B37" fill-opacity="0.12"/>
<rect x="832" y="112" width="48" height="48" stroke="white" stroke-width="2"/>
<rect x="832" y="160" width="48" height="48" fill="#8E0B37" fill-opacity="0.12"/>
<rect x="832" y="160" width="48" height="48" stroke="white" stroke-width="2"/>
<rect x="832" y="256" width="48" height="48" fill="#8E0B37" fill-opacity="0.12"/>
<rect x="832" y="256" width="48" height="48" stroke="white" stroke-width="2"/>
<rect x="832" y="64" width="48" height="48" fill="#8E0B37" fill-opacity="0.12"/>
<rect x="832" y="64" width="48" height="48" stroke="white" stroke-width="2"/>
<rect x="64" y="64" width="48" height="48" fill="#942E27" fill-opacity="0.12"/>
<rect x="64" y="64" width="48" height="48" stroke="white" stroke-width="2"/>
<rect x="64" y="112" width="48" height="48" fill="#942E27" fill-opacity="0.12"/>
<rect x="64" y="112" width="48" height="48" stroke="white" stroke-width="2"/>
<rect x="64" y="160" width="48" height="48" fill="#942E27" fill-opacity="0.12"/>
<rect x="64" y="160" width="48" height="48" stroke="white" stroke-width="2"/>
<rect x="64" y="208" width="48" height="48" fill="#942E27" fill-opacity="0.12"/>
<rect x="64" y="208" width="48" height="48" stroke="white" stroke-width="2"/>
<rect x="64" y="256" width="48" height="48" fill="#942E27" fill-opacity="0.12"/>
<rect x="64" y="256" width="48" height="48" stroke="white" stroke-width="2"/>
<rect x="64" y="304" width="48" height="48" fill="#942E27" fill-opacity="0.12"/>
<rect x="64" y="304" width="48" height="48" stroke="white" stroke-width="2"/>
<rect x="592" y="64" width="48" height="48" fill="#8E6310" fill-opacity="0.12"/>
<rect x="592" y="64" width="48" height="48" stroke="white" stroke-width="2"/>
<rect x="592" y="112" width="48" height="48" fill="#17804B" fill-opacity="0.12"/>
<rect x="592" y="112" width="48" height="48" stroke="white" stroke-width="2"/>
<rect x="592" y="160" width="48" height="48" fill="#17804B" fill-opacity="0.12"/>
<rect x="592" y="160" width="48" height="48" stroke="white" stroke-width="2"/>
<rect x="592" y="208" width="48" height="48" fill="#17804B" fill-opacity="0.12"/>
<rect x="592" y="208" width="48" height="48" stroke="white" stroke-width="2"/>
<rect x="592" y="256" width="48" height="48" fill="#17804B" fill-opacity="0.12"/>
<rect x="592" y="256" width="48" height="48" stroke="white" stroke-width="2"/>
<rect x="592" y="304" width="48" height="48" fill="#17804B" fill-opacity="0.12"/>
<rect x="592" y="304" width="48" height="48" stroke="white" stroke-width="2"/>
<rect x="640" y="64" width="48" height="48" fill="#00998C" fill-opacity="0.12"/>
<rect x="640" y="64" width="48" height="48" stroke="white" stroke-width="2"/>
<rect x="640" y="112" width="48" height="48" fill="#8E6310" fill-opacity="0.12"/>
<rect x="640" y="112" width="48" height="48" stroke="white" stroke-width="2"/>
<rect x="640" y="160" width="48" height="48" fill="#8E6310" fill-opacity="0.12"/>
<rect x="640" y="160" width="48" height="48" stroke="white" stroke-width="2"/>
<rect x="640" y="208" width="48" height="48" fill="#17804B" fill-opacity="0.12"/>
<rect x="640" y="208" width="48" height="48" stroke="white" stroke-width="2"/>
<rect x="640" y="256" width="48" height="48" fill="#17804B" fill-opacity="0.12"/>
<rect x="640" y="256" width="48" height="48" stroke="white" stroke-width="2"/>
<rect x="640" y="304" width="48" height="48" fill="#17804B" fill-opacity="0.12"/>
<rect x="640" y="304" width="48" height="48" stroke="white" stroke-width="2"/>
<rect x="688" y="64" width="48" height="48" fill="#00998C" fill-opacity="0.12"/>
<rect x="688" y="64" width="48" height="48" stroke="white" stroke-width="2"/>
<rect x="688" y="112" width="48" height="48" fill="#00998C" fill-opacity="0.12"/>
<rect x="688" y="112" width="48" height="48" stroke="white" stroke-width="2"/>
<rect x="688" y="160" width="48" height="48" fill="#8E6310" fill-opacity="0.12"/>
<rect x="688" y="160" width="48" height="48" stroke="white" stroke-width="2"/>
<rect x="688" y="208" width="48" height="48" fill="#8E6310" fill-opacity="0.12"/>
<rect x="688" y="208" width="48" height="48" stroke="white" stroke-width="2"/>
<rect x="688" y="256" width="48" height="48" fill="#17804B" fill-opacity="0.12"/>
<rect x="688" y="256" width="48" height="48" stroke="white" stroke-width="2"/>
<rect x="688" y="304" width="48" height="48" fill="#17804B" fill-opacity="0.12"/>
<rect x="688" y="304" width="48" height="48" stroke="white" stroke-width="2"/>
<rect x="736" y="64" width="48" height="48" fill="#00998C" fill-opacity="0.12"/>
<rect x="736" y="64" width="48" height="48" stroke="white" stroke-width="2"/>
<rect x="736" y="112" width="48" height="48" fill="#00998C" fill-opacity="0.12"/>
<rect x="736" y="112" width="48" height="48" stroke="white" stroke-width="2"/>
<rect x="736" y="160" width="48" height="48" fill="#00998C" fill-opacity="0.12"/>
<rect x="736" y="160" width="48" height="48" stroke="white" stroke-width="2"/>
<rect x="736" y="208" width="48" height="48" fill="#8E6310" fill-opacity="0.12"/>
<rect x="736" y="208" width="48" height="48" stroke="white" stroke-width="2"/>
<rect x="736" y="256" width="48" height="48" fill="#8E6310" fill-opacity="0.12"/>
<rect x="736" y="256" width="48" height="48" stroke="white" stroke-width="2"/>
<rect x="736" y="304" width="48" height="48" fill="#17804B" fill-opacity="0.12"/>
<rect x="736" y="304" width="48" height="48" stroke="white" stroke-width="2"/>
<rect x="112" y="160" width="48" height="48" fill="#641B98" fill-opacity="0.12"/>
<rect x="112" y="160" width="48" height="48" stroke="white" stroke-width="2"/>
<rect x="112" y="208" width="48" height="48" fill="#641B98" fill-opacity="0.12"/>
<rect x="112" y="208" width="48" height="48" stroke="white" stroke-width="2"/>
<rect x="112" y="384" width="48" height="48" fill="#175E82" fill-opacity="0.12"/>
<rect x="112" y="384" width="48" height="48" stroke="white" stroke-width="2"/>
<rect x="160" y="384" width="48" height="48" fill="#175E82" fill-opacity="0.12"/>
<rect x="160" y="384" width="48" height="48" stroke="white" stroke-width="2"/>
<rect x="208" y="384" width="48" height="48" fill="#175E82" fill-opacity="0.12"/>
<rect x="208" y="384" width="48" height="48" stroke="white" stroke-width="2"/>
<rect x="256" y="384" width="48" height="48" fill="#175E82" fill-opacity="0.12"/>
<rect x="256" y="384" width="48" height="48" stroke="white" stroke-width="2"/>
<rect x="304" y="384" width="48" height="48" fill="#175E82" fill-opacity="0.12"/>
<rect x="304" y="384" width="48" height="48" stroke="white" stroke-width="2"/>
<rect x="352" y="384" width="48" height="48" fill="#175E82" fill-opacity="0.12"/>
<rect x="352" y="384" width="48" height="48" stroke="white" stroke-width="2"/>
<rect x="400" y="384" width="48" height="48" fill="#175E82" fill-opacity="0.12"/>
<rect x="400" y="384" width="48" height="48" stroke="white" stroke-width="2"/>
<rect x="448" y="384" width="48" height="48" fill="#175E82" fill-opacity="0.12"/>
<rect x="448" y="384" width="48" height="48" stroke="white" stroke-width="2"/>
<rect x="496" y="384" width="48" height="48" fill="#175E82" fill-opacity="0.12"/>
<rect x="496" y="384" width="48" height="48" stroke="white" stroke-width="2"/>
<rect x="544" y="384" width="48" height="48" fill="#175E82" fill-opacity="0.12"/>
<rect x="544" y="384" width="48" height="48" stroke="white" stroke-width="2"/>
<rect x="592" y="384" width="48" height="48" fill="#175E82" fill-opacity="0.12"/>
<rect x="592" y="384" width="48" height="48" stroke="white" stroke-width="2"/>
<rect x="640" y="384" width="48" height="48" fill="#175E82" fill-opacity="0.12"/>
<rect x="640" y="384" width="48" height="48" stroke="white" stroke-width="2"/>
<rect x="688" y="384" width="48" height="48" fill="#175E82" fill-opacity="0.12"/>
<rect x="688" y="384" width="48" height="48" stroke="white" stroke-width="2"/>
<rect x="736" y="384" width="48" height="48" fill="#175E82" fill-opacity="0.12"/>
<rect x="736" y="384" width="48" height="48" stroke="white" stroke-width="2"/>
<rect x="784" y="384" width="48" height="48" fill="#175E82" fill-opacity="0.12"/>
<rect x="784" y="384" width="48" height="48" stroke="white" stroke-width="2"/>
<rect x="208" y="432" width="48" height="48" fill="#81314C" fill-opacity="0.12"/>
<rect x="208" y="432" width="48" height="48" stroke="white" stroke-width="2"/>
<rect x="256" y="432" width="48" height="48" fill="#81314C" fill-opacity="0.12"/>
<rect x="256" y="432" width="48" height="48" stroke="white" stroke-width="2"/>
<rect x="304" y="432" width="48" height="48" fill="#81314C" fill-opacity="0.12"/>
<rect x="304" y="432" width="48" height="48" stroke="white" stroke-width="2"/>
<rect x="352" y="432" width="48" height="48" fill="#81314C" fill-opacity="0.12"/>
<rect x="352" y="432" width="48" height="48" stroke="white" stroke-width="2"/>
<rect x="400" y="432" width="48" height="48" fill="#81314C" fill-opacity="0.12"/>
<rect x="400" y="432" width="48" height="48" stroke="white" stroke-width="2"/>
<rect x="448" y="432" width="48" height="48" fill="#81314C" fill-opacity="0.12"/>
<rect x="448" y="432" width="48" height="48" stroke="white" stroke-width="2"/>
<rect x="496" y="432" width="48" height="48" fill="#81314C" fill-opacity="0.12"/>
<rect x="496" y="432" width="48" height="48" stroke="white" stroke-width="2"/>
<rect x="544" y="432" width="48" height="48" fill="#81314C" fill-opacity="0.12"/>
<rect x="544" y="432" width="48" height="48" stroke="white" stroke-width="2"/>
<rect x="592" y="432" width="48" height="48" fill="#81314C" fill-opacity="0.12"/>
<rect x="592" y="432" width="48" height="48" stroke="white" stroke-width="2"/>
<rect x="640" y="432" width="48" height="48" fill="#81314C" fill-opacity="0.12"/>
<rect x="640" y="432" width="48" height="48" stroke="white" stroke-width="2"/>
<rect x="688" y="432" width="48" height="48" fill="#81314C" fill-opacity="0.12"/>
<rect x="688" y="432" width="48" height="48" stroke="white" stroke-width="2"/>
<rect x="736" y="432" width="48" height="48" fill="#81314C" fill-opacity="0.12"/>
<rect x="736" y="432" width="48" height="48" stroke="white" stroke-width="2"/>
<rect x="784" y="432" width="48" height="48" fill="#81314C" fill-opacity="0.12"/>
<rect x="784" y="432" width="48" height="48" stroke="white" stroke-width="2"/>
<rect x="112" y="432" width="48" height="48" fill="#81314C" fill-opacity="0.12"/>
<rect x="112" y="432" width="48" height="48" stroke="white" stroke-width="2"/>
<rect x="160" y="160" width="48" height="48" fill="#641B98" fill-opacity="0.12"/>
<rect x="160" y="160" width="48" height="48" stroke="white" stroke-width="2"/>
<rect x="160" y="208" width="48" height="48" fill="#641B98" fill-opacity="0.12"/>
<rect x="160" y="208" width="48" height="48" stroke="white" stroke-width="2"/>
<rect x="160" y="256" width="48" height="48" fill="#641B98" fill-opacity="0.12"/>
<rect x="160" y="256" width="48" height="48" stroke="white" stroke-width="2"/>
<rect x="160" y="304" width="48" height="48" fill="#641B98" fill-opacity="0.12"/>
<rect x="160" y="304" width="48" height="48" stroke="white" stroke-width="2"/>
<rect x="208" y="160" width="48" height="48" fill="#641B98" fill-opacity="0.12"/>
<rect x="208" y="160" width="48" height="48" stroke="white" stroke-width="2"/>
<rect x="208" y="208" width="48" height="48" fill="#641B98" fill-opacity="0.12"/>
<rect x="208" y="208" width="48" height="48" stroke="white" stroke-width="2"/>
<rect x="208" y="256" width="48" height="48" fill="#641B98" fill-opacity="0.12"/>
<rect x="208" y="256" width="48" height="48" stroke="white" stroke-width="2"/>
<rect x="208" y="304" width="48" height="48" fill="#641B98" fill-opacity="0.12"/>
<rect x="208" y="304" width="48" height="48" stroke="white" stroke-width="2"/>
<rect x="256" y="160" width="48" height="48" fill="#641B98" fill-opacity="0.12"/>
<rect x="256" y="160" width="48" height="48" stroke="white" stroke-width="2"/>
<rect x="256" y="208" width="48" height="48" fill="#641B98" fill-opacity="0.12"/>
<rect x="256" y="208" width="48" height="48" stroke="white" stroke-width="2"/>
<rect x="256" y="256" width="48" height="48" fill="#641B98" fill-opacity="0.12"/>
<rect x="256" y="256" width="48" height="48" stroke="white" stroke-width="2"/>
<rect x="256" y="304" width="48" height="48" fill="#641B98" fill-opacity="0.12"/>
<rect x="256" y="304" width="48" height="48" stroke="white" stroke-width="2"/>
<rect x="304" y="160" width="48" height="48" fill="#641B98" fill-opacity="0.12"/>
<rect x="304" y="160" width="48" height="48" stroke="white" stroke-width="2"/>
<rect x="304" y="208" width="48" height="48" fill="#641B98" fill-opacity="0.12"/>
<rect x="304" y="208" width="48" height="48" stroke="white" stroke-width="2"/>
<rect x="304" y="256" width="48" height="48" fill="#641B98" fill-opacity="0.12"/>
<rect x="304" y="256" width="48" height="48" stroke="white" stroke-width="2"/>
<rect x="304" y="304" width="48" height="48" fill="#641B98" fill-opacity="0.12"/>
<rect x="304" y="304" width="48" height="48" stroke="white" stroke-width="2"/>
<rect x="352" y="160" width="48" height="48" fill="#641B98" fill-opacity="0.12"/>
<rect x="352" y="160" width="48" height="48" stroke="white" stroke-width="2"/>
<rect x="352" y="208" width="48" height="48" fill="#641B98" fill-opacity="0.12"/>
<rect x="352" y="208" width="48" height="48" stroke="white" stroke-width="2"/>
<rect x="352" y="256" width="48" height="48" fill="#641B98" fill-opacity="0.12"/>
<rect x="352" y="256" width="48" height="48" stroke="white" stroke-width="2"/>
<rect x="400" y="160" width="48" height="48" fill="#641B98" fill-opacity="0.12"/>
<rect x="400" y="160" width="48" height="48" stroke="white" stroke-width="2"/>
<rect x="400" y="208" width="48" height="48" fill="#641B98" fill-opacity="0.12"/>
<rect x="400" y="208" width="48" height="48" stroke="white" stroke-width="2"/>
<rect x="400" y="256" width="48" height="48" fill="#641B98" fill-opacity="0.12"/>
<rect x="400" y="256" width="48" height="48" stroke="white" stroke-width="2"/>
<rect x="448" y="160" width="48" height="48" fill="#641B98" fill-opacity="0.12"/>
<rect x="448" y="160" width="48" height="48" stroke="white" stroke-width="2"/>
<rect x="448" y="208" width="48" height="48" fill="#641B98" fill-opacity="0.12"/>
<rect x="448" y="208" width="48" height="48" stroke="white" stroke-width="2"/>
<rect x="448" y="256" width="48" height="48" fill="#641B98" fill-opacity="0.12"/>
<rect x="448" y="256" width="48" height="48" stroke="white" stroke-width="2"/>
<rect x="496" y="160" width="48" height="48" fill="#641B98" fill-opacity="0.12"/>
<rect x="496" y="160" width="48" height="48" stroke="white" stroke-width="2"/>
<rect x="496" y="208" width="48" height="48" fill="#641B98" fill-opacity="0.12"/>
<rect x="496" y="208" width="48" height="48" stroke="white" stroke-width="2"/>
<rect x="496" y="256" width="48" height="48" fill="#641B98" fill-opacity="0.12"/>
<rect x="496" y="256" width="48" height="48" stroke="white" stroke-width="2"/>
<rect x="544" y="160" width="48" height="48" fill="#641B98" fill-opacity="0.12"/>
<rect x="544" y="160" width="48" height="48" stroke="white" stroke-width="2"/>
<rect x="544" y="208" width="48" height="48" fill="#641B98" fill-opacity="0.12"/>
<rect x="544" y="208" width="48" height="48" stroke="white" stroke-width="2"/>
<rect x="544" y="256" width="48" height="48" fill="#641B98" fill-opacity="0.12"/>
<rect x="544" y="256" width="48" height="48" stroke="white" stroke-width="2"/>
<rect x="400" y="304" width="48" height="48" fill="#641B98" fill-opacity="0.12"/>
<rect x="400" y="304" width="48" height="48" stroke="white" stroke-width="2"/>
<rect x="448" y="304" width="48" height="48" fill="#641B98" fill-opacity="0.12"/>
<rect x="448" y="304" width="48" height="48" stroke="white" stroke-width="2"/>
<rect x="496" y="304" width="48" height="48" fill="#641B98" fill-opacity="0.12"/>
<rect x="496" y="304" width="48" height="48" stroke="white" stroke-width="2"/>
<rect x="544" y="304" width="48" height="48" fill="#641B98" fill-opacity="0.12"/>
<rect x="544" y="304" width="48" height="48" stroke="white" stroke-width="2"/>
<rect x="352" y="304" width="48" height="48" fill="#641B98" fill-opacity="0.12"/>
<rect x="352" y="304" width="48" height="48" stroke="white" stroke-width="2"/>
<rect x="160" y="432" width="48" height="48" fill="#81314C" fill-opacity="0.12"/>
<rect x="160" y="432" width="48" height="48" stroke="white" stroke-width="2"/>
<rect x="784" y="64" width="48" height="48" fill="#131B6C" fill-opacity="0.12"/>
<rect x="784" y="64" width="48" height="48" stroke="white" stroke-width="2"/>
<rect x="784" y="112" width="48" height="48" fill="#131B6C" fill-opacity="0.12"/>
<rect x="784" y="112" width="48" height="48" stroke="white" stroke-width="2"/>
<rect x="784" y="160" width="48" height="48" fill="#131B6C" fill-opacity="0.12"/>
<rect x="784" y="160" width="48" height="48" stroke="white" stroke-width="2"/>
<rect x="784" y="208" width="48" height="48" fill="#131B6C" fill-opacity="0.12"/>
<rect x="784" y="208" width="48" height="48" stroke="white" stroke-width="2"/>
<rect x="784" y="256" width="48" height="48" fill="#131B6C" fill-opacity="0.12"/>
<rect x="784" y="256" width="48" height="48" stroke="white" stroke-width="2"/>
<rect x="784" y="304" width="48" height="48" fill="#131B6C" fill-opacity="0.12"/>
<rect x="784" y="304" width="48" height="48" stroke="white" stroke-width="2"/>
<rect x="112.5" y="256.5" width="47" height="47" fill="#175E82" fill-opacity="0.12"/>
<rect x="112.5" y="256.5" width="47" height="47" stroke="white"/>
<rect x="112.5" y="304.5" width="47" height="47" fill="#81314C" fill-opacity="0.12"/>
<rect x="112.5" y="304.5" width="47" height="47" stroke="white"/>
<rect x="16" y="16" width="48" height="48" fill="#00998C" fill-opacity="0.12"/>
<rect x="16" y="16" width="48" height="48" stroke="white" stroke-width="2"/>
<rect x="832" y="16" width="48" height="48" fill="#8E0B37" fill-opacity="0.12"/>
<rect x="832" y="16" width="48" height="48" stroke="white" stroke-width="2"/>
<rect x="14.5" y="254.5" width="51" height="51" stroke="#1A67C9" stroke-width="3"/>
<rect x="16" y="256" width="48" height="48" fill="#1A67C9" fill-opacity="0.12"/>
<rect x="16" y="256" width="48" height="48" stroke="white" stroke-width="2"/>
<path d="M37.438 263.983C37.8511 263.983 38.2144 264.058 38.5278 264.208C38.8442 264.354 39.0903 264.571 39.2661 264.858C39.4419 265.142 39.5298 265.491 39.5298 265.904C39.5298 266.355 39.4346 266.745 39.2441 267.073C39.0537 267.398 38.7739 267.648 38.4048 267.824C38.0356 268 37.5859 268.088 37.0557 268.088C36.7188 268.088 36.4038 268.059 36.1108 268C35.8208 267.941 35.5703 267.854 35.3594 267.736V266.805C35.5791 266.928 35.8428 267.029 36.1504 267.108C36.458 267.184 36.7524 267.222 37.0337 267.222C37.3325 267.222 37.5889 267.178 37.8027 267.09C38.0166 267.002 38.1807 266.868 38.2949 266.686C38.4121 266.504 38.4707 266.274 38.4707 265.996C38.4707 265.627 38.3521 265.343 38.1147 265.144C37.8804 264.941 37.5127 264.84 37.0117 264.84C36.8359 264.84 36.6484 264.856 36.4492 264.889C36.2529 264.918 36.0889 264.95 35.957 264.985L35.5044 264.717L35.7461 261.575H39.0859V262.485H36.6558L36.5151 264.084C36.6206 264.061 36.7466 264.039 36.8931 264.019C37.0396 263.995 37.2212 263.983 37.438 263.983ZM42.5884 263.983C43.0015 263.983 43.3647 264.058 43.6782 264.208C43.9946 264.354 44.2407 264.571 44.4165 264.858C44.5923 265.142 44.6802 265.491 44.6802 265.904C44.6802 266.355 44.585 266.745 44.3945 267.073C44.2041 267.398 43.9243 267.648 43.5552 267.824C43.186 268 42.7363 268.088 42.2061 268.088C41.8691 268.088 41.5542 268.059 41.2612 268C40.9712 267.941 40.7207 267.854 40.5098 267.736V266.805C40.7295 266.928 40.9932 267.029 41.3008 267.108C41.6084 267.184 41.9028 267.222 42.1841 267.222C42.4829 267.222 42.7393 267.178 42.9531 267.09C43.167 267.002 43.3311 266.868 43.4453 266.686C43.5625 266.504 43.6211 266.274 43.6211 265.996C43.6211 265.627 43.5024 265.343 43.2651 265.144C43.0308 264.941 42.6631 264.84 42.1621 264.84C41.9863 264.84 41.7988 264.856 41.5996 264.889C41.4033 264.918 41.2393 264.95 41.1074 264.985L40.6548 264.717L40.8965 261.575H44.2363V262.485H41.8062L41.6655 264.084C41.771 264.061 41.897 264.039 42.0435 264.019C42.1899 263.995 42.3716 263.983 42.5884 263.983Z" fill="#1A67C9"/>
<path d="M36.8623 277.733C36.3408 277.733 35.8779 277.836 35.4736 278.041C35.0752 278.24 34.7383 278.53 34.4629 278.911C34.1934 279.292 33.9883 279.752 33.8477 280.291C33.707 280.83 33.6367 281.437 33.6367 282.11C33.6367 283.019 33.748 283.795 33.9707 284.439C34.1992 285.078 34.5508 285.567 35.0254 285.907C35.5 286.241 36.1123 286.408 36.8623 286.408C37.3838 286.408 37.9053 286.35 38.4268 286.232C38.9541 286.115 39.5254 285.948 40.1406 285.731V288.017C39.5723 288.251 39.0127 288.418 38.4619 288.518C37.9111 288.623 37.293 288.676 36.6074 288.676C35.2832 288.676 34.1934 288.403 33.3379 287.858C32.4883 287.308 31.8584 286.54 31.4482 285.556C31.0381 284.565 30.833 283.411 30.833 282.093C30.833 281.12 30.9648 280.229 31.2285 279.421C31.4922 278.612 31.8789 277.912 32.3887 277.32C32.8984 276.729 33.5283 276.271 34.2783 275.949C35.0283 275.627 35.8896 275.466 36.8623 275.466C37.501 275.466 38.1396 275.548 38.7783 275.712C39.4229 275.87 40.0381 276.09 40.624 276.371L39.7451 278.586C39.2646 278.357 38.7812 278.158 38.2949 277.988C37.8086 277.818 37.3311 277.733 36.8623 277.733ZM49.5273 285.582C49.5273 286.25 49.3691 286.815 49.0527 287.278C48.7422 287.735 48.2764 288.084 47.6553 288.324C47.0342 288.559 46.2607 288.676 45.335 288.676C44.6494 288.676 44.0605 288.632 43.5684 288.544C43.082 288.456 42.5898 288.31 42.0918 288.104V285.89C42.625 286.13 43.1963 286.329 43.8057 286.487C44.4209 286.64 44.96 286.716 45.4229 286.716C45.9443 286.716 46.3164 286.64 46.5391 286.487C46.7676 286.329 46.8818 286.124 46.8818 285.872C46.8818 285.708 46.835 285.562 46.7412 285.433C46.6533 285.298 46.46 285.148 46.1611 284.984C45.8623 284.814 45.3936 284.595 44.7549 284.325C44.1396 284.067 43.6328 283.807 43.2344 283.543C42.8418 283.279 42.5488 282.969 42.3555 282.611C42.168 282.248 42.0742 281.788 42.0742 281.231C42.0742 280.323 42.4258 279.641 43.1289 279.184C43.8379 278.721 44.7842 278.489 45.9678 278.489C46.5771 278.489 47.1572 278.551 47.708 278.674C48.2646 278.797 48.8359 278.993 49.4219 279.263L48.6133 281.196C48.127 280.985 47.667 280.812 47.2334 280.678C46.8057 280.543 46.3691 280.476 45.9238 280.476C45.5312 280.476 45.2354 280.528 45.0361 280.634C44.8369 280.739 44.7373 280.9 44.7373 281.117C44.7373 281.275 44.7871 281.416 44.8867 281.539C44.9922 281.662 45.1914 281.8 45.4844 281.952C45.7832 282.099 46.2197 282.289 46.7939 282.523C47.3506 282.752 47.834 282.992 48.2441 283.244C48.6543 283.49 48.9707 283.798 49.1934 284.167C49.416 284.53 49.5273 285.002 49.5273 285.582Z" fill="#1A67C9"/>
<path d="M32.8867 299H32.1953V296.243C32.1953 296.151 32.1963 296.06 32.1982 295.968C32.2002 295.876 32.2021 295.786 32.2041 295.698C32.208 295.61 32.2129 295.526 32.2188 295.446C32.1777 295.491 32.127 295.54 32.0664 295.593C32.0078 295.646 31.9453 295.7 31.8789 295.757L31.3867 296.149L31.041 295.713L32.3125 294.717H32.8867V299ZM37.0322 295.695C37.0322 295.889 36.9932 296.057 36.915 296.199C36.8369 296.342 36.7295 296.459 36.5928 296.551C36.458 296.641 36.3018 296.705 36.124 296.744V296.765C36.4658 296.808 36.7236 296.915 36.8975 297.087C37.0732 297.259 37.1611 297.486 37.1611 297.77C37.1611 298.018 37.1016 298.239 36.9824 298.435C36.8633 298.628 36.6807 298.78 36.4346 298.892C36.1885 299.003 35.8721 299.059 35.4854 299.059C35.2529 299.059 35.0371 299.04 34.8379 299.003C34.6406 298.966 34.4531 298.906 34.2754 298.824V298.212C34.457 298.302 34.6504 298.371 34.8555 298.42C35.0605 298.469 35.2549 298.493 35.4385 298.493C35.7959 298.493 36.0508 298.427 36.2031 298.294C36.3555 298.159 36.4316 297.974 36.4316 297.737C36.4316 297.585 36.3916 297.46 36.3115 297.362C36.2334 297.265 36.1113 297.191 35.9453 297.143C35.7812 297.094 35.5693 297.069 35.3096 297.069H34.9316V296.516H35.3125C35.5605 296.516 35.7598 296.486 35.9102 296.428C36.0605 296.367 36.1689 296.284 36.2354 296.179C36.3037 296.073 36.3379 295.95 36.3379 295.81C36.3379 295.626 36.2783 295.483 36.1592 295.382C36.04 295.278 35.8633 295.227 35.6289 295.227C35.4844 295.227 35.3525 295.243 35.2334 295.276C35.1162 295.31 35.0078 295.352 34.9082 295.402C34.8086 295.453 34.7139 295.508 34.624 295.566L34.293 295.089C34.4551 294.968 34.6484 294.865 34.873 294.781C35.0977 294.697 35.3594 294.655 35.6582 294.655C36.0977 294.655 36.4365 294.75 36.6748 294.939C36.9131 295.127 37.0322 295.379 37.0322 295.695ZM40.6299 299H37.7295V298.481L38.8398 297.356C39.0547 297.138 39.2314 296.949 39.3701 296.791C39.5088 296.631 39.6113 296.479 39.6777 296.337C39.7461 296.194 39.7803 296.039 39.7803 295.871C39.7803 295.664 39.7207 295.508 39.6016 295.402C39.4824 295.295 39.3252 295.241 39.1299 295.241C38.9443 295.241 38.7725 295.278 38.6143 295.353C38.458 295.425 38.2959 295.528 38.1279 295.663L37.75 295.209C37.8691 295.107 37.9961 295.015 38.1309 294.931C38.2676 294.847 38.4199 294.78 38.5879 294.731C38.7559 294.681 38.9473 294.655 39.1621 294.655C39.4336 294.655 39.668 294.704 39.8652 294.802C40.0625 294.897 40.2139 295.031 40.3193 295.203C40.4268 295.375 40.4805 295.575 40.4805 295.804C40.4805 296.034 40.4346 296.247 40.3428 296.442C40.251 296.638 40.1201 296.831 39.9502 297.022C39.7803 297.212 39.5781 297.418 39.3438 297.641L38.6025 298.364V298.396H40.6299V299ZM41.2861 298.637C41.2861 298.477 41.3271 298.364 41.4092 298.3C41.4932 298.233 41.5947 298.2 41.7139 298.2C41.833 298.2 41.9346 298.233 42.0186 298.3C42.1045 298.364 42.1475 298.477 42.1475 298.637C42.1475 298.793 42.1045 298.906 42.0186 298.977C41.9346 299.045 41.833 299.079 41.7139 299.079C41.5947 299.079 41.4932 299.045 41.4092 298.977C41.3271 298.906 41.2861 298.793 41.2861 298.637ZM45.7041 296.542C45.7041 296.796 45.6855 297.045 45.6484 297.289C45.6133 297.533 45.5508 297.762 45.4609 297.975C45.373 298.188 45.251 298.376 45.0947 298.54C44.9404 298.702 44.7451 298.829 44.5088 298.921C44.2725 299.013 43.9873 299.059 43.6533 299.059C43.5693 299.059 43.4717 299.054 43.3604 299.044C43.251 299.036 43.1611 299.024 43.0908 299.009V298.435C43.165 298.456 43.248 298.474 43.3398 298.487C43.4336 298.499 43.5264 298.505 43.6182 298.505C43.9795 298.505 44.2607 298.438 44.4619 298.303C44.665 298.168 44.8086 297.982 44.8926 297.746C44.9785 297.51 45.0273 297.241 45.0391 296.94H45.0039C44.9473 297.034 44.876 297.12 44.79 297.198C44.7041 297.274 44.5977 297.336 44.4707 297.383C44.3438 297.428 44.1895 297.45 44.0078 297.45C43.7617 297.45 43.5469 297.398 43.3633 297.295C43.1816 297.191 43.04 297.041 42.9385 296.844C42.8389 296.645 42.7891 296.405 42.7891 296.126C42.7891 295.823 42.8467 295.562 42.9619 295.344C43.0771 295.125 43.2402 294.957 43.4512 294.84C43.6621 294.721 43.9102 294.661 44.1953 294.661C44.4102 294.661 44.6084 294.7 44.79 294.778C44.9736 294.854 45.1338 294.972 45.2705 295.13C45.4072 295.286 45.5137 295.482 45.5898 295.719C45.666 295.953 45.7041 296.228 45.7041 296.542ZM44.2041 295.229C43.9873 295.229 43.8105 295.303 43.6738 295.449C43.5371 295.594 43.4688 295.816 43.4688 296.117C43.4688 296.361 43.5273 296.555 43.6445 296.697C43.7617 296.84 43.9414 296.911 44.1836 296.911C44.3516 296.911 44.4961 296.877 44.6172 296.809C44.7402 296.738 44.835 296.649 44.9014 296.542C44.9697 296.435 45.0039 296.325 45.0039 296.214C45.0039 296.099 44.9873 295.983 44.9541 295.868C44.9229 295.753 44.874 295.647 44.8076 295.552C44.7412 295.456 44.6572 295.379 44.5557 295.32C44.4561 295.26 44.3389 295.229 44.2041 295.229ZM48.2676 299H47.5762V296.243C47.5762 296.151 47.5771 296.06 47.5791 295.968C47.5811 295.876 47.583 295.786 47.585 295.698C47.5889 295.61 47.5938 295.526 47.5996 295.446C47.5586 295.491 47.5078 295.54 47.4473 295.593C47.3887 295.646 47.3262 295.7 47.2598 295.757L46.7676 296.149L46.4219 295.713L47.6934 294.717H48.2676V299Z" fill="#1A67C9"/>
<rect x="14.5" y="110.5" width="51" height="51" stroke="#1A67C9" stroke-width="3"/>
<rect x="16" y="112" width="48" height="48" fill="#1A67C9" fill-opacity="0.12"/>
<rect x="16" y="112" width="48" height="48" stroke="white" stroke-width="2"/>
<path d="M38.2905 124H37.2534V119.865C37.2534 119.727 37.2549 119.589 37.2578 119.452C37.2607 119.314 37.2637 119.179 37.2666 119.047C37.2725 118.916 37.2798 118.79 37.2886 118.669C37.2271 118.737 37.1509 118.81 37.0601 118.889C36.9722 118.968 36.8784 119.05 36.7788 119.135L36.0405 119.724L35.522 119.069L37.4292 117.575H38.2905V124ZM43.4409 124H42.4038V119.865C42.4038 119.727 42.4053 119.589 42.4082 119.452C42.4111 119.314 42.4141 119.179 42.417 119.047C42.4229 118.916 42.4302 118.79 42.439 118.669C42.3774 118.737 42.3013 118.81 42.2104 118.889C42.1226 118.968 42.0288 119.05 41.9292 119.135L41.1909 119.724L40.6724 119.069L42.5796 117.575H43.4409V124Z" fill="#1A67C9"/>
<path d="M40.2549 144.5H36.792L31.2021 134.779H31.123C31.1465 135.184 31.167 135.591 31.1846 136.001C31.2021 136.411 31.2197 136.821 31.2373 137.231C31.2549 137.636 31.2725 138.043 31.29 138.453V144.5H28.8555V131.65H32.292L37.873 141.274H37.9346C37.9229 140.876 37.9082 140.48 37.8906 140.088C37.873 139.695 37.8555 139.303 37.8379 138.91C37.8262 138.518 37.8145 138.125 37.8027 137.732V131.65H40.2549V144.5ZM47.3125 134.472C48.6309 134.472 49.6416 134.759 50.3447 135.333C51.0479 135.907 51.3994 136.78 51.3994 137.952V144.5H49.5273L49.0088 143.164H48.9385C48.6572 143.516 48.3701 143.803 48.0771 144.025C47.7842 144.248 47.4473 144.412 47.0664 144.518C46.6855 144.623 46.2227 144.676 45.6777 144.676C45.0977 144.676 44.5762 144.564 44.1133 144.342C43.6562 144.119 43.2959 143.779 43.0322 143.322C42.7686 142.859 42.6367 142.273 42.6367 141.564C42.6367 140.521 43.0029 139.754 43.7354 139.262C44.4678 138.764 45.5664 138.488 47.0312 138.436L48.7363 138.383V137.952C48.7363 137.437 48.6016 137.059 48.332 136.818C48.0625 136.578 47.6875 136.458 47.207 136.458C46.7324 136.458 46.2666 136.525 45.8096 136.66C45.3525 136.795 44.8955 136.965 44.4385 137.17L43.5508 135.359C44.0723 135.084 44.6553 134.867 45.2998 134.709C45.9502 134.551 46.6211 134.472 47.3125 134.472ZM48.7363 139.947L47.6992 139.982C46.832 140.006 46.2285 140.161 45.8887 140.448C45.5547 140.735 45.3877 141.113 45.3877 141.582C45.3877 141.992 45.5078 142.285 45.748 142.461C45.9883 142.631 46.3018 142.716 46.6885 142.716C47.2627 142.716 47.7461 142.546 48.1387 142.206C48.5371 141.866 48.7363 141.383 48.7363 140.756V139.947Z" fill="#1A67C9"/>
<path d="M35.4795 155H32.5791V154.481L33.6895 153.356C33.9043 153.138 34.0811 152.949 34.2197 152.791C34.3584 152.631 34.4609 152.479 34.5273 152.337C34.5957 152.194 34.6299 152.039 34.6299 151.871C34.6299 151.664 34.5703 151.508 34.4512 151.402C34.332 151.295 34.1748 151.241 33.9795 151.241C33.7939 151.241 33.6221 151.278 33.4639 151.353C33.3076 151.425 33.1455 151.528 32.9775 151.663L32.5996 151.209C32.7188 151.107 32.8457 151.015 32.9805 150.931C33.1172 150.847 33.2695 150.78 33.4375 150.731C33.6055 150.681 33.7969 150.655 34.0117 150.655C34.2832 150.655 34.5176 150.704 34.7148 150.802C34.9121 150.897 35.0635 151.031 35.1689 151.203C35.2764 151.375 35.3301 151.575 35.3301 151.804C35.3301 152.034 35.2842 152.247 35.1924 152.442C35.1006 152.638 34.9697 152.831 34.7998 153.022C34.6299 153.212 34.4277 153.418 34.1934 153.641L33.4521 154.364V154.396H35.4795V155ZM38.9131 155H36.0127V154.481L37.123 153.356C37.3379 153.138 37.5146 152.949 37.6533 152.791C37.792 152.631 37.8945 152.479 37.9609 152.337C38.0293 152.194 38.0635 152.039 38.0635 151.871C38.0635 151.664 38.0039 151.508 37.8848 151.402C37.7656 151.295 37.6084 151.241 37.4131 151.241C37.2275 151.241 37.0557 151.278 36.8975 151.353C36.7412 151.425 36.5791 151.528 36.4111 151.663L36.0332 151.209C36.1523 151.107 36.2793 151.015 36.4141 150.931C36.5508 150.847 36.7031 150.78 36.8711 150.731C37.0391 150.681 37.2305 150.655 37.4453 150.655C37.7168 150.655 37.9512 150.704 38.1484 150.802C38.3457 150.897 38.4971 151.031 38.6025 151.203C38.71 151.375 38.7637 151.575 38.7637 151.804C38.7637 152.034 38.7178 152.247 38.626 152.442C38.5342 152.638 38.4033 152.831 38.2334 153.022C38.0635 153.212 37.8613 153.418 37.627 153.641L36.8857 154.364V154.396H38.9131V155ZM39.5693 154.637C39.5693 154.477 39.6104 154.364 39.6924 154.3C39.7764 154.233 39.8779 154.2 39.9971 154.2C40.1162 154.2 40.2178 154.233 40.3018 154.3C40.3877 154.364 40.4307 154.477 40.4307 154.637C40.4307 154.793 40.3877 154.906 40.3018 154.977C40.2178 155.045 40.1162 155.079 39.9971 155.079C39.8779 155.079 39.7764 155.045 39.6924 154.977C39.6104 154.906 39.5693 154.793 39.5693 154.637ZM43.9873 152.542C43.9873 152.796 43.9688 153.045 43.9316 153.289C43.8965 153.533 43.834 153.762 43.7441 153.975C43.6562 154.188 43.5342 154.376 43.3779 154.54C43.2236 154.702 43.0283 154.829 42.792 154.921C42.5557 155.013 42.2705 155.059 41.9365 155.059C41.8525 155.059 41.7549 155.054 41.6436 155.044C41.5342 155.036 41.4443 155.024 41.374 155.009V154.435C41.4482 154.456 41.5312 154.474 41.623 154.487C41.7168 154.499 41.8096 154.505 41.9014 154.505C42.2627 154.505 42.5439 154.438 42.7451 154.303C42.9482 154.168 43.0918 153.982 43.1758 153.746C43.2617 153.51 43.3105 153.241 43.3223 152.94H43.2871C43.2305 153.034 43.1592 153.12 43.0732 153.198C42.9873 153.274 42.8809 153.336 42.7539 153.383C42.627 153.428 42.4727 153.45 42.291 153.45C42.0449 153.45 41.8301 153.398 41.6465 153.295C41.4648 153.191 41.3232 153.041 41.2217 152.844C41.1221 152.645 41.0723 152.405 41.0723 152.126C41.0723 151.823 41.1299 151.562 41.2451 151.344C41.3604 151.125 41.5234 150.957 41.7344 150.84C41.9453 150.721 42.1934 150.661 42.4785 150.661C42.6934 150.661 42.8916 150.7 43.0732 150.778C43.2568 150.854 43.417 150.972 43.5537 151.13C43.6904 151.286 43.7969 151.482 43.873 151.719C43.9492 151.953 43.9873 152.228 43.9873 152.542ZM42.4873 151.229C42.2705 151.229 42.0938 151.303 41.957 151.449C41.8203 151.594 41.752 151.816 41.752 152.117C41.752 152.361 41.8105 152.555 41.9277 152.697C42.0449 152.84 42.2246 152.911 42.4668 152.911C42.6348 152.911 42.7793 152.877 42.9004 152.809C43.0234 152.738 43.1182 152.649 43.1846 152.542C43.2529 152.435 43.2871 152.325 43.2871 152.214C43.2871 152.099 43.2705 151.983 43.2373 151.868C43.2061 151.753 43.1572 151.647 43.0908 151.552C43.0244 151.456 42.9404 151.379 42.8389 151.32C42.7393 151.26 42.6221 151.229 42.4873 151.229ZM47.4209 152.542C47.4209 152.796 47.4023 153.045 47.3652 153.289C47.3301 153.533 47.2676 153.762 47.1777 153.975C47.0898 154.188 46.9678 154.376 46.8115 154.54C46.6572 154.702 46.4619 154.829 46.2256 154.921C45.9893 155.013 45.7041 155.059 45.3701 155.059C45.2861 155.059 45.1885 155.054 45.0771 155.044C44.9678 155.036 44.8779 155.024 44.8076 155.009V154.435C44.8818 154.456 44.9648 154.474 45.0566 154.487C45.1504 154.499 45.2432 154.505 45.335 154.505C45.6963 154.505 45.9775 154.438 46.1787 154.303C46.3818 154.168 46.5254 153.982 46.6094 153.746C46.6953 153.51 46.7441 153.241 46.7559 152.94H46.7207C46.6641 153.034 46.5928 153.12 46.5068 153.198C46.4209 153.274 46.3145 153.336 46.1875 153.383C46.0605 153.428 45.9062 153.45 45.7246 153.45C45.4785 153.45 45.2637 153.398 45.0801 153.295C44.8984 153.191 44.7568 153.041 44.6553 152.844C44.5557 152.645 44.5059 152.405 44.5059 152.126C44.5059 151.823 44.5635 151.562 44.6787 151.344C44.7939 151.125 44.957 150.957 45.168 150.84C45.3789 150.721 45.627 150.661 45.9121 150.661C46.127 150.661 46.3252 150.7 46.5068 150.778C46.6904 150.854 46.8506 150.972 46.9873 151.13C47.124 151.286 47.2305 151.482 47.3066 151.719C47.3828 151.953 47.4209 152.228 47.4209 152.542ZM45.9209 151.229C45.7041 151.229 45.5273 151.303 45.3906 151.449C45.2539 151.594 45.1855 151.816 45.1855 152.117C45.1855 152.361 45.2441 152.555 45.3613 152.697C45.4785 152.84 45.6582 152.911 45.9004 152.911C46.0684 152.911 46.2129 152.877 46.334 152.809C46.457 152.738 46.5518 152.649 46.6182 152.542C46.6865 152.435 46.7207 152.325 46.7207 152.214C46.7207 152.099 46.7041 151.983 46.6709 151.868C46.6396 151.753 46.5908 151.647 46.5244 151.552C46.458 151.456 46.374 151.379 46.2725 151.32C46.1729 151.26 46.0557 151.229 45.9209 151.229Z" fill="#1A67C9"/>
</svg>
