<svg xmlns="http://www.w3.org/2000/svg" width="48" height="48"><path d="m40.644 19.747-3.772-9.054A5.984 5.984 0 0 0 31.333 7H16.667a5.982 5.982 0 0 0-5.538 3.692l-3.773 9.055C5.37 20.923 4 23.37 4 26.2V38c0 1.654 1.27 3 2.833 3h3.334C11.729 41 13 39.654 13 38v-2h22v2c0 1.654 1.27 3 2.833 3h3.334C42.729 41 44 39.654 44 38V26.2c0-2.83-1.372-5.277-3.356-6.453ZM14.821 12.23A1.994 1.994 0 0 1 16.667 11h14.666c.81 0 1.535.483 1.847 1.231L36 19H12l2.821-6.77ZM12 31a3 3 0 1 1 0-6 3 3 0 0 1 0 6Zm24 0a3 3 0 1 1 0-6 3 3 0 0 1 0 6Z"/></svg>