<svg xmlns="http://www.w3.org/2000/svg" width="48" height="48"><path d="M9.828 7H17a2 2 0 0 0 0-4H5c-.131 0-.262.014-.392.04-.06.011-.115.034-.173.05-.067.02-.134.036-.2.063-.068.028-.13.067-.195.103-.05.027-.101.049-.149.08-.22.147-.408.336-.554.555-.033.049-.055.102-.083.153-.035.063-.073.124-.101.191-.027.066-.043.134-.063.202-.017.057-.039.112-.05.171-.026.13-.04.26-.04.392v12a2 2 0 0 0 4 0V9.828l9.586 9.586c.39.39.902.586 1.414.586s1.023-.195 1.414-.586a2 2 0 0 0 0-2.828L9.828 7ZM44.96 4.608c-.011-.059-.033-.114-.05-.171-.02-.068-.036-.136-.063-.202-.028-.067-.066-.128-.1-.192-.029-.05-.051-.103-.084-.152a2.007 2.007 0 0 0-.554-.555c-.048-.031-.1-.053-.149-.08-.064-.036-.127-.075-.196-.103-.065-.027-.132-.042-.2-.062-.057-.017-.113-.04-.172-.052A2 2 0 0 0 43 3H31a2 2 0 0 0 0 4h7.172l-9.586 9.587a2 2 0 1 0 2.828 2.828L41 9.828V17a2 2 0 0 0 4 0V5c0-.131-.014-.262-.04-.392ZM43 29a2 2 0 0 0-2 2v7.172l-9.586-9.586a2 2 0 1 0-2.828 2.828L38.172 41H31a2 2 0 0 0 0 4h12c.131 0 .262-.014.392-.04.06-.011.115-.034.173-.05.067-.02.134-.036.2-.063.068-.028.13-.067.195-.103.05-.027.101-.049.149-.08.22-.147.408-.336.554-.555.033-.049.055-.102.083-.153.035-.063.073-.124.101-.191.027-.066.043-.134.063-.202.017-.057.039-.112.05-.171.026-.13.04-.26.04-.392V31a2 2 0 0 0-2-2ZM16.586 28.586 7 38.172V31a2 2 0 0 0-4 0v12c0 .131.014.262.04.392.011.059.033.114.05.17.02.069.036.137.063.203.028.067.066.128.1.191.029.051.051.104.084.153.146.22.335.408.554.554.048.032.1.054.149.081.064.036.127.075.195.103.066.027.133.042.2.062.058.017.113.04.173.051.13.026.26.04.392.04h12a2 2 0 0 0 0-4H9.828l9.586-9.586a2 2 0 1 0-2.828-2.828Z"/></svg>