<svg xmlns="http://www.w3.org/2000/svg" width="48" height="48"><path d="M42 34a2 2 0 0 0-2 2v4H8v-4a2 2 0 0 0-4 0v8h40v-8a2 2 0 0 0-2-2Z"/><path d="M22.585 35.413c.093.093.196.177.306.25.048.032.1.054.149.081.064.036.127.075.195.103.065.027.133.042.2.062.058.017.113.04.173.052a2.009 2.009 0 0 0 .784 0c.06-.012.115-.035.173-.052.067-.02.134-.035.2-.062.068-.028.13-.067.195-.103.05-.027.101-.049.148-.08a2 2 0 0 0 .307-.251l15.999-15.999a2 2 0 1 0-2.828-2.828L26 29.171V6a2 2 0 0 0-4 0v23.171L9.414 16.586a2 2 0 1 0-2.828 2.828l15.999 15.999Z"/></svg>