<svg xmlns="http://www.w3.org/2000/svg" width="48" height="48"><path d="M25.415 12.587a2.012 2.012 0 0 0-.306-.25c-.05-.034-.105-.057-.157-.086-.062-.034-.121-.07-.187-.098-.067-.028-.136-.044-.205-.064-.057-.016-.11-.038-.168-.05a2.01 2.01 0 0 0-.784 0c-.058.012-.112.034-.168.05-.07.02-.139.036-.205.064-.066.027-.126.065-.188.099-.052.028-.106.051-.157.085a2 2 0 0 0-.305.25l-16 15.999a2 2 0 1 0 2.829 2.828L22 18.828V42a2 2 0 0 0 4 0V18.829l12.586 12.585c.39.39.902.586 1.414.586s1.024-.195 1.414-.586a2 2 0 0 0 0-2.828L25.415 12.587Z"/><path d="M4 4v8a2 2 0 0 0 4 0V8h32v4a2 2 0 0 0 4 0V4H4Z"/></svg>