<svg xmlns="http://www.w3.org/2000/svg" width="48" height="48"><path d="M24 4h-.011C12.949 4 4 12.953 4 23.997c0 9.289 6.33 17.098 14.91 19.347l.139.03c1.488.398 3.197.626 4.96.626C35.049 44 44 35.046 44 24S35.05 4 24.009 4H24Zm-4.464 35.576c-.006-1.227-.01-2.455-.013-3.683l-.54.096a6.568 6.568 0 0 1-1.31.082h.011a9.698 9.698 0 0 1-1.69-.178l.061.01a3.592 3.592 0 0 1-1.577-.726l.006.006a3.058 3.058 0 0 1-1.025-1.457l-.005-.022-.235-.552a5.996 5.996 0 0 0-.748-1.24l.01.014a2.87 2.87 0 0 0-1.004-.905l-.015-.008-.164-.12a1.704 1.704 0 0 1-.303-.287l-.002-.002a1.332 1.332 0 0 1-.208-.328l-.003-.008c-.047-.113-.008-.205.117-.277.216-.09.451-.127.685-.107h-.005l.468.072a3.38 3.38 0 0 1 1.168.583l-.007-.006c.466.33.847.747 1.126 1.23l.01.019a4.236 4.236 0 0 0 1.289 1.494l.012.008c.446.325.98.506 1.532.517h.093c.441 0 .871-.043 1.288-.127l-.042.007a4.608 4.608 0 0 0 1.082-.373l-.027.012a3.925 3.925 0 0 1 1.149-2.475 15.755 15.755 0 0 1-2.513-.458l.11.025a9.412 9.412 0 0 1-2.247-.962l.044.024a6.38 6.38 0 0 1-1.877-1.597l-.01-.014a7.737 7.737 0 0 1-1.217-2.468l-.013-.055a12.013 12.013 0 0 1-.48-3.616v.01a7.085 7.085 0 0 1 1.857-4.957l-.005.005a6.48 6.48 0 0 1-.394-2.246c0-.96.205-1.874.574-2.698l-.017.042c.696-.116 1.41 0 2.033.333l-.017-.008c.764.293 1.409.604 2.023.96l-.067-.035c.414.256.746.472.996.649 1.349-.397 2.898-.625 4.5-.625s3.152.229 4.617.654l-.116-.03.89-.576c.656-.409 1.35-.753 2.071-1.03l.085-.028c.416-.21.876-.318 1.342-.317.198 0 .39.02.577.055l-.02-.003c.364.788.576 1.71.576 2.682 0 .797-.142 1.56-.402 2.265l.015-.045a7.084 7.084 0 0 1 1.853 4.789l-.001.171v-.008l.001.19c0 1.22-.176 2.4-.504 3.515l.023-.087a7.524 7.524 0 0 1-1.255 2.543l.013-.019a6.641 6.641 0 0 1-1.867 1.582l-.032.017a9.241 9.241 0 0 1-2.137.92l-.067.018c-.682.188-1.498.34-2.335.427l-.067.006a4.326 4.326 0 0 1 1.217 3.43l.001-.017v5.315c-1.34.409-2.88.644-4.476.644a15.89 15.89 0 0 1-4.577-.67l.113.03h-.002Z"/></svg>