<svg xmlns="http://www.w3.org/2000/svg" width="48" height="48"><path d="M24 4C12.972 4 4 12.972 4 24s8.972 20 20 20 20-8.972 20-20S35.028 4 24 4Zm13.835 12h-5.393a26.904 26.904 0 0 0-3.038-7.04A16.064 16.064 0 0 1 37.835 16ZM40 24c0 1.383-.195 2.719-.527 4h-6.238c.162-1.26.265-2.585.265-4s-.103-2.74-.265-4h6.238c.332 1.281.527 2.617.527 4Zm-21.207 4c-.183-1.241-.293-2.57-.293-4s.11-2.759.293-4h10.414c.183 1.241.293 2.57.293 4s-.11 2.759-.293 4H18.793Zm9.481 4c-1.264 3.919-3.19 6.464-4.274 7.666-1.086-1.205-3.01-3.75-4.274-7.666h8.548Zm-8.548-16c1.263-3.916 3.188-6.46 4.274-7.665 1.087 1.205 3.01 3.75 4.274 7.665h-8.548Zm-1.13-7.04A26.902 26.902 0 0 0 15.557 16h-5.392a16.064 16.064 0 0 1 8.431-7.04ZM8.526 20h6.238c-.161 1.26-.264 2.585-.264 4s.103 2.74.264 4H8.527C8.195 26.719 8 25.383 8 24s.195-2.719.527-4Zm1.639 12h5.393a26.904 26.904 0 0 0 3.038 7.04A16.064 16.064 0 0 1 10.165 32Zm19.239 7.04A26.903 26.903 0 0 0 32.443 32h5.392a16.063 16.063 0 0 1-8.431 7.04Z"/></svg>