<svg data-name="Icon" xmlns="http://www.w3.org/2000/svg" width="48" height="48"><g data-name="Export"><path d="M26 2.5C15.923 2.5 7.607 10.184 6.602 20h3.032C10.626 11.844 17.58 5.5 26 5.5c9.098 0 16.5 7.402 16.5 16.5 0 8.42-6.344 15.374-14.5 16.366v3.032C37.816 40.393 45.5 32.077 45.5 22c0-10.752-8.748-19.5-19.5-19.5Z"/><path d="M33 22c0 3.164-2.112 5.842-5 6.705v6.125c6.22-.967 11-6.344 11-12.83 0-7.168-5.832-13-13-13-6.486 0-11.863 4.78-12.83 11h6.125c.863-2.888 3.54-5 6.705-5 3.86 0 7 3.14 7 7Z"/><path d="m13.172 30.586-9.293 9.293L8.12 44.12l9.293-9.293L22 44l4-22-22 4 9.172 4.586z"/></g></svg>