<svg xmlns="http://www.w3.org/2000/svg" width="48" height="48"><path d="m43.828 41.188-8-18a2 2 0 0 0-3.656 0l-8 18a2 2 0 0 0 1.016 2.64 1.996 1.996 0 0 0 2.64-1.016L29.522 39h8.956l1.694 3.813a2.001 2.001 0 0 0 2.64 1.014 2 2 0 0 0 1.016-2.64ZM31.3 35l2.7-6.075L36.7 35h-5.4ZM26.226 31.642a47.16 47.16 0 0 1-3.173-2.265C28.357 24.183 31.376 18.27 31.906 12H36a2 2 0 0 0 0-4H21.236L19.79 5.106a2 2 0 1 0-3.578 1.789L16.764 8H4a2 2 0 0 0 0 4h4.094c.53 6.27 3.549 12.183 8.853 17.377-5.717 4.46-11.536 6.708-11.65 6.751a2 2 0 0 0 1.405 3.745c.257-.096 6.352-2.41 12.52-7.164.267-.206.519-.418.778-.627.26.21.511.42.779.627a51.427 51.427 0 0 0 3.794 2.652l1.653-3.72ZM20 26.743c-3.937-3.771-7.272-8.685-7.888-14.743h15.775c-.615 6.058-3.95 10.972-7.887 14.743Z"/></svg>