<svg xmlns="http://www.w3.org/2000/svg" width="48" height="48"><path d="m44.779 35.548-.305-15.175C42.314 10.993 30.115 3.96 22.517 2L9.427 9.821c-7.102 6.53-7.072 20.6-4.994 28.132 2.12-.33 4.22-.756 6.3-1.266-2.066.515-4.15.966-6.263 1.295l13.357 7.362c9.201 2.857 21.43-4.208 26.952-9.759a69.437 69.437 0 0 0-1.91-2.242c.644.727 1.293 1.451 1.91 2.205Zm-5.125-5.609a71.377 71.377 0 0 1 0 0Zm-2.838-2.65ZM19.988 9.877a.387.387 0 0 1-.003.012l.003-.012Zm-.891 3.93-.04.204.04-.204Zm-6.632 22.454c.102-.028.203-.059.304-.087-.101.028-.202.059-.304.087Zm3.758-1.153Zm1.86-.674c-.614-6.298-.352-12.623.707-18.819 5.808 2.612 11.202 6.002 16.085 10.025-5.196 3.682-10.851 6.617-16.791 8.794Zm22.933-3.096c.473.494.948.984 1.407 1.492-.457-.508-.935-.997-1.407-1.492Z"/></svg>