<svg xmlns="http://www.w3.org/2000/svg" width="48" height="48"><path d="M25.093 16.994a3.04 3.04 0 0 0-.552.024l.015-.002h.001-4.446v6.272h4.446c1.68.184 3.194-1.012 3.381-2.672a3.01 3.01 0 0 0 .013-.516c.078-1.637-1.2-3.027-2.857-3.106Z"/><path d="M40 4H8a4 4 0 0 0-4 4v32a4 4 0 0 0 4 4h32a4 4 0 0 0 4-4V8a4 4 0 0 0-4-4ZM26.632 27.999a7.753 7.753 0 0 1-.879-.016l.026.001H20.11V36H14V12.019h10.932a9.247 9.247 0 0 1 6.621 2.216 7.81 7.81 0 0 1 2.441 5.909c.16 4.177-3.134 7.693-7.362 7.855Z"/></svg>