<svg xmlns="http://www.w3.org/2000/svg" width="48" height="48"><path d="M2 16v18h12l12 12V2L14 16H2zM33.437 16.275a1.854 1.854 0 0 0-2.632 0c-.73.73-.73 1.912 0 2.642a8.552 8.552 0 0 1 2.52 6.08 8.565 8.565 0 0 1-2.52 6.088c-.73.731-.73 1.913 0 2.64.355.366.84.55 1.318.55.476 0 .96-.184 1.314-.55a12.296 12.296 0 0 0 0-17.45Z"/><path d="M39.753 9.977a1.847 1.847 0 0 0-2.631 0c-.73.72-.73 1.901 0 2.632A17.465 17.465 0 0 1 42.263 25c0 4.493-1.704 8.962-5.141 12.396-.73.728-.73 1.91 0 2.64a1.877 1.877 0 0 0 2.632 0A21.186 21.186 0 0 0 46 25a21.137 21.137 0 0 0-6.246-15.023Z"/></svg>