<svg xmlns="http://www.w3.org/2000/svg" width="48" height="48"><path d="M43.795 16.885c-5.366 6.46-10.464 13.19-16.636 19.113 5.099-9.153 12.88-16.69 18.246-25.574.805-1.346-2.952-3.23-3.757-2.423l-3.22 3.23c.537-1.345-2.95-2.96-3.756-2.153-.805.808-1.878 1.615-2.683 2.423.537-.808 1.342-1.615 1.878-2.423.805-1.346-2.683-3.23-3.756-2.423-1.61 1.346-2.952 2.692-4.293 4.038 1.878-2.692 3.756-5.384 5.366-8.076.805-1.346-2.683-3.23-3.756-2.423-6.976 5.384-12.611 12.384-19.05 18.037 3.22-4.846 7.244-9.96 9.927-14.537.805-1.346-3.22-3.5-4.025-2.154C9.72 8.54 2.743 16.346.06 24.153c-.537 1.616 2.683 2.962 3.756 2.423 3.757-2.154 7.245-4.846 10.465-8.076-3.489 4.576-6.708 9.153-9.66 13.999-.805 1.346 2.415 2.96 3.757 2.422-1.074 1.346-1.879 2.962-2.952 4.308-.805 1.346 2.683 2.96 3.757 2.422.268-.269.536-.269.804-.538-.804 1.346-1.61 2.423-2.414 3.769-.805 1.346 2.951 3.23 3.756 2.423 3.488-3.5 6.708-6.73 10.196-9.96-.537 1.614-1.342 3.23-1.61 4.845-.537 1.346 2.683 3.23 3.756 2.422.805-.538 1.61-1.076 2.415-1.884-.536.808-1.073 1.884-1.61 2.692-.805 1.346 2.952 3.5 4.025 2.154 5.098-5.923 9.391-12.653 16.099-16.96 1.341-.808-1.61-2.961-3.22-2.692 2.147-2.961 4.293-6.192 6.44-9.153 1.073-.807-2.952-2.961-4.025-1.884Z"/></svg>