<svg xmlns="http://www.w3.org/2000/svg" width="48" height="48"><path d="M23.997 0c13.867 0 24 10.667 24 24s-10.133 24-24 24-24-10.667-24-24 10.134-24 24-24Zm0 43.733c11.467 0 19.467-8.8 19.467-19.733S35.197 4.267 23.997 4.267c-11.466 0-19.466 8.8-19.466 19.733s8 19.733 19.466 19.733Zm6.934-14.666c-1.6 1.066-3.2 1.6-5.067 1.6-3.467 0-5.867-2.667-5.867-6.934s2.133-6.933 5.6-6.933c1.867 0 3.467.8 4.8 1.6l.534-4c-1.6-1.067-3.2-1.6-5.867-1.6-5.867 0-10.133 4.267-10.133 10.933 0 6.4 4 10.667 10.133 10.667 2.4 0 4.533-.533 6.133-1.6l-.267-3.733Z"/></svg>