<svg xmlns="http://www.w3.org/2000/svg" width="48" height="48"><path d="M24 0c13.867 0 24 10.667 24 24S37.867 48 24 48 0 37.333 0 24 10.133 0 24 0Zm0 43.733c11.467 0 19.733-8.8 19.733-19.733S35.467 4.267 24 4.267 4.533 13.067 4.533 24s8 19.733 19.467 19.733ZM28.533 23.2c1.867-.8 2.934-2.133 2.934-4.533 0-3.467-2.667-5.334-7.2-5.334H16.8v20.8H24c5.067 0 8.267-1.866 8.267-6.133 0-2.667-1.6-4.267-3.734-4.8Zm-5.066-1.333h-2.134V16.8h2.4c2.134 0 3.2.8 3.2 2.4 0 1.6-1.066 2.667-3.466 2.667Zm.266 8.533h-2.666v-5.6h2.4c2.4 0 4 1.067 4 2.933.266 1.867-1.067 2.667-3.734 2.667Z"/></svg>