<svg xmlns="http://www.w3.org/2000/svg" width="48" height="48"><path d="M11.015 37.53c-1.125 1.999.32 4.47 2.614 4.47H22v-8h-9l-1.985 3.53ZM17.732 29.47 14.913 18.53l-10.72 2.876 3.359 2.001-3.04 5.37a4 4 0 0 0 .16 4.175l3.641 5.461 6.145-10.894 3.274 1.953ZM15.986 8.667l-3.469 6.092 6.855 3.954 3.713-6.605-1.86-3.397c-1.128-2.06-4.077-2.084-5.238-.044ZM43.604 27.518l-3.566-6.275-6.701 4.05L37.17 32h3.826c2.3 0 3.744-2.482 2.608-4.482Z"/><path d="m32 30-8 8 8 8v-4h4.461a4 4 0 0 0 3.593-2.24L42.874 34H32v-4ZM24.553 18.5l11 3 2.5-11-3.293 1.952-2.53-4.437A4 4 0 0 0 28.755 6h-6.752l5.977 10.469-3.428 2.031Z"/></svg>