<svg data-name="Icon" xmlns="http://www.w3.org/2000/svg" width="48" height="48"><g data-name="Export"><path d="M45.228 41.14 31.5 21.527V7.5H34a1.5 1.5 0 0 0 0-3H14a1.5 1.5 0 0 0 0 3h2.5v14.027L2.771 41.14A1.499 1.499 0 0 0 4 43.5h40a1.499 1.499 0 0 0 1.229-2.36ZM6.881 40.5l12.347-17.64c.003-.003.004-.007.006-.01.04-.058.072-.121.104-.184.012-.026.03-.05.04-.076.02-.045.03-.093.045-.14.016-.047.035-.094.045-.142.006-.027.005-.056.01-.084.01-.07.02-.141.02-.212L19.5 22V7.5h9V22l.001.011c0 .072.01.142.022.213.004.028.003.057.01.084.01.048.028.095.043.142.015.047.026.095.045.14.012.026.029.05.042.077a1.5 1.5 0 0 0 .102.183c.003.003.004.007.006.01L41.12 40.5H6.881Z"/><path d="M26 16h-4v8L12 38h24L26 24v-8z"/></g></svg>