<svg xmlns="http://www.w3.org/2000/svg" width="48" height="48"><path d="M42 20h-3.556c-.33-1.196-.8-2.332-1.399-3.388l2.512-2.511a2 2 0 0 0 0-2.828l-2.83-2.83a2 2 0 0 0-2.828 0l-2.511 2.512A14.894 14.894 0 0 0 28 9.556V6a2 2 0 0 0-2-2h-4a2 2 0 0 0-2 2v3.556c-1.196.33-2.332.8-3.388 1.399l-2.511-2.512a2 2 0 0 0-2.828 0l-2.83 2.83a2 2 0 0 0 0 2.828l2.512 2.511A14.894 14.894 0 0 0 9.556 20H6a2 2 0 0 0-2 2v4a2 2 0 0 0 2 2h3.556c.33 1.196.8 2.332 1.399 3.388l-2.512 2.511a2 2 0 0 0 0 2.828l2.83 2.83c.39.39.902.585 1.414.585s1.023-.195 1.414-.585l2.511-2.512c1.056.6 2.192 1.068 3.388 1.399V42a2 2 0 0 0 2 2h4a2 2 0 0 0 2-2v-3.556c1.196-.33 2.332-.8 3.388-1.399l2.512 2.512c.39.39.902.585 1.414.585s1.023-.195 1.414-.585l2.829-2.83a2 2 0 0 0 0-2.828l-2.512-2.511a14.894 14.894 0 0 0 1.4-3.388H42a2 2 0 0 0 2-2v-4a2 2 0 0 0-2-2ZM24 31a7 7 0 1 1 0-14 7 7 0 0 1 0 14Z"/></svg>