<svg xmlns="http://www.w3.org/2000/svg" width="48" height="48"><path d="M18 4a2 2 0 0 0-2 2v7.172L6.414 3.586a2 2 0 1 0-2.828 2.828L13.172 16H6a2 2 0 0 0 0 4h12c.131 0 .262-.014.392-.04.059-.011.113-.033.17-.05.068-.02.137-.036.203-.063.067-.028.127-.066.19-.1.051-.028.105-.05.154-.084.22-.146.408-.335.555-.554.031-.048.053-.1.08-.149.036-.064.075-.127.103-.195.027-.065.043-.133.062-.2.018-.058.04-.113.052-.173A2 2 0 0 0 20 18V6a2 2 0 0 0-2-2ZM28.09 18.565c.02.067.036.135.063.2.028.068.067.13.103.195.027.05.049.101.08.149.147.219.336.407.555.554.05.033.103.056.155.084.062.034.123.072.19.1.065.027.134.043.202.063.057.017.111.039.17.05.13.026.26.04.392.04h12a2 2 0 0 0 0-4h-7.172l9.586-9.586a2 2 0 1 0-2.828-2.828L32 13.172V6a2 2 0 0 0-4 0v12c0 .131.014.262.04.392.012.06.034.115.051.173ZM34.828 32H42a2 2 0 0 0 0-4H30a2.01 2.01 0 0 0-.392.04c-.058.011-.112.033-.168.05-.069.02-.139.035-.205.063-.066.027-.125.065-.187.099-.053.028-.107.051-.157.085a2.01 2.01 0 0 0-.554.554c-.032.048-.054.1-.081.149-.036.064-.075.127-.103.195-.027.065-.042.133-.062.2-.017.058-.04.113-.052.173-.025.13-.04.26-.04.392v12a2 2 0 0 0 4 0v-7.172l9.587 9.586c.39.39.902.586 1.414.586s1.024-.196 1.414-.586a2 2 0 0 0 0-2.828L34.828 32ZM19.91 29.435c-.02-.067-.036-.135-.063-.2-.028-.068-.067-.13-.103-.195-.027-.05-.049-.101-.08-.149a2.008 2.008 0 0 0-.555-.554c-.05-.034-.105-.057-.158-.086-.061-.033-.12-.07-.186-.098-.067-.027-.137-.043-.206-.063-.056-.017-.11-.039-.167-.05A2.01 2.01 0 0 0 18 28H6a2 2 0 0 0 0 4h7.172l-9.586 9.586a2 2 0 1 0 2.828 2.828L16 34.828V42a2 2 0 0 0 4 0V30c0-.131-.014-.262-.04-.392-.011-.06-.034-.115-.05-.173Z"/></svg>