<svg xmlns="http://www.w3.org/2000/svg" width="48" height="48"><path d="M10.828 26H34a2 2 0 0 0 0-4H10.828L23.414 9.414a2 2 0 1 0-2.828-2.828L4.587 22.585a2.014 2.014 0 0 0-.25.306c-.032.048-.054.1-.081.149-.036.064-.075.127-.103.195-.027.065-.042.133-.062.2-.017.058-.04.113-.051.173a2.004 2.004 0 0 0 0 .783c.011.06.034.116.05.174.02.067.036.134.063.2.028.068.067.13.103.195.027.05.049.101.08.148.074.11.158.214.251.307l15.999 15.999c.39.39.902.586 1.414.586s1.023-.196 1.414-.586a2 2 0 0 0 0-2.828L10.828 26Z"/><path d="M36 4a2 2 0 0 0 0 4h4v32h-4a2 2 0 0 0 0 4h8V4h-8Z"/></svg>