<svg xmlns="http://www.w3.org/2000/svg" width="48" height="48"><path d="M35.413 25.415c.093-.093.177-.196.25-.306.034-.05.057-.105.086-.157.033-.062.07-.121.098-.187.027-.067.043-.136.064-.205.016-.057.038-.11.05-.168a2.01 2.01 0 0 0 0-.784c-.012-.058-.034-.112-.05-.168-.02-.07-.036-.139-.064-.205-.027-.066-.065-.126-.099-.188-.028-.052-.051-.106-.085-.157a2 2 0 0 0-.25-.305l-15.999-16a2 2 0 1 0-2.828 2.829L29.172 22H6a2 2 0 0 0 0 4h23.171L16.586 38.586c-.39.39-.586.902-.586 1.414s.195 1.024.586 1.414a2 2 0 0 0 2.828 0l15.999-15.999Z"/><path d="M44 4h-8a2 2 0 0 0 0 4h4v32h-4a2 2 0 0 0 0 4h8V4Z"/></svg>