<svg xmlns="http://www.w3.org/2000/svg" width="48" height="48"><path d="M12.587 25.415a2.012 2.012 0 0 1-.25-.306c-.034-.05-.057-.105-.086-.157-.034-.062-.07-.121-.098-.187-.028-.067-.044-.136-.064-.205-.016-.057-.038-.11-.05-.168a2.01 2.01 0 0 1 0-.784c.012-.058.034-.112.05-.168.02-.07.036-.139.064-.205.027-.066.065-.126.099-.188.028-.052.051-.106.085-.157a2 2 0 0 1 .25-.305l15.999-16a2 2 0 1 1 2.828 2.829L18.828 22H42a2 2 0 0 1 0 4H18.828l12.586 12.586c.39.39.586.902.586 1.414a2 2 0 0 1-3.414 1.414L12.587 25.415Z"/><path d="M4 4h8a2 2 0 0 1 0 4H8v32h4a2 2 0 0 1 0 4H4V4Z"/></svg>