<svg xmlns="http://www.w3.org/2000/svg" width="48" height="48"><path d="M24 11a2 2 0 0 0 2-2V4a2 2 0 0 0-4 0v5a2 2 0 0 0 2 2ZM24 37a2 2 0 0 0-2 2v5a2 2 0 0 0 4 0v-5a2 2 0 0 0-2-2ZM11.979 14.808c.39.39.903.586 1.415.586s1.023-.196 1.414-.586a2 2 0 0 0 0-2.828l-3.536-3.537a2 2 0 1 0-2.829 2.829l3.536 3.536ZM36.021 33.192a2 2 0 0 0-2.83 2.828l3.537 3.537c.39.39.902.585 1.414.585s1.023-.195 1.414-.585a2 2 0 0 0 0-2.829l-3.535-3.536ZM11 24a2 2 0 0 0-2-2H4a2 2 0 0 0 0 4h5a2 2 0 0 0 2-2ZM44 22h-5a2 2 0 0 0 0 4h5a2 2 0 0 0 0-4ZM11.979 33.192l-3.536 3.536a2 2 0 1 0 2.83 2.829l3.535-3.537a2 2 0 1 0-2.829-2.828ZM34.606 15.394c.512 0 1.024-.196 1.415-.586l3.536-3.536a2 2 0 0 0-2.829-2.829l-3.536 3.537a2 2 0 0 0 1.415 3.414Z"/><circle cx="24" cy="24" r="11"/></svg>