<svg xmlns="http://www.w3.org/2000/svg" width="48" height="48"><path d="M41.383 15.081c.028.39.028.779.028 1.167v.176c0 14.004-11.353 25.357-25.357 25.357h-.241A25.242 25.242 0 0 1 2 37.69l.098.06a17.98 17.98 0 0 0 2.033.113l.141-.001h.039A17.9 17.9 0 0 0 15.444 34l-.038.029a8.995 8.995 0 0 1-8.372-6.16l-.018-.064c.507.084 1.094.135 1.692.139h.004a9.502 9.502 0 0 0 2.428-.321l-.067.015c-4.134-.859-7.196-4.47-7.196-8.797v-.12a8.918 8.918 0 0 0 4.04 1.138l.017.001c-2.426-1.634-4-4.372-4-7.476 0-1.668.454-3.229 1.244-4.567l-.023.041c4.447 5.442 11.025 9 18.441 9.389l.063.003a9.852 9.852 0 0 1-.222-2.053v-.003a8.982 8.982 0 0 1 15.527-6.145l.004.005a17.637 17.637 0 0 0 5.775-2.212l-.08.044a9 9 0 0 1-3.904 4.923l-.04.022A17.965 17.965 0 0 0 46 10.397l-.114.046a19.442 19.442 0 0 1-4.449 4.602l-.052.037h-.002Z"/></svg>