<svg data-name="volume" xmlns="http://www.w3.org/2000/svg" width="48" height="48"><g data-name="Export"><path d="M25.633 3.103A2.003 2.003 0 0 0 23.4 3.8L15 15H5a2 2 0 0 0-2 2v16a2 2 0 0 0 2 2h10.11l8.404 9.338A2 2 0 0 0 27 43V5a2 2 0 0 0-1.367-1.897ZM33.9 14.1a2 2 0 1 0-2.829 2.829c3.899 3.9 3.899 10.243 0 14.142A2 2 0 1 0 33.9 33.9c5.46-5.458 5.46-14.34 0-19.798Z"/><path d="M39.557 8.443a2 2 0 1 0-2.828 2.829c7.017 7.018 7.017 18.438 0 25.456a2 2 0 1 0 2.828 2.829c8.577-8.579 8.577-22.536 0-31.114Z"/></g></svg>