<svg xmlns="http://www.w3.org/2000/svg" width="48" height="48"><path d="M40 11.532a3.5 3.5 0 1 1-7 0 3.5 3.5 0 0 1 7 0Zm-6 12.5h-5.172l4.585-4.585c.781-.777.785-2.04.009-2.822l-.009-.008-10-10c-.362-.362-.862-.586-1.414-.586s-1.052.224-1.414.586l-6 6a2 2 0 1 0 2.827 2.829L22 10.86l3.172 3.172-6.188 6.188c-.665-.127-1.34-.19-2.017-.188-2.675 0-5.124.963-7.02 2.562l.015-.014 2.865 2.865a6.894 6.894 0 0 1 4.172-1.413H17a7.01 7.01 0 0 1 7 7 6.904 6.904 0 0 1-1.425 4.189l.012-.017 2.865 2.865a10.88 10.88 0 0 0 2.55-7.02c0-1.047-.15-2.09-.445-3.095l.02.077h4.425v10a2 2 0 1 0 4 0v-12a2 2 0 0 0-2-2Zm-17 14a7.01 7.01 0 0 1-7-7 6.904 6.904 0 0 1 1.425-4.19l-.012.018-2.865-2.865A10.94 10.94 0 0 0 6 31.034c0 6.074 4.924 10.998 10.998 10.998 2.686 0 5.147-.963 7.057-2.562l-.017.014-2.865-2.865a6.885 6.885 0 0 1-4.172 1.413H17Z"/></svg>