<svg xmlns="http://www.w3.org/2000/svg" width="48" height="48"><path d="M45.08 13.372a5.55 5.55 0 0 0-3.851-3.905l-.039-.01C37.76 8.532 24 8.532 24 8.532s-13.758 0-17.19.925a5.551 5.551 0 0 0-3.88 3.877l-.01.038C2.335 16.467 2 20.026 2 23.665v.386-.02.367c0 3.638.335 7.197.975 10.65l-.055-.358a5.468 5.468 0 0 0 3.852 3.844l.038.009c3.43.925 17.19.925 17.19.925s13.759 0 17.19-.925a5.468 5.468 0 0 0 3.88-3.815l.01-.038c.586-3.095.92-6.654.92-10.292v-.387.02-.367c0-3.638-.335-7.197-.975-10.65l.055.357v.001ZM19.5 30.573V17.49l11.499 6.542-11.5 6.542Z"/></svg>