<?xml version="1.0" encoding="UTF-8"?><svg id="dp" xmlns="http://www.w3.org/2000/svg" width="48" height="48" viewBox="0 0 48 48"><g id="dq"><g><path d="M41.752,11.0352c-.5332-.9673-1.75-1.3193-2.7168-.7871-9.1338,5.0312-20.9365,5.0312-30.0703,0-.9668-.5322-2.1831-.1802-2.7168,.7871-.5327,.9673-.1807,2.1836,.7871,2.7168,3.3986,1.8721,7.127,3.1134,10.9648,3.7507v24.4974c0,1.1045,.8955,2,2,2s2-.8955,2-2v-12h4v12c0,1.1045,.8955,2,2,2s2-.8955,2-2V17.5026c3.8378-.6373,7.5662-1.8786,10.9648-3.7507,.9678-.5332,1.3198-1.7495,.7871-2.7168Z"/><circle cx="24" cy="8" r="4"/></g></g></svg>