<?xml version="1.0" encoding="UTF-8"?><svg id="dn" xmlns="http://www.w3.org/2000/svg" width="48" height="48" viewBox="0 0 48 48"><g id="do"><path d="M41.4141,20.5859c-.7803-.7812-2.0479-.7812-2.8281,0l-12.5859,12.5859V10c0-1.1045-.8955-2-2-2s-2,.8955-2,2v23.1719l-12.5859-12.5859c-.7803-.7812-2.0479-.7812-2.8281,0-.7812,.7808-.7812,2.0474,0,2.8281l15.9987,15.9987c.0931,.0933,.196,.1768,.3061,.2504,.0495,.0331,.1031,.0558,.1548,.084,.0627,.0343,.123,.0722,.1895,.0998,.0659,.0273,.1347,.043,.2026,.0629,.057,.0168,.1116,.0389,.1707,.0506,.1293,.0257,.2604,.0395,.3917,.0395s.2624-.0138,.3917-.0395c.059-.0117,.1136-.0338,.1707-.0506,.0679-.0199,.1367-.0356,.2026-.0629,.0665-.0276,.1268-.0655,.1895-.0998,.0516-.0283,.1053-.051,.1548-.084,.1101-.0736,.213-.1571,.3061-.2504l15.9987-15.9987c.7812-.7808,.7812-2.0474,0-2.8281Z"/></g></svg>