<?xml version="1.0" encoding="UTF-8"?><svg id="dl" xmlns="http://www.w3.org/2000/svg" width="48" height="48" viewBox="0 0 48 48"><g id="dm"><path d="M27.4141,41.4141c.7812-.7803,.7812-2.0479,0-2.8281l-12.5859-12.5859h23.1719c1.1045,0,2-.8955,2-2s-.8955-2-2-2H14.8281l12.5859-12.5859c.7812-.7803,.7812-2.0479,0-2.8281-.7808-.7812-2.0474-.7812-2.8281,0l-15.9987,15.9987c-.0933,.0931-.1768,.196-.2504,.3061-.0331,.0495-.0558,.1031-.084,.1548-.0343,.0627-.0722,.123-.0998,.1895-.0273,.0659-.043,.1347-.0629,.2026-.0168,.057-.0389,.1116-.0506,.1707-.0257,.1293-.0395,.2604-.0395,.3917s.0138,.2624,.0395,.3917c.0117,.059,.0338,.1136,.0506,.1707,.0199,.0679,.0356,.1367,.0629,.2026,.0276,.0665,.0655,.1268,.0998,.1895,.0283,.0516,.051,.1053,.084,.1548,.0736,.1101,.1571,.213,.2504,.3061l15.9987,15.9987c.7808,.7812,2.0474,.7812,2.8281,0Z"/></g></svg>