<?xml version="1.0" encoding="UTF-8"?><svg id="df" xmlns="http://www.w3.org/2000/svg" width="48" height="48" viewBox="0 0 48 48"><g id="dg"><path d="M39,21.5h-8.9648l6.3389-6.3389c.9766-.9761,.9766-2.5591,0-3.5352-.9766-.9766-2.5586-.9766-3.5352,0l-6.3389,6.3389V9c0-1.3809-1.1191-2.5-2.5-2.5s-2.5,1.1191-2.5,2.5v8.9648l-6.3389-6.3389c-.9766-.9766-2.5586-.9766-3.5352,0-.9766,.9761-.9766,2.5591,0,3.5352l6.3389,6.3389H9c-1.3809,0-2.5,1.1191-2.5,2.5s1.1191,2.5,2.5,2.5h8.9648l-6.3389,6.3389c-.9766,.9761-.9766,2.5591,0,3.5352,.4883,.4883,1.1279,.7324,1.7676,.7324s1.2793-.2441,1.7676-.7324l6.3389-6.3389v8.9648c0,1.3809,1.1191,2.5,2.5,2.5s2.5-1.1191,2.5-2.5v-8.9648l6.3389,6.3389c.4883,.4883,1.1279,.7324,1.7676,.7324s1.2793-.2441,1.7676-.7324c.9766-.9761,.9766-2.5591,0-3.5352l-6.3389-6.3389h8.9648c1.3809,0,2.5-1.1191,2.5-2.5s-1.1191-2.5-2.5-2.5Z"/></g></svg>