<?xml version="1.0" encoding="UTF-8"?><svg id="cz" xmlns="http://www.w3.org/2000/svg" width="48" height="48" viewBox="0 0 48 48"><g id="da"><path d="M34,4H14c-2.2061,0-4,1.7944-4,4V42c0,.7378,.4062,1.4155,1.0566,1.7632,.6484,.3472,1.4375,.3101,2.0527-.0991l10.8906-7.2603,10.8906,7.2603c.335,.2231,.7217,.3359,1.1094,.3359,.3232,0,.6484-.0786,.9434-.2368,.6504-.3477,1.0566-1.0254,1.0566-1.7632V8c0-2.2056-1.7939-4-4-4Zm-4,17.5h-12c-.8281,0-1.5-.6714-1.5-1.5s.6719-1.5,1.5-1.5h12c.8281,0,1.5,.6714,1.5,1.5s-.6719,1.5-1.5,1.5Z"/></g></svg>