<?xml version="1.0" encoding="UTF-8"?><svg id="ei" xmlns="http://www.w3.org/2000/svg" width="48" height="48" viewBox="0 0 48 48"><g id="ej"><path d="m40.6442,19.7468l-3.7721-9.0534c-.9346-2.2441-3.1084-3.6934-5.5391-3.6934h-14.666c-2.4307,0-4.6045,1.4492-5.5381,3.6924l-3.7731,9.0544c-1.9845,1.1759-3.3558,3.6232-3.3558,6.4534v11.7998c0,1.6543,1.2705,3,2.833,3h3.334c1.5625,0,2.833-1.3457,2.833-3v-2h22v2c0,1.6543,1.2705,3,2.833,3h3.334c1.5625,0,2.833-1.3457,2.833-3v-11.7998c0-2.8302-1.3715-5.2775-3.3558-6.4534Zm-25.8229-7.5163c.3105-.7471,1.0361-1.2305,1.8457-1.2305h14.666c.8096,0,1.5352.4834,1.8467,1.2314l2.8203,6.7686H12l2.8213-6.7695Zm-2.8213,18.7695c-1.6569,0-3-1.3431-3-3s1.3431-3,3-3,3,1.3431,3,3-1.3431,3-3,3Zm24,0c-1.6569,0-3-1.3431-3-3s1.3431-3,3-3,3,1.3431,3,3-1.3431,3-3,3Z"/></g></svg>