<?xml version="1.0" encoding="UTF-8"?><svg id="cf" xmlns="http://www.w3.org/2000/svg" width="48" height="48" viewBox="0 0 48 48"><g id="cg"><path d="M30.5662,6.589l-15.995,15.995c-.364,.362-.589,.863-.589,1.416,0,.553,.224,1.053,.587,1.415l15.998,15.998c.7671,.7948,2.0332,.8172,2.828,.0501s.8172-2.0332,.0501-2.828c-.0161-.0167-.0325-.0331-.0491-.0492l-14.586-14.586,14.586-14.586c.8004-.7612,.8321-2.0272,.0709-2.8275-.7612-.8004-2.0272-.8321-2.8275-.0709-.0247,.0235-.0489,.0477-.0723,.0724l-.001,.001Z"/></g></svg>