<?xml version="1.0" encoding="UTF-8"?>
<svg id="de" data-name="clear" xmlns="http://www.w3.org/2000/svg" width="48" height="48" viewBox="0 0 48 48">
  <g id="df" data-name="Export">
    <path d="m24,4C12.9543,4,4,12.9543,4,24s8.9543,20,20,20,20-8.9543,20-20S35.0457,4,24,4Zm7.4141,24.5859c.7812.7812.7812,2.0469,0,2.8281-.3901.3906-.9023.5859-1.4141.5859s-1.0239-.1953-1.4141-.5859l-4.5859-4.5859-4.5859,4.5859c-.3901.3906-.9023.5859-1.4141.5859s-1.0239-.1953-1.4141-.5859c-.7812-.7812-.7812-2.0469,0-2.8281l4.5859-4.5859-4.5859-4.5859c-.7812-.7812-.7812-2.0469,0-2.8281.7803-.7812,2.0479-.7812,2.8281,0l4.5859,4.5859,4.5859-4.5859c.7803-.7812,2.0479-.7812,2.8281,0,.7812.7812.7812,2.0469,0,2.8281l-4.5859,4.5859,4.5859,4.5859Z"/>
  </g>
</svg>