<?xml version="1.0" encoding="UTF-8"?><svg id="bz" xmlns="http://www.w3.org/2000/svg" width="48" height="48" viewBox="0 0 48 48"><g id="ca"><path d="M26.8281,24L43.4141,7.4141c.7812-.7808,.7812-2.0474,0-2.8281-.7812-.7812-2.0469-.7812-2.8281,0L24,21.1719,7.4141,4.5859c-.7812-.7812-2.0469-.7812-2.8281,0-.7812,.7808-.7812,2.0474,0,2.8281L21.1719,24,4.5859,40.5859c-.7812,.7808-.7812,2.0474,0,2.8281,.3906,.3906,.9023,.5859,1.4141,.5859s1.0234-.1953,1.4141-.5859L24,26.8281l16.5859,16.5859c.3906,.3906,.9023,.5859,1.4141,.5859s1.0234-.1953,1.4141-.5859c.7812-.7808,.7812-2.0474,0-2.8281L26.8281,24Z"/></g></svg>