<?xml version="1.0" encoding="UTF-8"?><svg id="bt" xmlns="http://www.w3.org/2000/svg" width="48" height="48" viewBox="0 0 48 48"><g id="bu"><path d="M24,6C14.0589,6,6,14.0588,6,24s8.0589,18,18,18,18-8.0589,18-18S33.9411,6,24,6ZM10,24c0-3.1395,1.0514-6.0309,2.8032-8.3687l19.5654,19.5654c-2.3378,1.7518-5.2292,2.8032-8.3687,2.8032-7.7196,0-14-6.2804-14-14Zm25.1968,8.3687L15.6313,12.8032c2.3378-1.7518,5.2292-2.8032,8.3687-2.8032,7.7196,0,14,6.2803,14,14,0,3.1395-1.0514,6.0309-2.8032,8.3687Z"/></g></svg>