<?xml version="1.0" encoding="UTF-8"?><svg id="br" xmlns="http://www.w3.org/2000/svg" width="48" height="48" viewBox="0 0 48 48"><g id="bs"><g><path d="M25.4141,39.4141l16-16c.7812-.7803,.7812-2.0479,0-2.8281-.7808-.7812-2.0474-.7812-2.8281,0l-14.5859,14.5854-14.5859-14.5854c-.7808-.7812-2.0474-.7812-2.8281,0-.3906,.3901-.5859,.9023-.5859,1.4141s.1953,1.0239,.5859,1.4141l16,16c.7808,.7812,2.0474,.7812,2.8281,0Z"/><path d="M25.4141,27.4141L41.4141,11.4141c.7812-.7803,.7812-2.0479,0-2.8281-.7808-.7812-2.0474-.7812-2.8281,0l-14.5859,14.5854L9.4141,8.5859c-.7808-.7812-2.0474-.7812-2.8281,0-.3906,.3901-.5859,.9023-.5859,1.4141s.1953,1.0239,.5859,1.4141L22.5859,27.4141c.7808,.7812,2.0474,.7812,2.8281,0Z"/></g></g></svg>