<?xml version="1.0" encoding="UTF-8"?><svg id="bl" xmlns="http://www.w3.org/2000/svg" width="48" height="48" viewBox="0 0 48 48"><g id="bm"><g><path d="M22.5859,8.5859L6.5859,24.5859c-.7813,.7803-.7813,2.0479,0,2.8281,.7808,.7813,2.0474,.7813,2.8281,0l14.5859-14.5854,14.5859,14.5854c.7808,.7813,2.0474,.7813,2.8281,0,.3906-.3901,.5859-.9023,.5859-1.4141s-.1953-1.0239-.5859-1.4141L25.4141,8.5859c-.7808-.7813-2.0474-.7813-2.8281,0Z"/><path d="M22.5859,20.5859L6.5859,36.5859c-.7813,.7803-.7813,2.0479,0,2.8281,.7808,.7813,2.0474,.7813,2.8281,0l14.5859-14.5854,14.5859,14.5854c.7808,.7813,2.0474,.7813,2.8281,0,.3906-.3901,.5859-.9023,.5859-1.4141,0-.5117-.1953-1.0239-.5859-1.4141l-16-16c-.7808-.7813-2.0474-.7813-2.8281,0Z"/></g></g></svg>