<?xml version="1.0" encoding="UTF-8"?><svg id="bp" xmlns="http://www.w3.org/2000/svg" width="48" height="48" viewBox="0 0 48 48"><g id="bq"><g><path d="M8.5859,22.5859L24.5859,6.5859c.7803-.7812,2.0479-.7812,2.8281,0,.7812,.7808,.7812,2.0474,0,2.8281l-14.5854,14.5859,14.5854,14.5859c.7812,.7808,.7812,2.0474,0,2.8281-.3901,.3906-.9023,.5859-1.4141,.5859s-1.0239-.1953-1.4141-.5859L8.5859,25.4141c-.7812-.7808-.7812-2.0474,0-2.8281Z"/><path d="M20.5859,22.5859L36.5859,6.5859c.7803-.7812,2.0479-.7812,2.8281,0,.7812,.7808,.7812,2.0474,0,2.8281l-14.5854,14.5859,14.5854,14.5859c.7812,.7808,.7812,2.0474,0,2.8281-.3901,.3906-.9023,.5859-1.4141,.5859s-1.0239-.1953-1.4141-.5859l-16-16c-.7812-.7808-.7812-2.0474,0-2.8281Z"/></g></g></svg>