<?xml version="1.0" encoding="UTF-8"?><svg id="bp" xmlns="http://www.w3.org/2000/svg" width="48" height="48" viewBox="0 0 48 48"><g id="bq"><path d="M9.8281,7h7.1719c1.1045,0,2-.8955,2-2s-.8955-2-2-2H5c-.1313,0-.2622,.0137-.3916,.0395-.0599,.0119-.1155,.0342-.1733,.0514-.0669,.0197-.1345,.0351-.1996,.062-.0687,.0284-.1311,.0674-.1957,.1031-.0496,.0272-.1011,.0488-.1484,.0806-.2195,.1465-.4082,.335-.5547,.5544-.0327,.0488-.0549,.1017-.0829,.1526-.0348,.0633-.073,.1243-.1008,.1916-.0272,.0657-.0428,.1342-.0626,.2019-.017,.0573-.0391,.112-.0508,.1713-.0258,.1293-.0396,.2604-.0396,.3917v12c0,1.1045,.8955,2,2,2s2-.8955,2-2v-7.1719l9.5859,9.5859c.3906,.3906,.9023,.5859,1.4141,.5859s1.0234-.1953,1.4141-.5859c.7812-.7808,.7812-2.0474,0-2.8281L9.8281,7Z"/><path d="M44.9604,4.6083c-.0117-.0593-.0338-.114-.0508-.1713-.0198-.0677-.0354-.1362-.0626-.2019-.0278-.0673-.066-.1283-.1008-.1916-.028-.0509-.0502-.1038-.0829-.1526-.1465-.2194-.3352-.4079-.5547-.5544-.0474-.0317-.0989-.0533-.1484-.0806-.0646-.0357-.127-.0746-.1957-.1031-.0651-.0269-.1327-.0422-.1996-.062-.0579-.0172-.1134-.0395-.1733-.0514-.1293-.0258-.2603-.0395-.3916-.0395h-12c-1.1045,0-2,.8955-2,2s.8955,2,2,2h7.1719l-9.5859,9.5859c-.7812,.7808-.7812,2.0474,0,2.8281,.3906,.3906,.9023,.5859,1.4141,.5859s1.0234-.1953,1.4141-.5859l9.5859-9.5859v7.1719c0,1.1045,.8955,2,2,2s2-.8955,2-2V5c0-.1313-.0138-.2624-.0396-.3917Z"/><path d="M43,29c-1.1045,0-2,.8955-2,2v7.1719l-9.5859-9.5859c-.7812-.7812-2.0469-.7812-2.8281,0-.7812,.7808-.7812,2.0474,0,2.8281l9.5859,9.5859h-7.1719c-1.1045,0-2,.8955-2,2s.8955,2,2,2h12c.1313,0,.2623-.0138,.3916-.0395,.0599-.0119,.1155-.0342,.1733-.0514,.0669-.0197,.1345-.0351,.1996-.062,.0687-.0284,.1311-.0674,.1957-.1031,.0496-.0272,.101-.0488,.1484-.0806,.2195-.1465,.4082-.335,.5547-.5544,.0327-.0488,.0549-.1017,.0829-.1526,.0348-.0633,.073-.1243,.1008-.1916,.0272-.0657,.0428-.1342,.0626-.2019,.017-.0573,.0391-.112,.0508-.1713,.0258-.1293,.0396-.2604,.0396-.3917v-12c0-1.1045-.8955-2-2-2Z"/><path d="M16.5859,28.5859l-9.5859,9.5859v-7.1719c0-1.1045-.8955-2-2-2s-2,.8955-2,2v12c0,.1313,.0138,.2624,.0396,.3917,.0117,.0593,.0338,.114,.0508,.1713,.0198,.0677,.0354,.1362,.0626,.2019,.0278,.0673,.066,.1283,.1008,.1916,.028,.0509,.0502,.1038,.0829,.1526,.1465,.2194,.3352,.4079,.5547,.5544,.0475,.0317,.0989,.0533,.1484,.0806,.0646,.0357,.127,.0746,.1957,.1031,.0651,.0269,.1327,.0422,.1996,.062,.0579,.0172,.1134,.0395,.1733,.0514,.1293,.0257,.2603,.0395,.3916,.0395h12c1.1045,0,2-.8955,2-2s-.8955-2-2-2h-7.1719l9.5859-9.5859c.7812-.7808,.7812-2.0474,0-2.8281-.7812-.7812-2.0469-.7812-2.8281,0Z"/></g></svg>