<?xml version="1.0" encoding="UTF-8"?><svg id="bd" xmlns="http://www.w3.org/2000/svg" width="48" height="48" viewBox="0 0 48 48"><g id="be"><g><path d="M25.4153,12.5872c-.0931-.0933-.1959-.1768-.3059-.2504-.0504-.0338-.1051-.057-.1578-.0856-.0617-.0337-.121-.071-.1864-.0981-.0668-.0276-.1366-.0436-.2056-.0638-.0561-.0165-.1098-.0383-.1678-.0498-.2586-.0514-.5251-.0514-.7837,0-.0583,.0116-.1121,.0334-.1685,.05-.0687,.0201-.1382,.0359-.2048,.0635-.0658,.0273-.1253,.0648-.1874,.0986-.0524,.0285-.1068,.0516-.1569,.0852-.11,.0735-.2128,.157-.3059,.2504L6.5859,28.5859c-.7812,.7808-.7812,2.0474,0,2.8281,.7803,.7812,2.0479,.7812,2.8281,0l12.5859-12.5855v23.1714c0,1.1045,.8955,2,2,2s2-.8955,2-2V18.8286l12.5859,12.5855c.3901,.3906,.9023,.5859,1.4141,.5859s1.0239-.1953,1.4141-.5859c.7812-.7808,.7812-2.0474,0-2.8281l-15.9987-15.9987Z"/><path d="M4,4V12c0,1.1045,.8955,2,2,2s2-.8955,2-2v-4H40v4c0,1.1045,.8955,2,2,2s2-.8955,2-2V4H4Z"/></g></g></svg>