<?xml version="1.0" encoding="UTF-8"?><svg id="bf" xmlns="http://www.w3.org/2000/svg" width="48" height="48" viewBox="0 0 48 48"><g id="bg"><g><path d="M42,34c-1.1045,0-2,.8955-2,2v4H8v-4c0-1.1045-.8955-2-2-2s-2,.8955-2,2v8H44v-8c0-1.1045-.8955-2-2-2Z"/><path d="M22.5847,35.4128c.0933,.0935,.1963,.1771,.3066,.2507,.0475,.0317,.0989,.0533,.1484,.0806,.0646,.0357,.127,.0746,.1957,.1031,.0651,.0269,.1327,.0422,.1996,.062,.0579,.0172,.1134,.0395,.1733,.0514,.1293,.0257,.2603,.0395,.3916,.0395s.2623-.0138,.3916-.0395c.0599-.0119,.1155-.0342,.1733-.0514,.0669-.0197,.1345-.0351,.1996-.062,.0687-.0284,.1311-.0674,.1957-.1031,.0496-.0272,.101-.0488,.1484-.0806,.1104-.0737,.2134-.1572,.3066-.2507l15.9988-15.9987c.7812-.7808,.7812-2.0474,0-2.8281-.7812-.7812-2.0469-.7812-2.8281,0l-12.5859,12.5855V6c0-1.1045-.8955-2-2-2s-2,.8955-2,2V29.1714l-12.5859-12.5855c-.7812-.7812-2.0469-.7812-2.8281,0-.7812,.7808-.7812,2.0474,0,2.8281l15.9988,15.9987Z"/></g></g></svg>