<?xml version="1.0" encoding="UTF-8"?><svg id="bb" xmlns="http://www.w3.org/2000/svg" width="48" height="48" viewBox="0 0 48 48"><g id="bc"><path d="M24.0004,4h-.0117C12.9494,4,4,12.9533,4,23.9975c0,9.2884,6.3301,17.0978,14.9095,19.3464l.1392,.0308c1.4884,.3969,3.1976,.6253,4.9601,.6253,11.0411,0,19.9912-8.9541,19.9912-20S35.0498,4,24.0088,4h-.0083Zm-4.4643,35.5763c-.0056-1.2278-.0101-2.4556-.0133-3.6834l-.5392,.0959c-.4331,.0712-.8722,.0989-1.3109,.0825h.0117c-.5675-.0099-1.133-.0696-1.69-.1784l.0608,.01c-.5773-.1094-1.1189-.3587-1.5775-.7262l.0067,.0058c-.4786-.373-.8354-.88-1.025-1.4565l-.0058-.0217-.2342-.5528c-.1985-.4417-.4498-.8577-.7483-1.2389l.01,.0133c-.2579-.3775-.6022-.6879-1.0042-.9054l-.015-.0075-.1642-.1209c-.1121-.0826-.2137-.1786-.3025-.286l-.0025-.0025c-.0848-.0985-.1547-.2089-.2075-.3276l-.0033-.0083c-.0472-.1123-.0083-.2045,.1167-.2768,.2165-.09,.4514-.1266,.685-.1067h-.005l.4683,.0717c.4442,.1242,.8317,.3226,1.1684,.5828l-.0075-.0058c.4667,.3293,.8475,.747,1.1267,1.2306l.01,.0183c.3167,.6078,.7558,1.1113,1.2884,1.494l.0125,.0083c.4456,.3252,.9803,.5057,1.5317,.5169h.0033l.09,.0008c.4408,0,.8709-.0442,1.2875-.1276l-.0417,.0067c.3746-.0788,.738-.204,1.0817-.3727l-.0267,.0117c.0745-.936,.4819-1.8142,1.1484-2.4753-.8485-.0843-1.6888-.2374-2.5126-.4577l.11,.025c-.7875-.2217-1.5428-.5451-2.2467-.9621l.0433,.0242c-.7234-.4054-1.3608-.948-1.8767-1.5974l-.01-.0133c-.5498-.7435-.9619-1.5796-1.2167-2.4686l-.0133-.055c-.3431-1.1738-.505-2.3931-.48-3.6158v.0108c-.045-1.8307,.6204-3.6077,1.8567-4.9581l-.005,.0058c-.2628-.7195-.396-1.48-.3933-2.246,0-.9613,.205-1.8742,.5733-2.6979l-.0167,.0417c.6959-.1165,1.4108,.0004,2.0334,.3327l-.0175-.0083c.7642,.2935,1.4092,.6044,2.0234,.9613l-.0667-.0358c.4139,.2557,.7458,.4719,.9959,.6486,1.3484-.3968,2.8976-.6245,4.5001-.6245s3.1517,.2284,4.6168,.6536l-.1167-.0292,.8909-.5769c.6558-.4084,1.3493-.7529,2.0709-1.0288l.085-.0292c.4161-.2096,.8758-.3181,1.3417-.3168,.1975,0,.39,.0192,.5767,.055l-.0192-.0033c.3633,.7887,.575,1.7108,.575,2.6829,0,.7962-.1417,1.559-.4017,2.2644l.015-.045c1.1949,1.3081,1.8562,3.0168,1.8534,4.7889l-.0017,.1717v-.0083l.0017,.1901c0,1.2206-.1758,2.4003-.5042,3.5149l.0225-.0875c-.2534,.9195-.6793,1.7825-1.255,2.5428l.0133-.0183c-.519,.6383-1.1519,1.1746-1.8667,1.5816l-.0325,.0167c-.6333,.3777-1.3642,.697-2.1367,.9213l-.0667,.0167c-.6825,.1884-1.4984,.341-2.335,.4277l-.0675,.0058c.8903,.9085,1.3357,2.1631,1.2175,3.4299l.0008-.0167v5.3149c-1.34,.4085-2.8809,.6436-4.4759,.6436-1.5909,0-3.1276-.2343-4.5768-.6695l.1125,.0292h-.0017Z"/></g></svg>