<?xml version="1.0" encoding="UTF-8"?><svg id="az" xmlns="http://www.w3.org/2000/svg" width="48" height="48" viewBox="0 0 48 48"><g id="ba"><path d="M24,4C12.9722,4,4,12.9722,4,24s8.9722,20,20,20,20-8.9722,20-20S35.0278,4,24,4Zm13.835,12h-5.3925c-.7941-2.8967-1.9256-5.2389-3.0389-7.0407,3.5701,1.287,6.5505,3.801,8.4314,7.0407Zm2.165,8c0,1.3833-.1949,2.7189-.5266,4h-6.2379c.1616-1.2605,.2645-2.5851,.2645-4s-.1029-2.7395-.2645-4h6.2379c.3316,1.2811,.5266,2.6167,.5266,4Zm-21.2073,4c-.1829-1.2413-.2927-2.5704-.2927-4s.1098-2.7587,.2927-4h10.4147c.1829,1.2413,.2927,2.5704,.2927,4s-.1098,2.7587-.2927,4h-10.4147Zm9.4817,4c-1.2644,3.9186-3.1902,6.4641-4.274,7.6656-1.0864-1.2045-3.0109-3.7497-4.2746-7.6656h8.5486Zm-8.5486-16c1.2636-3.9155,3.1877-6.4605,4.2742-7.6652,1.0865,1.2047,3.0106,3.7497,4.2742,7.6652h-8.5485Zm-1.1294-7.0407c-1.1133,1.8018-2.2449,4.1441-3.0389,7.0407h-5.3925c1.8809-3.2397,4.8613-5.7537,8.4314-7.0407Zm-10.0698,11.0407h6.2379c-.1616,1.2605-.2645,2.5851-.2645,4s.1029,2.7395,.2645,4h-6.2379c-.3316-1.2811-.5266-2.6167-.5266-4s.1949-2.7189,.5266-4Zm1.6384,12h5.3925c.7941,2.8966,1.9256,5.2388,3.0389,7.0406-3.5701-1.2871-6.5505-3.801-8.4314-7.0406Zm19.2386,7.0406c1.1133-1.8019,2.2449-4.144,3.0389-7.0406h5.3925c-1.8809,3.2397-4.8613,5.7536-8.4314,7.0406Z"/></g></svg>