<?xml version="1.0" encoding="UTF-8"?><svg id="av" xmlns="http://www.w3.org/2000/svg" width="48" height="48" viewBox="0 0 48 48"><g id="aw"><path d="M39,34H7c-1.6572,0-3-1.3433-3-3s1.3428-3,3-3H39c1.6572,0,3,1.3433,3,3s-1.3428,3-3,3Z"/><path d="M41,20H9c-1.6572,0-3-1.3433-3-3s1.3428-3,3-3H41c1.6572,0,3,1.3433,3,3s-1.3428,3-3,3Z"/><path d="M27.0029,42.0005c-.2266,0-.4551-.0254-.6846-.0791-1.6133-.3765-2.6162-1.9897-2.2402-3.603l7-30c.377-1.6143,1.9941-2.6172,3.6035-2.2397,1.6133,.3765,2.6162,1.9897,2.2402,3.603l-7,30c-.3232,1.3843-1.5566,2.3188-2.9189,2.3188Z"/><path d="M13.0029,42.0005c-.2266,0-.4551-.0254-.6846-.0791-1.6133-.3765-2.6162-1.9897-2.2402-3.603l7-30c.377-1.6143,1.9951-2.6172,3.6035-2.2397,1.6133,.3765,2.6162,1.9897,2.2402,3.603l-7,30c-.3232,1.3843-1.5566,2.3188-2.9189,2.3188Z"/></g></svg>