<?xml version="1.0" encoding="UTF-8"?><svg id="at" xmlns="http://www.w3.org/2000/svg" width="48" height="48" viewBox="0 0 48 48"><g id="au"><path d="M41.5356,8.5944c-2.2498-2.3179-5.2455-3.5944-8.4354-3.5944s-6.1855,1.2765-8.4353,3.5944c-.2324,.2394-.454,.4875-.6649,.7443-.2109-.2568-.4326-.5049-.6649-.7443-2.2498-2.3179-5.2455-3.5944-8.4354-3.5944s-6.1855,1.2765-8.4353,3.5944c-4.6055,4.7449-4.6055,12.4655,0,17.2104l16.1005,16.5881c.3764,.3878,.8937,.6068,1.4342,.6071h.0009c.5402,0,1.0573-.2184,1.4339-.6058l16.124-16.5826c.0772-.0794,.1465-.1636,.2079-.2516,4.372-4.7612,4.2943-12.304-.2303-16.9656Z"/></g></svg>