<?xml version="1.0" encoding="UTF-8"?><svg id="as" xmlns="http://www.w3.org/2000/svg" width="48" height="48" viewBox="0 0 48 48"><defs><style>.ds{fill-rule:evenodd;}</style></defs><g id="at"><path class="ds" d="M8,28v12c0,1.1046,.8955,2,2,2h8c1.1045,0,2-.8954,2-2v-10h8v10c0,1.1046,.8955,2,2,2h8c1.1045,0,2-.8954,2-2v-12L24,14,8,28Z"/><path class="ds" d="M43.3291,22.5054l-3.3291-2.9592V8h-6v6.2128l-8.6709-7.7075c-.7578-.6738-1.9004-.6738-2.6582,0L4.6709,22.5054c-.8252,.7339-.8994,1.9976-.166,2.8232,.7344,.8267,1.9971,.9009,2.8242,.166L24,10.6758l16.6709,14.8188c.3818,.3389,.8555,.5054,1.3281,.5054,.5518,0,1.1006-.2266,1.4961-.6714,.7334-.8257,.6592-2.0894-.166-2.8232Z"/></g></svg>