<?xml version="1.0" encoding="UTF-8"?><svg id="aq" xmlns="http://www.w3.org/2000/svg" width="48" height="48" viewBox="0 0 48 48"><g id="ar"><path d="M24.004,13.745h-.002c-5.664,0-10.255,4.591-10.255,10.255s4.591,10.255,10.255,10.255,10.255-4.591,10.255-10.255v-.017c0-5.654-4.584-10.238-10.238-10.238h-.015Zm0,16.922h-.001c-3.6821,0-6.667-2.9849-6.667-6.667s2.9849-6.667,6.667-6.667,6.667,2.9849,6.667,6.667h0c-.0061,3.6788-2.9862,6.6598-6.665,6.667h-.001Zm13.065-17.342c-.0011,1.3205-1.0725,2.3901-2.393,2.389-1.3205-.0011-2.3901-1.0725-2.389-2.393,.0011-1.3193,1.0707-2.3884,2.39-2.389h.005c1.3178,0,2.386,1.0682,2.386,2.386h0v.006l.001,.001Zm6.791,2.428c.0704-3.113-1.0924-6.1276-3.235-8.387l.005,.006c-2.2066-2.0807-5.1261-3.2375-8.159-3.233l-.233,.002h.012c-3.302-.187-13.198-.187-16.5,0-.071-.002-.154-.002-.237-.002-3.154,0-6.02,1.227-8.149,3.23l.006-.006c-2.1394,2.2638-3.2997,5.28-3.229,8.394v-.012c-.187,3.303-.187,13.201,0,16.503-.0704,3.113,1.0924,6.1276,3.235,8.387l-.005-.006c2.2087,2.0812,5.1302,3.2381,8.165,3.233l.226-.002h-.011c3.302,.187,13.198,.187,16.5,0,3.1126,.0708,6.1269-1.0925,8.385-3.236l-.005,.005c2.0803-2.2072,3.2368-5.127,3.232-8.16l-.002-.233v.012c.187-3.302,.187-13.192,0-16.494l-.001-.001Zm-4.266,20.038c-.6831,1.7216-2.0399,3.0893-3.756,3.786l-.045,.016c-2.633,1.044-8.88,.803-11.788,.803s-9.164,.232-11.788-.803c-1.7214-.6835-3.0887-2.0407-3.785-3.757l-.016-.045c-1.044-2.633-.803-8.88-.803-11.791s-.232-9.167,.803-11.791c.6831-1.7216,2.0399-3.0893,3.756-3.786l.045-.016c2.632-1.044,8.88-.803,11.788-.803s9.165-.232,11.788,.803c1.7214,.6835,3.0887,2.0407,3.785,3.757l.016,.045c1.044,2.633,.803,8.88,.803,11.791s.241,9.167-.803,11.791Z"/></g></svg>