<?xml version="1.0" encoding="UTF-8"?>
<svg id="h" data-name="Icon" xmlns="http://www.w3.org/2000/svg" width="48" height="48" viewBox="0 0 48 48">
  <g id="i" data-name="Export">
    <path d="m26,2.5C15.9232,2.5,7.6071,10.1841,6.6023,20h3.0313c.992-8.1562,7.947-14.5,16.3664-14.5,9.0977,0,16.5,7.4023,16.5,16.5,0,8.4194-6.3438,15.3744-14.5,16.3664v3.0313c9.8159-1.0048,17.5-9.3209,17.5-19.3977,0-10.752-8.748-19.5-19.5-19.5Z"/>
    <path d="m33,22c0,3.1642-2.1125,5.8419-5,6.7051v6.1246c6.2195-.9671,11-6.3436,11-12.8298,0-7.168-5.832-13-13-13-6.4862,0-11.8627,4.7805-12.8298,11h6.1246c.8632-2.8875,3.541-5,6.7051-5,3.8594,0,7,3.1406,7,7Z"/>
    <polygon points="13.1719 30.5859 3.8789 39.8789 8.1211 44.1211 17.4141 34.8281 22 44 26 22 4 26 13.1719 30.5859"/>
  </g>
</svg>