<?xml version="1.0" encoding="UTF-8"?><svg id="ap" xmlns="http://www.w3.org/2000/svg" width="48" height="48" viewBox="0 0 48 48"><g id="aq"><path d="M43.8276,41.1875l-8-18c-.3208-.7222-1.0371-1.1875-1.8276-1.1875s-1.5068,.4653-1.8276,1.1875l-8,18c-.4487,1.0098,.0059,2.1914,1.0151,2.6396,1.0112,.4531,2.1919-.0059,2.6401-1.0146l1.6945-3.8125h8.9558l1.6945,3.8125c.3315,.7451,1.0625,1.1885,1.8286,1.1885,.2715,0,.5474-.0557,.8115-.1738,1.0093-.4482,1.4639-1.6299,1.0151-2.6396Zm-12.5278-6.1875l2.7001-6.0752,2.7001,6.0752h-5.4003Z"/><path d="M26.2263,31.6417c-1.0361-.6782-2.1062-1.433-3.173-2.2651,5.304-5.1938,8.3232-11.106,8.8524-17.3766h4.0944c1.1045,0,2-.8955,2-2s-.8955-2-2-2h-14.7637l-1.4473-2.8945c-.4941-.9888-1.6963-1.3892-2.6836-.8945-.9878,.4941-1.3882,1.6953-.8945,2.6836l.5527,1.1055H4c-1.1045,0-2,.8955-2,2s.8955,2,2,2h4.0944c.5291,6.2706,3.5483,12.1827,8.8524,17.3766-5.7172,4.4598-11.5354,6.7078-11.6503,6.7513-1.0332,.3896-1.5562,1.542-1.168,2.5752,.3018,.8027,1.063,1.2979,1.8721,1.2979,.2334,0,.4707-.042,.7017-.1279,.2563-.0967,6.3521-2.4102,12.519-7.1641,.2675-.2062,.5194-.4179,.7788-.627,.2594,.209,.5113,.4207,.7788,.627,1.2865,.9917,2.5664,1.8709,3.7943,2.6522l1.6531-3.7195Zm-6.2263-4.8983c-3.9366-3.7717-7.2722-8.6856-7.8875-14.7435h7.8854l.0035,.0005,.0043-.0005h7.8817c-.6152,6.0579-3.9508,10.9718-7.8875,14.7435Z"/></g></svg>