<?xml version="1.0" encoding="UTF-8"?><svg id="ao" xmlns="http://www.w3.org/2000/svg" width="48" height="48" viewBox="0 0 48 48"><g id="ap"><path d="M24,44c2.4189,0,4.4359-1.7178,4.8992-4h-9.7985c.4634,2.2822,2.4803,4,4.8992,4Z"/><path d="M24,4c-7.732,0-14,6.268-14,14,0,5.5816,3.2745,10.386,8,12.6346v5.3654c0,1.1046,.8954,2,2,2h8c1.1046,0,2-.8954,2-2v-5.3654c4.7255-2.2486,8-7.053,8-12.6346,0-7.732-6.268-14-14-14Zm8,15c-.5522,0-1-.4478-1-1,0-3.8599-3.1401-7-7-7-.5522,0-1-.4478-1-1s.4478-1,1-1c4.9624,0,9,4.0376,9,9,0,.5522-.4478,1-1,1Z"/></g></svg>