<?xml version="1.0" encoding="UTF-8"?><svg id="an" xmlns="http://www.w3.org/2000/svg" width="48" height="48" viewBox="0 0 48 48"><g id="ao"><path d="M12.953,44H4.66V17.294H12.953v26.706ZM8.802,13.651h-.022c-2.6648,0-4.825-2.1603-4.8249-4.8251,0-2.6648,2.1603-4.825,4.8251-4.8249,2.6554,0,4.8117,2.1456,4.8249,4.801v.007c.0001,2.6584-2.1427,4.8199-4.801,4.843h-.002v-.001Zm35.19,30.349h-8.275v-13c0-3.098-.063-7.072-4.312-7.072-4.312,0-4.973,3.366-4.973,6.848v13.223h-8.284V17.293h7.954v3.643h.116c1.54-2.601,4.331-4.319,7.524-4.319,.113,0,.226,.002,.339,.006h-.016c8.393,0,9.935,5.527,9.935,12.706v14.67l-.008,.001Z"/></g></svg>