<?xml version="1.0" encoding="UTF-8"?><svg id="am" xmlns="http://www.w3.org/2000/svg" width="48" height="48" viewBox="0 0 48 48"><g id="an"><path d="M19,13h22c1.6572,0,3-1.3433,3-3s-1.3428-3-3-3H19c-1.6572,0-3,1.3433-3,3s1.3428,3,3,3Z"/><circle cx="8" cy="10" r="4"/><path d="M41,21H19c-1.6572,0-3,1.3433-3,3s1.3428,3,3,3h22c1.6572,0,3-1.3428,3-3s-1.3428-3-3-3Z"/><circle cx="8" cy="24" r="4"/><path d="M41,35H19c-1.6572,0-3,1.3428-3,3s1.3428,3,3,3h22c1.6572,0,3-1.3428,3-3s-1.3428-3-3-3Z"/><circle cx="8" cy="38" r="4"/></g></svg>