<?xml version="1.0" encoding="UTF-8"?><svg id="al" xmlns="http://www.w3.org/2000/svg" width="48" height="48" viewBox="0 0 48 48"><g id="am"><path d="M48,24c-.0003,2.7617-2.2393,5.0003-5.001,5s-5.0003-2.2393-5-5.001,2.2393-5.0003,5.001-5,5.0003,2.2393,5,5.001Zm-40,0c0,1.6569-1.3431,3-3,3s-3-1.3431-3-3,1.3431-3,3-3,3,1.3431,3,3ZM40.971,7.029c-1.9523-1.9529-5.1182-1.9534-7.0711-.0011-1.9529,1.9523-1.9534,5.1182-.0011,7.0711,1.9523,1.9529,5.1182,1.9534,7.0711,.0011l.0011-.0011c.905-.905,1.464-2.155,1.464-3.536s-.56-2.631-1.464-3.536v.002ZM12.565,37.435c.025,1.1043-.85,2.0197-1.9543,2.0447-1.1043,.025-2.0197-.85-2.0447-1.9543-.0007-.0298-.0007-.0596,0-.0895,.0244-1.1043,.9394-1.9797,2.0437-1.9553,1.0695,.0236,1.9311,.8848,1.9553,1.9543ZM29,5c-.0003,2.7617-2.2393,5.0003-5.001,5-2.7617-.0003-5.0003-2.2393-5-5.001h0C18.9993,2.2373,21.2383-.0013,24-.001s5.0003,2.2393,5,5.001Zm-4,38c0,.5523-.4477,1-1,1s-1-.4477-1-1,.4477-1,1-1,1,.4477,1,1ZM14.565,10.565c0,2.2091-1.7909,4-4,4s-4-1.7909-4-4,1.7909-4,4-4,4,1.7909,4,4Z"/></g></svg>