<?xml version="1.0" encoding="UTF-8"?><svg id="aq" xmlns="http://www.w3.org/2000/svg" width="48" height="48" viewBox="0 0 48 48"><g id="ar"><circle cx="24" cy="24" r="6"/><path d="M43,22h-3.1382c-.9041-7.2338-6.6279-12.9577-13.8618-13.8618v-3.1382c0-1.1045-.8955-2-2-2s-2,.8955-2,2v3.1382c-7.2339,.9041-12.9578,6.628-13.8618,13.8618h-3.1382c-1.1045,0-2,.8955-2,2s.8955,2,2,2h3.1382c.9041,7.2338,6.6279,12.9577,13.8618,13.8618v3.1382c0,1.1045,.8955,2,2,2s2-.8955,2-2v-3.1382c7.2339-.9041,12.9578-6.628,13.8618-13.8618h3.1382c1.1045,0,2-.8955,2-2s-.8955-2-2-2Zm-19,14c-6.6168,0-12-5.3832-12-12s5.3832-12,12-12,12,5.3832,12,12-5.3832,12-12,12Z"/></g></svg>