<?xml version="1.0" encoding="UTF-8"?><svg id="ak" xmlns="http://www.w3.org/2000/svg" width="48" height="48" viewBox="0 0 48 48"><g id="al"><path d="M41,8H7c-2.2061,0-4,1.7944-4,4v24c0,2.2061,1.7939,4,4,4H41c2.2061,0,4-1.7939,4-4V12c0-2.2056-1.7939-4-4-4ZM7,36V12H41l.0029,24H7Z"/><path d="M35.8613,14.3555l-11.8613,8.2119L12.1387,14.3555c-.9102-.6289-2.1543-.4023-2.7832,.5063-.6289,.9077-.4023,2.1538,.5059,2.7827l14.1387,9.7881,14.1387-9.7881c.9082-.6289,1.1348-1.875,.5059-2.7827-.6299-.9087-1.874-1.1353-2.7832-.5063Z"/></g></svg>