<?xml version="1.0" encoding="UTF-8"?><svg id="aj" xmlns="http://www.w3.org/2000/svg" width="48" height="48" viewBox="0 0 48 48"><g id="ak"><polygon points="13.6079 24.001 13.6334 24.045 13.61 24.002 13.6079 24.001"/><polygon points="13.641 24.059 13.6379 24.0529 13.6334 24.045 13.641 24.059"/><path d="M24,5.997c-6.627,0-12,5.373-12,12,0,2.2086,.5972,4.2782,1.6379,6.0558l10.3621,17.9471,10.3889-17.999c1.061-1.8171,1.6172-3.8848,1.6111-5.989v-.015c0-6.627-5.373-12-12-12Zm0,18.003c-3.3137,0-6-2.6863-6-6s2.6863-6,6-6,6,2.6863,6,6-2.6863,6-6,6Z"/></g></svg>