<?xml version="1.0" encoding="UTF-8"?><svg id="i" xmlns="http://www.w3.org/2000/svg" width="48" height="48" viewBox="0 0 48 48"><path d="M44.7785,35.5485l-.3043-15.1751C42.3148,10.9938,30.1153,3.959,22.5167,2l-13.0899,7.8213c-7.1016,6.5301-7.0718,20.5996-4.9941,28.1314,2.1207-.3298,4.2198-.7558,6.3-1.2653-2.0661,.5143-4.1503,.9658-6.2628,1.2951l13.357,7.3612c9.2016,2.857,21.4308-4.2075,26.9517-9.7582-.618-.7638-1.261-1.506-1.9103-2.2423,.6451,.7271,1.2941,1.4508,1.9103,2.2053Zm-5.1246-5.6094c-.4103-.4063-.8307-.8021-1.251-1.1981,.4205,.3958,.8399,.7919,1.251,1.1981Zm-2.8381-2.6497c-.4468-.3953-.8967-.7872-1.3539-1.171,.4565,.3845,.907,.7751,1.3539,1.171ZM19.9884,9.8768c-.001,.0043-.002,.0085-.0031,.0126,.0011-.0043,.002-.0085,.0031-.0126Zm-.8914,3.9307c-.0133,.0678-.0269,.1357-.0399,.2037,.0132-.0679,.0265-.1357,.0399-.2037Zm-6.6316,22.4531c.1015-.0279,.2024-.0585,.3038-.0869-.1015,.0284-.2022,.0589-.3038,.0869Zm3.7574-1.1524c.2054-.0693,.4108-.1388,.6158-.21-.2051,.0708-.41,.1411-.6158,.21Zm1.861-.6744c-.6147-6.2975-.353-12.6226,.7066-18.8183,5.8073,2.6119,11.202,6.0019,16.0841,10.0249-5.1953,3.6818-10.8506,6.6164-16.7907,8.7934Zm22.9323-3.0954c.473,.4937,.9482,.984,1.4073,1.4917-.4573-.5085-.9354-.9971-1.4073-1.4917Z"/></svg>