<?xml version="1.0" encoding="UTF-8"?><svg id="ac" xmlns="http://www.w3.org/2000/svg" width="48" height="48" viewBox="0 0 48 48"><defs><style>.dx{fill-rule:evenodd;}</style></defs><g id="ad"><path class="dx" d="M38,38H10V10h11V6H8c-1.1045,0-2,1.0073-2,2.25v31.5c0,1.2426,.8955,2.25,2,2.25H40c1.1045,0,2-1.0074,2-2.25v-12.75h-4v11Z"/><path class="dx" d="M42,8c0-1.1046-.8954-2-2-2h-13c-1.1046,0-2,.8954-2,2s.8954,2,2,2h8.1719L16.5876,28.5843c-.3629,.3621-.5876,.8626-.5876,1.4157,0,1.1046,.8954,2,2,2,.5529,0,1.0533-.2245,1.4153-.5872L38,12.8281v8.1719c0,1.1046,.8954,2,2,2s2-.8954,2-2V8.25c0-.0453-.0095-.0877-.0118-.1324,.0023-.0397,.0118-.0773,.0118-.1176Z"/></g></svg>