<?xml version="1.0" encoding="UTF-8"?><svg id="y" xmlns="http://www.w3.org/2000/svg" width="48" height="48" viewBox="0 0 48 48"><g id="z"><path d="M10,42c-.5117,0-1.0239-.1953-1.4141-.5859-.7812-.7812-.7812-2.0469,0-2.8281l14.5854-14.5859L8.5859,9.4141c-.7812-.7812-.7812-2.0469,0-2.8281,.7803-.7812,2.0479-.7812,2.8281,0L27.4141,22.5859c.7812,.7812,.7812,2.0469,0,2.8281L11.4141,41.4141c-.3901,.3906-.9023,.5859-1.4141,.5859Z"/><path d="M38,42c-1.1045,0-2-.8955-2-2V8c0-1.1045,.8955-2,2-2s2,.8955,2,2V40c0,1.1045-.8955,2-2,2Z"/></g></svg>