<?xml version="1.0" encoding="UTF-8"?><svg id="x" xmlns="http://www.w3.org/2000/svg" width="48" height="48" viewBox="0 0 48 48"><g id="y"><path d="M25.0935,16.994c-.1845-.0088-.3696-.0007-.5527,.0241l.0156-.0018,.0009-.0008h-4.446v6.2722h4.446c1.6804,.1846,3.1941-1.0116,3.381-2.6719,.0192-.1712,.0231-.3437,.0128-.5156,.0781-1.637-1.2004-3.0275-2.8575-3.1063Z"/><path d="M40,4H8c-2.2092,0-4,1.7908-4,4V40c0,2.2091,1.7908,4,4,4H40c2.2092,0,4-1.7909,4-4V8c0-2.2092-1.7908-4-4-4Zm-13.3685,23.9988c-.2928,.0112-.5861,.0059-.8783-.0161l.0253,.0017h-5.6682v8.0156h-6.1104V12.0187h10.9316c2.4169-.1537,4.7969,.6432,6.6218,2.2161,1.6232,1.5399,2.5099,3.6868,2.4411,5.9091,.1598,4.1768-3.1349,7.6929-7.3629,7.855Z"/></g></svg>