<?xml version="1.0" encoding="UTF-8"?><svg id="v" xmlns="http://www.w3.org/2000/svg" width="48" height="48" viewBox="0 0 48 48"><g id="w"><g><path d="M22,20c0,3.3137-2.6863,6-6,6s-6-2.6863-6-6,2.6863-6,6-6,6,2.6863,6,6Zm16-6c0,3.3137-2.6863,6-6,6s-6-2.6863-6-6,2.6863-6,6-6,6,2.6863,6,6Z"/><path d="M32.001,22c-5.523,0-10,2.686-10,6v1.227c-1.727-.776-3.744-1.228-5.867-1.228l-.141,.001h.007c-5.523,0-10,2.686-10,6v4c0,1.1046,.8954,2,2,2H24c1.1046,0,2-.8954,2-2v-4h14c1.1046,0,2-.8954,2-2v-4c0-3.314-4.477-6-10-6h.001Z"/></g></g></svg>