<?xml version="1.0" encoding="UTF-8"?><svg id="x" xmlns="http://www.w3.org/2000/svg" width="48" height="48" viewBox="0 0 48 48"><g id="y"><path d="M43.1094,28.3359l-16.4338-10.9558,.3244-10.3801c0-1.6569-1.3431-3-3-3s-3,1.3431-3,3l.3244,10.3801L4.8906,28.3359c-.8008,.5342-1.1084,1.5635-.7305,2.4492,.3203,.749,1.0518,1.2148,1.8389,1.2148,.1436,0,.29-.0156,.4346-.0479l15.2403-3.3867,.3016,9.6521-5.5566,3.969c-.3965,.2822-.5312,.8096-.3193,1.248,.1699,.3525,.5244,.5654,.9004,.5654,.0908,0,.1836-.0127,.2744-.0381l6.7256-1.9216,6.7256,1.9216c.0908,.0254,.1836,.0381,.2744,.0381,.376,0,.7305-.2129,.9004-.5654,.2119-.4385,.0771-.9658-.3193-1.248l-5.5566-3.969,.3016-9.6521,15.2403,3.3867c.1445,.0322,.291,.0479,.4346,.0479,.7861,0,1.5186-.4658,1.8389-1.2148,.3779-.8857,.0703-1.915-.7305-2.4492Z"/></g></svg>