<?xml version="1.0" encoding="UTF-8"?><svg id="i" xmlns="http://www.w3.org/2000/svg" width="48" height="48" viewBox="0 0 48 48"><polygon points="2 16 2 34 14 34 26 46 26 2 14 16 2 16"/><path d="M33.437,16.2747c-.7305-.7305-1.9121-.7305-2.6318,0-.7305,.7305-.7305,1.9121,0,2.6426,1.6825,1.6812,2.519,3.8699,2.5204,6.0801-.0013,2.2129-.8379,4.407-2.5204,6.0881-.7305,.7305-.7305,1.9121,0,2.6399,.3545,.3652,.8392,.5505,1.3173,.5505,.4767,0,.9601-.1853,1.3146-.5505,2.417-2.4089,3.6309-5.5725,3.6309-8.728,0-3.1528-1.2139-6.3164-3.6309-8.7227Z"/><path d="M39.7534,9.9771c-.7305-.7412-1.9121-.7278-2.6318,0-.7305,.7197-.7305,1.9014,0,2.6318,3.4268,3.4294,5.1415,7.9036,5.1415,12.3911,0,4.4929-1.704,8.9617-5.1415,12.3965-.7305,.7278-.7305,1.9094,0,2.6399,.3545,.3518,.8419,.5371,1.3173,.5371,.4767,0,.9601-.1853,1.3146-.5371,4.1626-4.1599,6.2506-9.6035,6.2466-15.0364,.004-5.4329-2.084-10.8738-6.2466-15.0229Z"/></svg>