<?xml version="1.0" encoding="UTF-8"?><svg id="r" xmlns="http://www.w3.org/2000/svg" width="48" height="48" viewBox="0 0 48 48"><g id="s"><path d="M24,6C14.059,6,6,14.059,6,24s8.059,18,18,18,18-8.059,18-18S33.941,6,24,6Zm1.951,28.01h-4.791v-4.707h4.791v4.707Zm2.605-10.157l-.026,.013-.002,.001c-.8537,.4572-1.6445,1.0231-2.3534,1.6826-.4092,.5497-.5985,1.2324-.5306,1.9144l-.001-.011h-4.034c-.3123-1.7959,.4344-3.6116,1.92-4.668l.014-.01c1.232-1.1479,2.829-1.568,2.829-3.277-.0147-1.1829-.9855-2.1299-2.1684-2.1152-.0741,.0009-.1481,.0057-.2216,.0142l.01-.001c-1.4752-.0897-2.7437,1.0336-2.8334,2.5088-.0078,.1283-.0063,.2571,.0044,.3852l-.001-.01h-4.511c.084-3.949,2.857-6.666,7.536-6.666,4.174,0,6.976,2.326,6.976,5.715,.0662,1.8821-.9454,3.6376-2.607,4.524Z"/></g></svg>