<?xml version="1.0" encoding="UTF-8"?><svg id="b" xmlns="http://www.w3.org/2000/svg" width="48" height="48" viewBox="0 0 48 48"><path d="M24,0c13.8667,0,24,10.6667,24,24s-10.1333,24-24,24S0,37.3333,0,24,10.1333,0,24,0Zm0,43.7333c11.4667,0,19.7333-8.8,19.7333-19.7333S35.4667,4.2667,24,4.2667,4.5333,13.0667,4.5333,24s8,19.7333,19.4667,19.7333Zm4.5333-20.5333c1.8667-.8,2.9333-2.1333,2.9333-4.5333,0-3.4667-2.6667-5.3333-7.2-5.3333h-7.4667v20.8h7.2c5.0667,0,8.2667-1.8667,8.2667-6.1333,0-2.6667-1.6-4.2667-3.7333-4.8Zm-5.0667-1.3333h-2.1333v-5.0667h2.4c2.1333,0,3.2,.8,3.2,2.4,0,1.6-1.0667,2.6667-3.4667,2.6667Zm.2667,8.5333h-2.6667v-5.6h2.4c2.4,0,4,1.0667,4,2.9333,.2667,1.8667-1.0667,2.6667-3.7333,2.6667Z"/></svg>