<?xml version="1.0" encoding="UTF-8"?><svg id="d" xmlns="http://www.w3.org/2000/svg" width="48" height="48" viewBox="0 0 48 48"><path d="M23.9973,0c13.8667,0,24,10.6667,24,24s-10.1333,24-24,24S-.0027,37.3333-.0027,24,10.1306,0,23.9973,0Zm0,43.7333c11.4667,0,19.4667-8.8,19.4667-19.7333S35.1973,4.2667,23.9973,4.2667C12.5306,4.2667,4.5306,13.0667,4.5306,24s8,19.7333,19.4667,19.7333Zm-1.3333-30.4h-6.9333v20.8h6.9333c7.2,0,11.2-4.5333,11.2-10.4,.2667-6.1333-3.7333-10.4-11.2-10.4Zm0,16.8h-2.1333v-13.0667h2.4c4,0,6.4,2.4,6.4,6.6667-.2667,4.2666-2.6667,6.4-6.6667,6.4Z"/></svg>