<?xml version="1.0" encoding="UTF-8"?><svg id="f" xmlns="http://www.w3.org/2000/svg" width="48" height="48" viewBox="0 0 48 48"><path d="M43.795,16.8849c-5.3663,6.4608-10.4642,13.1909-16.6355,19.1133,5.098-9.1528,12.8791-16.6905,18.2453-25.5741,.8049-1.346-2.9515-3.2304-3.7564-2.4228-1.0733,1.0768-2.1465,2.1536-3.2198,3.2304,.5366-1.346-2.9515-2.9612-3.7564-2.1536-.8049,.8076-1.8782,1.6152-2.6831,2.4228,.5366-.8076,1.3416-1.6152,1.8782-2.4228,.8049-1.346-2.6831-3.2304-3.7564-2.4228-1.6099,1.346-2.9515,2.692-4.293,4.038,1.8782-2.692,3.7564-5.384,5.3663-8.076,.8049-1.346-2.6831-3.2304-3.7564-2.4228-6.9762,5.384-12.6108,12.3833-19.0503,18.0365,3.2198-4.8456,7.2445-9.9605,9.9276-14.5369,.8049-1.346-3.2198-3.4996-4.0247-2.1536C9.7192,8.5397,2.743,16.3465,.0599,24.1533c-.5366,1.6152,2.6831,2.9612,3.7564,2.4228,3.7564-2.1536,7.2445-4.8456,10.4642-8.076-3.4881,4.5764-6.7079,9.1528-9.6593,13.9985-.8049,1.346,2.4148,2.9612,3.7564,2.4228-1.0733,1.346-1.8782,2.9612-2.9515,4.3072-.8049,1.346,2.6831,2.9612,3.7564,2.4228,.2683-.2692,.5366-.2692,.8049-.5384-.8049,1.346-1.6099,2.4228-2.4148,3.7688-.8049,1.346,2.9515,3.2304,3.7564,2.4228,3.4881-3.4996,6.7078-6.73,10.1959-9.9605-.5366,1.6152-1.3416,3.2304-1.6099,4.8456-.5366,1.346,2.6831,3.2304,3.7564,2.4228,.8049-.5384,1.6099-1.0768,2.4148-1.8844-.5366,.8076-1.0733,1.8844-1.6099,2.692-.8049,1.346,2.9515,3.4996,4.0247,2.1536,5.098-5.9224,9.391-12.6525,16.0988-16.9597,1.3416-.8076-1.6099-2.9612-3.2198-2.692,2.1465-2.9612,4.293-6.1916,6.4395-9.1528,1.0733-.8076-2.9515-2.9612-4.0247-1.8844Z"/></svg>