<?xml version="1.0" encoding="UTF-8"?><svg id="c" xmlns="http://www.w3.org/2000/svg" width="48" height="48" viewBox="0 0 48 48"><path d="M23.9973,0c13.8667,0,24,10.6667,24,24s-10.1333,24-24,24S-.0027,37.3333-.0027,24,10.1306,0,23.9973,0Zm0,43.7333c11.4667,0,19.4667-8.8,19.4667-19.7333S35.1973,4.2667,23.9973,4.2667C12.5306,4.2667,4.5306,13.0667,4.5306,24s8,19.7333,19.4667,19.7333Zm6.9333-14.6667c-1.6,1.0667-3.2,1.6-5.0667,1.6-3.4667,0-5.8667-2.6667-5.8667-6.9333s2.1333-6.9333,5.6-6.9333c1.8667,0,3.4667,.8,4.8,1.6l.5333-4c-1.6-1.0667-3.2-1.6-5.8667-1.6-5.8667,0-10.1333,4.2667-10.1333,10.9333,0,6.4,4,10.6667,10.1333,10.6667,2.4,0,4.5333-.5333,6.1333-1.6l-.2667-3.7333Z"/></svg>