<?xml version="1.0" encoding="UTF-8"?><svg id="q" xmlns="http://www.w3.org/2000/svg" width="48" height="48" viewBox="0 0 48 48"><g id="r"><path d="M11.0148,37.5292c-1.1249,1.9998,.3203,4.4708,2.6147,4.4708h8.3705v-8H13l-1.9852,3.5292Z"/><path d="M17.7316,29.4709l-2.8182-10.942-10.7203,2.8765,3.3588,2.001-3.0408,5.3693c-.7352,1.3113-.6731,2.9241,.1608,4.175l3.6411,5.4617,6.1448-10.8939,3.2738,1.9523Z"/><path d="M15.9865,8.6672l-3.4692,6.0916,6.8548,3.954,3.713-6.6052-1.8605-3.3968c-1.1276-2.0589-4.0764-2.0834-5.238-.0435Z"/><path d="M43.6039,27.5179l-3.5656-6.2753-6.7017,4.0508,3.8329,6.7065h3.826c2.3002,0,3.7447-2.4821,2.6083-4.4821Z"/><path d="M32,30l-8,8,8,8v-4h4.4613c1.5269,0,2.9205-.8692,3.5922-2.2403l2.8215-5.7597h-10.875v-4Z"/><path d="M24.5532,18.5l11,3,2.5-11-3.2935,1.9517-2.5305-4.4365c-.7122-1.2462-2.0375-2.0152-3.4728-2.0152h-6.7529l5.9779,10.4685-3.4282,2.0315Z"/></g></svg>