<?xml version="1.0" encoding="UTF-8"?>
<svg id="i" data-name="Icon" xmlns="http://www.w3.org/2000/svg" width="48" height="48" viewBox="0 0 48 48">
  <g id="j" data-name="Export">
    <path d="m45.2285,41.1396l-13.7285-19.6122V7.5h2.5c.8281,0,1.5-.6719,1.5-1.5s-.6719-1.5-1.5-1.5H14c-.8281,0-1.5.6719-1.5,1.5s.6719,1.5,1.5,1.5h2.5v14.0275L2.7715,41.1396c-.3213.458-.3604,1.0566-.1016,1.5527.2578.4961.7705.8076,1.3301.8076h40c.5596,0,1.0723-.3115,1.3301-.8076.2588-.4961.2197-1.0947-.1016-1.5527Zm-38.3477-.6396l12.3477-17.6396c.0023-.0034.0035-.0071.0059-.0104.04-.0579.0717-.1211.1033-.1844.0128-.0256.03-.0497.0411-.0757.0191-.0445.0299-.0928.0447-.1394.0151-.0476.0342-.0944.0444-.1428.0057-.027.0053-.0559.0095-.0834.0107-.0707.0209-.1414.0214-.2125,0-.004.0012-.0076.0012-.0116V7.5h9v14.5c0,.004.0011.0076.0012.0115.0005.0711.0107.1419.0215.2128.0042.0275.0038.0563.0095.0832.0101.0483.0292.095.0443.1425.0148.0467.0256.0952.0447.1397.0114.0265.0287.0509.0417.0769.0314.0629.063.1255.1026.183.0024.0034.0036.0073.006.0107l12.3477,17.6396H6.8809Z"/>
    <polygon points="26 16 22 16 22 24 12 38 36 38 26 24 26 16"/>
  </g>
</svg>