<?xml version="1.0" encoding="UTF-8"?><svg id="n" xmlns="http://www.w3.org/2000/svg" width="48" height="48" viewBox="0 0 48 48"><g id="o"><path d="M43.4141,40.5859l-10.7856-10.7856c2.1056-2.7092,3.3716-6.1034,3.3716-9.8003,0-8.8365-7.1635-16-16-16S4,11.1635,4,20s7.1635,16,16,16c3.6969,0,7.0911-1.266,9.8003-3.3716l10.7856,10.7856c.3906,.3906,.9023,.5859,1.4141,.5859s1.0234-.1953,1.4141-.5859c.7812-.7812,.7812-2.0469,0-2.8281ZM8,20c0-6.6168,5.3832-12,12-12s12,5.3832,12,12-5.3832,12-12,12-12-5.3832-12-12Z"/></g></svg>