<?xml version="1.0" encoding="UTF-8"?><svg id="m" xmlns="http://www.w3.org/2000/svg" width="48" height="48" viewBox="0 0 48 48"><path d="M42,20h-3.556c-.3306-1.1959-.7996-2.3318-1.399-3.3878l2.5116-2.5116c.7812-.7812,.7812-2.0469,0-2.8281l-2.8291-2.8291c-.7812-.7812-2.0469-.7812-2.8281,0l-2.5116,2.5116c-1.056-.5994-2.192-1.0684-3.3878-1.399v-3.556c0-1.1045-.8955-2-2-2h-4c-1.1045,0-2,.8955-2,2v3.556c-1.1959,.3306-2.3318,.7996-3.3878,1.399l-2.5116-2.5116c-.7812-.7812-2.0469-.7812-2.8281,0l-2.8291,2.8291c-.7812,.7812-.7812,2.0469,0,2.8281l2.5116,2.5116c-.5994,1.056-1.0684,2.192-1.399,3.3878h-3.556c-1.1045,0-2,.8955-2,2v4c0,1.1045,.8955,2,2,2h3.556c.3306,1.1958,.7996,2.3318,1.399,3.3878l-2.5116,2.5116c-.7812,.7812-.7812,2.0469,0,2.8281l2.8291,2.8291c.3906,.3906,.9023,.5859,1.4141,.5859s1.0234-.1953,1.4141-.5859l2.5116-2.5116c1.056,.5994,2.192,1.0684,3.3878,1.399v3.556c0,1.1045,.8955,2,2,2h4c1.1045,0,2-.8955,2-2v-3.556c1.1959-.3306,2.3318-.7996,3.3878-1.399l2.5116,2.5116c.3906,.3906,.9023,.5859,1.4141,.5859s1.0234-.1953,1.4141-.5859l2.8291-2.8291c.7812-.7812,.7812-2.0469,0-2.8281l-2.5116-2.5116c.5994-1.056,1.0684-2.192,1.399-3.3878h3.556c1.1045,0,2-.8955,2-2v-4c0-1.1045-.8955-2-2-2Zm-18,11c-3.866,0-7-3.134-7-7s3.134-7,7-7,7,3.134,7,7-3.134,7-7,7Z"/></svg>