<?xml version="1.0" encoding="UTF-8"?><svg id="k" xmlns="http://www.w3.org/2000/svg" width="48" height="48" viewBox="0 0 48 48"><defs><style>.dw{fill-rule:evenodd;}</style></defs><path class="dw" d="M44.3647,20.5381L29.3647,6.5381c-.5825-.543-1.4312-.6885-2.1616-.3721-.7305,.3174-1.2031,1.0371-1.2031,1.834v7.0558c-12.8708,.6061-23,7-23,14.8045,0,7.1436,9.9983,11.8707,9.9983,11.8707h0c.9558,.553,2.179,.227,2.7324-.7286,.5536-.9558,.2275-2.1794-.7283-2.733l-.0007-.0003h0c-1.5354-.9354-2.426-2.0482-2.426-3.2433,0-3.0642,6.4124-6.0196,13.4243-5.9643v6.9385c0,.7969,.4727,1.5166,1.2031,1.834,.2563,.1113,.5273,.166,.7964,.166,.4971,0,.9873-.1855,1.3652-.5381l15-14c.4053-.3779,.6353-.9072,.6353-1.4619s-.23-1.084-.6353-1.4619Z"/></svg>