<?xml version="1.0" encoding="UTF-8"?><svg id="l" xmlns="http://www.w3.org/2000/svg" width="48" height="48" viewBox="0 0 48 48"><g id="m"><path d="M36,28c.7943-.0006,1.5129-.4712,1.831-1.199l.005-.013h.001l.002-.004,.005-.011,5.994-13.986c.4369-1.0127-.03-2.1878-1.0427-2.6247-.2499-.1078-.5192-.1634-.7913-.1633H14.84l-.879-4.393-.048-.04c-.1909-.9061-.986-1.5578-1.912-1.567H6c-1.1046,0-2,.8954-2,2s.8954,2,2,2h4.36l3.544,17.719-3.693,7.387,.007,.011c-.4937,.9646-.1121,2.1467,.8525,2.6405,.2766,.1416,.5828,.2154,.8935,.2155h.019l.017,.028h24c1.1046,0,2-.8954,2-2s-.8954-2-2-2H15.236l2-4h18.764Zm2,13c0,1.6569-1.3431,3-3,3s-3-1.3431-3-3,1.3431-3,3-3,3,1.3431,3,3Zm-22,0c0,1.6569-1.3431,3-3,3s-3-1.3431-3-3,1.3431-3,3-3,3,1.3431,3,3Z"/></g></svg>