<?xml version="1.0" encoding="UTF-8"?><svg id="m" xmlns="http://www.w3.org/2000/svg" width="48" height="48" viewBox="0 0 48 48"><g id="n"><path d="M18,4c-1.1045,0-2,.8955-2,2v7.1719L6.4141,3.5859c-.7803-.7812-2.0479-.7812-2.8281,0-.7812,.7812-.7812,2.0469,0,2.8281L13.1719,16H6c-1.1045,0-2,.8955-2,2s.8955,2,2,2h12c.1313,0,.2624-.0138,.3917-.0395,.059-.0117,.1136-.0338,.1707-.0506,.0679-.0199,.1367-.0356,.2026-.0629,.0665-.0276,.1268-.0655,.1895-.0998,.0516-.0283,.1053-.051,.1548-.084,.2194-.1466,.4078-.3351,.5543-.5545,.0317-.0475,.0533-.099,.0806-.1484,.0357-.0646,.0746-.127,.1031-.1957,.0269-.065,.0422-.1327,.062-.1996,.0172-.0579,.0395-.1133,.0514-.1733,.0258-.1293,.0395-.2603,.0395-.3915V6c0-1.1045-.8955-2-2-2Z"/><path d="M28.0909,18.5649c.0197,.067,.0351,.1346,.062,.1996,.0284,.0687,.0674,.1311,.1031,.1957,.0272,.0494,.0488,.101,.0806,.1484,.1465,.2194,.3349,.4079,.5543,.5545,.0495,.0331,.1031,.0558,.1548,.084,.0627,.0343,.123,.0722,.1895,.0998,.0659,.0273,.1347,.043,.2026,.0629,.057,.0168,.1116,.0389,.1707,.0506,.1293,.0257,.2604,.0395,.3917,.0395h12c1.1045,0,2-.8955,2-2s-.8955-2-2-2h-7.1719l9.5859-9.5859c.7812-.7812,.7812-2.0469,0-2.8281-.7803-.7812-2.0479-.7812-2.8281,0l-9.5859,9.5859V6c0-1.1045-.8955-2-2-2s-2,.8955-2,2v12c0,.1313,.0138,.2623,.0395,.3915,.0119,.06,.0342,.1155,.0514,.1733Z"/><path d="M34.8281,32h7.1719c1.1045,0,2-.8955,2-2s-.8955-2-2-2h-12c-.1313,0-.2625,.0138-.3918,.0395-.0583,.0116-.1121,.0334-.1685,.05-.0687,.0201-.1382,.0359-.2048,.0635-.0658,.0273-.1253,.0648-.1874,.0986-.0524,.0285-.1068,.0516-.1569,.0852-.2192,.1465-.4076,.3351-.5541,.5544-.0317,.0475-.0533,.099-.0806,.1484-.0357,.0646-.0746,.127-.1031,.1957-.0269,.065-.0422,.1327-.062,.1996-.0172,.0579-.0395,.1133-.0514,.1733-.0257,.1292-.0395,.2603-.0395,.3915v12c0,1.1045,.8955,2,2,2s2-.8955,2-2v-7.1719l9.5859,9.5859c.3901,.3906,.9023,.5859,1.4141,.5859s1.0239-.1953,1.4141-.5859c.7812-.7812,.7812-2.0469,0-2.8281l-9.5859-9.5859Z"/><path d="M19.9091,29.4351c-.0197-.067-.0351-.1346-.062-.1996-.0284-.0687-.0674-.1311-.1031-.1957-.0272-.0494-.0488-.101-.0806-.1484-.1465-.2193-.3348-.4079-.5541-.5544-.0504-.0338-.1051-.057-.1578-.0856-.0617-.0337-.121-.071-.1864-.0981-.0668-.0276-.1366-.0436-.2056-.0638-.0561-.0165-.1098-.0383-.1678-.0498-.1293-.0257-.2605-.0395-.3918-.0395H6c-1.1045,0-2,.8955-2,2s.8955,2,2,2h7.1719L3.5859,41.5859c-.7812,.7812-.7812,2.0469,0,2.8281,.3901,.3906,.9023,.5859,1.4141,.5859s1.0239-.1953,1.4141-.5859l9.5859-9.5859v7.1719c0,1.1045,.8955,2,2,2s2-.8955,2-2v-12c0-.1313-.0137-.2623-.0395-.3915-.0119-.06-.0342-.1155-.0514-.1733Z"/></g></svg>