<?xml version="1.0" encoding="UTF-8"?><svg id="p" xmlns="http://www.w3.org/2000/svg" width="48" height="48" viewBox="0 0 48 48"><g id="q"><path d="m35.4128,25.4153c.0933-.0931.1768-.1959.2504-.3059.0338-.0504.057-.1051.0856-.1578.0337-.0617.071-.121.0981-.1864.0276-.0668.0436-.1366.0638-.2056.0165-.0561.0383-.1098.0498-.1678.0514-.2586.0514-.5251,0-.7837-.0116-.0583-.0334-.1121-.05-.1685-.0201-.0687-.0359-.1382-.0635-.2048-.0273-.0658-.0648-.1253-.0986-.1874-.0285-.0524-.0516-.1068-.0852-.1569-.0735-.11-.157-.2128-.2504-.3059l-15.9987-15.9987c-.7808-.7812-2.0474-.7812-2.8281,0-.7812.7803-.7812,2.0479,0,2.8281l12.5855,12.5859H6c-1.1045,0-2,.8955-2,2s.8955,2,2,2h23.1714s-12.5855,12.5859-12.5855,12.5859c-.3906.3901-.5859.9023-.5859,1.4141s.1953,1.0239.5859,1.4141c.7808.7812,2.0474.7812,2.8281,0l15.9987-15.9987Z"/><path d="m44,4h-8c-1.1045,0-2,.8955-2,2s.8955,2,2,2h4s0,32,0,32h-4c-1.1045,0-2,.8955-2,2,0,1.1045.8955,2,2,2h8V4Z"/></g></svg>