<?xml version="1.0" encoding="UTF-8"?><svg id="o" xmlns="http://www.w3.org/2000/svg" width="48" height="48" viewBox="0 0 48 48"><g id="p"><g><path d="m10.8281,26h23.1719c1.1045,0,2-.8955,2-2s-.8955-2-2-2H10.8281l12.5859-12.5859c.7812-.7812.7812-2.0469,0-2.8281s-2.0469-.7812-2.8281,0l-15.9988,15.9987c-.0935.0933-.177.1964-.2507.3066-.0317.0475-.0532.099-.0806.1484-.0356.0646-.0746.127-.103.1957-.0269.065-.0422.1327-.062.1996-.0171.0579-.0394.1133-.0513.1733-.0515.2585-.0515.5246,0,.7831.0118.06.0342.1155.0513.1733.0198.067.0352.1346.062.1996.0284.0687.0674.1311.103.1957.0273.0494.0488.101.0806.1484.0737.1103.1572.2133.2507.3066l15.9988,15.9987c.3906.3906.9023.5859,1.4141.5859s1.0234-.1953,1.4141-.5859c.7812-.7812.7812-2.0469,0-2.8281l-12.5859-12.5859Z"/><path d="m36,4c-1.1045,0-2,.8955-2,2s.8955,2,2,2h4v32h-4c-1.1045,0-2,.8955-2,2s.8955,2,2,2h8V4h-8Z"/></g></g></svg>