<?xml version="1.0" encoding="UTF-8"?><svg id="j" xmlns="http://www.w3.org/2000/svg" width="48" height="48" viewBox="0 0 48 48"><g id="k"><path id="l" d="M24,7l3.5701,11.9h13.4299l-10.798,8.7733,3.9979,13.3267-10.2-8.2875-10.2,8.2875,3.9979-13.3267L7,18.9h13.4299l3.5701-11.9m17,11.9h.005M24,4c-1.3248,0-2.4928,.869-2.8734,2.1379l-2.9287,9.7621H7c-1.2699,0-2.4022,.7996-2.8271,1.9963-.4248,1.1967-.0502,2.5313,.9354,3.3321l9.2391,7.5067-3.4209,11.4028c-.3784,1.2615,.1102,2.6223,1.2046,3.3549,.5067,.3393,1.0885,.5071,1.6686,.5071,.6727,0,1.3433-.2257,1.8921-.6716l8.3082-6.7504,8.3082,6.7504c.5487,.4459,1.2194,.6716,1.8921,.6716,.5802,0,1.1619-.1678,1.6686-.5071,1.0944-.7327,1.583-2.0934,1.2046-3.3549l-3.4209-11.4028,9.188-7.4651c.7068-.5489,1.162-1.4064,1.162-2.3699,0-1.6569-1.3407-3-2.9976-3h-11.2029l-2.9287-9.7621c-.3806-1.2689-1.5486-2.1379-2.8734-2.1379h0Z"/></g></svg>