<?xml version="1.0" encoding="UTF-8"?><svg id="i" xmlns="http://www.w3.org/2000/svg" width="48" height="48" viewBox="0 0 48 48"><g id="j"><path d="M36.624,41.4258l-3.8481-12.8281,10.394-8.4463c.6572-.5332,.9067-1.4229,.6235-2.2207s-1.0381-1.3311-1.8848-1.3311h-12.7319l-3.3525-11.1738c-.2534-.8467-1.0322-1.4258-1.9155-1.4258s-1.6616,.5791-1.9155,1.4248l-3.3525,11.1748H5.9087c-.8467,0-1.6016,.5332-1.8848,1.3311s-.0337,1.6875,.6235,2.2207l10.394,8.4463-3.8486,12.8271c-.2524,.8418,.0732,1.749,.8027,2.2373,.7285,.4863,1.6924,.4453,2.374-.1104l9.5391-7.75,9.5386,7.75c.3657,.2979,.813,.4482,1.2612,.4482,.3872,0,.7749-.1123,1.1128-.3379,.7295-.4883,1.0552-1.3955,.8027-2.2363Z"/></g></svg>