<?xml version="1.0" encoding="UTF-8"?><svg id="h" xmlns="http://www.w3.org/2000/svg" width="48" height="48" viewBox="0 0 48 48"><path d="M24,11c1.1045,0,2-.8955,2-2V4c0-1.1045-.8955-2-2-2s-2,.8955-2,2v5c0,1.1045,.8955,2,2,2Z"/><path d="M24,37c-1.1045,0-2,.8955-2,2v5c0,1.1045,.8955,2,2,2s2-.8955,2-2v-5c0-1.1045-.8955-2-2-2Z"/><path d="M11.979,14.8076c.3906,.3906,.9028,.5859,1.4146,.5859s1.0234-.1953,1.4141-.5859c.7812-.7803,.7812-2.0469,.0005-2.8281l-3.5361-3.5361c-.7803-.7812-2.0469-.7812-2.8281,0-.7812,.7803-.7812,2.0469-.0005,2.8281l3.5356,3.5361Z"/><path d="M36.021,33.1924c-.7812-.7812-2.0474-.7812-2.8286,0-.7812,.7803-.7812,2.0469-.0005,2.8281l3.5361,3.5361c.3901,.3906,.9023,.5859,1.4141,.5859s1.0234-.1953,1.4141-.5859c.7812-.7803,.7812-2.0469,.0005-2.8281l-3.5356-3.5361Z"/><path d="M11,24c0-1.1045-.8955-2-2-2H4c-1.1045,0-2,.8955-2,2s.8955,2,2,2h5c1.1045,0,2-.8955,2-2Z"/><path d="M44,22h-5c-1.1045,0-2,.8955-2,2s.8955,2,2,2h5c1.1045,0,2-.8955,2-2s-.8955-2-2-2Z"/><path d="M11.979,33.1924l-3.5356,3.5361c-.7808,.7812-.7808,2.0479,.0005,2.8281,.3906,.3906,.9023,.5859,1.4141,.5859s1.0239-.1953,1.4141-.5859l3.5361-3.5361c.7808-.7812,.7808-2.0479-.0005-2.8281-.7812-.7812-2.0474-.7812-2.8286,0Z"/><path d="M34.6064,15.3936c.5117,0,1.0239-.1953,1.4146-.5859l3.5356-3.5361c.7808-.7812,.7808-2.0479-.0005-2.8281-.7812-.7812-2.0479-.7812-2.8281,0l-3.5361,3.5361c-.7808,.7812-.7808,2.0479,.0005,2.8281,.3906,.3906,.9023,.5859,1.4141,.5859Z"/><circle cx="24" cy="24" r="11"/></svg>