<?xml version="1.0" encoding="UTF-8"?><svg id="e" xmlns="http://www.w3.org/2000/svg" width="48" height="48" viewBox="0 0 48 48"><g id="f"><path d="M41.4994,20.4034c-3.4403,.0082-6.7963-1.0647-9.5938-3.0672v13.966c-.0026,7.0154-5.6917,12.7003-12.7071,12.6978-7.0154-.0026-12.7003-5.6917-12.6978-12.7071,.0026-7.0154,5.6917-12.7003,12.7071-12.6978,.5819,.0002,1.1631,.0404,1.7395,.1203v7.0244c-3.0721-.9663-6.3458,.7407-7.3121,3.8128-.9663,3.0721,.7407,6.3458,3.8128,7.3121,3.0721,.9663,6.3458-.7407,7.3121-3.8128,.1781-.5662,.2687-1.1563,.2687-1.7498V4h6.8767c-.0048,.5807,.0439,1.1607,.1453,1.7325h0c.4829,2.5798,2.0066,4.847,4.2128,6.2688,1.553,1.0269,3.3739,1.5742,5.2357,1.5738v6.8283Z"/></g></svg>