<?xml version="1.0" encoding="UTF-8"?><svg id="d" xmlns="http://www.w3.org/2000/svg" width="48" height="48" viewBox="0 0 48 48"><g id="e"><path d="M41.3829,15.0812c.0277,.3892,.0277,.7784,.0277,1.1666l.001,.1758c0,14.0045-11.3532,25.3576-25.3576,25.3576l-.1847-.001h-.0563c-5.0942,0-9.8388-1.5025-13.8129-4.0886l.0978,.0603c.675,.0756,1.3537,.1128,2.033,.1116l.1413-.001h.0385c4.0405,.006,7.9642-1.3553,11.1329-3.8624l-.0375,.0286c-3.8146-.0701-7.17-2.5391-8.3719-6.1601l-.0178-.0632c.5068,.084,1.0935,.1343,1.6912,.1383h.004c.8198-.0018,1.636-.1097,2.4281-.321l-.0662,.0148c-4.1341-.8584-7.1964-4.4699-7.1964-8.7966v-.1205c1.2366,.6956,2.6214,1.086,4.0392,1.139l.0178,.001c-2.4261-1.6349-4.0007-4.3721-4.0007-7.4769,0-1.6675,.4544-3.2282,1.2447-4.5667l-.0227,.0415c4.4462,5.442,11.0242,8.9991,18.4408,9.3884l.0632,.003c-.1458-.6746-.2203-1.3626-.2223-2.0527v-.003c.004-4.9608,4.0288-8.9791,8.9896-8.9751,2.4759,.002,4.8412,1.0259,6.5372,2.8298l.004,.0049c2.0402-.3914,3.9952-1.1402,5.7749-2.2118l-.079,.0445c-.668,2.0566-2.0542,3.804-3.9049,4.9224l-.0405,.0227c1.8236-.2055,3.6049-.6893,5.2819-1.4343l-.1146,.0454c-1.2183,1.7693-2.7214,3.3245-4.4482,4.6023l-.0524,.0375-.002-.001Z"/></g></svg>