<?xml version="1.0" encoding="UTF-8"?>
<svg id="g" data-name="volume" xmlns="http://www.w3.org/2000/svg" width="48" height="48" viewBox="0 0 48 48">
  <g id="h" data-name="Export">
    <path d="m25.6328,3.1025c-.8164-.2715-1.7158.0098-2.2324.6973l-8.4004,11.2002H5c-1.1045,0-2,.8955-2,2v16c0,1.1045.8955,2,2,2h10.1094l8.4043,9.3379c.3867.4297.9307.6621,1.4863.6621.2402,0,.4834-.043.7168-.1328.7725-.2969,1.2832-1.0391,1.2832-1.8672V5c0-.8613-.5508-1.625-1.3672-1.8975Z"/>
    <path d="m33.8994,14.1006c-.7812-.7812-2.0469-.7812-2.8281,0s-.7812,2.0469,0,2.8281c3.8984,3.8994,3.8984,10.2432,0,14.1426-.7812.7812-.7812,2.0469,0,2.8281.3906.3906.9023.5859,1.4141.5859s1.0234-.1953,1.4141-.5859c5.459-5.458,5.459-14.3408,0-19.7988Z"/>
    <path d="m39.5566,8.4434c-.7812-.7812-2.0469-.7812-2.8281,0-.7812.7803-.7812,2.0469,0,2.8281,7.0176,7.0186,7.0176,18.4385,0,25.457-.7812.7812-.7812,2.0479,0,2.8281.3906.3906.9023.5859,1.4141.5859s1.0234-.1953,1.4141-.5859c8.5771-8.5781,8.5771-22.5352,0-31.1133Z"/>
  </g>
</svg>