<?xml version="1.0" encoding="UTF-8"?>
<svg id="f" data-name="volume-mute" xmlns="http://www.w3.org/2000/svg" width="48" height="48" viewBox="0 0 48 48">
  <path d="m25.6328,3.1025c-.8164-.2715-1.7158.0093-2.2324.6973l-8.4004,11.2002H5c-1.1045,0-2,.8955-2,2v16c0,1.1045.8955,2,2,2h10.1094l8.4043,9.3379c.3867.4297.9307.6621,1.4863.6621.2402,0,.4834-.0435.7168-.1328.7725-.2964,1.2832-1.0391,1.2832-1.8672V5c0-.8608-.5508-1.625-1.3672-1.8975Z"/>
  <path d="m40.8281,24l4.5859-4.5859c.7812-.7808.7812-2.0474,0-2.8281-.7812-.7812-2.0469-.7812-2.8281,0l-4.5859,4.5859-4.5859-4.5859c-.7812-.7812-2.0469-.7812-2.8281,0-.7812.7808-.7812,2.0474,0,2.8281l4.5859,4.5859-4.5859,4.5859c-.7812.7808-.7812,2.0474,0,2.8281.3906.3906.9023.5859,1.4141.5859s1.0234-.1953,1.4141-.5859l4.5859-4.5859,4.5859,4.5859c.3906.3906.9023.5859,1.4141.5859s1.0234-.1953,1.4141-.5859c.7812-.7808.7812-2.0474,0-2.8281l-4.5859-4.5859Z"/>
</svg>