<?xml version="1.0" encoding="UTF-8"?><svg id="b" xmlns="http://www.w3.org/2000/svg" width="48" height="48" viewBox="0 0 48 48"><path id="c" d="M40,11.5317c0,1.933-1.567,3.5-3.5,3.5s-3.5-1.567-3.5-3.5,1.567-3.5,3.5-3.5,3.5,1.567,3.5,3.5Zm-6,12.5h-5.172l4.585-4.585c.7815-.7767,.7854-2.0399,.0087-2.8213l-.0087-.0087L23.413,6.6167c-.362-.362-.862-.586-1.414-.586s-1.052,.224-1.414,.586l-6,6c-.7948,.7671-.8172,2.0332-.0501,2.828,.7671,.7948,2.0332,.8172,2.828,.0501,.0167-.0161,.0331-.0325,.0492-.0491l4.587-4.586,3.172,3.172-6.188,6.188c-.6648-.1271-1.3402-.19-2.017-.188-2.675,0-5.124,.963-7.021,2.562l.016-.014,2.865,2.865c1.1987-.9146,2.6642-1.4109,4.172-1.413h.001c3.8639,.005,6.995,3.1361,7,7-.0026,1.5149-.5033,2.9868-1.425,4.189l.012-.017,2.865,2.865c1.6511-1.9657,2.554-4.4519,2.549-7.019,.0009-1.0479-.1486-2.0906-.444-3.096l.02,.077h4.425v10c0,1.1046,.8954,2,2,2s2-.8954,2-2v-12c0-1.1046-.8954-2-2-2l-.001,.001Zm-17,14c-3.8639-.005-6.995-3.1361-7-7,.0026-1.5149,.5033-2.9868,1.425-4.189l-.012,.017-2.865-2.865c-1.6507,1.9737-2.5528,4.466-2.548,7.039,0,6.074,4.924,10.998,10.998,10.998,2.686,0,5.147-.963,7.057-2.562l-.017,.014-2.865-2.865c-1.1984,.9151-2.6641,1.4116-4.172,1.413h-.001Z"/></svg>