<?xml version="1.0" encoding="UTF-8"?><svg id="a" xmlns="http://www.w3.org/2000/svg" width="48" height="48" viewBox="0 0 48 48"><g id="b"><path d="M45.0797,13.3724c-.5055-1.8896-1.9686-3.3736-3.8508-3.9058l-.0385-.0092c-3.431-.9258-17.1899-.9258-17.1899-.9258,0,0-13.7589,0-17.1899,.9258-1.8864,.5181-3.3608,1.9908-3.8811,3.8765l-.0092,.0385c-.5857,3.0946-.9203,6.6539-.9203,10.2921l.0009,.3868v-.0202l-.0009,.3667c0,3.6382,.3346,7.1975,.9753,10.6496l-.055-.3575c.5097,1.8748,1.976,3.3383,3.8518,3.8444l.0376,.0082c3.431,.9258,17.1899,.9258,17.1899,.9258,0,0,13.7589,0,17.1899-.9258,1.8794-.4917,3.3568-1.9436,3.8811-3.8142l.0092-.0385c.5857-3.0946,.9203-6.6539,.9203-10.2921l-.0009-.3868v.0202l.0009-.3667c0-3.6382-.3346-7.1975-.9753-10.6505l.055,.3575v.0009ZM19.4997,30.5733v-13.0842l11.4993,6.5421-11.4993,6.5421Z"/></g></svg>