<?xml version="1.0" encoding="UTF-8"?><svg id="a" xmlns="http://www.w3.org/2000/svg" width="372" height="48" viewBox="0 0 372 48"><defs><style>.c{fill:#00aeef;}.d{fill:#231f20;}.e{fill:none;stroke:#231f20;stroke-linecap:round;stroke-miterlimit:10;}</style></defs><g><path class="d" d="m21.293,18.1758c-1.0732,0-1.917.3804-2.5312,1.1406-.6143.7607-.9219,1.8101-.9219,3.1484,0,1.4014.2959,2.4609.8867,3.1797s1.4463,1.0781,2.5664,1.0781c.4844,0,.9531-.0479,1.4062-.1445.4531-.0962.9248-.2197,1.4141-.3711v1.6016c-.8955.3389-1.9111.5078-3.0469.5078-1.6719,0-2.9561-.5063-3.8516-1.5195-.8955-1.0127-1.3438-2.4619-1.3438-4.3477,0-1.1875.2178-2.2266.6523-3.1172s1.0635-1.5728,1.8867-2.0469c.8232-.4736,1.7891-.7109,2.8984-.7109,1.167,0,2.2451.2451,3.2344.7344l-.6719,1.5547c-.3857-.1821-.793-.3423-1.2227-.4805-.4297-.1377-.8818-.207-1.3555-.207Z"/><path class="d" d="m25.6172,28.5098c0-3.3516,1.3652-5.0273,4.0957-5.0273.4297,0,.793.0332,1.0898.0996v1.1484c-.2969-.0859-.6406-.1289-1.0312-.1289-.918,0-1.6074.2461-2.0684.7383s-.7109,1.2812-.75,2.3672h.0703c.1836-.3164.4414-.5615.7734-.7354s.7227-.2607,1.1719-.2607c.7773,0,1.3828.2383,1.8164.7148s.6504,1.123.6504,1.9395c0,.8984-.251,1.6084-.7529,2.1299s-1.1865.7822-2.0537.7822c-.6133,0-1.1465-.1475-1.5996-.4424s-.8018-.7246-1.0459-1.2891-.3662-1.2432-.3662-2.0361Zm2.9883,2.6309c.4727,0,.8369-.1523,1.0928-.457s.3838-.7402.3838-1.3066c0-.4922-.1201-.8789-.3604-1.1602s-.6006-.4219-1.0811-.4219c-.2969,0-.5703.0635-.8203.1904s-.4473.3008-.5918.5215-.2168.4463-.2168.6768c0,.5508.1494,1.0146.4482,1.3916s.6807.5654,1.1455.5654Z"/><path class="d" d="m42.4316,28.1602h-1.875v-5.1484h-5.2656v5.1484h-1.8672v-11.4219h1.8672v4.6719h5.2656v-4.6719h1.875v11.4219Z"/><path class="d" d="m48.502,32.1602h-1.377v-5.5312c0-.6602.0156-1.1836.0469-1.5703-.0898.0938-.2002.1973-.3311.3105s-.5693.4727-1.3154,1.0781l-.6914-.873,2.5195-1.9805h1.1484v8.5664Z"/><path class="d" d="m57.1152,32.1602h-5.8066v-1.043l2.209-2.2207c.6523-.668,1.085-1.1416,1.2979-1.4209s.3682-.542.4658-.7881.1465-.5098.1465-.791c0-.3867-.1162-.6914-.3486-.9141s-.5537-.334-.9639-.334c-.3281,0-.6455.0605-.9521.1816s-.6611.3398-1.0635.6562l-.7441-.9082c.4766-.4023.9395-.6875,1.3887-.8555s.9277-.252,1.4355-.252c.7969,0,1.4355.208,1.916.624s.7207.9756.7207,1.6787c0,.3867-.0693.7539-.208,1.1016s-.3516.7061-.6387,1.0752-.7646.8682-1.4326,1.4971l-1.4883,1.4414v.0586h4.0664v1.2129Z"/><path class="d" d="m69.2793,22.4336c0,1.8594-.4648,3.3047-1.3945,4.3359s-2.2461,1.5469-3.9492,1.5469c-1.7236,0-3.0479-.5117-3.9727-1.5352s-1.3867-2.4775-1.3867-4.3633.4648-3.333,1.3945-4.3438c.9297-1.0103,2.2568-1.5156,3.9805-1.5156,1.6982,0,3.0107.5132,3.9375,1.5391.9268,1.0264,1.3906,2.4717,1.3906,4.3359Zm-8.7188,0c0,1.4062.2842,2.4727.8516,3.1992s1.4092,1.0898,2.5234,1.0898c1.1094,0,1.9463-.3594,2.5117-1.0781s.8477-1.7891.8477-3.2109c0-1.4009-.2803-2.4634-.8398-3.1875-.5596-.7236-1.3945-1.0859-2.5039-1.0859-1.1201,0-1.9648.3623-2.5352,1.0859-.5703.7241-.8555,1.7866-.8555,3.1875Z"/><path class="d" d="m70.7754,28.5098c0-3.3516,1.3652-5.0273,4.0957-5.0273.4297,0,.793.0332,1.0898.0996v1.1484c-.2969-.0859-.6406-.1289-1.0312-.1289-.918,0-1.6074.2461-2.0684.7383s-.7109,1.2812-.75,2.3672h.0703c.1836-.3164.4414-.5615.7734-.7354s.7227-.2607,1.1719-.2607c.7773,0,1.3828.2383,1.8164.7148s.6504,1.123.6504,1.9395c0,.8984-.251,1.6084-.7529,2.1299s-1.1865.7822-2.0537.7822c-.6133,0-1.1465-.1475-1.5996-.4424s-.8018-.7246-1.0459-1.2891-.3662-1.2432-.3662-2.0361Zm2.9883,2.6309c.4727,0,.8369-.1523,1.0928-.457s.3838-.7402.3838-1.3066c0-.4922-.1201-.8789-.3604-1.1602s-.6006-.4219-1.0811-.4219c-.2969,0-.5703.0635-.8203.1904s-.4473.3008-.5918.5215-.2168.4463-.2168.6768c0,.5508.1494,1.0146.4482,1.3916s.6807.5654,1.1455.5654Z"/></g><g><path class="c" d="m100.3682,23.293c0-4.4688,1.8203-6.7031,5.4609-6.7031.5732,0,1.0576.0444,1.4531.1328v1.5312c-.3955-.1143-.8545-.1719-1.375-.1719-1.2236,0-2.1436.3281-2.7578.9844s-.9482,1.7085-1,3.1562h.0938c.2451-.4219.5889-.7485,1.0312-.9805.4424-.2314.9639-.3477,1.5625-.3477,1.0361,0,1.8438.3179,2.4219.9531.5781.6357.8672,1.4976.8672,2.5859,0,1.1982-.335,2.1445-1.0039,2.8398s-1.582,1.043-2.7383,1.043c-.8174,0-1.5283-.1963-2.1328-.5898-.6045-.3931-1.0693-.9658-1.3945-1.7188-.3252-.7524-.4883-1.6572-.4883-2.7148Zm3.9844,3.5078c.6299,0,1.1162-.2031,1.457-.6094s.5117-.9868.5117-1.7422c0-.6562-.1602-1.1719-.4805-1.5469s-.8008-.5625-1.4414-.5625c-.3955,0-.7607.085-1.0938.2539-.333.1694-.5967.4014-.7891.6953-.1924.2944-.2891.5952-.2891.9023,0,.7344.1992,1.353.5977,1.8555.3984.5029.9072.7539,1.5273.7539Z"/><path class="d" d="m124.5713,22.4336c0,1.8594-.4648,3.3047-1.3945,4.3359s-2.2461,1.5469-3.9492,1.5469c-1.7236,0-3.0479-.5117-3.9727-1.5352s-1.3867-2.4775-1.3867-4.3633.4648-3.333,1.3945-4.3438c.9297-1.0103,2.2568-1.5156,3.9805-1.5156,1.6982,0,3.0107.5132,3.9375,1.5391.9268,1.0264,1.3906,2.4717,1.3906,4.3359Zm-8.7188,0c0,1.4062.2842,2.4727.8516,3.1992s1.4092,1.0898,2.5234,1.0898c1.1094,0,1.9463-.3594,2.5117-1.0781s.8477-1.7891.8477-3.2109c0-1.4009-.2803-2.4634-.8398-3.1875-.5596-.7236-1.3945-1.0859-2.5039-1.0859-1.1201,0-1.9648.3623-2.5352,1.0859-.5703.7241-.8555,1.7866-.8555,3.1875Z"/><path class="d" d="m131.8506,32.1602h-5.8066v-1.043l2.209-2.2207c.6523-.668,1.085-1.1416,1.2979-1.4209s.3682-.542.4658-.7881.1465-.5098.1465-.791c0-.3867-.1162-.6914-.3486-.9141s-.5537-.334-.9639-.334c-.3281,0-.6455.0605-.9521.1816s-.6611.3398-1.0635.6562l-.7441-.9082c.4766-.4023.9395-.6875,1.3887-.8555s.9277-.252,1.4355-.252c.7969,0,1.4355.208,1.916.624s.7207.9756.7207,1.6787c0,.3867-.0693.7539-.208,1.1016s-.3516.7061-.6387,1.0752-.7646.8682-1.4326,1.4971l-1.4883,1.4414v.0586h4.0664v1.2129Z"/></g><g><path class="c" d="m161.2979,23.293c0-4.4688,1.8203-6.7031,5.4609-6.7031.5732,0,1.0576.0444,1.4531.1328v1.5312c-.3955-.1143-.8545-.1719-1.375-.1719-1.2236,0-2.1436.3281-2.7578.9844s-.9482,1.7085-1,3.1562h.0938c.2451-.4219.5889-.7485,1.0312-.9805.4424-.2314.9639-.3477,1.5625-.3477,1.0361,0,1.8438.3179,2.4219.9531.5781.6357.8672,1.4976.8672,2.5859,0,1.1982-.335,2.1445-1.0039,2.8398s-1.582,1.043-2.7383,1.043c-.8174,0-1.5283-.1963-2.1328-.5898-.6045-.3931-1.0693-.9658-1.3945-1.7188-.3252-.7524-.4883-1.6572-.4883-2.7148Zm3.9844,3.5078c.6299,0,1.1162-.2031,1.457-.6094s.5117-.9868.5117-1.7422c0-.6562-.1602-1.1719-.4805-1.5469s-.8008-.5625-1.4414-.5625c-.3955,0-.7607.085-1.0938.2539-.333.1694-.5967.4014-.7891.6953-.1924.2944-.2891.5952-.2891.9023,0,.7344.1992,1.353.5977,1.8555.3984.5029.9072.7539,1.5273.7539Z"/><path class="d" d="m180.2197,18.1758c-1.0732,0-1.917.3804-2.5312,1.1406-.6143.7607-.9219,1.8101-.9219,3.1484,0,1.4014.2959,2.4609.8867,3.1797s1.4463,1.0781,2.5664,1.0781c.4844,0,.9531-.0479,1.4062-.1445.4531-.0962.9248-.2197,1.4141-.3711v1.6016c-.8955.3389-1.9111.5078-3.0469.5078-1.6719,0-2.9561-.5063-3.8516-1.5195-.8955-1.0127-1.3438-2.4619-1.3438-4.3477,0-1.1875.2178-2.2266.6523-3.1172s1.0635-1.5728,1.8867-2.0469c.8232-.4736,1.7891-.7109,2.8984-.7109,1.167,0,2.2451.2451,3.2344.7344l-.6719,1.5547c-.3857-.1821-.793-.3423-1.2227-.4805-.4297-.1377-.8818-.207-1.3555-.207Z"/><path class="d" d="m195.6416,22.4336c0,1.8594-.4648,3.3047-1.3945,4.3359s-2.2461,1.5469-3.9492,1.5469c-1.7236,0-3.0479-.5117-3.9727-1.5352s-1.3867-2.4775-1.3867-4.3633.4648-3.333,1.3945-4.3438c.9297-1.0103,2.2568-1.5156,3.9805-1.5156,1.6982,0,3.0107.5132,3.9375,1.5391.9268,1.0264,1.3906,2.4717,1.3906,4.3359Zm-8.7188,0c0,1.4062.2842,2.4727.8516,3.1992s1.4092,1.0898,2.5234,1.0898c1.1094,0,1.9463-.3594,2.5117-1.0781s.8477-1.7891.8477-3.2109c0-1.4009-.2803-2.4634-.8398-3.1875-.5596-.7236-1.3945-1.0859-2.5039-1.0859-1.1201,0-1.9648.3623-2.5352,1.0859-.5703.7241-.8555,1.7866-.8555,3.1875Z"/><path class="d" d="m202.9209,32.1602h-5.8066v-1.043l2.209-2.2207c.6523-.668,1.085-1.1416,1.2979-1.4209s.3682-.542.4658-.7881.1465-.5098.1465-.791c0-.3867-.1162-.6914-.3486-.9141s-.5537-.334-.9639-.334c-.3281,0-.6455.0605-.9521.1816s-.6611.3398-1.0635.6562l-.7441-.9082c.4766-.4023.9395-.6875,1.3887-.8555s.9277-.252,1.4355-.252c.7969,0,1.4355.208,1.916.624s.7207.9756.7207,1.6787c0,.3867-.0693.7539-.208,1.1016s-.3516.7061-.6387,1.0752-.7646.8682-1.4326,1.4971l-1.4883,1.4414v.0586h4.0664v1.2129Z"/></g><g><path class="c" d="m236.3604,23.293c0-4.4688,1.8203-6.7031,5.4609-6.7031.5732,0,1.0576.0444,1.4531.1328v1.5312c-.3955-.1143-.8545-.1719-1.375-.1719-1.2236,0-2.1436.3281-2.7578.9844s-.9482,1.7085-1,3.1562h.0938c.2451-.4219.5889-.7485,1.0312-.9805.4424-.2314.9639-.3477,1.5625-.3477,1.0361,0,1.8438.3179,2.4219.9531.5781.6357.8672,1.4976.8672,2.5859,0,1.1982-.335,2.1445-1.0039,2.8398s-1.582,1.043-2.7383,1.043c-.8174,0-1.5283-.1963-2.1328-.5898-.6045-.3931-1.0693-.9658-1.3945-1.7188-.3252-.7524-.4883-1.6572-.4883-2.7148Zm3.9844,3.5078c.6299,0,1.1162-.2031,1.457-.6094s.5117-.9868.5117-1.7422c0-.6562-.1602-1.1719-.4805-1.5469s-.8008-.5625-1.4414-.5625c-.3955,0-.7607.085-1.0938.2539-.333.1694-.5967.4014-.7891.6953-.1924.2944-.2891.5952-.2891.9023,0,.7344.1992,1.353.5977,1.8555.3984.5029.9072.7539,1.5273.7539Z"/><path class="d" d="m259.4307,28.1602h-1.875v-5.1484h-5.2656v5.1484h-1.8672v-11.4219h1.8672v4.6719h5.2656v-4.6719h1.875v11.4219Z"/><path class="d" d="m267.2646,32.1602h-5.8066v-1.043l2.209-2.2207c.6523-.668,1.085-1.1416,1.2979-1.4209s.3682-.542.4658-.7881.1465-.5098.1465-.791c0-.3867-.1162-.6914-.3486-.9141s-.5537-.334-.9639-.334c-.3281,0-.6455.0605-.9521.1816s-.6611.3398-1.0635.6562l-.7441-.9082c.4766-.4023.9395-.6875,1.3887-.8555s.9277-.252,1.4355-.252c.7969,0,1.4355.208,1.916.624s.7207.9756.7207,1.6787c0,.3867-.0693.7539-.208,1.1016s-.3516.7061-.6387,1.0752-.7646.8682-1.4326,1.4971l-1.4883,1.4414v.0586h4.0664v1.2129Z"/><path class="d" d="m279.4287,22.4336c0,1.8594-.4648,3.3047-1.3945,4.3359s-2.2461,1.5469-3.9492,1.5469c-1.7236,0-3.0479-.5117-3.9727-1.5352s-1.3867-2.4775-1.3867-4.3633.4648-3.333,1.3945-4.3438c.9297-1.0103,2.2568-1.5156,3.9805-1.5156,1.6982,0,3.0107.5132,3.9375,1.5391.9268,1.0264,1.3906,2.4717,1.3906,4.3359Zm-8.7188,0c0,1.4062.2842,2.4727.8516,3.1992s1.4092,1.0898,2.5234,1.0898c1.1094,0,1.9463-.3594,2.5117-1.0781s.8477-1.7891.8477-3.2109c0-1.4009-.2803-2.4634-.8398-3.1875-.5596-.7236-1.3945-1.0859-2.5039-1.0859-1.1201,0-1.9648.3623-2.5352,1.0859-.5703.7241-.8555,1.7866-.8555,3.1875Z"/></g><g><path class="d" d="m309.5273,28.3164c-1.0264,0-1.8271-.2891-2.4023-.8672s-.8633-1.3853-.8633-2.4219c0-1.0312.2021-1.9907.6055-2.8789.4033-.8877.9502-1.5742,1.6406-2.0586s1.4619-.7266,2.3164-.7266c.8389,0,1.4912.189,1.957.5664.4658.3779.6992.9131.6992,1.6055,0,.9482-.4336,1.689-1.3008,2.2227-.8672.5342-2.1025.8008-3.707.8008h-.3359l-.0156.2422v.2266c0,.5781.1475,1.0312.4414,1.3594s.7334.4922,1.3164.4922c.375,0,.7471-.0493,1.1172-.1484.3701-.0986.8076-.2681,1.3125-.5078v1.4609c-.5.2295-.96.3921-1.3789.4883s-.8867.1445-1.4023.1445Zm1.1875-7.5469c-.5,0-.9697.2241-1.4102.6719-.4404.4482-.7568,1.0391-.9492,1.7734h.2266c.9795,0,1.7451-.1392,2.2969-.418.5518-.2783.8281-.6729.8281-1.1836,0-.2656-.083-.4727-.25-.6211s-.4141-.2227-.7422-.2227Z"/><path class="d" d="m319.4102,28.1602l1.1094-5.25c.0938-.4688.1406-.8096.1406-1.0234,0-.6821-.3359-1.0234-1.0078-1.0234-.375,0-.7451.1484-1.1094.4453s-.6924.7256-.9844,1.2852c-.292.5601-.5107,1.1943-.6562,1.9023l-.7656,3.6641h-1.8438l1.8438-8.6406h1.4375l-.1641,1.6016h.0703c.4326-.6143.8779-1.061,1.3359-1.3398.458-.2783.9561-.418,1.4922-.418.6982,0,1.2383.1982,1.6211.5938.3828.396.5742.9585.5742,1.6875,0,.3594-.0596.8311-.1797,1.4141l-1.0703,5.1016h-1.8438Z"/><path class="d" d="m327.3633,28.3164c-1.0264,0-1.8271-.2891-2.4023-.8672s-.8633-1.3853-.8633-2.4219c0-1.0312.2021-1.9907.6055-2.8789.4033-.8877.9502-1.5742,1.6406-2.0586s1.4619-.7266,2.3164-.7266c.8389,0,1.4912.189,1.957.5664.4658.3779.6992.9131.6992,1.6055,0,.9482-.4336,1.689-1.3008,2.2227-.8672.5342-2.1025.8008-3.707.8008h-.3359l-.0156.2422v.2266c0,.5781.1475,1.0312.4414,1.3594s.7334.4922,1.3164.4922c.375,0,.7471-.0493,1.1172-.1484.3701-.0986.8076-.2681,1.3125-.5078v1.4609c-.5.2295-.96.3921-1.3789.4883s-.8867.1445-1.4023.1445Zm1.1875-7.5469c-.5,0-.9697.2241-1.4102.6719-.4404.4482-.7568,1.0391-.9492,1.7734h.2266c.9795,0,1.7451-.1392,2.2969-.418.5518-.2783.8281-.6729.8281-1.1836,0-.2656-.083-.4727-.25-.6211s-.4141-.2227-.7422-.2227Z"/><path class="d" d="m337.9883,19.3633c.3232,0,.6045.0312.8438.0938l-.3984,1.7109c-.2812-.0728-.5469-.1094-.7969-.1094-.6562,0-1.2422.2944-1.7578.8828-.5156.5889-.875,1.3594-1.0781,2.3125l-.8281,3.9062h-1.8438l1.8438-8.6406h1.4375l-.1641,1.6016h.0703c.4326-.625.8643-1.0742,1.2969-1.3477s.8906-.4102,1.375-.4102Z"/><path class="d" d="m347.2227,19.5195l-.2422,1.0703-1.5.2578c.1455.3022.2188.6592.2188,1.0703,0,1.0054-.3096,1.8037-.9297,2.3945-.6201.5913-1.4502.8867-2.4922.8867-.2705,0-.5107-.0205-.7188-.0625-.5781.2085-.8672.4795-.8672.8125,0,.1982.082.3335.2461.4062.1641.0732.4023.1304.7148.1719l.9922.125c.917.1147,1.5732.3428,1.9688.6836.3955.3413.5938.8291.5938,1.4648,0,1.0205-.3936,1.8096-1.1797,2.3672-.7861.5571-1.9033.8359-3.3516.8359-1.0576,0-1.876-.1953-2.457-.5859s-.8711-.9272-.8711-1.6094c0-.5366.1807-1,.543-1.3906s.9443-.7212,1.7461-.9922c-.3955-.2344-.5938-.5649-.5938-.9922,0-.3594.1211-.6704.3633-.9336.2422-.2627.624-.5166,1.1445-.7617-.7031-.4219-1.0547-1.0781-1.0547-1.9688,0-1.0205.3193-1.8438.957-2.4688s1.4805-.9375,2.5273-.9375c.417,0,.833.0522,1.25.1562h2.9922Zm-6.3984,8.5c-.583.0938-1.0312.2783-1.3438.5547-.3125.2759-.4688.6172-.4688,1.0234,0,.3384.1445.6079.4336.8086.2891.2002.7305.3008,1.3242.3008.8486,0,1.5127-.1406,1.9922-.4219s.7188-.6851.7188-1.2109c0-.2656-.1172-.4741-.3516-.625-.2344-.1514-.6455-.2578-1.2344-.3203l-1.0703-.1094Zm2.1094-7.4297c-.3389,0-.6357.1006-.8906.3008-.2549.2007-.4531.4741-.5938.8203-.1406.3467-.2109.7256-.2109,1.1367,0,.3701.0928.6553.2773.8555.1846.2007.4492.3008.793.3008.3389,0,.6318-.1016.8789-.3047s.4404-.4814.5781-.8359c.1377-.354.207-.7422.207-1.1641,0-.7393-.3467-1.1094-1.0391-1.1094Z"/><path class="d" d="m347.4102,19.5195h1.8125l.4922,4.1484c.0469.3232.0889.7773.125,1.3633s.0547,1.0586.0547,1.418h.0469c.4482-1.1196.7998-1.9346,1.0547-2.4453l2.2891-4.4844h1.9844l-5.375,10c-.4688.8594-.9795,1.4883-1.5312,1.8867s-1.2002.5977-1.9453.5977c-.3955,0-.7686-.0498-1.1172-.1484v-1.4688c.3906.083.7158.125.9766.125.3857,0,.7344-.1133,1.0469-.3398s.6357-.6318.9688-1.2148l.3984-.7188-1.2812-8.7188Z"/></g><line class="e" x1="84" y1="24" x2="92" y2="24"/><g><line class="e" x1="140" y1="24" x2="149.1635" y2="24"/><path class="d" d="m152,24c-1.3347.4952-2.9907,1.3402-4.0173,2.2353l.8085-2.2353-.8085-2.2348c1.0265.895,2.6826,1.74,4.0173,2.2348Z"/></g><line class="e" x1="88" y1="20" x2="88" y2="28"/><line class="e" x1="220" y1="24" x2="228" y2="24"/><line class="e" x1="224" y1="20" x2="224" y2="28"/><line class="e" x1="288" y1="24" x2="296" y2="24"/><line class="e" x1="292" y1="20" x2="292" y2="28"/></svg>