<?xml version="1.0" encoding="UTF-8"?><svg id="a" xmlns="http://www.w3.org/2000/svg" viewBox="0 0 140 140"><defs><style>.e{stroke-linejoin:round;}.e,.f{fill:none;stroke:#231f20;stroke-linecap:round;}.g{fill:#fff;}.h{fill:#231f20;}.f{stroke-miterlimit:10;}</style></defs><rect class="g" width="140" height="140"/><g><line class="e" x1="112" y1="80" x2="112" y2="64"/><line class="e" x1="112" y1="64" x2="112" y2="48"/><line class="e" x1="88" y1="104" x2="88" y2="88"/><line class="f" x1="76.0002" y1="40.0002" x2="112" y2="64"/><line class="f" x1="28" y1="64" x2="64" y2="40"/><line class="e" x1="52" y1="104" x2="52" y2="88"/><line class="e" x1="28" y1="64" x2="28" y2="48"/><path d="m72.6758,39.2168c0,.9297-.2324,1.6523-.6973,2.168s-1.123.7734-1.9746.7734c-.8623,0-1.5244-.2559-1.9863-.7676s-.6934-1.2388-.6934-2.1816.2324-1.6665.6973-2.1719,1.1279-.7578,1.9902-.7578c.8486,0,1.5049.2563,1.9688.7695s.6953,1.2358.6953,2.168Zm-4.3594,0c0,.7031.1416,1.2363.4258,1.5996s.7041.5449,1.2617.5449c.5547,0,.9736-.1797,1.2559-.5391s.4238-.8945.4238-1.6055c0-.7007-.1396-1.2319-.4199-1.5938s-.6973-.543-1.252-.543c-.5596,0-.9824.1812-1.2676.543s-.4277.8931-.4277,1.5938Z"/><line class="e" x1="52" y1="88" x2="52" y2="76"/><path d="m54.2539,72.0801h-.9375v-2.5742h-2.6328v2.5742h-.9336v-5.7109h.9336v2.3359h2.6328v-2.3359h.9375v5.7109Z"/><line class="e" x1="88" y1="88" x2="88" y2="76"/><g><path d="m87.1055,72.0801h-.9375v-2.5742h-2.6328v2.5742h-.9336v-5.7109h.9336v2.3359h2.6328v-2.3359h.9375v5.7109Z"/><path d="m93.6797,69.2168c0,.9297-.2324,1.6523-.6973,2.168s-1.123.7734-1.9746.7734c-.8623,0-1.5244-.2559-1.9863-.7676s-.6934-1.2388-.6934-2.1816.2324-1.6665.6973-2.1719,1.1279-.7578,1.9902-.7578c.8486,0,1.5049.2563,1.9688.7695s.6953,1.2358.6953,2.168Zm-4.3594,0c0,.7031.1416,1.2363.4258,1.5996s.7041.5449,1.2617.5449c.5547,0,.9736-.1797,1.2559-.5391s.4238-.8945.4238-1.6055c0-.7007-.1396-1.2319-.4199-1.5938s-.6973-.543-1.252-.543c-.5596,0-.9824.1812-1.2676.543s-.4277.8931-.4277,1.5938Z"/></g><g><path d="m111.6719,39.2168c0,.9297-.2324,1.6523-.6973,2.168s-1.123.7734-1.9746.7734c-.8623,0-1.5244-.2559-1.9863-.7676s-.6934-1.2393-.6934-2.1816.2324-1.667.6973-2.1719,1.1279-.7578,1.9902-.7578c.8486,0,1.5049.2568,1.9688.7695s.6953,1.2354.6953,2.168Zm-4.3594,0c0,.7031.1416,1.2363.4258,1.5996s.7041.5449,1.2617.5449c.5547,0,.9736-.1797,1.2559-.5391s.4238-.8945.4238-1.6055c0-.7002-.1396-1.2314-.4199-1.5938s-.6973-.543-1.252-.543c-.5596,0-.9824.1807-1.2676.543s-.4277.8936-.4277,1.5938Z"/><path d="m117.4023,42.0801h-.9375v-2.5742h-2.6328v2.5742h-.9336v-5.7109h.9336v2.3359h2.6328v-2.3359h.9375v5.7109Z"/></g><line class="e" x1="28" y1="80" x2="28" y2="64"/><path d="m30.2539,90.0801h-.9375v-2.5742h-2.6328v2.5742h-.9336v-5.7109h.9336v2.3359h2.6328v-2.3359h.9375v5.7109Z"/><g><path d="m17.7793,37.0879c-.5361,0-.958.1904-1.2656.5703s-.4609.9053-.4609,1.5742c0,.7002.1475,1.2305.4434,1.5898s.7236.5391,1.2832.5391c.2422,0,.4766-.0244.7031-.0723s.4619-.1104.707-.1855v.8008c-.4482.1689-.9561.2539-1.5234.2539-.8359,0-1.4775-.2529-1.9258-.7598s-.6719-1.2314-.6719-2.1738c0-.5938.1084-1.1133.3262-1.5586s.5322-.7861.9434-1.0234.8945-.3555,1.4492-.3555c.583,0,1.1221.1221,1.6172.3672l-.3359.7773c-.1924-.0908-.3965-.1709-.6113-.2402s-.4404-.1035-.6777-.1035Z"/><path d="m24.9238,42.0801h-.9375v-2.5742h-2.6328v2.5742h-.9336v-5.7109h.9336v2.3359h2.6328v-2.3359h.9375v5.7109Z"/><path d="m28.8408,44.0801h-2.9033v-.5215l1.1045-1.1104c.3262-.334.542-.5703.6494-.71.1055-.1396.1836-.2715.2324-.3945s.0732-.2549.0732-.3955c0-.1934-.0586-.3457-.1748-.457s-.2764-.167-.4814-.167c-.1641,0-.3232.0303-.4756.0908-.1543.0605-.3311.1699-.5322.3281l-.3721-.4541c.2383-.2012.4697-.3438.6943-.4277s.4639-.126.7178-.126c.3984,0,.7178.1045.958.3115.2402.209.3604.4883.3604.8398,0,.1934-.0352.377-.1035.5508-.0703.1738-.1758.3535-.3203.5371-.1426.1855-.3818.4346-.7158.749l-.7441.7207v.0293h2.0332v.6064Z"/><path d="m34.9238,39.2168c0,.9297-.2324,1.6523-.6973,2.168s-1.123.7734-1.9746.7734c-.8623,0-1.5244-.2559-1.9863-.7676s-.6934-1.2393-.6934-2.1816.2324-1.667.6973-2.1719,1.1279-.7578,1.9902-.7578c.8486,0,1.5049.2568,1.9688.7695s.6953,1.2354.6953,2.168Zm-4.3594,0c0,.7031.1416,1.2363.4258,1.5996s.7041.5449,1.2617.5449c.5547,0,.9736-.1797,1.2559-.5391s.4238-.8945.4238-1.6055c0-.7002-.1396-1.2314-.4199-1.5938s-.6973-.543-1.252-.543c-.5596,0-.9824.1807-1.2676.543s-.4277.8936-.4277,1.5938Z"/><path d="m40.6543,42.0801h-.9375v-2.5742h-2.6328v2.5742h-.9336v-5.7109h.9336v2.3359h2.6328v-2.3359h.9375v5.7109Z"/></g><g><path d="m101.7793,85.0879c-.5361,0-.958.1904-1.2656.5703s-.4609.9053-.4609,1.5742c0,.7002.1475,1.2305.4434,1.5898s.7236.5391,1.2832.5391c.2422,0,.4766-.0244.7031-.0723s.4619-.1104.707-.1855v.8008c-.4482.1689-.9561.2539-1.5234.2539-.8359,0-1.4775-.2529-1.9258-.7598s-.6719-1.2314-.6719-2.1738c0-.5938.1084-1.1133.3262-1.5586s.5322-.7861.9434-1.0234.8945-.3555,1.4492-.3555c.583,0,1.1221.1221,1.6172.3672l-.3359.7773c-.1924-.0908-.3965-.1709-.6113-.2402s-.4404-.1035-.6777-.1035Z"/><path d="m108.9238,90.0801h-.9375v-2.5742h-2.6328v2.5742h-.9336v-5.7109h.9336v2.3359h2.6328v-2.3359h.9375v5.7109Z"/><path d="m112.8408,92.0801h-2.9033v-.5215l1.1045-1.1104c.3262-.334.542-.5703.6494-.71.1055-.1396.1836-.2715.2324-.3945s.0732-.2549.0732-.3955c0-.1934-.0586-.3457-.1748-.457s-.2764-.167-.4814-.167c-.1641,0-.3232.0303-.4756.0908-.1543.0605-.3311.1699-.5322.3281l-.3721-.4541c.2383-.2012.4697-.3438.6943-.4277s.4639-.126.7178-.126c.3984,0,.7178.1045.958.3115.2402.209.3604.4883.3604.8398,0,.1934-.0352.377-.1035.5508-.0703.1738-.1758.3535-.3203.5371-.1426.1855-.3818.4346-.7158.749l-.7441.7207v.0293h2.0332v.6064Z"/><path d="m118.9238,87.2168c0,.9297-.2324,1.6523-.6973,2.168s-1.123.7734-1.9746.7734c-.8623,0-1.5244-.2559-1.9863-.7676s-.6934-1.2393-.6934-2.1816.2324-1.667.6973-2.1719,1.1279-.7578,1.9902-.7578c.8486,0,1.5049.2568,1.9688.7695s.6953,1.2354.6953,2.168Zm-4.3594,0c0,.7031.1416,1.2363.4258,1.5996s.7041.5449,1.2617.5449c.5547,0,.9736-.1797,1.2559-.5391s.4238-.8945.4238-1.6055c0-.7002-.1396-1.2314-.4199-1.5938s-.6973-.543-1.252-.543c-.5596,0-.9824.1807-1.2676.543s-.4277.8936-.4277,1.5938Z"/><path d="m124.6543,90.0801h-.9375v-2.5742h-2.6328v2.5742h-.9336v-5.7109h.9336v2.3359h2.6328v-2.3359h.9375v5.7109Z"/></g><path d="m90.2539,114.0801h-.9375v-2.5742h-2.6328v2.5742h-.9336v-5.7109h.9336v2.3359h2.6328v-2.3359h.9375v5.7109Z"/><g><path d="m51.6719,111.2168c0,.9297-.2324,1.6523-.6973,2.168s-1.123.7734-1.9746.7734c-.8623,0-1.5244-.2559-1.9863-.7676s-.6934-1.2393-.6934-2.1816.2324-1.667.6973-2.1719,1.1279-.7578,1.9902-.7578c.8486,0,1.5049.2568,1.9688.7695s.6953,1.2354.6953,2.168Zm-4.3594,0c0,.7031.1416,1.2363.4258,1.5996s.7041.5449,1.2617.5449c.5547,0,.9736-.1797,1.2559-.5391s.4238-.8945.4238-1.6055c0-.7002-.1396-1.2314-.4199-1.5938s-.6973-.543-1.252-.543c-.5596,0-.9824.1807-1.2676.543s-.4277.8936-.4277,1.5938Z"/><path d="m57.4023,114.0801h-.9375v-2.5742h-2.6328v2.5742h-.9336v-5.7109h.9336v2.3359h2.6328v-2.3359h.9375v5.7109Z"/></g><path class="h" d="m112.3535,64.3536l-22.9393,25.0606c-.354.3868-.8378.5839-1.3238.5859h-36.1742c-.5243,0-1.0009-.2287-1.3305-.5859l-22.9393-25.0606c-.1866-.2039-.1727-.5205.0312-.7071.1924-.1761.4866-.1721.6759,0l25.0606,22.9393-1.414-.5857h35.9998l-1.414.5857,25.0606-22.9393c.2039-.1866.5205-.1726.7071.0312.1761.1924.1721.4866,0,.6759Z"/></g></svg>