<?xml version="1.0" encoding="UTF-8"?><svg id="a" xmlns="http://www.w3.org/2000/svg" width="280" height="140" viewBox="0 0 280 140"><defs><style>.e{stroke-linejoin:round;}.e,.f{fill:none;stroke:#231f20;stroke-linecap:round;}.g{fill:#fff;}.h{fill:#231f20;}.f{stroke-miterlimit:10;}</style></defs><rect class="g" width="280" height="140"/><line class="e" x1="112" y1="68" x2="112" y2="52"/><line class="e" x1="52" y1="44" x2="52" y2="28"/><line class="e" x1="88" y1="108" x2="88" y2="92"/><line class="f" x1="92.0002" y1="48.0002" x2="112" y2="68"/><line class="f" x1="112.0002" y1="68.0002" x2="132" y2="88"/><line class="f" x1="140" y1="88" x2="159.9998" y2="68.0002"/><line class="f" x1="28" y1="68" x2="52" y2="44"/><line class="f" x1="52" y1="44" x2="82" y2="44"/><line class="e" x1="52" y1="56" x2="52" y2="44"/><line class="e" x1="52" y1="108" x2="52" y2="92"/><line class="e" x1="28" y1="68" x2="28" y2="52"/><path d="m90.6758,43.2168c0,.9297-.2324,1.6523-.6973,2.168s-1.123.7734-1.9746.7734c-.8623,0-1.5244-.2559-1.9863-.7676s-.6934-1.2393-.6934-2.1816c0-.9434.2324-1.667.6973-2.1719.4648-.5059,1.1279-.7578,1.9902-.7578.8486,0,1.5049.2559,1.9688.7695.4639.5127.6953,1.2354.6953,2.168Zm-4.3594,0c0,.7031.1416,1.2363.4258,1.5996s.7041.5449,1.2617.5449c.5547,0,.9736-.1797,1.2559-.5391s.4238-.8945.4238-1.6055c0-.7012-.1396-1.2324-.4199-1.5938-.2803-.3623-.6973-.543-1.252-.543-.5596,0-.9824.1807-1.2676.543-.2852.3613-.4277.8926-.4277,1.5938Z"/><path d="m114.2539,48.0801h-.9375v-2.5742h-2.6328v2.5742h-.9336v-5.7109h.9336v2.3359h2.6328v-2.3359h.9375v5.7109Z"/><line class="e" x1="52" y1="92" x2="52" y2="80"/><g><path d="m51.6719,73.2168c0,.9297-.2324,1.6523-.6973,2.168s-1.123.7734-1.9746.7734c-.8623,0-1.5244-.2559-1.9863-.7676s-.6934-1.2393-.6934-2.1816c0-.9434.2324-1.667.6973-2.1719.4648-.5059,1.1279-.7578,1.9902-.7578.8486,0,1.5049.2559,1.9688.7695.4639.5127.6953,1.2354.6953,2.168Zm-4.3594,0c0,.7031.1416,1.2363.4258,1.5996s.7041.5449,1.2617.5449c.5547,0,.9736-.1797,1.2559-.5391s.4238-.8945.4238-1.6055c0-.7012-.1396-1.2324-.4199-1.5938-.2803-.3623-.6973-.543-1.252-.543-.5596,0-.9824.1807-1.2676.543-.2852.3613-.4277.8926-.4277,1.5938Z"/><path d="m57.4023,76.0801h-.9375v-2.5742h-2.6328v2.5742h-.9336v-5.7109h.9336v2.3359h2.6328v-2.3359h.9375v5.7109Z"/></g><path d="m138.6758,91.2168c0,.9297-.2324,1.6523-.6973,2.168s-1.123.7734-1.9746.7734c-.8623,0-1.5244-.2559-1.9863-.7676s-.6934-1.2393-.6934-2.1816.2324-1.667.6973-2.1719,1.1279-.7578,1.9902-.7578c.8486,0,1.5049.2568,1.9688.7695s.6953,1.2354.6953,2.168Zm-4.3594,0c0,.7031.1416,1.2363.4258,1.5996s.7041.5449,1.2617.5449c.5547,0,.9736-.1797,1.2559-.5391s.4238-.8945.4238-1.6055c0-.7002-.1396-1.2314-.4199-1.5938s-.6973-.543-1.252-.543c-.5596,0-.9824.1807-1.2676.543s-.4277.8936-.4277,1.5938Z"/><line class="e" x1="28" y1="84" x2="28" y2="68"/><g><path d="m27.6719,91.2168c0,.9297-.2324,1.6523-.6973,2.168s-1.123.7734-1.9746.7734c-.8623,0-1.5244-.2559-1.9863-.7676s-.6934-1.2393-.6934-2.1816.2324-1.667.6973-2.1719,1.1279-.7578,1.9902-.7578c.8486,0,1.5049.2568,1.9688.7695s.6953,1.2354.6953,2.168Zm-4.3594,0c0,.7031.1416,1.2363.4258,1.5996s.7041.5449,1.2617.5449c.5547,0,.9736-.1797,1.2559-.5391s.4238-.8945.4238-1.6055c0-.7002-.1396-1.2314-.4199-1.5938s-.6973-.543-1.252-.543c-.5596,0-.9824.1807-1.2676.543s-.4277.8936-.4277,1.5938Z"/><path d="m33.4023,94.0801h-.9375v-2.5742h-2.6328v2.5742h-.9336v-5.7109h.9336v2.3359h2.6328v-2.3359h.9375v5.7109Z"/></g><g><path d="m41.7793,17.0879c-.5361,0-.958.1904-1.2656.5703s-.4609.9053-.4609,1.5742c0,.7002.1475,1.2305.4434,1.5898s.7236.5391,1.2832.5391c.2422,0,.4766-.0244.7031-.0723s.4619-.1104.707-.1855v.8008c-.4482.1689-.9561.2539-1.5234.2539-.8359,0-1.4775-.2529-1.9258-.7598s-.6719-1.2314-.6719-2.1738c0-.5938.1084-1.1133.3262-1.5586s.5322-.7861.9434-1.0234.8945-.3555,1.4492-.3555c.583,0,1.1221.1221,1.6172.3672l-.3359.7773c-.1924-.0908-.3965-.1709-.6113-.2402s-.4404-.1035-.6777-.1035Z"/><path d="m48.9238,22.0801h-.9375v-2.5742h-2.6328v2.5742h-.9336v-5.7109h.9336v2.3359h2.6328v-2.3359h.9375v5.7109Z"/><path d="m52.8408,24.0801h-2.9033v-.5215l1.1045-1.1104c.3262-.334.542-.5703.6494-.71.1055-.1396.1836-.2715.2324-.3945s.0732-.2549.0732-.3955c0-.1934-.0586-.3457-.1748-.457s-.2764-.167-.4814-.167c-.1641,0-.3232.0303-.4756.0908-.1543.0605-.3311.1699-.5322.3281l-.3721-.4541c.2383-.2012.4697-.3438.6943-.4277s.4639-.126.7178-.126c.3984,0,.7178.1045.958.3115.2402.209.3604.4883.3604.8398,0,.1934-.0352.377-.1035.5508-.0703.1738-.1758.3535-.3203.5371-.1426.1855-.3818.4346-.7158.749l-.7441.7207v.0293h2.0332v.6064Z"/><path d="m58.9238,19.2168c0,.9297-.2324,1.6523-.6973,2.168s-1.123.7734-1.9746.7734c-.8623,0-1.5244-.2559-1.9863-.7676s-.6934-1.2393-.6934-2.1816.2324-1.667.6973-2.1719,1.1279-.7578,1.9902-.7578c.8486,0,1.5049.2568,1.9688.7695s.6953,1.2354.6953,2.168Zm-4.3594,0c0,.7031.1416,1.2363.4258,1.5996s.7041.5449,1.2617.5449c.5547,0,.9736-.1797,1.2559-.5391s.4238-.8945.4238-1.6055c0-.7002-.1396-1.2314-.4199-1.5938s-.6973-.543-1.252-.543c-.5596,0-.9824.1807-1.2676.543s-.4277.8936-.4277,1.5938Z"/><path d="m64.6543,22.0801h-.9375v-2.5742h-2.6328v2.5742h-.9336v-5.7109h.9336v2.3359h2.6328v-2.3359h.9375v5.7109Z"/></g><path d="m54.2539,66.0801h-.9375v-2.5742h-2.6328v2.5742h-.9336v-5.7109h.9336v2.3359h2.6328v-2.3359h.9375v5.7109Z"/><path d="m30.2539,48.0801h-.9375v-2.5742h-2.6328v2.5742h-.9336v-5.7109h.9336v2.3359h2.6328v-2.3359h.9375v5.7109Z"/><path d="m54.2539,118.0801h-.9375v-2.5742h-2.6328v2.5742h-.9336v-5.7109h.9336v2.3359h2.6328v-2.3359h.9375v5.7109Z"/><g><path d="m87.6719,115.2168c0,.9297-.2324,1.6523-.6973,2.168s-1.123.7734-1.9746.7734c-.8623,0-1.5244-.2559-1.9863-.7676s-.6934-1.2393-.6934-2.1816.2324-1.667.6973-2.1719,1.1279-.7578,1.9902-.7578c.8486,0,1.5049.2568,1.9688.7695s.6953,1.2354.6953,2.168Zm-4.3594,0c0,.7031.1416,1.2363.4258,1.5996s.7041.5449,1.2617.5449c.5547,0,.9736-.1797,1.2559-.5391s.4238-.8945.4238-1.6055c0-.7002-.1396-1.2314-.4199-1.5938s-.6973-.543-1.252-.543c-.5596,0-.9824.1807-1.2676.543s-.4277.8936-.4277,1.5938Z"/><path d="m93.4023,118.0801h-.9375v-2.5742h-2.6328v2.5742h-.9336v-5.7109h.9336v2.3359h2.6328v-2.3359h.9375v5.7109Z"/></g><path class="h" d="m112.3536,68.3536l-22.9393,25.0606c-.354.3868-.8378.5839-1.3238.5859h-36.1742c-.5243,0-1.0009-.2287-1.3305-.5859l-22.9393-25.0606c-.1866-.2039-.1726-.5205.0312-.7071.1924-.1761.4866-.1721.6759,0l25.0606,22.9393-1.414-.5857h35.9998l-1.414.5857,25.0606-22.9393c.2039-.1866.5205-.1727.7071.0312.1761.1924.1721.4866,0,.6759Z"/><line class="e" x1="244" y1="84" x2="244" y2="68"/><line class="e" x1="244" y1="68" x2="244" y2="52"/><line class="e" x1="220" y1="108" x2="220" y2="92"/><line class="f" x1="208.0002" y1="44.0002" x2="244" y2="68"/><line class="f" x1="160" y1="68" x2="196" y2="44"/><line class="e" x1="184" y1="108" x2="184" y2="92"/><line class="e" x1="160" y1="68" x2="160" y2="52"/><path d="m204.6758,43.2168c0,.9297-.2324,1.6523-.6973,2.168s-1.123.7734-1.9746.7734c-.8623,0-1.5244-.2559-1.9863-.7676s-.6934-1.2393-.6934-2.1816c0-.9434.2324-1.667.6973-2.1719.4648-.5059,1.1279-.7578,1.9902-.7578.8486,0,1.5049.2559,1.9688.7695.4639.5127.6953,1.2354.6953,2.168Zm-4.3594,0c0,.7031.1416,1.2363.4258,1.5996s.7041.5449,1.2617.5449c.5547,0,.9736-.1797,1.2559-.5391s.4238-.8945.4238-1.6055c0-.7012-.1396-1.2324-.4199-1.5938-.2803-.3623-.6973-.543-1.252-.543-.5596,0-.9824.1807-1.2676.543-.2852.3613-.4277.8926-.4277,1.5938Z"/><line class="e" x1="184" y1="92" x2="184" y2="80"/><path d="m186.2539,76.0801h-.9375v-2.5742h-2.6328v2.5742h-.9336v-5.7109h.9336v2.3359h2.6328v-2.3359h.9375v5.7109Z"/><line class="e" x1="220" y1="92" x2="220" y2="80"/><g><path d="m219.1055,76.0801h-.9375v-2.5742h-2.6328v2.5742h-.9336v-5.7109h.9336v2.3359h2.6328v-2.3359h.9375v5.7109Z"/><path d="m225.6797,73.2168c0,.9297-.2324,1.6523-.6973,2.168s-1.123.7734-1.9746.7734c-.8623,0-1.5244-.2559-1.9863-.7676s-.6934-1.2393-.6934-2.1816c0-.9434.2324-1.667.6973-2.1719.4648-.5059,1.1279-.7578,1.9902-.7578.8486,0,1.5049.2559,1.9688.7695.4639.5127.6953,1.2354.6953,2.168Zm-4.3594,0c0,.7031.1416,1.2363.4258,1.5996s.7041.5449,1.2617.5449c.5547,0,.9736-.1797,1.2559-.5391s.4238-.8945.4238-1.6055c0-.7012-.1396-1.2324-.4199-1.5938-.2803-.3623-.6973-.543-1.252-.543-.5596,0-.9824.1807-1.2676.543-.2852.3613-.4277.8926-.4277,1.5938Z"/></g><g><path d="m243.6719,43.2168c0,.9297-.2324,1.6523-.6973,2.168s-1.123.7734-1.9746.7734c-.8623,0-1.5244-.2559-1.9863-.7676s-.6934-1.2393-.6934-2.1816.2324-1.667.6973-2.1719,1.1279-.7578,1.9902-.7578c.8486,0,1.5049.2568,1.9688.7695s.6953,1.2354.6953,2.168Zm-4.3594,0c0,.7031.1416,1.2363.4258,1.5996s.7041.5449,1.2617.5449c.5547,0,.9736-.1797,1.2559-.5391s.4238-.8945.4238-1.6055c0-.7002-.1396-1.2314-.4199-1.5938s-.6973-.543-1.252-.543c-.5596,0-.9824.1807-1.2676.543s-.4277.8936-.4277,1.5938Z"/><path d="m249.4023,46.0801h-.9375v-2.5742h-2.6328v2.5742h-.9336v-5.7109h.9336v2.3359h2.6328v-2.3359h.9375v5.7109Z"/></g><g><path d="m149.7793,41.0879c-.5361,0-.958.1904-1.2656.5703s-.4609.9053-.4609,1.5742c0,.7002.1475,1.2305.4434,1.5898s.7236.5391,1.2832.5391c.2422,0,.4766-.0244.7031-.0723s.4619-.1104.707-.1855v.8008c-.4482.1689-.9561.2539-1.5234.2539-.8359,0-1.4775-.2529-1.9258-.7598s-.6719-1.2314-.6719-2.1738c0-.5938.1084-1.1133.3262-1.5586s.5322-.7861.9434-1.0234.8945-.3555,1.4492-.3555c.583,0,1.1221.1221,1.6172.3672l-.3359.7773c-.1924-.0908-.3965-.1709-.6113-.2402s-.4404-.1035-.6777-.1035Z"/><path d="m156.9238,46.0801h-.9375v-2.5742h-2.6328v2.5742h-.9336v-5.7109h.9336v2.3359h2.6328v-2.3359h.9375v5.7109Z"/><path d="m160.8408,48.0801h-2.9033v-.5215l1.1045-1.1104c.3262-.334.542-.5703.6494-.71.1055-.1396.1836-.2715.2324-.3945s.0732-.2549.0732-.3955c0-.1934-.0586-.3457-.1748-.457s-.2764-.167-.4814-.167c-.1641,0-.3232.0303-.4756.0908-.1543.0605-.3311.1699-.5322.3281l-.3721-.4541c.2383-.2012.4697-.3438.6943-.4277s.4639-.126.7178-.126c.3984,0,.7178.1045.958.3115.2402.209.3604.4883.3604.8398,0,.1934-.0352.377-.1035.5508-.0703.1738-.1758.3535-.3203.5371-.1426.1855-.3818.4346-.7158.749l-.7441.7207v.0293h2.0332v.6064Z"/><path d="m166.9238,43.2168c0,.9297-.2324,1.6523-.6973,2.168s-1.123.7734-1.9746.7734c-.8623,0-1.5244-.2559-1.9863-.7676s-.6934-1.2393-.6934-2.1816.2324-1.667.6973-2.1719,1.1279-.7578,1.9902-.7578c.8486,0,1.5049.2568,1.9688.7695s.6953,1.2354.6953,2.168Zm-4.3594,0c0,.7031.1416,1.2363.4258,1.5996s.7041.5449,1.2617.5449c.5547,0,.9736-.1797,1.2559-.5391s.4238-.8945.4238-1.6055c0-.7002-.1396-1.2314-.4199-1.5938s-.6973-.543-1.252-.543c-.5596,0-.9824.1807-1.2676.543s-.4277.8936-.4277,1.5938Z"/><path d="m172.6543,46.0801h-.9375v-2.5742h-2.6328v2.5742h-.9336v-5.7109h.9336v2.3359h2.6328v-2.3359h.9375v5.7109Z"/></g><g><path d="m233.7793,89.0879c-.5361,0-.958.1904-1.2656.5703s-.4609.9053-.4609,1.5742c0,.7002.1475,1.2305.4434,1.5898s.7236.5391,1.2832.5391c.2422,0,.4766-.0244.7031-.0723s.4619-.1104.707-.1855v.8008c-.4482.1689-.9561.2539-1.5234.2539-.8359,0-1.4775-.2529-1.9258-.7598s-.6719-1.2314-.6719-2.1738c0-.5938.1084-1.1133.3262-1.5586s.5322-.7861.9434-1.0234.8945-.3555,1.4492-.3555c.583,0,1.1221.1221,1.6172.3672l-.3359.7773c-.1924-.0908-.3965-.1709-.6113-.2402s-.4404-.1035-.6777-.1035Z"/><path d="m240.9238,94.0801h-.9375v-2.5742h-2.6328v2.5742h-.9336v-5.7109h.9336v2.3359h2.6328v-2.3359h.9375v5.7109Z"/><path d="m244.8408,96.0801h-2.9033v-.5215l1.1045-1.1104c.3262-.334.542-.5703.6494-.71.1055-.1396.1836-.2715.2324-.3945s.0732-.2549.0732-.3955c0-.1934-.0586-.3457-.1748-.457s-.2764-.167-.4814-.167c-.1641,0-.3232.0303-.4756.0908-.1543.0605-.3311.1699-.5322.3281l-.3721-.4541c.2383-.2012.4697-.3438.6943-.4277s.4639-.126.7178-.126c.3984,0,.7178.1045.958.3115.2402.209.3604.4883.3604.8398,0,.1934-.0352.377-.1035.5508-.0703.1738-.1758.3535-.3203.5371-.1426.1855-.3818.4346-.7158.749l-.7441.7207v.0293h2.0332v.6064Z"/><path d="m250.9238,91.2168c0,.9297-.2324,1.6523-.6973,2.168s-1.123.7734-1.9746.7734c-.8623,0-1.5244-.2559-1.9863-.7676s-.6934-1.2393-.6934-2.1816.2324-1.667.6973-2.1719,1.1279-.7578,1.9902-.7578c.8486,0,1.5049.2568,1.9688.7695s.6953,1.2354.6953,2.168Zm-4.3594,0c0,.7031.1416,1.2363.4258,1.5996s.7041.5449,1.2617.5449c.5547,0,.9736-.1797,1.2559-.5391s.4238-.8945.4238-1.6055c0-.7002-.1396-1.2314-.4199-1.5938s-.6973-.543-1.252-.543c-.5596,0-.9824.1807-1.2676.543s-.4277.8936-.4277,1.5938Z"/><path d="m256.6543,94.0801h-.9375v-2.5742h-2.6328v2.5742h-.9336v-5.7109h.9336v2.3359h2.6328v-2.3359h.9375v5.7109Z"/></g><path d="m222.2539,118.0801h-.9375v-2.5742h-2.6328v2.5742h-.9336v-5.7109h.9336v2.3359h2.6328v-2.3359h.9375v5.7109Z"/><g><path d="m183.6719,115.2168c0,.9297-.2324,1.6523-.6973,2.168s-1.123.7734-1.9746.7734c-.8623,0-1.5244-.2559-1.9863-.7676s-.6934-1.2393-.6934-2.1816.2324-1.667.6973-2.1719,1.1279-.7578,1.9902-.7578c.8486,0,1.5049.2568,1.9688.7695s.6953,1.2354.6953,2.168Zm-4.3594,0c0,.7031.1416,1.2363.4258,1.5996s.7041.5449,1.2617.5449c.5547,0,.9736-.1797,1.2559-.5391s.4238-.8945.4238-1.6055c0-.7002-.1396-1.2314-.4199-1.5938s-.6973-.543-1.252-.543c-.5596,0-.9824.1807-1.2676.543s-.4277.8936-.4277,1.5938Z"/><path d="m189.4023,118.0801h-.9375v-2.5742h-2.6328v2.5742h-.9336v-5.7109h.9336v2.3359h2.6328v-2.3359h.9375v5.7109Z"/></g><path class="h" d="m244.3535,68.3535l-22.9393,25.0606c-.354.3868-.8378.5839-1.3238.5859h-36.1742c-.5243,0-1.0009-.2287-1.3305-.5859l-22.9393-25.0606c-.1866-.2039-.1727-.5205.0312-.7071.1924-.1761.4866-.1721.6759,0l25.0606,22.9393-1.414-.5857h35.9998l-1.414.5857,25.0606-22.9393c.2039-.1866.5205-.1726.7071.0312.1761.1924.1721.4866,0,.6759Z"/></svg>